<svg xmlns="http://www.w3.org/2000/svg" width="324.027" height="317.447" viewBox="0 0 324.027 317.447"><g transform="translate(22.679 0)"><path d="M82.224,138.519H72.675v-10.3H62.38v-9.549h10.3v-10.3h9.549v10.3h10.3v9.549h-10.3Zm-8.191-1.358h6.834v-10.3h10.3v-6.834h-10.3v-10.3H74.033v10.3h-10.3v6.834h10.3Z" transform="translate(-62.38 -20.752)" fill="#ececec"/><path d="M248.918,96.021h-6.475V89.038H235.46V82.563h6.983V75.58h6.475v6.983H255.9v6.475h-6.983Zm-5.55-.925h4.64V88.113h6.983v-4.64h-6.983V76.49h-4.64v6.983h-6.983v4.64h6.983Z" transform="translate(22.783 -36.891)" fill="#ececec"/><path d="M246.4,59.945v9.549h-10.31v10.3H226.56v-10.3H216.25V59.945h10.31V49.65h9.534v10.3Z" transform="translate(13.331 -49.65)" fill="#ececec"/></g><g transform="translate(4.596 137.104)"><g transform="translate(214.183 29.453)"><rect width="53.579" height="80.376" transform="translate(92.223 101.951) rotate(180)" fill="#ececec"/><rect width="66.515" height="21.575" transform="translate(98.699 21.575) rotate(180)" fill="#dcdcdc"/><g transform="translate(34.72 2.939)"><rect width="1.88" height="15.293" rx="0.56" transform="translate(61.427 15.293) rotate(180)" fill="#c8c8c8"/><rect width="1.88" height="15.293" rx="0.56" transform="translate(57.921 15.293) rotate(180)" fill="#c8c8c8"/><rect width="1.88" height="15.293" rx="0.56" transform="translate(54.43 15.293) rotate(180)" fill="#c8c8c8"/><rect width="1.88" height="15.293" rx="0.56" transform="translate(50.923 15.293) rotate(180)" fill="#c8c8c8"/><rect width="1.88" height="15.293" rx="0.56" transform="translate(47.417 15.293) rotate(180)" fill="#c8c8c8"/><rect width="1.88" height="15.293" rx="0.56" transform="translate(43.911 15.293) rotate(180)" fill="#c8c8c8"/><rect width="1.88" height="15.293" rx="0.56" transform="translate(40.419 15.293) rotate(180)" fill="#c8c8c8"/><rect width="1.88" height="15.293" rx="0.56" transform="translate(36.913 15.293) rotate(180)" fill="#c8c8c8"/><rect width="1.88" height="15.293" rx="0.56" transform="translate(33.407 15.293) rotate(180)" fill="#c8c8c8"/><rect width="1.88" height="15.293" rx="0.56" transform="translate(29.901 15.293) rotate(180)" fill="#c8c8c8"/><rect width="1.88" height="15.293" rx="0.56" transform="translate(26.409 15.293) rotate(180)" fill="#c8c8c8"/><rect width="1.88" height="15.293" rx="0.56" transform="translate(22.903 15.293) rotate(180)" fill="#c8c8c8"/><rect width="1.88" height="15.293" rx="0.56" transform="translate(19.397 15.293) rotate(180)" fill="#c8c8c8"/><rect width="1.88" height="15.293" rx="0.56" transform="translate(15.89 15.293) rotate(180)" fill="#c8c8c8"/><rect width="1.88" height="15.293" rx="0.56" transform="translate(12.399 15.293) rotate(180)" fill="#c8c8c8"/><rect width="1.88" height="15.293" rx="0.56" transform="translate(8.893 15.293) rotate(180)" fill="#c8c8c8"/><rect width="1.88" height="15.293" rx="0.56" transform="translate(5.386 15.293) rotate(180)" fill="#c8c8c8"/><rect width="1.88" height="15.293" rx="0.56" transform="translate(1.88 15.293) rotate(180)" fill="#c8c8c8"/></g><rect width="35.675" height="35.675" transform="translate(83.271 80.376) rotate(180)" fill="#fff"/><g transform="translate(73.811 104.145)"><path d="M270.137,237.824h0a6.737,6.737,0,0,0-6.744-6.744H250.024a6.743,6.743,0,0,0-6.744,6.729h0a6.763,6.763,0,0,0,6.744,6.774h13.369a6.756,6.756,0,0,0,6.744-6.744Z" transform="translate(-243.28 -231.08)" fill="#dcdcdc"/><path d="M265.708,237.824h0a6.737,6.737,0,0,0-6.744-6.744H252.28v13.5h6.684a6.756,6.756,0,0,0,6.744-6.744Z" transform="translate(-238.852 -231.08)" fill="#ececec"/></g><g transform="translate(17.144 93.357)"><rect width="26.857" height="13.503" rx="4.52" fill="#dcdcdc"/><path d="M205.3,230.609h0a6.737,6.737,0,0,0,6.744,6.744h6.684v-13.5h-6.684a6.756,6.756,0,0,0-6.744,6.744Z" transform="translate(-205.3 -223.85)" fill="#ececec"/></g><g transform="translate(0 81.902)"><path d="M195.794,237.132h0a6.74,6.74,0,0,0,9.534,0l9.445-9.445a6.74,6.74,0,0,0,0-9.534h0a6.745,6.745,0,0,0-9.549,0l-9.445,9.445a6.772,6.772,0,0,0,0,9.549Z" transform="translate(-193.81 -216.172)" fill="#dcdcdc"/><path d="M195.794,234.929h0a6.741,6.741,0,0,0,9.534,0l4.73-4.73-9.549-9.549-4.73,4.73a6.772,6.772,0,0,0,0,9.549Z" transform="translate(-193.81 -213.969)" fill="#ececec"/></g><g transform="translate(36.242 106.86)"><path d="M244.957,239.644h0a6.737,6.737,0,0,0-6.744-6.744H224.844a6.743,6.743,0,0,0-6.744,6.729h0a6.763,6.763,0,0,0,6.744,6.774h13.369a6.756,6.756,0,0,0,6.744-6.744Z" transform="translate(-218.1 -232.9)" fill="#dcdcdc"/><path d="M240.528,239.644h0a6.737,6.737,0,0,0-6.744-6.744H227.1v13.5h6.684a6.756,6.756,0,0,0,6.744-6.744Z" transform="translate(-213.672 -232.9)" fill="#ececec"/></g></g><path d="M4.76,0H57.533a4.731,4.731,0,0,1,4.73,4.73V93.387A12.659,12.659,0,0,1,49.61,106.04H12.653A12.659,12.659,0,0,1,0,93.387V4.73A4.731,4.731,0,0,1,4.73,0Z" transform="translate(62.263 131.061) rotate(180)" fill="#ececec"/><rect width="36.033" height="16.517" transform="translate(49.148 28.08) rotate(180)" fill="#ececec"/><g transform="translate(0 59.562)"><rect width="62.248" height="41.971" transform="translate(62.248 41.971) rotate(180)" fill="#fff"/><g transform="translate(0 4.789)"><rect width="62.248" height="3.805" transform="translate(62.248 32.392) rotate(180)" fill="#dcdcdc"/><rect width="62.248" height="3.805" transform="translate(62.248 3.805) rotate(180)" fill="#dcdcdc"/></g></g><g transform="translate(8.43)"><rect width="41.061" height="15.293" transform="translate(43.225 15.293) rotate(180)" fill="#dcdcdc"/><rect width="45.373" height="4.521" transform="translate(45.373 19.829) rotate(180)" fill="#c8c8c8"/><g transform="translate(4.237 2.134)"><rect width="1.88" height="11.026" rx="0.56" transform="translate(36.898 11.026) rotate(180)" fill="#c8c8c8"/><rect width="1.88" height="11.026" rx="0.56" transform="translate(33.407 11.026) rotate(180)" fill="#c8c8c8"/><rect width="1.88" height="11.026" rx="0.56" transform="translate(29.901 11.026) rotate(180)" fill="#c8c8c8"/><rect width="1.88" height="11.026" rx="0.56" transform="translate(26.409 11.026) rotate(180)" fill="#c8c8c8"/><rect width="1.88" height="11.026" rx="0.56" transform="translate(22.903 11.026) rotate(180)" fill="#c8c8c8"/><rect width="1.88" height="11.026" rx="0.56" transform="translate(19.397 11.026) rotate(180)" fill="#c8c8c8"/><rect width="1.88" height="11.026" rx="0.56" transform="translate(15.89 11.026) rotate(180)" fill="#c8c8c8"/><rect width="1.88" height="11.026" rx="0.56" transform="translate(12.399 11.026) rotate(180)" fill="#c8c8c8"/><rect width="1.88" height="11.026" rx="0.56" transform="translate(8.893 11.026) rotate(180)" fill="#c8c8c8"/><rect width="1.88" height="11.026" rx="0.56" transform="translate(5.386 11.026) rotate(180)" fill="#c8c8c8"/><rect width="1.88" height="11.026" rx="0.56" transform="translate(1.88 11.026) rotate(180)" fill="#c8c8c8"/></g></g></g><ellipse cx="154.024" cy="14.935" rx="154.024" ry="14.935" transform="translate(7.997 287.576)" fill="#ececec"/><path d="M47.18,229.682c103.8-.97,220.241-.985,324.027,0-103.8.985-220.241.97-324.027,0h0Z" transform="translate(-47.18 38.573)" fill="#1a2e35"/><g transform="translate(57.638 6.834)"><g transform="translate(0 19.62)"><rect width="203.231" height="269.955" fill="#ffc800"/><g opacity="0.1"><rect width="203.231" height="269.955"/></g><rect width="203.231" height="269.955" transform="translate(5.535)" fill="#ffc800"/></g><g transform="translate(12.078 29.614)"><rect width="179.418" height="243.218" transform="translate(3.831 3.064) rotate(-0.73)" fill="#ececec"/><rect width="243.218" height="179.418" transform="translate(0 243.162) rotate(-88.76)" fill="#dcdcdc"/><rect width="179.418" height="243.218" transform="translate(2.604 1.913)" fill="#fff"/><g transform="translate(23.089 139.166)"><rect width="15.234" height="15.234" transform="translate(0 2.85)" fill="#ececec"/><g transform="translate(23.455 2.85)"><rect width="49.357" height="2.238" fill="#375a64"/><rect width="114.977" height="2.238" transform="translate(0 4.327)" fill="#ececec"/><rect width="114.977" height="2.238" transform="translate(0 8.654)" fill="#ececec"/><rect width="114.977" height="2.238" transform="translate(0 12.996)" fill="#ececec"/></g><path d="M110.13,177.018c.567.463,1.1.955,1.626,1.447s1.044,1,1.567,1.507c1.03,1.015,2.014,2.059,2.984,3.118l-1.746.1a70.466,70.466,0,0,1,4.745-8.326q1.32-1.992,2.82-3.894a35.334,35.334,0,0,1,3.253-3.626,35.449,35.449,0,0,1-1.7,4.566c-.657,1.477-1.373,2.909-2.134,4.312a67.274,67.274,0,0,1-5.162,8.072l-.955,1.283-.791-1.164c-.806-1.194-1.6-2.387-2.357-3.611-.373-.627-.761-1.223-1.1-1.865s-.716-1.268-1.044-1.91Z" transform="translate(-109.011 -167.35)" fill="#ffc800"/><g transform="translate(0 28.05)"><rect width="15.234" height="15.234" fill="#ececec"/><g transform="translate(23.455)"><rect width="49.357" height="2.238" fill="#375a64"/><rect width="114.977" height="2.238" transform="translate(0 4.327)" fill="#ececec"/><rect width="114.977" height="2.238" transform="translate(0 8.669)" fill="#ececec"/><rect width="114.977" height="2.238" transform="translate(0 12.996)" fill="#ececec"/></g></g><g transform="translate(0 53.251)"><rect width="15.234" height="15.234" fill="#ececec"/><g transform="translate(23.455)"><rect width="49.357" height="2.238" fill="#375a64"/><rect width="114.977" height="2.238" transform="translate(0 4.342)" fill="#ececec"/><rect width="114.977" height="2.238" transform="translate(0 8.669)" fill="#ececec"/><rect width="114.977" height="2.238" transform="translate(0 13.011)" fill="#ececec"/></g></g><rect width="77.049" height="2.238" transform="translate(61.398 83.241)" fill="#ececec"/></g><g transform="translate(70.82 62.997)"><rect width="41.777" height="2.238" fill="#375a64"/><rect width="90.701" height="2.238" transform="translate(0 4.327)" fill="#ececec"/><rect width="90.701" height="2.238" transform="translate(0 8.669)" fill="#ececec"/><rect width="90.701" height="2.238" transform="translate(0 17.323)" fill="#ececec"/><rect width="39.45" height="2.238" transform="translate(0 21.664)" fill="#ececec"/></g><g transform="translate(23.089 25.189)"><rect width="138.447" height="21.202" fill="#ffc800"/><g transform="translate(9.534 4.685)"><path d="M115.77,106.554V94.17h2.4v12.384Z" transform="translate(-115.77 -94.066)" fill="#fff"/><path d="M123.272,98.616v7.938h-2.4V94.17h1.865L129.2,102.3V94.185h2.4v12.369h-1.955l-6.371-7.938Z" transform="translate(-113.261 -94.066)" fill="#fff"/><path d="M139.236,97.442a2.457,2.457,0,0,0-.448-.328,4.314,4.314,0,0,0-.791-.4,6.556,6.556,0,0,0-1-.343,4.566,4.566,0,0,0-1.1-.134,2.367,2.367,0,0,0-1.477.373,1.2,1.2,0,0,0-.492,1.03,1.119,1.119,0,0,0,.179.642,1.65,1.65,0,0,0,.537.448,4.17,4.17,0,0,0,.88.343c.358.1.761.209,1.223.328.612.164,1.149.343,1.656.522a4.216,4.216,0,0,1,1.253.7,2.835,2.835,0,0,1,.791,1,3.4,3.4,0,0,1,.283,1.432,3.577,3.577,0,0,1-.373,1.7,3.146,3.146,0,0,1-1.015,1.149,4.492,4.492,0,0,1-1.462.642,7.33,7.33,0,0,1-1.731.194,9.248,9.248,0,0,1-2.76-.418,8.484,8.484,0,0,1-2.447-1.194L132,103.052a3.372,3.372,0,0,0,.567.4,8.219,8.219,0,0,0,.97.507,8.581,8.581,0,0,0,1.238.433,5.477,5.477,0,0,0,1.4.179c1.328,0,1.984-.418,1.984-1.268a1.083,1.083,0,0,0-.224-.686,2.269,2.269,0,0,0-.642-.492,6.927,6.927,0,0,0-1.015-.388c-.4-.119-.836-.239-1.328-.388a10.7,10.7,0,0,1-1.537-.537,3.891,3.891,0,0,1-1.089-.686,2.579,2.579,0,0,1-.656-.91,3.036,3.036,0,0,1-.224-1.223,3.932,3.932,0,0,1,.343-1.671,3.4,3.4,0,0,1,.97-1.223,4.67,4.67,0,0,1,1.432-.746,6.122,6.122,0,0,1,1.761-.254,6.877,6.877,0,0,1,2.4.4,8.925,8.925,0,0,1,1.925.97l-1.059,1.955Z" transform="translate(-108.306 -94.1)" fill="#fff"/><path d="M145.766,104.515a2.826,2.826,0,0,0,1.432-.343,2.745,2.745,0,0,0,.94-.91,3.915,3.915,0,0,0,.507-1.283,7.03,7.03,0,0,0,.149-1.492V94.175h2.387v6.311a9.426,9.426,0,0,1-.3,2.387,5.561,5.561,0,0,1-.955,1.955,4.674,4.674,0,0,1-1.686,1.328,5.661,5.661,0,0,1-2.462.492,5.516,5.516,0,0,1-2.522-.522,4.746,4.746,0,0,1-1.686-1.358,5.479,5.479,0,0,1-.94-1.969,9.21,9.21,0,0,1-.284-2.328V94.16h2.4v6.311a7.076,7.076,0,0,0,.149,1.507,3.916,3.916,0,0,0,.507,1.283,2.7,2.7,0,0,0,.94.9,2.769,2.769,0,0,0,1.417.343Z" transform="translate(-103.675 -94.07)" fill="#fff"/><path d="M151,106.554V94.17h5.476a3.563,3.563,0,0,1,1.582.358,4.319,4.319,0,0,1,1.253.94,4.5,4.5,0,0,1,.821,1.328,4.032,4.032,0,0,1,.3,1.492,4.1,4.1,0,0,1-.6,2.193,3.406,3.406,0,0,1-1.626,1.417l2.835,4.655h-2.7l-2.536-4.148h-2.372v4.148h-2.4Zm2.4-6.267h3.014a1.308,1.308,0,0,0,.627-.164,1.518,1.518,0,0,0,.492-.433,2,2,0,0,0,.328-.642,2.662,2.662,0,0,0,.119-.791,2.4,2.4,0,0,0-.134-.806,2.263,2.263,0,0,0-.373-.642,2.012,2.012,0,0,0-.537-.418,1.336,1.336,0,0,0-.627-.149H153.4v4.014Z" transform="translate(-98.435 -94.066)" fill="#fff"/><path d="M164.325,94.16h2.134l4.715,12.384H168.7l-1.149-3.089h-4.327l-1.134,3.089H159.61l4.73-12.384Zm2.775,7.609-1.716-4.864-1.776,4.864Z" transform="translate(-94.199 -94.07)" fill="#fff"/><path d="M172.422,98.616v7.938h-2.4V94.17h1.865l6.461,8.132V94.185h2.4v12.369h-1.955l-6.371-7.938Z" transform="translate(-89.077 -94.066)" fill="#fff"/><path d="M180.19,100.3a6.133,6.133,0,0,1,.418-2.238,5.931,5.931,0,0,1,5.7-3.939,5.678,5.678,0,0,1,2.954.746,4.88,4.88,0,0,1,1.865,1.955l-1.85,1.268a3.152,3.152,0,0,0-.6-.88,2.908,2.908,0,0,0-.746-.567,3.5,3.5,0,0,0-.836-.3,4.341,4.341,0,0,0-.85-.09,3.14,3.14,0,0,0-1.582.373,3.469,3.469,0,0,0-1.119.955,4.127,4.127,0,0,0-.671,1.328,5.07,5.07,0,0,0-.224,1.477,4.7,4.7,0,0,0,.269,1.582,3.983,3.983,0,0,0,.746,1.328,3.656,3.656,0,0,0,1.149.925,3.079,3.079,0,0,0,1.477.343,3.719,3.719,0,0,0,.88-.1,3.569,3.569,0,0,0,.865-.328,3.443,3.443,0,0,0,.761-.582,2.461,2.461,0,0,0,.552-.865l1.969,1.134a3.48,3.48,0,0,1-.85,1.223,5.245,5.245,0,0,1-1.238.9,6.272,6.272,0,0,1-1.477.552,6.112,6.112,0,0,1-1.537.194,5.341,5.341,0,0,1-2.432-.552,6.267,6.267,0,0,1-1.895-1.462,6.638,6.638,0,0,1-1.238-2.044,6.325,6.325,0,0,1-.448-2.328Z" transform="translate(-84.072 -94.09)" fill="#fff"/><path d="M199.079,104.435v2.119H190.47V94.17h8.445v2.119h-6.043v2.984h5.222v1.955h-5.222v3.223h6.192Z" transform="translate(-79.014 -94.066)" fill="#fff"/></g></g><g transform="translate(22.702 101.134)"><path d="M248.328,171.641H109.12V141.86H248.328Zm-138.447-.761H247.567V142.621H109.881Z" transform="translate(-109.12 -141.86)" fill="#ececec"/><rect width="138.447" height="0.761" transform="translate(0.388 17.546)" fill="#ececec"/><rect width="138.447" height="0.761" transform="translate(0.388 6.102)" fill="#ececec"/><rect width="0.761" height="29.02" transform="translate(45.194 0.388)" fill="#ececec"/><rect width="0.761" height="29.02" transform="translate(93.253 0.388)" fill="#ececec"/><path d="M114.68,144.323c2.447-.149,4.894-.224,7.341-.284s4.894-.075,7.341-.09,4.894.015,7.341.09l3.67.1c1.224.06,2.447.1,3.67.179-1.223.089-2.447.119-3.67.179l-3.67.1c-2.447.075-4.894.075-7.341.09s-4.894-.015-7.341-.09S117.127,144.472,114.68,144.323Z" transform="translate(-106.384 -140.832)" fill="#375a64"/><path d="M145.93,144.323c2.447-.149,4.894-.224,7.341-.284s4.894-.075,7.341-.09,4.894.015,7.341.09l3.67.1c1.223.06,2.447.1,3.67.179-1.223.089-2.447.119-3.67.179l-3.67.1c-2.447.075-4.894.075-7.341.09s-4.894-.015-7.341-.09S148.377,144.472,145.93,144.323Z" transform="translate(-91.008 -140.832)" fill="#375a64"/><path d="M177.37,144.323c2.447-.149,4.894-.224,7.341-.284s4.894-.075,7.341-.09,4.894.015,7.341.09l3.67.1c1.224.06,2.447.1,3.67.179-1.223.089-2.447.119-3.67.179l-3.67.1c-2.447.075-4.894.075-7.341.09s-4.894-.015-7.341-.09S179.817,144.472,177.37,144.323Z" transform="translate(-75.538 -140.832)" fill="#375a64"/><path d="M114.68,149.233c2.447-.149,4.894-.224,7.341-.284s4.894-.075,7.341-.09,4.894.015,7.341.09l3.67.1c1.224.06,2.447.1,3.67.179-1.223.09-2.447.119-3.67.179l-3.67.1c-2.447.075-4.894.075-7.341.09s-4.894-.015-7.341-.09S117.127,149.382,114.68,149.233Z" transform="translate(-106.384 -138.416)" fill="#ececec"/><path d="M145.93,149.233c2.447-.149,4.894-.224,7.341-.284s4.894-.075,7.341-.09,4.894.015,7.341.09l3.67.1c1.223.06,2.447.1,3.67.179-1.223.09-2.447.119-3.67.179l-3.67.1c-2.447.075-4.894.075-7.341.09s-4.894-.015-7.341-.09S148.377,149.382,145.93,149.233Z" transform="translate(-91.008 -138.416)" fill="#ececec"/><path d="M177.37,149.233c2.447-.149,4.894-.224,7.341-.284s4.894-.075,7.341-.09,4.894.015,7.341.09l3.67.1c1.224.06,2.447.1,3.67.179-1.223.09-2.447.119-3.67.179l-3.67.1c-2.447.075-4.894.075-7.341.09s-4.894-.015-7.341-.09S179.817,149.382,177.37,149.233Z" transform="translate(-75.538 -138.416)" fill="#ececec"/><path d="M114.68,151.2c2.447-.149,4.894-.224,7.341-.284s4.894-.075,7.341-.09,4.894.015,7.341.09l3.67.1c1.224.06,2.447.1,3.67.179-1.223.089-2.447.119-3.67.179l-3.67.1c-2.447.075-4.894.075-7.341.09s-4.894-.015-7.341-.09S117.127,151.352,114.68,151.2Z" transform="translate(-106.384 -137.446)" fill="#ececec"/><path d="M145.93,151.2c2.447-.149,4.894-.224,7.341-.284s4.894-.075,7.341-.09,4.894.015,7.341.09l3.67.1c1.223.06,2.447.1,3.67.179-1.223.089-2.447.119-3.67.179l-3.67.1c-2.447.075-4.894.075-7.341.09s-4.894-.015-7.341-.09S148.377,151.352,145.93,151.2Z" transform="translate(-91.008 -137.446)" fill="#ececec"/><path d="M177.37,151.2c2.447-.149,4.894-.224,7.341-.284s4.894-.075,7.341-.09,4.894.015,7.341.09l3.67.1c1.224.06,2.447.1,3.67.179-1.223.089-2.447.119-3.67.179l-3.67.1c-2.447.075-4.894.075-7.341.09s-4.894-.015-7.341-.09S179.817,151.352,177.37,151.2Z" transform="translate(-75.538 -137.446)" fill="#ececec"/><path d="M114.68,156.473c2.447-.149,4.894-.224,7.341-.283s4.894-.075,7.341-.09,4.894.015,7.341.09l3.67.1c1.224.06,2.447.1,3.67.179-1.223.09-2.447.119-3.67.179l-3.67.1c-2.447.075-4.894.075-7.341.09s-4.894-.015-7.341-.09S117.127,156.622,114.68,156.473Z" transform="translate(-106.384 -134.853)" fill="#ececec"/><path d="M145.93,156.473c2.447-.149,4.894-.224,7.341-.283s4.894-.075,7.341-.09,4.894.015,7.341.09l3.67.1c1.223.06,2.447.1,3.67.179-1.223.09-2.447.119-3.67.179l-3.67.1c-2.447.075-4.894.075-7.341.09s-4.894-.015-7.341-.09S148.377,156.622,145.93,156.473Z" transform="translate(-91.008 -134.853)" fill="#ececec"/><path d="M177.37,156.473c2.447-.149,4.894-.224,7.341-.283s4.894-.075,7.341-.09,4.894.015,7.341.09l3.67.1c1.224.06,2.447.1,3.67.179-1.223.09-2.447.119-3.67.179l-3.67.1c-2.447.075-4.894.075-7.341.09s-4.894-.015-7.341-.09S179.817,156.622,177.37,156.473Z" transform="translate(-75.538 -134.853)" fill="#ececec"/><path d="M114.68,158.443c2.447-.149,4.894-.224,7.341-.283s4.894-.075,7.341-.09,4.894.015,7.341.09l3.67.1c1.224.06,2.447.1,3.67.179-1.223.09-2.447.119-3.67.179l-3.67.1c-2.447.075-4.894.075-7.341.09s-4.894-.015-7.341-.09S117.127,158.592,114.68,158.443Z" transform="translate(-106.384 -133.884)" fill="#ececec"/><path d="M145.93,158.443c2.447-.149,4.894-.224,7.341-.283s4.894-.075,7.341-.09,4.894.015,7.341.09l3.67.1c1.223.06,2.447.1,3.67.179-1.223.09-2.447.119-3.67.179l-3.67.1c-2.447.075-4.894.075-7.341.09s-4.894-.015-7.341-.09S148.377,158.592,145.93,158.443Z" transform="translate(-91.008 -133.884)" fill="#ececec"/><path d="M177.37,158.443c2.447-.149,4.894-.224,7.341-.283s4.894-.075,7.341-.09,4.894.015,7.341.09l3.67.1c1.224.06,2.447.1,3.67.179-1.223.09-2.447.119-3.67.179l-3.67.1c-2.447.075-4.894.075-7.341.09s-4.894-.015-7.341-.09S179.817,158.592,177.37,158.443Z" transform="translate(-75.538 -133.884)" fill="#ececec"/></g><g transform="translate(23.089 58.417)"><path d="M142.5,133.507a45.741,45.741,0,0,1-14.712,12.772,45.912,45.912,0,0,1-14.712-12.772c-5.177-6.848-4.924-17.576,2.492-19.9,8.191-2.566,12.22,9.758,12.22,9.758s4.088-12.414,12.22-9.758c7.386,2.4,7.669,13.055,2.492,19.9Z" transform="translate(-109.3 -113.23)" fill="#ffc800"/><path d="M122.092,138.452l-2.238-9.3-1.462,3.268H109.38v-1.044h8.341l2.432-5.476,1.746,7.236,2.462-15.01,2.163,11.877,1.716-4.954,2.716,8.117.6-1.79h14.816v1.044H132.313l-1.358,4.058-2.73-8.176-2.014,5.819-1.805-9.862Z" transform="translate(-109.38 -110.819)" fill="#fff"/></g></g><g transform="translate(60.323)"><rect width="88.12" height="26.872" transform="translate(0 14.697)" fill="#c8c8c8"/><path d="M192.661,54.23H137.977L135.56,68.912h60.353L192.675,54.23ZM165.714,64.794a3.223,3.223,0,1,1,3.223-3.223A3.219,3.219,0,0,1,165.714,64.794Z" transform="translate(-121.654 -54.23)" fill="#c8c8c8"/><path d="M195.888,65.167H135.55l.537-3.3h59.085Z" transform="translate(-121.659 -50.471)" fill="#a8a8a8"/></g></g><g transform="translate(2.232 171.975)"><g transform="translate(8.444)"><path d="M74.978,214.549a36.859,36.859,0,0,0-1.209,6.834c.06.119.045.537-.015.418,0,.373-.582.313-.582-.06a5.751,5.751,0,0,1,.03-.716c-1.328-1.656-3.268-2.7-4.834-4.148a9.005,9.005,0,0,1-2.656-4.223c-1.3-4.476-.075-9.221-1.641-13.7-1.343-3.849-3.76-7.207-5.8-10.7a25.269,25.269,0,0,1-3.909-11.892c-.134-3.312.269-7.714,2.79-10.206,2.671-2.626,5.983-.657,8.027,1.686,5.938,6.8,8.684,15.413,9.788,24.216a94.947,94.947,0,0,1,1.1,14.682,40.261,40.261,0,0,1-1.059,7.789Z" transform="translate(-54.335 -164.912)" fill="#ffc800"/><path d="M71.741,219.23a83.6,83.6,0,0,0-.164-13.8c0-.015.015-.03.03-.045.075-3.73.373-7.445.224-11.175a66.145,66.145,0,0,0-1.641-11.981c0-.045-.075-.03-.075,0a79.445,79.445,0,0,1,1.3,11.727c.075,2.1.06,4.222-.045,6.326-.03.686-.1,1.373-.149,2.059h0a73.612,73.612,0,0,0-11.1-29.363c-.075-.119-.3,0-.224.134a76.718,76.718,0,0,1,9.027,21.769c-2.85-5.282-7.162-9.639-10.355-14.712-.015-.03-.06,0-.045.03,2.865,5.655,7.609,10.116,10.638,15.681.522,2.268.955,4.566,1.268,6.863a78.569,78.569,0,0,1,.686,9.534c-1.731-3.253-3.536-6.356-4.969-9.788a.073.073,0,0,0-.134.06,38.061,38.061,0,0,0,5.118,10.459c0,2.253-.06,4.521-.194,6.774-.358,6.028-1.388,11.966-1.865,17.964a.135.135,0,0,0,.269.03,136.075,136.075,0,0,0,2.372-18.561Z" transform="translate(-52.276 -160.968)" fill="#1a2e35"/><path d="M63.112,172.83s-.09,0-.06.03c1.1,3.044,1.716,6.117,2.522,9.236a.113.113,0,1,0,.224-.03,33.289,33.289,0,0,0-2.671-9.236Z" transform="translate(-50.048 -161.016)" fill="#1a2e35"/></g><g transform="translate(25.461 21.131)"><path d="M88.972,182.5a43.959,43.959,0,0,1-2.536,5.192c-1.984,3.6-4.043,6.893-4.416,11.086a25.805,25.805,0,0,1-.791,5.55,16.781,16.781,0,0,1-2.208,4.342c-2.149,3.133-4.834,5.819-6.819,9.072a38.3,38.3,0,0,0-4.536,10.922c-.045.209-.388.149-.328-.06v-.045a.065.065,0,0,1-.015-.045c-.313-8.982.4-18.039,3.148-26.633A90.392,90.392,0,0,1,74.828,190.8a26.014,26.014,0,0,1,5.879-8.445c1.671-1.507,5.3-4.357,7.669-2.85,1.149.731,1.059,1.88.612,3Z" transform="translate(-64.995 -179.074)" fill="#ffc800"/><path d="M80.69,200.331a74.081,74.081,0,0,1-5.222,7.5c-.865,1.134-1.746,2.268-2.626,3.4-.418.537-.865,1.074-1.253,1.641.239-.94.463-1.895.716-2.835a110.864,110.864,0,0,1,4-13.473,89.687,89.687,0,0,1,6.237-12.22c.06-.1-.1-.179-.164-.075-1.895,3.118-3.82,6.237-5.416,9.534a48.778,48.778,0,0,0-2.3,5.655,87.413,87.413,0,0,1,3.059-12.086c0-.03-.045-.06-.06-.03a41.18,41.18,0,0,0-3.178,12.563v.015q-.582,1.746-1.074,3.536c-1.417,5.028-2.656,10.1-3.8,15.189a53.386,53.386,0,0,1,.865-9.982.06.06,0,0,0-.119-.015,31.691,31.691,0,0,0-.865,10.534c-.433,1.94-.865,3.879-1.268,5.819-.88,4.133-1.969,8.355-2.477,12.563a.084.084,0,0,0,.164.03c.612-2.268.985-4.61,1.492-6.908s1.03-4.6,1.567-6.893c.776-3.342,1.6-6.669,2.432-10a17.8,17.8,0,0,1,2.432-3.327c.88-1.119,1.776-2.253,2.626-3.387a52.7,52.7,0,0,0,4.327-6.684c.03-.045-.045-.09-.075-.03Z" transform="translate(-65.74 -176.539)" fill="#1a2e35"/><path d="M77.7,192.441a46.361,46.361,0,0,0-5.1,8.117c-.015.03.045.075.06.045,1.716-2.7,3.4-5.4,5.118-8.1.03-.045-.045-.09-.075-.045Z" transform="translate(-62.365 -172.498)" fill="#1a2e35"/></g><g transform="translate(0 22.964)"><path d="M51.248,190.415c1.164,2,2.492,4.416,2,6.819-.313,1.522-1.432,2.76-1.626,4.312-.448,3.432,2.969,5.7,5.446,7.311,6.162,4.043,14.622,7.654,15.741,15.92.045.3.552.224.507-.06v-.06c0-.015.03-.03.03-.045a31.545,31.545,0,0,0-.119-12.623,40.45,40.45,0,0,0-4.969-11.832c-3.715-6.326-7.639-12.817-13.249-17.666-1.552-1.343-4.73-3.76-5.968-.731-1.194,2.939.806,6.192,2.238,8.639Z" transform="translate(-48.676 -180.302)" fill="#ffc800"/><path d="M54.209,198.975c4.088,4.431,10.594,6.908,14.115,11.862A49.667,49.667,0,0,0,57.477,190.47c-.134-.149.075-.373.224-.224a40.331,40.331,0,0,1,8.863,12.832,56.8,56.8,0,0,0-3.82-9.758.1.1,0,0,1,.179-.1,37.331,37.331,0,0,1,4.118,10.967c4.64,11.22,5.073,24.395,4.088,36.227a.134.134,0,0,1-.269,0c.269-9.325.119-18.815-2.119-27.916-.045-.194-.1-.373-.149-.567-3.835-5.341-10.3-7.818-14.458-12.876C54.09,199,54.164,198.93,54.209,198.975Z" transform="translate(-45.997 -175.434)" fill="#1a2e35"/><path d="M53.587,193.538c2.149,1.97,4.252,3.984,6.416,5.953.015.015,0,.06-.03.045a31.184,31.184,0,0,1-6.505-5.864.1.1,0,0,1,.134-.134Z" transform="translate(-46.329 -173.802)" fill="#1a2e35"/><path d="M53.361,187.818a69.091,69.091,0,0,0,6.416,8.833c.03.03-.015.09-.06.06a30.834,30.834,0,0,1-6.475-8.818C53.212,187.818,53.316,187.758,53.361,187.818Z" transform="translate(-46.432 -176.617)" fill="#1a2e35"/></g><g transform="translate(16.583 68.184)"><g transform="translate(0 2.805)"><path d="M59.79,237.78h18.8l-2.536-25.29H62.685Z" transform="translate(-59.79 -212.49)" fill="#375a64"/><path d="M61.42,216.593H75.669l-.4-4.1H61.883Z" transform="translate(-58.988 -212.49)" fill="#1a2e35"/></g><rect width="17.621" height="4.043" transform="translate(18.218 4.043) rotate(180)" fill="#375a64"/></g></g><g transform="translate(30.184 0.254)"><path d="M98.11,108.621a28.05,28.05,0,1,1,28.05-28.05A28.085,28.085,0,0,1,98.11,108.621Zm0-54.848a26.8,26.8,0,1,0,26.8,26.8A26.834,26.834,0,0,0,98.11,53.773Z" transform="translate(-66.106 -48.491)" fill="#2b454e"/><path d="M98.012,113.918c-.433-.015-.85-.045-1.268-.075l.1-1.238c.4.03.821.06,1.223.075l-.06,1.253Zm4.461-.119-.119-1.238,1.224-.134.164,1.238c-.418.06-.85.1-1.268.149Zm-10.161-.642c-.418-.09-.836-.194-1.238-.313l.328-1.209c.388.1.791.209,1.194.3l-.269,1.223Zm15.8-.4-.343-1.194c.388-.1.791-.224,1.179-.358l.388,1.194c-.4.134-.806.254-1.223.373ZM86.851,111.4c-.388-.164-.776-.343-1.164-.522l.537-1.134c.373.179.746.343,1.119.507l-.492,1.149Zm26.633-.686-.552-1.119c.373-.179.731-.373,1.089-.567l.6,1.1C114.245,110.337,113.872,110.531,113.484,110.71Zm-31.691-2.029c-.358-.239-.7-.477-1.059-.731l.731-1.015c.328.239.671.477,1.015.7Zm36.6-.94-.731-1c.328-.239.657-.492.97-.746l.776.97C119.08,107.234,118.736,107.487,118.393,107.741ZM77.3,105.1c-.313-.3-.612-.6-.91-.9l.9-.865c.284.3.582.582.865.865l-.865.91Zm45.388-1.164-.91-.865c.283-.3.552-.6.821-.91l.94.821c-.283.313-.567.642-.865.94Zm-49.178-3.163c-.254-.343-.492-.686-.731-1.044l1.029-.7c.224.343.463.671.7,1l-1.015.731Zm52.729-1.358-1.044-.686c.224-.343.448-.686.657-1.044l1.074.642c-.224.373-.448.731-.671,1.089ZM70.558,95.85c-.179-.388-.358-.761-.537-1.164l1.149-.492c.164.373.328.746.507,1.119l-1.119.552Zm58.384-1.507-1.149-.492c.164-.373.313-.761.463-1.149l1.164.433c-.149.4-.313.791-.477,1.194ZM68.529,90.478c-.119-.4-.224-.821-.313-1.238l1.209-.284c.09.4.194.791.3,1.194l-1.209.328Zm62.159-1.611-1.223-.269c.09-.4.164-.806.239-1.209l1.224.224c-.075.418-.164.836-.254,1.253ZM67.5,84.823c-.045-.418-.075-.85-.09-1.268l1.253-.06c.015.4.045.821.09,1.223l-1.238.119Zm63.934-1.656-1.253-.045c.015-.4.03-.821.03-1.223v-.134h1.253v.119c0,.433,0,.865-.03,1.283Zm-62.7-3.984-1.238-.1c.03-.433.09-.85.134-1.268l1.238.164c-.045.4-.089.806-.134,1.223Zm61.159-1.7c-.06-.4-.119-.806-.194-1.209l1.224-.224c.075.418.149.836.209,1.253Zm-60.189-3.73L68.5,73.424c.119-.418.239-.821.358-1.223l1.194.373C69.932,72.962,69.812,73.35,69.708,73.752Zm58.921-1.641c-.134-.388-.269-.776-.418-1.149l1.164-.448c.149.4.3.806.433,1.209l-1.179.4Zm-57-3.521-1.119-.537c.179-.388.373-.761.582-1.149l1.1.582c-.194.358-.373.731-.552,1.1Zm54.773-1.522c-.194-.358-.4-.716-.612-1.059l1.074-.642c.224.358.433.731.642,1.1l-1.089.6ZM74.452,63.845l-1.015-.731c.254-.343.507-.686.776-1.015l.985.776c-.254.328-.507.642-.746.985Zm48.879-1.358c-.254-.313-.522-.627-.791-.94l.94-.821c.283.313.552.642.821.97ZM78.078,59.682l-.865-.9c.313-.3.627-.582.94-.865l.821.94c-.313.269-.612.552-.9.836Zm41.4-1.149c-.313-.269-.627-.522-.94-.776l.776-.985c.328.269.657.537.985.821ZM82.39,56.221,81.7,55.176c.358-.239.716-.463,1.074-.686l.642,1.059c-.343.209-.7.433-1.03.656Zm32.6-.91c-.358-.209-.716-.4-1.074-.6l.582-1.1,1.119.627-.627,1.074ZM87.224,53.595l-.492-1.149c.388-.164.776-.328,1.179-.477l.448,1.164C87.97,53.282,87.6,53.431,87.224,53.595Zm22.769-.642-1.164-.4.388-1.194c.4.134.806.269,1.209.418ZM92.461,51.864l-.283-1.223,1.253-.269.224,1.223c-.4.075-.806.164-1.194.254Zm12.19-.343q-.6-.112-1.209-.179l.164-1.238c.418.06.85.119,1.268.194l-.209,1.223ZM97.922,51.1l-.06-1.253c.418-.015.85-.03,1.283-.03v1.253C98.743,51.073,98.34,51.073,97.922,51.1Z" transform="translate(-67.41 -49.82)" fill="#2b454e"/><path d="M90.28,94.385h8.639V81.359h13.04V72.706H98.919V59.68H90.28V72.706H77.24v8.654H90.28Z" transform="translate(-62.573 -44.968)" fill="#2b454e"/></g><rect width="125.168" height="16.472" transform="translate(100.415 64.352)" fill="#ffc800"/><g transform="translate(96.968 63.307)"><path d="M118.616,107.683l-2.76-4.864h-1.179v4.864H112.17V95.18h4.685a5.474,5.474,0,0,1,2.477.507,3.647,3.647,0,0,1,1.537,1.373,3.7,3.7,0,0,1-2.343,5.535l2.984,5.073h-2.895Zm-3.939-6.744h2.089a2.074,2.074,0,0,0,1.522-.492,1.871,1.871,0,0,0,.507-1.373,1.689,1.689,0,0,0-.507-1.328,2.138,2.138,0,0,0-1.522-.477h-2.089Z" transform="translate(-112.17 -90.555)" fill="#fff"/><path d="M123.567,97.214v3.133h4.208v1.984h-4.208v3.312h4.745v2.044H121.06V95.17h7.251v2.044Z" transform="translate(-107.796 -90.56)" fill="#fff"/><path d="M129.076,98.169a5.914,5.914,0,0,1,2.268-2.268,6.525,6.525,0,0,1,3.238-.821,6.331,6.331,0,0,1,3.67,1.074,5.639,5.639,0,0,1,2.208,2.969h-2.88a2.954,2.954,0,0,0-1.209-1.343,3.561,3.561,0,0,0-1.805-.448,3.655,3.655,0,0,0-1.94.507,3.468,3.468,0,0,0-1.328,1.447,5.208,5.208,0,0,0,0,4.357,3.468,3.468,0,0,0,1.328,1.447,3.655,3.655,0,0,0,1.94.507,3.424,3.424,0,0,0,1.805-.463,2.992,2.992,0,0,0,1.209-1.358h2.88a5.594,5.594,0,0,1-2.193,2.984,6.336,6.336,0,0,1-3.685,1.059,6.41,6.41,0,0,1-3.238-.821,5.914,5.914,0,0,1-2.268-2.268,6.924,6.924,0,0,1,0-6.595Z" transform="translate(-104.263 -90.604)" fill="#fff"/><path d="M141.567,97.214v3.133h4.208v1.984h-4.208v3.312h4.745v2.044H139.06V95.17h7.251v2.044Z" transform="translate(-98.939 -90.56)" fill="#fff"/><path d="M149.157,95.19v12.5H146.65V95.19Z" transform="translate(-95.204 -90.55)" fill="#fff"/><path d="M159.9,95.19v2.029h-3.327v10.474h-2.507V97.219H150.74V95.19Z" transform="translate(-93.192 -90.55)" fill="#fff"/><path d="M161.792,95.19v7.729a2.675,2.675,0,0,0,.656,1.94,2.505,2.505,0,0,0,1.865.671,2.541,2.541,0,0,0,1.88-.671,2.613,2.613,0,0,0,.657-1.94V95.19h2.522V102.9a5.012,5.012,0,0,1-.686,2.7,4.409,4.409,0,0,1-1.85,1.656,5.826,5.826,0,0,1-2.566.552,5.651,5.651,0,0,1-2.536-.552,4.3,4.3,0,0,1-1.805-1.656,5.069,5.069,0,0,1-.657-2.7V95.19h2.507Z" transform="translate(-88.995 -90.55)" fill="#fff"/><path d="M176.79,106.836h-4.983l-.821,2.387H168.36l4.491-12.518h2.924l4.491,12.518h-2.656Zm-.537-12.712L172.135,96v-1.79l4.118-2.134v2.044Zm-.149,10.713L174.3,99.615l-1.805,5.222H176.1Z" transform="translate(-84.522 -92.08)" fill="#fff"/><path d="M185.106,107.683l-2.76-4.864h-1.179v4.864H178.66V95.18h4.685a5.474,5.474,0,0,1,2.477.507,3.647,3.647,0,0,1,1.537,1.373,3.7,3.7,0,0,1-2.342,5.535L188,107.668h-2.895Zm-3.939-6.744h2.089a2.074,2.074,0,0,0,1.522-.492,1.871,1.871,0,0,0,.507-1.373,1.689,1.689,0,0,0-.507-1.328,2.138,2.138,0,0,0-1.522-.477h-2.089Z" transform="translate(-79.454 -90.555)" fill="#fff"/><path d="M190.067,95.19v12.5H187.56V95.19Z" transform="translate(-75.075 -90.55)" fill="#fff"/><path d="M194.873,107.036a6.107,6.107,0,0,1-2.328-2.283,6.434,6.434,0,0,1-.865-3.3,6.238,6.238,0,0,1,.865-3.283,6.107,6.107,0,0,1,2.328-2.283,6.768,6.768,0,0,1,6.461,0,6.175,6.175,0,0,1,2.313,2.283,6.788,6.788,0,0,1,0,6.58,6.174,6.174,0,0,1-2.313,2.283,6.739,6.739,0,0,1-6.446,0Zm5.207-1.925a3.548,3.548,0,0,0,1.343-1.462,4.721,4.721,0,0,0,.477-2.208,4.846,4.846,0,0,0-.477-2.193A3.5,3.5,0,0,0,200.08,97.8a3.778,3.778,0,0,0-1.984-.507,3.87,3.87,0,0,0-2,.507,3.535,3.535,0,0,0-1.358,1.447,4.659,4.659,0,0,0-.477,2.193,4.957,4.957,0,0,0,.477,2.208,3.575,3.575,0,0,0,1.358,1.462,3.832,3.832,0,0,0,2,.507A3.741,3.741,0,0,0,200.08,105.111Z" transform="translate(-73.048 -90.609)" fill="#fff"/></g></svg>