<?xml version="1.0" encoding="UTF-8"?><svg id="Camada_1" xmlns="http://www.w3.org/2000/svg" viewBox="0 0 183 104"><defs><style>.cls-1{fill:#53326d;isolation:isolate;opacity:.75;}.cls-2{fill:#fff;}</style></defs><rect class="cls-1" width="183" height="104" rx="5" ry="5"/><g><path class="cls-2" d="M29.46,33.57c-.23-.49-.57-.87-1.01-1.13-.44-.27-.95-.4-1.54-.4s-1.11,.13-1.58,.4c-.47,.27-.84,.65-1.1,1.15-.27,.5-.4,1.08-.4,1.73s.13,1.23,.4,1.73c.27,.5,.64,.88,1.1,1.15,.47,.27,.99,.4,1.58,.4,.82,0,1.49-.24,2.02-.73,.53-.49,.84-1.15,.92-1.98h-3.34v-.89h4.5v.84c-.06,.69-.28,1.32-.65,1.89-.37,.57-.85,1.02-1.45,1.36-.6,.33-1.27,.5-2,.5-.78,0-1.48-.18-2.12-.55-.64-.36-1.15-.87-1.52-1.52-.37-.65-.56-1.38-.56-2.2s.19-1.55,.56-2.2c.37-.65,.88-1.16,1.52-1.52,.64-.36,1.35-.55,2.12-.55,.89,0,1.67,.22,2.36,.66,.68,.44,1.18,1.06,1.49,1.86h-1.31Z"/><path class="cls-2" d="M38.43,36.63h-5.26c.04,.65,.26,1.15,.67,1.52,.4,.36,.89,.55,1.47,.55,.47,0,.87-.11,1.18-.33,.32-.22,.54-.51,.67-.88h1.18c-.18,.63-.53,1.15-1.06,1.54-.53,.4-1.18,.59-1.97,.59-.62,0-1.18-.14-1.67-.42-.49-.28-.88-.68-1.16-1.19-.28-.52-.42-1.11-.42-1.79s.14-1.28,.41-1.79c.27-.51,.65-.91,1.15-1.18,.49-.28,1.06-.41,1.7-.41s1.18,.14,1.66,.41,.85,.65,1.11,1.12c.26,.48,.39,1.01,.39,1.61,0,.21-.01,.43-.04,.66Zm-1.37-1.96c-.18-.3-.43-.53-.75-.68-.32-.16-.67-.23-1.05-.23-.55,0-1.02,.18-1.41,.53-.39,.35-.61,.84-.67,1.46h4.15c0-.42-.09-.77-.28-1.07Z"/><path class="cls-2" d="M40.87,39.36c-.4-.17-.72-.41-.95-.72-.23-.31-.36-.66-.38-1.06h1.13c.03,.33,.19,.6,.46,.8,.28,.21,.64,.31,1.09,.31,.42,0,.74-.09,.98-.28,.24-.18,.36-.42,.36-.7s-.13-.5-.38-.64c-.26-.14-.65-.28-1.19-.41-.49-.13-.89-.26-1.19-.39-.31-.13-.57-.33-.79-.59-.22-.26-.33-.6-.33-1.03,0-.34,.1-.64,.3-.92,.2-.28,.48-.5,.85-.67,.37-.16,.79-.25,1.26-.25,.73,0,1.32,.18,1.76,.55,.45,.37,.69,.87,.72,1.51h-1.09c-.02-.34-.16-.62-.41-.83-.25-.21-.59-.31-1.01-.31-.39,0-.7,.08-.94,.25-.23,.17-.35,.39-.35,.66,0,.22,.07,.39,.21,.53,.14,.14,.32,.25,.53,.34s.51,.18,.88,.28c.47,.13,.86,.25,1.15,.38s.55,.31,.76,.56,.32,.57,.33,.97c0,.36-.1,.68-.3,.97-.2,.29-.48,.51-.85,.68-.36,.16-.78,.25-1.25,.25-.5,0-.96-.09-1.36-.26Z"/><path class="cls-2" d="M47.5,33.84v3.88c0,.32,.07,.55,.2,.68,.14,.13,.37,.2,.71,.2h.8v.92h-.98c-.61,0-1.06-.14-1.37-.42-.3-.28-.46-.74-.46-1.38v-3.88h-.85v-.9h.85v-1.66h1.09v1.66h1.72v.9h-1.72Z"/><path class="cls-2" d="M50.53,34.43c.27-.51,.65-.9,1.12-1.18,.48-.28,1.01-.42,1.59-.42s1.08,.12,1.5,.37c.42,.25,.74,.56,.95,.94v-1.2h1.1v6.58h-1.1v-1.22c-.22,.38-.54,.7-.97,.95-.43,.25-.93,.38-1.49,.38s-1.11-.14-1.58-.43c-.47-.29-.84-.69-1.12-1.21s-.41-1.11-.41-1.78,.14-1.26,.41-1.77Zm4.86,.49c-.2-.37-.47-.65-.81-.85-.34-.2-.71-.29-1.12-.29s-.78,.1-1.12,.29c-.34,.19-.6,.47-.8,.84-.2,.37-.3,.8-.3,1.3s.1,.94,.3,1.31c.2,.37,.47,.66,.8,.85,.34,.2,.71,.29,1.12,.29s.78-.1,1.12-.29c.34-.2,.61-.48,.81-.85,.2-.37,.3-.81,.3-1.3s-.1-.93-.3-1.3Zm-3.08-3.62c.21-.22,.48-.32,.8-.32,.15,0,.28,.03,.39,.08,.11,.05,.24,.13,.39,.22,.11,.08,.21,.14,.3,.19s.18,.07,.29,.07c.14,0,.25-.04,.35-.13,.1-.09,.16-.22,.18-.38h.62c-.05,.4-.18,.71-.4,.92-.22,.22-.48,.32-.8,.32-.15,0-.29-.03-.4-.08-.12-.05-.25-.13-.39-.23-.13-.08-.23-.14-.31-.18-.08-.04-.17-.06-.27-.06-.14,0-.25,.04-.34,.13-.09,.09-.15,.22-.17,.4h-.64c.06-.41,.19-.72,.4-.94Z"/><path class="cls-2" d="M59.84,39.2c-.5-.28-.89-.68-1.18-1.19-.28-.52-.43-1.11-.43-1.79s.15-1.27,.44-1.78,.69-.91,1.19-1.19,1.07-.41,1.69-.41,1.19,.14,1.69,.41c.5,.28,.9,.67,1.19,1.18,.29,.51,.44,1.11,.44,1.79s-.15,1.28-.45,1.79c-.3,.52-.71,.91-1.22,1.19-.51,.28-1.08,.42-1.7,.42s-1.17-.14-1.67-.42Zm2.78-.82c.34-.18,.62-.46,.83-.83,.21-.37,.32-.82,.32-1.34s-.1-.98-.31-1.34c-.21-.37-.48-.64-.82-.82-.34-.18-.7-.27-1.09-.27s-.77,.09-1.1,.27c-.33,.18-.6,.45-.8,.82-.2,.37-.3,.82-.3,1.34s.1,.99,.29,1.36c.2,.37,.46,.64,.79,.82,.33,.18,.69,.27,1.08,.27s.76-.09,1.1-.28Z"/><path class="cls-2" d="M69.53,34.43c.27-.51,.65-.9,1.12-1.18,.48-.28,1.01-.42,1.6-.42,.51,0,.99,.12,1.43,.35,.44,.24,.78,.55,1.01,.93v-3.48h1.1v8.88h-1.1v-1.24c-.22,.39-.54,.71-.96,.97-.42,.25-.92,.38-1.49,.38s-1.11-.14-1.59-.43c-.48-.29-.85-.69-1.12-1.21s-.41-1.11-.41-1.78,.14-1.26,.41-1.77Zm4.86,.49c-.2-.37-.47-.65-.81-.85-.34-.2-.71-.29-1.12-.29s-.78,.1-1.12,.29c-.34,.19-.6,.47-.8,.84-.2,.37-.3,.8-.3,1.3s.1,.94,.3,1.31c.2,.37,.47,.66,.8,.85,.34,.2,.71,.29,1.12,.29s.78-.1,1.12-.29c.34-.2,.61-.48,.81-.85,.2-.37,.3-.81,.3-1.3s-.1-.93-.3-1.3Z"/><path class="cls-2" d="M78.84,39.2c-.5-.28-.89-.68-1.18-1.19-.28-.52-.43-1.11-.43-1.79s.15-1.27,.44-1.78,.69-.91,1.19-1.19,1.07-.41,1.69-.41,1.19,.14,1.69,.41c.5,.28,.9,.67,1.19,1.18,.29,.51,.44,1.11,.44,1.79s-.15,1.28-.45,1.79c-.3,.52-.71,.91-1.22,1.19-.51,.28-1.08,.42-1.7,.42s-1.17-.14-1.67-.42Zm2.78-.82c.34-.18,.62-.46,.83-.83,.21-.37,.32-.82,.32-1.34s-.1-.98-.31-1.34c-.21-.37-.48-.64-.82-.82-.34-.18-.7-.27-1.09-.27s-.77,.09-1.1,.27c-.33,.18-.6,.45-.8,.82-.2,.37-.3,.82-.3,1.34s.1,.99,.29,1.36c.2,.37,.46,.64,.79,.82,.33,.18,.69,.27,1.08,.27s.76-.09,1.1-.28Z"/><path class="cls-2" d="M89.5,39.36c-.4-.17-.72-.41-.95-.72-.23-.31-.36-.66-.38-1.06h1.13c.03,.33,.19,.6,.46,.8,.28,.21,.64,.31,1.09,.31,.42,0,.74-.09,.98-.28,.24-.18,.36-.42,.36-.7s-.13-.5-.38-.64c-.26-.14-.65-.28-1.19-.41-.49-.13-.89-.26-1.19-.39-.31-.13-.57-.33-.79-.59-.22-.26-.33-.6-.33-1.03,0-.34,.1-.64,.3-.92,.2-.28,.48-.5,.85-.67,.37-.16,.79-.25,1.26-.25,.73,0,1.32,.18,1.76,.55,.45,.37,.69,.87,.72,1.51h-1.09c-.02-.34-.16-.62-.41-.83-.25-.21-.59-.31-1.01-.31-.39,0-.7,.08-.94,.25-.23,.17-.35,.39-.35,.66,0,.22,.07,.39,.21,.53,.14,.14,.32,.25,.53,.34s.51,.18,.88,.28c.47,.13,.86,.25,1.15,.38s.55,.31,.76,.56,.32,.57,.33,.97c0,.36-.1,.68-.3,.97-.2,.29-.48,.51-.85,.68-.36,.16-.78,.25-1.25,.25-.5,0-.96-.09-1.36-.26Z"/><path class="cls-2" d="M94.82,31.65c-.14-.14-.22-.32-.22-.53s.07-.38,.22-.53,.32-.22,.53-.22,.37,.07,.51,.22c.14,.14,.21,.32,.21,.53s-.07,.38-.21,.53c-.14,.14-.31,.22-.51,.22s-.38-.07-.53-.22Zm1.06,1.28v6.58h-1.09v-6.58h1.09Z"/><path class="cls-2" d="M98.71,39.36c-.4-.17-.72-.41-.95-.72-.23-.31-.36-.66-.38-1.06h1.13c.03,.33,.19,.6,.46,.8,.28,.21,.64,.31,1.09,.31,.42,0,.74-.09,.98-.28,.24-.18,.36-.42,.36-.7s-.13-.5-.38-.64c-.26-.14-.65-.28-1.19-.41-.49-.13-.89-.26-1.19-.39-.31-.13-.57-.33-.79-.59-.22-.26-.33-.6-.33-1.03,0-.34,.1-.64,.3-.92,.2-.28,.48-.5,.85-.67,.37-.16,.79-.25,1.26-.25,.73,0,1.32,.18,1.76,.55,.45,.37,.69,.87,.72,1.51h-1.09c-.02-.34-.16-.62-.41-.83-.25-.21-.59-.31-1.01-.31-.39,0-.7,.08-.94,.25-.23,.17-.35,.39-.35,.66,0,.22,.07,.39,.21,.53,.14,.14,.32,.25,.53,.34s.51,.18,.88,.28c.47,.13,.86,.25,1.15,.38s.55,.31,.76,.56,.32,.57,.33,.97c0,.36-.1,.68-.3,.97-.2,.29-.48,.51-.85,.68-.36,.16-.78,.25-1.25,.25-.5,0-.96-.09-1.36-.26Z"/><path class="cls-2" d="M105.34,33.84v3.88c0,.32,.07,.55,.2,.68,.14,.13,.37,.2,.71,.2h.8v.92h-.98c-.61,0-1.06-.14-1.37-.42-.3-.28-.46-.74-.46-1.38v-3.88h-.85v-.9h.85v-1.66h1.09v1.66h1.72v.9h-1.72Z"/><path class="cls-2" d="M114.34,36.63h-5.26c.04,.65,.26,1.15,.67,1.52,.4,.36,.89,.55,1.47,.55,.47,0,.87-.11,1.18-.33,.32-.22,.54-.51,.67-.88h1.18c-.18,.63-.53,1.15-1.06,1.54-.53,.4-1.18,.59-1.97,.59-.62,0-1.18-.14-1.67-.42-.49-.28-.88-.68-1.16-1.19-.28-.52-.42-1.11-.42-1.79s.14-1.28,.41-1.79c.27-.51,.65-.91,1.15-1.18,.49-.28,1.06-.41,1.7-.41s1.18,.14,1.66,.41,.85,.65,1.11,1.12c.26,.48,.39,1.01,.39,1.61,0,.21-.01,.43-.04,.66Zm-1.37-1.96c-.18-.3-.43-.53-.75-.68-.32-.16-.67-.23-1.05-.23-.55,0-1.02,.18-1.41,.53-.39,.35-.61,.84-.67,1.46h4.15c0-.42-.09-.77-.28-1.07Z"/><path class="cls-2" d="M125.09,33.14c.4,.21,.72,.53,.95,.95,.23,.42,.35,.94,.35,1.55v3.88h-1.08v-3.72c0-.66-.16-1.16-.49-1.51-.32-.35-.76-.52-1.31-.52s-1.02,.18-1.36,.55c-.34,.36-.5,.89-.5,1.58v3.62h-1.08v-3.72c0-.66-.16-1.16-.49-1.51-.32-.35-.76-.52-1.31-.52s-1.02,.18-1.36,.55c-.34,.36-.5,.89-.5,1.58v3.62h-1.09v-6.58h1.09v.95c.22-.34,.51-.61,.87-.79,.36-.18,.77-.28,1.21-.28,.55,0,1.04,.12,1.46,.37,.42,.25,.74,.61,.95,1.09,.18-.46,.49-.82,.91-1.08,.42-.26,.9-.38,1.42-.38s.97,.11,1.37,.32Z"/><path class="cls-2" d="M128.17,34.43c.27-.51,.65-.9,1.12-1.18,.48-.28,1.01-.42,1.59-.42s1.08,.12,1.5,.37c.42,.25,.74,.56,.95,.94v-1.2h1.1v6.58h-1.1v-1.22c-.22,.38-.54,.7-.97,.95-.43,.25-.93,.38-1.49,.38s-1.11-.14-1.58-.43c-.47-.29-.84-.69-1.12-1.21s-.41-1.11-.41-1.78,.14-1.26,.41-1.77Zm4.86,.49c-.2-.37-.47-.65-.81-.85-.34-.2-.71-.29-1.12-.29s-.78,.1-1.12,.29c-.34,.19-.6,.47-.8,.84-.2,.37-.3,.8-.3,1.3s.1,.94,.3,1.31c.2,.37,.47,.66,.8,.85,.34,.2,.71,.29,1.12,.29s.78-.1,1.12-.29c.34-.2,.61-.48,.81-.85,.2-.37,.3-.81,.3-1.3s-.1-.93-.3-1.3Z"/><path class="cls-2" d="M139.49,34.43c.27-.51,.65-.9,1.12-1.18,.48-.28,1.01-.42,1.6-.42,.51,0,.99,.12,1.43,.35,.44,.24,.78,.55,1.01,.93v-3.48h1.1v8.88h-1.1v-1.24c-.22,.39-.54,.71-.96,.97-.42,.25-.92,.38-1.49,.38s-1.11-.14-1.59-.43c-.48-.29-.85-.69-1.12-1.21s-.41-1.11-.41-1.78,.14-1.26,.41-1.77Zm4.86,.49c-.2-.37-.47-.65-.81-.85-.34-.2-.71-.29-1.12-.29s-.78,.1-1.12,.29c-.34,.19-.6,.47-.8,.84-.2,.37-.3,.8-.3,1.3s.1,.94,.3,1.31c.2,.37,.47,.66,.8,.85,.34,.2,.71,.29,1.12,.29s.78-.1,1.12-.29c.34-.2,.61-.48,.81-.85,.2-.37,.3-.81,.3-1.3s-.1-.93-.3-1.3Z"/><path class="cls-2" d="M153.56,36.63h-5.26c.04,.65,.26,1.15,.67,1.52,.4,.36,.89,.55,1.47,.55,.47,0,.87-.11,1.18-.33,.32-.22,.54-.51,.67-.88h1.18c-.18,.63-.53,1.15-1.06,1.54-.53,.4-1.18,.59-1.97,.59-.62,0-1.18-.14-1.67-.42-.49-.28-.88-.68-1.16-1.19-.28-.52-.42-1.11-.42-1.79s.14-1.28,.41-1.79c.27-.51,.65-.91,1.15-1.18,.49-.28,1.06-.41,1.7-.41s1.18,.14,1.66,.41,.85,.65,1.11,1.12c.26,.48,.39,1.01,.39,1.61,0,.21-.01,.43-.04,.66Zm-1.37-1.96c-.18-.3-.43-.53-.75-.68-.32-.16-.67-.23-1.05-.23-.55,0-1.02,.18-1.41,.53-.39,.35-.61,.84-.67,1.46h4.15c0-.42-.09-.77-.28-1.07Z"/><path class="cls-2" d="M24.1,53.76c-.4-.17-.72-.41-.95-.72-.23-.31-.36-.66-.38-1.06h1.13c.03,.33,.19,.6,.46,.8,.28,.21,.64,.31,1.09,.31,.42,0,.74-.09,.98-.28,.24-.18,.36-.42,.36-.7s-.13-.5-.38-.64c-.26-.14-.65-.28-1.19-.41-.49-.13-.89-.26-1.19-.39-.31-.13-.57-.33-.79-.59-.22-.26-.33-.6-.33-1.03,0-.34,.1-.64,.3-.92,.2-.28,.48-.5,.85-.67,.37-.16,.79-.25,1.26-.25,.73,0,1.32,.18,1.76,.55,.45,.37,.69,.87,.72,1.51h-1.09c-.02-.34-.16-.62-.41-.83-.25-.21-.59-.31-1.01-.31-.39,0-.7,.08-.94,.25-.23,.17-.35,.39-.35,.66,0,.22,.07,.39,.21,.53,.14,.14,.32,.25,.53,.34s.51,.18,.88,.28c.47,.13,.86,.25,1.15,.38s.55,.31,.76,.56,.32,.57,.33,.97c0,.36-.1,.68-.3,.97-.2,.29-.48,.51-.85,.68-.36,.16-.78,.25-1.25,.25-.5,0-.96-.09-1.36-.26Z"/><path class="cls-2" d="M29.39,48.83c.27-.51,.65-.9,1.12-1.18,.48-.28,1.01-.42,1.59-.42s1.08,.12,1.5,.37c.42,.25,.74,.56,.95,.94v-1.2h1.1v6.58h-1.1v-1.22c-.22,.38-.54,.7-.97,.95-.43,.25-.93,.38-1.49,.38s-1.11-.14-1.58-.43c-.47-.29-.84-.69-1.12-1.21s-.41-1.11-.41-1.78,.14-1.26,.41-1.77Zm4.86,.49c-.2-.37-.47-.65-.81-.85-.34-.2-.71-.29-1.12-.29s-.78,.1-1.12,.29c-.34,.19-.6,.47-.8,.84-.2,.37-.3,.8-.3,1.3s.1,.94,.3,1.31c.2,.37,.47,.66,.8,.85,.34,.2,.71,.29,1.12,.29s.78-.1,1.12-.29c.34-.2,.61-.48,.81-.85,.2-.37,.3-.81,.3-1.3s-.1-.93-.3-1.3Z"/><path class="cls-2" d="M43.33,47.34v6.58h-1.09v-.97c-.21,.34-.5,.6-.87,.79s-.78,.28-1.23,.28c-.51,0-.97-.11-1.38-.32-.41-.21-.73-.53-.97-.95-.24-.42-.35-.94-.35-1.55v-3.85h1.08v3.71c0,.65,.16,1.15,.49,1.49s.78,.52,1.34,.52,1.04-.18,1.38-.54,.5-.88,.5-1.57v-3.61h1.09Zm-1.74-1.86l-2.56,1.37v-.82l2.56-1.5v.95Z"/><path class="cls-2" d="M45.18,48.83c.27-.51,.65-.9,1.12-1.18,.48-.28,1.01-.42,1.6-.42,.51,0,.99,.12,1.43,.35,.44,.24,.78,.55,1.01,.93v-3.48h1.1v8.88h-1.1v-1.24c-.22,.39-.54,.71-.96,.97-.42,.25-.92,.38-1.49,.38s-1.11-.14-1.59-.43c-.48-.29-.85-.69-1.12-1.21s-.41-1.11-.41-1.78,.14-1.26,.41-1.77Zm4.86,.49c-.2-.37-.47-.65-.81-.85-.34-.2-.71-.29-1.12-.29s-.78,.1-1.12,.29c-.34,.19-.6,.47-.8,.84-.2,.37-.3,.8-.3,1.3s.1,.94,.3,1.31c.2,.37,.47,.66,.8,.85,.34,.2,.71,.29,1.12,.29s.78-.1,1.12-.29c.34-.2,.61-.48,.81-.85,.2-.37,.3-.81,.3-1.3s-.1-.93-.3-1.3Z"/><path class="cls-2" d="M59.26,51.03h-5.26c.04,.65,.26,1.15,.67,1.52,.4,.36,.89,.55,1.47,.55,.47,0,.87-.11,1.18-.33,.32-.22,.54-.51,.67-.88h1.18c-.18,.63-.53,1.15-1.06,1.54-.53,.4-1.18,.59-1.97,.59-.62,0-1.18-.14-1.67-.42-.49-.28-.88-.68-1.16-1.19-.28-.52-.42-1.11-.42-1.79s.14-1.28,.41-1.79c.27-.51,.65-.91,1.15-1.18,.49-.28,1.06-.41,1.7-.41s1.18,.14,1.66,.41,.85,.65,1.11,1.12c.26,.48,.39,1.01,.39,1.61,0,.21-.01,.43-.04,.66Zm-1.37-1.96c-.18-.3-.43-.53-.75-.68-.32-.16-.67-.23-1.05-.23-.55,0-1.02,.18-1.41,.53-.39,.35-.61,.84-.67,1.46h4.15c0-.42-.09-.77-.28-1.07Z"/><path class="cls-2" d="M65.13,53.6c-.5-.28-.89-.68-1.18-1.19-.28-.52-.43-1.11-.43-1.79s.15-1.27,.44-1.78,.69-.91,1.19-1.19,1.07-.41,1.69-.41,1.19,.14,1.69,.41c.5,.28,.9,.67,1.19,1.18,.29,.51,.44,1.11,.44,1.79s-.15,1.28-.45,1.79c-.3,.52-.71,.91-1.22,1.19-.51,.28-1.08,.42-1.7,.42s-1.17-.14-1.67-.42Zm2.78-.82c.34-.18,.62-.46,.83-.83,.21-.37,.32-.82,.32-1.34s-.1-.98-.31-1.34c-.21-.37-.48-.64-.82-.82-.34-.18-.7-.27-1.09-.27s-.77,.09-1.1,.27c-.33,.18-.6,.45-.8,.82-.2,.37-.3,.82-.3,1.34s.1,.99,.29,1.36c.2,.37,.46,.64,.79,.82,.33,.18,.69,.27,1.08,.27s.76-.09,1.1-.28Z"/><path class="cls-2" d="M73.53,47.53c.36-.21,.79-.31,1.3-.31v1.13h-.29c-1.22,0-1.84,.66-1.84,1.99v3.58h-1.09v-6.58h1.09v1.07c.19-.38,.47-.67,.82-.88Z"/><path class="cls-2" d="M76.13,46.05c-.14-.14-.22-.32-.22-.53s.07-.38,.22-.53,.32-.22,.53-.22,.37,.07,.51,.22c.14,.14,.21,.32,.21,.53s-.07,.38-.21,.53c-.14,.14-.31,.22-.51,.22s-.38-.07-.53-.22Zm1.06,1.28v6.58h-1.09v-6.58h1.09Z"/><path class="cls-2" d="M85.01,51.03h-5.26c.04,.65,.26,1.15,.67,1.52,.4,.36,.89,.55,1.47,.55,.47,0,.87-.11,1.18-.33,.32-.22,.54-.51,.67-.88h1.18c-.18,.63-.53,1.15-1.06,1.54-.53,.4-1.18,.59-1.97,.59-.62,0-1.18-.14-1.67-.42-.49-.28-.88-.68-1.16-1.19-.28-.52-.42-1.11-.42-1.79s.14-1.28,.41-1.79c.27-.51,.65-.91,1.15-1.18,.49-.28,1.06-.41,1.7-.41s1.18,.14,1.66,.41,.85,.65,1.11,1.12c.26,.48,.39,1.01,.39,1.61,0,.21-.01,.43-.04,.66Zm-1.37-1.96c-.18-.3-.43-.53-.75-.68-.32-.16-.67-.23-1.05-.23-.55,0-1.02,.18-1.41,.53-.39,.35-.61,.84-.67,1.46h4.15c0-.42-.09-.77-.28-1.07Z"/><path class="cls-2" d="M91.63,47.94c.5,.48,.74,1.18,.74,2.09v3.88h-1.08v-3.72c0-.66-.16-1.16-.49-1.51-.33-.35-.78-.52-1.34-.52s-1.03,.18-1.37,.54-.51,.88-.51,1.57v3.64h-1.09v-6.58h1.09v.94c.22-.34,.51-.6,.88-.78s.78-.28,1.23-.28c.8,0,1.45,.24,1.94,.73Z"/><path class="cls-2" d="M95.5,48.24v3.88c0,.32,.07,.55,.2,.68,.14,.13,.37,.2,.71,.2h.8v.92h-.98c-.61,0-1.06-.14-1.37-.42-.3-.28-.46-.74-.46-1.38v-3.88h-.85v-.9h.85v-1.66h1.09v1.66h1.72v.9h-1.72Z"/><path class="cls-2" d="M98.53,48.83c.27-.51,.65-.9,1.12-1.18,.48-.28,1.01-.42,1.59-.42s1.08,.12,1.5,.37c.42,.25,.74,.56,.95,.94v-1.2h1.1v6.58h-1.1v-1.22c-.22,.38-.54,.7-.97,.95-.43,.25-.93,.38-1.49,.38s-1.11-.14-1.58-.43c-.47-.29-.84-.69-1.12-1.21s-.41-1.11-.41-1.78,.14-1.26,.41-1.77Zm4.86,.49c-.2-.37-.47-.65-.81-.85-.34-.2-.71-.29-1.12-.29s-.78,.1-1.12,.29c-.34,.19-.6,.47-.8,.84-.2,.37-.3,.8-.3,1.3s.1,.94,.3,1.31c.2,.37,.47,.66,.8,.85,.34,.2,.71,.29,1.12,.29s.78-.1,1.12-.29c.34-.2,.61-.48,.81-.85,.2-.37,.3-.81,.3-1.3s-.1-.93-.3-1.3Z"/><path class="cls-2" d="M106.64,48.83c.27-.51,.65-.9,1.12-1.18,.48-.28,1.01-.42,1.6-.42,.51,0,.99,.12,1.43,.35,.44,.24,.78,.55,1.01,.93v-3.48h1.1v8.88h-1.1v-1.24c-.22,.39-.54,.71-.96,.97-.42,.25-.92,.38-1.49,.38s-1.11-.14-1.59-.43c-.48-.29-.85-.69-1.12-1.21s-.41-1.11-.41-1.78,.14-1.26,.41-1.77Zm4.86,.49c-.2-.37-.47-.65-.81-.85-.34-.2-.71-.29-1.12-.29s-.78,.1-1.12,.29c-.34,.19-.6,.47-.8,.84-.2,.37-.3,.8-.3,1.3s.1,.94,.3,1.31c.2,.37,.47,.66,.8,.85,.34,.2,.71,.29,1.12,.29s.78-.1,1.12-.29c.34-.2,.61-.48,.81-.85,.2-.37,.3-.81,.3-1.3s-.1-.93-.3-1.3Z"/><path class="cls-2" d="M114.76,48.83c.27-.51,.65-.9,1.12-1.18,.48-.28,1.01-.42,1.59-.42s1.08,.12,1.5,.37c.42,.25,.74,.56,.95,.94v-1.2h1.1v6.58h-1.1v-1.22c-.22,.38-.54,.7-.97,.95-.43,.25-.93,.38-1.49,.38s-1.11-.14-1.58-.43c-.47-.29-.84-.69-1.12-1.21s-.41-1.11-.41-1.78,.14-1.26,.41-1.77Zm4.86,.49c-.2-.37-.47-.65-.81-.85-.34-.2-.71-.29-1.12-.29s-.78,.1-1.12,.29c-.34,.19-.6,.47-.8,.84-.2,.37-.3,.8-.3,1.3s.1,.94,.3,1.31c.2,.37,.47,.66,.8,.85,.34,.2,.71,.29,1.12,.29s.78-.1,1.12-.29c.34-.2,.61-.48,.81-.85,.2-.37,.3-.81,.3-1.3s-.1-.93-.3-1.3Z"/><path class="cls-2" d="M128.13,47.61c.43-.25,.93-.38,1.49-.38s1.11,.14,1.59,.42c.48,.28,.85,.67,1.12,1.18,.27,.51,.41,1.1,.41,1.77s-.14,1.26-.41,1.78-.65,.92-1.12,1.21c-.48,.29-1.01,.43-1.59,.43s-1.05-.13-1.48-.38c-.43-.25-.75-.57-.98-.94v4.33h-1.09v-9.7h1.09v1.21c.22-.38,.54-.69,.97-.94Zm3.2,1.7c-.2-.37-.47-.65-.81-.84-.34-.19-.71-.29-1.12-.29s-.77,.1-1.11,.29c-.34,.2-.61,.48-.82,.85-.2,.37-.31,.8-.31,1.29s.1,.93,.31,1.3c.2,.37,.48,.66,.82,.85,.34,.2,.71,.29,1.11,.29s.78-.1,1.12-.29c.34-.2,.61-.48,.81-.85,.2-.37,.3-.81,.3-1.31s-.1-.93-.3-1.3Z"/><path class="cls-2" d="M134.18,48.83c.27-.51,.65-.9,1.12-1.18,.48-.28,1.01-.42,1.59-.42s1.08,.12,1.5,.37c.42,.25,.74,.56,.95,.94v-1.2h1.1v6.58h-1.1v-1.22c-.22,.38-.54,.7-.97,.95-.43,.25-.93,.38-1.49,.38s-1.11-.14-1.58-.43c-.47-.29-.84-.69-1.12-1.21s-.41-1.11-.41-1.78,.14-1.26,.41-1.77Zm4.86,.49c-.2-.37-.47-.65-.81-.85-.34-.2-.71-.29-1.12-.29s-.78,.1-1.12,.29c-.34,.19-.6,.47-.8,.84-.2,.37-.3,.8-.3,1.3s.1,.94,.3,1.31c.2,.37,.47,.66,.8,.85,.34,.2,.71,.29,1.12,.29s.78-.1,1.12-.29c.34-.2,.61-.48,.81-.85,.2-.37,.3-.81,.3-1.3s-.1-.93-.3-1.3Z"/><path class="cls-2" d="M144.21,47.53c.36-.21,.79-.31,1.3-.31v1.13h-.29c-1.22,0-1.84,.66-1.84,1.99v3.58h-1.09v-6.58h1.09v1.07c.19-.38,.47-.67,.82-.88Z"/><path class="cls-2" d="M146.77,48.83c.27-.51,.65-.9,1.12-1.18,.48-.28,1.01-.42,1.59-.42s1.08,.12,1.5,.37c.42,.25,.74,.56,.95,.94v-1.2h1.1v6.58h-1.1v-1.22c-.22,.38-.54,.7-.97,.95-.43,.25-.93,.38-1.49,.38s-1.11-.14-1.58-.43c-.47-.29-.84-.69-1.12-1.21s-.41-1.11-.41-1.78,.14-1.26,.41-1.77Zm4.86,.49c-.2-.37-.47-.65-.81-.85-.34-.2-.71-.29-1.12-.29s-.78,.1-1.12,.29c-.34,.19-.6,.47-.8,.84-.2,.37-.3,.8-.3,1.3s.1,.94,.3,1.31c.2,.37,.47,.66,.8,.85,.34,.2,.71,.29,1.12,.29s.78-.1,1.12-.29c.34-.2,.61-.48,.81-.85,.2-.37,.3-.81,.3-1.3s-.1-.93-.3-1.3Z"/><path class="cls-2" d="M24.32,68c-.5-.28-.89-.68-1.18-1.19-.28-.52-.43-1.11-.43-1.79s.15-1.27,.44-1.78c.29-.52,.69-.91,1.19-1.19,.5-.28,1.07-.41,1.69-.41s1.19,.14,1.69,.41c.5,.28,.9,.67,1.19,1.18,.29,.51,.44,1.11,.44,1.79s-.15,1.28-.45,1.79c-.3,.52-.71,.91-1.22,1.19-.51,.28-1.08,.42-1.7,.42s-1.17-.14-1.67-.42Zm2.78-.82c.34-.18,.62-.46,.83-.83s.32-.82,.32-1.34-.1-.98-.31-1.34c-.21-.37-.48-.64-.82-.82-.34-.18-.7-.27-1.09-.27s-.77,.09-1.1,.27c-.33,.18-.6,.45-.8,.82-.2,.37-.3,.82-.3,1.34s.1,.99,.29,1.36c.2,.37,.46,.64,.79,.82s.69,.27,1.08,.27,.76-.09,1.1-.28Z"/><path class="cls-2" d="M35.34,62.64v3.88c0,.32,.07,.55,.2,.68,.14,.13,.37,.2,.71,.2h.8v.92h-.98c-.61,0-1.06-.14-1.37-.42-.3-.28-.46-.74-.46-1.38v-3.88h-.85v-.9h.85v-1.66h1.09v1.66h1.72v.9h-1.72Z"/><path class="cls-2" d="M40.29,61.93c.36-.21,.79-.31,1.3-.31v1.13h-.29c-1.22,0-1.84,.66-1.84,1.99v3.58h-1.09v-6.58h1.09v1.07c.19-.38,.47-.67,.82-.88Z"/><path class="cls-2" d="M42.85,63.23c.27-.51,.65-.9,1.12-1.18,.48-.28,1.01-.42,1.59-.42s1.08,.12,1.5,.37c.42,.25,.74,.56,.95,.94v-1.2h1.1v6.58h-1.1v-1.22c-.22,.38-.54,.7-.97,.96-.43,.25-.93,.38-1.49,.38s-1.11-.14-1.58-.43c-.47-.29-.84-.69-1.12-1.21s-.41-1.11-.41-1.78,.14-1.26,.41-1.77Zm4.86,.49c-.2-.37-.47-.65-.81-.85-.34-.2-.71-.29-1.12-.29s-.78,.1-1.12,.29-.6,.47-.8,.84c-.2,.37-.3,.8-.3,1.3s.1,.94,.3,1.31c.2,.37,.47,.66,.8,.85,.34,.2,.71,.29,1.12,.29s.78-.1,1.12-.29c.34-.2,.61-.48,.81-.85,.2-.37,.3-.81,.3-1.3s-.1-.93-.3-1.3Z"/><path class="cls-2" d="M53.04,62c.43-.25,.92-.37,1.48-.37,.59,0,1.12,.14,1.6,.42,.47,.28,.84,.67,1.12,1.18s.41,1.1,.41,1.77-.14,1.26-.41,1.78-.65,.92-1.12,1.21-1.01,.43-1.59,.43-1.07-.12-1.49-.37c-.43-.25-.75-.56-.97-.95v1.21h-1.09v-8.88h1.09v3.53c.22-.39,.55-.71,.98-.96Zm3.18,1.7c-.2-.37-.47-.65-.81-.84-.34-.19-.71-.29-1.12-.29s-.77,.1-1.11,.29c-.34,.2-.61,.48-.82,.85-.2,.37-.31,.8-.31,1.29s.1,.93,.31,1.3c.2,.37,.48,.66,.82,.85,.34,.2,.71,.29,1.11,.29s.78-.1,1.12-.29c.34-.2,.61-.48,.81-.85,.2-.37,.3-.81,.3-1.31s-.1-.93-.3-1.3Z"/><path class="cls-2" d="M59.08,63.23c.27-.51,.65-.9,1.12-1.18,.48-.28,1.01-.42,1.59-.42s1.08,.12,1.5,.37c.42,.25,.74,.56,.95,.94v-1.2h1.1v6.58h-1.1v-1.22c-.22,.38-.54,.7-.97,.96-.43,.25-.93,.38-1.49,.38s-1.11-.14-1.58-.43c-.47-.29-.84-.69-1.12-1.21s-.41-1.11-.41-1.78,.14-1.26,.41-1.77Zm4.86,.49c-.2-.37-.47-.65-.81-.85-.34-.2-.71-.29-1.12-.29s-.78,.1-1.12,.29-.6,.47-.8,.84c-.2,.37-.3,.8-.3,1.3s.1,.94,.3,1.31c.2,.37,.47,.66,.8,.85,.34,.2,.71,.29,1.12,.29s.78-.1,1.12-.29c.34-.2,.61-.48,.81-.85,.2-.37,.3-.81,.3-1.3s-.1-.93-.3-1.3Z"/><path class="cls-2" d="M68.28,59.44v8.88h-1.09v-8.88h1.09Z"/><path class="cls-2" d="M74.75,61.94c.4,.21,.71,.53,.94,.95,.23,.42,.34,.94,.34,1.55v3.88h-1.08v-3.72c0-.66-.16-1.16-.49-1.51-.33-.35-.78-.52-1.34-.52s-1.03,.18-1.37,.54c-.34,.36-.51,.88-.51,1.57v3.64h-1.09v-8.88h1.09v3.24c.22-.34,.51-.6,.89-.78,.38-.18,.81-.28,1.28-.28,.5,0,.94,.11,1.34,.32Z"/><path class="cls-2" d="M79.02,68c-.5-.28-.89-.68-1.18-1.19-.28-.52-.43-1.11-.43-1.79s.15-1.27,.44-1.78c.29-.52,.69-.91,1.19-1.19,.5-.28,1.07-.41,1.69-.41s1.19,.14,1.69,.41c.5,.28,.9,.67,1.19,1.18,.29,.51,.44,1.11,.44,1.79s-.15,1.28-.45,1.79c-.3,.52-.71,.91-1.22,1.19-.51,.28-1.08,.42-1.7,.42s-1.17-.14-1.67-.42Zm2.78-.82c.34-.18,.62-.46,.83-.83s.32-.82,.32-1.34-.1-.98-.31-1.34c-.21-.37-.48-.64-.82-.82-.34-.18-.7-.27-1.09-.27s-.77,.09-1.1,.27c-.33,.18-.6,.45-.8,.82-.2,.37-.3,.82-.3,1.34s.1,.99,.29,1.36c.2,.37,.46,.64,.79,.82s.69,.27,1.08,.27,.76-.09,1.1-.28Z"/><path class="cls-2" d="M94.67,65.44h-5.26c.04,.65,.26,1.15,.67,1.52,.4,.36,.89,.54,1.47,.54,.47,0,.87-.11,1.18-.33,.32-.22,.54-.51,.67-.88h1.18c-.18,.63-.53,1.15-1.06,1.54-.53,.4-1.18,.59-1.97,.59-.62,0-1.18-.14-1.67-.42-.49-.28-.88-.68-1.16-1.19-.28-.52-.42-1.11-.42-1.79s.14-1.28,.41-1.79c.27-.51,.65-.91,1.15-1.18,.49-.28,1.06-.41,1.7-.41s1.18,.14,1.66,.41c.48,.27,.85,.65,1.11,1.12,.26,.48,.39,1.01,.39,1.61,0,.21-.01,.43-.04,.66Zm-1.37-1.96c-.18-.3-.43-.53-.75-.68s-.67-.23-1.05-.23c-.55,0-1.02,.18-1.41,.53-.39,.35-.61,.84-.67,1.46h4.15c0-.42-.09-.77-.28-1.07Z"/><path class="cls-2" d="M105.42,61.94c.4,.21,.72,.53,.95,.95,.23,.42,.35,.94,.35,1.55v3.88h-1.08v-3.72c0-.66-.16-1.16-.49-1.51-.32-.35-.76-.52-1.31-.52s-1.02,.18-1.36,.55c-.34,.36-.5,.89-.5,1.58v3.62h-1.08v-3.72c0-.66-.16-1.16-.49-1.51-.32-.35-.76-.52-1.31-.52s-1.02,.18-1.36,.55-.5,.89-.5,1.58v3.62h-1.09v-6.58h1.09v.95c.22-.34,.51-.61,.87-.79,.36-.18,.77-.28,1.21-.28,.55,0,1.04,.12,1.46,.37,.42,.25,.74,.61,.95,1.09,.18-.46,.49-.82,.91-1.08,.42-.26,.9-.38,1.42-.38s.97,.11,1.37,.32Z"/><path class="cls-2" d="M113.62,61.93c.36-.21,.79-.31,1.3-.31v1.13h-.29c-1.22,0-1.84,.66-1.84,1.99v3.58h-1.09v-6.58h1.09v1.07c.19-.38,.47-.67,.82-.88Z"/><path class="cls-2" d="M122.15,65.44h-5.26c.04,.65,.26,1.15,.67,1.52,.4,.36,.89,.54,1.47,.54,.47,0,.87-.11,1.18-.33,.32-.22,.54-.51,.67-.88h1.18c-.18,.63-.53,1.15-1.06,1.54-.53,.4-1.18,.59-1.97,.59-.62,0-1.18-.14-1.67-.42-.49-.28-.88-.68-1.16-1.19-.28-.52-.42-1.11-.42-1.79s.14-1.28,.41-1.79c.27-.51,.65-.91,1.15-1.18,.49-.28,1.06-.41,1.7-.41s1.18,.14,1.66,.41c.48,.27,.85,.65,1.11,1.12,.26,.48,.39,1.01,.39,1.61,0,.21-.01,.43-.04,.66Zm-1.37-1.96c-.18-.3-.43-.53-.75-.68s-.67-.23-1.05-.23c-.55,0-1.02,.18-1.41,.53-.39,.35-.61,.84-.67,1.46h4.15c0-.42-.09-.77-.28-1.07Z"/><path class="cls-2" d="M123.62,63.23c.27-.51,.65-.9,1.12-1.18,.48-.28,1.01-.42,1.6-.42,.51,0,.99,.12,1.43,.35,.44,.24,.78,.55,1.01,.93v-3.48h1.1v8.88h-1.1v-1.24c-.22,.39-.54,.71-.96,.97-.42,.25-.92,.38-1.49,.38s-1.11-.14-1.59-.43-.85-.69-1.12-1.21-.41-1.11-.41-1.78,.14-1.26,.41-1.77Zm4.86,.49c-.2-.37-.47-.65-.81-.85-.34-.2-.71-.29-1.12-.29s-.78,.1-1.12,.29-.6,.47-.8,.84c-.2,.37-.3,.8-.3,1.3s.1,.94,.3,1.31c.2,.37,.47,.66,.8,.85,.34,.2,.71,.29,1.12,.29s.78-.1,1.12-.29c.34-.2,.61-.48,.81-.85,.2-.37,.3-.81,.3-1.3s-.1-.93-.3-1.3Z"/><path class="cls-2" d="M137.7,65.44h-5.26c.04,.65,.26,1.15,.67,1.52,.4,.36,.89,.54,1.47,.54,.47,0,.87-.11,1.18-.33,.32-.22,.54-.51,.67-.88h1.18c-.18,.63-.53,1.15-1.06,1.54-.53,.4-1.18,.59-1.97,.59-.62,0-1.18-.14-1.67-.42-.49-.28-.88-.68-1.16-1.19-.28-.52-.42-1.11-.42-1.79s.14-1.28,.41-1.79c.27-.51,.65-.91,1.15-1.18,.49-.28,1.06-.41,1.7-.41s1.18,.14,1.66,.41c.48,.27,.85,.65,1.11,1.12,.26,.48,.39,1.01,.39,1.61,0,.21-.01,.43-.04,.66Zm-1.37-1.96c-.18-.3-.43-.53-.75-.68s-.67-.23-1.05-.23c-.55,0-1.02,.18-1.41,.53-.39,.35-.61,.84-.67,1.46h4.15c0-.42-.09-.77-.28-1.07Z"/><path class="cls-2" d="M139,68.17c-.14-.14-.22-.32-.22-.53s.07-.38,.22-.53,.32-.22,.53-.22,.37,.07,.51,.22c.14,.14,.21,.32,.21,.53s-.07,.38-.21,.53c-.14,.14-.31,.22-.51,.22s-.38-.07-.53-.22Z"/></g></svg>