<?xml version="1.0" encoding="UTF-8"?><svg id="Camada_1" xmlns="http://www.w3.org/2000/svg" viewBox="0 0 183 104"><defs><style>.cls-1{fill:#fff;}.cls-2{fill:#25a675;isolation:isolate;opacity:.75;}</style></defs><rect class="cls-2" x="0" y="-.11" width="182.98" height="104.22" rx="5" ry="5"/><g><path class="cls-1" d="M10.61,9.77c.67,.34,1.18,.83,1.54,1.46,.36,.63,.53,1.38,.53,2.23s-.18,1.6-.53,2.23c-.36,.63-.87,1.11-1.54,1.44s-1.46,.5-2.37,.5h-2.6V9.26h2.6c.91,0,1.7,.17,2.37,.51Zm.1,6.1c.57-.57,.85-1.37,.85-2.41s-.29-1.85-.86-2.44c-.57-.58-1.39-.88-2.47-.88h-1.51v6.58h1.51c1.08,0,1.9-.29,2.47-.86Z"/><path class="cls-1" d="M14.15,9.76c-.14-.14-.22-.32-.22-.53s.07-.38,.22-.53c.14-.14,.32-.22,.53-.22s.37,.07,.51,.22,.21,.32,.21,.53-.07,.38-.21,.53-.31,.22-.51,.22-.38-.07-.53-.22Zm1.06,1.28v6.58h-1.09v-6.58h1.09Z"/><path class="cls-1" d="M18.04,17.47c-.4-.17-.72-.41-.95-.72-.23-.31-.36-.66-.38-1.06h1.13c.03,.33,.19,.6,.46,.8,.28,.21,.64,.31,1.09,.31,.42,0,.74-.09,.98-.28s.36-.42,.36-.7-.13-.5-.38-.64c-.26-.14-.65-.28-1.19-.41-.49-.13-.89-.26-1.19-.39-.31-.13-.57-.33-.79-.59-.22-.26-.33-.6-.33-1.03,0-.34,.1-.64,.3-.92,.2-.28,.48-.5,.85-.67s.79-.25,1.26-.25c.73,0,1.32,.18,1.76,.55,.45,.37,.69,.87,.72,1.51h-1.09c-.02-.34-.16-.62-.41-.83-.25-.21-.59-.31-1.01-.31-.39,0-.7,.08-.94,.25s-.35,.39-.35,.66c0,.22,.07,.39,.21,.53,.14,.14,.32,.25,.53,.34s.51,.18,.88,.28c.47,.13,.86,.25,1.15,.38s.55,.31,.76,.56,.32,.57,.33,.97c0,.36-.1,.68-.3,.97s-.48,.51-.85,.68c-.36,.16-.78,.25-1.25,.25-.5,0-.96-.09-1.36-.26Z"/><path class="cls-1" d="M25.39,11.32c.43-.25,.93-.38,1.49-.38s1.11,.14,1.59,.42c.48,.28,.85,.67,1.12,1.18,.27,.51,.41,1.1,.41,1.77s-.14,1.26-.41,1.78c-.27,.52-.65,.92-1.12,1.21-.48,.29-1.01,.43-1.59,.43s-1.05-.13-1.48-.38c-.43-.25-.75-.57-.98-.94v4.33h-1.09V11.05h1.09v1.21c.22-.38,.54-.69,.97-.94Zm3.2,1.7c-.2-.37-.47-.65-.81-.84-.34-.19-.71-.29-1.12-.29s-.77,.1-1.11,.29-.61,.48-.82,.85c-.2,.37-.31,.8-.31,1.29s.1,.93,.31,1.3c.2,.37,.48,.66,.82,.85,.34,.2,.71,.29,1.11,.29s.78-.1,1.12-.29c.34-.2,.61-.48,.81-.85s.3-.81,.3-1.31-.1-.93-.3-1.3Z"/><path class="cls-1" d="M32.64,17.31c-.5-.28-.89-.68-1.18-1.19-.28-.52-.43-1.11-.43-1.79s.15-1.27,.44-1.78,.69-.91,1.19-1.19,1.07-.41,1.69-.41,1.19,.14,1.69,.41,.9,.67,1.19,1.18c.29,.51,.44,1.11,.44,1.79s-.15,1.28-.45,1.79c-.3,.52-.71,.91-1.22,1.19-.51,.28-1.08,.42-1.7,.42s-1.17-.14-1.67-.42Zm2.78-.82c.34-.18,.62-.46,.83-.83,.21-.37,.32-.82,.32-1.34s-.1-.98-.31-1.34c-.21-.37-.48-.64-.82-.82-.34-.18-.7-.27-1.09-.27s-.77,.09-1.1,.27c-.33,.18-.6,.45-.8,.82-.2,.37-.3,.82-.3,1.34s.1,.99,.29,1.36c.2,.37,.46,.64,.79,.82,.33,.18,.69,.27,1.08,.27s.76-.09,1.1-.28Z"/><path class="cls-1" d="M44.27,11.65c.5,.48,.74,1.18,.74,2.09v3.88h-1.08v-3.72c0-.66-.16-1.16-.49-1.51-.33-.35-.78-.52-1.34-.52s-1.03,.18-1.37,.54-.51,.88-.51,1.57v3.64h-1.09v-6.58h1.09v.94c.22-.34,.51-.6,.88-.78s.78-.28,1.23-.28c.8,0,1.45,.24,1.94,.73Z"/><path class="cls-1" d="M46.84,9.76c-.14-.14-.22-.32-.22-.53s.07-.38,.22-.53c.14-.14,.32-.22,.53-.22s.37,.07,.51,.22,.21,.32,.21,.53-.07,.38-.21,.53-.31,.22-.51,.22-.38-.07-.53-.22Zm1.06,1.28v6.58h-1.09v-6.58h1.09Z"/><path class="cls-1" d="M51.83,11.31c.43-.25,.92-.37,1.48-.37,.59,0,1.12,.14,1.6,.42,.47,.28,.84,.67,1.12,1.18,.27,.51,.41,1.1,.41,1.77s-.14,1.26-.41,1.78c-.27,.52-.65,.92-1.12,1.21-.48,.29-1.01,.43-1.59,.43s-1.07-.12-1.49-.37c-.43-.25-.75-.56-.97-.95v1.21h-1.09V8.74h1.09v3.53c.22-.39,.55-.71,.98-.96Zm3.18,1.7c-.2-.37-.47-.65-.81-.84-.34-.19-.71-.29-1.12-.29s-.77,.1-1.11,.29-.61,.48-.82,.85c-.2,.37-.31,.8-.31,1.29s.1,.93,.31,1.3c.2,.37,.48,.66,.82,.85,.34,.2,.71,.29,1.11,.29s.78-.1,1.12-.29c.34-.2,.61-.48,.81-.85s.3-.81,.3-1.31-.1-.93-.3-1.3Z"/><path class="cls-1" d="M57.91,9.76c-.14-.14-.22-.32-.22-.53s.07-.38,.22-.53c.14-.14,.32-.22,.53-.22s.37,.07,.51,.22,.21,.32,.21,.53-.07,.38-.21,.53-.31,.22-.51,.22-.38-.07-.53-.22Zm1.06,1.28v6.58h-1.09v-6.58h1.09Z"/><path class="cls-1" d="M61.91,8.74v8.88h-1.09V8.74h1.09Z"/><path class="cls-1" d="M63.81,9.76c-.14-.14-.22-.32-.22-.53s.07-.38,.22-.53c.14-.14,.32-.22,.53-.22s.37,.07,.51,.22,.21,.32,.21,.53-.07,.38-.21,.53-.31,.22-.51,.22-.38-.07-.53-.22Zm1.06,1.28v6.58h-1.09v-6.58h1.09Z"/><path class="cls-1" d="M66.72,12.54c.27-.51,.65-.9,1.12-1.18,.48-.28,1.01-.42,1.6-.42,.51,0,.99,.12,1.43,.35,.44,.24,.78,.55,1.01,.93v-3.48h1.1v8.88h-1.1v-1.24c-.22,.39-.54,.71-.96,.97-.42,.25-.92,.38-1.49,.38s-1.11-.14-1.59-.43c-.48-.29-.85-.69-1.12-1.21-.27-.52-.41-1.11-.41-1.78s.14-1.26,.41-1.77Zm4.86,.49c-.2-.37-.47-.65-.81-.85s-.71-.29-1.12-.29-.78,.1-1.12,.29c-.34,.19-.6,.47-.8,.84s-.3,.8-.3,1.3,.1,.94,.3,1.31,.47,.66,.8,.85c.34,.2,.71,.29,1.12,.29s.78-.1,1.12-.29c.34-.2,.61-.48,.81-.85,.2-.37,.3-.81,.3-1.3s-.1-.93-.3-1.3Z"/><path class="cls-1" d="M74.84,12.54c.27-.51,.65-.9,1.12-1.18,.48-.28,1.01-.42,1.59-.42s1.08,.12,1.5,.37c.42,.25,.74,.56,.95,.94v-1.2h1.1v6.58h-1.1v-1.22c-.22,.38-.54,.7-.97,.95s-.93,.38-1.49,.38-1.11-.14-1.58-.43c-.47-.29-.84-.69-1.12-1.21-.27-.52-.41-1.11-.41-1.78s.14-1.26,.41-1.77Zm4.86,.49c-.2-.37-.47-.65-.81-.85-.34-.2-.71-.29-1.12-.29s-.78,.1-1.12,.29c-.34,.19-.6,.47-.8,.84-.2,.37-.3,.8-.3,1.3s.1,.94,.3,1.31c.2,.37,.47,.66,.8,.85,.34,.2,.71,.29,1.12,.29s.78-.1,1.12-.29c.34-.2,.61-.48,.81-.85s.3-.81,.3-1.3-.1-.93-.3-1.3Z"/><path class="cls-1" d="M82.95,12.54c.27-.51,.65-.9,1.12-1.18,.48-.28,1.01-.42,1.6-.42,.51,0,.99,.12,1.43,.35,.44,.24,.78,.55,1.01,.93v-3.48h1.1v8.88h-1.1v-1.24c-.22,.39-.54,.71-.96,.97-.42,.25-.92,.38-1.49,.38s-1.11-.14-1.59-.43c-.48-.29-.85-.69-1.12-1.21-.27-.52-.41-1.11-.41-1.78s.14-1.26,.41-1.77Zm4.86,.49c-.2-.37-.47-.65-.81-.85s-.71-.29-1.12-.29-.78,.1-1.12,.29c-.34,.19-.6,.47-.8,.84s-.3,.8-.3,1.3,.1,.94,.3,1.31,.47,.66,.8,.85c.34,.2,.71,.29,1.12,.29s.78-.1,1.12-.29c.34-.2,.61-.48,.81-.85,.2-.37,.3-.81,.3-1.3s-.1-.93-.3-1.3Z"/><path class="cls-1" d="M97.02,14.74h-5.26c.04,.65,.26,1.15,.67,1.52,.4,.36,.89,.55,1.47,.55,.47,0,.87-.11,1.18-.33,.32-.22,.54-.51,.67-.88h1.18c-.18,.63-.53,1.15-1.06,1.54s-1.18,.59-1.97,.59c-.62,0-1.18-.14-1.67-.42-.49-.28-.88-.68-1.16-1.19-.28-.52-.42-1.11-.42-1.79s.14-1.28,.41-1.79c.27-.51,.65-.91,1.15-1.18s1.06-.41,1.7-.41,1.18,.14,1.66,.41c.48,.27,.85,.65,1.11,1.12s.39,1.01,.39,1.61c0,.21-.01,.43-.04,.66Zm-1.37-1.96c-.18-.3-.43-.53-.75-.68-.32-.16-.67-.23-1.05-.23-.55,0-1.02,.18-1.41,.53-.39,.35-.61,.84-.67,1.46h4.15c0-.42-.09-.77-.28-1.07Z"/><path class="cls-1" d="M101.7,12.54c.27-.51,.65-.9,1.12-1.18,.48-.28,1.01-.42,1.6-.42,.51,0,.99,.12,1.43,.35,.44,.24,.78,.55,1.01,.93v-3.48h1.1v8.88h-1.1v-1.24c-.22,.39-.54,.71-.96,.97-.42,.25-.92,.38-1.49,.38s-1.11-.14-1.59-.43c-.48-.29-.85-.69-1.12-1.21-.27-.52-.41-1.11-.41-1.78s.14-1.26,.41-1.77Zm4.86,.49c-.2-.37-.47-.65-.81-.85s-.71-.29-1.12-.29-.78,.1-1.12,.29c-.34,.19-.6,.47-.8,.84s-.3,.8-.3,1.3,.1,.94,.3,1.31,.47,.66,.8,.85c.34,.2,.71,.29,1.12,.29s.78-.1,1.12-.29c.34-.2,.61-.48,.81-.85,.2-.37,.3-.81,.3-1.3s-.1-.93-.3-1.3Z"/><path class="cls-1" d="M115.78,14.74h-5.26c.04,.65,.26,1.15,.67,1.52,.4,.36,.89,.55,1.47,.55,.47,0,.87-.11,1.18-.33,.32-.22,.54-.51,.67-.88h1.18c-.18,.63-.53,1.15-1.06,1.54s-1.18,.59-1.97,.59c-.62,0-1.18-.14-1.67-.42-.49-.28-.88-.68-1.16-1.19-.28-.52-.42-1.11-.42-1.79s.14-1.28,.41-1.79c.27-.51,.65-.91,1.15-1.18s1.06-.41,1.7-.41,1.18,.14,1.66,.41c.48,.27,.85,.65,1.11,1.12s.39,1.01,.39,1.61c0,.21-.01,.43-.04,.66Zm-1.37-1.96c-.18-.3-.43-.53-.75-.68-.32-.16-.67-.23-1.05-.23-.55,0-1.02,.18-1.41,.53-.39,.35-.61,.84-.67,1.46h4.15c0-.42-.09-.77-.28-1.07Z"/><path class="cls-1" d="M122.37,11.24c.36-.21,.79-.31,1.3-.31v1.13h-.29c-1.22,0-1.84,.66-1.84,1.99v3.58h-1.09v-6.58h1.09v1.07c.19-.38,.47-.67,.82-.88Z"/><path class="cls-1" d="M130.9,14.74h-5.26c.04,.65,.26,1.15,.67,1.52,.4,.36,.89,.55,1.47,.55,.47,0,.87-.11,1.18-.33,.32-.22,.54-.51,.67-.88h1.18c-.18,.63-.53,1.15-1.06,1.54-.53,.4-1.18,.59-1.97,.59-.62,0-1.18-.14-1.67-.42-.49-.28-.88-.68-1.16-1.19-.28-.52-.42-1.11-.42-1.79s.14-1.28,.41-1.79c.27-.51,.65-.91,1.15-1.18,.49-.28,1.06-.41,1.7-.41s1.18,.14,1.66,.41c.48,.27,.85,.65,1.11,1.12,.26,.48,.39,1.01,.39,1.61,0,.21-.01,.43-.04,.66Zm-1.37-1.96c-.18-.3-.43-.53-.75-.68-.32-.16-.67-.23-1.05-.23-.55,0-1.02,.18-1.41,.53s-.61,.84-.67,1.46h4.15c0-.42-.09-.77-.28-1.07Z"/><path class="cls-1" d="M132.37,12.54c.27-.51,.65-.9,1.13-1.18,.48-.28,1.04-.42,1.66-.42,.81,0,1.47,.2,2,.59,.52,.39,.87,.94,1.04,1.63h-1.18c-.11-.4-.33-.72-.65-.95-.32-.23-.73-.35-1.21-.35-.62,0-1.13,.21-1.51,.64-.38,.43-.58,1.03-.58,1.82s.19,1.4,.58,1.84c.38,.43,.89,.65,1.51,.65,.48,0,.88-.11,1.2-.34,.32-.22,.54-.54,.66-.96h1.18c-.18,.67-.53,1.21-1.06,1.61-.53,.4-1.19,.61-1.98,.61-.62,0-1.18-.14-1.66-.42-.48-.28-.86-.68-1.13-1.19-.27-.51-.41-1.11-.41-1.8s.14-1.27,.41-1.78Z"/><path class="cls-1" d="M145.49,11.05v6.58h-1.09v-.97c-.21,.34-.5,.6-.87,.79s-.78,.28-1.23,.28c-.51,0-.97-.11-1.38-.32-.41-.21-.73-.53-.97-.95-.24-.42-.35-.94-.35-1.55v-3.85h1.08v3.71c0,.65,.16,1.15,.49,1.49s.78,.52,1.34,.52,1.04-.18,1.38-.54,.5-.88,.5-1.57v-3.61h1.09Z"/><path class="cls-1" d="M149.25,11.24c.36-.21,.79-.31,1.3-.31v1.13h-.29c-1.22,0-1.84,.66-1.84,1.99v3.58h-1.09v-6.58h1.09v1.07c.19-.38,.47-.67,.82-.88Z"/><path class="cls-1" d="M152.79,17.47c-.4-.17-.72-.41-.95-.72-.23-.31-.36-.66-.38-1.06h1.13c.03,.33,.19,.6,.46,.8,.28,.21,.64,.31,1.09,.31,.42,0,.74-.09,.98-.28s.36-.42,.36-.7-.13-.5-.38-.64c-.26-.14-.65-.28-1.19-.41-.49-.13-.89-.26-1.19-.39-.31-.13-.57-.33-.79-.59-.22-.26-.33-.6-.33-1.03,0-.34,.1-.64,.3-.92,.2-.28,.48-.5,.85-.67s.79-.25,1.26-.25c.73,0,1.32,.18,1.76,.55,.45,.37,.69,.87,.72,1.51h-1.09c-.02-.34-.16-.62-.41-.83-.25-.21-.59-.31-1.01-.31-.39,0-.7,.08-.94,.25s-.35,.39-.35,.66c0,.22,.07,.39,.21,.53,.14,.14,.32,.25,.53,.34s.51,.18,.88,.28c.47,.13,.86,.25,1.15,.38s.55,.31,.76,.56,.32,.57,.33,.97c0,.36-.1,.68-.3,.97s-.48,.51-.85,.68c-.36,.16-.78,.25-1.25,.25-.5,0-.96-.09-1.36-.26Z"/><path class="cls-1" d="M159.27,17.31c-.5-.28-.89-.68-1.18-1.19-.28-.52-.43-1.11-.43-1.79s.15-1.27,.44-1.78,.69-.91,1.19-1.19,1.07-.41,1.69-.41,1.19,.14,1.69,.41c.5,.28,.9,.67,1.19,1.18,.29,.51,.44,1.11,.44,1.79s-.15,1.28-.45,1.79c-.3,.52-.71,.91-1.22,1.19-.51,.28-1.08,.42-1.7,.42s-1.17-.14-1.67-.42Zm2.78-.82c.34-.18,.62-.46,.83-.83,.21-.37,.32-.82,.32-1.34s-.1-.98-.31-1.34c-.21-.37-.48-.64-.82-.82-.34-.18-.7-.27-1.09-.27s-.77,.09-1.1,.27c-.33,.18-.6,.45-.8,.82-.2,.37-.3,.82-.3,1.34s.1,.99,.29,1.36c.2,.37,.46,.64,.79,.82,.33,.18,.69,.27,1.08,.27s.76-.09,1.1-.28Z"/><path class="cls-1" d="M166.73,17.47c-.4-.17-.72-.41-.95-.72-.23-.31-.36-.66-.38-1.06h1.13c.03,.33,.19,.6,.46,.8s.64,.31,1.09,.31c.42,0,.74-.09,.98-.28,.24-.18,.36-.42,.36-.7s-.13-.5-.38-.64c-.26-.14-.65-.28-1.19-.41-.49-.13-.89-.26-1.19-.39-.31-.13-.57-.33-.79-.59-.22-.26-.33-.6-.33-1.03,0-.34,.1-.64,.3-.92,.2-.28,.48-.5,.85-.67,.37-.16,.79-.25,1.26-.25,.73,0,1.32,.18,1.76,.55,.45,.37,.69,.87,.72,1.51h-1.09c-.02-.34-.16-.62-.41-.83-.25-.21-.59-.31-1.01-.31-.39,0-.7,.08-.94,.25-.23,.17-.35,.39-.35,.66,0,.22,.07,.39,.21,.53s.32,.25,.53,.34,.51,.18,.88,.28c.47,.13,.86,.25,1.15,.38s.55,.31,.76,.56,.32,.57,.33,.97c0,.36-.1,.68-.3,.97-.2,.29-.48,.51-.85,.68-.36,.16-.78,.25-1.25,.25-.5,0-.96-.09-1.36-.26Z"/><path class="cls-1" d="M10.78,26.05c.5,.48,.74,1.18,.74,2.09v3.88h-1.08v-3.72c0-.66-.16-1.16-.49-1.51-.33-.35-.78-.52-1.34-.52s-1.03,.18-1.37,.54-.51,.88-.51,1.57v3.64h-1.09v-6.58h1.09v.94c.22-.34,.51-.6,.88-.78s.78-.28,1.23-.28c.8,0,1.45,.24,1.94,.73Z"/><path class="cls-1" d="M19.28,29.14h-5.26c.04,.65,.26,1.15,.67,1.52,.4,.36,.89,.55,1.47,.55,.47,0,.87-.11,1.18-.33,.32-.22,.54-.51,.67-.88h1.18c-.18,.63-.53,1.15-1.06,1.54s-1.18,.59-1.97,.59c-.62,0-1.18-.14-1.67-.42-.49-.28-.88-.68-1.16-1.19-.28-.52-.42-1.11-.42-1.79s.14-1.28,.41-1.79c.27-.51,.65-.91,1.15-1.18s1.06-.41,1.7-.41,1.18,.14,1.66,.41c.48,.27,.85,.65,1.11,1.12s.39,1.01,.39,1.61c0,.21-.01,.43-.04,.66Zm-1.37-1.96c-.18-.3-.43-.53-.75-.68-.32-.16-.67-.23-1.05-.23-.55,0-1.02,.18-1.41,.53-.39,.35-.61,.84-.67,1.46h4.15c0-.42-.09-.77-.28-1.07Z"/><path class="cls-1" d="M20.75,26.94c.27-.51,.65-.9,1.13-1.18,.48-.28,1.04-.42,1.66-.42,.81,0,1.47,.2,2,.59,.52,.39,.87,.94,1.04,1.63h-1.18c-.11-.4-.33-.72-.65-.95-.32-.23-.73-.35-1.21-.35-.62,0-1.13,.21-1.51,.64-.38,.43-.58,1.03-.58,1.82s.19,1.4,.58,1.84c.38,.43,.89,.65,1.51,.65,.48,0,.88-.11,1.2-.34,.32-.22,.54-.54,.66-.96h1.18c-.18,.67-.53,1.21-1.06,1.61-.53,.4-1.19,.61-1.98,.61-.62,0-1.18-.14-1.66-.42-.48-.28-.86-.68-1.13-1.19-.27-.51-.41-1.11-.41-1.8s.14-1.27,.41-1.78Z"/><path class="cls-1" d="M34,29.14h-5.26c.04,.65,.26,1.15,.67,1.52,.4,.36,.89,.55,1.47,.55,.47,0,.87-.11,1.18-.33,.32-.22,.54-.51,.67-.88h1.18c-.18,.63-.53,1.15-1.06,1.54-.53,.4-1.18,.59-1.97,.59-.62,0-1.18-.14-1.67-.42-.49-.28-.88-.68-1.16-1.19-.28-.52-.42-1.11-.42-1.79s.14-1.28,.41-1.79c.27-.51,.65-.91,1.15-1.18,.49-.28,1.06-.41,1.7-.41s1.18,.14,1.66,.41c.48,.27,.85,.65,1.11,1.12,.26,.48,.39,1.01,.39,1.61,0,.21-.01,.43-.04,.66Zm-1.37-1.96c-.18-.3-.43-.53-.75-.68-.32-.16-.67-.23-1.05-.23-.55,0-1.02,.18-1.41,.53s-.61,.84-.67,1.46h4.15c0-.42-.09-.77-.28-1.07Z"/><path class="cls-1" d="M36.45,31.87c-.4-.17-.72-.41-.95-.72-.23-.31-.36-.66-.38-1.06h1.13c.03,.33,.19,.6,.46,.8s.64,.31,1.09,.31c.42,0,.74-.09,.98-.28,.24-.18,.36-.42,.36-.7s-.13-.5-.38-.64c-.26-.14-.65-.28-1.19-.41-.49-.13-.89-.26-1.19-.39-.31-.13-.57-.33-.79-.59-.22-.26-.33-.6-.33-1.03,0-.34,.1-.64,.3-.92,.2-.28,.48-.5,.85-.67,.37-.16,.79-.25,1.26-.25,.73,0,1.32,.18,1.76,.55,.45,.37,.69,.87,.72,1.51h-1.09c-.02-.34-.16-.62-.41-.83-.25-.21-.59-.31-1.01-.31-.39,0-.7,.08-.94,.25-.23,.17-.35,.39-.35,.66,0,.22,.07,.39,.21,.53s.32,.25,.53,.34,.51,.18,.88,.28c.47,.13,.86,.25,1.15,.38s.55,.31,.76,.56,.32,.57,.33,.97c0,.36-.1,.68-.3,.97-.2,.29-.48,.51-.85,.68-.36,.16-.78,.25-1.25,.25-.5,0-.96-.09-1.36-.26Z"/><path class="cls-1" d="M42.71,31.87c-.4-.17-.72-.41-.95-.72-.23-.31-.36-.66-.38-1.06h1.13c.03,.33,.19,.6,.46,.8s.64,.31,1.09,.31c.42,0,.74-.09,.98-.28,.24-.18,.36-.42,.36-.7s-.13-.5-.38-.64c-.26-.14-.65-.28-1.19-.41-.49-.13-.89-.26-1.19-.39-.31-.13-.57-.33-.79-.59-.22-.26-.33-.6-.33-1.03,0-.34,.1-.64,.3-.92,.2-.28,.48-.5,.85-.67,.37-.16,.79-.25,1.26-.25,.73,0,1.32,.18,1.76,.55,.45,.37,.69,.87,.72,1.51h-1.09c-.02-.34-.16-.62-.41-.83-.25-.21-.59-.31-1.01-.31-.39,0-.7,.08-.94,.25-.23,.17-.35,.39-.35,.66,0,.22,.07,.39,.21,.53s.32,.25,.53,.34,.51,.18,.88,.28c.47,.13,.86,.25,1.15,.38s.55,.31,.76,.56,.32,.57,.33,.97c0,.36-.1,.68-.3,.97-.2,.29-.48,.51-.85,.68-.36,.16-.78,.25-1.25,.25-.5,0-.96-.09-1.36-.26Z"/><path class="cls-1" d="M48.01,26.94c.27-.51,.65-.9,1.12-1.18,.48-.28,1.01-.42,1.59-.42s1.08,.12,1.5,.37c.42,.25,.74,.56,.95,.94v-1.2h1.1v6.58h-1.1v-1.22c-.22,.38-.54,.7-.97,.95s-.93,.38-1.49,.38-1.11-.14-1.58-.43c-.47-.29-.84-.69-1.12-1.21-.27-.52-.41-1.11-.41-1.78s.14-1.26,.41-1.77Zm4.86,.49c-.2-.37-.47-.65-.81-.85-.34-.2-.71-.29-1.12-.29s-.78,.1-1.12,.29c-.34,.19-.6,.47-.8,.84-.2,.37-.3,.8-.3,1.3s.1,.94,.3,1.31c.2,.37,.47,.66,.8,.85,.34,.2,.71,.29,1.12,.29s.78-.1,1.12-.29c.34-.2,.61-.48,.81-.85s.3-.81,.3-1.3-.1-.93-.3-1.3Zm-.55-3.84l-2.56,1.37v-.82l2.56-1.5v.95Z"/><path class="cls-1" d="M58.03,25.64c.36-.21,.79-.31,1.3-.31v1.13h-.29c-1.22,0-1.84,.66-1.84,1.99v3.58h-1.09v-6.58h1.09v1.07c.19-.38,.47-.67,.82-.88Z"/><path class="cls-1" d="M60.63,24.16c-.14-.14-.22-.32-.22-.53s.07-.38,.22-.53c.14-.14,.32-.22,.53-.22s.37,.07,.51,.22c.14,.14,.21,.32,.21,.53s-.07,.38-.21,.53c-.14,.14-.31,.22-.51,.22s-.38-.07-.53-.22Zm1.06,1.28v6.58h-1.09v-6.58h1.09Z"/><path class="cls-1" d="M64.74,31.71c-.5-.28-.89-.68-1.18-1.19-.28-.52-.43-1.11-.43-1.79s.15-1.27,.44-1.78,.69-.91,1.19-1.19,1.07-.41,1.69-.41,1.19,.14,1.69,.41,.9,.67,1.19,1.18c.29,.51,.44,1.11,.44,1.79s-.15,1.28-.45,1.79c-.3,.52-.71,.91-1.22,1.19-.51,.28-1.08,.42-1.7,.42s-1.17-.14-1.67-.42Zm2.78-.82c.34-.18,.62-.46,.83-.83,.21-.37,.32-.82,.32-1.34s-.1-.98-.31-1.34c-.21-.37-.48-.64-.82-.82-.34-.18-.7-.27-1.09-.27s-.77,.09-1.1,.27c-.33,.18-.6,.45-.8,.82-.2,.37-.3,.82-.3,1.34s.1,.99,.29,1.36c.2,.37,.46,.64,.79,.82,.33,.18,.69,.27,1.08,.27s.76-.09,1.1-.28Z"/><path class="cls-1" d="M72.2,31.87c-.4-.17-.72-.41-.95-.72-.23-.31-.36-.66-.38-1.06h1.13c.03,.33,.19,.6,.46,.8,.28,.21,.64,.31,1.09,.31,.42,0,.74-.09,.98-.28s.36-.42,.36-.7-.13-.5-.38-.64c-.26-.14-.65-.28-1.19-.41-.49-.13-.89-.26-1.19-.39-.31-.13-.57-.33-.79-.59-.22-.26-.33-.6-.33-1.03,0-.34,.1-.64,.3-.92,.2-.28,.48-.5,.85-.67s.79-.25,1.26-.25c.73,0,1.32,.18,1.76,.55,.45,.37,.69,.87,.72,1.51h-1.09c-.02-.34-.16-.62-.41-.83-.25-.21-.59-.31-1.01-.31-.39,0-.7,.08-.94,.25s-.35,.39-.35,.66c0,.22,.07,.39,.21,.53,.14,.14,.32,.25,.53,.34s.51,.18,.88,.28c.47,.13,.86,.25,1.15,.38s.55,.31,.76,.56,.32,.57,.33,.97c0,.36-.1,.68-.3,.97s-.48,.51-.85,.68c-.36,.16-.78,.25-1.25,.25-.5,0-.96-.09-1.36-.26Z"/><path class="cls-1" d="M80.69,26.94c.27-.51,.65-.9,1.12-1.18,.48-.28,1.01-.42,1.59-.42s1.08,.12,1.5,.37,.74,.56,.95,.94v-1.2h1.1v6.58h-1.1v-1.22c-.22,.38-.54,.7-.97,.95-.43,.25-.93,.38-1.49,.38s-1.11-.14-1.58-.43c-.47-.29-.84-.69-1.12-1.21-.27-.52-.41-1.11-.41-1.78s.14-1.26,.41-1.77Zm4.86,.49c-.2-.37-.47-.65-.81-.85s-.71-.29-1.12-.29-.78,.1-1.12,.29c-.34,.19-.6,.47-.8,.84s-.3,.8-.3,1.3,.1,.94,.3,1.31,.47,.66,.8,.85c.34,.2,.71,.29,1.12,.29s.78-.1,1.12-.29c.34-.2,.61-.48,.81-.85,.2-.37,.3-.81,.3-1.3s-.1-.93-.3-1.3Zm-.55-3.29v.82l-2.56-1.37v-.95l2.56,1.5Z"/><path class="cls-1" d="M92.01,26.94c.27-.51,.65-.9,1.13-1.18,.48-.28,1.04-.42,1.66-.42,.81,0,1.47,.2,2,.59,.52,.39,.87,.94,1.04,1.63h-1.18c-.11-.4-.33-.72-.65-.95-.32-.23-.73-.35-1.21-.35-.62,0-1.13,.21-1.51,.64-.38,.43-.58,1.03-.58,1.82s.19,1.4,.58,1.84c.38,.43,.89,.65,1.51,.65,.48,0,.88-.11,1.2-.34,.32-.22,.54-.54,.66-.96h1.18c-.18,.67-.53,1.21-1.06,1.61-.53,.4-1.19,.61-1.98,.61-.62,0-1.18-.14-1.66-.42-.48-.28-.86-.68-1.13-1.19-.27-.51-.41-1.11-.41-1.8s.14-1.27,.41-1.78Z"/><path class="cls-1" d="M100.49,31.71c-.5-.28-.89-.68-1.18-1.19-.28-.52-.43-1.11-.43-1.79s.15-1.27,.44-1.78,.69-.91,1.19-1.19,1.07-.41,1.69-.41,1.19,.14,1.69,.41c.5,.28,.9,.67,1.19,1.18,.29,.51,.44,1.11,.44,1.79s-.15,1.28-.45,1.79c-.3,.52-.71,.91-1.22,1.19-.51,.28-1.08,.42-1.7,.42s-1.17-.14-1.67-.42Zm2.78-.82c.34-.18,.62-.46,.83-.83,.21-.37,.32-.82,.32-1.34s-.1-.98-.31-1.34c-.21-.37-.48-.64-.82-.82-.34-.18-.7-.27-1.09-.27s-.77,.09-1.1,.27c-.33,.18-.6,.45-.8,.82-.2,.37-.3,.82-.3,1.34s.1,.99,.29,1.36c.2,.37,.46,.64,.79,.82,.33,.18,.69,.27,1.08,.27s.76-.09,1.1-.28Z"/><path class="cls-1" d="M112.12,26.05c.5,.48,.74,1.18,.74,2.09v3.88h-1.08v-3.72c0-.66-.16-1.16-.49-1.51s-.78-.52-1.34-.52-1.03,.18-1.37,.54-.51,.88-.51,1.57v3.64h-1.09v-6.58h1.09v.94c.22-.34,.51-.6,.88-.78s.78-.28,1.23-.28c.8,0,1.45,.24,1.94,.73Z"/><path class="cls-1" d="M115.99,26.35v3.88c0,.32,.07,.55,.2,.68,.14,.13,.37,.2,.71,.2h.8v.92h-.98c-.61,0-1.06-.14-1.37-.42-.3-.28-.46-.74-.46-1.38v-3.88h-.85v-.9h.85v-1.66h1.09v1.66h1.72v.9h-1.72Z"/><path class="cls-1" d="M119.06,24.16c-.14-.14-.22-.32-.22-.53s.07-.38,.22-.53c.14-.14,.32-.22,.53-.22s.37,.07,.51,.22c.14,.14,.21,.32,.21,.53s-.07,.38-.21,.53c-.14,.14-.31,.22-.51,.22s-.38-.07-.53-.22Zm1.06,1.28v6.58h-1.09v-6.58h1.09Z"/><path class="cls-1" d="M127.12,26.05c.5,.48,.74,1.18,.74,2.09v3.88h-1.08v-3.72c0-.66-.16-1.16-.49-1.51s-.78-.52-1.34-.52-1.03,.18-1.37,.54-.51,.88-.51,1.57v3.64h-1.09v-6.58h1.09v.94c.22-.34,.51-.6,.88-.78s.78-.28,1.23-.28c.8,0,1.45,.24,1.94,.73Z"/><path class="cls-1" d="M135.49,25.45v6.58h-1.09v-.97c-.21,.34-.5,.6-.87,.79s-.78,.28-1.23,.28c-.51,0-.97-.11-1.38-.32-.41-.21-.73-.53-.97-.95-.24-.42-.35-.94-.35-1.55v-3.85h1.08v3.71c0,.65,.16,1.15,.49,1.49s.78,.52,1.34,.52,1.04-.18,1.38-.54,.5-.88,.5-1.57v-3.61h1.09Z"/><path class="cls-1" d="M137.37,24.16c-.14-.14-.22-.32-.22-.53s.07-.38,.22-.53c.14-.14,.32-.22,.53-.22s.37,.07,.51,.22,.21,.32,.21,.53-.07,.38-.21,.53-.31,.22-.51,.22-.38-.07-.53-.22Zm1.06,1.28v6.58h-1.09v-6.58h1.09Z"/><path class="cls-1" d="M140.28,26.94c.27-.51,.65-.9,1.12-1.18,.48-.28,1.01-.42,1.6-.42,.51,0,.99,.12,1.43,.35,.44,.24,.78,.55,1.01,.93v-3.48h1.1v8.88h-1.1v-1.24c-.22,.39-.54,.71-.96,.97-.42,.25-.92,.38-1.49,.38s-1.11-.14-1.59-.43c-.48-.29-.85-.69-1.12-1.21-.27-.52-.41-1.11-.41-1.78s.14-1.26,.41-1.77Zm4.86,.49c-.2-.37-.47-.65-.81-.85s-.71-.29-1.12-.29-.78,.1-1.12,.29c-.34,.19-.6,.47-.8,.84s-.3,.8-.3,1.3,.1,.94,.3,1.31,.47,.66,.8,.85c.34,.2,.71,.29,1.12,.29s.78-.1,1.12-.29c.34-.2,.61-.48,.81-.85,.2-.37,.3-.81,.3-1.3s-.1-.93-.3-1.3Z"/><path class="cls-1" d="M148.4,26.94c.27-.51,.65-.9,1.12-1.18,.48-.28,1.01-.42,1.59-.42s1.08,.12,1.5,.37c.42,.25,.74,.56,.95,.94v-1.2h1.1v6.58h-1.1v-1.22c-.22,.38-.54,.7-.97,.95s-.93,.38-1.49,.38-1.11-.14-1.58-.43c-.47-.29-.84-.69-1.12-1.21-.27-.52-.41-1.11-.41-1.78s.14-1.26,.41-1.77Zm4.86,.49c-.2-.37-.47-.65-.81-.85-.34-.2-.71-.29-1.12-.29s-.78,.1-1.12,.29c-.34,.19-.6,.47-.8,.84-.2,.37-.3,.8-.3,1.3s.1,.94,.3,1.31c.2,.37,.47,.66,.8,.85,.34,.2,.71,.29,1.12,.29s.78-.1,1.12-.29c.34-.2,.61-.48,.81-.85s.3-.81,.3-1.3-.1-.93-.3-1.3Z"/><path class="cls-1" d="M156.51,26.94c.27-.51,.65-.9,1.12-1.18,.48-.28,1.01-.42,1.6-.42,.51,0,.99,.12,1.43,.35,.44,.24,.78,.55,1.01,.93v-3.48h1.1v8.88h-1.1v-1.24c-.22,.39-.54,.71-.96,.97-.42,.25-.92,.38-1.49,.38s-1.11-.14-1.59-.43c-.48-.29-.85-.69-1.12-1.21-.27-.52-.41-1.11-.41-1.78s.14-1.26,.41-1.77Zm4.86,.49c-.2-.37-.47-.65-.81-.85s-.71-.29-1.12-.29-.78,.1-1.12,.29c-.34,.19-.6,.47-.8,.84s-.3,.8-.3,1.3,.1,.94,.3,1.31,.47,.66,.8,.85c.34,.2,.71,.29,1.12,.29s.78-.1,1.12-.29c.34-.2,.61-.48,.81-.85,.2-.37,.3-.81,.3-1.3s-.1-.93-.3-1.3Z"/><path class="cls-1" d="M170.58,29.14h-5.26c.04,.65,.26,1.15,.67,1.52,.4,.36,.89,.55,1.47,.55,.47,0,.87-.11,1.18-.33,.32-.22,.54-.51,.67-.88h1.18c-.18,.63-.53,1.15-1.06,1.54s-1.18,.59-1.97,.59c-.62,0-1.18-.14-1.67-.42-.49-.28-.88-.68-1.16-1.19-.28-.52-.42-1.11-.42-1.79s.14-1.28,.41-1.79c.27-.51,.65-.91,1.15-1.18s1.06-.41,1.7-.41,1.18,.14,1.66,.41c.48,.27,.85,.65,1.11,1.12s.39,1.01,.39,1.61c0,.21-.01,.43-.04,.66Zm-1.37-1.96c-.18-.3-.43-.53-.75-.68-.32-.16-.67-.23-1.05-.23-.55,0-1.02,.18-1.41,.53-.39,.35-.61,.84-.67,1.46h4.15c0-.42-.09-.77-.28-1.07Z"/><path class="cls-1" d="M11.6,43.54H6.34c.04,.65,.26,1.15,.67,1.52,.4,.36,.89,.55,1.47,.55,.47,0,.87-.11,1.18-.33,.32-.22,.54-.51,.67-.88h1.18c-.18,.63-.53,1.15-1.06,1.54-.53,.4-1.18,.59-1.97,.59-.62,0-1.18-.14-1.67-.42-.49-.28-.88-.68-1.16-1.19-.28-.52-.42-1.11-.42-1.79s.14-1.28,.41-1.79c.27-.51,.65-.91,1.15-1.18,.49-.28,1.06-.41,1.7-.41s1.18,.14,1.66,.41c.48,.27,.85,.65,1.11,1.12,.26,.48,.39,1.01,.39,1.61,0,.21-.01,.43-.04,.66Zm-1.37-1.96c-.18-.3-.43-.53-.75-.68-.32-.16-.67-.23-1.05-.23-.55,0-1.02,.18-1.41,.53s-.61,.84-.67,1.46h4.15c0-.42-.09-.77-.28-1.07Z"/><path class="cls-1" d="M16.28,41.34c.27-.51,.65-.9,1.12-1.18,.48-.28,1.01-.42,1.59-.42s1.08,.12,1.5,.37c.42,.25,.74,.56,.95,.94v-1.2h1.1v6.58h-1.1v-1.22c-.22,.38-.54,.7-.97,.95-.43,.25-.93,.38-1.49,.38s-1.11-.14-1.58-.43-.84-.69-1.12-1.21c-.27-.52-.41-1.11-.41-1.78s.14-1.26,.41-1.77Zm4.86,.49c-.2-.37-.47-.65-.81-.85-.34-.2-.71-.29-1.12-.29s-.78,.1-1.12,.29c-.34,.19-.6,.47-.8,.84-.2,.37-.3,.8-.3,1.3s.1,.94,.3,1.31c.2,.37,.47,.66,.8,.85,.34,.2,.71,.29,1.12,.29s.78-.1,1.12-.29c.34-.2,.61-.48,.81-.85s.3-.81,.3-1.3-.1-.93-.3-1.3Zm-.55-3.29v.82l-2.56-1.37v-.95l2.56,1.5Z"/><path class="cls-1" d="M27.59,41.34c.27-.51,.65-.9,1.13-1.18,.48-.28,1.04-.42,1.66-.42,.81,0,1.47,.2,2,.59,.52,.39,.87,.94,1.04,1.63h-1.18c-.11-.4-.33-.72-.65-.95-.32-.23-.73-.35-1.21-.35-.62,0-1.13,.21-1.51,.64-.38,.43-.58,1.03-.58,1.82s.19,1.4,.58,1.84,.89,.65,1.51,.65c.48,0,.88-.11,1.2-.33,.32-.22,.54-.54,.66-.96h1.18c-.18,.67-.53,1.21-1.06,1.61-.53,.4-1.19,.61-1.98,.61-.62,0-1.18-.14-1.66-.42-.48-.28-.86-.68-1.13-1.19-.27-.51-.41-1.11-.41-1.8s.14-1.27,.41-1.78Z"/><path class="cls-1" d="M36.07,46.11c-.5-.28-.89-.68-1.18-1.19-.28-.52-.43-1.11-.43-1.79s.15-1.27,.44-1.78,.69-.91,1.19-1.19,1.07-.41,1.69-.41,1.19,.14,1.69,.41c.5,.28,.9,.67,1.19,1.18,.29,.51,.44,1.11,.44,1.79s-.15,1.28-.45,1.79c-.3,.52-.71,.91-1.22,1.19-.51,.28-1.08,.42-1.7,.42s-1.17-.14-1.67-.42Zm2.78-.82c.34-.18,.62-.46,.83-.83,.21-.37,.32-.82,.32-1.34s-.1-.98-.31-1.34c-.21-.37-.48-.64-.82-.82-.34-.18-.7-.27-1.09-.27s-.77,.09-1.1,.27c-.33,.18-.6,.45-.8,.82-.2,.37-.3,.82-.3,1.34s.1,.99,.29,1.36c.2,.37,.46,.64,.79,.82s.69,.27,1.08,.27,.76-.09,1.1-.28Z"/><path class="cls-1" d="M51.83,40.04c.4,.21,.72,.53,.95,.95,.23,.42,.35,.94,.35,1.55v3.88h-1.08v-3.72c0-.66-.16-1.16-.49-1.51-.32-.35-.76-.52-1.31-.52s-1.02,.18-1.36,.55c-.34,.36-.5,.89-.5,1.58v3.62h-1.08v-3.72c0-.66-.16-1.16-.49-1.51s-.76-.52-1.31-.52-1.02,.18-1.36,.55c-.34,.36-.5,.89-.5,1.58v3.62h-1.09v-6.58h1.09v.95c.22-.34,.51-.61,.87-.79,.36-.18,.77-.28,1.21-.28,.55,0,1.04,.12,1.46,.37,.42,.25,.74,.61,.95,1.09,.18-.46,.49-.82,.91-1.08,.42-.26,.9-.38,1.42-.38s.97,.11,1.37,.32Z"/><path class="cls-1" d="M56.98,40.12c.43-.25,.93-.38,1.49-.38s1.11,.14,1.59,.42c.48,.28,.85,.67,1.12,1.18,.27,.51,.41,1.1,.41,1.77s-.14,1.26-.41,1.78c-.27,.52-.65,.92-1.12,1.21-.48,.29-1.01,.43-1.59,.43s-1.05-.13-1.48-.38c-.43-.25-.75-.57-.98-.94v4.33h-1.09v-9.7h1.09v1.21c.22-.38,.54-.69,.97-.94Zm3.2,1.7c-.2-.37-.47-.65-.81-.84-.34-.19-.71-.29-1.12-.29s-.77,.1-1.11,.29-.61,.48-.82,.85c-.2,.37-.31,.8-.31,1.29s.1,.93,.31,1.3c.2,.37,.48,.66,.82,.85,.34,.2,.71,.29,1.11,.29s.78-.1,1.12-.29c.34-.2,.61-.48,.81-.85s.3-.81,.3-1.31-.1-.93-.3-1.3Z"/><path class="cls-1" d="M64.12,37.54v8.88h-1.09v-8.88h1.09Z"/><path class="cls-1" d="M71.95,43.54h-5.26c.04,.65,.26,1.15,.67,1.52,.4,.36,.89,.55,1.47,.55,.47,0,.87-.11,1.18-.33,.32-.22,.54-.51,.67-.88h1.18c-.18,.63-.53,1.15-1.06,1.54-.53,.4-1.18,.59-1.97,.59-.62,0-1.18-.14-1.67-.42-.49-.28-.88-.68-1.16-1.19-.28-.52-.42-1.11-.42-1.79s.14-1.28,.41-1.79c.27-.51,.65-.91,1.15-1.18,.49-.28,1.06-.41,1.7-.41s1.18,.14,1.66,.41c.48,.27,.85,.65,1.11,1.12,.26,.48,.39,1.01,.39,1.61,0,.21-.01,.43-.04,.66Zm-1.37-1.96c-.18-.3-.43-.53-.75-.68-.32-.16-.67-.23-1.05-.23-.55,0-1.02,.18-1.41,.53s-.61,.84-.67,1.46h4.15c0-.42-.09-.77-.28-1.07Z"/><path class="cls-1" d="M82.7,40.04c.4,.21,.72,.53,.95,.95,.23,.42,.35,.94,.35,1.55v3.88h-1.08v-3.72c0-.66-.16-1.16-.49-1.51-.32-.35-.76-.52-1.31-.52s-1.02,.18-1.36,.55c-.34,.36-.5,.89-.5,1.58v3.62h-1.08v-3.72c0-.66-.16-1.16-.49-1.51s-.76-.52-1.31-.52-1.02,.18-1.36,.55c-.34,.36-.5,.89-.5,1.58v3.62h-1.09v-6.58h1.09v.95c.22-.34,.51-.61,.87-.79,.36-.18,.77-.28,1.21-.28,.55,0,1.04,.12,1.46,.37,.42,.25,.74,.61,.95,1.09,.18-.46,.49-.82,.91-1.08,.42-.26,.9-.38,1.42-.38s.97,.11,1.37,.32Z"/><path class="cls-1" d="M91.75,43.54h-5.26c.04,.65,.26,1.15,.67,1.52,.4,.36,.89,.55,1.47,.55,.47,0,.87-.11,1.18-.33,.32-.22,.54-.51,.67-.88h1.18c-.18,.63-.53,1.15-1.06,1.54-.53,.4-1.18,.59-1.97,.59-.62,0-1.18-.14-1.67-.42-.49-.28-.88-.68-1.16-1.19-.28-.52-.42-1.11-.42-1.79s.14-1.28,.41-1.79c.27-.51,.65-.91,1.15-1.18,.49-.28,1.06-.41,1.7-.41s1.18,.14,1.66,.41c.48,.27,.85,.65,1.11,1.12,.26,.48,.39,1.01,.39,1.61,0,.21-.01,.43-.04,.66Zm-1.37-1.96c-.18-.3-.43-.53-.75-.68-.32-.16-.67-.23-1.05-.23-.55,0-1.02,.18-1.41,.53s-.61,.84-.67,1.46h4.15c0-.42-.09-.77-.28-1.07Z"/><path class="cls-1" d="M98.37,40.45c.5,.48,.74,1.18,.74,2.09v3.88h-1.08v-3.72c0-.66-.16-1.16-.49-1.51s-.78-.52-1.34-.52-1.03,.18-1.37,.54-.51,.88-.51,1.57v3.64h-1.09v-6.58h1.09v.94c.22-.34,.51-.6,.88-.78s.78-.28,1.23-.28c.8,0,1.45,.24,1.94,.73Z"/><path class="cls-1" d="M102.23,40.75v3.88c0,.32,.07,.55,.2,.68,.14,.13,.37,.2,.71,.2h.8v.92h-.98c-.61,0-1.06-.14-1.37-.42-.3-.28-.46-.74-.46-1.38v-3.88h-.85v-.9h.85v-1.66h1.09v1.66h1.72v.9h-1.72Z"/><path class="cls-1" d="M105.27,41.34c.27-.51,.65-.9,1.12-1.18,.48-.28,1.01-.42,1.59-.42s1.08,.12,1.5,.37,.74,.56,.95,.94v-1.2h1.1v6.58h-1.1v-1.22c-.22,.38-.54,.7-.97,.95-.43,.25-.93,.38-1.49,.38s-1.11-.14-1.58-.43c-.47-.29-.84-.69-1.12-1.21-.27-.52-.41-1.11-.41-1.78s.14-1.26,.41-1.77Zm4.86,.49c-.2-.37-.47-.65-.81-.85s-.71-.29-1.12-.29-.78,.1-1.12,.29c-.34,.19-.6,.47-.8,.84s-.3,.8-.3,1.3,.1,.94,.3,1.31,.47,.66,.8,.85c.34,.2,.71,.29,1.12,.29s.78-.1,1.12-.29c.34-.2,.61-.48,.81-.85,.2-.37,.3-.81,.3-1.3s-.1-.93-.3-1.3Z"/><path class="cls-1" d="M117.38,45.27c.32-.22,.54-.54,.66-.96h1.18c-.16,.62-.47,1.13-.94,1.53-.47,.4-1.05,.62-1.76,.68v.6c.47,0,.85,.09,1.13,.3,.28,.21,.42,.5,.42,.89s-.14,.68-.41,.9c-.27,.22-.62,.34-1.06,.34h-1.38v-.71h1.16c.26,0,.46-.04,.58-.12s.19-.22,.19-.41-.06-.32-.19-.4-.32-.12-.58-.12h-.6v-1.28c-.55-.06-1.04-.23-1.46-.52-.42-.29-.75-.68-.99-1.18-.24-.49-.35-1.05-.35-1.69,0-.68,.14-1.27,.41-1.78,.27-.51,.65-.9,1.13-1.18,.48-.28,1.04-.42,1.66-.42,.81,0,1.47,.2,2,.59,.52,.39,.87,.94,1.04,1.63h-1.18c-.11-.4-.33-.72-.65-.95-.32-.23-.73-.35-1.21-.35-.62,0-1.13,.21-1.51,.64-.38,.43-.58,1.03-.58,1.82s.19,1.4,.58,1.84,.89,.65,1.51,.65c.48,0,.88-.11,1.2-.33Z"/><path class="cls-1" d="M120.67,41.34c.27-.51,.65-.9,1.12-1.18,.48-.28,1.01-.42,1.59-.42s1.08,.12,1.5,.37,.74,.56,.95,.94v-1.2h1.1v6.58h-1.1v-1.22c-.22,.38-.54,.7-.97,.95-.43,.25-.93,.38-1.49,.38s-1.11-.14-1.58-.43c-.47-.29-.84-.69-1.12-1.21-.27-.52-.41-1.11-.41-1.78s.14-1.26,.41-1.77Zm4.86,.49c-.2-.37-.47-.65-.81-.85s-.71-.29-1.12-.29-.78,.1-1.12,.29c-.34,.19-.6,.47-.8,.84s-.3,.8-.3,1.3,.1,.94,.3,1.31,.47,.66,.8,.85c.34,.2,.71,.29,1.12,.29s.78-.1,1.12-.29c.34-.2,.61-.48,.81-.85,.2-.37,.3-.81,.3-1.3s-.1-.93-.3-1.3Zm-3.08-3.62c.21-.22,.48-.32,.8-.32,.15,0,.28,.03,.39,.08,.11,.05,.24,.13,.39,.22,.11,.08,.21,.14,.3,.19s.18,.07,.29,.07c.14,0,.25-.04,.35-.13,.1-.09,.16-.22,.18-.38h.62c-.05,.4-.18,.71-.4,.92s-.48,.32-.8,.32c-.15,0-.29-.03-.4-.08s-.25-.13-.39-.23c-.13-.08-.23-.14-.31-.18s-.17-.06-.27-.06c-.14,0-.25,.04-.34,.13-.09,.09-.15,.22-.17,.4h-.64c.06-.41,.19-.72,.4-.94Z"/><path class="cls-1" d="M129.97,46.11c-.5-.28-.89-.68-1.18-1.19-.28-.52-.43-1.11-.43-1.79s.15-1.27,.44-1.78,.69-.91,1.19-1.19,1.07-.41,1.69-.41,1.19,.14,1.69,.41,.9,.67,1.19,1.18c.29,.51,.44,1.11,.44,1.79s-.15,1.28-.45,1.79c-.3,.52-.71,.91-1.22,1.19-.51,.28-1.08,.42-1.7,.42s-1.17-.14-1.67-.42Zm2.78-.82c.34-.18,.62-.46,.83-.83,.21-.37,.32-.82,.32-1.34s-.1-.98-.31-1.34c-.21-.37-.48-.64-.82-.82-.34-.18-.7-.27-1.09-.27s-.77,.09-1.1,.27c-.33,.18-.6,.45-.8,.82-.2,.37-.3,.82-.3,1.34s.1,.99,.29,1.36c.2,.37,.46,.64,.79,.82s.69,.27,1.08,.27,.76-.09,1.1-.28Z"/><path class="cls-1" d="M139.66,41.34c.27-.51,.65-.9,1.12-1.18,.48-.28,1.01-.42,1.6-.42,.51,0,.99,.12,1.43,.35,.44,.24,.78,.55,1.01,.93v-3.48h1.1v8.88h-1.1v-1.24c-.22,.39-.54,.71-.96,.97-.42,.25-.92,.38-1.49,.38s-1.11-.14-1.59-.43c-.48-.29-.85-.69-1.12-1.21-.27-.52-.41-1.11-.41-1.78s.14-1.26,.41-1.77Zm4.86,.49c-.2-.37-.47-.65-.81-.85s-.71-.29-1.12-.29-.78,.1-1.12,.29c-.34,.19-.6,.47-.8,.84s-.3,.8-.3,1.3,.1,.94,.3,1.31,.47,.66,.8,.85c.34,.2,.71,.29,1.12,.29s.78-.1,1.12-.29c.34-.2,.61-.48,.81-.85,.2-.37,.3-.81,.3-1.3s-.1-.93-.3-1.3Z"/><path class="cls-1" d="M148.97,46.11c-.5-.28-.89-.68-1.18-1.19-.28-.52-.43-1.11-.43-1.79s.15-1.27,.44-1.78,.69-.91,1.19-1.19,1.07-.41,1.69-.41,1.19,.14,1.69,.41,.9,.67,1.19,1.18c.29,.51,.44,1.11,.44,1.79s-.15,1.28-.45,1.79c-.3,.52-.71,.91-1.22,1.19-.51,.28-1.08,.42-1.7,.42s-1.17-.14-1.67-.42Zm2.78-.82c.34-.18,.62-.46,.83-.83,.21-.37,.32-.82,.32-1.34s-.1-.98-.31-1.34c-.21-.37-.48-.64-.82-.82-.34-.18-.7-.27-1.09-.27s-.77,.09-1.1,.27c-.33,.18-.6,.45-.8,.82-.2,.37-.3,.82-.3,1.34s.1,.99,.29,1.36c.2,.37,.46,.64,.79,.82s.69,.27,1.08,.27,.76-.09,1.1-.28Z"/><path class="cls-1" d="M5.63,55.74c.27-.51,.65-.9,1.13-1.18s1.04-.42,1.66-.42c.81,0,1.47,.2,2,.59,.52,.39,.87,.94,1.04,1.63h-1.18c-.11-.4-.33-.72-.65-.95-.32-.23-.73-.35-1.21-.35-.62,0-1.13,.21-1.51,.64-.38,.43-.58,1.03-.58,1.82s.19,1.4,.58,1.84c.38,.43,.89,.65,1.51,.65,.48,0,.88-.11,1.2-.34,.32-.22,.54-.54,.66-.96h1.18c-.18,.67-.53,1.21-1.06,1.61-.53,.4-1.19,.61-1.98,.61-.62,0-1.18-.14-1.66-.42-.48-.28-.86-.68-1.13-1.19-.27-.51-.41-1.11-.41-1.8s.14-1.27,.41-1.78Z"/><path class="cls-1" d="M18.75,54.25v6.58h-1.09v-.97c-.21,.34-.5,.6-.87,.79-.37,.19-.78,.28-1.23,.28-.51,0-.97-.11-1.38-.32s-.73-.53-.97-.95-.35-.94-.35-1.55v-3.85h1.08v3.71c0,.65,.16,1.15,.49,1.49s.78,.52,1.34,.52,1.04-.18,1.38-.54c.34-.36,.5-.88,.5-1.57v-3.61h1.09Z"/><path class="cls-1" d="M20.63,52.96c-.14-.14-.22-.32-.22-.53s.07-.38,.22-.53c.14-.14,.32-.22,.53-.22s.37,.07,.51,.22,.21,.32,.21,.53-.07,.38-.21,.53c-.14,.14-.31,.22-.51,.22s-.38-.07-.53-.22Zm1.06,1.28v6.58h-1.09v-6.58h1.09Z"/><path class="cls-1" d="M23.55,55.74c.27-.51,.65-.9,1.12-1.18,.48-.28,1.01-.42,1.6-.42,.51,0,.99,.12,1.43,.35,.44,.24,.78,.55,1.01,.93v-3.48h1.1v8.88h-1.1v-1.24c-.22,.39-.54,.71-.96,.97-.42,.25-.92,.38-1.49,.38s-1.11-.14-1.59-.43c-.48-.29-.85-.69-1.12-1.21-.27-.52-.41-1.11-.41-1.78s.14-1.26,.41-1.77Zm4.86,.49c-.2-.37-.47-.65-.81-.85-.34-.2-.71-.29-1.12-.29s-.78,.1-1.12,.29c-.34,.19-.6,.47-.8,.84-.2,.37-.3,.8-.3,1.3s.1,.94,.3,1.31,.47,.66,.8,.85c.34,.2,.71,.29,1.12,.29s.78-.1,1.12-.29c.34-.2,.61-.48,.81-.85,.2-.37,.3-.81,.3-1.3s-.1-.93-.3-1.3Z"/><path class="cls-1" d="M31.66,55.74c.27-.51,.65-.9,1.12-1.18,.48-.28,1.01-.42,1.59-.42s1.08,.12,1.5,.37c.42,.25,.74,.56,.95,.94v-1.2h1.1v6.58h-1.1v-1.22c-.22,.38-.54,.7-.97,.95-.43,.25-.93,.38-1.49,.38s-1.11-.14-1.58-.43-.84-.69-1.12-1.21c-.27-.52-.41-1.11-.41-1.78s.14-1.26,.41-1.77Zm4.86,.49c-.2-.37-.47-.65-.81-.85-.34-.2-.71-.29-1.12-.29s-.78,.1-1.12,.29c-.34,.19-.6,.47-.8,.84-.2,.37-.3,.8-.3,1.3s.1,.94,.3,1.31c.2,.37,.47,.66,.8,.85,.34,.2,.71,.29,1.12,.29s.78-.1,1.12-.29c.34-.2,.61-.48,.81-.85s.3-.81,.3-1.3-.1-.93-.3-1.3Z"/><path class="cls-1" d="M39.77,55.74c.27-.51,.65-.9,1.12-1.18,.48-.28,1.01-.42,1.6-.42,.51,0,.99,.12,1.43,.35,.44,.24,.78,.55,1.01,.93v-3.48h1.1v8.88h-1.1v-1.24c-.22,.39-.54,.71-.96,.97-.42,.25-.92,.38-1.49,.38s-1.11-.14-1.59-.43c-.48-.29-.85-.69-1.12-1.21-.27-.52-.41-1.11-.41-1.78s.14-1.26,.41-1.77Zm4.86,.49c-.2-.37-.47-.65-.81-.85-.34-.2-.71-.29-1.12-.29s-.78,.1-1.12,.29c-.34,.19-.6,.47-.8,.84-.2,.37-.3,.8-.3,1.3s.1,.94,.3,1.31,.47,.66,.8,.85c.34,.2,.71,.29,1.12,.29s.78-.1,1.12-.29c.34-.2,.61-.48,.81-.85,.2-.37,.3-.81,.3-1.3s-.1-.93-.3-1.3Z"/><path class="cls-1" d="M49.08,60.51c-.5-.28-.89-.68-1.18-1.19-.28-.52-.43-1.11-.43-1.79s.15-1.27,.44-1.78,.69-.91,1.19-1.19c.5-.28,1.07-.41,1.69-.41s1.19,.14,1.69,.41c.5,.28,.9,.67,1.19,1.18s.44,1.11,.44,1.79-.15,1.28-.45,1.79c-.3,.52-.71,.91-1.22,1.19-.51,.28-1.08,.42-1.7,.42s-1.17-.14-1.67-.42Zm2.78-.82c.34-.18,.62-.46,.83-.83s.32-.82,.32-1.34-.1-.98-.31-1.34c-.21-.37-.48-.64-.82-.82-.34-.18-.7-.27-1.09-.27s-.77,.09-1.1,.27c-.33,.18-.6,.45-.8,.82-.2,.37-.3,.82-.3,1.34s.1,.99,.29,1.36c.2,.37,.46,.64,.79,.82s.69,.27,1.08,.27,.76-.09,1.1-.28Z"/><path class="cls-1" d="M63.92,54.85c.5,.48,.74,1.18,.74,2.09v3.88h-1.08v-3.72c0-.66-.16-1.16-.49-1.51-.33-.35-.78-.52-1.34-.52s-1.03,.18-1.37,.54-.51,.88-.51,1.57v3.64h-1.09v-6.58h1.09v.94c.22-.34,.51-.6,.88-.78s.78-.28,1.23-.28c.8,0,1.45,.24,1.94,.73Z"/><path class="cls-1" d="M67.64,60.51c-.5-.28-.89-.68-1.18-1.19-.28-.52-.43-1.11-.43-1.79s.15-1.27,.44-1.78,.69-.91,1.19-1.19c.5-.28,1.07-.41,1.69-.41s1.19,.14,1.69,.41c.5,.28,.9,.67,1.19,1.18s.44,1.11,.44,1.79-.15,1.28-.45,1.79c-.3,.52-.71,.91-1.22,1.19-.51,.28-1.08,.42-1.7,.42s-1.17-.14-1.67-.42Zm2.78-.82c.34-.18,.62-.46,.83-.83s.32-.82,.32-1.34-.1-.98-.31-1.34c-.21-.37-.48-.64-.82-.82-.34-.18-.7-.27-1.09-.27s-.77,.09-1.1,.27c-.33,.18-.6,.45-.8,.82-.2,.37-.3,.82-.3,1.34s.1,.99,.29,1.36c.2,.37,.46,.64,.79,.82s.69,.27,1.08,.27,.76-.09,1.1-.28Z"/><path class="cls-1" d="M75.1,60.67c-.4-.17-.72-.41-.95-.72-.23-.31-.36-.66-.38-1.06h1.13c.03,.33,.19,.6,.46,.8,.28,.21,.64,.31,1.09,.31,.42,0,.74-.09,.98-.28,.24-.18,.36-.42,.36-.7s-.13-.5-.38-.64c-.26-.14-.65-.28-1.19-.41-.49-.13-.89-.26-1.19-.39-.31-.13-.57-.33-.79-.59-.22-.26-.33-.6-.33-1.03,0-.34,.1-.64,.3-.92,.2-.28,.48-.5,.85-.67,.37-.16,.79-.25,1.26-.25,.73,0,1.32,.18,1.76,.55,.45,.37,.69,.87,.72,1.51h-1.09c-.02-.34-.16-.62-.41-.83s-.59-.31-1.01-.31c-.39,0-.7,.08-.94,.25s-.35,.39-.35,.66c0,.22,.07,.39,.21,.53,.14,.14,.32,.25,.53,.34s.51,.18,.88,.28c.47,.13,.86,.25,1.15,.38s.55,.31,.76,.56,.32,.57,.33,.97c0,.36-.1,.68-.3,.97-.2,.29-.48,.51-.85,.68-.36,.16-.78,.25-1.25,.25-.5,0-.96-.09-1.36-.26Z"/><path class="cls-1" d="M85.66,54.52c.43-.25,.93-.38,1.49-.38s1.11,.14,1.59,.42c.48,.28,.85,.67,1.12,1.18,.27,.51,.41,1.1,.41,1.77s-.14,1.26-.41,1.78c-.27,.52-.65,.92-1.12,1.21-.48,.29-1.01,.43-1.59,.43s-1.05-.13-1.48-.38c-.43-.25-.75-.57-.98-.94v4.33h-1.09v-9.7h1.09v1.21c.22-.38,.54-.69,.97-.94Zm3.2,1.7c-.2-.37-.47-.65-.81-.84-.34-.19-.71-.29-1.12-.29s-.77,.1-1.11,.29c-.34,.2-.61,.48-.82,.85-.2,.37-.31,.8-.31,1.29s.1,.93,.31,1.3c.2,.37,.48,.66,.82,.85,.34,.2,.71,.29,1.11,.29s.78-.1,1.12-.29c.34-.2,.61-.48,.81-.85s.3-.81,.3-1.31-.1-.93-.3-1.3Z"/><path class="cls-1" d="M92.9,60.51c-.5-.28-.89-.68-1.18-1.19-.28-.52-.43-1.11-.43-1.79s.15-1.27,.44-1.78,.69-.91,1.19-1.19c.5-.28,1.07-.41,1.69-.41s1.19,.14,1.69,.41c.5,.28,.9,.67,1.19,1.18s.44,1.11,.44,1.79-.15,1.28-.45,1.79c-.3,.52-.71,.91-1.22,1.19-.51,.28-1.08,.42-1.7,.42s-1.17-.14-1.67-.42Zm2.78-.82c.34-.18,.62-.46,.83-.83s.32-.82,.32-1.34-.1-.98-.31-1.34c-.21-.37-.48-.64-.82-.82-.34-.18-.7-.27-1.09-.27s-.77,.09-1.1,.27c-.33,.18-.6,.45-.8,.82-.2,.37-.3,.82-.3,1.34s.1,.99,.29,1.36c.2,.37,.46,.64,.79,.82s.69,.27,1.08,.27,.76-.09,1.1-.28Z"/><path class="cls-1" d="M104.54,54.85c.5,.48,.74,1.18,.74,2.09v3.88h-1.08v-3.72c0-.66-.16-1.16-.49-1.51-.33-.35-.78-.52-1.34-.52s-1.03,.18-1.37,.54-.51,.88-.51,1.57v3.64h-1.09v-6.58h1.09v.94c.22-.34,.51-.6,.88-.78s.78-.28,1.23-.28c.8,0,1.45,.24,1.94,.73Z"/><path class="cls-1" d="M108.4,55.15v3.88c0,.32,.07,.55,.2,.68s.37,.2,.71,.2h.8v.92h-.98c-.61,0-1.06-.14-1.37-.42s-.46-.74-.46-1.38v-3.88h-.85v-.9h.85v-1.66h1.09v1.66h1.72v.9h-1.72Z"/><path class="cls-1" d="M112.63,60.51c-.5-.28-.89-.68-1.18-1.19-.28-.52-.43-1.11-.43-1.79s.15-1.27,.44-1.78,.69-.91,1.19-1.19c.5-.28,1.07-.41,1.69-.41s1.19,.14,1.69,.41c.5,.28,.9,.67,1.19,1.18s.44,1.11,.44,1.79-.15,1.28-.45,1.79c-.3,.52-.71,.91-1.22,1.19-.51,.28-1.08,.42-1.7,.42s-1.17-.14-1.67-.42Zm2.78-.82c.34-.18,.62-.46,.83-.83s.32-.82,.32-1.34-.1-.98-.31-1.34c-.21-.37-.48-.64-.82-.82-.34-.18-.7-.27-1.09-.27s-.77,.09-1.1,.27c-.33,.18-.6,.45-.8,.82-.2,.37-.3,.82-.3,1.34s.1,.99,.29,1.36c.2,.37,.46,.64,.79,.82s.69,.27,1.08,.27,.76-.09,1.1-.28Z"/><path class="cls-1" d="M120.09,60.67c-.4-.17-.72-.41-.95-.72-.23-.31-.36-.66-.38-1.06h1.13c.03,.33,.19,.6,.46,.8,.28,.21,.64,.31,1.09,.31,.42,0,.74-.09,.98-.28,.24-.18,.36-.42,.36-.7s-.13-.5-.38-.64c-.26-.14-.65-.28-1.19-.41-.49-.13-.89-.26-1.19-.39-.31-.13-.57-.33-.79-.59-.22-.26-.33-.6-.33-1.03,0-.34,.1-.64,.3-.92,.2-.28,.48-.5,.85-.67,.37-.16,.79-.25,1.26-.25,.73,0,1.32,.18,1.76,.55,.45,.37,.69,.87,.72,1.51h-1.09c-.02-.34-.16-.62-.41-.83s-.59-.31-1.01-.31c-.39,0-.7,.08-.94,.25s-.35,.39-.35,.66c0,.22,.07,.39,.21,.53,.14,.14,.32,.25,.53,.34s.51,.18,.88,.28c.47,.13,.86,.25,1.15,.38s.55,.31,.76,.56,.32,.57,.33,.97c0,.36-.1,.68-.3,.97-.2,.29-.48,.51-.85,.68-.36,.16-.78,.25-1.25,.25-.5,0-.96-.09-1.36-.26Z"/><path class="cls-1" d="M128.59,55.74c.27-.51,.65-.9,1.12-1.18,.48-.28,1.01-.42,1.6-.42,.51,0,.99,.12,1.43,.35,.44,.24,.78,.55,1.01,.93v-3.48h1.1v8.88h-1.1v-1.24c-.22,.39-.54,.71-.96,.97-.42,.25-.92,.38-1.49,.38s-1.11-.14-1.59-.43c-.48-.29-.85-.69-1.12-1.21-.27-.52-.41-1.11-.41-1.78s.14-1.26,.41-1.77Zm4.86,.49c-.2-.37-.47-.65-.81-.85-.34-.2-.71-.29-1.12-.29s-.78,.1-1.12,.29c-.34,.19-.6,.47-.8,.84-.2,.37-.3,.8-.3,1.3s.1,.94,.3,1.31,.47,.66,.8,.85c.34,.2,.71,.29,1.12,.29s.78-.1,1.12-.29c.34-.2,.61-.48,.81-.85,.2-.37,.3-.81,.3-1.3s-.1-.93-.3-1.3Z"/><path class="cls-1" d="M142.66,57.94h-5.26c.04,.65,.26,1.15,.67,1.52,.4,.36,.89,.55,1.47,.55,.47,0,.87-.11,1.18-.33,.32-.22,.54-.51,.67-.88h1.18c-.18,.63-.53,1.15-1.06,1.54-.53,.4-1.18,.59-1.97,.59-.62,0-1.18-.14-1.67-.42-.49-.28-.88-.68-1.16-1.19-.28-.52-.42-1.11-.42-1.79s.14-1.28,.41-1.79c.27-.51,.65-.91,1.15-1.18,.49-.28,1.06-.41,1.7-.41s1.18,.14,1.66,.41c.48,.27,.85,.65,1.11,1.12,.26,.48,.39,1.01,.39,1.61,0,.21-.01,.43-.04,.66Zm-1.37-1.96c-.18-.3-.43-.53-.75-.68-.32-.16-.67-.23-1.05-.23-.55,0-1.02,.18-1.41,.53-.39,.35-.61,.84-.67,1.46h4.15c0-.42-.09-.77-.28-1.07Z"/><path class="cls-1" d="M5.63,70.14c.27-.51,.65-.9,1.12-1.18,.48-.28,1.01-.42,1.6-.42,.51,0,.99,.12,1.43,.35,.44,.24,.78,.55,1.01,.93v-3.48h1.1v8.88h-1.1v-1.24c-.22,.39-.54,.71-.96,.97-.42,.25-.92,.38-1.49,.38s-1.11-.14-1.59-.43c-.48-.29-.85-.69-1.12-1.21-.27-.52-.41-1.11-.41-1.78s.14-1.26,.41-1.77Zm4.86,.49c-.2-.37-.47-.65-.81-.85-.34-.2-.71-.29-1.12-.29s-.78,.1-1.12,.29c-.34,.19-.6,.47-.8,.84-.2,.37-.3,.8-.3,1.3s.1,.94,.3,1.31,.47,.66,.8,.85c.34,.2,.71,.29,1.12,.29s.78-.1,1.12-.29c.34-.2,.61-.48,.81-.85,.2-.37,.3-.81,.3-1.3s-.1-.93-.3-1.3Z"/><path class="cls-1" d="M13.78,67.36c-.14-.14-.22-.32-.22-.53s.07-.38,.22-.53c.14-.14,.32-.22,.53-.22s.37,.07,.51,.22,.21,.32,.21,.53-.07,.38-.21,.53c-.14,.14-.31,.22-.51,.22s-.38-.07-.53-.22Zm1.06,1.28v6.58h-1.09v-6.58h1.09Z"/><path class="cls-1" d="M17.67,75.07c-.4-.17-.72-.41-.95-.72-.23-.31-.36-.66-.38-1.06h1.13c.03,.33,.19,.6,.46,.8,.28,.21,.64,.31,1.09,.31,.42,0,.74-.09,.98-.28,.24-.18,.36-.42,.36-.7s-.13-.5-.38-.64c-.26-.14-.65-.28-1.19-.41-.49-.13-.89-.26-1.19-.39-.31-.13-.57-.33-.79-.59-.22-.26-.33-.6-.33-1.03,0-.34,.1-.64,.3-.92,.2-.28,.48-.5,.85-.67,.37-.16,.79-.25,1.26-.25,.73,0,1.32,.18,1.76,.55,.45,.37,.69,.87,.72,1.51h-1.09c-.02-.34-.16-.62-.41-.83s-.59-.31-1.01-.31c-.39,0-.7,.08-.94,.25s-.35,.39-.35,.66c0,.22,.07,.39,.21,.53,.14,.14,.32,.25,.53,.34s.51,.18,.88,.28c.47,.13,.86,.25,1.15,.38s.55,.31,.76,.56,.32,.57,.33,.97c0,.36-.1,.68-.3,.97-.2,.29-.48,.51-.85,.68-.36,.16-.78,.25-1.25,.25-.5,0-.96-.09-1.36-.26Z"/><path class="cls-1" d="M24.29,69.55v3.88c0,.32,.07,.55,.2,.68,.14,.13,.37,.2,.71,.2h.8v.92h-.98c-.61,0-1.06-.14-1.37-.42-.3-.28-.46-.74-.46-1.38v-3.88h-.85v-.9h.85v-1.66h1.09v1.66h1.72v.9h-1.72Z"/><path class="cls-1" d="M27.37,67.36c-.14-.14-.22-.32-.22-.53s.07-.38,.22-.53c.14-.14,.32-.22,.53-.22s.37,.07,.51,.22c.14,.14,.21,.32,.21,.53s-.07,.38-.21,.53c-.14,.14-.31,.22-.51,.22s-.38-.07-.53-.22Zm1.06,1.28v6.58h-1.09v-6.58h1.09Z"/><path class="cls-1" d="M35.43,69.25c.5,.48,.74,1.18,.74,2.09v3.88h-1.08v-3.72c0-.66-.16-1.16-.49-1.51-.33-.35-.78-.52-1.34-.52s-1.03,.18-1.37,.54-.51,.88-.51,1.57v3.64h-1.09v-6.58h1.09v.94c.22-.34,.51-.6,.88-.78s.78-.28,1.23-.28c.8,0,1.45,.24,1.94,.73Z"/><path class="cls-1" d="M39.29,69.55v3.88c0,.32,.07,.55,.2,.68,.14,.13,.37,.2,.71,.2h.8v.92h-.98c-.61,0-1.06-.14-1.37-.42-.3-.28-.46-.74-.46-1.38v-3.88h-.85v-.9h.85v-1.66h1.09v1.66h1.72v.9h-1.72Z"/><path class="cls-1" d="M42.33,70.14c.27-.51,.65-.9,1.12-1.18,.48-.28,1.01-.42,1.59-.42s1.08,.12,1.5,.37,.74,.56,.95,.94v-1.2h1.1v6.58h-1.1v-1.22c-.22,.38-.54,.7-.97,.95-.43,.25-.93,.38-1.49,.38s-1.11-.14-1.58-.43c-.47-.29-.84-.69-1.12-1.21-.27-.52-.41-1.11-.41-1.78s.14-1.26,.41-1.77Zm4.86,.49c-.2-.37-.47-.65-.81-.85-.34-.2-.71-.29-1.12-.29s-.78,.1-1.12,.29c-.34,.19-.6,.47-.8,.84-.2,.37-.3,.8-.3,1.3s.1,.94,.3,1.31,.47,.66,.8,.85c.34,.2,.71,.29,1.12,.29s.78-.1,1.12-.29c.34-.2,.61-.48,.81-.85,.2-.37,.3-.81,.3-1.3s-.1-.93-.3-1.3Z"/><path class="cls-1" d="M51.41,75.07c-.4-.17-.72-.41-.95-.72-.23-.31-.36-.66-.38-1.06h1.13c.03,.33,.19,.6,.46,.8s.64,.31,1.09,.31c.42,0,.74-.09,.98-.28,.24-.18,.36-.42,.36-.7s-.13-.5-.38-.64c-.26-.14-.65-.28-1.19-.41-.49-.13-.89-.26-1.19-.39-.31-.13-.57-.33-.79-.59-.22-.26-.33-.6-.33-1.03,0-.34,.1-.64,.3-.92,.2-.28,.48-.5,.85-.67,.37-.16,.79-.25,1.26-.25,.73,0,1.32,.18,1.76,.55s.69,.87,.72,1.51h-1.09c-.02-.34-.16-.62-.41-.83s-.59-.31-1.01-.31c-.39,0-.7,.08-.94,.25-.23,.17-.35,.39-.35,.66,0,.22,.07,.39,.21,.53,.14,.14,.32,.25,.53,.34s.51,.18,.88,.28c.47,.13,.86,.25,1.15,.38s.55,.31,.76,.56,.32,.57,.33,.97c0,.36-.1,.68-.3,.97-.2,.29-.48,.51-.85,.68-.36,.16-.78,.25-1.25,.25-.5,0-.96-.09-1.36-.26Z"/><path class="cls-1" d="M59.91,70.14c.27-.51,.65-.9,1.12-1.18,.48-.28,1.01-.42,1.6-.42,.51,0,.99,.12,1.43,.35,.44,.24,.78,.55,1.01,.93v-3.48h1.1v8.88h-1.1v-1.24c-.22,.39-.54,.71-.96,.97-.42,.25-.92,.38-1.49,.38s-1.11-.14-1.59-.43c-.48-.29-.85-.69-1.12-1.21-.27-.52-.41-1.11-.41-1.78s.14-1.26,.41-1.77Zm4.86,.49c-.2-.37-.47-.65-.81-.85-.34-.2-.71-.29-1.12-.29s-.78,.1-1.12,.29c-.34,.19-.6,.47-.8,.84-.2,.37-.3,.8-.3,1.3s.1,.94,.3,1.31c.2,.37,.47,.66,.8,.85,.34,.2,.71,.29,1.12,.29s.78-.1,1.12-.29c.34-.2,.61-.48,.81-.85s.3-.81,.3-1.3-.1-.93-.3-1.3Z"/><path class="cls-1" d="M73.99,72.34h-5.26c.04,.65,.26,1.15,.67,1.52,.4,.36,.89,.55,1.47,.55,.47,0,.87-.11,1.18-.33,.32-.22,.54-.51,.67-.88h1.18c-.18,.63-.53,1.15-1.06,1.54-.53,.4-1.18,.59-1.97,.59-.62,0-1.18-.14-1.67-.42-.49-.28-.88-.68-1.16-1.19-.28-.52-.42-1.11-.42-1.79s.14-1.28,.41-1.79c.27-.51,.65-.91,1.15-1.18,.49-.28,1.06-.41,1.7-.41s1.18,.14,1.66,.41c.48,.27,.85,.65,1.11,1.12,.26,.48,.39,1.01,.39,1.61,0,.21-.01,.43-.04,.66Zm-1.37-1.96c-.18-.3-.43-.53-.75-.68-.32-.16-.67-.23-1.05-.23-.55,0-1.02,.18-1.41,.53-.39,.35-.61,.84-.67,1.46h4.15c0-.42-.09-.77-.28-1.07Z"/><path class="cls-1" d="M80.61,69.25c.5,.48,.74,1.18,.74,2.09v3.88h-1.08v-3.72c0-.66-.16-1.16-.49-1.51-.33-.35-.78-.52-1.34-.52s-1.03,.18-1.37,.54-.51,.88-.51,1.57v3.64h-1.09v-6.58h1.09v.94c.22-.34,.51-.6,.88-.78s.78-.28,1.23-.28c.8,0,1.45,.24,1.94,.73Z"/><path class="cls-1" d="M84.11,75.07c-.4-.17-.72-.41-.95-.72-.23-.31-.36-.66-.38-1.06h1.13c.03,.33,.19,.6,.46,.8,.28,.21,.64,.31,1.09,.31,.42,0,.74-.09,.98-.28,.24-.18,.36-.42,.36-.7s-.13-.5-.38-.64c-.26-.14-.65-.28-1.19-.41-.49-.13-.89-.26-1.19-.39-.31-.13-.57-.33-.79-.59-.22-.26-.33-.6-.33-1.03,0-.34,.1-.64,.3-.92,.2-.28,.48-.5,.85-.67,.37-.16,.79-.25,1.26-.25,.73,0,1.32,.18,1.76,.55,.45,.37,.69,.87,.72,1.51h-1.09c-.02-.34-.16-.62-.41-.83s-.59-.31-1.01-.31c-.39,0-.7,.08-.94,.25s-.35,.39-.35,.66c0,.22,.07,.39,.21,.53,.14,.14,.32,.25,.53,.34s.51,.18,.88,.28c.47,.13,.86,.25,1.15,.38s.55,.31,.76,.56,.32,.57,.33,.97c0,.36-.1,.68-.3,.97-.2,.29-.48,.51-.85,.68-.36,.16-.78,.25-1.25,.25-.5,0-.96-.09-1.36-.26Z"/><path class="cls-1" d="M89.44,67.36c-.14-.14-.22-.32-.22-.53s.07-.38,.22-.53c.14-.14,.32-.22,.53-.22s.37,.07,.51,.22c.14,.14,.21,.32,.21,.53s-.07,.38-.21,.53c-.14,.14-.31,.22-.51,.22s-.38-.07-.53-.22Zm1.06,1.28v6.58h-1.09v-6.58h1.09Z"/><path class="cls-1" d="M92.36,70.14c.27-.51,.65-.9,1.12-1.18,.48-.28,1.01-.42,1.6-.42,.51,0,.99,.12,1.43,.35,.44,.24,.78,.55,1.01,.93v-3.48h1.1v8.88h-1.1v-1.24c-.22,.39-.54,.71-.96,.97-.42,.25-.92,.38-1.49,.38s-1.11-.14-1.59-.43c-.48-.29-.85-.69-1.12-1.21-.27-.52-.41-1.11-.41-1.78s.14-1.26,.41-1.77Zm4.86,.49c-.2-.37-.47-.65-.81-.85-.34-.2-.71-.29-1.12-.29s-.78,.1-1.12,.29c-.34,.19-.6,.47-.8,.84-.2,.37-.3,.8-.3,1.3s.1,.94,.3,1.31c.2,.37,.47,.66,.8,.85,.34,.2,.71,.29,1.12,.29s.78-.1,1.12-.29c.34-.2,.61-.48,.81-.85s.3-.81,.3-1.3-.1-.93-.3-1.3Z"/><path class="cls-1" d="M100.47,70.14c.27-.51,.65-.9,1.12-1.18,.48-.28,1.01-.42,1.59-.42s1.08,.12,1.5,.37,.74,.56,.95,.94v-1.2h1.1v6.58h-1.1v-1.22c-.22,.38-.54,.7-.97,.95-.43,.25-.93,.38-1.49,.38s-1.11-.14-1.58-.43c-.47-.29-.84-.69-1.12-1.21-.27-.52-.41-1.11-.41-1.78s.14-1.26,.41-1.77Zm4.86,.49c-.2-.37-.47-.65-.81-.85-.34-.2-.71-.29-1.12-.29s-.78,.1-1.12,.29c-.34,.19-.6,.47-.8,.84-.2,.37-.3,.8-.3,1.3s.1,.94,.3,1.31,.47,.66,.8,.85c.34,.2,.71,.29,1.12,.29s.78-.1,1.12-.29c.34-.2,.61-.48,.81-.85,.2-.37,.3-.81,.3-1.3s-.1-.93-.3-1.3Z"/><path class="cls-1" d="M108.58,70.14c.27-.51,.65-.9,1.12-1.18,.48-.28,1.01-.42,1.6-.42,.51,0,.99,.12,1.43,.35,.44,.24,.78,.55,1.01,.93v-3.48h1.1v8.88h-1.1v-1.24c-.22,.39-.54,.71-.96,.97-.42,.25-.92,.38-1.49,.38s-1.11-.14-1.59-.43c-.48-.29-.85-.69-1.12-1.21-.27-.52-.41-1.11-.41-1.78s.14-1.26,.41-1.77Zm4.86,.49c-.2-.37-.47-.65-.81-.85-.34-.2-.71-.29-1.12-.29s-.78,.1-1.12,.29c-.34,.19-.6,.47-.8,.84-.2,.37-.3,.8-.3,1.3s.1,.94,.3,1.31c.2,.37,.47,.66,.8,.85,.34,.2,.71,.29,1.12,.29s.78-.1,1.12-.29c.34-.2,.61-.48,.81-.85s.3-.81,.3-1.3-.1-.93-.3-1.3Z"/><path class="cls-1" d="M122.66,72.34h-5.26c.04,.65,.26,1.15,.67,1.52,.4,.36,.89,.55,1.47,.55,.47,0,.87-.11,1.18-.33,.32-.22,.54-.51,.67-.88h1.18c-.18,.63-.53,1.15-1.06,1.54-.53,.4-1.18,.59-1.97,.59-.62,0-1.18-.14-1.67-.42-.49-.28-.88-.68-1.16-1.19-.28-.52-.42-1.11-.42-1.79s.14-1.28,.41-1.79c.27-.51,.65-.91,1.15-1.18,.49-.28,1.06-.41,1.7-.41s1.18,.14,1.66,.41c.48,.27,.85,.65,1.11,1.12,.26,.48,.39,1.01,.39,1.61,0,.21-.01,.43-.04,.66Zm-1.37-1.96c-.18-.3-.43-.53-.75-.68-.32-.16-.67-.23-1.05-.23-.55,0-1.02,.18-1.41,.53-.39,.35-.61,.84-.67,1.46h4.15c0-.42-.09-.77-.28-1.07Z"/><path class="cls-1" d="M125.1,75.07c-.4-.17-.72-.41-.95-.72-.23-.31-.36-.66-.38-1.06h1.13c.03,.33,.19,.6,.46,.8s.64,.31,1.09,.31c.42,0,.74-.09,.98-.28,.24-.18,.36-.42,.36-.7s-.13-.5-.38-.64c-.26-.14-.65-.28-1.19-.41-.49-.13-.89-.26-1.19-.39-.31-.13-.57-.33-.79-.59-.22-.26-.33-.6-.33-1.03,0-.34,.1-.64,.3-.92,.2-.28,.48-.5,.85-.67,.37-.16,.79-.25,1.26-.25,.73,0,1.32,.18,1.76,.55s.69,.87,.72,1.51h-1.09c-.02-.34-.16-.62-.41-.83s-.59-.31-1.01-.31c-.39,0-.7,.08-.94,.25-.23,.17-.35,.39-.35,.66,0,.22,.07,.39,.21,.53,.14,.14,.32,.25,.53,.34s.51,.18,.88,.28c.47,.13,.86,.25,1.15,.38s.55,.31,.76,.56,.32,.57,.33,.97c0,.36-.1,.68-.3,.97-.2,.29-.48,.51-.85,.68-.36,.16-.78,.25-1.25,.25-.5,0-.96-.09-1.36-.26Z"/><path class="cls-1" d="M6.97,83.95v3.88c0,.32,.07,.55,.2,.68,.14,.13,.37,.2,.71,.2h.8v.92h-.98c-.61,0-1.06-.14-1.37-.42-.3-.28-.46-.74-.46-1.38v-3.88h-.85v-.9h.85v-1.66h1.09v1.66h1.72v.9h-1.72Z"/><path class="cls-1" d="M15.97,86.74h-5.26c.04,.65,.26,1.15,.67,1.52,.4,.36,.89,.55,1.47,.55,.47,0,.87-.11,1.18-.33,.32-.22,.54-.51,.67-.88h1.18c-.18,.63-.53,1.15-1.06,1.54-.53,.4-1.18,.59-1.97,.59-.62,0-1.18-.14-1.67-.42-.49-.28-.88-.68-1.16-1.19-.28-.52-.42-1.11-.42-1.79s.14-1.28,.41-1.79c.27-.51,.65-.91,1.15-1.18,.49-.28,1.06-.41,1.7-.41s1.18,.14,1.66,.41c.48,.27,.85,.65,1.11,1.12,.26,.48,.39,1.01,.39,1.61,0,.21-.01,.43-.04,.66Zm-1.37-1.96c-.18-.3-.43-.53-.75-.68-.32-.16-.67-.23-1.05-.23-.55,0-1.02,.18-1.41,.53-.39,.35-.61,.84-.67,1.46h4.15c0-.42-.09-.77-.28-1.07Z"/><path class="cls-1" d="M17.44,84.54c.27-.51,.65-.9,1.13-1.18,.48-.28,1.04-.42,1.66-.42,.81,0,1.47,.2,2,.59,.52,.39,.87,.94,1.04,1.63h-1.18c-.11-.4-.33-.72-.65-.95-.32-.23-.73-.35-1.21-.35-.62,0-1.13,.21-1.51,.64-.38,.43-.58,1.03-.58,1.82s.19,1.4,.58,1.84c.38,.43,.89,.65,1.51,.65,.48,0,.88-.11,1.2-.34,.32-.22,.54-.54,.66-.96h1.18c-.18,.67-.53,1.21-1.06,1.61s-1.19,.61-1.98,.61c-.62,0-1.18-.14-1.66-.42-.48-.28-.86-.68-1.13-1.19-.27-.51-.41-1.11-.41-1.8s.14-1.27,.41-1.78Z"/><path class="cls-1" d="M29.87,83.65c.5,.48,.74,1.18,.74,2.09v3.88h-1.08v-3.72c0-.66-.16-1.16-.49-1.51-.33-.35-.78-.52-1.34-.52s-1.03,.18-1.37,.54-.51,.88-.51,1.57v3.64h-1.09v-6.58h1.09v.94c.22-.34,.51-.6,.88-.78s.78-.28,1.23-.28c.8,0,1.45,.24,1.94,.73Z"/><path class="cls-1" d="M33.6,89.31c-.5-.28-.89-.68-1.18-1.19-.28-.52-.43-1.11-.43-1.79s.15-1.27,.44-1.78,.69-.91,1.19-1.19c.5-.28,1.07-.41,1.69-.41s1.19,.14,1.69,.41c.5,.28,.9,.67,1.19,1.18s.44,1.11,.44,1.79-.15,1.28-.45,1.79c-.3,.52-.71,.91-1.22,1.19-.51,.28-1.08,.42-1.7,.42s-1.17-.14-1.67-.42Zm2.78-.82c.34-.18,.62-.46,.83-.83s.32-.82,.32-1.34-.1-.98-.31-1.34c-.21-.37-.48-.64-.82-.82-.34-.18-.7-.27-1.09-.27s-.77,.09-1.1,.27c-.33,.18-.6,.45-.8,.82-.2,.37-.3,.82-.3,1.34s.1,.99,.29,1.36c.2,.37,.46,.64,.79,.82s.69,.27,1.08,.27,.76-.09,1.1-.28Z"/><path class="cls-1" d="M41.18,80.74v8.88h-1.09v-8.88h1.09Z"/><path class="cls-1" d="M44.23,89.31c-.5-.28-.89-.68-1.18-1.19-.28-.52-.43-1.11-.43-1.79s.15-1.27,.44-1.78,.69-.91,1.19-1.19c.5-.28,1.07-.41,1.69-.41s1.19,.14,1.69,.41c.5,.28,.9,.67,1.19,1.18s.44,1.11,.44,1.79-.15,1.28-.45,1.79c-.3,.52-.71,.91-1.22,1.19-.51,.28-1.08,.42-1.7,.42s-1.17-.14-1.67-.42Zm2.78-.82c.34-.18,.62-.46,.83-.83s.32-.82,.32-1.34-.1-.98-.31-1.34c-.21-.37-.48-.64-.82-.82-.34-.18-.7-.27-1.09-.27s-.77,.09-1.1,.27c-.33,.18-.6,.45-.8,.82-.2,.37-.3,.82-.3,1.34s.1,.99,.29,1.36c.2,.37,.46,.64,.79,.82s.69,.27,1.08,.27,.76-.09,1.1-.28Zm.12-7.39l-2.56,1.37v-.82l2.56-1.5v.95Z"/><path class="cls-1" d="M54.92,83.31c.43,.25,.75,.56,.95,.94v-1.2h1.1v6.72c0,.6-.13,1.13-.38,1.6s-.62,.83-1.1,1.1c-.48,.26-1.03,.4-1.66,.4-.86,0-1.58-.2-2.16-.61s-.92-.96-1.02-1.67h1.08c.12,.4,.37,.72,.74,.97s.83,.37,1.36,.37c.6,0,1.09-.19,1.47-.56s.57-.9,.57-1.58v-1.38c-.22,.38-.54,.7-.96,.96-.42,.26-.92,.38-1.49,.38s-1.11-.14-1.59-.43c-.48-.29-.85-.69-1.12-1.21-.27-.52-.41-1.11-.41-1.78s.14-1.26,.41-1.77c.27-.51,.65-.9,1.12-1.18,.48-.28,1.01-.42,1.59-.42s1.07,.12,1.49,.37Zm.65,1.72c-.2-.37-.47-.65-.81-.85-.34-.2-.71-.29-1.12-.29s-.78,.1-1.12,.29c-.34,.19-.6,.47-.8,.84-.2,.37-.3,.8-.3,1.3s.1,.94,.3,1.31,.47,.66,.8,.85c.34,.2,.71,.29,1.12,.29s.78-.1,1.12-.29c.34-.2,.61-.48,.81-.85,.2-.37,.3-.81,.3-1.3s-.1-.93-.3-1.3Z"/><path class="cls-1" d="M58.87,81.76c-.14-.14-.22-.32-.22-.53s.07-.38,.22-.53c.14-.14,.32-.22,.53-.22s.37,.07,.51,.22,.21,.32,.21,.53-.07,.38-.21,.53c-.14,.14-.31,.22-.51,.22s-.38-.07-.53-.22Zm1.06,1.28v6.58h-1.09v-6.58h1.09Z"/><path class="cls-1" d="M61.78,84.54c.27-.51,.65-.9,1.13-1.18s1.04-.42,1.66-.42c.81,0,1.47,.2,2,.59,.52,.39,.87,.94,1.04,1.63h-1.18c-.11-.4-.33-.72-.65-.95-.32-.23-.73-.35-1.21-.35-.62,0-1.13,.21-1.51,.64-.38,.43-.58,1.03-.58,1.82s.19,1.4,.58,1.84c.38,.43,.89,.65,1.51,.65,.48,0,.88-.11,1.2-.34,.32-.22,.54-.54,.66-.96h1.18c-.18,.67-.53,1.21-1.06,1.61-.53,.4-1.19,.61-1.98,.61-.62,0-1.18-.14-1.66-.42-.48-.28-.86-.68-1.13-1.19-.27-.51-.41-1.11-.41-1.8s.14-1.27,.41-1.78Z"/><path class="cls-1" d="M69.07,84.54c.27-.51,.65-.9,1.12-1.18,.48-.28,1.01-.42,1.59-.42s1.08,.12,1.5,.37,.74,.56,.95,.94v-1.2h1.1v6.58h-1.1v-1.22c-.22,.38-.54,.7-.97,.95-.43,.25-.93,.38-1.49,.38s-1.11-.14-1.58-.43c-.47-.29-.84-.69-1.12-1.21-.27-.52-.41-1.11-.41-1.78s.14-1.26,.41-1.77Zm4.86,.49c-.2-.37-.47-.65-.81-.85-.34-.2-.71-.29-1.12-.29s-.78,.1-1.12,.29c-.34,.19-.6,.47-.8,.84-.2,.37-.3,.8-.3,1.3s.1,.94,.3,1.31,.47,.66,.8,.85c.34,.2,.71,.29,1.12,.29s.78-.1,1.12-.29c.34-.2,.61-.48,.81-.85,.2-.37,.3-.81,.3-1.3s-.1-.93-.3-1.3Z"/><path class="cls-1" d="M78.15,89.47c-.4-.17-.72-.41-.95-.72-.23-.31-.36-.66-.38-1.06h1.13c.03,.33,.19,.6,.46,.8s.64,.31,1.09,.31c.42,0,.74-.09,.98-.28,.24-.18,.36-.42,.36-.7s-.13-.5-.38-.64c-.26-.14-.65-.28-1.19-.41-.49-.13-.89-.26-1.19-.39-.31-.13-.57-.33-.79-.59-.22-.26-.33-.6-.33-1.03,0-.34,.1-.64,.3-.92,.2-.28,.48-.5,.85-.67,.37-.16,.79-.25,1.26-.25,.73,0,1.32,.18,1.76,.55s.69,.87,.72,1.51h-1.09c-.02-.34-.16-.62-.41-.83s-.59-.31-1.01-.31c-.39,0-.7,.08-.94,.25-.23,.17-.35,.39-.35,.66,0,.22,.07,.39,.21,.53,.14,.14,.32,.25,.53,.34s.51,.18,.88,.28c.47,.13,.86,.25,1.15,.38s.55,.31,.76,.56,.32,.57,.33,.97c0,.36-.1,.68-.3,.97-.2,.29-.48,.51-.85,.68-.36,.16-.78,.25-1.25,.25-.5,0-.96-.09-1.36-.26Z"/><path class="cls-1" d="M83.26,89.48c-.14-.14-.22-.32-.22-.53s.07-.38,.22-.53c.14-.14,.32-.22,.53-.22s.37,.07,.51,.22c.14,.14,.21,.32,.21,.53s-.07,.38-.21,.53c-.14,.14-.31,.22-.51,.22s-.38-.07-.53-.22Z"/></g></svg>