<?xml version="1.0" encoding="UTF-8"?><svg xmlns="http://www.w3.org/2000/svg" viewBox="0 0 500 500"><defs><style>.cls-1{fill:#fff;}.cls-2{fill:#fafafa;}.cls-3{opacity:.6;}.cls-4{fill:#f5f5f5;}.cls-5{fill:#455a64;}.cls-6{fill:#e0e0e0;}.cls-7{fill:#e8505b;}.cls-8{fill:#eb996e;}.cls-9{opacity:.3;}.cls-10{fill:#ffbe9d;}.cls-11{fill:#325586;}.cls-12{fill:#ebebeb;}.cls-13{fill:#606060;}.cls-14{fill:#263238;}.cls-15{isolation:isolate;opacity:.75;}</style></defs><g id="Background_Complete"><g><rect class="cls-12" x="89.69" y="202.26" width="94.4" height="180.14" rx="5.21" ry="5.21" transform="translate(-117.36 93.46) rotate(-26.88)"/><path class="cls-2" d="M97.81,247.25c1.72,3.4,.36,7.55-3.03,9.27-3.4,1.72-7.55,.36-9.27-3.04-1.72-3.4-.36-7.55,3.03-9.27,3.4-1.72,7.55-.36,9.27,3.04Z"/><path class="cls-2" d="M133.62,229.11c1.72,3.4,.36,7.55-3.04,9.27-3.4,1.72-7.55,.36-9.27-3.03-1.72-3.4-.36-7.55,3.04-9.27,3.4-1.72,7.55-.36,9.27,3.04Z"/><path class="cls-2" d="M114.68,280.54c1.72,3.4,.36,7.55-3.03,9.27-3.4,1.72-7.55,.36-9.27-3.04-1.72-3.4-.36-7.55,3.04-9.27,3.4-1.72,7.55-.36,9.27,3.04Z"/><path class="cls-2" d="M150.49,262.39c1.72,3.4,.36,7.55-3.04,9.27-3.4,1.72-7.55,.36-9.27-3.04-1.72-3.4-.36-7.55,3.04-9.27,3.4-1.72,7.55-.36,9.27,3.03Z"/><path class="cls-2" d="M131.55,313.82c1.72,3.4,.36,7.55-3.04,9.27-3.4,1.72-7.55,.36-9.27-3.03-1.72-3.4-.36-7.55,3.04-9.27,3.4-1.72,7.55-.36,9.27,3.03Z"/><path class="cls-2" d="M167.35,295.68c1.72,3.4,.36,7.55-3.04,9.27-3.4,1.72-7.55,.36-9.27-3.04-1.72-3.4-.36-7.55,3.04-9.27,3.4-1.72,7.55-.36,9.27,3.04Z"/><path class="cls-2" d="M148.42,347.11c1.72,3.4,.36,7.55-3.04,9.27-3.4,1.72-7.55,.36-9.27-3.04-1.72-3.4-.36-7.55,3.04-9.27,3.4-1.72,7.55-.36,9.27,3.04Z"/><path class="cls-2" d="M184.22,328.96c1.72,3.4,.36,7.55-3.04,9.27-3.4,1.72-7.55,.36-9.27-3.03-1.72-3.4-.36-7.55,3.03-9.27,3.4-1.72,7.55-.36,9.27,3.04Z"/><path class="cls-6" d="M93.63,244.1c.14,.05-.68,2.84-1.84,6.23-1.16,3.39-2.21,6.11-2.36,6.06-.14-.05,.68-2.84,1.84-6.23,1.16-3.39,2.21-6.11,2.36-6.06Z"/><path class="cls-6" d="M128.65,226.03c.14,.05-.68,2.84-1.84,6.23-1.16,3.39-2.21,6.11-2.36,6.06-.14-.05,.68-2.84,1.84-6.23,1.16-3.39,2.21-6.11,2.36-6.06Z"/><path class="cls-6" d="M110.84,277.34c.15,.04-.52,2.94-1.49,6.48-.97,3.54-1.87,6.38-2.02,6.34-.15-.04,.52-2.94,1.49-6.48,.97-3.54,1.87-6.38,2.02-6.34Z"/><path class="cls-6" d="M146.18,259.18c.15,.03-.38,2.85-1.19,6.28-.8,3.43-1.58,6.19-1.72,6.16-.15-.03,.38-2.85,1.19-6.28,.8-3.43,1.58-6.19,1.72-6.16Z"/><path class="cls-6" d="M126.57,310.64c.15,.04-.46,2.7-1.36,5.94-.9,3.24-1.75,5.83-1.89,5.79-.15-.04,.46-2.7,1.36-5.94,.9-3.24,1.74-5.83,1.89-5.79Z"/><path class="cls-6" d="M163.37,292.96c.14,.05-.68,2.7-1.83,5.9-1.16,3.21-2.21,5.77-2.35,5.72-.14-.05,.68-2.69,1.83-5.91,1.16-3.21,2.21-5.77,2.35-5.72Z"/><path class="cls-6" d="M144.53,344.27c.14,.05-.76,2.8-2.02,6.14-1.26,3.34-2.39,6.01-2.53,5.95-.14-.05,.76-2.8,2.02-6.14,1.26-3.34,2.39-6,2.53-5.95Z"/><path class="cls-6" d="M180.09,325.01c.15,.04-.5,3.12-1.45,6.89-.95,3.77-1.84,6.79-1.99,6.75-.15-.04,.5-3.12,1.45-6.89,.95-3.77,1.84-6.79,1.99-6.75Z"/><path class="cls-6" d="M197.1,346.25c.07,.14-10.88,5.82-24.45,12.7-13.58,6.88-24.64,12.35-24.7,12.21-.07-.13,10.88-5.82,24.46-12.7,13.57-6.88,24.63-12.35,24.7-12.21Z"/><path class="cls-6" d="M126.05,212.89c.07,.14-10.88,5.82-24.45,12.7-13.58,6.88-24.64,12.35-24.7,12.21-.07-.13,10.88-5.82,24.46-12.7,13.57-6.88,24.63-12.35,24.7-12.21Z"/><path class="cls-6" d="M103.2,232.25c-.07,.03-.14,.05-.2,.04-.03,0-.06-.01-.08-.02l-.03-.02h-.01v-.02h0l.49-.25h0c.04,.09-.03,.21-.17,.28-.13,.07-.28,.05-.32-.03h0l.49-.25h0v.07s0,.05-.02,.08c-.03,.05-.08,.1-.15,.13Z"/><path class="cls-6" d="M170.8,359.25c-.14,.07-15.5-29.99-34.32-67.12-18.83-37.15-33.97-67.31-33.84-67.38,.13-.07,15.5,29.98,34.33,67.13,18.82,37.14,33.97,67.3,33.84,67.37Z"/></g><g><path class="cls-4" d="M68.77,380.83c-.13,23.58-.22,61.66-.25,79.15-.01,5.16,4.16,9.35,9.32,9.37l64.41,.29c5.17,.02,9.38-4.15,9.4-9.31l.36-78.46c.05-11.47-9.21-20.82-20.68-20.87h0l.05-11.54-42.18-.19-.05,10.91h-.16c-11.21,.3-20.16,9.44-20.22,20.65Z"/><polygon class="cls-6" points="89.19 350.74 89.16 355.98 131.33 357.67 131.36 350.93 89.19 350.74"/><path class="cls-4" d="M87.37,333.27h46.06c1.65,0,2.99,1.34,2.99,2.99v16.02c0,1.07-.87,1.93-1.93,1.93h-48.18c-1.07,0-1.93-.87-1.93-1.93v-16.02c0-1.65,1.34-2.99,2.99-2.99Z" transform="translate(1.57 -.5) rotate(.26)"/><path class="cls-6" d="M90.99,354.2c-.31,0-.53-4.67-.51-10.42,.03-5.76,.3-10.42,.6-10.42,.31,0,.53,4.67,.51,10.42-.03,5.75-.3,10.42-.6,10.42Z"/><path class="cls-6" d="M96.55,354.22c-.31,0-.53-4.67-.51-10.42,.03-5.76,.3-10.42,.6-10.42s.53,4.67,.51,10.42c-.03,5.76-.3,10.42-.6,10.42Z"/><path class="cls-6" d="M102.11,354.25c-.31,0-.53-4.67-.51-10.42,.03-5.76,.3-10.42,.6-10.42,.31,0,.53,4.67,.51,10.42-.03,5.75-.3,10.42-.6,10.42Z"/><path class="cls-6" d="M107.66,354.27c-.31,0-.53-4.67-.51-10.42,.03-5.76,.3-10.42,.6-10.42,.31,0,.53,4.67,.51,10.42-.03,5.75-.3,10.42-.6,10.42Z"/><path class="cls-6" d="M113.22,354.3c-.31,0-.53-4.67-.51-10.42,.03-5.76,.3-10.42,.6-10.42,.31,0,.53,4.67,.51,10.42-.03,5.76-.3,10.42-.6,10.42Z"/><path class="cls-6" d="M118.78,354.32c-.31,0-.53-4.67-.51-10.42,.03-5.76,.3-10.42,.6-10.42,.31,0,.53,4.67,.51,10.42-.03,5.75-.3,10.42-.6,10.42Z"/><path class="cls-6" d="M124.34,354.35c-.31,0-.53-4.67-.51-10.42,.03-5.76,.3-10.42,.6-10.42,.31,0,.53,4.67,.51,10.42-.03,5.76-.3,10.42-.6,10.42Z"/><path class="cls-6" d="M129.9,354.37c-.31,0-.53-4.67-.51-10.42,.03-5.76,.3-10.42,.6-10.42,.31,0,.53,4.67,.51,10.42-.03,5.76-.3,10.42-.6,10.42Z"/><g><path class="cls-12" d="M81.89,392.38h57.47c.82,0,1.48,.66,1.48,1.48v37.01c0,.82-.66,1.48-1.48,1.48h-57.47c-.82,0-1.48-.66-1.48-1.48v-37.01c0-.82,.66-1.48,1.48-1.48Z" transform="translate(1.88 -.5) rotate(.26)"/><path class="cls-6" d="M136.71,429.73s-.03-.24-.04-.67c-.01-.5-.02-1.11-.04-1.86-.02-1.72-.05-4.06-.08-7.01-.03-6.1-.07-14.7-.12-25.16l.44,.44c-14.58-.04-33-.08-52.97-.13-.13,.12,1.05-1.04,.55-.55h0v2.3l-.02,2.29c0,1.52-.02,3.04-.02,4.54-.02,3-.03,5.96-.05,8.86-.04,5.8-.07,11.39-.11,16.71l-.51-.51c15.45,.17,28.6,.32,38.01,.42,4.61,.08,8.31,.14,10.96,.19,1.21,.03,2.19,.06,2.95,.07,.68,.02,1.04,.04,1.06,.06,.02,.02-.3,.04-.94,.06-.73,.01-1.67,.03-2.84,.05-2.63,.02-6.28,.05-10.85,.09-9.49,.02-22.76,.04-38.35,.08h-.51v-.51c.01-5.31,.03-10.9,.04-16.71,.01-2.9,.02-5.86,.03-8.86,0-1.5,.01-3.01,.02-4.54v-3.44l.02-.58v-.56h0c-.5,.48,.68-.69,.56-.57,19.97,.13,38.38,.26,52.97,.36h.44v.44c-.15,10.57-.27,19.26-.35,25.43-.06,2.91-.11,5.22-.14,6.91-.02,.72-.04,1.3-.06,1.78-.02,.4-.03,.59-.05,.58Z"/><path class="cls-6" d="M128.62,406.23c0,.31-8.06,.52-18,.47-9.94-.05-18-.33-18-.64,0-.31,8.06-.52,18-.47,9.94,.05,18,.33,18,.64Z"/><path class="cls-6" d="M128.59,412.35c0,.31-8.06,.52-18,.47-9.94-.05-18-.33-18-.64s8.06-.52,18-.47c9.94,.05,18,.33,18,.64Z"/><path class="cls-6" d="M128.57,418.23c0,.31-8.06,.52-18,.47-9.94-.05-18-.33-18-.64,0-.31,8.06-.52,18-.47,9.94,.05,18,.33,18,.64Z"/></g><path class="cls-6" d="M128.91,360.63c0,.31-8.8,.51-19.65,.46-10.85-.05-19.64-.34-19.64-.64,0-.31,8.8-.51,19.65-.46,10.85,.05,19.64,.34,19.64,.64Z"/><path class="cls-1" d="M72.01,455.45c-.08,0-.14-1.32-.19-3.71-.03-2.57-.06-5.99-.1-10.13-.04-8.55,0-20.36,.09-33.4,.07-6.51,.13-12.72,.18-18.39,.05-5.65,.62-10.9,2.5-14.88,1.83-3.98,4.59-6.46,6.72-7.6,1.07-.59,1.98-.85,2.59-1.03,.63-.13,.95-.17,.96-.13,.03,.11-1.31,.31-3.33,1.54-1.99,1.21-4.55,3.68-6.23,7.55-1.71,3.86-2.2,8.95-2.19,14.57-.03,5.67-.06,11.87-.1,18.39-.1,13.04-.25,24.85-.41,33.4-.1,4.13-.19,7.55-.25,10.12-.08,2.39-.17,3.71-.24,3.71Z"/><path class="cls-1" d="M148.68,466.68c-.03,.07-1.06-.26-2.89-.91-.91-.34-2.03-.74-3.35-1.13-1.32-.4-2.8-.93-4.48-1.34-3.33-.95-7.37-1.82-11.89-2.54-4.53-.65-9.55-1.11-14.83-1.16-5.28,0-10.31,.41-14.84,1.03-4.53,.68-8.57,1.52-11.91,2.44-1.69,.4-3.17,.91-4.49,1.3-1.33,.38-2.45,.77-3.36,1.1-1.84,.64-2.87,.96-2.9,.89-.03-.07,.95-.53,2.74-1.29,.89-.39,2-.84,3.32-1.28,1.31-.45,2.79-1.02,4.48-1.47,3.34-1.02,7.41-1.95,11.98-2.69,4.58-.68,9.65-1.13,15-1.13,5.34,.05,10.42,.54,14.98,1.26,4.56,.78,8.62,1.74,11.95,2.8,1.69,.46,3.16,1.05,4.47,1.51,1.31,.45,2.41,.91,3.31,1.31,1.79,.78,2.76,1.24,2.73,1.31Z"/></g><g><path class="cls-12" d="M396.58,228.51c-1.13-6.61-7.05-12.55-13.74-12.24-3.96,.18-7.62,2.42-10.19,5.44-1.12,1.32-1.89,2.28-2.5,3.26-.5-1.04-1.16-2.07-2.14-3.5-2.24-3.27-5.65-5.88-9.56-6.48-6.63-1.01-13.13,4.27-14.96,10.73-1.82,6.45,.27,13.51,4.02,19.07,3.75,5.56,10.09,12.77,21.31,15.97,7.57-1.33,17.45-8.56,21.77-13.69,4.31-5.14,7.14-11.93,6-18.54Z"/><path class="cls-2" d="M394.72,240.56s-.08,.01-.22,.01c-.17,0-.39,0-.65-.01-.61-.02-1.44-.05-2.49-.09-2.2-.1-5.32-.24-9.15-.41l.16-.11c-.97,2.92-2.1,6.33-3.34,10.07l-.2,.61-.18-.62c-1.38-4.75-2.92-10.07-4.55-15.68-.5-1.74-.99-3.44-1.48-5.11l.39,.06c-2.32,3.52-4.51,6.85-6.51,9.88l-.06,.1h-.11c-6.58-.39-12.13-.71-16.09-.93-1.93-.13-3.46-.22-4.55-.3-.5-.04-.9-.07-1.2-.09-.27-.02-.41-.04-.41-.05,0-.01,.14-.01,.42,0,.31,0,.71,.02,1.21,.03,1.09,.04,2.63,.11,4.56,.19,3.95,.19,9.51,.45,16.09,.77l-.17,.09c1.99-3.04,4.17-6.38,6.48-9.91l.26-.39,.13,.45c.48,1.67,.98,3.38,1.48,5.11,1.61,5.61,3.15,10.94,4.52,15.69h-.38c1.27-3.74,2.42-7.15,3.41-10.06l.04-.12h.12c3.83,.24,6.95,.43,9.14,.56,1.05,.07,1.88,.13,2.48,.17,.26,.02,.47,.04,.65,.06,.15,.02,.22,.03,.22,.03Z"/></g><g><path class="cls-6" d="M332.29,181.23s.13-.1,.39-.28c.28-.19,.67-.44,1.17-.77,.52-.32,1.16-.74,1.86-1.3,.71-.54,1.56-1.14,2.42-1.93,.44-.38,.9-.79,1.38-1.22,.46-.46,.93-.94,1.43-1.44,.51-.49,.99-1.05,1.49-1.64,.49-.59,1.05-1.16,1.52-1.84,2.04-2.59,4.06-5.81,5.7-9.63,1.65-3.81,2.88-8.25,3.32-13.12,.26-2.43,.18-4.96-.02-7.55-.28-2.59-.78-5.22-1.37-7.92-1.14-5.37-2.65-11.1-2.19-17.19,.45-6.08,2.88-12.03,6.1-17.53,3.25-5.49,7.01-10.6,11.71-14.46,2.34-1.92,4.91-3.49,7.63-4.57,2.71-1.09,5.52-1.7,8.27-2.06,5.52-.69,10.8-.38,15.7-.25,4.9,.15,9.48,.13,13.59-.55,4.11-.65,7.69-1.97,10.46-3.76,2.8-1.75,4.81-3.84,6.11-5.75,1.32-1.91,1.95-3.64,2.25-4.82,.32-1.18,.37-1.83,.41-1.82,0,0-.02,.65-.3,1.85-.27,1.2-.87,2.96-2.18,4.91-1.29,1.95-3.31,4.1-6.13,5.9-2.79,1.84-6.43,3.21-10.57,3.89-4.14,.71-8.76,.76-13.66,.63-4.91-.11-10.16-.39-15.62,.3-2.72,.36-5.48,.97-8.14,2.04-2.66,1.07-5.18,2.6-7.48,4.5-4.61,3.8-8.35,8.87-11.57,14.32-3.19,5.46-5.59,11.33-6.04,17.29-.46,5.97,1.02,11.66,2.15,17.04,.58,2.7,1.08,5.36,1.35,7.98,.2,2.62,.27,5.19,0,7.64-.46,4.92-1.73,9.4-3.42,13.23-1.68,3.85-3.74,7.07-5.82,9.67-.48,.68-1.05,1.25-1.55,1.84-.51,.58-1,1.14-1.52,1.63-.51,.5-.99,.98-1.46,1.43-.49,.42-.96,.82-1.41,1.2-.87,.78-1.73,1.37-2.46,1.9-.72,.55-1.36,.95-1.9,1.26-.51,.31-.91,.54-1.2,.72-.27,.16-.41,.24-.42,.23Z"/><path class="cls-6" d="M305.11,154.18s.06-.16,.2-.45c.16-.31,.37-.74,.64-1.29,.3-.56,.71-1.23,1.18-2.03,.53-.76,1.08-1.69,1.84-2.63,1.46-1.92,3.46-4.13,6.14-6.29,2.66-2.18,6.03-4.26,10.06-5.83,2.03-.76,4.21-1.4,6.54-1.82,2.33-.41,4.79-.61,7.32-.68,5.08-.15,10.49,.27,16.16-.07,2.83-.18,5.71-.61,8.55-1.45,2.84-.83,5.63-2.04,8.29-3.59,5.33-3.09,10.07-7.59,13.69-13.02,3.63-5.44,5.85-11.56,6.98-17.61,1.13-6.07,1.19-12.09,.48-17.71-.71-5.63-2.09-10.88-2.88-15.9-.82-5-1.03-9.82-.2-14.09,.85-4.26,2.51-7.89,4.4-10.75,1.89-2.87,3.96-5.04,5.8-6.6,1.85-1.56,3.47-2.52,4.56-3.17,.55-.28,.98-.49,1.29-.65,.29-.14,.45-.2,.45-.2,0,0-.14,.09-.42,.25-.31,.17-.72,.4-1.26,.7-1.07,.67-2.67,1.66-4.48,3.23-1.81,1.57-3.83,3.74-5.68,6.6-1.85,2.85-3.46,6.45-4.27,10.66-.79,4.21-.57,8.97,.27,13.94,.81,4.99,2.2,10.23,2.93,15.91,.72,5.67,.68,11.75-.46,17.88-1.14,6.11-3.37,12.31-7.06,17.82-3.67,5.5-8.47,10.06-13.88,13.19-2.7,1.57-5.53,2.79-8.42,3.63-2.88,.84-5.81,1.27-8.66,1.45-5.72,.33-11.13-.11-16.18,.02-2.52,.06-4.96,.24-7.26,.64-2.3,.41-4.46,1.03-6.47,1.77-4,1.54-7.36,3.57-10.01,5.71-2.67,2.12-4.68,4.29-6.16,6.18-.77,.92-1.34,1.83-1.88,2.58-.48,.79-.91,1.45-1.22,2-.29,.54-.52,.96-.69,1.27-.16,.28-.25,.42-.25,.42Z"/><path class="cls-6" d="M394.18,38.66s.57,.29,1.53,.89c.97,.6,2.35,1.51,4.03,2.67,3.36,2.32,7.88,5.7,12.61,9.77,4.72,4.07,8.74,8.04,11.54,11.02,1.4,1.49,2.5,2.72,3.24,3.59,.74,.87,1.14,1.36,1.11,1.38-.03,.03-.48-.42-1.27-1.24-.86-.89-2-2.05-3.37-3.46-2.86-2.9-6.91-6.81-11.62-10.87-4.71-4.05-9.18-7.47-12.47-9.87-1.59-1.15-2.91-2.09-3.92-2.82-.93-.66-1.43-1.04-1.41-1.07Z"/><path class="cls-6" d="M390.23,49.34s.43,.34,1.14,1.02c.78,.76,1.79,1.72,2.99,2.88,2.53,2.43,6.07,5.73,10.12,9.23,4.05,3.49,7.84,6.51,10.61,8.66,1.32,1.02,2.43,1.87,3.29,2.54,.78,.6,1.19,.95,1.17,.98-.02,.03-.48-.26-1.3-.8-.82-.54-1.98-1.36-3.4-2.4-2.84-2.07-6.68-5.05-10.74-8.55-4.06-3.51-7.57-6.86-10.03-9.37-1.23-1.25-2.21-2.28-2.87-3.01-.66-.73-1.01-1.14-.98-1.17Z"/><path class="cls-6" d="M391.55,62.45c.05-.06,1.04,.66,2.58,1.89,1.54,1.23,3.63,2.97,5.89,4.96,2.26,1.99,4.25,3.84,5.66,5.22,1.41,1.37,2.25,2.26,2.2,2.32-.05,.06-.99-.73-2.47-2.02-1.61-1.42-3.58-3.16-5.77-5.09-2.18-1.92-4.16-3.66-5.77-5.08-1.47-1.31-2.37-2.13-2.32-2.19Z"/><path class="cls-6" d="M381.62,78.19c.05-.06,.79,.5,1.95,1.43,1.34,1.07,2.87,2.29,4.55,3.63,1.7,1.33,3.25,2.53,4.6,3.58,1.18,.92,1.9,1.5,1.85,1.56-.04,.06-.84-.41-2.08-1.24-1.24-.84-2.92-2.05-4.71-3.46-1.79-1.41-3.36-2.76-4.46-3.77-1.1-1.01-1.75-1.68-1.7-1.74Z"/><path class="cls-6" d="M369.83,82.95c.06-.06,1.24,1.08,3.2,2.87,1.96,1.78,4.73,4.18,7.94,6.63,3.22,2.45,6.26,4.48,8.5,5.89,2.24,1.42,3.66,2.25,3.62,2.32-.02,.03-.39-.13-1.06-.47-.67-.33-1.61-.85-2.76-1.51-2.3-1.33-5.4-3.32-8.64-5.79-3.23-2.46-5.97-4.92-7.87-6.79-.95-.93-1.7-1.71-2.19-2.26-.5-.55-.76-.87-.73-.9Z"/><path class="cls-6" d="M362.35,91.91c.09-.12,5.92,4.18,13,9.62,7.09,5.44,12.75,9.94,12.66,10.07s-5.92-4.18-13-9.62c-7.09-5.44-12.75-9.94-12.66-10.07Z"/><path class="cls-6" d="M353.3,100.03s.43,.26,1.14,.82c.79,.63,1.79,1.43,2.98,2.37,2.52,2.01,6.01,4.76,9.94,7.7,3.93,2.95,7.55,5.53,10.18,7.39,1.24,.88,2.29,1.62,3.11,2.2,.73,.52,1.13,.83,1.11,.86-.02,.03-.46-.21-1.23-.68-.77-.47-1.87-1.17-3.22-2.06-2.69-1.77-6.35-4.31-10.29-7.26-3.93-2.95-7.4-5.76-9.85-7.85-1.23-1.04-2.21-1.9-2.87-2.51-.67-.61-1.02-.96-1-.99Z"/><path class="cls-6" d="M350.56,111.72c.09-.12,5.04,3.53,11.05,8.16,6.01,4.63,10.8,8.49,10.71,8.61-.09,.12-5.04-3.53-11.05-8.16-6.01-4.63-10.8-8.49-10.71-8.61Z"/><path class="cls-6" d="M347.95,123.91c.09-.13,2.97,1.64,6.43,3.96,3.47,2.32,6.21,4.3,6.12,4.43-.09,.13-2.97-1.64-6.43-3.96-3.47-2.32-6.21-4.3-6.12-4.43Z"/><path class="cls-6" d="M335.33,135.57c.04-.06,1.15,.55,2.89,1.64,1.74,1.09,4.1,2.65,6.65,4.47,2.54,1.82,4.78,3.56,6.37,4.86,1.59,1.3,2.53,2.15,2.48,2.21-.05,.06-1.08-.68-2.72-1.9-1.65-1.22-3.92-2.9-6.45-4.72-2.54-1.82-4.86-3.43-6.54-4.6-1.68-1.17-2.71-1.9-2.67-1.97Z"/><path class="cls-6" d="M324.31,135.78s.44,.25,1.16,.79c.73,.54,1.76,1.34,3.02,2.36,2.52,2.02,5.94,4.9,9.59,8.23,3.65,3.32,6.83,6.46,9.08,8.78,1.12,1.16,2.02,2.11,2.63,2.79,.61,.67,.93,1.06,.9,1.08-.03,.03-.4-.31-1.06-.93-.73-.71-1.65-1.6-2.75-2.66-2.32-2.25-5.54-5.33-9.18-8.65-3.64-3.31-7.01-6.24-9.46-8.34-1.16-.99-2.13-1.83-2.9-2.49-.68-.59-1.05-.93-1.02-.97Z"/><path class="cls-6" d="M315.06,143.98s.47,.28,1.25,.88c.78,.59,1.9,1.47,3.28,2.57,2.75,2.2,6.5,5.29,10.57,8.78,4.07,3.5,7.7,6.73,10.29,9.11,1.29,1.19,2.33,2.16,3.04,2.85,.71,.68,1.09,1.08,1.06,1.11-.03,.03-.45-.31-1.21-.94-.83-.71-1.89-1.62-3.16-2.71-2.74-2.37-6.37-5.51-10.39-8.98-4.04-3.44-7.7-6.55-10.46-8.9-1.27-1.09-2.33-2-3.16-2.71-.74-.65-1.14-1.02-1.12-1.05Z"/></g><g><path class="cls-4" d="M298.31,252.47c3.23,2.47,5.05,6.48,5.46,10.52,.41,4.04-.48,8.12-1.9,11.93-2.75,7.36-8.96,13.94-15.1,18.84-4.99-7.16-4.04-17.24-3.24-22.32,1.27-8.04,8.45-21.79,14.78-18.96"/><path class="cls-4" d="M291.07,308.11c.05-4.54,3-8.79,7.02-10.9,4.02-2.11,8.92-2.21,13.23-.78,1.99,.66,4.04,1.8,4.78,3.76,.7,1.83,.03,3.98-1.27,5.45-1.3,1.47-3.14,2.35-5.01,2.96-6.39,2.09-12.97,2.94-18.75-.49"/><path class="cls-6" d="M279.16,323.76c-.09-.05,.64-1.88,2.1-4.75,.73-1.44,1.82-3.07,3.21-4.69,1.39-1.6,2.89-3.39,4.75-5.05,3.67-3.33,7.85-5.32,11.01-6.04,1.58-.38,2.9-.47,3.8-.49,.91,.01,1.4,.06,1.4,.12,0,.16-2,.11-5.04,.97-3.03,.85-7.01,2.85-10.58,6.1-1.79,1.59-3.31,3.36-4.72,4.92-1.4,1.56-2.49,3.08-3.28,4.46-1.58,2.76-2.52,4.51-2.64,4.45Z"/><path class="cls-6" d="M293.77,263.42c.06,.01-.08,.94-.38,2.6-.3,1.66-.77,4.06-1.37,7.02-1.21,5.92-2.96,14.08-5.12,23.05-2.16,8.97-4.35,17.03-6.06,22.83-.85,2.9-1.57,5.24-2.1,6.84-.52,1.61-.84,2.49-.9,2.47-.06-.02,.15-.93,.57-2.57,.47-1.79,1.09-4.11,1.83-6.92,1.55-5.84,3.64-13.91,5.8-22.87,2.08-8.9,3.96-16.95,5.37-22.98,.67-2.82,1.22-5.17,1.64-6.96,.4-1.64,.65-2.54,.71-2.53Z"/><path class="cls-4" d="M280.72,308.62c-.48-9.56-5.91-18.73-14.05-23.75-2.07-1.28-4.85-2.27-6.82-.83-1.97,1.44-1.88,4.4-1.24,6.76,2.66,9.8,11.79,17.49,21.9,18.45"/><path class="cls-6" d="M267.47,291.96s.45,.23,1.16,.76c.72,.53,1.7,1.35,2.89,2.41,2.3,2.15,5.5,5.32,7.69,9.76,1.08,2.21,1.73,4.49,2,6.61,.28,2.12,.12,4.05-.1,5.63-.28,1.58-.59,2.83-.91,3.66-.3,.84-.49,1.29-.55,1.27-.17-.05,.48-1.91,.84-5.02,.13-1.55,.23-3.41-.08-5.44-.31-2.02-.95-4.2-1.99-6.33-2.1-4.27-5.15-7.45-7.33-9.69-2.23-2.22-3.7-3.51-3.61-3.62Z"/></g></g><g id="Floor"><path class="cls-14" d="M465.31,469.71c0,.14-97.75,.26-218.3,.26s-218.32-.12-218.32-.26,97.73-.26,218.32-.26,218.3,.12,218.3,.26Z"/></g><g id="Character"><g><g><g><path class="cls-11" d="M264.29,432.96l-1.36,22.08s21.99,8.79,22.13,12.9l-42.9-1.09,.7-34.49,21.42,.6Z"/><g class="cls-3"><path class="cls-1" d="M249.72,452.84c-.84,.21-1.43,1.12-1.26,1.97,.17,.84,1.1,1.46,1.94,1.27,.84-.19,1.59-1.27,1.33-2.09-.26-.82-1.4-1.48-2.16-1.1"/></g><g class="cls-3"><path class="cls-1" d="M242.16,466.84l.21-3.47,41.06,2.35s1.89,.88,1.64,2.22l-42.9-1.09Z"/></g><path class="cls-14" d="M263.64,454.83c-.01,.21-1.06,.28-2.11,.92-1.06,.62-1.62,1.51-1.81,1.43-.19-.05,.15-1.29,1.43-2.05,1.28-.77,2.54-.49,2.49-.3Z"/><path class="cls-14" d="M268.09,456.81c.04,.2-.87,.54-1.61,1.41-.76,.85-.96,1.8-1.17,1.79-.2,.03-.31-1.2,.62-2.26,.92-1.07,2.16-1.13,2.16-.93Z"/><path class="cls-14" d="M270.51,462.26c-.19,.04-.46-1.01,.11-2.15,.56-1.14,1.56-1.57,1.64-1.39,.11,.18-.54,.77-.99,1.71-.47,.93-.56,1.81-.76,1.82Z"/><path class="cls-14" d="M263.39,449.77c-.09,.19-1.05-.12-2.23-.07-1.19,.03-2.12,.4-2.22,.22-.12-.15,.8-.91,2.2-.95,1.4-.05,2.36,.64,2.26,.8Z"/></g><g class="cls-9"><polygon points="264.02 437.33 263.78 441.26 242.7 440.53 242.78 435.99 264.02 437.33"/></g><path class="cls-14" d="M263.58,445.31c0,.09-.83,.19-2.15-.07-.66-.13-1.43-.37-2.23-.75-.4-.19-.81-.42-1.22-.69-.19-.13-.43-.27-.64-.52-.23-.22-.34-.78-.07-1.12,.23-.32,.62-.46,.93-.46,.32,0,.57,.07,.8,.13,.47,.13,.92,.3,1.32,.49,.81,.39,1.46,.88,1.95,1.35,.97,.95,1.29,1.74,1.22,1.78-.1,.07-.56-.6-1.56-1.39-.5-.39-1.13-.8-1.89-1.13-.38-.16-.79-.3-1.22-.41-.45-.13-.84-.14-.96,.06-.04,.08-.05,.11,.04,.24,.1,.13,.28,.25,.47,.38,.37,.26,.75,.48,1.12,.68,.74,.39,1.45,.66,2.06,.85,1.22,.37,2.03,.45,2.02,.57Z"/><path class="cls-14" d="M263.3,445.6c-.07,.03-.47-.73-.51-2.09-.02-.67,.07-1.49,.35-2.34,.14-.43,.33-.86,.58-1.29,.26-.42,.58-.98,1.4-1.05,.42,0,.77,.34,.88,.62,.13,.29,.16,.54,.2,.79,.07,.5,.04,.99-.04,1.45-.16,.91-.55,1.66-.97,2.2-.87,1.09-1.75,1.32-1.76,1.25-.07-.11,.67-.49,1.34-1.54,.33-.52,.63-1.21,.73-2,.05-.4,.06-.82,0-1.24-.06-.46-.22-.83-.39-.79-.21,0-.58,.33-.77,.68-.23,.38-.42,.77-.56,1.15-.29,.77-.42,1.51-.47,2.13-.09,1.26,.11,2.05,0,2.08Z"/></g><path class="cls-14" d="M273.19,298.47l-34.11,10.96c.4,.3,6.33,38.64,6.33,38.64l-4.93,101.74,27.07,.33,12.11-106.73-6.47-44.94Z"/><g><g><g class="cls-15"><path class="cls-11" d="M225.58,432.87l-.69,22.11s22.24,8.12,22.51,12.22l-42.92,.21-.34-34.49,21.43-.05Z"/></g><g class="cls-3"><path class="cls-1" d="M211.62,453.19c-.83,.23-1.4,1.17-1.2,2.01,.2,.84,1.14,1.43,1.98,1.21,.83-.22,1.55-1.32,1.26-2.13-.29-.81-1.44-1.44-2.2-1.03"/></g><g class="cls-3"><path class="cls-1" d="M204.49,467.41l.1-3.48,41.11,1.1s1.91,.82,1.7,2.17l-42.92,.21Z"/></g><path class="cls-14" d="M225.59,454.76c0,.21-1.05,.31-2.08,.99-1.05,.65-1.57,1.56-1.77,1.48-.19-.04,.11-1.29,1.37-2.09,1.25-.81,2.52-.57,2.47-.37Z"/><path class="cls-14" d="M230.1,456.6c.05,.2-.86,.56-1.56,1.45-.73,.87-.91,1.83-1.12,1.82-.2,.03-.35-1.19,.55-2.28,.89-1.1,2.12-1.19,2.13-.99Z"/><path class="cls-14" d="M232.68,461.98c-.19,.05-.49-1,.05-2.15,.52-1.15,1.51-1.61,1.6-1.44,.12,.17-.51,.79-.94,1.74-.44,.94-.5,1.82-.71,1.85Z"/><path class="cls-14" d="M225.19,449.7c-.09,.19-1.05-.09-2.23,0-1.19,.06-2.11,.46-2.22,.28-.12-.15,.77-.93,2.17-1.01,1.39-.09,2.38,.57,2.28,.73Z"/></g><g class="cls-9"><polygon points="225.44 437.25 225.32 441.19 204.23 441.1 204.17 436.55 225.44 437.25"/></g><path class="cls-14" d="M225.24,445.24c0,.09-.82,.22-2.15,0-.66-.11-1.44-.32-2.25-.68-.41-.18-.82-.39-1.24-.65-.2-.13-.43-.25-.65-.5-.23-.22-.37-.77-.1-1.11,.22-.33,.61-.47,.92-.48,.32-.01,.57,.05,.81,.11,.48,.11,.93,.27,1.34,.45,.82,.37,1.49,.84,1.99,1.29,1,.92,1.34,1.7,1.27,1.74-.09,.07-.58-.58-1.6-1.34-.51-.38-1.15-.76-1.92-1.07-.38-.15-.8-.28-1.24-.37-.46-.12-.84-.12-.96,.08-.04,.08-.05,.11,.05,.24,.1,.12,.28,.24,.48,.37,.38,.25,.76,.46,1.14,.64,.75,.37,1.47,.62,2.08,.79,1.23,.34,2.04,.39,2.04,.5Z"/><path class="cls-14" d="M224.97,445.54c-.07,.03-.49-.72-.58-2.07-.04-.67,.03-1.49,.28-2.35,.13-.43,.31-.87,.54-1.31,.25-.43,.55-.99,1.37-1.09,.42-.02,.78,.31,.9,.59,.14,.29,.17,.54,.22,.79,.08,.5,.07,.99,0,1.45-.13,.91-.5,1.68-.91,2.22-.83,1.12-1.71,1.37-1.72,1.3-.07-.1,.66-.51,1.29-1.58,.31-.53,.59-1.22,.67-2.02,.04-.4,.03-.82-.05-1.24-.07-.46-.24-.82-.41-.78-.21,0-.57,.34-.75,.71-.22,.39-.39,.78-.53,1.17-.27,.78-.38,1.52-.41,2.15-.05,1.26,.17,2.04,.06,2.08Z"/></g><path class="cls-14" d="M198.12,303.91c0,7.69,3.04,150.54,3.04,150.54l25.69-2.29,5.25-87.77,2.76-7.65,3.22-47.29-39.96-5.53Z"/><g><path class="cls-12" d="M252.55,118.68c.35,.46,20.41,32.3,20.41,32.3l22.56-23.61,11.54,16.67s-24.13,34.06-27.67,35.29c-3.54,1.23-14.96-.71-14.96-.71l-15.93-21.03,4.04-38.9Z"/><path class="cls-14" d="M273.14,158.33c-.19,.01-.43-1.64-.43-3.67,0-2.02,.06-3.67,.26-3.68,.19-.01,.43,1.64,.43,3.67,0,2.02-.06,3.67-.26,3.68Z"/><path class="cls-12" d="M201.54,94.94l-3.47,8.55s-17.8,15.02-19.42,17.34c-1.62,2.31,12.71,77.2,12.71,77.2,0,0-.92,110.03,0,110.03s13.18,3.93,38.37,2.08c25.19-1.85,29.82-4.39,29.82-4.39l-7.86-97.31-12.02-65.41-20.63-26.58-17.5-21.5Z"/><path class="cls-7" d="M242.09,132.07s-2.63-12.7-2.42-13.09-5.93-15.39-5.93-15.39c0,0-2.06-6.86-2.06-6.84s-28.05-4.75-28.05-4.75l-1.36,4.24,37.41,47.26,3.83,20.29,3.96-5.53-5.38-26.19Z"/><path class="cls-12" d="M267.12,227.61l-6.09-73.21-4.99-28.57c-.67-5.69-4.49-11.44-4.49-11.44l-14.6-8.43s-3.95-4.86-4.17-5.57l6.89,17.61,2.42,14.07,1.5,32.29h0l7.96,43.33,7.78,95.32,16.92-3.3-9.13-72.1Z"/><polygon class="cls-12" points="244.19 142.32 247.47 118.3 236.95 105.96 232.78 100.38 239.24 118.98 244.19 142.32"/><g><polygon class="cls-13" points="227.57 187.15 253 150.98 297.25 164.37 263.77 207.66 222.22 194.15 227.57 187.15"/><path class="cls-14" d="M284.32,162.7c0,.6-.49,1.1-1.1,1.1s-1.1-.49-1.1-1.1,.49-1.1,1.1-1.1,1.1,.49,1.1,1.1Z"/><path class="cls-14" d="M266.63,157.76c0,.6-.49,1.1-1.1,1.1s-1.1-.49-1.1-1.1,.49-1.1,1.1-1.1,1.1,.49,1.1,1.1Z"/></g><g><path class="cls-14" d="M245.89,127.73c-.07,.02,.48,2.36,1.23,5.23,.75,2.87,1.41,5.18,1.48,5.16,.07-.02-.48-2.36-1.23-5.23-.75-2.87-1.41-5.18-1.48-5.16Z"/><g><g><path class="cls-6" d="M254.33,143.96c.19,1.08-.02,2.16-.4,3.05-.38,.89-1.34,1.91-2.29,2.1,0,0-2.27,.8-4.04-.86-1.6-1.51-2.86-5.19-2.53-7.64,.23-1.69,1.26-3.47,2.9-3.94,2.15-.61,3.91,.59,4.79,2.06"/><path class="cls-14" d="M252.76,138.73s-.16-.4-.68-.96c-.26-.28-.61-.59-1.09-.85-.47-.27-1.08-.47-1.77-.5-.34-.01-.71,.01-1.07,.1-.37,.08-.74,.22-1.09,.44-.69,.44-1.25,1.14-1.63,1.96-.39,.82-.58,1.78-.54,2.77,.03,.98,.22,1.98,.54,2.97,.5,1.51,1.2,2.97,2.36,3.92,.58,.46,1.28,.72,1.95,.81,.68,.08,1.33,.01,1.93-.17h-.01c.5-.11,.9-.38,1.24-.67,.33-.3,.6-.62,.81-.95,.42-.68,.57-1.35,.66-1.9,.08-.55,.06-.99,.03-1.28-.02-.15-.04-.26-.05-.33-.02-.07-.03-.11-.03-.11-.04,0,.12,.63-.07,1.71-.11,.53-.28,1.19-.69,1.82-.21,.31-.47,.62-.8,.9-.32,.27-.71,.52-1.15,.61h-.01c-1.1,.33-2.56,.26-3.65-.62-1.08-.89-1.78-2.32-2.26-3.8-.61-1.92-.8-3.96-.03-5.55,.36-.79,.89-1.46,1.53-1.88,.32-.21,.67-.35,1.01-.43,.35-.09,.69-.12,1.02-.12,.66,.01,1.24,.2,1.7,.44,.47,.24,.82,.54,1.09,.79,.53,.52,.72,.9,.75,.88Z"/></g><g><path class="cls-6" d="M255.51,143.76c.19,1.08-.02,2.16-.4,3.05-.38,.89-1.34,1.91-2.29,2.1,0,0-2.27,.8-4.04-.86-1.6-1.51-2.86-5.19-2.53-7.64,.23-1.69,1.26-3.47,2.9-3.94,2.15-.61,3.91,.59,4.79,2.06"/><path class="cls-14" d="M253.94,138.52s-.16-.4-.68-.96c-.26-.28-.61-.59-1.09-.85-.47-.27-1.08-.47-1.77-.5-.34-.01-.71,.01-1.07,.1-.37,.08-.74,.22-1.09,.44-.69,.44-1.25,1.14-1.63,1.96-.39,.82-.58,1.78-.54,2.77,.03,.98,.22,1.98,.54,2.97,.5,1.51,1.2,2.97,2.36,3.92,.58,.46,1.28,.72,1.95,.81,.68,.08,1.33,.01,1.93-.17h-.01c.5-.11,.9-.38,1.24-.67,.33-.3,.6-.62,.81-.95,.42-.68,.57-1.35,.66-1.9,.08-.55,.06-.99,.03-1.28-.02-.15-.04-.26-.05-.33-.02-.07-.03-.11-.03-.11-.04,0,.12,.63-.07,1.71-.11,.53-.28,1.19-.69,1.82-.21,.31-.47,.62-.8,.9-.32,.27-.71,.52-1.15,.61h-.01c-1.1,.33-2.56,.26-3.65-.62-1.08-.89-1.78-2.32-2.26-3.8-.61-1.92-.8-3.96-.03-5.55,.36-.79,.89-1.46,1.53-1.88,.32-.21,.66-.35,1.01-.43,.35-.09,.69-.12,1.02-.12,.66,.01,1.24,.2,1.7,.44,.47,.24,.82,.54,1.09,.79,.53,.52,.72,.9,.75,.88Z"/></g><g><path class="cls-6" d="M251.9,138.46c1.02-.49,2.32-.05,3.04,.83,.71,.88,.92,2.08,.83,3.21-.05,.57-.16,1.15-.44,1.66-.28,.51-.73,.93-1.28,1.1-.81,.24-1.69-.13-2.34-.67-1.05-.87-1.68-2.23-1.68-3.59,0-.91,.4-1.95,1.28-2.2"/><path class="cls-14" d="M251.3,138.8s-.07,0-.2,.05c-.12,.05-.3,.14-.49,.32-.37,.35-.71,1.07-.68,1.98,.01,.9,.32,1.99,1.09,2.93,.38,.46,.87,.89,1.48,1.16,.59,.27,1.38,.34,2.02-.04,.63-.37,1.01-1.01,1.19-1.63,.18-.64,.22-1.27,.19-1.86-.06-1.19-.54-2.26-1.26-2.84-.71-.59-1.5-.71-2-.64-.25,.02-.44,.1-.56,.14-.12,.06-.18,.09-.17,.1,.01,.03,.26-.12,.74-.14,.48-.03,1.21,.12,1.87,.68,.66,.56,1.1,1.57,1.14,2.71,.02,.57-.02,1.19-.19,1.78-.17,.59-.53,1.16-1.08,1.48-.55,.33-1.23,.28-1.78,.03-.56-.24-1.03-.64-1.39-1.08-.74-.88-1.05-1.92-1.09-2.78-.05-.87,.25-1.56,.57-1.91,.33-.36,.62-.41,.61-.44Z"/></g><path class="cls-14" d="M251.52,147.19s.05-.18,.17-.42c.11-.24,.35-.54,.7-.76,.35-.22,.72-.34,.99-.43,.27-.09,.44-.16,.43-.2,0-.03-.19-.03-.47,.01-.28,.05-.69,.14-1.08,.39-.4,.25-.65,.62-.73,.91-.09,.3-.03,.49,0,.49Z"/><path class="cls-14" d="M248.86,138.54s.12,.16,.4,.28c.27,.12,.69,.22,1.15,.18,.46-.04,.86-.19,1.11-.36,.25-.16,.37-.31,.35-.33-.04-.06-.63,.37-1.48,.43-.85,.07-1.5-.27-1.53-.2Z"/></g></g><g><g><path class="cls-14" d="M228.41,156.39c-1.34,.38-2.83-.6-4.13-.1-.97,.37-1.49,1.61-1.09,2.56s1.65,1.44,2.59,1.01c1.34-.61,1.63-2.51,2.89-3.27"/><path class="cls-14" d="M217.53,161.16c.4-.13,.8-.3,1.21-.51l-.22-.43c-1.56,.79-3.02,.97-4.35,.53-1.68-.56-3.13-2.06-4.31-4.45l-.05-.09c-.47-.95-7.02-20.46-8.22-24.18-1.88-5.81,2.96-8.25,3.17-8.35,.19-.1,4.58-2.38,9.09,3.17,4.72,5.81,12.98,17.27,13.74,18.69,.09,.17,.22,.38,.36,.63,1.05,1.78,3.23,5.49,1.31,8.66-2.14,3.53-4.81,3.29-4.92,3.28l-.05,.48c.13,.01,3.07,.29,5.38-3.51,2.07-3.41-.21-7.29-1.31-9.15-.14-.24-.26-.44-.35-.61-.76-1.42-9.06-12.94-13.79-18.76-4.77-5.87-9.63-3.32-9.68-3.29-.04,.02-5.42,2.72-3.4,8.93,.99,3.06,7.75,23.24,8.25,24.25l.04,.09c1.24,2.52,2.79,4.1,4.59,4.7,1.1,.37,2.28,.35,3.51-.05Z"/></g><path class="cls-14" d="M202.57,135.85c.07,0-.18-1.02,.21-2.59,.2-.78,.58-1.67,1.18-2.55,.6-.87,1.44-1.71,2.49-2.34,2.12-1.27,4.48-1.4,6.04-1.12,1.6,.27,2.46,.85,2.48,.79,0,0-.05-.04-.15-.11-.1-.06-.25-.16-.46-.25-.41-.21-1.03-.44-1.84-.6-.8-.16-1.79-.22-2.87-.07-1.08,.14-2.25,.5-3.33,1.15-1.08,.65-1.94,1.53-2.55,2.43-.61,.91-.97,1.83-1.16,2.63-.18,.8-.2,1.48-.15,1.93,0,.23,.05,.4,.07,.52,.02,.12,.04,.18,.05,.18Z"/></g><polygon class="cls-12" points="198.07 103.49 220.01 130.68 239.67 143.02 201.54 94.94 198.07 103.49"/><path class="cls-12" d="M178.65,120.83s-4.6,7.25-5.33,14.67c-.29,2.91,6.94,57.33,7.75,59.78,.82,2.45,10.41,8.57,13.26,9.79,2.86,1.22,37.75,12.85,52.03,12.65l3.06-26.93-36.73-6.12s-4.28-4.08-6.53-4.9l-3.06-29.99-4.49-24.08s-12.8-7.91-19.97-4.87Z"/><path class="cls-14" d="M261.19,153.43c-.19,.04-2.16-7.92-4.41-17.78-2.25-9.87-3.93-17.9-3.74-17.94,.19-.04,2.16,7.92,4.41,17.79,2.25,9.86,3.93,17.89,3.74,17.94Z"/><path class="cls-14" d="M201.3,147.12s.05,.19,.12,.56c.07,.4,.16,.95,.28,1.66,.24,1.5,.58,3.66,1.02,6.44,.87,5.64,2.12,13.79,3.68,23.95l-.15-.18c1.26,.51,2.33,1.33,3.42,2.17,1.08,.85,2.15,1.78,3.21,2.76l-.13-.07c10.53,1.74,23.02,3.79,36.74,6.06l.3,.05-.03,.3c-.95,8.42-1.97,17.5-3.04,26.93l-.03,.31h-.3c-6.64-.09-13.4-1.56-20.21-3.15-8.47-2.03-16.63-4.44-24.44-6.95-1.95-.64-3.88-1.27-5.79-1.95-1.94-.6-3.74-1.64-5.41-2.66-1.69-1.03-3.33-2.12-4.89-3.26-1.55-1.17-3.1-2.3-4.34-3.84-.32-.36-.56-.92-.62-1.37-.11-.48-.19-.94-.26-1.4-.15-.92-.3-1.83-.44-2.74-.27-1.82-.54-3.61-.8-5.38-.49-3.54-.97-6.97-1.43-10.29-.9-6.64-1.7-12.83-2.4-18.49-.7-5.66-1.31-10.78-1.77-15.28-.1-1.13-.23-2.21-.3-3.27-.06-1.03-.21-2.1-.02-3.06,.32-1.92,.75-3.65,1.24-5.17,.98-3.05,2.06-5.29,2.85-6.77,.39-.74,.73-1.29,.95-1.66,.23-.36,.37-.54,.37-.54,0,0-.1,.2-.31,.57-.21,.38-.52,.93-.89,1.68-.75,1.5-1.78,3.75-2.71,6.79-.47,1.52-.88,3.24-1.17,5.15-.17,.95-.02,1.92,.05,2.98,.08,1.05,.21,2.13,.32,3.26,.5,4.5,1.14,9.61,1.87,15.26,.76,5.65,1.59,11.83,2.49,18.47,.47,3.32,.96,6.75,1.46,10.28,.27,1.76,.54,3.55,.81,5.37,.15,.9,.3,1.81,.45,2.73,.08,.46,.15,.92,.26,1.35,.08,.47,.22,.8,.52,1.16,1.13,1.4,2.69,2.56,4.21,3.7,1.55,1.13,3.18,2.2,4.85,3.22,1.69,1.02,3.38,2,5.29,2.59,1.89,.67,3.82,1.3,5.77,1.93,7.8,2.49,15.95,4.89,24.4,6.92,6.78,1.59,13.53,3.05,20.04,3.14l-.33,.3c1.08-9.43,2.12-18.51,3.08-26.93l.26,.35c-13.71-2.31-26.19-4.41-36.72-6.18h-.08l-.06-.07c-1.04-.98-2.09-1.9-3.16-2.75-1.06-.83-2.14-1.65-3.28-2.11l-.13-.05-.02-.13c-1.47-10.18-2.65-18.34-3.47-23.99-.39-2.79-.69-4.95-.9-6.46-.09-.71-.16-1.27-.22-1.67-.05-.38-.05-.57-.05-.57Z"/><path class="cls-14" d="M199.13,139.03c-.09,.04-.7-1.23-1.69-3.27-1-2.02-2.39-4.85-4.59-7.48-2.19-2.62-4.89-4.31-7-5.01-2.12-.73-3.56-.64-3.55-.77,0-.04,.35-.1,1-.1,.64,0,1.58,.1,2.7,.41,2.24,.61,5.11,2.31,7.38,5.03,2.27,2.72,3.61,5.64,4.5,7.72,.88,2.1,1.33,3.44,1.25,3.47Z"/><path class="cls-14" d="M193.26,184.78c-.15-.08,1.98-2.67,5.73-4.09,3.74-1.46,7.05-.95,7-.79,0,.22-3.18,.04-6.75,1.44-3.58,1.35-5.84,3.61-5.98,3.44Z"/><path class="cls-14" d="M197.42,189.04c-.17-.02,.69-3.09,3.38-5.8,2.66-2.74,5.71-3.66,5.73-3.5,.09,.19-2.71,1.36-5.24,3.98-2.57,2.59-3.67,5.41-3.87,5.32Z"/><path class="cls-14" d="M239.67,143.02s-.55-.26-1.52-.83c-1.05-.63-2.43-1.46-4.13-2.48-3.59-2.22-8.5-5.24-14.18-8.76l-.05-.03-.04-.04c-2.05-2.53-4.28-5.28-6.59-8.14-6.07-7.52-11.51-14.33-15.28-19.1l-.09-.11,.05-.13c1.09-2.57,1.98-4.67,2.64-6.23,.3-.67,.54-1.22,.74-1.67,.18-.38,.28-.57,.3-.56,.02,0-.04,.22-.18,.61-.17,.46-.38,1.03-.63,1.72-.61,1.58-1.43,3.71-2.44,6.31l-.04-.24c3.87,4.69,9.38,11.45,15.45,18.97,2.31,2.87,4.53,5.63,6.57,8.16l-.08-.07c5.64,3.6,10.5,6.7,14.05,8.97,1.66,1.09,3.01,1.97,4.03,2.64,.93,.62,1.43,.98,1.41,1.01Z"/><path class="cls-14" d="M242.88,148.13s0-.63,.14-1.77c.16-1.25,.36-2.87,.61-4.82,.55-4.08,1.35-9.76,2.29-16.15l.04,.21c-.42-.77-.86-1.59-1.31-2.42-3.36-6.25-6.37-11.93-8.51-16.05-1.02-1.98-1.86-3.63-2.51-4.9-.58-1.16-.88-1.82-.84-1.84,.04-.02,.42,.59,1.07,1.71,.7,1.24,1.61,2.86,2.7,4.8,2.26,4.07,5.33,9.7,8.69,15.95,.45,.83,.89,1.65,1.3,2.43l.05,.1-.02,.11c-.96,6.38-1.84,12.05-2.51,16.12-.33,1.94-.61,3.54-.82,4.79-.21,1.12-.34,1.74-.38,1.73Z"/><path class="cls-14" d="M202.62,124.56l1.13-.69-1.14,.68c-1.77-2.93-3.6-5.95-4.94-9.21l-.24-.57c-1.34-3.24-2.86-6.91-2.22-10.46l.02-.09c.31-1.53,1.16-2.92,2.41-3.97l.37-.31h1.09v2.05l.23,.29c-.08,.07-.16,.14-.24,.22v.09h-.1c-.62,.62-1.03,1.38-1.18,2.17v.08c-.49,2.77,.86,6.04,2.05,8.92l.24,.57c1.26,3.07,3.04,6,4.76,8.84l-2.26,1.38Z"/><path class="cls-14" d="M251.03,205.22s.09,.34,.18,.99c.1,.72,.23,1.67,.39,2.86,.33,2.49,.76,6.09,1.26,10.54,1.01,8.91,2.27,21.23,3.43,34.86,1.15,13.63,1.97,25.99,2.47,34.94,.25,4.47,.43,8.1,.52,10.6,.04,1.2,.07,2.16,.1,2.88,.01,.66,.01,1.01-.01,1.01-.02,0-.07-.34-.13-1-.06-.72-.13-1.68-.23-2.88-.18-2.57-.43-6.17-.74-10.59-.62-8.94-1.52-21.29-2.67-34.91-1.15-13.62-2.34-25.94-3.23-34.86-.44-4.4-.79-7.99-1.05-10.56-.11-1.2-.2-2.15-.26-2.87-.05-.66-.07-1.01-.04-1.01Z"/><path class="cls-14" d="M234.05,236.27s-.29,.34-.9,.86c-.6,.52-1.5,1.25-2.62,2.13-2.24,1.75-5.4,4.12-9.19,6.31-1.9,1.08-3.77,2-5.52,2.72-1.77,.69-3.39,1.23-4.79,1.54-1.39,.33-2.54,.52-3.34,.57-.8,.07-1.24,.09-1.24,.04-.02-.13,1.74-.32,4.46-1.08,1.36-.37,2.95-.94,4.67-1.66,1.71-.75,3.55-1.66,5.42-2.73,3.74-2.16,6.92-4.46,9.24-6.1,2.31-1.66,3.75-2.68,3.81-2.6Z"/><path class="cls-14" d="M236.07,241.43s-.22,.41-.71,1.07c-.48,.67-1.26,1.58-2.29,2.65-2.04,2.14-5.23,4.79-9.23,6.92-4.01,2.13-7.99,3.29-10.9,3.79-1.46,.26-2.65,.39-3.48,.42-.83,.04-1.28,.04-1.29,0-.01-.12,1.81-.27,4.67-.89,2.85-.62,6.73-1.84,10.67-3.92,3.93-2.1,7.11-4.64,9.21-6.66,2.11-2.02,3.25-3.45,3.34-3.37Z"/><path class="cls-14" d="M207.78,256.75c-.19,.02-.51-1.6-.71-3.62-.21-2.02-.22-3.67-.03-3.69,.19-.02,.51,1.6,.71,3.62,.21,2.02,.22,3.67,.03,3.69Z"/></g><g><path class="cls-14" d="M204.61,81.34c-.94,.07-1.81-.65-2.28-1.54-.47-.89-.62-1.94-.76-2.96-.62-4.51-1.24-9.02-1.86-13.53-.53-3.82-1.05-7.67-.94-11.53,.12-3.86,1.66-7.27,3.4-10.62,2.04-3.92,10.29-10.85,24-6.96"/><g><g><path class="cls-10" d="M203.91,65.12c-.18-.07-7.32-2.02-6.96,5.22,.37,7.24,7.56,5.38,7.56,5.17,0-.21-.61-10.4-.61-10.4Z"/><path class="cls-8" d="M202.16,72.89s-.12,.09-.33,.2c-.2,.11-.56,.19-.94,.07-.78-.24-1.48-1.42-1.59-2.73-.05-.66,.05-1.29,.26-1.82,.19-.54,.52-.93,.9-1.02,.38-.11,.66,.11,.76,.31,.11,.2,.07,.34,.11,.36,.02,.02,.15-.13,.08-.43-.04-.14-.13-.31-.31-.44-.18-.13-.44-.19-.71-.15-.56,.07-1.03,.61-1.26,1.19-.26,.59-.39,1.3-.34,2.04,.12,1.46,.94,2.79,2,3.03,.52,.11,.93-.07,1.14-.25,.22-.19,.25-.35,.22-.37Z"/></g><g><path class="cls-10" d="M241.14,78.59c-.03-5.12-.95-15.66-1.9-25.18-1.02-10.25-9.73-17.99-20.02-17.8l-1.02,.02c-11.02,.85-16.45,10.68-15.3,21.67l1.55,35.05,26.28,14.42-.09-15.72s10.57-1.84,10.51-12.45Z"/><path class="cls-8" d="M230.65,91.03s-6.69,.67-13.89-3.67c0,0,3.34,7.69,13.89,6.54v-2.86Z"/><g><g><path class="cls-14" d="M235.74,60.35c.04,.8-.6,1.49-1.43,1.55-.83,.06-1.54-.54-1.59-1.34-.04-.8,.6-1.49,1.43-1.55,.83-.06,1.54,.54,1.59,1.34Z"/><path class="cls-14" d="M237.21,58.07c-.18,.2-1.35-.63-2.98-.59-1.63,.01-2.81,.87-2.99,.67-.09-.09,.1-.45,.61-.84,.51-.39,1.37-.77,2.39-.78,1.01-.01,1.88,.34,2.37,.72,.51,.38,.68,.73,.59,.82Z"/></g><g><path class="cls-14" d="M219.9,60.68c.04,.8-.6,1.49-1.43,1.55-.83,.06-1.54-.54-1.59-1.34-.04-.8,.6-1.49,1.43-1.55,.83-.06,1.54,.54,1.59,1.34Z"/><path class="cls-14" d="M220.97,57.92c-.16,.22-1.41-.48-3.02-.27-1.62,.19-2.7,1.17-2.9,.99-.1-.08,.05-.45,.52-.9,.46-.44,1.28-.91,2.29-1.04,1.01-.12,1.9,.14,2.44,.46,.54,.32,.76,.65,.68,.75Z"/></g><path class="cls-14" d="M227.19,71.2c0-.09,1-.29,2.64-.53,.42-.05,.81-.14,.87-.43,.09-.3-.09-.75-.3-1.23-.41-1-.84-2.05-1.29-3.14-1.79-4.48-3.1-8.16-2.92-8.23,.18-.07,1.78,3.5,3.57,7.98,.43,1.1,.84,2.16,1.24,3.16,.17,.47,.45,1,.25,1.63-.11,.31-.41,.54-.67,.62-.27,.09-.5,.1-.7,.11-1.65,.12-2.67,.15-2.68,.05Z"/><path class="cls-14" d="M222.42,72.42c.26-.02,.3,1.75,1.84,2.97,1.53,1.23,3.41,1,3.43,1.24,.03,.11-.41,.35-1.21,.39-.78,.04-1.92-.19-2.86-.94-.94-.75-1.35-1.77-1.43-2.5-.08-.74,.11-1.18,.23-1.17Z"/></g><path class="cls-14" d="M221.06,50.88c-.15,.45-1.78,.27-3.69,.53-1.91,.23-3.44,.82-3.7,.42-.12-.19,.14-.61,.76-1.05,.61-.44,1.59-.86,2.73-1.01,1.15-.15,2.2,.02,2.9,.29,.71,.27,1.07,.61,1,.82Z"/><path class="cls-14" d="M236.37,53.93c-.28,.38-1.41,.01-2.76,.02-1.35-.04-2.49,.29-2.76-.09-.12-.19,.05-.56,.55-.92,.49-.36,1.3-.66,2.23-.65,.93,.01,1.74,.33,2.21,.7,.48,.37,.65,.75,.52,.93Z"/><path class="cls-14" d="M226.97,34.48c-3.75-1.48-7.54-.7-11.53-.11-3.16,.46-5.91,1.48-8.48,3.37-4.03,2.98-6.03,7.71-6.24,12.72-.21,5,.31,9.44,1.57,14.28l.39-.09c-.24,1.22-.48,2.52-.06,3.69s1.78,2.1,2.92,1.6c1.33-.58,1.38-2.42,1.26-3.87-.41-4.95-.34-9.76-.06-14.71,.21-3.66,2.3-8.15,5.15-9.88,5.2-3.46,11.97-.64,14.27-.23,3.52-3.02,6.82-.66,8.97,1.96-.79-3.95-4.43-7.24-8.18-8.72Z"/></g></g><path class="cls-14" d="M226.18,41.23c2.32,.02,4.17-1.56,6.76-1.14,1.56,.26,3.13,2.8,4.5,5.98,1.55-.94,2.44-2.86,2.15-4.66-.29-1.79-1.74-3.34-3.5-3.75,.65,.35,1.33,.7,2.06,.67,.73-.03,1.5-.6,1.46-1.33-.03-.53-.45-.95-.87-1.28-2.32-1.85-5.39-2.74-8.35-2.4-2.95,.34-5.75,1.89-7.59,4.23"/><path class="cls-5" d="M238.13,36.85c-.07,.09-.75-.4-2-.79-1.23-.4-3.1-.61-4.97,.03-1.87,.65-3.2,1.98-3.92,3.05-.74,1.08-.97,1.89-1.08,1.86-.07-.01-.01-.89,.67-2.12,.66-1.21,2.05-2.73,4.11-3.45,2.06-.71,4.1-.38,5.36,.16,1.29,.54,1.89,1.2,1.84,1.25Z"/><path class="cls-5" d="M237.64,44.83c-.12-.03,.33-.97,.02-2.46-.16-.73-.51-1.58-1.16-2.31-.64-.74-1.6-1.32-2.7-1.62-2.25-.62-4.37,.18-5.65,.98-1.31,.81-1.96,1.56-2.04,1.49-.06-.04,.46-.92,1.77-1.89,.66-.47,1.52-.95,2.57-1.23,1.05-.29,2.29-.33,3.52,0,1.22,.33,2.3,1.01,3,1.87,.71,.86,1.05,1.83,1.16,2.64,.21,1.68-.45,2.6-.5,2.55Z"/><path class="cls-5" d="M199.93,62.28s-.15-.33-.28-.97c-.12-.63-.23-1.57-.24-2.73-.03-2.31,.5-5.58,2.2-8.73,1.7-3.15,4.16-5.38,6.1-6.62,.97-.63,1.82-1.05,2.41-1.29,.6-.25,.94-.34,.96-.3,.05,.11-1.26,.66-3.1,1.99-1.83,1.31-4.13,3.52-5.77,6.55-1.64,3.03-2.22,6.17-2.32,8.41-.11,2.26,.15,3.67,.03,3.68Z"/><path class="cls-5" d="M201.55,63.61c-.15,.06-.86-3.66,.59-7.96,1.41-4.32,4.21-6.87,4.3-6.73,.18,.13-2.29,2.8-3.64,6.94-1.41,4.13-1.03,7.74-1.25,7.74Z"/></g><g><path class="cls-10" d="M321.34,124.2c-.31-.81-1.84-.99-1.84-.99l.31-.46c.44-.66,.5-1.5,.15-2.21-.05-.11-.11-.22-.18-.33-.5-.85-1.77-1.27-1.77-1.27,0,0,1.12-1.53,.85-2.28-.36-1-2.04-2.27-3.46-2.03-1.54,.26-4.88,1.29-7.21,2.15-.92,.34-1.92-.22-2.12-1.18-.38-1.83-1.1-4.64-2.32-6.68-1.32-2.21-2.88-2.3-3.82-2.09-.45,.1-.71,.58-.53,1.01,.5,1.22,1.48,3.66,1.69,4.66,.25,1.19-.61,9.81-.61,9.81l-4.37,5.89,9.92,14.33,4.36-6.48,9.36-4.13s1.77-2.23,1.58-2.99c-.19-.76-.92-1.24-.92-1.24l1.16-1.63s.08-1.05-.23-1.86Z"/><path class="cls-8" d="M318.86,119.12s-.06,.05-.19,.13c-.15,.09-.34,.2-.58,.33-.53,.29-1.25,.69-2.14,1.18-.91,.5-1.99,1.08-3.18,1.73-.61,.31-1.21,.69-1.91,.98-.69,.28-1.58,.41-2.31-.06-.36-.23-.6-.6-.7-.99-.11-.39-.1-.8-.02-1.17,.16-.77,.68-1.36,1.21-1.8,.54-.44,1.1-.77,1.62-1.08l1.45-.86c.87-.51,1.58-.93,2.1-1.24,.23-.13,.42-.24,.58-.33,.13-.07,.21-.11,.21-.1,0,0-.06,.05-.19,.14-.15,.1-.33,.22-.56,.36-.51,.32-1.21,.76-2.07,1.3-.44,.27-.92,.57-1.43,.89-.51,.32-1.07,.65-1.59,1.08-.5,.43-.98,.99-1.12,1.69-.16,.68,0,1.52,.63,1.93,.31,.2,.68,.28,1.05,.27,.37,0,.72-.1,1.06-.23,.67-.27,1.29-.65,1.9-.96,1.2-.63,2.28-1.2,3.2-1.69,.89-.46,1.63-.84,2.17-1.12,.24-.12,.44-.22,.59-.29,.14-.07,.21-.1,.21-.09Z"/><path class="cls-8" d="M320.12,123.43s-.15,.11-.45,.27c-.29,.16-.72,.38-1.26,.64-1.07,.52-2.57,1.21-4.26,1.88-.42,.17-.83,.34-1.26,.45-.42,.11-.87,.15-1.27,.04-.82-.23-1.31-.93-1.4-1.54-.09-.62,.13-1.11,.33-1.38,.1-.14,.2-.23,.26-.29,.07-.05,.11-.08,.11-.07,.01,.01-.13,.13-.31,.41-.16,.27-.35,.74-.25,1.31,.1,.55,.57,1.18,1.3,1.37,.36,.09,.77,.06,1.17-.05,.4-.11,.81-.28,1.23-.45,1.69-.67,3.19-1.33,4.28-1.82,.51-.23,.94-.42,1.29-.58,.3-.13,.48-.2,.48-.19Z"/><path class="cls-8" d="M320.62,127.51s-.16,.08-.45,.18c-.34,.11-.75,.24-1.24,.4-1.05,.33-2.51,.77-4.12,1.24-.4,.11-.8,.25-1.2,.31-.4,.07-.82,.06-1.18-.09-.36-.14-.66-.42-.77-.76-.12-.33-.08-.67,0-.94,.2-.56,.6-.84,.85-1.01,.27-.16,.43-.22,.44-.2,0,.02-.14,.09-.39,.28-.23,.18-.6,.48-.75,.99-.07,.25-.09,.55,.01,.83,.1,.28,.35,.51,.67,.63,.32,.12,.69,.13,1.07,.06,.38-.07,.77-.2,1.17-.31,1.61-.47,3.08-.89,4.14-1.18,.5-.13,.92-.24,1.26-.33,.3-.07,.47-.11,.47-.09Z"/><path class="cls-8" d="M320.67,131.24s-.54,.08-1.41,.14c-.87,.06-2.08,.13-3.41,.19-.33,.01-.66,.03-.97,.04-.31,.01-.63,.03-.93-.03-.3-.06-.58-.2-.76-.41-.19-.21-.25-.5-.2-.74,.11-.47,.45-.71,.66-.82,.23-.11,.37-.11,.37-.1,0,.02-.13,.05-.33,.17-.19,.12-.48,.37-.55,.78-.03,.2,.02,.42,.18,.59,.16,.17,.4,.29,.66,.34,.27,.05,.57,.03,.88,.02,.31-.01,.64-.03,.97-.05,1.33-.06,2.54-.1,3.41-.12,.87-.02,1.41-.02,1.42,.01Z"/><path class="cls-8" d="M311.7,128.07c-.03,.06-1.02-.48-2.38-.62-1.36-.16-2.45,.17-2.46,.1-.03-.04,1.07-.47,2.49-.31,1.41,.15,2.4,.8,2.36,.84Z"/></g><path class="cls-10" d="M249.24,192.37l2.05-.54s.73-3.45,1.63-4.18,10-4.87,12-5.96c2-1.09,9.81-4.65,10.79-2.76,1.11,2.14-2.07,3.9-3.79,4.72-1.72,.82-6.65,2.73-5.65,3.91s12,.65,12,.65l1.38-1.85s2.42,2.29,2.15,4.29c-.27,2-1.09,3.27-1.09,3.27h-.82s.82,1.18,.09,2.36-2.18,2.72-2.18,2.72c0,0-1.29,2.72-5.17,3.78-.45,.12-18.62,1.7-18.62,1.7l-6.08,.61,1.31-12.73Z"/></g></g></svg>