<?xml version="1.0" encoding="UTF-8"?><svg id="_Layer_" xmlns="http://www.w3.org/2000/svg" viewBox="0 0 3000 2000"><defs><style>.cls-1{fill:#ff6760;}.cls-2{fill:#d14646;}.cls-3{fill:#fff;}.cls-4{fill:#c5d9f9;}.cls-5{fill:#2537d8;}.cls-6{fill:#1752ba;}.cls-7{fill:#bdd1f9;}.cls-8{fill:#db3d44;}.cls-9{fill:#bbcff8;}.cls-10{fill:#131375;}.cls-11{fill:#6c7aff;}.cls-12{fill:#6c7afd;}.cls-13{fill:#f8faff;}.cls-14{fill:#ffa0a0;}.cls-15{fill:#6192e6;}.cls-16{fill:#dde7fe;}.cls-17{fill:#91b5f8;}.cls-18{fill:#8fb3f6;}.cls-19{fill:#0f0f51;}.cls-20{fill:#7798f8;}.cls-21{fill:#474fe8;}</style></defs><path class="cls-16" d="M2564.24,1728.19c-73.26,8.94-2143.66,11.32-2143.66,11.32-193.31-93.04-186.93-327.43-87.29-456.94,137.73-179.04,193.63-210.4,193.63-514.09,0-460.71,354.97-357.89,568.22-454.85,742.49-337.6,531.69,162.6,1027.01,165.33,570.8,3.15,185.47,368.6,465.66,604.3,211.12,177.6,188.13,619.09-23.56,644.93Z"/><path class="cls-7" d="M2710.27,1695.45c0,99.7-1101.96,107.91-1222.67,107.91-111.76,0-1222.65-8.19-1222.65-107.91s1115.89-107.92,1222.65-107.92,1222.67,4.89,1222.67,107.92Z"/><path class="cls-4" d="M1869.93,1280.02c-21.68,.31-86.23-31.87-86.31-38.06-.09-6.19,63.52-40.17,85.21-40.47,21.69-.31,39.51,17.03,39.82,38.71,.31,21.68-17.03,39.51-38.71,39.82Z"/><g><g><path class="cls-10" d="M2351.17,1634.82c-.08,0-.16-.01-.24-.03-.63-.15-1.02-.79-.87-1.42,39.66-165.45,77.63-282.83,106.92-330.51,.65-1.06,1.12-1.82,1.29-2.21,.27-.59,.97-.85,1.56-.59,.59,.27,.86,.97,.59,1.56-.24,.52-.69,1.25-1.43,2.47-29.16,47.47-67.03,164.6-106.63,329.82-.13,.55-.64,.92-1.19,.9Z"/><path class="cls-10" d="M2478.74,1293.23c-3.49,5.36-21.96,15.89-23.49,14.9-1.53-.99,.59-22.15,4.07-27.52,3.48-5.36,10.66-6.88,16.02-3.4,5.36,3.49,6.88,10.66,3.4,16.02Z"/><path class="cls-10" d="M2442.92,1310.96c2.24,6.15-.54,27.73-2.3,28.36-1.75,.64-17.74-14.12-19.97-20.27-2.24-6.15,.94-12.95,7.09-15.18,6.15-2.24,12.95,.94,15.18,7.09Z"/><path class="cls-10" d="M2467.71,1347.01c-6.49,.79-26.89-6.77-27.12-8.62-.23-1.85,17.76-14.1,24.25-14.89,6.5-.79,12.4,3.83,13.2,10.33,.79,6.49-3.83,12.4-10.33,13.19Z"/><path class="cls-10" d="M2393.19,1421.95c4.84,9.86,4.11,46.37,1.3,47.75-2.81,1.38-32.15-20.36-37-30.22-4.84-9.86-.77-21.77,9.08-26.61,9.86-4.84,21.77-.78,26.61,9.08Z"/><path class="cls-10" d="M2441.08,1477.63c-10.69,2.5-46.1-6.43-46.82-9.49-.71-3.05,27.08-26.74,37.77-29.24,10.69-2.5,21.39,4.15,23.89,14.84,2.5,10.69-4.15,21.39-14.84,23.88Z"/><path class="cls-10" d="M2367,1464.25c8.43,10.46,17.4,54.24,14.41,56.65-2.99,2.41-43.87-15.64-52.3-26.11-8.43-10.46-6.79-25.78,3.67-34.22,10.46-8.44,25.78-6.79,34.22,3.67Z"/><path class="cls-10" d="M2435.09,1536.82c-13.33,1.69-55.31-13.63-55.79-17.44-.49-3.81,36.33-29.14,49.66-30.84,13.33-1.69,25.51,7.74,27.21,21.07,1.69,13.33-7.74,25.51-21.07,27.2Z"/><path class="cls-10" d="M2352.37,1518.3c8.43,10.46,17.4,54.24,14.41,56.65-2.99,2.41-43.87-15.64-52.3-26.11-8.43-10.46-6.79-25.78,3.67-34.22,10.46-8.43,25.78-6.79,34.22,3.67Z"/><path class="cls-10" d="M2420.46,1590.87c-13.33,1.69-55.31-13.64-55.79-17.44-.48-3.81,36.33-29.14,49.66-30.84,13.33-1.69,25.51,7.74,27.21,21.07,1.69,13.33-7.74,25.51-21.07,27.21Z"/><path class="cls-10" d="M2317.48,1587.16c11.78,6.46,36.75,43.53,34.9,46.89-1.84,3.36-46.52,2.24-58.3-4.22-11.78-6.46-16.1-21.25-9.64-33.04,6.46-11.78,21.25-16.1,33.04-9.64Z"/><path class="cls-10" d="M2407.84,1644.22c-13.02,3.35-56.58-6.61-57.53-10.33-.96-3.72,32.4-33.46,45.41-36.8s26.28,4.49,29.63,17.51c3.35,13.02-4.49,26.28-17.51,29.63Z"/><path class="cls-10" d="M2427.6,1345.51c2.27,6.25-.55,28.17-2.33,28.82-1.78,.65-18.02-14.35-20.29-20.6-2.27-6.25,.95-13.15,7.2-15.42,6.25-2.27,13.15,.95,15.42,7.2Z"/><path class="cls-10" d="M2451.95,1382.59c-6.6,.81-27.32-6.88-27.55-8.76-.23-1.88,18.04-14.33,24.64-15.13,6.6-.81,12.6,3.89,13.4,10.49,.81,6.6-3.89,12.6-10.49,13.41Z"/><path class="cls-10" d="M2409.7,1377.81c3.94,8.58,2.5,39.95,.05,41.08-2.45,1.13-27.19-18.22-31.13-26.8-3.94-8.58-.18-18.73,8.4-22.68,8.58-3.94,18.73-.18,22.68,8.4Z"/><path class="cls-10" d="M2448.57,1430.28c-9.37,1.14-38.82-9.77-39.15-12.45-.33-2.68,25.63-20.35,35-21.5,9.37-1.14,17.9,5.53,19.05,14.9,1.14,9.37-5.53,17.9-14.9,19.05Z"/></g><path class="cls-17" d="M2418.37,1657.35c-.07-.02-.15-.05-.22-.09-.58-.3-.8-1.01-.5-1.59,78.9-150.74,144.41-255.27,184.46-294.35,.89-.87,1.53-1.49,1.79-1.82,.41-.51,1.15-.59,1.66-.19,.51,.41,.59,1.15,.19,1.66-.35,.44-.97,1.05-1.99,2.04-39.88,38.9-105.23,143.23-184.02,293.75-.26,.51-.84,.74-1.37,.59Z"/><path class="cls-17" d="M2625.57,1357.31c-4.69,4.35-25.18,10.04-26.42,8.7-1.24-1.34,5.99-21.34,10.68-25.69,4.69-4.35,12.02-4.07,16.37,.62,4.35,4.69,4.07,12.02-.62,16.36Z"/><path class="cls-17" d="M2586.5,1365.75c.67,6.51-7.3,26.75-9.16,26.94-1.86,.19-13.75-18.03-14.41-24.54-.66-6.51,4.07-12.32,10.58-12.99,6.51-.66,12.32,4.08,12.99,10.58Z"/><path class="cls-17" d="M2601.73,1406.77c-6.49-.82-24.42-13.14-24.19-14.99,.23-1.85,20.66-9.33,27.15-8.51,6.49,.82,11.09,6.74,10.27,13.24-.82,6.49-6.75,11.09-13.24,10.27Z"/><path class="cls-17" d="M2511.15,1461.22c2.29,10.74-7.35,45.97-10.41,46.62-3.07,.65-26.2-27.6-28.49-38.34-2.29-10.74,4.57-21.3,15.31-23.59,10.74-2.29,21.3,4.57,23.59,15.31Z"/><path class="cls-17" d="M2543.98,1526.92c-10.98-.19-43.13-17.51-43.08-20.64,.06-3.13,32.79-19.31,43.78-19.12,10.98,.19,19.73,9.25,19.53,20.23-.19,10.98-9.25,19.73-20.23,19.53Z"/><path class="cls-17" d="M2475.41,1495.84c5.62,12.21,3.61,56.85,.13,58.45-3.48,1.6-38.71-25.89-44.34-38.1-5.62-12.21-.28-26.66,11.92-32.28,12.21-5.62,26.66-.28,32.28,11.92Z"/><path class="cls-17" d="M2523.7,1582.84c-13.34-1.62-50.3-26.74-49.84-30.55,.46-3.81,42.35-19.38,55.69-17.76,13.34,1.62,22.85,13.74,21.23,27.08-1.61,13.34-13.74,22.85-27.08,21.23Z"/><path class="cls-17" d="M2448.02,1544.67c5.62,12.21,3.61,56.85,.13,58.45-3.48,1.6-38.71-25.89-44.33-38.1-5.62-12.21-.28-26.66,11.92-32.28,12.21-5.62,26.66-.28,32.28,11.92Z"/><path class="cls-17" d="M2496.31,1631.68c-13.34-1.62-50.3-26.74-49.84-30.55,.46-3.81,42.35-19.38,55.69-17.76,13.34,1.62,22.85,13.74,21.23,27.08-1.62,13.34-13.74,22.85-27.08,21.23Z"/><path class="cls-17" d="M2397.36,1602.91c9.85,9.15,24.99,51.19,22.38,54-2.61,2.81-45.66-9.19-55.5-18.34-9.85-9.15-10.42-24.54-1.27-34.39,9.14-9.85,24.54-10.42,34.39-1.27Z"/><path class="cls-17" d="M2471.02,1680.33c-13.44,.06-53.25-20.24-53.27-24.08-.02-3.84,39.59-24.52,53.03-24.59,13.44-.06,24.38,10.78,24.45,24.22,.06,13.44-10.78,24.39-24.22,24.45Z"/><path class="cls-17" d="M2563.2,1395.51c.67,6.61-7.42,27.18-9.31,27.38-1.89,.19-13.97-18.32-14.64-24.93-.67-6.61,4.14-12.52,10.75-13.19,6.61-.67,12.52,4.14,13.2,10.75Z"/><path class="cls-17" d="M2577.75,1437.42c-6.6-.83-24.81-13.35-24.58-15.23,.24-1.88,20.99-9.48,27.59-8.65,6.59,.83,11.27,6.85,10.44,13.45-.83,6.6-6.85,11.27-13.45,10.44Z"/><path class="cls-17" d="M2537.96,1422.45c1.72,9.28-7.34,39.35-9.99,39.85-2.65,.49-21.91-24.31-23.63-33.6-1.73-9.29,4.4-18.21,13.69-19.94,9.28-1.72,18.21,4.4,19.94,13.69Z"/><path class="cls-17" d="M2562.82,1482.84c-9.37-1.18-35.25-18.97-34.92-21.64,.34-2.67,29.83-13.47,39.2-12.29,9.37,1.18,16.01,9.74,14.83,19.1-1.18,9.37-9.74,16.01-19.11,14.82Z"/></g><g><path class="cls-11" d="M624.29,1645.5c.09,0,.18-.02,.27-.04,.72-.17,1.17-.9,1-1.62-44.93-188.66-88-322.52-121.3-376.92-.74-1.21-1.27-2.08-1.47-2.52-.31-.68-1.1-.98-1.78-.67-.68,.31-.98,1.1-.67,1.78,.27,.59,.78,1.43,1.63,2.81,33.15,54.16,76.12,187.75,120.98,376.14,.15,.63,.72,1.05,1.35,1.03Z"/><path class="cls-11" d="M479.46,1255.91c3.96,6.12,25.01,18.15,26.75,17.02,1.75-1.13-.63-25.25-4.6-31.37-3.96-6.12-12.14-7.87-18.25-3.9-6.12,3.96-7.87,12.14-3.9,18.26Z"/><path class="cls-11" d="M520.26,1276.19c-2.56,7,.57,31.61,2.57,32.34,2,.73,20.24-16.07,22.8-23.07,2.56-7-1.05-14.76-8.05-17.31-7.01-2.56-14.76,1.05-17.32,8.05Z"/><path class="cls-11" d="M491.94,1317.24c7.4,.91,30.67-7.67,30.93-9.78,.26-2.11-20.22-16.1-27.62-17.02-7.4-.91-14.14,4.34-15.06,11.75-.91,7.4,4.34,14.14,11.75,15.06Z"/><path class="cls-11" d="M576.76,1402.79c-5.54,11.23-4.77,52.85-1.56,54.43,3.21,1.58,36.69-23.15,42.22-34.38,5.54-11.23,.92-24.82-10.31-30.35-11.23-5.54-24.82-.92-30.35,10.31Z"/><path class="cls-11" d="M522.07,1466.17c12.19,2.86,52.56-7.25,53.38-10.73,.82-3.48-30.82-30.53-43-33.4-12.19-2.86-24.39,4.69-27.25,16.88-2.86,12.18,4.69,24.39,16.88,27.25Z"/><path class="cls-11" d="M606.54,1451.05c-9.63,11.91-19.93,61.8-16.53,64.55,3.4,2.75,50.03-17.76,59.66-29.67,9.63-11.91,7.78-29.38-4.13-39.01-11.91-9.63-29.38-7.78-39.01,4.13Z"/><path class="cls-11" d="M528.8,1533.65c15.19,1.95,63.07-15.45,63.63-19.78s-41.36-33.28-56.55-35.24c-15.19-1.95-29.09,8.78-31.05,23.97-1.95,15.19,8.78,29.09,23.97,31.05Z"/><path class="cls-11" d="M623.12,1512.69c-9.63,11.91-19.93,61.8-16.53,64.55,3.4,2.75,50.03-17.76,59.66-29.67,9.63-11.91,7.78-29.38-4.13-39.01-11.91-9.63-29.38-7.78-39.01,4.13Z"/><path class="cls-11" d="M545.38,1595.28c15.19,1.95,63.07-15.45,63.63-19.78,.56-4.34-41.36-33.28-56.55-35.24-15.19-1.95-29.09,8.78-31.05,23.97-1.95,15.19,8.78,29.1,23.97,31.05Z"/><path class="cls-11" d="M662.77,1591.24c-13.44,7.34-41.96,49.55-39.87,53.39,2.1,3.84,53.02,2.64,66.47-4.71,13.44-7.34,18.39-24.2,11.04-37.64-7.34-13.44-24.2-18.39-37.64-11.04Z"/><path class="cls-11" d="M559.67,1656.12c14.83,3.84,64.51-7.44,65.6-11.68,1.09-4.23-36.87-38.19-51.7-42.03-14.83-3.84-29.96,5.07-33.8,19.9-3.84,14.83,5.07,29.96,19.9,33.8Z"/><path class="cls-11" d="M537.66,1315.6c-2.6,7.12,.58,32.11,2.61,32.86,2.03,.74,20.57-16.33,23.17-23.44,2.6-7.12-1.06-14.99-8.18-17.59-7.12-2.6-15,1.06-17.59,8.18Z"/><path class="cls-11" d="M509.84,1357.82c7.52,.93,31.16-7.79,31.42-9.94,.26-2.15-20.54-16.36-28.06-17.29-7.52-.93-14.37,4.41-15.3,11.93-.93,7.52,4.41,14.37,11.93,15.3Z"/><path class="cls-11" d="M558,1352.44c-4.51,9.78-2.92,45.54-.13,46.82,2.79,1.29,31.02-20.72,35.53-30.5,4.51-9.77,.24-21.35-9.53-25.86-9.77-4.51-21.35-.24-25.86,9.54Z"/><path class="cls-11" d="M513.61,1412.19c10.68,1.32,44.27-11.07,44.64-14.12,.38-3.05-29.18-23.25-39.86-24.57-10.68-1.32-20.41,6.27-21.73,16.95-1.32,10.68,6.27,20.42,16.95,21.74Z"/></g><path class="cls-3" d="M636.92,672.23c-11.28-2.85-24.71-9.82-23.72-21.42,.89-10.37,13.27-15.72,23.68-15.5,10.41,.21,20.94,3.65,31.06,1.21,13.22-3.19,21.96-15.33,30.08-26.24,8.61-11.57,18.14-22.92,30.66-30.08,12.52-7.16,28.68-9.44,41.33-2.5,9.68,5.31,16.38,15.34,26.62,19.46,13.85,5.58,29.17-1.2,43.67-4.78,14.5-3.58,33.94-1.15,38.33,13.12,3.67,11.94-5.39,27.15,3.05,36.35,43.2,47.15-41.5,30.92-72.33,33.04-57.35,3.94-115.83,11.6-172.43-2.67Z"/><path class="cls-3" d="M2320.42,709.56c9.94,16.45,1.92,39.83-14.43,49.95-16.35,10.11-38.12,8.39-55.06-.7-8.99-4.82-17.21-11.63-27.19-13.73-24.5-5.16-54.6,24.69-77.45,7.38-19.82-15.01-10.43-28.65,4.7-40.28,45.15-34.69,119.43,11.95,169.43-2.62Z"/><path class="cls-3" d="M1234.91,478.92c-7.75,4.34-17.3,5.93-26.56,7.42-6.81,1.09-13.61,2.19-20.42,3.28-15.31,2.46-31.48,4.88-46.25,.81-10.71-2.95-19.82-9.14-30.79-11.4-10.96-2.26-22.53-.37-33.83-.85-3.23-.14-6.5-.49-9.44-1.58-6.27-2.33-10.15-8.22-9.03-13.7,1.12-5.48,7.14-10.06,14.01-10.65,9.08-.79,20.04,4.24,26.37-1.04,2.2-1.84,3-4.46,4.53-6.7,3.08-4.49,9.02-7.24,14.98-9.07,18.81-5.78,34.48-1.69,53.31,.44,12.78,1.44,24.44-.9,37.11-1.74,16.12-1.07,32.56,.81,38.28,14.86,4.3,10.55-.93,23.57-12.28,29.93Z"/><path class="cls-3" d="M1615.63,362.28c-8.54,4.79-19.08,6.54-29.29,8.18-7.5,1.21-15.01,2.41-22.51,3.62-16.88,2.71-34.71,5.38-51,.89-11.81-3.26-21.86-10.08-33.95-12.57-12.09-2.49-24.84-.41-37.3-.94-3.56-.15-7.17-.54-10.41-1.74-6.91-2.57-11.19-9.06-9.96-15.1,1.23-6.04,7.88-11.09,15.44-11.75,10.01-.87,22.1,4.68,29.08-1.15,2.43-2.03,3.31-4.92,5-7.39,3.4-4.95,9.94-7.98,16.52-10,20.73-6.37,38.02-1.86,58.78,.48,14.09,1.59,26.95-.99,40.93-1.92,17.78-1.18,35.9,.9,42.21,16.39,4.74,11.64-1.02,25.99-13.54,33Z"/><g><path class="cls-10" d="M1919.79,1618.75c0,49.14-189.12,76.11-422.83,76.11s-423.52-26.96-423.52-76.11c0-3.97-2.4-25.04,0-28.87,27.27-43.61,208.69-55.18,423.53-55.18s400.48,11.02,422.83,55.18c1.55,3.06,0,25.69,0,28.87Z"/><path class="cls-11" d="M1919.79,1589.88c0,33.2-189.46,60.11-423.18,60.11s-423.18-26.91-423.18-60.11,189.46-60.11,423.18-60.11,423.18,26.91,423.18,60.11Z"/><path class="cls-10" d="M1697.7,1554.99c0,31.98-89.91,49.52-201.02,49.52s-201.35-17.54-201.35-49.52c0-2.58-1.14-16.29,0-18.79,12.96-28.38,99.21-35.9,201.35-35.9s190.39,7.17,201.02,35.9c.74,1.99,0,16.72,0,18.79Z"/><path class="cls-11" d="M1697.7,1536.2c0,21.6-90.07,39.11-201.18,39.11s-201.18-17.51-201.18-39.11,90.07-39.11,201.18-39.11,201.18,17.51,201.18,39.11Z"/><path class="cls-10" d="M1525.91,1515.7c0,3.94-12.96,7.13-28.95,7.13s-28.95-3.19-28.95-7.13,12.96-7.13,28.95-7.13,28.95,3.19,28.95,7.13Z"/><g><path class="cls-10" d="M1347.14,1296.51c0,43.35-129.7,67.13-289.98,67.13s-290.46-23.78-290.46-67.13c0-3.5-1.64-22.09,0-25.47,18.7-38.47,143.12-48.67,290.46-48.67s274.65,9.72,289.98,48.67c1.06,2.7,0,22.66,0,25.47Z"/><path class="cls-11" d="M1347.14,1271.04c0,29.28-129.94,53.02-290.22,53.02s-290.22-23.74-290.22-53.02,129.94-53.02,290.22-53.02,290.22,23.74,290.22,53.02Z"/><polygon class="cls-11" points="1324.32 1273.37 1055.91 697.75 787.5 1273.37 771.48 1262.64 1055.91 650.75 1340.35 1262.64 1324.32 1273.37"/></g><g><path class="cls-10" d="M2229.19,1155.51c0,43.35-129.7,67.13-289.98,67.13s-290.46-23.78-290.46-67.13c0-3.5-1.64-22.09,0-25.47,18.7-38.47,143.12-48.67,290.46-48.67s274.65,9.72,289.98,48.67c1.06,2.7,0,22.66,0,25.47Z"/><path class="cls-11" d="M2229.19,1130.04c0,29.28-129.94,53.02-290.22,53.02s-290.22-23.74-290.22-53.02,129.94-53.02,290.22-53.02,290.22,23.74,290.22,53.02Z"/><polygon class="cls-11" points="2206.37 1132.37 1937.96 556.75 1669.55 1132.37 1653.52 1121.64 1937.96 509.75 2222.4 1121.64 2206.37 1132.37"/></g><rect class="cls-10" x="951.61" y="573.12" width="1090.72" height="53.6" transform="translate(-74.93 239.43) rotate(-8.92)"/><rect class="cls-10" x="1468.02" y="577.87" width="57.89" height="938.66"/><path class="cls-11" d="M1443.77,595.01c0-29.38,23.82-53.2,53.2-53.2s53.2,23.83,53.2,53.2-23.82,53.2-53.2,53.2-53.2-23.83-53.2-53.2Z"/><polygon class="cls-10" points="1496.96 413.82 1443.77 541.8 1550.17 541.8 1496.96 413.82"/></g><g><path class="cls-10" d="M774.98,1608.61c.05,0,.11,0,.16,0,.44-.03,.78-.42,.75-.86-7.89-115.86-20.1-199.17-34.39-234.59-.32-.79-.55-1.35-.62-1.63-.11-.43-.56-.68-.98-.57-.43,.11-.69,.55-.57,.98,.1,.38,.32,.92,.68,1.82,14.23,35.26,26.4,118.4,34.28,234.09,.03,.39,.32,.69,.7,.74Z"/><path class="cls-10" d="M727.94,1364.22c1.74,4.01,12.97,13.19,14.12,12.7,1.14-.5,2.12-14.98,.39-18.98-1.74-4-6.39-5.84-10.39-4.11-4,1.74-5.84,6.39-4.11,10.39Z"/><path class="cls-10" d="M750.04,1380.23c-2.2,3.88-2.79,18.72-1.68,19.35,1.11,.63,13.54-7.49,15.75-11.37,2.2-3.88,.84-8.82-3.04-11.02-3.88-2.2-8.82-.84-11.02,3.05Z"/><path class="cls-10" d="M729.25,1401.67c4.28,1.27,18.87-1.5,19.23-2.72,.36-1.22-10.35-11.51-14.63-12.78-4.28-1.27-8.78,1.17-10.05,5.45-1.27,4.28,1.17,8.78,5.45,10.05Z"/><path class="cls-10" d="M770.89,1460.58c-4.38,6.08-8.04,30.74-6.3,31.99,1.74,1.25,23.95-10.05,28.33-16.13,4.38-6.08,3-14.57-3.09-18.94-6.08-4.38-14.57-3-18.94,3.09Z"/><path class="cls-10" d="M732.33,1492.61c6.91,2.9,31.76,.91,32.59-1.06,.83-1.97-15.18-21.08-22.1-23.97-6.91-2.9-14.87,.36-17.76,7.27-2.9,6.91,.36,14.87,7.27,17.76Z"/><path class="cls-10" d="M783.71,1492.02c-6.87,6.08-17.88,34.53-16.14,36.49,1.74,1.96,31.3-5.54,38.17-11.62,6.86-6.08,7.5-16.58,1.42-23.44-6.08-6.87-16.58-7.5-23.45-1.42Z"/><path class="cls-10" d="M729.64,1533.12c8.78,2.66,38.77-2.89,39.53-5.4,.76-2.51-21.14-23.74-29.92-26.4-8.78-2.66-18.05,2.31-20.71,11.09-2.66,8.78,2.31,18.05,11.09,20.71Z"/><path class="cls-10" d="M787.41,1530.06c-6.87,6.08-17.88,34.53-16.14,36.49,1.74,1.96,31.3-5.54,38.17-11.62,6.86-6.08,7.5-16.58,1.42-23.45-6.08-6.87-16.58-7.5-23.45-1.42Z"/><path class="cls-10" d="M733.33,1571.16c8.78,2.65,38.77-2.89,39.53-5.4,.76-2.51-21.14-23.74-29.92-26.4-8.78-2.66-18.05,2.31-20.71,11.09-2.66,8.78,2.31,18.05,11.09,20.71Z"/><path class="cls-10" d="M803.06,1580.37c-8.66,3.01-29.68,25.12-28.82,27.59,.86,2.47,31.05,6.8,39.72,3.79,8.66-3.01,13.25-12.47,10.24-21.14-3.01-8.67-12.47-13.25-21.14-10.24Z"/><path class="cls-10" d="M735.76,1608.5c8.38,3.73,38.83,1.98,39.9-.41,1.07-2.39-18-26.2-26.38-29.93-8.38-3.73-18.2,.03-21.93,8.41-3.73,8.38,.04,18.2,8.41,21.93Z"/><path class="cls-10" d="M756.42,1405.22c-2.24,3.95-2.83,19.02-1.71,19.66,1.13,.64,13.76-7.61,16-11.56,2.24-3.95,.85-8.96-3.09-11.2-3.95-2.24-8.96-.85-11.2,3.09Z"/><path class="cls-10" d="M735.81,1427.41c4.35,1.29,19.17-1.52,19.54-2.77,.37-1.24-10.51-11.69-14.86-12.98-4.35-1.29-8.92,1.19-10.21,5.54-1.29,4.35,1.19,8.92,5.54,10.21Z"/><path class="cls-10" d="M764.79,1428.99c-3.63,5.33-6.23,26.6-4.71,27.64,1.52,1.04,20.37-9.17,24-14.5,3.63-5.33,2.25-12.59-3.07-16.22-5.33-3.63-12.59-2.25-16.22,3.07Z"/><path class="cls-10" d="M732.67,1459.89c6.18,1.84,27.24-2.16,27.76-3.93,.52-1.76-14.94-16.61-21.11-18.45-6.18-1.83-12.68,1.69-14.51,7.86-1.84,6.18,1.69,12.68,7.86,14.51Z"/></g><g><g><g><rect class="cls-9" x="1098.22" y="1072.3" width="265.92" height="102.86" transform="translate(-352.48 603.54) rotate(-24.2)"/><path class="cls-15" d="M1129.16,1229.99l-45.17-100.49,249.21-112.02,45.17,100.49-249.21,112.02Zm-35.51-96.82l39.18,87.15,235.87-106.02-39.18-87.15-235.87,106.02Z"/></g><g><path class="cls-15" d="M1270.75,1104.96c-9.56-21.27-34.55-30.76-55.82-21.2-21.27,9.56-30.76,34.55-21.2,55.82,9.56,21.27,34.55,30.76,55.82,21.2,21.27-9.56,30.76-34.55,21.2-55.82Z"/><path class="cls-9" d="M1242.14,1162.07l-4.35-9.68c-5.6,2.4-12.13,3.26-16.57,2.38l-.59-7.46c4.49,.75,10.29,.33,15.66-2.08,6.81-3.06,9.64-9.06,7.19-14.53-2.37-5.27-7.58-6.85-15.97-6.54-11.51,.56-19.53-1.13-23.28-9.48-3.58-7.96-.64-16.54,7.54-21.95l-4.35-9.68,5.95-2.67,4.18,9.3c5.84-2.39,10.46-2.63,13.97-2.25l.45,7.41c-2.53-.25-7.41-.59-13.55,2.17-7.38,3.32-8.18,8.98-6.46,12.82,2.24,4.99,6.91,5.88,16.8,5.59,11.69-.41,18.91,2.33,22.75,10.87,3.41,7.58,1.32,17.04-7.82,23.11l4.48,9.97-6.04,2.71Z"/><path class="cls-15" d="M1298.66,1093.64c-2.19-4.86-7.9-7.04-12.77-4.85-4.86,2.19-7.04,7.9-4.85,12.77,2.19,4.86,7.9,7.04,12.77,4.85,4.86-2.19,7.04-7.9,4.85-12.77Z"/><path class="cls-15" d="M1181.49,1146.31c-2.19-4.86-7.9-7.04-12.77-4.85-4.87,2.19-7.04,7.9-4.85,12.77s7.9,7.04,12.77,4.85c4.87-2.19,7.04-7.9,4.85-12.77Z"/></g></g><g><g><rect class="cls-9" x="1042.77" y="992.79" width="272.71" height="105.49" transform="translate(-396.72 1031.56) rotate(-41.06)"/><path class="cls-18" d="M1110.59,1180.16l-74.21-85.2,211.3-184.04,74.21,85.2-211.3,184.04Zm-63.63-84.47l64.36,73.9,200-174.19-64.36-73.9-200,174.19Z"/></g><g><path class="cls-18" d="M1212.4,1015.34c-15.71-18.03-43.06-19.92-61.09-4.21-18.03,15.71-19.92,43.06-4.21,61.09,15.71,18.03,43.06,19.92,61.09,4.21,18.03-15.71,19.92-43.06,4.21-61.09Z"/><path class="cls-9" d="M1201.29,1079.91l-7.15-8.21c-4.79,4.03-10.94,6.81-15.56,7.26l-2.79-7.15c4.63-.6,10.2-2.74,14.75-6.7,5.77-5.03,6.77-11.76,2.74-16.4-3.89-4.47-9.47-4.47-17.61-1.67-11.13,3.97-19.51,4.69-25.67-2.38-5.88-6.75-5.54-16.05,.88-23.78l-7.15-8.21,5.04-4.39,6.87,7.89c5.02-4.09,9.49-5.69,13.05-6.36l2.64,7.14c-2.56,.51-7.45,1.63-12.65,6.16-6.26,5.45-5.36,11.25-2.53,14.5,3.68,4.23,8.53,3.72,18.15,.49,11.35-3.88,19.26-3.33,25.56,3.9,5.59,6.42,6.36,16.33-.81,25.01l7.36,8.46-5.12,4.46Z"/><path class="cls-18" d="M1236.43,995.94c-3.59-4.12-9.85-4.56-13.97-.96-4.12,3.59-4.56,9.85-.96,13.97,3.59,4.12,9.85,4.56,13.97,.96,4.12-3.59,4.56-9.85,.96-13.97Z"/><path class="cls-18" d="M1137.08,1082.47c-3.59-4.12-9.85-4.56-13.97-.96-4.12,3.59-4.56,9.85-.96,13.97,3.59,4.12,9.85,4.56,13.97,.96,4.12-3.59,4.56-9.85,.96-13.97Z"/></g></g><g><g><path class="cls-8" d="M1071.8,1163.66l-46.78-187.87c-1.11-4.44,1.6-8.93,6.04-10.04l100.44-25.01c4.44-1.11,8.93,1.6,10.04,6.04l46.78,187.87c1.11,4.44-1.6,8.93-6.04,10.04l-100.44,25.01c-4.44,1.11-8.93-1.6-10.04-6.04Z"/><rect class="cls-14" x="1040.65" y="996.35" width="52.32" height="3.52" transform="translate(1777.62 -278.24) rotate(76.02)"/><rect class="cls-14" x="1105.06" y="1101.45" width="66.21" height="9.35" transform="translate(1936.54 -265.56) rotate(76.02)"/><rect class="cls-14" x="1041.08" y="988.77" width="33.2" height="3.52" transform="translate(1763.33 -275.12) rotate(76.02)"/></g><g><path class="cls-14" d="M1079.41,977.25c-3.2,.8-5.51,.04-6.1-2.33-.57-2.27,1.2-4.01,4.22-4.77,3.1-.77,5.48,.03,6.06,2.35,.6,2.39-1.26,4.04-4.17,4.76Zm-1.4-5.22c-2.42,.6-3.51,1.57-3.26,2.59,.28,1.11,1.76,1.34,4.14,.75,2.3-.57,3.53-1.44,3.25-2.57-.25-.99-1.66-1.39-4.13-.77Z"/><path class="cls-14" d="M1081.73,986.56c-3.2,.8-5.51,.04-6.1-2.33-.57-2.27,1.2-4.01,4.22-4.77,3.1-.77,5.48,.03,6.06,2.35,.6,2.39-1.26,4.04-4.17,4.76Zm-1.4-5.22c-2.42,.6-3.51,1.57-3.26,2.59,.28,1.11,1.76,1.34,4.14,.75,2.3-.57,3.53-1.44,3.25-2.57-.25-.99-1.66-1.39-4.13-.77Z"/><path class="cls-14" d="M1084.05,995.88c-3.2,.8-5.51,.04-6.1-2.33-.57-2.27,1.2-4.01,4.22-4.77,3.1-.77,5.48,.03,6.06,2.35,.6,2.39-1.26,4.04-4.17,4.76Zm-1.4-5.22c-2.42,.6-3.51,1.57-3.26,2.59,.28,1.11,1.76,1.34,4.14,.75,2.3-.57,3.53-1.44,3.25-2.57-.25-.99-1.66-1.38-4.13-.77Z"/><path class="cls-14" d="M1086.37,1005.19c-3.2,.8-5.51,.04-6.1-2.33-.57-2.27,1.2-4.01,4.22-4.77,3.1-.77,5.48,.03,6.06,2.35,.6,2.39-1.26,4.04-4.17,4.76Zm-1.4-5.22c-2.42,.6-3.51,1.57-3.26,2.59,.28,1.11,1.76,1.34,4.14,.75,2.3-.57,3.53-1.44,3.25-2.57-.25-.99-1.66-1.39-4.13-.77Z"/><path class="cls-14" d="M1090.83,1023.11c-3.2,.8-5.51,.04-6.1-2.33-.57-2.27,1.2-4.01,4.22-4.77,3.1-.77,5.48,.03,6.06,2.35,.6,2.39-1.26,4.04-4.17,4.76Zm-1.4-5.22c-2.42,.6-3.51,1.57-3.26,2.59,.28,1.11,1.76,1.34,4.14,.75,2.3-.57,3.53-1.44,3.25-2.57-.25-.99-1.66-1.39-4.13-.77Z"/><path class="cls-14" d="M1093.15,1032.42c-3.2,.8-5.51,.04-6.1-2.33-.57-2.27,1.2-4.01,4.22-4.78,3.1-.77,5.48,.03,6.06,2.35,.6,2.39-1.26,4.04-4.17,4.76Zm-1.4-5.22c-2.42,.6-3.51,1.57-3.26,2.59,.28,1.11,1.76,1.34,4.14,.75,2.3-.57,3.53-1.44,3.25-2.57-.25-.99-1.66-1.39-4.13-.77Z"/><path class="cls-14" d="M1095.47,1041.74c-3.2,.8-5.51,.04-6.1-2.33-.57-2.27,1.2-4.01,4.22-4.77,3.1-.77,5.48,.03,6.06,2.35,.6,2.39-1.26,4.04-4.17,4.76Zm-1.4-5.22c-2.42,.6-3.51,1.57-3.26,2.59,.28,1.11,1.76,1.34,4.14,.75,2.3-.57,3.53-1.44,3.25-2.57-.25-.99-1.66-1.38-4.13-.77Z"/><path class="cls-14" d="M1097.79,1051.05c-3.2,.8-5.51,.04-6.1-2.33-.57-2.27,1.2-4.01,4.22-4.77,3.1-.77,5.48,.03,6.06,2.35,.6,2.39-1.26,4.04-4.17,4.76Zm-1.4-5.22c-2.42,.6-3.51,1.57-3.26,2.59,.28,1.11,1.76,1.34,4.14,.75,2.3-.57,3.53-1.44,3.25-2.57-.25-.99-1.66-1.39-4.13-.77Z"/><path class="cls-14" d="M1102.25,1068.97c-3.2,.8-5.51,.04-6.1-2.33-.57-2.27,1.2-4.01,4.22-4.78,3.1-.77,5.48,.03,6.06,2.35,.6,2.39-1.26,4.04-4.17,4.76Zm-1.4-5.22c-2.42,.6-3.51,1.57-3.26,2.59,.28,1.11,1.76,1.34,4.14,.75,2.3-.57,3.53-1.44,3.25-2.57-.25-.99-1.66-1.39-4.13-.77Z"/><path class="cls-14" d="M1104.57,1078.28c-3.2,.8-5.51,.04-6.1-2.33-.57-2.27,1.2-4.01,4.22-4.78,3.1-.77,5.48,.03,6.06,2.35,.6,2.39-1.26,4.04-4.17,4.76Zm-1.4-5.22c-2.42,.6-3.51,1.57-3.26,2.59,.28,1.11,1.76,1.34,4.14,.75,2.3-.57,3.53-1.44,3.25-2.57-.25-.99-1.66-1.38-4.13-.77Z"/><path class="cls-14" d="M1106.89,1087.6c-3.2,.8-5.51,.04-6.1-2.33-.57-2.27,1.2-4.01,4.22-4.78,3.1-.77,5.48,.03,6.06,2.35,.6,2.39-1.26,4.04-4.17,4.76Zm-1.4-5.22c-2.42,.6-3.51,1.57-3.26,2.59,.28,1.11,1.76,1.34,4.14,.75,2.3-.57,3.53-1.44,3.25-2.57-.25-.99-1.66-1.38-4.13-.77Z"/><path class="cls-14" d="M1109.21,1096.91c-3.2,.8-5.51,.04-6.1-2.33-.57-2.27,1.2-4.01,4.22-4.78,3.1-.77,5.48,.03,6.06,2.35,.6,2.39-1.26,4.04-4.17,4.76Zm-1.4-5.22c-2.42,.6-3.51,1.57-3.26,2.59,.28,1.11,1.76,1.34,4.14,.75,2.3-.57,3.53-1.44,3.25-2.57-.25-.99-1.66-1.38-4.13-.77Z"/><path class="cls-14" d="M1113.67,1114.83c-3.2,.8-5.51,.04-6.1-2.33-.57-2.27,1.2-4.01,4.22-4.78,3.1-.77,5.48,.03,6.06,2.35,.6,2.39-1.26,4.04-4.17,4.76Zm-1.4-5.22c-2.42,.6-3.51,1.57-3.26,2.59,.28,1.11,1.76,1.34,4.14,.75,2.3-.57,3.53-1.44,3.25-2.57-.25-.99-1.66-1.38-4.13-.77Z"/><path class="cls-14" d="M1115.99,1124.14c-3.2,.8-5.51,.04-6.1-2.33-.57-2.27,1.2-4.01,4.22-4.78,3.1-.77,5.48,.03,6.06,2.35,.6,2.39-1.26,4.04-4.17,4.76Zm-1.4-5.22c-2.42,.6-3.51,1.57-3.26,2.59,.28,1.11,1.76,1.34,4.14,.75,2.3-.57,3.53-1.44,3.25-2.57-.25-.99-1.66-1.38-4.13-.77Z"/><path class="cls-14" d="M1118.31,1133.46c-3.2,.8-5.51,.04-6.1-2.33-.57-2.27,1.2-4.01,4.22-4.77,3.1-.77,5.48,.03,6.06,2.35,.6,2.39-1.26,4.04-4.17,4.76Zm-1.4-5.22c-2.42,.6-3.51,1.57-3.26,2.59,.28,1.11,1.76,1.34,4.14,.75,2.3-.57,3.53-1.44,3.25-2.57-.25-.99-1.66-1.38-4.13-.77Z"/><path class="cls-14" d="M1120.63,1142.78c-3.2,.8-5.51,.04-6.1-2.33-.57-2.27,1.2-4.01,4.22-4.77,3.1-.77,5.48,.03,6.06,2.35,.6,2.39-1.26,4.04-4.17,4.76Zm-1.4-5.22c-2.42,.6-3.51,1.57-3.26,2.59,.28,1.11,1.76,1.34,4.14,.75,2.3-.57,3.53-1.45,3.25-2.57-.25-.99-1.66-1.38-4.13-.77Z"/></g></g><g><path class="cls-1" d="M1057.43,1033c-10.43-20.04-34.68-28.06-54.16-17.91-19.48,10.14-26.81,34.61-16.38,54.64,10.43,20.04,34.68,28.06,54.16,17.91,19.48-10.14,26.81-34.61,16.38-54.64Z"/><path class="cls-3" d="M1022.56,1047.14c-6.98,.53-10.38,.02-12.19-3.49-1.42-2.73-1.12-6.84,3.97-9.5,1.89-.95,3.61-1.51,5.09-1.74,.66-.12,1.23-.21,1.75-.21,1.07-.13,1.97-.07,2.65-.05l-.06-.53-.61-4.79c-2.51-.18-5.79,.14-9.82,2.06l-3.4-6.57-4.13,2.12,3.51,6.67,.08,.16c-2.32,1.73-3.94,3.83-4.84,6.13-.66,1.62-.8,3.33-.69,5.04,.01,.68,.06,1.32,.15,1.86-.02,.06-.04,.12,0,.21,.23,.97,.62,1.95,1.1,2.9,3.07,5.91,8.85,6.86,16.99,6.07,5.96-.53,9.74,.45,11.66,4.16,1.4,2.69,1.02,5.61-.95,7.93-.82,1.13-1.99,2.08-3.43,2.8-.78,.39-1.58,.74-2.4,1.05-.92,.31-1.83,.56-2.71,.75-2.12,.39-4.13,.48-5.9,.24l.75,5.38c2.16,.3,4.91,.05,7.64-.76,.29-.04,.55-.12,.8-.25,1.09-.29,2.2-.74,3.22-1.26l.93,1.74,2.62,5.11,4.15-2.19-1.73-3.35-.35-.7-1.34-2.57-.23-.45c.53-.37,.98-.8,1.41-1.17,.45-.43,.84-.88,1.23-1.34,.08-.04,.14-.12,.16-.18,.55-.64,1.02-1.34,1.39-2.04,.86-1.46,1.35-3.04,1.57-4.65,.34-2.59-.16-5.22-1.37-7.54-3.14-6.03-8.4-7.81-16.68-7.09Z"/></g><g><path class="cls-21" d="M977.49,1066.4h272.38c7.88,0,14.27,6.39,14.27,14.27v185.05c0,7.88-6.39,14.27-14.27,14.27h-272.37c-7.88,0-14.27-6.39-14.27-14.27v-185.05c0-7.88,6.39-14.27,14.27-14.27Z"/><path class="cls-19" d="M1238.88,1268.43h-6.72c-.54,0-.98-.44-.98-.98s.44-.98,.98-.98h6.72c2.03,0,4.03-.52,5.79-1.51,.47-.26,1.07-.1,1.33,.38,.27,.47,.1,1.07-.38,1.33-2.05,1.15-4.38,1.76-6.75,1.76Zm-13.44,0h-6.72c-.54,0-.98-.44-.98-.98s.44-.98,.98-.98h6.72c.54,0,.98,.44,.98,.98s-.44,.98-.98,.98Zm-13.44,0h-6.72c-.54,0-.98-.44-.98-.98s.44-.98,.98-.98h6.72c.54,0,.98,.44,.98,.98s-.44,.98-.98,.98Zm-13.44,0h-6.72c-.54,0-.98-.44-.98-.98s.44-.98,.98-.98h6.72c.54,0,.98,.44,.98,.98s-.44,.98-.98,.98Zm-13.44,0h-6.72c-.54,0-.98-.44-.98-.98s.44-.98,.98-.98h6.72c.54,0,.98,.44,.98,.98s-.44,.98-.98,.98Zm-13.44,0h-6.72c-.54,0-.98-.44-.98-.98s.44-.98,.98-.98h6.72c.54,0,.98,.44,.98,.98s-.44,.98-.98,.98Zm-13.44,0h-6.72c-.54,0-.98-.44-.98-.98s.44-.98,.98-.98h6.72c.54,0,.98,.44,.98,.98s-.44,.98-.98,.98Zm-13.44,0h-6.72c-.54,0-.98-.44-.98-.98s.44-.98,.98-.98h6.72c.54,0,.98,.44,.98,.98s-.44,.98-.98,.98Zm-13.44,0h-6.72c-.54,0-.98-.44-.98-.98s.44-.98,.98-.98h6.72c.54,0,.98,.44,.98,.98s-.44,.98-.98,.98Zm-13.44,0h-6.72c-.54,0-.98-.44-.98-.98s.44-.98,.98-.98h6.72c.54,0,.98,.44,.98,.98s-.44,.98-.98,.98Zm-13.44,0h-6.72c-.54,0-.98-.44-.98-.98s.44-.98,.98-.98h6.72c.54,0,.98,.44,.98,.98s-.44,.98-.98,.98Zm-13.44,0h-6.72c-.54,0-.98-.44-.98-.98s.44-.98,.98-.98h6.72c.54,0,.98,.44,.98,.98s-.44,.98-.98,.98Zm-13.44,0h-6.72c-.54,0-.98-.44-.98-.98s.44-.98,.98-.98h6.72c.54,0,.98,.44,.98,.98s-.44,.98-.98,.98Zm-13.44,0h-6.72c-.54,0-.98-.44-.98-.98s.44-.98,.98-.98h6.72c.54,0,.98,.44,.98,.98s-.44,.98-.98,.98Zm-13.44,0h-6.72c-.54,0-.98-.44-.98-.98s.44-.98,.98-.98h6.72c.54,0,.98,.44,.98,.98s-.44,.98-.98,.98Zm-13.44,0h-6.72c-.54,0-.98-.44-.98-.98s.44-.98,.98-.98h6.72c.54,0,.98,.44,.98,.98s-.44,.98-.98,.98Zm-13.44,0h-6.72c-.54,0-.98-.44-.98-.98s.44-.98,.98-.98h6.72c.54,0,.98,.44,.98,.98s-.44,.98-.98,.98Zm-13.44,0h-6.72c-.54,0-.98-.44-.98-.98s.44-.98,.98-.98h6.72c.54,0,.98,.44,.98,.98s-.44,.98-.98,.98Zm-13.44,0h-6.72c-.54,0-.98-.44-.98-.98s.44-.98,.98-.98h6.72c.54,0,.98,.44,.98,.98s-.44,.98-.98,.98Zm-13.32-.96c-.12,0-.25-.02-.37-.07-2.24-.92-4.2-2.41-5.69-4.33-.33-.43-.25-1.04,.17-1.38,.43-.33,1.04-.25,1.38,.17,1.28,1.65,2.96,2.93,4.88,3.72,.5,.21,.74,.78,.54,1.28-.16,.38-.52,.61-.91,.61Zm266.3-5.3c-.17,0-.34-.04-.5-.14-.47-.28-.62-.88-.34-1.34,1.06-1.78,1.64-3.82,1.67-5.9,0-.54,.44-.97,1-.97,.54,0,.97,.45,.97,.99-.04,2.43-.71,4.81-1.95,6.88-.18,.31-.51,.48-.84,.48Zm-274.16-4.85c-.48,0-.9-.36-.97-.85-.08-.62-.12-1.24-.12-1.87v-4.98c0-.54,.44-.98,.98-.98s.98,.44,.98,.98v4.98c0,.54,.04,1.07,.11,1.6,.07,.54-.3,1.03-.84,1.1-.04,0-.09,0-.13,0Zm275.97-8.27c-.54,0-.98-.44-.98-.98v-6.72c0-.54,.44-.98,.98-.98s.98,.44,.98,.98v6.72c0,.54-.44,.98-.98,.98Zm-276.09-5.17c-.54,0-.98-.44-.98-.98v-6.72c0-.54,.44-.98,.98-.98s.98,.44,.98,.98v6.72c0,.54-.44,.98-.98,.98Zm276.09-8.27c-.54,0-.98-.44-.98-.98v-6.72c0-.54,.44-.98,.98-.98s.98,.44,.98,.98v6.72c0,.54-.44,.98-.98,.98Zm-276.09-5.17c-.54,0-.98-.44-.98-.98v-6.72c0-.54,.44-.98,.98-.98s.98,.44,.98,.98v6.72c0,.54-.44,.98-.98,.98Zm276.09-8.27c-.54,0-.98-.44-.98-.98v-6.72c0-.54,.44-.98,.98-.98s.98,.44,.98,.98v6.72c0,.54-.44,.98-.98,.98Zm-276.09-5.17c-.54,0-.98-.44-.98-.98v-6.72c0-.54,.44-.98,.98-.98s.98,.44,.98,.98v6.72c0,.54-.44,.98-.98,.98Zm276.09-8.27c-.54,0-.98-.44-.98-.98v-6.72c0-.54,.44-.98,.98-.98s.98,.44,.98,.98v6.72c0,.54-.44,.98-.98,.98Zm-276.09-5.17c-.54,0-.98-.44-.98-.98v-6.72c0-.54,.44-.98,.98-.98s.98,.44,.98,.98v6.72c0,.54-.44,.98-.98,.98Zm276.09-8.27c-.54,0-.98-.44-.98-.98v-6.72c0-.54,.44-.98,.98-.98s.98,.44,.98,.98v6.72c0,.54-.44,.98-.98,.98Zm-276.09-5.17c-.54,0-.98-.44-.98-.98v-6.72c0-.54,.44-.98,.98-.98s.98,.44,.98,.98v6.72c0,.54-.44,.98-.98,.98Zm276.09-8.27c-.54,0-.98-.44-.98-.98v-6.72c0-.54,.44-.98,.98-.98s.98,.44,.98,.98v6.72c0,.54-.44,.98-.98,.98Zm-276.09-5.17c-.54,0-.98-.44-.98-.98v-6.72c0-.54,.44-.98,.98-.98s.98,.44,.98,.98v6.72c0,.54-.44,.98-.98,.98Zm276.09-8.27c-.54,0-.98-.44-.98-.98v-6.72c0-.54,.44-.98,.98-.98s.98,.44,.98,.98v6.72c0,.54-.44,.98-.98,.98Zm-276.09-5.17c-.54,0-.98-.44-.98-.98v-6.72c0-.54,.44-.98,.98-.98s.98,.44,.98,.98v6.72c0,.54-.44,.98-.98,.98Zm276.09-8.27c-.54,0-.98-.44-.98-.98v-6.72c0-.54,.44-.98,.98-.98s.98,.44,.98,.98v6.72c0,.54-.44,.98-.98,.98Zm-276.09-5.17c-.54,0-.98-.44-.98-.98v-6.72c0-.54,.44-.98,.98-.98s.98,.44,.98,.98v6.72c0,.54-.44,.98-.98,.98Zm276.09-8.27c-.54,0-.98-.44-.98-.98v-6.72c0-.54,.44-.98,.98-.98s.98,.44,.98,.98v6.72c0,.54-.44,.98-.98,.98Zm-276.09-5.17c-.54,0-.98-.44-.98-.98v-6.72c0-.54,.44-.98,.98-.98s.98,.44,.98,.98v6.72c0,.54-.44,.98-.98,.98Zm276.09-8.27c-.54,0-.98-.44-.98-.98v-6.72c0-.54,.44-.98,.98-.98s.98,.44,.98,.98v6.72c0,.54-.44,.98-.98,.98Zm-276.09-5.17c-.54,0-.98-.44-.98-.98v-6.72c0-.54,.44-.98,.98-.98s.98,.44,.98,.98v6.72c0,.54-.44,.98-.98,.98Zm276.09-8.27c-.54,0-.98-.44-.98-.98v-6.72c0-.54,.44-.98,.98-.98s.98,.44,.98,.98v6.72c0,.54-.44,.98-.98,.98Zm-276.09-5.17c-.54,0-.98-.44-.98-.98v-6.72c0-.54,.44-.98,.98-.98s.98,.44,.98,.98v6.72c0,.54-.44,.98-.98,.98Zm276.09-8.27c-.54,0-.98-.44-.98-.98v-6.72c0-.54,.44-.98,.98-.98s.98,.44,.98,.98v6.72c0,.54-.44,.98-.98,.98Zm-276.09-5.17c-.54,0-.98-.44-.98-.98v-3.26c0-1.25,.17-2.49,.5-3.68,.14-.52,.68-.83,1.21-.68,.52,.14,.83,.68,.68,1.21-.28,1.02-.43,2.09-.43,3.16v3.26c0,.54-.44,.98-.98,.98Zm275.12-8.14c-.39,0-.75-.23-.91-.61-.79-1.92-2.08-3.6-3.72-4.88-.43-.33-.51-.95-.18-1.38,.33-.43,.95-.51,1.38-.18,1.92,1.48,3.42,3.45,4.34,5.68,.21,.5-.03,1.07-.53,1.28-.12,.05-.25,.07-.37,.07Zm-271.3-4.26c-.25,0-.51-.1-.7-.29-.38-.39-.38-1.01,.01-1.39,1.73-1.7,3.88-2.93,6.22-3.53,.53-.14,1.06,.18,1.2,.7,.14,.52-.18,1.06-.7,1.2-2,.52-3.85,1.57-5.33,3.03-.19,.19-.44,.28-.69,.28Zm261.14-3.58s-.09,0-.13,0c-.52-.07-1.06-.11-1.59-.11h-5c-.54,0-.98-.44-.98-.98s.44-.98,.98-.98h5c.62,0,1.24,.04,1.85,.12,.54,.07,.91,.57,.84,1.1-.07,.49-.49,.85-.97,.85Zm-13.44-.11h-6.72c-.54,0-.98-.44-.98-.98s.44-.98,.98-.98h6.72c.54,0,.98,.44,.98,.98s-.44,.98-.98,.98Zm-13.44,0h-6.72c-.54,0-.98-.44-.98-.98s.44-.98,.98-.98h6.72c.54,0,.98,.44,.98,.98s-.44,.98-.98,.98Zm-13.44,0h-6.72c-.54,0-.98-.44-.98-.98s.44-.98,.98-.98h6.72c.54,0,.98,.44,.98,.98s-.44,.98-.98,.98Zm-13.44,0h-6.72c-.54,0-.98-.44-.98-.98s.44-.98,.98-.98h6.72c.54,0,.98,.44,.98,.98s-.44,.98-.98,.98Zm-13.44,0h-6.72c-.54,0-.98-.44-.98-.98s.44-.98,.98-.98h6.72c.54,0,.98,.44,.98,.98s-.44,.98-.98,.98Zm-13.44,0h-6.72c-.54,0-.98-.44-.98-.98s.44-.98,.98-.98h6.72c.54,0,.98,.44,.98,.98s-.44,.98-.98,.98Zm-13.44,0h-6.72c-.54,0-.98-.44-.98-.98s.44-.98,.98-.98h6.72c.54,0,.98,.44,.98,.98s-.44,.98-.98,.98Zm-13.44,0h-6.72c-.54,0-.98-.44-.98-.98s.44-.98,.98-.98h6.72c.54,0,.98,.44,.98,.98s-.44,.98-.98,.98Zm-13.44,0h-6.72c-.54,0-.98-.44-.98-.98s.44-.98,.98-.98h6.72c.54,0,.98,.44,.98,.98s-.44,.98-.98,.98Zm-13.44,0h-6.72c-.54,0-.98-.44-.98-.98s.44-.98,.98-.98h6.72c.54,0,.98,.44,.98,.98s-.44,.98-.98,.98Zm-13.44,0h-6.72c-.54,0-.98-.44-.98-.98s.44-.98,.98-.98h6.72c.54,0,.98,.44,.98,.98s-.44,.98-.98,.98Zm-13.44,0h-6.72c-.54,0-.98-.44-.98-.98s.44-.98,.98-.98h6.72c.54,0,.98,.44,.98,.98s-.44,.98-.98,.98Zm-13.44,0h-6.72c-.54,0-.98-.44-.98-.98s.44-.98,.98-.98h6.72c.54,0,.98,.44,.98,.98s-.44,.98-.98,.98Zm-13.44,0h-6.72c-.54,0-.98-.44-.98-.98s.44-.98,.98-.98h6.72c.54,0,.98,.44,.98,.98s-.44,.98-.98,.98Zm-13.44,0h-6.72c-.54,0-.98-.44-.98-.98s.44-.98,.98-.98h6.72c.54,0,.98,.44,.98,.98s-.44,.98-.98,.98Zm-13.44,0h-6.72c-.54,0-.98-.44-.98-.98s.44-.98,.98-.98h6.72c.54,0,.98,.44,.98,.98s-.44,.98-.98,.98Zm-13.44,0h-6.72c-.54,0-.98-.44-.98-.98s.44-.98,.98-.98h6.72c.54,0,.98,.44,.98,.98s-.44,.98-.98,.98Zm-13.44,0h-6.72c-.54,0-.98-.44-.98-.98s.44-.98,.98-.98h6.72c.54,0,.98,.44,.98,.98s-.44,.98-.98,.98Z"/><path class="cls-19" d="M1146.81,1140.85h117.32v45.03h-117.32c-11.98,0-21.71-9.73-21.71-21.71v-1.61c0-11.98,9.73-21.71,21.71-21.71Z"/><path class="cls-12" d="M1264.13,1180.64h-4.29v-.66h4.29v.66Zm-8.59,0h-4.29v-.66h4.29v.66Zm-8.59,0h-4.29v-.66h4.29v.66Zm-8.59,0h-4.29v-.66h4.29v.66Zm-8.59,0h-4.29v-.66h4.29v.66Zm-8.59,0h-4.29v-.66h4.29v.66Zm-8.59,0h-4.29v-.66h4.29v.66Zm-8.59,0h-4.29v-.66h4.29v.66Zm-8.59,0h-4.29v-.66h4.29v.66Zm-8.59,0h-4.29v-.66h4.29v.66Zm-8.59,0h-4.29v-.66h4.29v.66Zm-8.59,0h-4.29v-.66h4.29v.66Zm-8.59,0h-4.29v-.66h4.29v.66Zm-8.59,0h-3.31c-.34,0-.67,0-1-.03l.04-.65c.32,.02,.64,.03,.96,.03h3.31v.66Zm-8.61-.75c-1.4-.41-2.75-.98-4.02-1.71l.33-.57c1.22,.7,2.52,1.25,3.87,1.64l-.18,.63Zm-7.51-4.31c-1.06-1.02-1.99-2.15-2.76-3.38l.56-.35c.74,1.18,1.63,2.28,2.65,3.25l-.45,.47Zm-4.57-7.35c-.43-1.39-.67-2.84-.72-4.31l.66-.02c.05,1.41,.28,2.8,.69,4.14l-.63,.19Zm.35-8.5l-.64-.15c.33-1.42,.85-2.79,1.55-4.08l.58,.31c-.67,1.24-1.17,2.56-1.49,3.92Zm3.93-7.34l-.48-.45c.98-1.06,2.1-2.01,3.33-2.82l.36,.55c-1.18,.78-2.26,1.69-3.21,2.71Zm6.97-4.59l-.22-.62c1.37-.49,2.8-.82,4.25-.98l.07,.65c-1.4,.15-2.78,.47-4.1,.94Zm121.09-1.05h-1.09v-.66h1.09v.66Zm-5.38,0h-4.29v-.66h4.29v.66Zm-8.59,0h-4.29v-.66h4.29v.66Zm-8.59,0h-4.29v-.66h4.29v.66Zm-8.59,0h-4.29v-.66h4.29v.66Zm-8.59,0h-4.29v-.66h4.29v.66Zm-8.59,0h-4.29v-.66h4.29v.66Zm-8.59,0h-4.29v-.66h4.29v.66Zm-8.59,0h-4.29v-.66h4.29v.66Zm-8.59,0h-4.29v-.66h4.29v.66Zm-8.59,0h-4.29v-.66h4.29v.66Zm-8.59,0h-4.29v-.66h4.29v.66Zm-8.59,0h-4.29v-.66h4.29v.66Zm-8.59,0h-4.29v-.66h4.29v.66Z"/><path class="cls-18" d="M1138.48,1162.94c0-5.14,4.17-9.3,9.31-9.3s9.3,4.17,9.3,9.3-4.17,9.3-9.3,9.3-9.31-4.17-9.31-9.3Z"/></g></g><g><path class="cls-2" d="M781.4,1180.71c-.08-65.72,53.13-119.06,118.85-119.14,65.72-.08,119.06,53.13,119.14,118.85,.08,65.72-53.13,119.06-118.85,119.14-65.72,.08-119.06-53.13-119.14-118.85Z"/><path class="cls-13" d="M801.09,1179.19c.76-54.84,45.84-98.68,100.68-97.92,54.84,.76,98.68,45.84,97.92,100.68-.76,54.84-45.84,98.68-100.68,97.92-54.84-.76-98.68-45.84-97.92-100.68Z"/><g><path class="cls-20" d="M981.13,1187.56c-3.24-.05-5.83-2.71-5.79-5.95,.05-3.24,2.71-5.83,5.95-5.78,3.24,.04,5.83,2.71,5.79,5.95-.05,3.24-2.71,5.83-5.95,5.79Z"/><path class="cls-20" d="M819.49,1185.31c-3.24-.04-5.83-2.71-5.79-5.95,.05-3.24,2.71-5.83,5.95-5.79,3.24,.04,5.83,2.71,5.79,5.95-.04,3.24-2.71,5.83-5.95,5.78Z"/></g><g><path class="cls-20" d="M907.38,1099.83c-.05,3.24-2.71,5.83-5.95,5.79-3.24-.05-5.83-2.71-5.79-5.95,.05-3.24,2.71-5.83,5.95-5.79,3.24,.05,5.83,2.71,5.79,5.95Z"/><path class="cls-20" d="M905.14,1261.48c-.05,3.24-2.71,5.83-5.95,5.78-3.24-.04-5.83-2.71-5.79-5.95,.04-3.24,2.71-5.83,5.95-5.79,3.24,.05,5.83,2.71,5.79,5.95Z"/></g><g><path class="cls-20" d="M863.93,1106.05c1.61,2.81,.63,6.4-2.18,8.01-2.81,1.61-6.4,.63-8.01-2.18-1.61-2.81-.63-6.4,2.18-8.01,2.81-1.61,6.4-.63,8.01,2.18Z"/><path class="cls-20" d="M944.22,1246.36c1.61,2.81,.63,6.4-2.18,8.01-2.81,1.61-6.4,.63-8.01-2.18-1.61-2.81-.64-6.4,2.18-8.01,2.81-1.61,6.4-.63,8.01,2.18Z"/></g><g><path class="cls-20" d="M937.49,1107.07c-1.69,2.77-.81,6.38,1.96,8.06,2.77,1.69,6.38,.81,8.06-1.96,1.69-2.77,.81-6.38-1.95-8.07-2.77-1.69-6.38-.81-8.06,1.96Z"/><path class="cls-20" d="M853.32,1245.1c-1.69,2.77-.81,6.38,1.96,8.06,2.77,1.69,6.38,.81,8.06-1.95,1.69-2.77,.81-6.38-1.95-8.06-2.77-1.69-6.38-.81-8.06,1.95Z"/></g><g><path class="cls-20" d="M834.13,1131.16c2.73,1.74,3.54,5.37,1.8,8.1-1.74,2.74-5.37,3.54-8.1,1.8-2.73-1.74-3.54-5.37-1.8-8.1,1.74-2.73,5.37-3.54,8.1-1.8Z"/><path class="cls-20" d="M970.55,1217.91c2.74,1.74,3.54,5.37,1.8,8.1-1.74,2.73-5.36,3.54-8.1,1.8-2.73-1.74-3.54-5.37-1.8-8.1,1.74-2.73,5.36-3.54,8.1-1.8Z"/></g><g><path class="cls-20" d="M966.02,1135.94c-2.85,1.54-3.92,5.1-2.38,7.95,1.54,2.85,5.1,3.92,7.95,2.38,2.85-1.54,3.92-5.1,2.38-7.95-1.54-2.85-5.09-3.92-7.95-2.38Z"/><path class="cls-20" d="M823.71,1212.65c-2.85,1.54-3.92,5.1-2.38,7.95,1.54,2.85,5.1,3.92,7.95,2.38,2.85-1.54,3.92-5.1,2.38-7.95-1.54-2.85-5.1-3.92-7.95-2.38Z"/></g><path class="cls-20" d="M899.62,1192.43c-4.79-.07-8.62-4-8.55-8.79,.07-4.79,4-8.62,8.79-8.55,4.79,.07,8.62,4,8.55,8.79-.07,4.79-4,8.62-8.79,8.55Z"/><g><path class="cls-20" d="M899.72,1185.48l1.73,.02c.95,.01,1.73-.75,1.75-1.7,.01-.95-.74-1.73-1.7-1.75h-.02l.66-53.44,2.11,3.15c.53,.79,1.6,1,2.39,.47,.79-.53,1-1.6,.47-2.39l-5.19-7.75c-.42-.63-1.19-.91-1.92-.69-.72,.21-1.22,.87-1.23,1.63l-.75,60.71c-.01,.95,.75,1.73,1.7,1.74Z"/><path class="cls-20" d="M894.51,1131.87c.5,0,1-.2,1.34-.62l5.95-7.1c.61-.73,.52-1.81-.21-2.43-.72-.61-1.81-.51-2.42,.22l-5.95,7.1c-.61,.73-.51,1.82,.22,2.43,.31,.26,.7,.4,1.08,.4Z"/></g><g><path class="cls-20" d="M930.82,1191.49c.45,0,.9-.16,1.24-.51l5.19-5.22c.49-.49,.64-1.22,.37-1.87-.26-.64-.88-1.06-1.57-1.07h0l-40.39-.47c-.95-.01-1.73,.75-1.74,1.7l-.02,1.74c-.01,.95,.75,1.73,1.7,1.74,.95,.01,1.73-.75,1.74-1.7v-.02l34.6,.4-2.32,2.34c-.67,.67-.67,1.76,0,2.43,.33,.33,.76,.49,1.19,.5Z"/><path class="cls-20" d="M936.01,1186.26c.38,0,.77-.12,1.09-.37,.75-.59,.87-1.67,.28-2.42l-4.7-5.92c-.6-.75-1.68-.86-2.42-.28-.74,.59-.87,1.67-.28,2.42l4.7,5.92c.34,.42,.83,.65,1.32,.65Z"/></g></g><g><g><path class="cls-6" d="M894.59,864.66c5.68-14.59-1.74-31.46-16.58-37.69-14.84-6.23-31.47,.54-37.16,15.13s1.74,31.46,16.58,37.69c14.84,6.23,31.47-.54,37.16-15.13Zm-6.37-2.67c-4.21,10.8-16.52,15.81-27.51,11.2-10.98-4.61-16.48-17.11-12.27-27.9,4.21-10.8,16.52-15.81,27.51-11.2,10.98,4.61,16.48,17.11,12.27,27.9Z"/><polygon class="cls-6" points="858.03 889.21 850.7 886.14 854.71 875.85 862.04 878.92 858.03 889.21"/><polygon class="cls-6" points="873.3 891.29 865.47 891.55 864.68 880.37 872.5 880.11 873.3 891.29"/><polygon class="cls-6" points="887.36 886.81 880.39 890.15 875.23 880.03 882.2 876.69 887.36 886.81"/><polygon class="cls-6" points="897.58 878.04 892.08 883.41 884.09 875.26 889.59 869.89 897.58 878.04"/><polygon class="cls-6" points="834.57 835.06 831.76 842.26 842.23 846.66 845.04 839.45 834.57 835.06"/><polygon class="cls-6" points="903.65 864.07 900.85 871.27 890.38 866.88 893.19 859.67 903.65 864.07"/><polygon class="cls-6" points="838.16 876.54 843.61 882.37 851.67 874.91 846.22 869.07 838.16 876.54"/><polygon class="cls-6" points="831.05 863.17 833.82 870.59 844.31 867.04 841.54 859.61 831.05 863.17"/><polygon class="cls-6" points="829.58 849.48 829.94 857.31 841.14 857.22 840.78 849.39 829.58 849.48"/><polygon class="cls-6" points="884.98 820.31 877.65 817.23 873.64 827.52 880.97 830.6 884.98 820.31"/><polygon class="cls-6" points="897.35 829.83 891.89 824 883.83 831.46 889.29 837.3 897.35 829.83"/><polygon class="cls-6" points="904.45 843.2 901.68 835.77 891.19 839.33 893.96 846.76 904.45 843.2"/><polygon class="cls-6" points="905.92 856.89 905.56 849.05 894.36 849.15 894.73 856.98 905.92 856.89"/><polygon class="cls-6" points="862.2 815.07 870.03 814.81 870.83 826 863 826.26 862.2 815.07"/><polygon class="cls-6" points="848.14 819.56 855.11 816.22 860.27 826.34 853.3 829.68 848.14 819.56"/><polygon class="cls-6" points="837.92 828.33 843.43 822.96 851.41 831.11 845.91 836.48 837.92 828.33"/></g><path class="cls-20" d="M814.16,950.69c3.62-3.15,6.58-6.86,8.84-10.94l18.83,3.48,3.35-22.57-16.98-3.13c-.14-3.33-.67-6.68-1.6-9.99l13.86-7.88-11.94-20.05-13.86,7.88c-2.48-2.43-5.2-4.53-8.1-6.3l5.6-15.97-21.74-8.31-6.21,17.71c-4.74-.09-9.51,.59-14.1,2.11l-9.27-15.57-19.65,11.17,10.18,17.09c-1.99,2.39-3.69,4.98-5.07,7.72l-20.12-3.71-3.35,22.57,19.1,3.53c.22,2.82,.72,5.65,1.51,8.44l-15.89,9.03,11.94,20.05,15.89-9.03c2.1,2.05,4.36,3.87,6.77,5.45l-6.3,17.97,21.74,8.31,6.63-18.93c3.12,.18,6.27,.02,9.38-.49l10.18,17.09,19.65-11.17-9.27-15.57Zm-17.4-13.23c-10.66,6.06-24.56,2.16-31.05-8.73-6.48-10.88-3.09-24.62,7.57-30.68,10.66-6.06,24.56-2.16,31.05,8.73,6.48,10.88,3.09,24.62-7.57,30.68Z"/><path class="cls-13" d="M807.04,828.12c2-1.74,3.64-3.79,4.88-6.04l10.4,1.92,1.85-12.46-9.38-1.73c-.08-1.84-.37-3.69-.89-5.52l7.65-4.35-6.6-11.07-7.65,4.35c-1.37-1.34-2.87-2.5-4.47-3.48l3.09-8.82-12-4.59-3.43,9.78c-2.62-.05-5.25,.33-7.79,1.16l-5.12-8.6-10.85,6.17,5.62,9.44c-1.1,1.32-2.04,2.75-2.8,4.27l-11.11-2.05-1.85,12.46,10.55,1.95c.12,1.56,.4,3.12,.83,4.66l-8.77,4.99,6.6,11.07,8.77-4.99c1.16,1.13,2.41,2.14,3.74,3.01l-3.48,9.92,12,4.59,3.66-10.45c1.73,.1,3.46,.01,5.18-.27l5.62,9.44,10.85-6.17-5.12-8.6Zm-9.61-7.31c-5.89,3.35-13.56,1.19-17.14-4.82-3.58-6.01-1.71-13.6,4.18-16.94,5.89-3.35,13.56-1.19,17.14,4.82,3.58,6.01,1.71,13.6-4.18,16.94Z"/></g><g><path class="cls-5" d="M1914.6,822.87c-7.31,2.73-12.03,9.05-12.03,16.02v154.59c0,31.63,15.01,61.25,40.18,79.28l90.82,58.2c6.04,3.87,14.25,3.87,20.29,0l90.82-58.2c25.17-18.03,40.18-47.65,40.18-79.28v-154.18c0-7.17-5-13.62-12.62-16.23-110.3-37.77-154.53-38.78-257.64-.2Z"/><rect class="cls-13" x="2015.05" y="847.85" width="56.35" height="196.8"/><rect class="cls-13" x="2019.78" y="847.85" width="56.35" height="196.8" transform="translate(2994.2 -1101.71) rotate(90)"/></g><g><g><path class="cls-15" d="M1717.95,794.41c.06-15.42-12-27.97-26.95-28.03-14.94-.06-27.11,12.38-27.17,27.8-.06,15.42,12,27.97,26.95,28.04,14.94,.06,27.11-12.38,27.17-27.8Z"/><path class="cls-15" d="M1651.95,865.73l77.31,.33s-1.81-33.18-38.52-33.34c-36.71-.16-38.79,33-38.79,33Z"/></g><g><rect class="cls-15" x="1738.31" y="802.86" width="59.61" height="13.84"/><rect class="cls-15" x="1737.36" y="802.43" width="61.51" height="14.71" transform="translate(2577.9 -958.33) rotate(90)"/></g></g><g><g><path class="cls-15" d="M2325.14,1050.47c.07-17.66-14.18-32.04-31.84-32.11-17.66-.07-32.04,14.18-32.11,31.84-.07,17.66,14.18,32.04,31.84,32.11,17.66,.07,32.04-14.18,32.11-31.84Z"/><path class="cls-15" d="M2247.15,1132.15l91.36,.38s-2.14-38-45.52-38.18c-43.38-.18-45.84,37.8-45.84,37.8Z"/></g><g><rect class="cls-15" x="2349.21" y="1060.15" width="70.45" height="15.85"/><rect class="cls-15" x="2349.21" y="1059.38" width="70.45" height="17.39" transform="translate(3452.5 -1316.35) rotate(90)"/></g></g><path class="cls-8" d="M1869.26,913.13c-60.36-77.97-140,17.61-140,17.61,0,0-79.65-95.57-140.01-17.61-60.36,77.97,140.01,228.04,140.01,228.04,0,0,200.37-150.07,140-228.04Z"/></svg>