<svg xmlns="http://www.w3.org/2000/svg" xmlns:xlink="http://www.w3.org/1999/xlink" width="349.31" height="290.992" viewBox="0 0 349.31 290.992"><defs><linearGradient id="a" x1="0.049" y1="-0.529" x2="3.172" y2="6.557" gradientUnits="objectBoundingBox"><stop offset="0" stop-color="#ffb886"/><stop offset="1" stop-color="#ffa486"/></linearGradient><linearGradient id="b" x1="0.073" y1="-0.024" x2="0.792" y2="1.089" xlink:href="#a"/><linearGradient id="c" x1="0" y1="0.5" x2="1" y2="0.5" xlink:href="#a"/><linearGradient id="d" x1="18.543" y1="5.807" x2="19.297" y2="7.21" gradientUnits="objectBoundingBox"><stop offset="0" stop-color="#e795f4"/><stop offset="1" stop-color="#ffeadb"/></linearGradient><linearGradient id="e" x1="-0.291" y1="-0.255" x2="0.79" y2="0.947" xlink:href="#a"/><linearGradient id="f" y1="0.5" x2="1" y2="0.5" gradientUnits="objectBoundingBox"><stop offset="0" stop-color="#0d3358"/><stop offset="1" stop-color="#002140"/></linearGradient><linearGradient id="g" x1="0.46" y1="-0.455" x2="0.553" y2="1.483" gradientUnits="objectBoundingBox"><stop offset="0" stop-color="#ffeadb"/><stop offset="1" stop-color="#606060"/></linearGradient><linearGradient id="h" x1="0.139" y1="0.19" x2="0.744" y2="1.12" xlink:href="#a"/><linearGradient id="i" x1="0.001" y1="0.5" x2="1" y2="0.5" xlink:href="#d"/><linearGradient id="j" x1="-0.291" y1="-1.715" x2="1.29" y2="2.427" xlink:href="#d"/><linearGradient id="k" x1="-0.148" y1="0.009" x2="0.781" y2="0.848" gradientUnits="objectBoundingBox"><stop offset="0" stop-color="#184642"/><stop offset="1" stop-color="#001115"/></linearGradient><linearGradient id="l" x1="0.5" y1="1.021" x2="0.5" y2="-0.099" gradientUnits="objectBoundingBox"><stop offset="0.01" stop-color="#d195ab"/><stop offset="1" stop-color="#8e81f4"/></linearGradient><linearGradient id="m" x1="0.499" y1="1.001" x2="0.499" y2="0.002" gradientUnits="objectBoundingBox"><stop offset="0.02" stop-color="#ffae78"/><stop offset="1" stop-color="#ff957c"/></linearGradient><linearGradient id="n" x1="0.5" y1="1.022" x2="0.5" y2="-0.099" xlink:href="#a"/><linearGradient id="o" x1="3.104" y1="-361.321" x2="4.094" y2="-361.321" gradientUnits="objectBoundingBox"><stop offset="0" stop-color="#994540"/><stop offset="0.99" stop-color="#772438"/></linearGradient><linearGradient id="p" x1="-179.634" y1="271.72" x2="-178.647" y2="271.72" xlink:href="#o"/><linearGradient id="q" x1="0.025" y1="0.009" x2="0.974" y2="1.05" xlink:href="#o"/><linearGradient id="r" x1="0.023" y1="0.009" x2="0.973" y2="1.05" gradientUnits="objectBoundingBox"><stop offset="0.01" stop-color="#be6888"/><stop offset="1" stop-color="#8e81f4"/></linearGradient><linearGradient id="s" x1="-423.012" y1="1.001" x2="-423.012" y2="0.002" xlink:href="#m"/><linearGradient id="t" x1="-7956.545" y1="249.167" x2="-7957.358" y2="249.895" gradientUnits="objectBoundingBox"><stop offset="0" stop-color="#ffeadb"/><stop offset="0.99" stop-color="#b060f4"/></linearGradient><linearGradient id="u" x1="-0.001" y1="0.5" x2="1" y2="0.5" xlink:href="#r"/><linearGradient id="v" x1="-0.223" y1="-0.062" x2="1.107" y2="1.086" xlink:href="#r"/><linearGradient id="w" x1="0.319" y1="-0.395" x2="0.675" y2="1.424" xlink:href="#r"/><linearGradient id="x" x1="0.061" y1="0.156" x2="0.954" y2="0.853" xlink:href="#r"/><linearGradient id="y" x1="-1.287" y1="0.073" x2="2.214" y2="0.928" xlink:href="#r"/><linearGradient id="z" x1="0.5" y1="0.006" x2="0.5" y2="1.038" xlink:href="#r"/><linearGradient id="aa" x1="0" y1="0.5" x2="1" y2="0.5" xlink:href="#r"/><linearGradient id="ab" x1="0" y1="0.499" x2="1" y2="0.499" xlink:href="#r"/><linearGradient id="ac" x1="0" y1="0.455" x2="1" y2="0.455" xlink:href="#r"/><linearGradient id="ad" x1="0.501" y1="1" x2="0.501" gradientUnits="objectBoundingBox"><stop offset="0" stop-color="#ffeadb"/><stop offset="0.99" stop-color="#606060"/></linearGradient><linearGradient id="ae" x1="0.499" y1="1" x2="0.499" y2="-0.001" xlink:href="#t"/><linearGradient id="af" x1="0.499" y1="-0.277" x2="0.499" y2="1.018" gradientUnits="objectBoundingBox"><stop offset="0.03" stop-color="#ff6a68"/><stop offset="1" stop-color="#ff7c5e"/></linearGradient><linearGradient id="ag" x1="0.498" y1="-0.241" x2="0.498" y2="1.009" xlink:href="#af"/><linearGradient id="ah" y1="0.5" x2="1" y2="0.5" gradientUnits="objectBoundingBox"><stop offset="0" stop-color="#ffb486"/><stop offset="1" stop-color="#af7556" stop-opacity="0.78"/></linearGradient><linearGradient id="ai" x1="-6.38" y1="-7.555" x2="1.206" y2="1.41" xlink:href="#a"/><linearGradient id="aj" x1="-0.001" y1="0.501" x2="1" y2="0.501" xlink:href="#d"/><linearGradient id="ak" x1="-1.082" y1="-0.842" x2="0.988" y2="0.948" xlink:href="#a"/><linearGradient id="al" x1="-3.659" y1="-0.335" x2="1.553" y2="0.708" xlink:href="#d"/></defs><g transform="translate(0 0.002)"><circle cx="59.02" cy="59.02" r="59.02" transform="translate(46.041 127.182) rotate(-45)" fill="#25a675" opacity="0.75"/><circle cx="59.02" cy="59.02" r="59.02" transform="translate(145.677 127.186) rotate(-45)" fill="#9ae0f9" opacity="0.75"/><circle cx="59.02" cy="59.02" r="59.02" transform="translate(99.185 88.745) rotate(-45)" fill="#53326d" opacity="0.75"/><circle cx="59.02" cy="59.02" r="59.02" transform="translate(99.183 174.313) rotate(-45)" fill="#0d548a" opacity="0.75"/><ellipse cx="53.16" cy="3.76" rx="53.16" ry="3.76" transform="translate(128.67 283.47)" fill="#d1d4de"/><path d="M167.51,98.18h18.38l2.88,15.93-18.44,2.02-4.06-.44c-.06-.11-.12-2.08-.15-2.23-.16-.72,1.38-15.28,1.38-15.28Z" fill="#3b121c"/><path d="M172.47,104.75v5.05c0,.88-.42,2.96-3.66,3.87s-6.57,1.79-6.57,1.79l7.33,12.73h18.16l3.08-10.96a56.006,56.006,0,0,1-5.44-3.63,6.322,6.322,0,0,1-2.06-4.65v-4.2H172.46Z" fill="url(#a)"/><path d="M246.75,184.29h0s.77,1.37.3,1.55a1.066,1.066,0,0,1-.46.08,1.392,1.392,0,0,1-.93-.52,1.03,1.03,0,0,1-1.32.15h0a1.752,1.752,0,0,1-.37-.42c-.76-1.19-4.37-7.8-5.94-8.99-1.36-1.03-1.77-1.36-1.88-.65a2.373,2.373,0,0,0-.03.41c-.04,1.21.87,3,.4,3.99s-1.55,1.13-1.89.18-2.25-6.75-2.22-9.14.97-2.72-.21-4.17-3.13-3.68-13.37-11.5a51.187,51.187,0,0,1-9.63-8.95c-2.14-2.5-7.98-6.93-11.04-10.16a22.221,22.221,0,0,0-2.94-2.98.284.284,0,0,0-.12-.04l-.97,5.48-.18.99h-3.13V119.59l.13-.2.95-1.48h.15a9.833,9.833,0,0,1,8.73,4.83c1.48,2.36,1.35,3.56,3.59,5.44s9.55,10.26,11.67,11.83,5.74,3.26,12.27,12.88,10.44,13.7,11.65,16.12c1.06,2.11,5.71,10.41,7.04,13.71h0a6.1,6.1,0,0,1,.35,1.09c.05.32-.07.45-.22.49a.627.627,0,0,1-.36-.02Z" fill="url(#b)"/><path d="M190.16,204.07a11.678,11.678,0,0,1-4.57.38,7.1,7.1,0,0,1-3.12-1.14h0c-1.2-.83-3.98-1.41-4.67-.54h0a3.378,3.378,0,0,0-1.01,2.82c.07,1.08.88,3.2.98,5.06a12.192,12.192,0,0,1-.63,4.22l-.18.6a21.733,21.733,0,0,0-.64,8.22c.21,1.29.31,1.11.26,1.52a6.439,6.439,0,0,0,.29,3.12,1.137,1.137,0,0,0,.85.65h0c.46.06.9-.27.9-1.05a4.833,4.833,0,0,1,.97-1.92c.23-.35.19-1,.49-1.54a11.333,11.333,0,0,0,1.28-3.47,16.454,16.454,0,0,1,1.11-3.64c.96-2.08,6.25-5.14,10.17-6.3l-2.48-6.99Z" fill="url(#c)"/><path d="M181.96,206.26s-1.37,1.79-.21,3.04a1.725,1.725,0,0,1-1.15-1.51C180.6,206.96,181.51,206.39,181.96,206.26Z" fill="#dd7a68"/><path d="M177.71,228.98a1.14,1.14,0,0,1-.85-.64,6.412,6.412,0,0,1-.28-3.12c.06-.41-.05-.23-.26-1.52a21.754,21.754,0,0,1,.64-8.22c.06-.2.12-.4.18-.61,0,0-.84,4.85-.53,6.44a6.959,6.959,0,0,0,1.19,3.24s-.75.58-.78,1.17a7.626,7.626,0,0,0,.25,2.78,1.067,1.067,0,0,0,.45.48Z" opacity="0.6" fill="url(#d)"/><path d="M237.48,202.82c-.79,2.48-2.48,3.39-3.75,4.35s-3.39,0-7.56,0-23.84.12-31.57,3.1c-.71.28-1.37.53-1.97.78a4.6,4.6,0,0,1-1.32-1.73h0a13.411,13.411,0,0,1-1.21-5.26h.05a7.237,7.237,0,0,0,1.87-.59c2.46-1.25,8.14-3.23,13.42-5.4,0,0-4.35-2.68-13.24-5.4-7.78-2.38-9.57-2.58-14.04-4.96-.87-.46-1.3,1.25-1.3,2.24a221.691,221.691,0,0,1-.61,38.87c-.07.61-.76,3.05-.91,4.38s1.69,7.95.85,17.26c-.22,2.39-.24,2.85-.28,3.26.02.02-.22,2.08-.29,5.14a53.974,53.974,0,0,0,.27,6.89h0c.17,1.52.44,3.33.85,5.5,1.45,7.68,1.11,10.76,1.11,10.76h-8.78s.56-6.12.73-11.2a26.163,26.163,0,0,0-.38-4.73c-.76-4.91-2.52-11.17-4.09-17.49-1.37-5.51,0-11.06,0-16.56s-3.02-12.07-4.47-19.32-3.31-21.43-2.42-31.99a33.5,33.5,0,0,1,1.03-5.26c.84-3.19,1.64-5.73,2.37-7.78.11-.3.22-.6.32-.88.09-.24.18-.48.27-.71,1.98-5.17,3.34-6.92,3.39-9.67.06-3.26-1.75-10.03-1.75-10.03l1.85-.96,3.22-1.66,1.03-.53h16.08l5.61,3.45s-.83,4.56-1.47,7.19c-1,4.14.99,8.06,2.27,12.41.07.23.14.47.2.71a.109.109,0,0,0,.01.05c.08.29.15.59.22.88.05.22.1.44.14.66a17.276,17.276,0,0,1,.33,4.75s13.72,3.02,37.42,19.14a47.082,47.082,0,0,1,6.53,5.64,8.142,8.142,0,0,1,0,4.72Z" fill="url(#e)"/><path d="M194.16,138.83l-.22.79-1.92,7.03a.872.872,0,0,0-.19.03c-.52.07-2.07.27-4.34.44s-5.25.34-8.66.34a111.171,111.171,0,0,1-14.8-1.09l-2.96-7.5s2.58-8.95,3.32-13.66-2.9-9.49-2.9-9.49l2-.6s3.94,6.87,7.65,8.72,8.1,3.23,14.59-.4c3.11-1.74,4.07-5.85,4.07-6.81l2.26,1.09a1,1,0,0,1-.03.2,38.28,38.28,0,0,0-.28,4.95,27.5,27.5,0,0,0,.3,4.07c.62,4.07,1.82,10.46,2.06,11.68.02.13.04.21.04.21Z" fill="url(#f)"/><path d="M190.36,153.87c-1,4.14.99,8.06,2.27,12.41.07.23.14.47.2.71a.109.109,0,0,0,.01.05c.08.29.15.59.22.88.05.22.1.44.14.66a8.13,8.13,0,0,1-1.57.53c-.82.18-2.27.45-2.27.45a13.5,13.5,0,0,0-.54-3.46c-.59-2.32-2.31-5.39-2.59-8.23-.41-4.05,1.29-10.03,1.29-10.03l-.04-.73v-.07a18.7,18.7,0,0,1-4.46-.25,9.244,9.244,0,0,1-.93-.25c-1.88-.58-4.03-1.65-6.5-1.54-2.9.14-5.49.93-7.47.99a4.12,4.12,0,0,1-2.23-.6,5.648,5.648,0,0,1-2.34-2.81c.05.05,1.89,1.96,5.55,1.16.14-.03.27-.06.41-.1.55-.15,1.05-.29,1.49-.43a25.041,25.041,0,0,0,4.73-2.1,6.849,6.849,0,0,1,3.55-.22,14.1,14.1,0,0,1,3.35,1.3c2.42,1.12,6.62.03,7.61-1.74.19-.34.37-.73.56-1.15a18.6,18.6,0,0,0,1.49-5.39c.01-.5-.71-8.74-.54-11.04a27.5,27.5,0,0,0,.3,4.07c.62,4.07,1.82,10.46,2.06,11.68.02.13.04.21.04.21l-.22.79-1.92,7.03a.872.872,0,0,0-.19.03s-.83,4.56-1.47,7.19Z" opacity="0.78" fill="url(#g)"/><path d="M173.93,146.65v5.39c-.67,0-1.36-.01-1.88-.01h-.53c-5.3-.06-10.26,1.1-14.67,2.04a35.079,35.079,0,0,1-12.05.81,5.439,5.439,0,0,1-.85-.12.79.79,0,0,1-.13-.03c-.1-.02-.19-.05-.29-.08a1.555,1.555,0,0,1-.23-.08.212.212,0,0,1-.07-.03l-.21-.09h0l-.24-.12c-.04-.02-.08-.05-.12-.07-.08-.05-.16-.1-.24-.16a1.734,1.734,0,0,1-.21-.17c-.07-.06-.13-.11-.19-.17s-.12-.12-.17-.18c-.02-.02-.04-.05-.06-.07a.642.642,0,0,1-.1-.13c-.02-.02-.04-.05-.06-.07-.03-.04-.06-.09-.09-.14-.02-.03-.04-.07-.06-.1a1,1,0,0,1-.08-.14c-.07-.14-.14-.29-.2-.44a.049.049,0,0,0-.01-.03.044.044,0,0,0-.01-.03,8.517,8.517,0,0,1,.37-5.68c1.01-2.46,3.42-6.42,4.03-8.62,1.37-4.96,4.59-9.91,5.36-11.36s.28-3.22,2.62-6.93,7.96-4.09,7.96-4.09h0c.1.14,3.64,4.85,2.9,9.49-.75,4.71-3.32,13.66-3.32,13.66l-1.83-5.24a72.142,72.142,0,0,1-6.62,10.85c-.58.8-.94,1.28-.94,1.28s4.72.08,8.62.36c.96.07,2.28.14,3.71.2,4.39.19,9.91.33,9.91.33Z" fill="url(#h)"/><path d="M162.24,127.15c-.48.89-3,6.49-3,6.49a72.142,72.142,0,0,1-6.62,10.85c-.58.8-.94,1.28-.94,1.28l-.88.03h-.04s.24-.5.48-.96a6.188,6.188,0,0,1,.4-.69,150.756,150.756,0,0,0,9.14-15.95,4.811,4.811,0,0,0,.29-3.3c.09.07,1.64,1.39,1.17,2.25Z" opacity="0.6" fill="url(#i)"/><path d="M173.93,151.52v.53c-.67,0-1.36-.01-1.88-.01h-.53c-5.3-.06-10.26,1.1-14.67,2.04a35.079,35.079,0,0,1-12.05.81,5.439,5.439,0,0,1-.85-.12.79.79,0,0,1-.13-.03c-.1-.02-.19-.05-.29-.08a1.555,1.555,0,0,1-.23-.08.212.212,0,0,1-.07-.03l-.21-.09h0l-.24-.12c-.04-.02-.08-.05-.12-.07-.08-.05-.16-.1-.24-.16a1.734,1.734,0,0,1-.21-.17c-.07-.06-.13-.11-.19-.17s-.12-.12-.17-.18c-.02-.02-.04-.05-.06-.07a.642.642,0,0,1-.1-.13c-.02-.02-.04-.05-.06-.07-.03-.04-.06-.09-.09-.14-.02-.03-.04-.07-.06-.1a1,1,0,0,1-.08-.14,2.482,2.482,0,0,1-.2-.44c.2.4,1.8,2.82,10.46,1.1a100.572,100.572,0,0,1,20.13-2.13c.76.01,1.47.04,2.15.08Z" opacity="0.6" fill="url(#j)"/><path d="M237.48,202.83c-.79,2.48-2.48,3.39-3.75,4.35s-3.39,0-7.56,0-23.84.12-31.57,3.1c-.71.28-1.37.53-1.97.78a4.6,4.6,0,0,1-1.32-1.73h0a20.361,20.361,0,0,1-1.16-5.27,7.237,7.237,0,0,0,1.87-.59c2.46-1.25,8.14-3.23,13.42-5.4,0,0-4.35-2.68-13.24-5.4-7.78-2.38-9.57-2.58-14.04-4.96-.87-.46-1.3,1.25-1.3,2.24a221.691,221.691,0,0,1-.61,38.87c-.07.61-.76,3.05-.91,4.38s1.69,7.95.85,17.26c-.22,2.39-.24,2.85-.28,3.26.02.02-.22,2.08-.29,5.14a53.974,53.974,0,0,0,.27,6.89h0v.15c-.27.08-.57.15-.89.22a14.087,14.087,0,0,1-5.6-.04c-.76-4.91-2.52-11.17-4.09-17.49-1.37-5.51,0-11.06,0-16.56s-3.02-12.07-4.47-19.32-3.31-21.43-2.42-31.99a33.5,33.5,0,0,1,1.03-5.26,89.416,89.416,0,0,1,2.69-8.66c6.57,2.12,8.88,2.73,14.96,2.74h.34c4.57,0,11.26-1.49,15.4-2.54a.109.109,0,0,0,.01.05,18.28,18.28,0,0,1,.69,6.28h0s13.72,3.03,37.42,19.15a38.357,38.357,0,0,1,4.35,3.52c1.31,1.2,2.17,2.12,2.17,2.12a8.142,8.142,0,0,1,0,4.72Z" fill="url(#k)"/><path d="M193.06,167.92a53.292,53.292,0,0,1-15.51,2.47,48.822,48.822,0,0,1-15.74-2.72c.11-.3.22-.6.32-.88.09-.24.18-.48.27-.71,10.18,3.41,19.35,3.48,30.23.2.07.23.14.47.2.71a.109.109,0,0,0,.01.05C192.92,167.33,192.99,167.63,193.06,167.92Z" fill="#000015"/><path d="M183.32,107.91l-.09.08s-1.7,2.47-2.26,3.26c-.48.67-2.39.6-2.87.28-.59-.38-5.33-4.96-5.45-5.07,0-.61-.01-1.01-.01-1.01l10.77-.08a20.671,20.671,0,0,0-.09,2.54Z" opacity="0.5" fill="url(#l)"/><path d="M187.56,93.84l-1.08,5.56s.27.44.55.44c.75,0,2.7-2.37,2.81-5.08s-1.29-2.46-2.28-.93Z" fill="url(#m)"/><path d="M188.18,93.84c-.33,2.03-2,8.66-2.91,10.23a21.153,21.153,0,0,1-4.13,4.01,8.648,8.648,0,0,1-2.05,1.3,3.575,3.575,0,0,1-2.33,0c-1.17-.34-5.37-3.91-6.18-5.31-.9-1.55-2.59-8.28-2.91-10.23a8.44,8.44,0,0,1-.09-1,16.48,16.48,0,0,1,.68-5.52c.02-.05.03-.1.05-.15a12.13,12.13,0,0,1,1.41-3c.01-.02.03-.04.04-.06a9.7,9.7,0,0,1,8.69-3.98,12.816,12.816,0,0,1,3.1.53c3.84,1.19,6.17,5.24,6.68,9.38a13.789,13.789,0,0,1-.05,3.8Z" fill="url(#n)"/><path d="M179.26,91.43l.64.67a23.243,23.243,0,0,1,2.99-.82,4.043,4.043,0,0,1,3.07.76,3.571,3.571,0,0,0-2.21-1.36C182.34,90.46,179.26,91.43,179.26,91.43Z" fill="url(#o)"/><path d="M176.22,91.57l-.67.65a26.061,26.061,0,0,0-2.95-.95,4.046,4.046,0,0,0-3.1.63,3.619,3.619,0,0,1,2.26-1.27c1.41-.16,4.45.94,4.45.94Z" fill="url(#p)"/><path d="M175.15,82.49s3.78,1.63,3.78,8.48c0,0,.63-4.68-.86-7.63,0,0,3.11.68,4.5,8.26h.54a16.471,16.471,0,0,0,0-4.09s3.44-.36,3.26,25c-.18,2.66-1.74,5.51-3.12,6.48,0,0,1.18.58,3.13-2.06a4.094,4.094,0,0,1-1.21,4.66,4.838,4.838,0,0,0,2.85-1.57s-.66,2.51-2.28,3.27a6.278,6.278,0,0,0,5.19-4.78c1.2-4.42.54-27.91-1.32-33.24s-8.52-9.08-10.5-9.02-2.46-.03-4.65,1.7c0,0-3.33-.21-6.12,4.81s-2.31,12.92-1.53,19.83c.44,3.91-1.47,5.75-.48,11.41,0,0,.37-4.15,1.25-5.24,0,0,1.34,6.36,4.7,6.78,0,0-4.8-6.42-3.42-17.86l-.17-1.96.35-2.83.47.85s1.37-6.28,2.76-8.32c0,0,.32,4,1.8,6.22,0,0-1.44-7.54,1.08-9.16Z" fill="url(#q)"/><path d="M190.94,118.51a6.278,6.278,0,0,1-5.19,4.78c1.62-.76,2.28-3.27,2.28-3.27a4.838,4.838,0,0,1-2.85,1.57,4.094,4.094,0,0,0,1.21-4.66c-1.94,2.63-3.13,2.06-3.13,2.06,1.38-.97,2.94-3.81,3.12-6.48.13-18.33-1.63-23.22-2.61-24.53-.38-.5-.64-.47-.64-.47a16.471,16.471,0,0,1,0,4.09h-.54c-.15-1.84-.89-6.06-3.51-7.7a2.705,2.705,0,0,0-.99-.56c1.49,2.95.86,7.63.86,7.63,0-5.15-2.15-7.35-3.2-8.12a3.577,3.577,0,0,0-.58-.35,2.155,2.155,0,0,0-.52.48c-1.77,2.24-.59,8.53-.56,8.68a23.432,23.432,0,0,1-1.25-4.59,10.626,10.626,0,0,1,0-3.33,6.489,6.489,0,0,1,.35-1.57,8.555,8.555,0,0,0-.89,3.27c-1.4,2.04-2.76,8.32-2.76,8.32l-.47-.85-.35,2.83.17,1.96c-1.38,11.44,3.42,17.86,3.42,17.86-3.36-.42-4.7-6.78-4.7-6.78-.88,1.09-1.25,5.24-1.25,5.24a17.131,17.131,0,0,1,.12-6.81c-.31,3.11.14,1.91.31.83s.96-2.35.39-8.59a49.245,49.245,0,0,1-.04-9.32h0c.07-.23,2.19-7.36,6.5-10.59-.12.06-4.03,2-6.35,9.32a16.815,16.815,0,0,1,1.83-6.04,10.4,10.4,0,0,1,4.73-4.58,4.38,4.38,0,0,0-1.67.41,5.827,5.827,0,0,1,1.59-.61h0a3.541,3.541,0,0,1,.73-.08q.465-.36.84-.63a4.732,4.732,0,0,1,2.14-.97,14.963,14.963,0,0,1,1.67-.09c1.98-.06,8.64,3.69,10.5,9.02s2.52,28.82,1.32,33.24Z" opacity="0.5" fill="url(#r)"/><path d="M168.31,93.84l1.08,5.56s-.27.44-.55.44c-.75,0-2.7-2.37-2.81-5.08s1.29-2.46,2.28-.93Z" fill="url(#s)"/><path d="M168.44,96.95a11.132,11.132,0,0,0-.84-3.27c-.6-.89-1.05.23-1.25,1.37,0,0,.2-1.03.64-.96.35.06.45.71.45.71s-.64,2.23.16,3.23a3.245,3.245,0,0,1,.01-2.35,4.127,4.127,0,0,1,.82,1.28Z" fill-rule="evenodd" opacity="0.6" fill="url(#t)"/><path d="M190.94,118.51a6.278,6.278,0,0,1-5.19,4.78c1.62-.76,2.28-3.27,2.28-3.27a4.838,4.838,0,0,1-2.85,1.57s4.67-2.83,4.67-6.99,1.17-19.81-1.68-28.58a13.693,13.693,0,0,0-10.71-9.67h-.01a12.666,12.666,0,0,1,1.67-.1c1.98-.06,8.64,3.69,10.5,9.02s2.52,28.82,1.32,33.24Z" opacity="0.5" fill="url(#u)"/><path d="M183.76,87.98h0c-.38-.5-.64-.47-.64-.47a14.8,14.8,0,0,0-1.69-4.99A21.844,21.844,0,0,1,183.76,87.98Z" opacity="0.5" fill="url(#v)"/><path d="M175.73,78.2a5.975,5.975,0,0,1,1.11-.18,7.105,7.105,0,0,1,1.13,0,8.747,8.747,0,0,1,1.13.15,8.574,8.574,0,0,1,1.1.31,8.856,8.856,0,0,1,1.04.46c.17.09.33.19.49.29s.31.21.47.32a7.1,7.1,0,0,1,1.56,1.63,11.515,11.515,0,0,0-1.72-1.41,9.7,9.7,0,0,0-1.96-.98,7.876,7.876,0,0,0-1.05-.31,10.231,10.231,0,0,0-1.08-.2c-.36-.05-.73-.08-1.1-.1a10.462,10.462,0,0,0-1.12,0Z" opacity="0.5" fill="url(#w)"/><path d="M186.38,116.93c-1.94,2.63-3.13,2.06-3.13,2.06,1.13-.66,4.05-.76,4.57-11.83a28.754,28.754,0,0,1-1.44,9.78Z" opacity="0.5" fill="url(#x)"/><path d="M185.57,84.01c1.01,1.14,1.86,4.72,2.14,6.22,1.26,5.85,1.13,13.78.64,19.73-.16-2.9-.1-5.61-.54-13.13-.07-1.74-.8-10.67-2.23-12.82Z" opacity="0.5" fill="url(#y)"/><path d="M175.36,82.6a1.367,1.367,0,0,0-.21-.11,1.5,1.5,0,0,0-.24.18s-.09-2.25-.11-3.31a1.675,1.675,0,0,0-.56-1.41,1.249,1.249,0,0,1,.22,0c.1-.08.19-.15.28-.22a7.844,7.844,0,0,0,.45,1.87,14.959,14.959,0,0,0,.17,3Z" opacity="0.31" fill="url(#z)"/><path d="M186.14,88.92l.03.18A.758.758,0,0,0,186.14,88.92Z" opacity="0.5" fill="url(#aa)"/><path d="M175.38,77.99a5.646,5.646,0,0,1-.09-.67c-.17.12-.36.26-.56.41h0c-.09.07-.18.14-.28.22h-.22a3.169,3.169,0,0,0-.51.07c.77.02.45.72.45.72a1.064,1.064,0,0,1,.41,1.25.586.586,0,0,1-.39.43c-.65.19-2.36,1-4.18,4.29a9.327,9.327,0,0,1,3.96-3.82.568.568,0,0,1,.78.5,8.057,8.057,0,0,1-.12,1.58h0a1.963,1.963,0,0,1,.51-.47,1.367,1.367,0,0,1,.21.11,4.338,4.338,0,0,1,.37.24c-.06-.57-.1-1.1-.12-1.58a1.68,1.68,0,0,1,1.98-1.72,9.9,9.9,0,0,1,6.43,4.42,13.529,13.529,0,0,1,2.12,4.93c-1.56-8.77-7.84-9.92-9.81-10.07a1.03,1.03,0,0,1-.94-.83Z" opacity="0.5" fill="url(#ab)"/><path d="M170.01,84.71c-.04.07-.06.11-.06.11C169.97,84.78,169.99,84.75,170.01,84.71Z" opacity="0.5" fill="url(#ac)"/><path d="M180.31,96s1.29-3,3.64-3c1.61,0,1.27,1.51,1.27,1.96a4.806,4.806,0,0,1-2.55,1.22A13.871,13.871,0,0,1,180.31,96Z" fill="#dd6668" opacity="0.6"/><path d="M180.31,96a14.233,14.233,0,0,0,2.56-.16,5.738,5.738,0,0,0,2.83-1.32,5.409,5.409,0,0,1-2.57,1.88,5.112,5.112,0,0,1-2.82-.41Z" fill="#533a3e"/><path d="M183.74,96.13a1.372,1.372,0,0,0,.87.36,1.113,1.113,0,0,1-.69-.45l-.26-.05.07.15Z" fill="#533a3e"/><path d="M184.18,95.88a1.361,1.361,0,0,0,.88.29s-.59-.11-.74-.39h-.15v.09Z" fill="#533a3e"/><path d="M184.49,95.67a1.068,1.068,0,0,0,1.01.24s-.71.05-.88-.34l-.15-.05v.15Z" fill="#533a3e"/><path d="M184.84,95.4a1.187,1.187,0,0,0,.8.15s-.52-.04-.67-.25h-.15l.02.11Z" fill="#533a3e"/><path d="M185.16,95.1a1.63,1.63,0,0,0,.53-.04s-.33.02-.42-.07l-.14.07Z" fill="#533a3e"/><path d="M175.46,96s-1.29-3-3.64-3c-1.61,0-1.27,1.51-1.27,1.96a4.806,4.806,0,0,0,2.55,1.22A13.871,13.871,0,0,0,175.46,96Z" fill="#dd6668" opacity="0.6"/><path d="M175.46,96a14.233,14.233,0,0,1-2.56-.16,5.787,5.787,0,0,1-2.83-1.32,5.409,5.409,0,0,0,2.57,1.88,5.112,5.112,0,0,0,2.82-.41Z" fill="#533a3e"/><path d="M172.03,96.13a1.372,1.372,0,0,1-.87.36,1.113,1.113,0,0,0,.69-.45l.26-.05-.07.15Z" fill="#533a3e"/><path d="M171.59,95.88a1.361,1.361,0,0,1-.88.29s.59-.11.74-.39h.15v.09Z" fill="#533a3e"/><path d="M171.27,95.67a1.068,1.068,0,0,1-1.01.24s.71.05.88-.34l.15-.05v.15Z" fill="#533a3e"/><path d="M170.93,95.4a1.187,1.187,0,0,1-.8.15s.52-.04.67-.25h.15l-.02.11Z" fill="#533a3e"/><path d="M170.6,95.1a1.63,1.63,0,0,1-.53-.04s.33.02.42-.07l.14.07Z" fill="#533a3e"/><path d="M174.67,104.28a5.392,5.392,0,0,0,1.95,1.32,4.014,4.014,0,0,0,3.29-.28,12.767,12.767,0,0,0,1.32-1.04h-6.55Z" fill="#f07e65"/><path d="M181.22,104.28a.425.425,0,0,1-.21.14,1.433,1.433,0,0,1-.5.08c-.32,0-.98-.02-1.56-.04-.44-.01-.83-.03-1.01-.03s-.63.01-1.08.03c-.51.02-1.05.04-1.27.04a2.173,2.173,0,0,1-.49-.05,1.111,1.111,0,0,1-.43-.16,3.84,3.84,0,0,0,1.21-.22,13.869,13.869,0,0,1,1.28-.61c.21,0,.6.19.76.19s.6-.19.77-.19,2.38.84,2.53.84Z" fill="#ec6849"/><path d="M180.83,104.44s.2-.15.37-.29c.1-.09.39-.19.31.05s-.67.24-.67.24Z" fill="#d35443"/><path d="M175.15,104.46s-.2-.15-.37-.29c-.1-.09-.39-.19-.31.05s.67.24.67.24Z" fill="#d35443"/><path d="M181.01,104.42a1.433,1.433,0,0,1-.5.08c-.32,0-.98-.02-1.56-.04-.44-.01-.83-.03-1.01-.03s-.63.01-1.08.03c-.51.02-1.05.04-1.27.04a2.173,2.173,0,0,1-.49-.05,24.81,24.81,0,0,0,2.78-.25A18.259,18.259,0,0,0,181.01,104.42Z" fill="#d35443"/><path d="M188.18,94.12c-.33,2.03-2,8.66-2.91,10.23a21.153,21.153,0,0,1-4.13,4.01h-.02s2.93-3.17,3.46-5.61a36.172,36.172,0,0,0,.49-6.32c-1.46.72-5.1.61-5.19.26a15.939,15.939,0,0,1,0-4.49c2.35-2.06,5.2-.57,5.2-.67.01-4.71-2.66-6.81-2.66-6.81l2.16.38,3.65,5.24a13.789,13.789,0,0,1-.05,3.8Z" opacity="0.4" fill="url(#ad)"/><path d="M175.61,92.31s.56,3.81-.14,4.52-4.03.12-5.8-1.28V92a3.865,3.865,0,0,1,3.3-.81c2.15.34,2.65,1.12,2.65,1.12Z" opacity="0.4" fill="url(#ae)"/><path d="M176.05,100.62s-.12.24.28.55a1.487,1.487,0,0,1,.78.31,2.385,2.385,0,0,0,.86.25v-.97a12.658,12.658,0,0,1-1.91-.15Z" fill="url(#af)"/><path d="M179.85,100.58s.12.24-.27.56a1.469,1.469,0,0,0-.77.33,2.55,2.55,0,0,1-.85.27v-.97a12.785,12.785,0,0,0,1.89-.19Z" fill="url(#ag)"/><path d="M176.05,100.62a2.145,2.145,0,0,1,3.8-.04A8.947,8.947,0,0,1,176.05,100.62Z" fill="#f58e6f"/><path d="M246.98,182.74c-.13-.22-3.63-6.18-6.72-11.52-3.14-5.44-7.42-9.78-11.81-16.16a58.171,58.171,0,0,0-12.98-13.52c-5.26-5.08-13.48-13.34-13.48-13.34a38.9,38.9,0,0,0-3.03-5.56,7.807,7.807,0,0,0-5.67-3.23,4.507,4.507,0,0,0-2.36.25v-1.15l.95-.58a9.763,9.763,0,0,1,8.88,4.82c1.48,2.36,1.35,3.56,3.59,5.44s9.55,10.26,11.67,11.83,5.74,3.26,12.27,12.88,10.44,13.7,11.65,16.12c1.06,2.11,5.71,10.41,7.04,13.71Z" opacity="0.6" fill="url(#ah)"/><path d="M177.87,286.16c-.63,1.26-1.04,1.8-1.85,1.78a1.318,1.318,0,0,1-.44-.08h0a3.253,3.253,0,0,1-1.13-.66,1.991,1.991,0,0,1-.17.19,1.759,1.759,0,0,1-1.11.55,1.391,1.391,0,0,1-1.06-.37.943.943,0,0,1-.1-.1s-.03.02-.08.05a2.552,2.552,0,0,1-1.02.42,1.029,1.029,0,0,1-.69-.27.391.391,0,0,1-.14-.22s-.03.02-.08.05a1.261,1.261,0,0,1-.56.12c-.24-.01-.51-.31-.66-.52-.08-.11-.13-.19-.13-.19a.8.8,0,0,1-.13.08,1.129,1.129,0,0,1-.63.21,2.532,2.532,0,0,1-.94-1.96c-.06-1.06.41-1.89,1.22-3.17a5.291,5.291,0,0,0,1.07-2.65c.05-.7.59-1.54.69-2.38a44.036,44.036,0,0,1,.19-5.78l3.63-1.93,2.9,1.59a7.9,7.9,0,0,0,.37,2.5,9.324,9.324,0,0,1,.22,4.18,8.123,8.123,0,0,0,.67,3.81,7.756,7.756,0,0,1,0,4.77Z" fill="url(#ai)"/><path d="M175.57,287.86a3.253,3.253,0,0,1-1.13-.66,1.991,1.991,0,0,1-.17.19h0V285.7a8.528,8.528,0,0,1,.63-1.81,7.269,7.269,0,0,0-.36,2.77c.06.51.97,1.16,1.03,1.21Z" fill="#dd7a68"/><path d="M169.02,283.1a7.824,7.824,0,0,0-.45,1.39c0,.01.05.83.05.89.15,1.91.12,1.45.13,1.73-.08-.11-.13-.19-.13-.19a.8.8,0,0,1-.13.08c.01-3.05-.31-2.38.48-3.92C168.99,283.05,169.03,283.08,169.02,283.1Z" fill="#dd7a68"/><path d="M170.42,283.36s-.03.74-.06,1.11c-.05.59-.17,3.21-.17,3.21a.391.391,0,0,1-.14-.22s-.03.02-.08.05a35.263,35.263,0,0,1,.45-4.14Z" fill="#dd7a68"/><path d="M172.4,283.83s-.24,2.51-.31,3.74a.943.943,0,0,1-.1-.1s-.03.02-.08.05c0,0,.12-1.38.19-1.79s.3-1.91.3-1.91Z" fill="#dd7a68"/><path d="M246.59,185.92a1.392,1.392,0,0,1-.93-.52l-3.83-7.89v-.54a38.037,38.037,0,0,0,1.77,3.79c.32.66,1.63,3.26,1.98,4.04a2.554,2.554,0,0,0,1.01,1.12Z" fill="#dd7a68"/><path d="M247.12,184.31a.627.627,0,0,1-.36-.02h0l-3.24-6.49a20.659,20.659,0,0,1,1.6,2.89l2,3.62Z" fill="#dd7a68"/><path d="M244.34,185.55a1.576,1.576,0,0,1-.37-.42c-.76-1.19-4.37-7.8-5.94-8.99-1.36-1.03-1.77-1.36-1.88-.65,0,0,0-1.1.97-.9s2.72,3.06,3.63,4.51c.89,1.43,3.51,6.29,3.59,6.44Z" opacity="0.6" fill="url(#aj)"/><path d="M181.36,137.95v.03h0s.02.06.03.1h0a7.836,7.836,0,0,1-.01,1.64c-.04.61-.21,1.61-.29,2.44a13.146,13.146,0,0,0-.06,1.49c-.01.17-.03.34-.04.49-.15,1.91-.62,6.49-1.47,7.35h0a1.685,1.685,0,0,1-1.18.59,12.717,12.717,0,0,1-2.06,0c-.39-.02-1.36-.04-2.36-.04-.67,0-1.36-.01-1.88-.01h-.53l.26-.59,2.15-4.79a2.973,2.973,0,0,0,3.13-2.04c.79-2.4,2.1-6.66,2.32-7.75a59.659,59.659,0,0,0,.91-6.5s1.34-.26,1.43,1.51c.01.24.01.53,0,.86v.19a.218.218,0,0,1,.04.05,1.05,1.05,0,0,1,.06.67c-.07.63-.36,3.46-.42,4.05v.11a.134.134,0,0,1-.01.05v.1Z" fill="url(#ak)"/><path d="M181.39,137.69v.11a1.008,1.008,0,0,1-.01.15v.03h0a.533.533,0,0,0-.91.29c-.23.79-1.38,3.85-1.53,4.23.11-.34.89-2.68,1.17-3.65.3-1.04.38-1.28,1.29-1.16Z" fill="#dd7a68"/><path d="M181.76,132.99a1.385,1.385,0,0,0-.76-.19c-.26.04-.4.37-.47.7s-.12.68-.17,1.02-.11.7-.19,1.04c-.15.68-.32,1.36-.5,2.03s-.37,1.34-.57,2.01c0,.03-.04.05-.08.04a.068.068,0,0,1-.04-.08c.19-.67.37-1.34.55-2.01s.34-1.35.48-2.03q.105-.51.18-1.02a9.515,9.515,0,0,1,.16-1.05,2.144,2.144,0,0,1,.18-.52.632.632,0,0,1,.44-.34,1.051,1.051,0,0,1,.53.06c.08.03.16.06.23.09v.19a.218.218,0,0,1,.03.05.031.031,0,0,0,.01.02Z" fill="#dd7a68"/><path d="M181.39,139.73c-.04.61-.21,1.61-.29,2.44a13.146,13.146,0,0,0-.06,1.49c-.01.17-.03.34-.04.49-.15,1.91-.62,6.49-1.47,7.35h0a1.685,1.685,0,0,1-1.18.59,12.717,12.717,0,0,1-2.06,0c-.76-.04-3.72-.07-4.77-.07l.26-.59s6.23.69,7.44-.94,1.91-9.12,2.04-10.42.22-1.96,0-2.19l.12-.04v.13h0s.02.07.03.11h0a7.836,7.836,0,0,1-.01,1.64Z" opacity="0.6" fill="url(#al)"/><path d="M237.48,202.83c-.79,2.48-2.48,3.39-3.75,4.35s-3.39,0-7.56,0-23.84.12-31.57,3.1c-.71.28-1.37.53-1.97.78a4.6,4.6,0,0,1-1.32-1.73h0a20.361,20.361,0,0,1-1.16-5.27,7.237,7.237,0,0,0,1.87-.59c2.46-1.25,8.14-3.23,13.42-5.4,0,0-4.35-2.68-13.24-5.4-7.78-2.38-9.57-2.58-14.04-4.96-.87-.46-1.3,1.25-1.3,2.24a221.691,221.691,0,0,1-.61,38.87c-.07.61-.76,3.05-.91,4.38s1.69,7.95.85,17.26c-.22,2.39-.24,2.85-.28,3.26.02.02-.22,2.08-.29,5.14a53.974,53.974,0,0,0,.27,6.89h0v.15c-.27.08-.57.15-.89.22-.31-3.76-.77-10.96-.21-15.36.79-6.17-1.39-17.83-1.39-17.83a39.135,39.135,0,0,0,1.21-8.58s.5-9.25.4-13.34c-.16-7.11,1.14-25.08-4.68-29.02s3.59,2.9,5.81-1.37c1.4-2.68,1.25-7.71.94-11.1h.34c4.57,0,11.26-1.49,15.4-2.54a.109.109,0,0,0,.01.05,18.28,18.28,0,0,1,.69,6.28c-.16-.04-5.9-1.38-2.72.29,12.29,6.45,42.62,23.78,44.49,22.38h0c1.31,1.2,2.17,2.12,2.17,2.12a8.142,8.142,0,0,1,0,4.72Z"/><path d="M171.23,14.18a.429.429,0,0,0,.51-.69.507.507,0,0,0-.15-.07.425.425,0,0,0-.45.16.43.43,0,0,0,.09.6Z" fill="#4d5254"/><path d="M164.5,9.83a.425.425,0,1,0,.42-.74.418.418,0,0,0-.1-.04.429.429,0,0,0-.48.2A.423.423,0,0,0,164.5,9.83Z" fill="#4d5254"/><path d="M166.81,11.19a.429.429,0,0,0,.45-.73.612.612,0,0,0-.12-.05.423.423,0,0,0-.47.19.436.436,0,0,0,.14.59Z" fill="#4d5254"/><path d="M169.05,12.64a.424.424,0,1,0,.48-.7.379.379,0,0,0-.13-.06.424.424,0,0,0-.35.76Z" fill="#4d5254"/><path d="M173.34,15.83a.426.426,0,0,0,.54-.66.347.347,0,0,0-.16-.08.416.416,0,0,0-.44.14A.428.428,0,0,0,173.34,15.83Z" fill="#4d5254"/><path d="M180.87,23.36a.427.427,0,0,0,.67-.53.541.541,0,0,0-.22-.15.428.428,0,0,0-.44.68Z" fill="#4d5254"/><path d="M179.14,21.34h0a.417.417,0,0,0,.6.03.426.426,0,0,0,.03-.6.465.465,0,0,0-.21-.13.437.437,0,0,0-.39.1.429.429,0,0,0-.03.61Z" fill="#4d5254"/><path d="M175.37,17.56a.425.425,0,0,0,.57-.63.4.4,0,0,0-.18-.1.418.418,0,0,0-.43.13.426.426,0,0,0,.03.6Z" fill="#4d5254"/><path d="M177.31,19.4a.424.424,0,1,0,.6-.6.412.412,0,0,0-.19-.11.422.422,0,0,0-.41.11A.417.417,0,0,0,177.31,19.4Z" fill="#4d5254"/><path d="M147.14,2.95a.419.419,0,1,0,.21-.81h0a.419.419,0,1,0-.21.81Z" fill="#4d5254"/><path d="M149.73,3.65a.427.427,0,0,0,.24-.82h-.01a.432.432,0,0,0-.52.29A.422.422,0,0,0,149.73,3.65Z" fill="#4d5254"/><path d="M144.54,2.33a.432.432,0,0,0,.51-.33.421.421,0,0,0-.31-.5h-.02a.425.425,0,0,0-.51.32A.432.432,0,0,0,144.54,2.33Z" fill="#4d5254"/><path d="M141.91,1.84h0a.456.456,0,0,0,.5-.36.428.428,0,0,0-.31-.49.037.037,0,0,1-.03-.01.438.438,0,0,0-.5.35A.452.452,0,0,0,141.91,1.84Z" fill="#4d5254"/><path d="M152.28,4.45a.427.427,0,1,0,.27-.81h-.03a.417.417,0,0,0-.51.27A.433.433,0,0,0,152.28,4.45Z" fill="#4d5254"/><path d="M162.14,8.57a.425.425,0,1,0,.38-.76.318.318,0,0,0-.09-.03.436.436,0,0,0-.49.22.419.419,0,0,0,.19.57Z" fill="#4d5254"/><path d="M159.74,7.4a.43.43,0,1,0,.36-.78c-.02-.01-.05-.02-.07-.03a.414.414,0,0,0-.49.23.436.436,0,0,0,.21.57Z" fill="#4d5254"/><path d="M157.29,6.33a.428.428,0,0,0,.33-.79.142.142,0,0,1-.06-.02.428.428,0,0,0-.27.81Z" fill="#4d5254"/><path d="M154.8,5.34a.427.427,0,1,0,.3-.8.06.06,0,0,1-.04-.01.44.44,0,0,0-.51.26.43.43,0,0,0,.25.55Z" fill="#4d5254"/><path d="M182.72,25.66a.4.4,0,0,0,.32-.05.433.433,0,0,0,.2-.26.439.439,0,0,0-.04-.32.433.433,0,0,0-.26-.2.439.439,0,0,0-.32.04.433.433,0,0,0-.2.26.439.439,0,0,0,.04.32.433.433,0,0,0,.26.2Z" fill="#4d5254"/><path d="M102.44,7.82a.323.323,0,0,0,.3.15l5.66-.61a.317.317,0,0,0-.07-.63L104,7.2c9.11-5.62,21.9-7.78,35.29-5.92a.314.314,0,0,0,.35-.27.32.32,0,0,0-.23-.35h-.04c-13.48-1.88-26.38.29-35.61,5.94l2.3-3.55a.33.33,0,0,0-.09-.44.355.355,0,0,0-.09-.04.319.319,0,0,0-.34.13l-3.1,4.77a.3.3,0,0,0,0,.34Z" fill="#4d5254"/><path d="M45.84,16.59a3.808,3.808,0,0,1,1.51-1.52,4.395,4.395,0,0,1,2.19-.55,4.178,4.178,0,0,1,2.57.79,3.83,3.83,0,0,1,1.43,2.16H51.28a1.853,1.853,0,0,0-.71-.8,2.059,2.059,0,0,0-1.05-.28,1.983,1.983,0,0,0-1.54.66,2.564,2.564,0,0,0-.59,1.76,2.564,2.564,0,0,0,.59,1.76,2.12,2.12,0,0,0,2.59.38,1.736,1.736,0,0,0,.71-.8h2.26a3.772,3.772,0,0,1-1.43,2.15,4.243,4.243,0,0,1-2.57.79,4.293,4.293,0,0,1-2.19-.55,3.872,3.872,0,0,1-1.51-1.52,4.5,4.5,0,0,1-.54-2.22,4.571,4.571,0,0,1,.54-2.23Z" fill="#7e6591"/><path d="M56.07,22.71a3.111,3.111,0,0,1-1.24-1.2,3.586,3.586,0,0,1-.45-1.82,3.518,3.518,0,0,1,.46-1.82,3.1,3.1,0,0,1,1.25-1.21,3.982,3.982,0,0,1,3.56,0,3.1,3.1,0,0,1,1.25,1.21,3.83,3.83,0,0,1,0,3.64,3.12,3.12,0,0,1-1.26,1.21,3.77,3.77,0,0,1-1.78.42,3.7,3.7,0,0,1-1.77-.42Zm2.77-1.79a1.7,1.7,0,0,0,.41-1.24,1.746,1.746,0,0,0-.4-1.24,1.3,1.3,0,0,0-.99-.43,1.317,1.317,0,0,0-1,.43,1.775,1.775,0,0,0-.4,1.24,1.79,1.79,0,0,0,.39,1.24,1.261,1.261,0,0,0,.98.43,1.317,1.317,0,0,0,1-.43Z" fill="#7e6591"/><path d="M63.72,22.71a3.111,3.111,0,0,1-1.24-1.2,3.586,3.586,0,0,1-.45-1.82,3.518,3.518,0,0,1,.46-1.82,3.1,3.1,0,0,1,1.25-1.21,3.982,3.982,0,0,1,3.56,0,3.1,3.1,0,0,1,1.25,1.21,3.83,3.83,0,0,1,0,3.64,3.12,3.12,0,0,1-1.26,1.21,3.77,3.77,0,0,1-1.78.42,3.7,3.7,0,0,1-1.77-.42Zm2.77-1.79a1.7,1.7,0,0,0,.41-1.24,1.746,1.746,0,0,0-.4-1.24,1.3,1.3,0,0,0-.99-.43,1.317,1.317,0,0,0-1,.43,1.775,1.775,0,0,0-.4,1.24,1.79,1.79,0,0,0,.39,1.24,1.261,1.261,0,0,0,.98.43,1.317,1.317,0,0,0,1-.43Z" fill="#7e6591"/><path d="M73.03,16.59a2.342,2.342,0,0,1,1.2-.32v2.17h-.56a1.716,1.716,0,0,0-1.15.33,1.459,1.459,0,0,0-.38,1.16v3.11H70.09v-6.7h2.05v1.12a2.669,2.669,0,0,1,.9-.87Z" fill="#7e6591"/><path d="M75.2,17.86a2.891,2.891,0,0,1,1.06-1.2,2.782,2.782,0,0,1,1.5-.42,2.6,2.6,0,0,1,1.21.28,2.221,2.221,0,0,1,.86.74V14.15h2.05v8.88H79.83v-.96a2.1,2.1,0,0,1-.82.77,2.581,2.581,0,0,1-1.24.29,2.707,2.707,0,0,1-1.5-.43,2.92,2.92,0,0,1-1.06-1.21,4.031,4.031,0,0,1-.39-1.82,3.987,3.987,0,0,1,.39-1.81Zm4.2.61a1.361,1.361,0,0,0-1.04-.44,1.413,1.413,0,0,0-1.04.44,1.932,1.932,0,0,0,0,2.43,1.37,1.37,0,0,0,1.04.45,1.413,1.413,0,0,0,1.04-.44,1.7,1.7,0,0,0,.43-1.21,1.643,1.643,0,0,0-.43-1.21Z" fill="#7e6591"/><path d="M89.64,20.18H85a1.394,1.394,0,0,0,.4.95,1.225,1.225,0,0,0,.87.33,1.087,1.087,0,0,0,1.07-.65h2.18A2.876,2.876,0,0,1,88.91,22a3.052,3.052,0,0,1-1.1.83,3.526,3.526,0,0,1-1.48.3,3.567,3.567,0,0,1-1.75-.42,3.012,3.012,0,0,1-1.2-1.2,4.067,4.067,0,0,1,0-3.64,2.927,2.927,0,0,1,1.19-1.2,3.876,3.876,0,0,1,3.49-.01,2.927,2.927,0,0,1,1.18,1.16,3.556,3.556,0,0,1,.43,1.76,4.216,4.216,0,0,1-.04.6Zm-2.06-1.14a1.061,1.061,0,0,0-.36-.84,1.314,1.314,0,0,0-.9-.31,1.278,1.278,0,0,0-.87.3,1.324,1.324,0,0,0-.44.85h2.57Z" fill="#7e6591"/><path d="M96.72,17.03a2.968,2.968,0,0,1,.7,2.09v3.91H95.38V19.39a1.452,1.452,0,0,0-.35-1.04,1.206,1.206,0,0,0-.94-.37,1.221,1.221,0,0,0-.94.37,1.486,1.486,0,0,0-.35,1.04v3.64H90.75v-6.7H92.8v.89a2.138,2.138,0,0,1,.84-.7,2.7,2.7,0,0,1,1.19-.26,2.435,2.435,0,0,1,1.88.76Z" fill="#7e6591"/><path d="M98.83,17.86a2.891,2.891,0,0,1,1.06-1.2,2.782,2.782,0,0,1,1.5-.42,2.581,2.581,0,0,1,1.24.29,2.079,2.079,0,0,1,.82.76v-.95h2.05v6.7h-2.05v-.95a2.347,2.347,0,0,1-.83.76,2.472,2.472,0,0,1-1.24.29,2.7,2.7,0,0,1-1.49-.43,2.92,2.92,0,0,1-1.06-1.21,4.031,4.031,0,0,1-.39-1.82,3.987,3.987,0,0,1,.39-1.81Zm4.2.61a1.361,1.361,0,0,0-1.04-.44,1.413,1.413,0,0,0-1.04.44,1.932,1.932,0,0,0,0,2.43,1.37,1.37,0,0,0,1.04.45,1.413,1.413,0,0,0,1.04-.44,1.7,1.7,0,0,0,.43-1.21,1.643,1.643,0,0,0-.43-1.21Z" fill="#7e6591"/><path d="M110.98,20.61h2.18a3.217,3.217,0,0,1-.91,1.67,3.072,3.072,0,0,1-1.7.8v.44a1.769,1.769,0,0,1,1.09.34,1.356,1.356,0,0,1-.02,2.07,1.939,1.939,0,0,1-1.18.35h-1.85V25.15h1.57a.7.7,0,0,0,.36-.07.262.262,0,0,0,.12-.24.236.236,0,0,0-.12-.23.816.816,0,0,0-.36-.07h-.85V23.08a3.081,3.081,0,0,1-1.98-1.1,3.491,3.491,0,0,1-.74-2.3,3.656,3.656,0,0,1,.43-1.82,2.927,2.927,0,0,1,1.19-1.2,3.567,3.567,0,0,1,1.75-.42,3.343,3.343,0,0,1,2.11.66,3.153,3.153,0,0,1,1.11,1.86H111a1.053,1.053,0,0,0-1.07-.77,1.073,1.073,0,0,0-.9.44,2.043,2.043,0,0,0-.34,1.25,1.979,1.979,0,0,0,.34,1.25,1.073,1.073,0,0,0,.9.44A1.06,1.06,0,0,0,111,20.6Z" fill="#7e6591"/><path d="M114.24,17.86a2.891,2.891,0,0,1,1.06-1.2,2.782,2.782,0,0,1,1.5-.42,2.581,2.581,0,0,1,1.24.29,2.079,2.079,0,0,1,.82.76v-.95h2.05v6.7h-2.05v-.95a2.347,2.347,0,0,1-.83.76,2.472,2.472,0,0,1-1.24.29,2.7,2.7,0,0,1-1.49-.43,2.92,2.92,0,0,1-1.06-1.21,4.031,4.031,0,0,1-.39-1.82,3.987,3.987,0,0,1,.39-1.81ZM116.89,14a1.262,1.262,0,0,1,.46.08c.13.05.29.13.49.23a2.15,2.15,0,0,0,.35.17.663.663,0,0,0,.28.05c.3,0,.47-.18.52-.54h1.06c-.19,1.18-.74,1.78-1.66,1.78a1.262,1.262,0,0,1-.46-.08c-.13-.05-.29-.13-.49-.23a2.15,2.15,0,0,0-.35-.17.868.868,0,0,0-.28-.05c-.3,0-.47.18-.53.54h-1.04c.19-1.18.74-1.78,1.66-1.78Zm1.55,4.48a1.361,1.361,0,0,0-1.04-.44,1.413,1.413,0,0,0-1.04.44,1.932,1.932,0,0,0,0,2.43,1.37,1.37,0,0,0,1.04.45,1.413,1.413,0,0,0,1.04-.44,1.7,1.7,0,0,0,.43-1.21,1.643,1.643,0,0,0-.43-1.21Z" fill="#7e6591"/><path d="M123.68,22.71a3.111,3.111,0,0,1-1.24-1.2,3.586,3.586,0,0,1-.45-1.82,3.518,3.518,0,0,1,.46-1.82,3.1,3.1,0,0,1,1.25-1.21,3.982,3.982,0,0,1,3.56,0,3.1,3.1,0,0,1,1.25,1.21,3.83,3.83,0,0,1,0,3.64,3.12,3.12,0,0,1-1.26,1.21,3.77,3.77,0,0,1-1.78.42,3.7,3.7,0,0,1-1.77-.42Zm2.77-1.79a1.7,1.7,0,0,0,.41-1.24,1.746,1.746,0,0,0-.4-1.24,1.3,1.3,0,0,0-.99-.43,1.317,1.317,0,0,0-1,.43,1.775,1.775,0,0,0-.4,1.24,1.79,1.79,0,0,0,.39,1.24,1.261,1.261,0,0,0,.98.43,1.317,1.317,0,0,0,1-.43Z" fill="#7e6591"/><path d="M53.63,32.26a2.891,2.891,0,0,1,1.06-1.2,2.782,2.782,0,0,1,1.5-.42,2.6,2.6,0,0,1,1.21.28,2.221,2.221,0,0,1,.86.74V28.55h2.05v8.88H58.26v-.96a2.1,2.1,0,0,1-.82.77,2.581,2.581,0,0,1-1.24.29,2.707,2.707,0,0,1-1.5-.43,2.92,2.92,0,0,1-1.06-1.21,4.031,4.031,0,0,1-.39-1.82,3.987,3.987,0,0,1,.39-1.81Zm4.2.61a1.361,1.361,0,0,0-1.04-.44,1.413,1.413,0,0,0-1.04.44,1.932,1.932,0,0,0,0,2.43,1.37,1.37,0,0,0,1.04.45,1.413,1.413,0,0,0,1.04-.44,1.7,1.7,0,0,0,.43-1.21,1.643,1.643,0,0,0-.43-1.21Z" fill="#7e6591"/><path d="M68.07,34.58H63.43a1.394,1.394,0,0,0,.4.95,1.225,1.225,0,0,0,.87.33,1.087,1.087,0,0,0,1.07-.65h2.18a2.876,2.876,0,0,1-.61,1.19,3.052,3.052,0,0,1-1.1.83,3.526,3.526,0,0,1-1.48.3,3.567,3.567,0,0,1-1.75-.42,3.012,3.012,0,0,1-1.2-1.2,4.067,4.067,0,0,1,0-3.64A2.927,2.927,0,0,1,63,31.07a3.876,3.876,0,0,1,3.49-.01,2.927,2.927,0,0,1,1.18,1.16,3.556,3.556,0,0,1,.43,1.76,4.216,4.216,0,0,1-.04.6Zm-2.06-1.14a1.061,1.061,0,0,0-.36-.84,1.314,1.314,0,0,0-.9-.31,1.278,1.278,0,0,0-.87.3,1.324,1.324,0,0,0-.44.85h2.57Z" fill="#7e6591"/><path d="M71.92,30.99a3.808,3.808,0,0,1,1.51-1.52,4.395,4.395,0,0,1,2.19-.55,4.178,4.178,0,0,1,2.57.79,3.83,3.83,0,0,1,1.43,2.16H77.36a1.853,1.853,0,0,0-.71-.8,2.059,2.059,0,0,0-1.05-.28,1.983,1.983,0,0,0-1.54.66,2.92,2.92,0,0,0,0,3.52,2.12,2.12,0,0,0,2.59.38,1.736,1.736,0,0,0,.71-.8h2.26a3.772,3.772,0,0,1-1.43,2.15,4.243,4.243,0,0,1-2.57.79,4.293,4.293,0,0,1-2.19-.55,3.872,3.872,0,0,1-1.51-1.52,4.5,4.5,0,0,1-.54-2.22,4.571,4.571,0,0,1,.54-2.23Z" fill="#7e6591"/><path d="M87.49,30.74v6.7H85.44v-.91a2.206,2.206,0,0,1-.85.71,2.591,2.591,0,0,1-1.18.27,2.667,2.667,0,0,1-1.36-.34,2.241,2.241,0,0,1-.91-.99,3.305,3.305,0,0,1-.32-1.52V30.75h2.04v3.64a1.452,1.452,0,0,0,.35,1.04,1.206,1.206,0,0,0,.94.37,1.228,1.228,0,0,0,.95-.37,1.486,1.486,0,0,0,.35-1.04V30.75H87.5Z" fill="#7e6591"/><path d="M89.11,29.73a1.016,1.016,0,0,1-.34-.79,1.037,1.037,0,0,1,.34-.8,1.252,1.252,0,0,1,.88-.32,1.227,1.227,0,0,1,.87.32,1.1,1.1,0,0,1,0,1.59,1.2,1.2,0,0,1-.87.32A1.27,1.27,0,0,1,89.11,29.73Zm1.9,1.01v6.7H88.96v-6.7h2.05Z" fill="#7e6591"/><path d="M92.49,32.26a2.891,2.891,0,0,1,1.06-1.2,2.782,2.782,0,0,1,1.5-.42,2.6,2.6,0,0,1,1.21.28,2.221,2.221,0,0,1,.86.74V28.55h2.05v8.88H97.12v-.96a2.1,2.1,0,0,1-.82.77,2.581,2.581,0,0,1-1.24.29,2.707,2.707,0,0,1-1.5-.43,2.92,2.92,0,0,1-1.06-1.21,4.031,4.031,0,0,1-.39-1.82,3.987,3.987,0,0,1,.39-1.81Zm4.2.61a1.361,1.361,0,0,0-1.04-.44,1.413,1.413,0,0,0-1.04.44,1.932,1.932,0,0,0,0,2.43,1.37,1.37,0,0,0,1.04.45,1.413,1.413,0,0,0,1.04-.44,1.7,1.7,0,0,0,.43-1.21,1.643,1.643,0,0,0-.43-1.21Z" fill="#7e6591"/><path d="M100.63,32.26a2.891,2.891,0,0,1,1.06-1.2,2.782,2.782,0,0,1,1.5-.42,2.581,2.581,0,0,1,1.24.29,2.079,2.079,0,0,1,.82.76v-.95h2.05v6.7h-2.05v-.95a2.347,2.347,0,0,1-.83.76,2.472,2.472,0,0,1-1.24.29,2.7,2.7,0,0,1-1.49-.43,2.92,2.92,0,0,1-1.06-1.21,4.031,4.031,0,0,1-.39-1.82,3.987,3.987,0,0,1,.39-1.81Zm4.2.61a1.361,1.361,0,0,0-1.04-.44,1.413,1.413,0,0,0-1.04.44,1.932,1.932,0,0,0,0,2.43,1.37,1.37,0,0,0,1.04.45,1.413,1.413,0,0,0,1.04-.44,1.7,1.7,0,0,0,.43-1.21,1.643,1.643,0,0,0-.43-1.21Z" fill="#7e6591"/><path d="M108.78,32.26a2.891,2.891,0,0,1,1.06-1.2,2.782,2.782,0,0,1,1.5-.42,2.6,2.6,0,0,1,1.21.28,2.221,2.221,0,0,1,.86.74V28.55h2.05v8.88h-2.05v-.96a2.1,2.1,0,0,1-.82.77,2.581,2.581,0,0,1-1.24.29,2.707,2.707,0,0,1-1.5-.43,2.92,2.92,0,0,1-1.06-1.21,4.031,4.031,0,0,1-.39-1.82,3.987,3.987,0,0,1,.39-1.81Zm4.2.61a1.361,1.361,0,0,0-1.04-.44,1.413,1.413,0,0,0-1.04.44,1.932,1.932,0,0,0,0,2.43,1.37,1.37,0,0,0,1.04.45,1.413,1.413,0,0,0,1.04-.44,1.7,1.7,0,0,0,.43-1.21,1.643,1.643,0,0,0-.43-1.21Z" fill="#7e6591"/><path d="M118.22,37.11a3.111,3.111,0,0,1-1.24-1.2,3.586,3.586,0,0,1-.45-1.82,3.518,3.518,0,0,1,.46-1.82,3.1,3.1,0,0,1,1.25-1.21,3.982,3.982,0,0,1,3.56,0,3.1,3.1,0,0,1,1.25,1.21,3.83,3.83,0,0,1,0,3.64,3.12,3.12,0,0,1-1.26,1.21,3.77,3.77,0,0,1-1.78.42,3.7,3.7,0,0,1-1.77-.42Zm2.77-1.79a1.7,1.7,0,0,0,.41-1.24,1.746,1.746,0,0,0-.4-1.24,1.3,1.3,0,0,0-.99-.43,1.317,1.317,0,0,0-1,.43,2.144,2.144,0,0,0-.01,2.48,1.261,1.261,0,0,0,.98.43,1.317,1.317,0,0,0,1-.43Z" fill="#7e6591"/><path d="M303.71,155.17a.426.426,0,0,1,.54-.66.413.413,0,0,1,.1.13.442.442,0,0,1-.04.48.428.428,0,0,1-.6.06Z" fill="#4d5254"/><path d="M309.57,160.63a.424.424,0,1,1,.62-.58.236.236,0,0,1,.06.09.441.441,0,0,1-.08.52.426.426,0,0,1-.6-.02Z" fill="#4d5254"/><path d="M307.7,158.73a.424.424,0,0,1,.6-.6.391.391,0,0,1,.08.1.41.41,0,0,1-.07.5.417.417,0,0,1-.6,0Z" fill="#4d5254"/><path d="M305.74,156.91a.425.425,0,1,1,.57-.63.312.312,0,0,1,.09.11.427.427,0,0,1-.06.49A.418.418,0,0,1,305.74,156.91Z" fill="#4d5254"/><path d="M301.6,153.53a.429.429,0,1,1,.51-.69.407.407,0,0,1,.12.14.428.428,0,0,1-.63.55Z" fill="#4d5254"/><path d="M292.46,148.06a.43.43,0,0,1,.36-.78.438.438,0,0,1,.2.18.423.423,0,0,1,.01.38.432.432,0,0,1-.57.21Z" fill="#4d5254"/><path d="M294.84,149.24h0a1.041,1.041,0,1,1,.01,0Z" fill="#4d5254"/><path d="M299.42,151.98a.426.426,0,0,1,.47-.71.5.5,0,0,1,.14.15.433.433,0,0,1-.02.44.423.423,0,0,1-.59.12Z" fill="#4d5254"/><path d="M297.17,150.55a.43.43,0,1,1,.44-.74.381.381,0,0,1,.15.16.466.466,0,0,1,0,.43A.434.434,0,0,1,297.17,150.55Z" fill="#4d5254"/><path d="M320.48,175.79a.414.414,0,1,1,.73-.39h0a.434.434,0,0,1-.16.58.418.418,0,0,1-.57-.18Z" fill="#4d5254"/><path d="M319.17,173.45a.424.424,0,1,1,.73-.43h0a.432.432,0,0,1-.16.58.425.425,0,0,1-.58-.15Z" fill="#4d5254"/><path d="M321.72,178.16a.423.423,0,0,1,.75-.39v.02a.416.416,0,0,1-.18.57.428.428,0,0,1-.57-.19Z" fill="#4d5254"/><path d="M322.84,180.59h0a.456.456,0,0,1,.23-.57.431.431,0,0,1,.55.18.144.144,0,0,0,.02.03.431.431,0,0,1-.22.57.454.454,0,0,1-.58-.21Z" fill="#4d5254"/><path d="M317.78,171.17a.427.427,0,0,1,.72-.46v.02a.4.4,0,0,1-.13.56.424.424,0,0,1-.59-.13Z" fill="#4d5254"/><path d="M311.37,162.61a.426.426,0,0,1,.04-.6.417.417,0,0,1,.6.04.218.218,0,0,1,.05.08.444.444,0,0,1-.09.53.417.417,0,0,1-.6-.04Z" fill="#4d5254"/><path d="M313.09,164.66a.426.426,0,0,1,.66-.54.21.21,0,0,1,.04.06.422.422,0,0,1-.11.54.428.428,0,0,1-.6-.06Z" fill="#4d5254"/><path d="M314.73,166.77a.429.429,0,1,1,.69-.51c.01.02.02.03.03.05a.436.436,0,0,1-.12.55A.43.43,0,0,1,314.73,166.77Z" fill="#4d5254"/><path d="M316.3,168.94a.424.424,0,1,1,.7-.48c0,.01.02.02.02.04a.438.438,0,0,1-.13.56.421.421,0,0,1-.59-.11Z" fill="#4d5254"/><path d="M289.78,146.83a.451.451,0,0,1-.04-.32.421.421,0,0,1,.2-.25.445.445,0,0,1,.32-.04.421.421,0,0,1,.25.2.445.445,0,0,1,.04.32.421.421,0,0,1-.2.25.445.445,0,0,1-.32.04.474.474,0,0,1-.26-.2Z" fill="#4d5254"/><path d="M326.67,220.33a.326.326,0,0,1-.22-.26l-.79-5.63a.318.318,0,1,1,.63-.09l.61,4.32c3.23-10.21,2.2-23.14-2.88-35.67a.312.312,0,0,1,.17-.41.306.306,0,0,1,.39.14c0,.01.01.02.02.03,5.11,12.61,6.16,25.66,2.93,35.98l2.88-3.1a.315.315,0,0,1,.44-.02.156.156,0,0,1,.06.08.32.32,0,0,1-.05.37l-3.87,4.17a.321.321,0,0,1-.32.09Z" fill="#4d5254"/><path d="M121.6,201.14a.417.417,0,1,0-.59-.59h0a.421.421,0,1,0,.6.59Z" fill="#4d5254"/><path d="M123.51,199.27a.425.425,0,0,0-.58-.62h0a.432.432,0,0,0,.6.62Z" fill="#4d5254"/><path d="M119.75,203.08a.417.417,0,0,0-.03-.6.423.423,0,0,0-.59.01h-.01a.44.44,0,0,0,.03.62.417.417,0,0,0,.6-.03Z" fill="#4d5254"/><path d="M117.99,205.1h0a.458.458,0,0,0-.06-.61.42.42,0,0,0-.58.02.144.144,0,0,0-.03.02.44.44,0,0,0,.05.61.449.449,0,0,0,.61-.04Z" fill="#4d5254"/><path d="M125.49,197.47a.425.425,0,1,0-.56-.64l-.02.02a.425.425,0,0,0,.58.62Z" fill="#4d5254"/><path d="M103.18,242.17a.3.3,0,0,0,.28-.19l2.34-5.19a.318.318,0,1,0-.58-.26l-1.79,3.97c-.25-10.7,4.37-22.83,12.75-33.43a.316.316,0,0,0-.05-.44.319.319,0,0,0-.42.02s-.02.02-.02.03c-8.44,10.68-13.1,22.9-12.89,33.72l-1.89-3.78a.308.308,0,0,0-.42-.14.555.555,0,0,0-.08.06.319.319,0,0,0-.06.36l2.55,5.09a.3.3,0,0,0,.29.17Z" fill="#4d5254"/><path d="M58.6,134.14a.417.417,0,1,0-.59-.59h0a.421.421,0,1,0,.6.59Z" fill="#4d5254"/><path d="M60.51,132.27a.425.425,0,0,0-.58-.62h0a.432.432,0,0,0,.6.62Z" fill="#4d5254"/><path d="M56.75,136.08a.417.417,0,0,0-.03-.6.423.423,0,0,0-.59.01h-.01a.44.44,0,0,0,.03.62.417.417,0,0,0,.6-.03Z" fill="#4d5254"/><path d="M54.99,138.1h0a.458.458,0,0,0-.06-.61.42.42,0,0,0-.58.02.143.143,0,0,0-.03.02.44.44,0,0,0,.05.61.449.449,0,0,0,.61-.04Z" fill="#4d5254"/><path d="M62.49,130.47a.425.425,0,1,0-.56-.64l-.02.02a.425.425,0,0,0,.58.62Z" fill="#4d5254"/><path d="M40.18,175.17a.3.3,0,0,0,.28-.19l2.34-5.19a.318.318,0,1,0-.58-.26l-1.79,3.97c-.25-10.7,4.37-22.83,12.75-33.43a.316.316,0,0,0-.05-.44.319.319,0,0,0-.42.02s-.02.02-.02.03c-8.44,10.68-13.1,22.9-12.89,33.72l-1.89-3.78a.308.308,0,0,0-.42-.14.555.555,0,0,0-.08.06.319.319,0,0,0-.06.36l2.55,5.09a.3.3,0,0,0,.29.17Z" fill="#4d5254"/><path d="M311.1,234.55h-3.14l-.5,1.49h-2.15l3.05-8.42h2.38l3.05,8.42h-2.17l-.5-1.49Zm-.53-1.58-1.04-3.08-1.03,3.08h2.08Z" fill="#7aa8b9"/><path d="M314.71,230.86a2.927,2.927,0,0,1,1.19-1.2,3.567,3.567,0,0,1,1.75-.42,3.343,3.343,0,0,1,2.11.66,3.153,3.153,0,0,1,1.11,1.86h-2.18a1.053,1.053,0,0,0-1.07-.77,1.073,1.073,0,0,0-.9.44,2.043,2.043,0,0,0-.34,1.25,1.979,1.979,0,0,0,.34,1.25,1.073,1.073,0,0,0,.9.44,1.06,1.06,0,0,0,1.07-.77h2.18a3.182,3.182,0,0,1-1.12,1.85,3.281,3.281,0,0,1-2.1.67,3.567,3.567,0,0,1-1.75-.42,2.988,2.988,0,0,1-1.19-1.2,3.794,3.794,0,0,1-.43-1.82,3.683,3.683,0,0,1,.43-1.82Z" fill="#7aa8b9"/><path d="M328.23,233.18h-4.64a1.394,1.394,0,0,0,.4.95,1.242,1.242,0,0,0,.87.33,1.087,1.087,0,0,0,1.07-.65h2.18a2.876,2.876,0,0,1-.61,1.19,3.052,3.052,0,0,1-1.1.83,3.526,3.526,0,0,1-1.48.3,3.567,3.567,0,0,1-1.75-.42,3.012,3.012,0,0,1-1.2-1.2,4.067,4.067,0,0,1,0-3.64,2.988,2.988,0,0,1,1.19-1.2,3.876,3.876,0,0,1,3.49-.01,2.927,2.927,0,0,1,1.18,1.16,3.556,3.556,0,0,1,.43,1.76,4.217,4.217,0,0,1-.04.6Zm-2.06-1.14a1.061,1.061,0,0,0-.36-.84,1.314,1.314,0,0,0-.9-.31,1.278,1.278,0,0,0-.87.3,1.324,1.324,0,0,0-.44.85h2.57Z" fill="#7aa8b9"/><path d="M330.51,235.83a2.591,2.591,0,0,1-1.08-.82,2.185,2.185,0,0,1-.44-1.17h2.03a.757.757,0,0,0,.32.56,1.176,1.176,0,0,0,.71.22.968.968,0,0,0,.59-.15.459.459,0,0,0,.21-.39.464.464,0,0,0-.3-.43,5.873,5.873,0,0,0-.97-.31,9.5,9.5,0,0,1-1.2-.35,2.014,2.014,0,0,1-.83-.59,1.621,1.621,0,0,1-.35-1.09,1.88,1.88,0,0,1,.32-1.05,2.046,2.046,0,0,1,.94-.75,3.67,3.67,0,0,1,1.47-.28,3,3,0,0,1,1.99.62,2.445,2.445,0,0,1,.83,1.66h-1.9a.773.773,0,0,0-.31-.55,1.1,1.1,0,0,0-.68-.2.949.949,0,0,0-.55.14.435.435,0,0,0-.19.38.451.451,0,0,0,.31.43,4.775,4.775,0,0,0,.95.29,9.321,9.321,0,0,1,1.21.38,1.983,1.983,0,0,1,.82.6,1.7,1.7,0,0,1,.37,1.11,1.77,1.77,0,0,1-.33,1.05,2.223,2.223,0,0,1-.95.73,3.544,3.544,0,0,1-1.43.26,3.876,3.876,0,0,1-1.56-.3Z" fill="#7aa8b9"/><path d="M337.21,235.83a2.591,2.591,0,0,1-1.08-.82,2.185,2.185,0,0,1-.44-1.17h2.03a.757.757,0,0,0,.32.56,1.176,1.176,0,0,0,.71.22.989.989,0,0,0,.59-.15.459.459,0,0,0,.21-.39.464.464,0,0,0-.3-.43,7.542,7.542,0,0,0-.97-.31,9.5,9.5,0,0,1-1.2-.35,2.014,2.014,0,0,1-.83-.59,1.621,1.621,0,0,1-.35-1.09,1.88,1.88,0,0,1,.32-1.05,2.046,2.046,0,0,1,.94-.75,3.67,3.67,0,0,1,1.47-.28,3,3,0,0,1,1.99.62,2.385,2.385,0,0,1,.83,1.66h-1.9a.773.773,0,0,0-.31-.55,1.1,1.1,0,0,0-.68-.2.949.949,0,0,0-.55.14.435.435,0,0,0-.19.38.451.451,0,0,0,.31.43,4.775,4.775,0,0,0,.95.29,9.321,9.321,0,0,1,1.21.38,1.983,1.983,0,0,1,.82.6,1.7,1.7,0,0,1,.37,1.11,1.77,1.77,0,0,1-.33,1.05,2.223,2.223,0,0,1-.95.73,3.544,3.544,0,0,1-1.43.26,3.876,3.876,0,0,1-1.56-.3Z" fill="#7aa8b9"/><path d="M344.02,235.71a3.111,3.111,0,0,1-1.24-1.2,3.586,3.586,0,0,1-.45-1.82,3.518,3.518,0,0,1,.46-1.82,3.1,3.1,0,0,1,1.25-1.21,3.982,3.982,0,0,1,3.56,0,3.1,3.1,0,0,1,1.25,1.21,3.831,3.831,0,0,1,0,3.64,3.186,3.186,0,0,1-1.26,1.21,3.77,3.77,0,0,1-1.78.42,3.7,3.7,0,0,1-1.77-.42Zm2.77-1.79a1.7,1.7,0,0,0,.41-1.24,1.746,1.746,0,0,0-.4-1.24,1.3,1.3,0,0,0-.99-.43,1.317,1.317,0,0,0-1,.43,2.144,2.144,0,0,0-.01,2.48,1.261,1.261,0,0,0,.98.43,1.317,1.317,0,0,0,1-.43Z" fill="#7aa8b9"/><path d="M36.7,261.45h2.69v1.58H34.65v-8.42H36.7Z" fill="#497fa7"/><path d="M41.65,262.71a3.111,3.111,0,0,1-1.24-1.2,3.586,3.586,0,0,1-.45-1.82,3.518,3.518,0,0,1,.46-1.82,3.1,3.1,0,0,1,1.25-1.21,3.982,3.982,0,0,1,3.56,0,3.1,3.1,0,0,1,1.25,1.21,3.83,3.83,0,0,1,0,3.64,3.186,3.186,0,0,1-1.26,1.21,3.77,3.77,0,0,1-1.78.42,3.7,3.7,0,0,1-1.77-.42Zm2.77-1.79a1.7,1.7,0,0,0,.41-1.24,1.746,1.746,0,0,0-.4-1.24,1.3,1.3,0,0,0-.99-.43,1.317,1.317,0,0,0-1,.43,2.144,2.144,0,0,0-.01,2.48,1.261,1.261,0,0,0,.98.43,1.317,1.317,0,0,0,1-.43Z" fill="#497fa7"/><path d="M53.97,257.03a2.968,2.968,0,0,1,.7,2.09v3.91H52.63v-3.64a1.469,1.469,0,0,0-.35-1.04,1.206,1.206,0,0,0-.94-.37,1.221,1.221,0,0,0-.94.37,1.441,1.441,0,0,0-.35,1.04v3.64H48v-6.7h2.05v.89a2.225,2.225,0,0,1,.84-.7,2.7,2.7,0,0,1,1.19-.26,2.435,2.435,0,0,1,1.88.76Z" fill="#497fa7"/><path d="M59.89,256.53a2.014,2.014,0,0,1,.82.76v-.95h2.05v6.68a3.66,3.66,0,0,1-.37,1.67,2.733,2.733,0,0,1-1.12,1.19,3.572,3.572,0,0,1-1.87.44,3.854,3.854,0,0,1-2.41-.7,2.647,2.647,0,0,1-1.06-1.9h2.03a.966.966,0,0,0,.46.61,1.656,1.656,0,0,0,.89.22,1.367,1.367,0,0,0,1.01-.37,1.582,1.582,0,0,0,.38-1.17v-.95a2.259,2.259,0,0,1-.83.76,2.553,2.553,0,0,1-1.24.29,2.707,2.707,0,0,1-1.5-.43,2.92,2.92,0,0,1-1.06-1.21,4.031,4.031,0,0,1-.39-1.82,3.987,3.987,0,0,1,.39-1.81,2.891,2.891,0,0,1,1.06-1.2,2.782,2.782,0,0,1,1.5-.42,2.581,2.581,0,0,1,1.24.29Zm.4,1.94a1.4,1.4,0,0,0-1.04-.44,1.413,1.413,0,0,0-1.04.44,1.932,1.932,0,0,0,0,2.43,1.371,1.371,0,0,0,1.04.45,1.386,1.386,0,0,0,1.04-.45,1.685,1.685,0,0,0,.43-1.21,1.643,1.643,0,0,0-.43-1.21Z" fill="#497fa7"/><path d="M64.4,255.33a1.016,1.016,0,0,1-.34-.79,1.037,1.037,0,0,1,.34-.8,1.252,1.252,0,0,1,.88-.32,1.227,1.227,0,0,1,.87.32,1.1,1.1,0,0,1,0,1.59,1.2,1.2,0,0,1-.87.32A1.27,1.27,0,0,1,64.4,255.33Zm1.9,1.01v6.7H64.25v-6.7Z" fill="#497fa7"/><path d="M71.52,261.3v1.74H70.48a2.541,2.541,0,0,1-1.74-.55,2.251,2.251,0,0,1-.62-1.78v-2.66H67.3v-1.7h.82v-1.63h2.05v1.63h1.34v1.7H70.17v2.69a.584.584,0,0,0,.14.43.707.707,0,0,0,.48.13h.73Z" fill="#497fa7"/><path d="M79.28,256.34v6.7H77.23v-.91a2.206,2.206,0,0,1-.85.71,2.591,2.591,0,0,1-1.18.27,2.667,2.667,0,0,1-1.36-.34,2.3,2.3,0,0,1-.91-.99,3.305,3.305,0,0,1-.32-1.52v-3.91h2.04v3.63a1.452,1.452,0,0,0,.35,1.04,1.242,1.242,0,0,0,.94.37,1.228,1.228,0,0,0,.95-.37,1.486,1.486,0,0,0,.35-1.04v-3.63h2.05Z" fill="#497fa7"/><path d="M80.73,257.86a2.891,2.891,0,0,1,1.06-1.2,2.782,2.782,0,0,1,1.5-.42,2.6,2.6,0,0,1,1.21.28,2.221,2.221,0,0,1,.86.74v-3.11h2.05v8.88H85.36v-.96a2.1,2.1,0,0,1-.82.77,2.609,2.609,0,0,1-1.24.29,2.707,2.707,0,0,1-1.5-.43,2.92,2.92,0,0,1-1.06-1.21,4.031,4.031,0,0,1-.39-1.82,3.987,3.987,0,0,1,.39-1.81Zm4.2.61a1.4,1.4,0,0,0-1.04-.44,1.413,1.413,0,0,0-1.04.44,1.932,1.932,0,0,0,0,2.43,1.371,1.371,0,0,0,1.04.45,1.386,1.386,0,0,0,1.04-.45,1.685,1.685,0,0,0,.43-1.21,1.643,1.643,0,0,0-.43-1.21Z" fill="#497fa7"/><path d="M89.05,255.33a1.016,1.016,0,0,1-.34-.79,1.037,1.037,0,0,1,.34-.8,1.252,1.252,0,0,1,.88-.32,1.227,1.227,0,0,1,.87.32,1.1,1.1,0,0,1,0,1.59,1.2,1.2,0,0,1-.87.32A1.27,1.27,0,0,1,89.05,255.33Zm1.9,1.01v6.7H88.9v-6.7Z" fill="#497fa7"/><path d="M98.4,257.03a2.968,2.968,0,0,1,.7,2.09v3.91H97.06v-3.64a1.469,1.469,0,0,0-.35-1.04,1.206,1.206,0,0,0-.94-.37,1.221,1.221,0,0,0-.94.37,1.441,1.441,0,0,0-.35,1.04v3.64H92.43v-6.7h2.05v.89a2.225,2.225,0,0,1,.84-.7,2.7,2.7,0,0,1,1.19-.26,2.435,2.435,0,0,1,1.88.76Z" fill="#497fa7"/><path d="M100.51,257.86a2.891,2.891,0,0,1,1.06-1.2,2.782,2.782,0,0,1,1.5-.42,2.581,2.581,0,0,1,1.24.29,2.079,2.079,0,0,1,.82.76v-.95h2.05v6.7h-2.05v-.95a2.347,2.347,0,0,1-.83.76,2.609,2.609,0,0,1-1.24.29,2.7,2.7,0,0,1-1.49-.43,2.92,2.92,0,0,1-1.06-1.21,4.031,4.031,0,0,1-.39-1.82,3.987,3.987,0,0,1,.39-1.81Zm4.2.61a1.4,1.4,0,0,0-1.04-.44,1.413,1.413,0,0,0-1.04.44,1.932,1.932,0,0,0,0,2.43,1.371,1.371,0,0,0,1.04.45,1.386,1.386,0,0,0,1.04-.45,1.685,1.685,0,0,0,.43-1.21,1.643,1.643,0,0,0-.43-1.21Z" fill="#497fa7"/><path d="M110.73,254.16v8.88h-2.05v-8.88Z" fill="#497fa7"/><path d="M112.37,255.33a1.016,1.016,0,0,1-.34-.79,1.037,1.037,0,0,1,.34-.8,1.252,1.252,0,0,1,.88-.32,1.227,1.227,0,0,1,.87.32,1.1,1.1,0,0,1,0,1.59,1.2,1.2,0,0,1-.87.32A1.27,1.27,0,0,1,112.37,255.33Zm1.9,1.01v6.7h-2.05v-6.7Z" fill="#497fa7"/><path d="M115.74,257.86a2.891,2.891,0,0,1,1.06-1.2,2.782,2.782,0,0,1,1.5-.42,2.6,2.6,0,0,1,1.21.28,2.221,2.221,0,0,1,.86.74v-3.11h2.05v8.88h-2.05v-.96a2.1,2.1,0,0,1-.82.77,2.609,2.609,0,0,1-1.24.29,2.707,2.707,0,0,1-1.5-.43,2.92,2.92,0,0,1-1.06-1.21,4.031,4.031,0,0,1-.39-1.82,3.987,3.987,0,0,1,.39-1.81Zm4.2.61a1.4,1.4,0,0,0-1.04-.44,1.413,1.413,0,0,0-1.04.44,1.932,1.932,0,0,0,0,2.43,1.371,1.371,0,0,0,1.04.45,1.386,1.386,0,0,0,1.04-.45,1.685,1.685,0,0,0,.43-1.21,1.643,1.643,0,0,0-.43-1.21Z" fill="#497fa7"/><path d="M123.89,257.86a2.891,2.891,0,0,1,1.06-1.2,2.782,2.782,0,0,1,1.5-.42,2.581,2.581,0,0,1,1.24.29,2.079,2.079,0,0,1,.82.76v-.95h2.05v6.7h-2.05v-.95a2.347,2.347,0,0,1-.83.76,2.609,2.609,0,0,1-1.24.29,2.7,2.7,0,0,1-1.49-.43,2.92,2.92,0,0,1-1.06-1.21,4.031,4.031,0,0,1-.39-1.82,3.987,3.987,0,0,1,.39-1.81Zm4.2.61a1.4,1.4,0,0,0-1.04-.44,1.413,1.413,0,0,0-1.04.44,1.932,1.932,0,0,0,0,2.43,1.371,1.371,0,0,0,1.04.45,1.386,1.386,0,0,0,1.04-.45,1.685,1.685,0,0,0,.43-1.21,1.643,1.643,0,0,0-.43-1.21Z" fill="#497fa7"/><path d="M132.03,257.86a2.891,2.891,0,0,1,1.06-1.2,2.782,2.782,0,0,1,1.5-.42,2.6,2.6,0,0,1,1.21.28,2.221,2.221,0,0,1,.86.74v-3.11h2.05v8.88h-2.05v-.96a2.1,2.1,0,0,1-.82.77,2.609,2.609,0,0,1-1.24.29,2.707,2.707,0,0,1-1.5-.43,2.92,2.92,0,0,1-1.06-1.21,4.031,4.031,0,0,1-.39-1.82,3.987,3.987,0,0,1,.39-1.81Zm4.2.61a1.4,1.4,0,0,0-1.04-.44,1.413,1.413,0,0,0-1.04.44,1.932,1.932,0,0,0,0,2.43,1.371,1.371,0,0,0,1.04.45,1.386,1.386,0,0,0,1.04-.45,1.685,1.685,0,0,0,.43-1.21,1.643,1.643,0,0,0-.43-1.21Z" fill="#497fa7"/><path d="M146.47,260.18h-4.64a1.394,1.394,0,0,0,.4.95,1.242,1.242,0,0,0,.87.33,1.087,1.087,0,0,0,1.07-.65h2.18a2.876,2.876,0,0,1-.61,1.19,3.051,3.051,0,0,1-1.1.83,3.526,3.526,0,0,1-1.48.3,3.567,3.567,0,0,1-1.75-.42,3.012,3.012,0,0,1-1.2-1.2,4.067,4.067,0,0,1,0-3.64,2.927,2.927,0,0,1,1.19-1.2,3.876,3.876,0,0,1,3.49-.01,2.927,2.927,0,0,1,1.18,1.16,3.556,3.556,0,0,1,.43,1.76,4.216,4.216,0,0,1-.04.6Zm-2.06-1.14a1.061,1.061,0,0,0-.36-.84,1.314,1.314,0,0,0-.9-.31,1.278,1.278,0,0,0-.87.3,1.324,1.324,0,0,0-.44.85h2.57Z" fill="#497fa7"/><path d="M2.05,182.61v8.42H0v-8.42Z" fill="#40b589"/><path d="M9.5,185.03a2.968,2.968,0,0,1,.7,2.09v3.91H8.16v-3.64a1.469,1.469,0,0,0-.35-1.04,1.206,1.206,0,0,0-.94-.37,1.221,1.221,0,0,0-.94.37,1.441,1.441,0,0,0-.35,1.04v3.64H3.54v-6.7H5.59v.89a2.225,2.225,0,0,1,.84-.7,2.7,2.7,0,0,1,1.19-.26,2.435,2.435,0,0,1,1.88.76Z" fill="#40b589"/><path d="M15.36,189.3v1.74H14.32a2.54,2.54,0,0,1-1.74-.55,2.251,2.251,0,0,1-.62-1.78v-2.66h-.82v-1.7h.82v-1.63h2.05v1.63h1.34v1.7H14.01v2.69a.584.584,0,0,0,.14.43.707.707,0,0,0,.48.13h.73Z" fill="#40b589"/><path d="M22.78,188.18H18.14a1.394,1.394,0,0,0,.4.95,1.242,1.242,0,0,0,.87.33,1.087,1.087,0,0,0,1.07-.65h2.18a2.876,2.876,0,0,1-.61,1.19,3.051,3.051,0,0,1-1.1.83,3.526,3.526,0,0,1-1.48.3,3.567,3.567,0,0,1-1.75-.42,3.012,3.012,0,0,1-1.2-1.2,4.067,4.067,0,0,1,0-3.64,2.927,2.927,0,0,1,1.19-1.2,3.876,3.876,0,0,1,3.49-.01,2.927,2.927,0,0,1,1.18,1.16,3.556,3.556,0,0,1,.43,1.76,4.216,4.216,0,0,1-.04.6Zm-2.06-1.14a1.061,1.061,0,0,0-.36-.84,1.314,1.314,0,0,0-.9-.31,1.278,1.278,0,0,0-.87.3,1.324,1.324,0,0,0-.44.85h2.57Z" fill="#40b589"/><path d="M27.68,184.53a2.014,2.014,0,0,1,.82.76v-.95h2.05v6.68a3.66,3.66,0,0,1-.37,1.67,2.733,2.733,0,0,1-1.12,1.19,3.572,3.572,0,0,1-1.87.44,3.854,3.854,0,0,1-2.41-.7,2.647,2.647,0,0,1-1.06-1.9h2.03a.966.966,0,0,0,.46.61,1.656,1.656,0,0,0,.89.22,1.367,1.367,0,0,0,1.01-.37,1.581,1.581,0,0,0,.38-1.17v-.95a2.259,2.259,0,0,1-.83.76,2.553,2.553,0,0,1-1.24.29,2.707,2.707,0,0,1-1.5-.43,2.92,2.92,0,0,1-1.06-1.21,4.031,4.031,0,0,1-.39-1.82,3.987,3.987,0,0,1,.39-1.81,2.891,2.891,0,0,1,1.06-1.2,2.782,2.782,0,0,1,1.5-.42,2.581,2.581,0,0,1,1.24.29Zm.4,1.94a1.4,1.4,0,0,0-1.04-.44,1.413,1.413,0,0,0-1.04.44,1.932,1.932,0,0,0,0,2.43,1.37,1.37,0,0,0,1.04.45,1.386,1.386,0,0,0,1.04-.45,1.685,1.685,0,0,0,.43-1.21,1.643,1.643,0,0,0-.43-1.21Z" fill="#40b589"/><path d="M34.99,184.59a2.342,2.342,0,0,1,1.2-.32v2.17h-.56a1.716,1.716,0,0,0-1.15.33,1.459,1.459,0,0,0-.38,1.16v3.11H32.05v-6.7H34.1v1.12a2.669,2.669,0,0,1,.9-.87Z" fill="#40b589"/><path d="M37.16,185.86a2.891,2.891,0,0,1,1.06-1.2,2.782,2.782,0,0,1,1.5-.42,2.581,2.581,0,0,1,1.24.29,2.079,2.079,0,0,1,.82.76v-.95h2.05v6.7H41.78v-.95a2.347,2.347,0,0,1-.83.76,2.609,2.609,0,0,1-1.24.29,2.7,2.7,0,0,1-1.49-.43,2.92,2.92,0,0,1-1.06-1.21,4.031,4.031,0,0,1-.39-1.82,3.987,3.987,0,0,1,.39-1.81Zm4.2.61a1.4,1.4,0,0,0-1.04-.44,1.413,1.413,0,0,0-1.04.44,1.932,1.932,0,0,0,0,2.43,1.37,1.37,0,0,0,1.04.45,1.386,1.386,0,0,0,1.04-.45,1.685,1.685,0,0,0,.43-1.21,1.643,1.643,0,0,0-.43-1.21Z" fill="#40b589"/><path d="M47.38,182.16v8.88H45.33v-8.88Z" fill="#40b589"/><path d="M49.01,183.33a1.016,1.016,0,0,1-.34-.79,1.037,1.037,0,0,1,.34-.8,1.252,1.252,0,0,1,.88-.32,1.227,1.227,0,0,1,.87.32,1.1,1.1,0,0,1,0,1.59,1.2,1.2,0,0,1-.87.32A1.27,1.27,0,0,1,49.01,183.33Zm1.9,1.01v6.7H48.86v-6.7Z" fill="#40b589"/><path d="M52.39,185.86a2.891,2.891,0,0,1,1.06-1.2,2.782,2.782,0,0,1,1.5-.42,2.6,2.6,0,0,1,1.21.28,2.221,2.221,0,0,1,.86.74v-3.11h2.05v8.88H57.02v-.96a2.1,2.1,0,0,1-.82.77,2.609,2.609,0,0,1-1.24.29,2.707,2.707,0,0,1-1.5-.43,2.92,2.92,0,0,1-1.06-1.21,4.031,4.031,0,0,1-.39-1.82,3.987,3.987,0,0,1,.39-1.81Zm4.2.61a1.4,1.4,0,0,0-1.04-.44,1.413,1.413,0,0,0-1.04.44,1.932,1.932,0,0,0,0,2.43,1.37,1.37,0,0,0,1.04.45,1.386,1.386,0,0,0,1.04-.45,1.685,1.685,0,0,0,.43-1.21,1.643,1.643,0,0,0-.43-1.21Z" fill="#40b589"/><path d="M60.53,185.86a2.891,2.891,0,0,1,1.06-1.2,2.782,2.782,0,0,1,1.5-.42,2.581,2.581,0,0,1,1.24.29,2.079,2.079,0,0,1,.82.76v-.95H67.2v6.7H65.15v-.95a2.347,2.347,0,0,1-.83.76,2.609,2.609,0,0,1-1.24.29,2.7,2.7,0,0,1-1.49-.43,2.92,2.92,0,0,1-1.06-1.21,4.031,4.031,0,0,1-.39-1.82,3.987,3.987,0,0,1,.39-1.81Zm4.2.61a1.4,1.4,0,0,0-1.04-.44,1.413,1.413,0,0,0-1.04.44,1.932,1.932,0,0,0,0,2.43,1.37,1.37,0,0,0,1.04.45,1.386,1.386,0,0,0,1.04-.45,1.685,1.685,0,0,0,.43-1.21,1.643,1.643,0,0,0-.43-1.21Z" fill="#40b589"/><path d="M68.68,185.86a2.891,2.891,0,0,1,1.06-1.2,2.782,2.782,0,0,1,1.5-.42,2.6,2.6,0,0,1,1.21.28,2.221,2.221,0,0,1,.86.74v-3.11h2.05v8.88H73.31v-.96a2.1,2.1,0,0,1-.82.77,2.609,2.609,0,0,1-1.24.29,2.707,2.707,0,0,1-1.5-.43,2.92,2.92,0,0,1-1.06-1.21,4.031,4.031,0,0,1-.39-1.82,3.987,3.987,0,0,1,.39-1.81Zm4.2.61a1.4,1.4,0,0,0-1.04-.44,1.413,1.413,0,0,0-1.04.44,1.932,1.932,0,0,0,0,2.43,1.37,1.37,0,0,0,1.04.45,1.386,1.386,0,0,0,1.04-.45,1.685,1.685,0,0,0,.43-1.21,1.643,1.643,0,0,0-.43-1.21Z" fill="#40b589"/><path d="M83.12,188.18H78.48a1.394,1.394,0,0,0,.4.95,1.242,1.242,0,0,0,.87.33,1.087,1.087,0,0,0,1.07-.65H83a2.876,2.876,0,0,1-.61,1.19,3.051,3.051,0,0,1-1.1.83,3.526,3.526,0,0,1-1.48.3,3.567,3.567,0,0,1-1.75-.42,3.012,3.012,0,0,1-1.2-1.2,4.067,4.067,0,0,1,0-3.64,2.927,2.927,0,0,1,1.19-1.2,3.876,3.876,0,0,1,3.49-.01,2.927,2.927,0,0,1,1.18,1.16,3.556,3.556,0,0,1,.43,1.76,4.217,4.217,0,0,1-.04.6Zm-2.06-1.14a1.061,1.061,0,0,0-.36-.84,1.314,1.314,0,0,0-.9-.31,1.278,1.278,0,0,0-.87.3,1.324,1.324,0,0,0-.44.85h2.57Z" fill="#40b589"/></g></svg>