<?xml version="1.0" encoding="UTF-8"?><svg id="Layer_1" xmlns="http://www.w3.org/2000/svg" xmlns:xlink="http://www.w3.org/1999/xlink" viewBox="0 0 422 364"><defs><style>.cls-1,.cls-2,.cls-3{fill:#fff;}.cls-4{opacity:.5;}.cls-5{fill:#c1272d;}.cls-6,.cls-2{opacity:.2;}.cls-7{fill:#bbcff8;}.cls-8{fill:#131375;}.cls-9{clip-path:url(#clippath-1);}.cls-10{fill:#ffc800;}.cls-11{fill:#1a2e35;}.cls-11,.cls-3{stroke:#1a2e35;stroke-linecap:round;stroke-linejoin:round;}.cls-12{fill:#007cff;}.cls-13{opacity:.1;}.cls-14{clip-path:url(#clippath);}.cls-15{fill:none;}.cls-16{fill:#0b236d;}.cls-17{fill:#6192e6;}.cls-18{fill:#e9ecef;}.cls-19{fill:#8fb3f6;}.cls-20{fill:#ececec;}</style><clipPath id="clippath"><rect class="cls-15" width="422" height="364"/></clipPath><clipPath id="clippath-1"><path class="cls-15" d="M308.4,74.24c-33.52-10.69-70.19,.98-96.7,44.56-26.52-43.58-63.18-55.25-96.7-44.56-39.19,12.5-59.26,50.81-32.71,114.7,26.54,63.89,128.84,116.66,128.84,116.66,0,0,.21-.51,.58-1.48,.37,.97,.58,1.48,.58,1.48,0,0,102.29-52.77,128.84-116.66,26.54-63.89,6.48-102.2-32.71-114.7Z"/></clipPath></defs><g class="cls-14"><g><g><g><rect class="cls-7" x="66.04" y="52.38" width="84.47" height="32.68" transform="translate(79.43 193.68) rotate(-109.4)"/><path class="cls-17" d="M139.2,103.84l-33.01,11.63-28.83-81.87,33.01-11.63,28.83,81.87Zm-31.59,8.66l28.63-10.08L108.95,24.94l-28.63,10.08,27.29,77.49Z"/></g><g><path class="cls-17" d="M103.39,55.69c-6.99,2.46-10.66,10.12-8.2,17.11,2.46,6.99,10.12,10.66,17.11,8.2,6.99-2.46,10.66-10.12,8.2-17.11-2.46-6.99-10.12-10.66-17.11-8.2Z"/><path class="cls-7" d="M120.71,66.27l-3.18,1.12c.61,1.84,.71,3.93,.31,5.31h-2.38c.36-1.41,.38-3.26-.24-5.03-.79-2.24-2.61-3.29-4.41-2.66-1.73,.61-2.37,2.22-2.49,4.88-.13,3.66-.88,6.15-3.62,7.12-2.61,.92-5.25-.24-6.75-2.97l-3.18,1.12-.69-1.95,3.06-1.08c-.6-1.91-.55-3.38-.34-4.48l2.36,.06c-.14,.79-.38,2.33,.33,4.35,.85,2.43,2.63,2.83,3.89,2.39,1.64-.58,2.05-2.03,2.22-5.17,.18-3.71,1.24-5.93,4.05-6.91,2.49-.88,5.43,.04,7.11,3.09l3.28-1.15,.7,1.98Z"/><path class="cls-17" d="M100.55,46.56c-1.6,.56-2.44,2.31-1.87,3.91,.56,1.6,2.31,2.44,3.91,1.87,1.6-.56,2.44-2.31,1.87-3.91-.56-1.6-2.31-2.44-3.91-1.87Z"/><path class="cls-17" d="M114.11,85.05c-1.6,.56-2.44,2.31-1.87,3.91,.56,1.6,2.31,2.44,3.91,1.87s2.44-2.31,1.87-3.91c-.56-1.6-2.31-2.44-3.91-1.87Z"/></g></g><g><g><rect class="cls-7" x="38.83" y="66.36" width="86.63" height="33.51" transform="translate(63.69 198.51) rotate(-126.25)"/><path class="cls-19" d="M122.93,108.39l-28.94,21.23L41.35,57.84l28.94-21.23,52.64,71.78Zm-28.43,17.9l25.1-18.41L69.78,39.94l-25.1,18.41,49.82,67.94Z"/></g><g><path class="cls-19" d="M73.47,71.78c-6.13,4.49-7.45,13.1-2.96,19.23,4.49,6.13,13.1,7.45,19.23,2.96,6.13-4.49,7.45-13.1,2.96-19.23-4.49-6.13-13.1-7.45-19.23-2.96Z"/><path class="cls-7" d="M93.61,77.02l-2.79,2.05c1.15,1.62,1.87,3.64,1.88,5.12l-2.34,.69c-.07-1.48-.59-3.3-1.73-4.85-1.44-1.96-3.54-2.46-5.12-1.3-1.52,1.11-1.67,2.88-1,5.53,.96,3.63,.97,6.3-1.44,8.06-2.29,1.68-5.23,1.33-7.51-.91l-2.79,2.05-1.26-1.71,2.68-1.96c-1.16-1.7-1.55-3.15-1.67-4.3l2.33-.65c.09,.82,.32,2.4,1.61,4.17,1.56,2.13,3.42,2,4.52,1.19,1.44-1.05,1.4-2.6,.64-5.73-.93-3.7-.54-6.19,1.92-7.99,2.18-1.6,5.34-1.58,7.9,.92l2.87-2.11,1.28,1.74Z"/><path class="cls-19" d="M67.97,63.66c-1.4,1.03-1.7,3-.68,4.4,1.03,1.4,3,1.7,4.4,.68,1.4-1.03,1.7-3,.68-4.4-1.03-1.4-3-1.7-4.4-.68Z"/><path class="cls-19" d="M92.72,97.41c-1.4,1.03-1.7,3-.68,4.4,1.03,1.4,3,1.7,4.4,.68,1.4-1.03,1.7-3,.68-4.4-1.03-1.4-3-1.7-4.4-.68Z"/></g></g><g class="cls-4"><g><path class="cls-12" d="M403.12,.09l-64.82,11.11c-5.61,.96-7.25,8.22-2.61,11.51l11.95,8.46-73.27,103.58c-2.01,2.84-5.93,3.51-8.77,1.5L157.91,60.06c-2.84-2.01-6.76-1.33-8.77,1.5L-68,368.53H10.04L164.35,150.39c2.01-2.84,5.93-3.51,8.77-1.5l107.71,76.18c2.84,2.01,6.76,1.33,8.77-1.5l110.06-155.6,11.95,8.46c4.65,3.29,10.94-.68,9.98-6.29l-11.11-64.82c-.6-3.48-3.9-5.81-7.37-5.22Z"/><path class="cls-6" d="M403.12,.09l-64.82,11.11c-5.61,.96-7.25,8.22-2.61,11.51l11.95,8.46-73.27,103.58c-2.01,2.84-5.93,3.51-8.77,1.5L157.91,60.06c-2.84-2.01-6.76-1.33-8.77,1.5L-68,368.53H10.04L164.35,150.39c2.01-2.84,5.93-3.51,8.77-1.5l107.71,76.18c2.84,2.01,6.76,1.33,8.77-1.5l110.06-155.6,11.95,8.46c4.65,3.29,10.94-.68,9.98-6.29l-11.11-64.82c-.6-3.48-3.9-5.81-7.37-5.22Z"/></g><path class="cls-2" d="M5.16,359.51H-49.77c-.16,0-.3-.09-.37-.22-.07-.14-.06-.3,.03-.43L151.05,74.48c1.03-1.46,2.58-2.43,4.34-2.74,1.76-.3,3.54,.1,5.01,1.14l107.7,76.19c1.28,.91,2.84,1.26,4.39,1,1.55-.27,2.9-1.12,3.81-2.4L360.22,29.01l-13.31-9.41c-.14-.1-.2-.27-.17-.43,.04-.16,.17-.29,.33-.32l54.55-9.35c.11-.02,.22,0,.31,.07,.09,.06,.15,.16,.17,.27l9.35,54.55c.03,.16-.05,.33-.19,.42-.14,.09-.32,.08-.46-.01l-13.31-9.41-109.82,155.27c-1.03,1.46-2.58,2.43-4.34,2.74-1.76,.3-3.54-.1-5.01-1.13l-107.71-76.18c-2.64-1.87-6.32-1.24-8.19,1.4L5.5,359.33c-.08,.11-.2,.17-.34,.17Zm-54.12-.83H4.95L161.76,137c2.14-3.02,6.33-3.74,9.35-1.6l107.71,76.18c1.28,.91,2.85,1.26,4.39,.99,1.55-.27,2.9-1.12,3.81-2.4L397.07,54.57c.06-.09,.16-.15,.27-.17,.11-.02,.22,0,.31,.07l12.83,9.08-9.11-53.16-53.16,9.11,12.83,9.08c.09,.06,.15,.16,.17,.27,.02,.11,0,.22-.07,.31l-84.17,118.99c-1.03,1.46-2.58,2.43-4.34,2.74-1.77,.3-3.54-.1-5.01-1.14l-107.7-76.19c-1.28-.91-2.84-1.26-4.39-.99-1.55,.27-2.9,1.12-3.81,2.4L-48.97,358.68Z"/></g><path class="cls-18" d="M299.91,288.16c66.75,2.68,72.75,52.66-2.07,65.73-38.63,6.75-61.68-8.27-87.78-2.21-74.16,17.21-50.42-12.65-109.86-15.03-24.89-1-41.1-35.04,.47-41.51,51.24-7.97,181.49-7.69,199.23-6.98Z"/><path class="cls-11" d="M93.48,256.68c-33.74,0-56.52-12.66-61.4-34.46-5.66-25.23,15.08-63.71,73.97-88.56,111.71-47.15,224.29-27.73,259.35,19.99,6.49,8.84,11.26,18.1,14.16,27.54l-9.16,2.82c-2.59-8.41-6.87-16.72-12.72-24.69-15.82-21.53-51.13-37.11-94.47-41.67-48.8-5.14-103.3,3.68-153.43,24.84-38.93,16.43-74.9,48.38-68.34,77.64,4.07,18.15,25.57,28.18,57.53,26.85,31.29-1.3,65.94-7.99,102.98-19.86l2.92,9.12c-37.86,12.14-73.36,18.97-105.51,20.31-1.99,.08-3.96,.12-5.88,.12Z"/><g class="cls-9"><g><g><rect class="cls-5" x="32.77" y="287.43" width="447.54" height="18.17"/><rect class="cls-1" x="32.77" y="269.26" width="447.54" height="18.17"/><rect class="cls-5" x="32.77" y="251.1" width="447.54" height="18.17"/><rect class="cls-1" x="32.77" y="232.93" width="447.54" height="18.17"/><rect class="cls-5" x="32.77" y="214.76" width="447.54" height="18.17"/><rect class="cls-1" x="32.77" y="196.59" width="447.54" height="18.17"/><rect class="cls-5" x="32.77" y="178.43" width="447.54" height="18.17"/><rect class="cls-1" x="32.77" y="160.26" width="447.54" height="18.17"/><rect class="cls-5" x="32.77" y="142.09" width="447.54" height="18.17"/><rect class="cls-1" x="32.77" y="123.93" width="447.54" height="18.17"/><rect class="cls-5" x="32.77" y="105.76" width="447.54" height="18.17"/><rect class="cls-1" x="32.77" y="87.59" width="447.54" height="18.17"/><rect class="cls-5" x="32.77" y="69.43" width="447.54" height="18.17"/></g><g><rect class="cls-16" x="32.77" y="69.43" width="179.07" height="127.13"/><g><polygon class="cls-1" points="49.35 79.31 53.77 79.98 50.56 83.11 51.29 87.55 47.35 85.44 43.39 87.52 44.16 83.08 40.98 79.93 45.4 79.3 47.39 75.27 49.35 79.31"/><polygon class="cls-1" points="79.32 79.31 83.74 79.98 80.53 83.11 81.27 87.55 77.32 85.44 73.36 87.52 74.14 83.08 70.95 79.93 75.37 79.3 77.36 75.27 79.32 79.31"/><polygon class="cls-1" points="109.3 79.31 113.71 79.98 110.5 83.11 111.24 87.55 107.3 85.44 103.34 87.52 104.11 83.08 100.92 79.93 105.35 79.3 107.34 75.27 109.3 79.31"/><polygon class="cls-1" points="139.27 79.31 143.69 79.98 140.48 83.11 141.22 87.55 137.27 85.44 133.31 87.52 134.08 83.08 130.9 79.93 135.32 79.3 137.31 75.27 139.27 79.31"/><polygon class="cls-1" points="169.25 79.31 173.66 79.98 170.45 83.11 171.19 87.55 167.24 85.44 163.28 87.52 164.06 83.08 160.87 79.93 165.29 79.3 167.29 75.27 169.25 79.31"/><polygon class="cls-1" points="64.08 92.86 68.5 93.53 65.29 96.66 66.02 101.1 62.08 98.98 58.12 101.06 58.89 96.63 55.71 93.47 60.13 92.85 62.12 88.82 64.08 92.86"/><polygon class="cls-1" points="94.05 92.86 98.47 93.53 95.26 96.66 96 101.1 92.05 98.98 88.09 101.06 88.86 96.63 85.68 93.47 90.1 92.85 92.09 88.82 94.05 92.86"/><polygon class="cls-1" points="124.03 92.86 128.44 93.53 125.23 96.66 125.97 101.1 122.03 98.98 118.07 101.06 118.84 96.63 115.65 93.47 120.07 92.85 122.07 88.82 124.03 92.86"/><polygon class="cls-1" points="154 92.86 158.42 93.53 155.21 96.66 155.94 101.1 152 98.98 148.04 101.06 148.81 96.63 145.63 93.47 150.05 92.85 152.04 88.82 154 92.86"/><polygon class="cls-1" points="183.97 92.86 188.39 93.53 185.18 96.66 185.92 101.1 181.97 98.98 178.01 101.06 178.78 96.63 175.6 93.47 180.02 92.85 182.01 88.82 183.97 92.86"/><polygon class="cls-1" points="199.22 79.31 203.63 79.98 200.42 83.11 201.16 87.55 197.22 85.44 193.26 87.52 194.03 83.08 190.84 79.93 195.27 79.3 197.26 75.27 199.22 79.31"/><polygon class="cls-1" points="49.35 105.11 53.77 105.77 50.56 108.9 51.29 113.34 47.35 111.23 43.39 113.31 44.16 108.87 40.98 105.72 45.4 105.09 47.39 101.06 49.35 105.11"/><polygon class="cls-1" points="79.32 105.11 83.74 105.77 80.53 108.9 81.27 113.34 77.32 111.23 73.36 113.31 74.14 108.87 70.95 105.72 75.37 105.09 77.36 101.06 79.32 105.11"/><polygon class="cls-1" points="109.3 105.11 113.71 105.77 110.5 108.9 111.24 113.34 107.3 111.23 103.34 113.31 104.11 108.87 100.92 105.72 105.35 105.09 107.34 101.06 109.3 105.11"/><polygon class="cls-1" points="139.27 105.11 143.69 105.77 140.48 108.9 141.22 113.34 137.27 111.23 133.31 113.31 134.08 108.87 130.9 105.72 135.32 105.09 137.31 101.06 139.27 105.11"/><polygon class="cls-1" points="169.25 105.11 173.66 105.77 170.45 108.9 171.19 113.34 167.24 111.23 163.28 113.31 164.06 108.87 160.87 105.72 165.29 105.09 167.29 101.06 169.25 105.11"/><polygon class="cls-1" points="64.08 118.65 68.5 119.32 65.29 122.45 66.02 126.89 62.08 124.78 58.12 126.85 58.89 122.42 55.71 119.27 60.13 118.64 62.12 114.61 64.08 118.65"/><polygon class="cls-1" points="94.05 118.65 98.47 119.32 95.26 122.45 96 126.89 92.05 124.78 88.09 126.85 88.86 122.42 85.68 119.27 90.1 118.64 92.09 114.61 94.05 118.65"/><polygon class="cls-1" points="124.03 118.65 128.44 119.32 125.23 122.45 125.97 126.89 122.03 124.78 118.07 126.85 118.84 122.42 115.65 119.27 120.07 118.64 122.07 114.61 124.03 118.65"/><polygon class="cls-1" points="154 118.65 158.42 119.32 155.21 122.45 155.94 126.89 152 124.78 148.04 126.85 148.81 122.42 145.63 119.27 150.05 118.64 152.04 114.61 154 118.65"/><polygon class="cls-1" points="183.97 118.65 188.39 119.32 185.18 122.45 185.92 126.89 181.97 124.78 178.01 126.85 178.78 122.42 175.6 119.27 180.02 118.64 182.01 114.61 183.97 118.65"/><polygon class="cls-1" points="199.22 105.11 203.63 105.77 200.42 108.9 201.16 113.34 197.22 111.23 193.26 113.31 194.03 108.87 190.84 105.72 195.27 105.09 197.26 101.06 199.22 105.11"/><polygon class="cls-1" points="199.22 105.11 203.63 105.77 200.42 108.9 201.16 113.34 197.22 111.23 193.26 113.31 194.03 108.87 190.84 105.72 195.27 105.09 197.26 101.06 199.22 105.11"/><polygon class="cls-1" points="49.35 130.9 53.77 131.56 50.56 134.69 51.29 139.13 47.35 137.02 43.39 139.1 44.16 134.66 40.98 131.51 45.4 130.88 47.39 126.85 49.35 130.9"/><polygon class="cls-1" points="79.32 130.9 83.74 131.56 80.53 134.69 81.27 139.13 77.32 137.02 73.36 139.1 74.14 134.66 70.95 131.51 75.37 130.88 77.36 126.85 79.32 130.9"/><polygon class="cls-1" points="109.3 130.9 113.71 131.56 110.5 134.69 111.24 139.13 107.3 137.02 103.34 139.1 104.11 134.66 100.92 131.51 105.35 130.88 107.34 126.85 109.3 130.9"/><polygon class="cls-1" points="139.27 130.9 143.69 131.56 140.48 134.69 141.22 139.13 137.27 137.02 133.31 139.1 134.08 134.66 130.9 131.51 135.32 130.88 137.31 126.85 139.27 130.9"/><polygon class="cls-1" points="169.25 130.9 173.66 131.56 170.45 134.69 171.19 139.13 167.24 137.02 163.28 139.1 164.06 134.66 160.87 131.51 165.29 130.88 167.29 126.85 169.25 130.9"/><polygon class="cls-1" points="64.08 144.44 68.5 145.11 65.29 148.24 66.02 152.68 62.08 150.57 58.12 152.64 58.89 148.21 55.71 145.06 60.13 144.43 62.12 140.4 64.08 144.44"/><polygon class="cls-1" points="94.05 144.44 98.47 145.11 95.26 148.24 96 152.68 92.05 150.57 88.09 152.64 88.86 148.21 85.68 145.06 90.1 144.43 92.09 140.4 94.05 144.44"/><polygon class="cls-1" points="124.03 144.44 128.44 145.11 125.23 148.24 125.97 152.68 122.03 150.57 118.07 152.64 118.84 148.21 115.65 145.06 120.07 144.43 122.07 140.4 124.03 144.44"/><polygon class="cls-1" points="154 144.44 158.42 145.11 155.21 148.24 155.94 152.68 152 150.57 148.04 152.64 148.81 148.21 145.63 145.06 150.05 144.43 152.04 140.4 154 144.44"/><polygon class="cls-1" points="183.97 144.44 188.39 145.11 185.18 148.24 185.92 152.68 181.97 150.57 178.01 152.64 178.78 148.21 175.6 145.06 180.02 144.43 182.01 140.4 183.97 144.44"/><polygon class="cls-1" points="199.22 130.9 203.63 131.56 200.42 134.69 201.16 139.13 197.22 137.02 193.26 139.1 194.03 134.66 190.84 131.51 195.27 130.88 197.26 126.85 199.22 130.9"/><polygon class="cls-1" points="49.35 156.69 53.77 157.35 50.56 160.48 51.29 164.92 47.35 162.81 43.39 164.89 44.16 160.45 40.98 157.3 45.4 156.67 47.39 152.64 49.35 156.69"/><polygon class="cls-1" points="79.32 156.69 83.74 157.35 80.53 160.48 81.27 164.92 77.32 162.81 73.36 164.89 74.14 160.45 70.95 157.3 75.37 156.67 77.36 152.64 79.32 156.69"/><polygon class="cls-1" points="109.3 156.69 113.71 157.35 110.5 160.48 111.24 164.92 107.3 162.81 103.34 164.89 104.11 160.45 100.92 157.3 105.35 156.67 107.34 152.64 109.3 156.69"/><polygon class="cls-1" points="139.27 156.69 143.69 157.35 140.48 160.48 141.22 164.92 137.27 162.81 133.31 164.89 134.08 160.45 130.9 157.3 135.32 156.67 137.31 152.64 139.27 156.69"/><polygon class="cls-1" points="169.25 156.69 173.66 157.35 170.45 160.48 171.19 164.92 167.24 162.81 163.28 164.89 164.06 160.45 160.87 157.3 165.29 156.67 167.29 152.64 169.25 156.69"/><polygon class="cls-1" points="64.08 170.23 68.5 170.9 65.29 174.03 66.02 178.47 62.08 176.36 58.12 178.44 58.89 174 55.71 170.85 60.13 170.22 62.12 166.19 64.08 170.23"/><polygon class="cls-1" points="94.05 170.23 98.47 170.9 95.26 174.03 96 178.47 92.05 176.36 88.09 178.44 88.86 174 85.68 170.85 90.1 170.22 92.09 166.19 94.05 170.23"/><polygon class="cls-1" points="124.03 170.23 128.44 170.9 125.23 174.03 125.97 178.47 122.03 176.36 118.07 178.44 118.84 174 115.65 170.85 120.07 170.22 122.07 166.19 124.03 170.23"/><polygon class="cls-1" points="154 170.23 158.42 170.9 155.21 174.03 155.94 178.47 152 176.36 148.04 178.44 148.81 174 145.63 170.85 150.05 170.22 152.04 166.19 154 170.23"/><polygon class="cls-1" points="183.97 170.23 188.39 170.9 185.18 174.03 185.92 178.47 181.97 176.36 178.01 178.44 178.78 174 175.6 170.85 180.02 170.22 182.01 166.19 183.97 170.23"/><polygon class="cls-1" points="199.22 156.69 203.63 157.35 200.42 160.48 201.16 164.92 197.22 162.81 193.26 164.89 194.03 160.45 190.84 157.3 195.27 156.67 197.26 152.64 199.22 156.69"/><polygon class="cls-1" points="49.35 182.48 53.77 183.14 50.56 186.27 51.29 190.71 47.35 188.6 43.39 190.68 44.16 186.25 40.98 183.09 45.4 182.46 47.39 178.43 49.35 182.48"/><polygon class="cls-1" points="79.32 182.48 83.74 183.14 80.53 186.27 81.27 190.71 77.32 188.6 73.36 190.68 74.14 186.25 70.95 183.09 75.37 182.46 77.36 178.43 79.32 182.48"/><polygon class="cls-1" points="109.3 182.48 113.71 183.14 110.5 186.27 111.24 190.71 107.3 188.6 103.34 190.68 104.11 186.25 100.92 183.09 105.35 182.46 107.34 178.43 109.3 182.48"/><polygon class="cls-1" points="139.27 182.48 143.69 183.14 140.48 186.27 141.22 190.71 137.27 188.6 133.31 190.68 134.08 186.25 130.9 183.09 135.32 182.46 137.31 178.43 139.27 182.48"/><polygon class="cls-1" points="169.25 182.48 173.66 183.14 170.45 186.27 171.19 190.71 167.24 188.6 163.28 190.68 164.06 186.25 160.87 183.09 165.29 182.46 167.29 178.43 169.25 182.48"/><polygon class="cls-1" points="199.22 182.48 203.63 183.14 200.42 186.27 201.16 190.71 197.22 188.6 193.26 190.68 194.03 186.25 190.84 183.09 195.27 182.46 197.26 178.43 199.22 182.48"/></g></g></g></g><g><path class="cls-3" d="M259.23,345.37c-16.52,0-27.52-3.28-32.8-9.81-3.74-4.63-4.47-10.78-2.05-17.31,2.6-7.01,12.49-17.82,29.4-32.12,12.35-10.44,24.15-19.08,24.27-19.17l4.04,5.53c-12.76,9.33-46.85,36.17-51.28,48.14-1.59,4.3-1.27,7.88,.95,10.63,3.49,4.32,15.19,10.72,54.26,5.05l.98,6.77c-10.53,1.53-19.8,2.29-27.77,2.29Z"/><path class="cls-3" d="M261.47,328.43c-4.33,0-8.68-.16-12.99-.52-32.71-2.73-48.94-15.1-49.63-37.83l6.84-.21c.39,12.88,5.67,28.07,43.35,31.22,37.57,3.14,79.75-9.85,80.17-9.98l2.04,6.53c-1.58,.49-35.05,10.79-69.78,10.79Z"/><path class="cls-11" d="M282.35,351.11c-4.6,0-8.66-3.32-9.44-8.01-.87-5.22,2.65-10.16,7.87-11.03,.08-.01,7.99-1.34,16.17-3.5,5.12-1.35,10.36,1.71,11.71,6.83,1.35,5.12-1.71,10.36-6.83,11.7-9.07,2.39-17.54,3.81-17.89,3.87-.53,.09-1.06,.13-1.59,.13Z"/><path class="cls-11" d="M203.2,305.09c-3.64,0-7.12-2.09-8.73-5.62-3.07-6.76-3.16-15.01-3.16-15.93,0-5.29,4.29-9.58,9.58-9.58s9.57,4.28,9.58,9.55c.01,1.61,.38,5.69,1.44,8.03,2.19,4.82,.06,10.5-4.76,12.69-1.29,.58-2.63,.86-3.96,.86Zm7.27-21.55h0Z"/><path class="cls-8" d="M374.48,245.75c5.95-10.23,17.04-34.95,7.69-65.36-1.22-3.97-5.43-6.21-9.41-4.98-3.97,1.22-6.21,5.44-4.98,9.41,7.44,24.2-.99,43.97-5.76,52.45-2.64-.79-6.05-1.7-9.98-2.53-9.83-2.07-17.13-2.15-32.09,3.01-14.02,4.83-47.47,29.12-51.24,31.88-3.36,2.45-4.09,7.16-1.64,10.52,1.47,2.02,3.76,3.09,6.08,3.09,1.54,0,3.1-.47,4.44-1.45,9.73-7.11,37.2-26.33,47.26-29.8,12.3-4.24,16.99-4,24.07-2.51,5.41,1.14,9.7,2.47,11.92,3.22,2.07,2.53,6.68,8.95,7.97,17.27,2.98,19.18-28.52,31.13-45.45,37.54-1.13,.43-2.21,.84-3.21,1.22-3.88,1.49-5.82,5.85-4.32,9.73,1.15,2.99,4,4.83,7.03,4.83,.9,0,1.81-.16,2.7-.5,.99-.38,2.04-.78,3.15-1.2,20.91-7.93,59.83-22.69,54.99-53.93-1.49-9.62-5.92-17.29-9.22-21.9Z"/></g><g><path class="cls-11" d="M117.19,245.65l1.72,9.45c26.8-2.82,55.62-9.13,85.96-18.85l-2.92-9.12c-29.99,9.61-58.42,15.82-84.76,18.53Z"/><g><circle class="cls-11" cx="279.37" cy="200.45" r="40.28" transform="translate(-59.91 256.25) rotate(-45)"/><circle class="cls-3" cx="283.05" cy="200.45" r="40.28" transform="translate(-58.83 258.86) rotate(-45)"/><path class="cls-3" d="M205.5,238.21l-4.18-13.04c40.97-13.13,70.25-28.12,70.54-28.27l6.27,12.17c-1.23,.63-30.51,15.64-72.64,29.14Z"/><circle class="cls-11" cx="279.37" cy="200.45" r="16.31"/><circle class="cls-3" cx="282.13" cy="200.45" r="16.31"/></g></g><path class="cls-20" d="M138.9,329.01c0,7.35-31.09,13.3-69.45,13.3S0,336.36,0,329.01s31.09-13.3,69.45-13.3,69.45,5.96,69.45,13.3Z"/><g><g><rect class="cls-10" x="52.8" y="315.25" width="63.5" height="14.03"/><g class="cls-13"><path d="M55.41,316.54c.68,3.74,.69,7.49,0,11.23-.69-3.74-.68-7.49,0-11.23h0Z"/><path d="M60.14,316.54c.68,3.74,.69,7.49,0,11.23-.69-3.74-.68-7.49,0-11.23h0Z"/><path d="M62.45,316.54c.68,3.74,.69,7.49,0,11.23-.69-3.74-.68-7.49,0-11.23h0Z"/><path d="M75.13,316.54c.68,3.74,.69,7.49,0,11.23-.69-3.74-.68-7.49,0-11.23h0Z"/><path d="M78.56,316.54c.68,3.74,.69,7.49,0,11.23-.69-3.74-.68-7.49,0-11.23h0Z"/><path d="M92.75,316.54c.68,3.74,.69,7.49,0,11.23-.69-3.74-.68-7.49,0-11.23h0Z"/><path d="M96.03,316.54c.68,3.74,.69,7.49,0,11.23-.69-3.74-.68-7.49,0-11.23h0Z"/><path d="M102.05,316.54c.68,3.74,.69,7.49,0,11.23-.69-3.74-.68-7.49,0-11.23h0Z"/><path d="M90.01,316.54c.68,3.74,.69,7.49,0,11.23-.69-3.74-.68-7.49,0-11.23h0Z"/><path d="M66.64,316.54c.68,3.74,.69,7.49,0,11.23-.69-3.74-.68-7.49,0-11.23h0Z"/><path d="M83.08,316.54c.68,3.74,.69,7.49,0,11.23-.69-3.74-.68-7.49,0-11.23h0Z"/><path d="M85.44,316.54c.68,3.74,.69,7.49,0,11.23-.69-3.74-.68-7.49,0-11.23h0Z"/><path d="M109.89,316.54c.68,3.74,.69,7.49,0,11.23-.69-3.74-.68-7.49,0-11.23h0Z"/><path d="M113.44,316.54c.68,3.74,.69,7.49,0,11.23-.69-3.74-.68-7.49,0-11.23h0Z"/><path d="M104.84,316.54c.68,3.74,.69,7.49,0,11.23-.69-3.74-.68-7.49,0-11.23h0Z"/><path d="M72.39,316.54c.68,3.74,.69,7.49,0,11.23-.69-3.74-.68-7.49,0-11.23h0Z"/></g><polygon class="cls-13" points="116.29 315.25 116.29 318.23 52.79 320.23 52.79 315.25 116.29 315.25"/></g><g><rect class="cls-10" x="48.45" y="301.22" width="63.5" height="14.03"/><g class="cls-13"><path d="M51.07,302.51c.68,3.74,.69,7.49,0,11.23-.69-3.74-.68-7.49,0-11.23h0Z"/><path d="M55.8,302.51c.68,3.74,.69,7.49,0,11.23-.69-3.74-.68-7.49,0-11.23h0Z"/><path d="M58.11,302.51c.68,3.74,.69,7.49,0,11.23-.69-3.74-.68-7.49,0-11.23h0Z"/><path d="M70.79,302.51c.68,3.74,.69,7.49,0,11.23-.69-3.74-.68-7.49,0-11.23h0Z"/><path d="M74.22,302.51c.68,3.74,.69,7.49,0,11.23-.69-3.74-.68-7.49,0-11.23h0Z"/><path d="M88.41,302.51c.68,3.74,.69,7.49,0,11.23-.69-3.74-.68-7.49,0-11.23h0Z"/><path d="M91.69,302.51c.68,3.74,.69,7.49,0,11.23-.69-3.74-.68-7.49,0-11.23h0Z"/><path d="M97.7,302.51c.68,3.74,.69,7.49,0,11.23-.69-3.74-.68-7.49,0-11.23h0Z"/><path d="M85.67,302.51c.68,3.74,.69,7.49,0,11.23-.69-3.74-.68-7.49,0-11.23h0Z"/><path d="M62.3,302.51c.68,3.74,.69,7.49,0,11.23-.69-3.74-.68-7.49,0-11.23h0Z"/><path d="M78.74,302.51c.68,3.74,.69,7.49,0,11.23-.69-3.74-.68-7.49,0-11.23h0Z"/><path d="M81.1,302.51c.68,3.74,.69,7.49,0,11.23-.69-3.74-.68-7.49,0-11.23h0Z"/><path d="M105.55,302.51c.68,3.74,.69,7.49,0,11.23-.69-3.74-.68-7.49,0-11.23h0Z"/><path d="M109.1,302.51c.68,3.74,.69,7.49,0,11.23-.69-3.74-.68-7.49,0-11.23h0Z"/><path d="M100.5,302.51c.68,3.74,.69,7.49,0,11.23-.69-3.74-.68-7.49,0-11.23h0Z"/><path d="M68.05,302.51c.68,3.74,.69,7.49,0,11.23-.69-3.74-.68-7.49,0-11.23h0Z"/></g><polygon class="cls-13" points="111.95 301.22 111.95 304.2 48.45 306.2 48.45 301.22 111.95 301.22"/></g><g><rect class="cls-10" x="58.26" y="273.27" width="63.5" height="14.03"/><g class="cls-13"><path d="M60.88,274.56c.68,3.74,.69,7.49,0,11.23-.69-3.74-.68-7.49,0-11.23h0Z"/><path d="M65.61,274.56c.68,3.74,.69,7.49,0,11.23-.69-3.74-.68-7.49,0-11.23h0Z"/><path d="M67.92,274.56c.68,3.74,.69,7.49,0,11.23-.69-3.74-.68-7.49,0-11.23h0Z"/><path d="M80.6,274.56c.68,3.74,.69,7.49,0,11.23-.69-3.74-.68-7.49,0-11.23h0Z"/><path d="M84.03,274.56c.68,3.74,.69,7.49,0,11.23-.69-3.74-.68-7.49,0-11.23h0Z"/><path d="M98.22,274.56c.68,3.74,.69,7.49,0,11.23-.69-3.74-.68-7.49,0-11.23h0Z"/><path d="M101.5,274.56c.68,3.74,.69,7.49,0,11.23-.69-3.74-.68-7.49,0-11.23h0Z"/><path d="M107.51,274.56c.68,3.74,.69,7.49,0,11.23-.69-3.74-.68-7.49,0-11.23h0Z"/><path d="M95.48,274.56c.68,3.74,.69,7.49,0,11.23-.69-3.74-.68-7.49,0-11.23h0Z"/><path d="M72.11,274.56c.68,3.74,.69,7.49,0,11.23-.69-3.74-.68-7.49,0-11.23h0Z"/><path d="M88.55,274.56c.68,3.74,.69,7.49,0,11.23-.69-3.74-.68-7.49,0-11.23h0Z"/><path d="M90.91,274.56c.68,3.74,.69,7.49,0,11.23-.69-3.74-.68-7.49,0-11.23h0Z"/><path d="M115.36,274.56c.68,3.74,.69,7.49,0,11.23-.69-3.74-.68-7.49,0-11.23h0Z"/><path d="M118.91,274.56c.68,3.74,.69,7.49,0,11.23-.69-3.74-.68-7.49,0-11.23h0Z"/><path d="M110.31,274.56c.68,3.74,.69,7.49,0,11.23-.69-3.74-.68-7.49,0-11.23h0Z"/><path d="M77.86,274.56c.68,3.74,.69,7.49,0,11.23-.69-3.74-.68-7.49,0-11.23h0Z"/></g><polygon class="cls-13" points="121.76 273.27 121.76 276.25 58.26 278.26 58.26 273.27 121.76 273.27"/></g><g><rect class="cls-10" x="56.66" y="259.24" width="63.5" height="14.03"/><g class="cls-13"><path d="M117.3,271.75c-.68-3.74-.69-7.49,0-11.23,.69,3.74,.68,7.49,0,11.23h0Z"/><path d="M112.57,271.75c-.68-3.74-.69-7.49,0-11.23,.69,3.74,.68,7.49,0,11.23h0Z"/><path d="M110.26,271.75c-.68-3.74-.69-7.49,0-11.23,.69,3.74,.68,7.49,0,11.23h0Z"/><path d="M97.58,271.75c-.68-3.74-.69-7.49,0-11.23,.69,3.74,.68,7.49,0,11.23h0Z"/><path d="M94.15,271.75c-.68-3.74-.69-7.49,0-11.23,.69,3.74,.68,7.49,0,11.23h0Z"/><path d="M79.96,271.75c-.68-3.74-.69-7.49,0-11.23,.69,3.74,.68,7.49,0,11.23h0Z"/><path d="M76.69,271.75c-.68-3.74-.69-7.49,0-11.23,.69,3.74,.68,7.49,0,11.23h0Z"/><path d="M70.67,271.75c-.68-3.74-.69-7.49,0-11.23,.69,3.74,.68,7.49,0,11.23h0Z"/><path d="M82.71,271.75c-.68-3.74-.69-7.49,0-11.23,.69,3.74,.68,7.49,0,11.23h0Z"/><path d="M106.07,271.75c-.68-3.74-.69-7.49,0-11.23,.69,3.74,.68,7.49,0,11.23h0Z"/><path d="M89.64,271.75c-.68-3.74-.69-7.49,0-11.23,.69,3.74,.68,7.49,0,11.23h0Z"/><path d="M87.27,271.75c-.68-3.74-.69-7.49,0-11.23,.69,3.74,.68,7.49,0,11.23h0Z"/><path d="M62.82,271.75c-.68-3.74-.69-7.49,0-11.23,.69,3.74,.68,7.49,0,11.23h0Z"/><path d="M59.28,271.75c-.68-3.74-.69-7.49,0-11.23,.69,3.74,.68,7.49,0,11.23h0Z"/><path d="M67.87,271.75c-.68-3.74-.69-7.49,0-11.23,.69,3.74,.68,7.49,0,11.23h0Z"/><path d="M100.32,271.75c-.68-3.74-.69-7.49,0-11.23,.69,3.74,.68,7.49,0,11.23h0Z"/></g><polygon class="cls-13" points="120.15 259.24 120.15 262.22 56.66 264.23 56.66 259.24 120.15 259.24"/></g><g><rect class="cls-10" x="52.8" y="245.21" width="63.5" height="14.03"/><g class="cls-13"><path d="M55.41,246.5c.68,3.74,.69,7.49,0,11.23-.69-3.74-.68-7.49,0-11.23h0Z"/><path d="M60.14,246.5c.68,3.74,.69,7.49,0,11.23-.69-3.74-.68-7.49,0-11.23h0Z"/><path d="M62.45,246.5c.68,3.74,.69,7.49,0,11.23-.69-3.74-.68-7.49,0-11.23h0Z"/><path d="M75.13,246.5c.68,3.74,.69,7.49,0,11.23-.69-3.74-.68-7.49,0-11.23h0Z"/><path d="M78.57,246.5c.68,3.74,.69,7.49,0,11.23-.69-3.74-.68-7.49,0-11.23h0Z"/><path d="M92.75,246.5c.68,3.74,.69,7.49,0,11.23-.69-3.74-.68-7.49,0-11.23h0Z"/><path d="M96.03,246.5c.68,3.74,.69,7.49,0,11.23-.69-3.74-.68-7.49,0-11.23h0Z"/><path d="M102.05,246.5c.68,3.74,.69,7.49,0,11.23-.69-3.74-.68-7.49,0-11.23h0Z"/><path d="M90.01,246.5c.68,3.74,.69,7.49,0,11.23-.69-3.74-.68-7.49,0-11.23h0Z"/><path d="M66.64,246.5c.68,3.74,.69,7.49,0,11.23-.69-3.74-.68-7.49,0-11.23h0Z"/><path d="M83.08,246.5c.68,3.74,.69,7.49,0,11.23-.69-3.74-.68-7.49,0-11.23h0Z"/><path d="M85.44,246.5c.68,3.74,.69,7.49,0,11.23-.69-3.74-.68-7.49,0-11.23h0Z"/><path d="M109.89,246.5c.68,3.74,.69,7.49,0,11.23-.69-3.74-.68-7.49,0-11.23h0Z"/><path d="M113.44,246.5c.68,3.74,.69,7.49,0,11.23-.69-3.74-.68-7.49,0-11.23h0Z"/><path d="M104.84,246.5c.68,3.74,.69,7.49,0,11.23-.69-3.74-.68-7.49,0-11.23h0Z"/><path d="M72.39,246.5c.68,3.74,.69,7.49,0,11.23-.69-3.74-.68-7.49,0-11.23h0Z"/></g><polygon class="cls-13" points="116.29 245.21 116.29 248.19 52.8 250.2 52.8 245.21 116.29 245.21"/></g><g><rect class="cls-10" x="52.8" y="287.3" width="63.5" height="14.03"/><g class="cls-13"><path d="M113.44,299.82c-.68-3.74-.69-7.49,0-11.23,.69,3.74,.68,7.49,0,11.23h0Z"/><path d="M108.71,299.82c-.68-3.74-.69-7.49,0-11.23,.69,3.74,.68,7.49,0,11.23h0Z"/><path d="M106.4,299.82c-.68-3.74-.69-7.49,0-11.23,.69,3.74,.68,7.49,0,11.23h0Z"/><path d="M93.72,299.82c-.68-3.74-.69-7.49,0-11.23,.69,3.74,.68,7.49,0,11.23h0Z"/><path d="M90.29,299.82c-.68-3.74-.69-7.49,0-11.23,.69,3.74,.68,7.49,0,11.23h0Z"/><path d="M76.1,299.82c-.68-3.74-.69-7.49,0-11.23,.69,3.74,.68,7.49,0,11.23h0Z"/><path d="M72.82,299.82c-.68-3.74-.69-7.49,0-11.23,.69,3.74,.68,7.49,0,11.23h0Z"/><path d="M66.81,299.82c-.68-3.74-.69-7.49,0-11.23,.69,3.74,.68,7.49,0,11.23h0Z"/><path d="M78.84,299.82c-.68-3.74-.69-7.49,0-11.23,.69,3.74,.68,7.49,0,11.23h0Z"/><path d="M102.21,299.82c-.68-3.74-.69-7.49,0-11.23,.69,3.74,.68,7.49,0,11.23h0Z"/><path d="M85.77,299.82c-.68-3.74-.69-7.49,0-11.23,.69,3.74,.68,7.49,0,11.23h0Z"/><path d="M83.41,299.82c-.68-3.74-.69-7.49,0-11.23,.69,3.74,.68,7.49,0,11.23h0Z"/><path d="M58.96,299.82c-.68-3.74-.69-7.49,0-11.23,.69,3.74,.68,7.49,0,11.23h0Z"/><path d="M55.41,299.82c-.68-3.74-.69-7.49,0-11.23,.69,3.74,.68,7.49,0,11.23h0Z"/><path d="M64.01,299.82c-.68-3.74-.69-7.49,0-11.23,.69,3.74,.68,7.49,0,11.23h0Z"/><path d="M96.46,299.82c-.68-3.74-.69-7.49,0-11.23,.69,3.74,.68,7.49,0,11.23h0Z"/></g><polygon class="cls-13" points="116.29 287.3 116.29 290.29 52.79 292.29 52.79 287.3 116.29 287.3"/></g></g><g><path class="cls-10" d="M48.46,275.28c41.8,7.5,30.76,69.42-11.11,61.91-41.8-7.5-30.76-69.42,11.11-61.91Z"/><path class="cls-13" d="M48.46,275.28c41.8,7.5,30.76,69.42-11.11,61.91-41.8-7.5-30.76-69.42,11.11-61.91Z"/><path class="cls-10" d="M44.53,274.58c39.84,7.15,28.79,69.07-11.11,61.91-39.83-7.15-28.79-69.07,11.11-61.91Z"/><path class="cls-13" d="M13.72,306.99c.21,11.03,6.64,21.72,20.66,24.24,33.11,5.94,42.28-45.45,9.22-51.38-.22-.04-.43-.08-.65-.1,31,6.21,22.12,54.84-9.45,49.17-12.88-2.31-19.09-11.83-19.77-21.92Z"/><g class="cls-13"><path d="M42.42,286.26c.55,.14,.9,.72,.77,1.27l-.42,1.7c3,1.02,4.95,2.59,6.82,4.86,.31,.39,.46,.7,.35,1.13-.15,.59-.78,.93-1.37,.79-.25-.06-.46-.16-.69-.49-1.67-2.18-3.49-3.53-5.68-4.35l-2.97,11.89c6.12,2.97,8.23,6.07,7.19,10.23-1.12,4.5-5.7,6.75-11.05,5.59l-.83,3.31c-.14,.55-.72,.9-1.27,.77-.55-.14-.9-.72-.77-1.27l.84-3.36c-3.62-1.22-6.3-3.33-8.53-6.51-.23-.33-.34-.63-.25-1.01,.14-.55,.78-.93,1.33-.8,.38,.1,.59,.33,.69,.49,1.83,2.8,4.09,4.77,7.32,5.93l3.02-12.11c-6.02-2.99-8.07-5.99-7.01-10.23,1.07-4.29,5.63-6.63,10.84-5.46l.4-1.62c.14-.55,.72-.9,1.27-.77Zm-4.96,15.91l2.89-11.6c-4.14-.94-7.48,.84-8.24,3.9-.72,2.89,.19,5.01,5.35,7.7Zm1.22,3.06l-2.93,11.73c4.27,.97,7.65-.8,8.45-4.03,.73-2.93-.31-5.09-5.53-7.7Z"/></g></g></g></g></svg>