<?xml version="1.0" encoding="UTF-8"?><svg xmlns="http://www.w3.org/2000/svg" xmlns:xlink="http://www.w3.org/1999/xlink" viewBox="0 0 500 500"><defs><style>.cls-1{fill:url(#Gradiente_sem_nome_6-34);}.cls-2{fill:url(#Gradiente_sem_nome_6-48);}.cls-3{fill:url(#Gradiente_sem_nome_6-33);}.cls-4{fill:url(#Gradiente_sem_nome_6-5);}.cls-5,.cls-6,.cls-7{fill:#fff;}.cls-8{fill:#d0d2dc;}.cls-9{fill:url(#Gradiente_sem_nome_6-6);}.cls-10{fill:url(#Gradiente_sem_nome_6-51);}.cls-11{fill:url(#Gradiente_sem_nome_6);}.cls-12{fill:url(#Gradiente_sem_nome_6-22);}.cls-13{fill:url(#Gradiente_sem_nome_6-46);}.cls-14{fill:url(#Gradiente_sem_nome_6-43);}.cls-15{fill:url(#Gradiente_sem_nome_6-9);}.cls-15,.cls-16,.cls-17,.cls-18,.cls-19,.cls-20,.cls-21,.cls-22,.cls-23,.cls-24,.cls-25,.cls-26,.cls-27,.cls-28,.cls-29{stroke:#fff;}.cls-15,.cls-16,.cls-17,.cls-18,.cls-19,.cls-20,.cls-22,.cls-23,.cls-24,.cls-25,.cls-26,.cls-27,.cls-28,.cls-29{stroke-miterlimit:10;}.cls-30{fill:url(#Gradiente_sem_nome_6-42);}.cls-16{fill:url(#Gradiente_sem_nome_6-10);}.cls-31{clip-path:url(#clippath-2);}.cls-32{fill:url(#Gradiente_sem_nome_6-26);}.cls-17{fill:url(#Gradiente_sem_nome_6-13);}.cls-33{opacity:.2;}.cls-34{fill:url(#Gradiente_sem_nome_6-49);}.cls-18{fill:url(#Gradiente_sem_nome_6-14);}.cls-35{fill:url(#Gradiente_sem_nome_6-24);}.cls-6,.cls-36,.cls-37{opacity:.5;}.cls-19{fill:url(#Gradiente_sem_nome_6-20);}.cls-20{fill:url(#Gradiente_sem_nome_6-19);}.cls-21,.cls-7,.cls-38,.cls-39,.cls-40,.cls-41,.cls-42{stroke-linecap:round;stroke-linejoin:round;}.cls-21,.cls-39,.cls-43,.cls-40{fill:none;}.cls-44{fill:url(#Gradiente_sem_nome_6-41);}.cls-45{fill:url(#Gradiente_sem_nome_6-50);}.cls-46,.cls-42{fill:#4d356b;}.cls-47{fill:url(#Gradiente_sem_nome_6-44);}.cls-48{clip-path:url(#clippath-1);}.cls-49{clip-path:url(#clippath-4);}.cls-36{fill:#afdef7;}.cls-36,.cls-50,.cls-37{isolation:isolate;}.cls-51{fill:url(#Gradiente_sem_nome_6-38);}.cls-22{fill:url(#Gradiente_sem_nome_6-16);}.cls-52{fill:url(#Gradiente_sem_nome_6-30);}.cls-50,.cls-37{fill:#325586;}.cls-7,.cls-38,.cls-40,.cls-41,.cls-42{stroke:#263238;}.cls-53{fill:url(#Gradiente_sem_nome_6-21);}.cls-54{fill:url(#Gradiente_sem_nome_6-25);}.cls-23{fill:url(#Gradiente_sem_nome_6-7);}.cls-38{fill:#854742;}.cls-55{fill:url(#Gradiente_sem_nome_6-47);}.cls-56{fill:url(#Gradiente_sem_nome_6-29);}.cls-57{fill:url(#Gradiente_sem_nome_6-35);}.cls-58{fill:url(#Gradiente_sem_nome_6-28);}.cls-59{clip-path:url(#clippath);}.cls-60{fill:url(#Gradiente_sem_nome_6-36);}.cls-61{fill:#c6ff00;}.cls-39{stroke:#c6ff00;stroke-width:2px;}.cls-24{fill:url(#Gradiente_sem_nome_6-15);}.cls-62,.cls-41{fill:#62a377;}.cls-63{fill:url(#Gradiente_sem_nome_6-39);}.cls-64{clip-path:url(#clippath-3);}.cls-25{fill:url(#Gradiente_sem_nome_6-12);}.cls-65{fill:url(#Gradiente_sem_nome_6-27);}.cls-66{fill:url(#Gradiente_sem_nome_6-40);}.cls-67{fill:url(#Gradiente_sem_nome_6-31);}.cls-68{fill:url(#Gradiente_sem_nome_6-45);}.cls-26{fill:url(#Gradiente_sem_nome_6-11);}.cls-27{fill:url(#Gradiente_sem_nome_6-17);}.cls-69{fill:url(#Gradiente_sem_nome_6-32);}.cls-70{fill:url(#Gradiente_sem_nome_6-3);}.cls-28{fill:url(#Gradiente_sem_nome_6-8);}.cls-71{fill:url(#Gradiente_sem_nome_6-4);}.cls-72{fill:url(#Gradiente_sem_nome_6-2);}.cls-73{fill:url(#Gradiente_sem_nome_6-23);}.cls-74{fill:#263238;}.cls-75{fill:url(#Gradiente_sem_nome_6-37);}.cls-29{fill:url(#Gradiente_sem_nome_6-18);}</style><linearGradient id="Gradiente_sem_nome_6" x1="97.28" y1="272.95" x2="131.05" y2="272.95" gradientTransform="matrix(1, 0, 0, 1, 0, 0)" gradientUnits="userSpaceOnUse"><stop offset="0" stop-color="#233657"/><stop offset="1" stop-color="#152641"/></linearGradient><linearGradient id="Gradiente_sem_nome_6-2" x1="108.21" y1="273.91" x2="115.74" y2="273.91" xlink:href="#Gradiente_sem_nome_6"/><linearGradient id="Gradiente_sem_nome_6-3" x1="376.8" y1="276.69" x2="399.45" y2="276.69" xlink:href="#Gradiente_sem_nome_6"/><linearGradient id="Gradiente_sem_nome_6-4" x1="384.9" y1="251.04" x2="391.35" y2="251.04" xlink:href="#Gradiente_sem_nome_6"/><linearGradient id="Gradiente_sem_nome_6-5" x1="385.63" y1="254.42" x2="390.62" y2="254.42" xlink:href="#Gradiente_sem_nome_6"/><linearGradient id="Gradiente_sem_nome_6-6" x1="382.61" y1="275.78" x2="393.24" y2="275.78" xlink:href="#Gradiente_sem_nome_6"/><linearGradient id="Gradiente_sem_nome_6-7" x1="124.62" y1="198.67" x2="150.43" y2="198.67" xlink:href="#Gradiente_sem_nome_6"/><linearGradient id="Gradiente_sem_nome_6-8" x1="124.16" y1="198.67" x2="150.9" y2="198.67" xlink:href="#Gradiente_sem_nome_6"/><linearGradient id="Gradiente_sem_nome_6-9" x1="120.4" y1="198.67" x2="146.21" y2="198.67" xlink:href="#Gradiente_sem_nome_6"/><linearGradient id="Gradiente_sem_nome_6-10" x1="119.93" y1="198.67" x2="146.68" y2="198.67" xlink:href="#Gradiente_sem_nome_6"/><linearGradient id="Gradiente_sem_nome_6-11" x1="108.2" y1="198.2" x2="136.82" y2="198.2" xlink:href="#Gradiente_sem_nome_6"/><linearGradient id="Gradiente_sem_nome_6-12" x1="107.73" y1="198.2" x2="137.29" y2="198.2" xlink:href="#Gradiente_sem_nome_6"/><linearGradient id="Gradiente_sem_nome_6-13" x1="101.63" y1="198.67" x2="127.44" y2="198.67" xlink:href="#Gradiente_sem_nome_6"/><linearGradient id="Gradiente_sem_nome_6-14" x1="101.16" y1="198.67" x2="127.91" y2="198.67" xlink:href="#Gradiente_sem_nome_6"/><linearGradient id="Gradiente_sem_nome_6-15" x1="97.41" y1="198.67" x2="123.22" y2="198.67" xlink:href="#Gradiente_sem_nome_6"/><linearGradient id="Gradiente_sem_nome_6-16" x1="96.94" y1="198.67" x2="123.69" y2="198.67" xlink:href="#Gradiente_sem_nome_6"/><linearGradient id="Gradiente_sem_nome_6-17" x1="105.6" y1="198.67" x2="115.02" y2="198.67" xlink:href="#Gradiente_sem_nome_6"/><linearGradient id="Gradiente_sem_nome_6-18" x1="105.13" y1="198.67" x2="115.49" y2="198.67" xlink:href="#Gradiente_sem_nome_6"/><linearGradient id="Gradiente_sem_nome_6-19" x1="103.73" y1="198.67" x2="113.15" y2="198.67" xlink:href="#Gradiente_sem_nome_6"/><linearGradient id="Gradiente_sem_nome_6-20" x1="103.26" y1="198.67" x2="113.62" y2="198.67" xlink:href="#Gradiente_sem_nome_6"/><linearGradient id="Gradiente_sem_nome_6-21" x1="363.61" y1="197.67" x2="414.79" y2="197.67" xlink:href="#Gradiente_sem_nome_6"/><linearGradient id="Gradiente_sem_nome_6-22" x1="175.17" y1="126.59" x2="188.72" y2="126.59" xlink:href="#Gradiente_sem_nome_6"/><linearGradient id="Gradiente_sem_nome_6-23" x1="157.32" y1="133.14" x2="185.25" y2="133.14" xlink:href="#Gradiente_sem_nome_6"/><linearGradient id="Gradiente_sem_nome_6-24" x1="186.67" y1="134.31" x2="191.21" y2="134.31" xlink:href="#Gradiente_sem_nome_6"/><linearGradient id="Gradiente_sem_nome_6-25" x1="185.98" y1="141.06" x2="190.95" y2="141.06" xlink:href="#Gradiente_sem_nome_6"/><linearGradient id="Gradiente_sem_nome_6-26" x1="166.54" y1="148.85" x2="183.62" y2="148.85" xlink:href="#Gradiente_sem_nome_6"/><linearGradient id="Gradiente_sem_nome_6-27" x1="182.02" y1="147.51" x2="188.37" y2="147.51" xlink:href="#Gradiente_sem_nome_6"/><linearGradient id="Gradiente_sem_nome_6-28" x1="161.64" y1="126.84" x2="185.09" y2="126.84" xlink:href="#Gradiente_sem_nome_6"/><linearGradient id="Gradiente_sem_nome_6-29" x1="157.45" y1="143.48" x2="184.91" y2="143.48" xlink:href="#Gradiente_sem_nome_6"/><linearGradient id="Gradiente_sem_nome_6-30" x1="321.7" y1="139.23" x2="355.2" y2="139.23" xlink:href="#Gradiente_sem_nome_6"/><linearGradient id="Gradiente_sem_nome_6-31" x1="337.89" y1="121.45" x2="344.88" y2="121.45" xlink:href="#Gradiente_sem_nome_6"/><linearGradient id="Gradiente_sem_nome_6-32" x1="332.1" y1="119.96" x2="339.05" y2="119.96" xlink:href="#Gradiente_sem_nome_6"/><clipPath id="clippath"><circle class="cls-43" cx="263.28" cy="108.9" r="27.9"/></clipPath><linearGradient id="Gradiente_sem_nome_6-33" x1="240.12" y1="114.21" x2="302.56" y2="114.21" xlink:href="#Gradiente_sem_nome_6"/><linearGradient id="Gradiente_sem_nome_6-34" x1="246.25" y1="120.54" x2="251.3" y2="120.54" xlink:href="#Gradiente_sem_nome_6"/><linearGradient id="Gradiente_sem_nome_6-35" x1="251.36" y1="119.72" x2="252.95" y2="119.72" xlink:href="#Gradiente_sem_nome_6"/><linearGradient id="Gradiente_sem_nome_6-36" x1="243.47" y1="114.81" x2="253.51" y2="114.81" xlink:href="#Gradiente_sem_nome_6"/><linearGradient id="Gradiente_sem_nome_6-37" x1="242.22" y1="113.26" x2="279.75" y2="113.26" xlink:href="#Gradiente_sem_nome_6"/><linearGradient id="Gradiente_sem_nome_6-38" x1="241.93" y1="121.14" x2="245.31" y2="121.14" xlink:href="#Gradiente_sem_nome_6"/><linearGradient id="Gradiente_sem_nome_6-39" x1="243.16" y1="94.04" x2="297.66" y2="94.04" xlink:href="#Gradiente_sem_nome_6"/><linearGradient id="Gradiente_sem_nome_6-40" x1="251.34" y1="126.38" x2="252.04" y2="126.38" xlink:href="#Gradiente_sem_nome_6"/><linearGradient id="Gradiente_sem_nome_6-41" x1="249.83" y1="125.45" x2="252.7" y2="125.45" xlink:href="#Gradiente_sem_nome_6"/><linearGradient id="Gradiente_sem_nome_6-42" x1="245.41" y1="123.25" x2="250.16" y2="123.25" xlink:href="#Gradiente_sem_nome_6"/><linearGradient id="Gradiente_sem_nome_6-43" x1="248.41" y1="89.54" x2="255.12" y2="89.54" xlink:href="#Gradiente_sem_nome_6"/><linearGradient id="Gradiente_sem_nome_6-44" x1="265.97" y1="89.54" x2="272.69" y2="89.54" xlink:href="#Gradiente_sem_nome_6"/><linearGradient id="Gradiente_sem_nome_6-45" x1="256.37" y1="82.98" x2="257.33" y2="82.98" xlink:href="#Gradiente_sem_nome_6"/><linearGradient id="Gradiente_sem_nome_6-46" x1="259.89" y1="89.26" x2="260.85" y2="89.26" xlink:href="#Gradiente_sem_nome_6"/><linearGradient id="Gradiente_sem_nome_6-47" x1="264.15" y1="88.38" x2="265.11" y2="88.38" xlink:href="#Gradiente_sem_nome_6"/><linearGradient id="Gradiente_sem_nome_6-48" x1="264.15" y1="77.59" x2="265.11" y2="77.59" xlink:href="#Gradiente_sem_nome_6"/><linearGradient id="Gradiente_sem_nome_6-49" x1="243.98" y1="104.47" x2="252.34" y2="104.47" xlink:href="#Gradiente_sem_nome_6"/><clipPath id="clippath-1"><path class="cls-7" d="M269.42,190.17c1.86,3.47,3.45,6.37,7.58,7.13,5.68,1.05,7.76-6.3,8.53-13.71,.19,.08,.39,.15,.59,.17,1.41,.15,2.88-.18,3.94-1.26,.45-.46-.24-1.36-1.16-2.33-2.71-2.86-2.93-5.08-2.9-8.97,.01-1.76,.02-3.54-.44-5.24-.1-.38-.23-.74-.37-1.1-4.13-10.1-24.8-10.48-25.92,1.95-.36,4.03,.16,8.65,1.52,13.06"/></clipPath><clipPath id="clippath-2"><path class="cls-41" d="M258.28,176.84l28.81-9.7s-3.77-10-8.65-12.57c-4.88-2.57-16.47,0-20.43,5.08-3.96,5.08-1.6,8.76,.27,17.19Z"/></clipPath><clipPath id="clippath-3"><path class="cls-42" d="M277.16,225.95c-.48-2.26-1.1-4.5-1.79-6.73-.9-2.93-1.9-5.84-2.83-8.73-.2-.64-.47-1.28-.79-1.92v-1.48c0-1.6,1.83-4.53,1.83-4.53,0,0-1.05-1.33-4.45-4.26-3.4-2.93-9.42-6.93-9.42-6.93l-2.83,3.14c-5.36,1.23-12.39,8.81-16.26,16.81-4.32,8.92-2.11,22.11-4.11,31.62-1.04,4.98-6.6,10.49-11.13,17.52,5.57,3.34,17.6,9.36,34.28,11.15,.84-6.29,1.56-12.42,2.64-16.77,1.12-4.52,3.45-8.74,6.55-12.16,4.52-4.98,9.93-9.01,8.29-16.73Z"/></clipPath><clipPath id="clippath-4"><path class="cls-42" d="M260.28,201.56c-2.29-.8-5.46-1.35-9.03-.4-7.3,1.93-25.19,17.15-28.18,19.33-4.39,3.2-17.53,16.57-16.76,17.61,.77,1.05,7.2,5.21,17.3,13.88,10.1,8.67,31.04,16.52,31.04,16.52,0,0,5.12,5.33,8.65,6.49,1.06,.35,1.92,.58,2.63,.74,.2,.07,.41,.13,.61,.19,1.93,.56,3.24-.03,4.11-.81,.47-.37,.92-.87,1.22-1.58,.59-1.06,1.4-2.33,1.54-4,.14-1.67-2.34-1.98-2.94-3.17s-2.57-2.88-3.59-3.1c-1.02-.22-6.68,1.67-6.68,1.67,0,0-12.8-7.04-20.93-17.77-7.32-9.66-9.58-11.23-9.58-11.23,0,0,23.84-14.51,31.09-18.17"/></clipPath><linearGradient id="Gradiente_sem_nome_6-50" x1="121.17" y1="334.86" x2="147.32" y2="334.86" xlink:href="#Gradiente_sem_nome_6"/><linearGradient id="Gradiente_sem_nome_6-51" x1="270.49" y1="414.47" x2="293.37" y2="414.47" xlink:href="#Gradiente_sem_nome_6"/></defs><g id="Background_Simple"><g><path class="cls-37" d="M321.18,110.24s-54.34-24.78-112.14,2.19c-57.8,26.97-91.05,87.56-119.29,135.96-28.24,48.4-18.97,100.91,21.01,127.95,39.98,27.04,71.55-4.99,130.64-1.57,59.09,3.42,74.21,13.21,126.01-15.84,51.8-29.05,67.48-106.9,33.96-168.41-33.53-61.5-80.19-80.28-80.19-80.28Z"/><path class="cls-36" d="M321.18,110.24s-54.34-24.78-112.14,2.19c-57.8,26.97-91.05,87.56-119.29,135.96-28.24,48.4-18.97,100.91,21.01,127.95,39.98,27.04,71.55-4.99,130.64-1.57,59.09,3.42,74.21,13.21,126.01-15.84,51.8-29.05,67.48-106.9,33.96-168.41-33.53-61.5-80.19-80.28-80.19-80.28Z"/></g></g><g id="Plants"><g><path class="cls-5" d="M355.75,357.76c-3.81-2.65-8.77,1.93-10.66,5.09-1.57,2.62-3.59,6.66-4.06,7.61-.02-.08-.04-.16-.06-.23l.11-.09s-.08,.04-.12,.06c-.9-3.5-2.2-6.66-3.7-9.52,.83-.98,4.2-2.19,4.96-2.51,3.12-1.35,6.12-2.43,7.95-5.5,1.45-2.43,2.09-5.85-1.05-7.22-4.25-1.86-8.23,3.59-9.47,7.06-.98,2.72-2.1,6.76-2.45,8.05-1.45-2.76-3.08-5.24-4.69-7.47,.82-1.18,3.39-2.95,3.98-3.42,2.67-2.1,5.3-3.91,6.28-7.35,.78-2.72,.52-6.19-2.86-6.71-4.59-.71-7.04,5.58-7.35,9.24-.22,2.57-.29,6.19-.31,7.89-1.32-1.8-2.62-3.44-3.81-4.92-1.25-1.57-2.36-2.97-3.23-4.23,.2-.09,.31-.14,.31-.14-.1,.04-.23,.06-.37,.05l-.04-.07c.63-1.12,3.73-2.93,4.41-3.39,2.82-1.9,5.57-3.52,6.8-6.87,.97-2.66,.97-6.13-2.37-6.9-4.52-1.04-7.42,5.05-8,8.68-.46,2.84-.81,7.01-.92,8.36-.14-.21-.28-.43-.41-.63-1.71-2.75-3.14-5.62-4.25-8.13,.2-.04,.33-.06,.33-.06-.1,.02-.23,0-.37-.04-.04-.1-.09-.2-.13-.3,.64-1.3,2.86-3.43,3.37-3.99,2.3-2.5,4.6-4.72,5.01-8.27,.33-2.81-.48-6.19-3.91-6.16-4.64,.04-6.04,6.64-5.76,10.31,.17,2.25,.59,5.26,.86,7.11-.78-1.86-1.36-3.42-1.73-4.45h.01s-.01,0-.02,0c-.18-.5-.3-.88-.38-1.1-.19-1.53,.08-4.05,.11-4.72,.15-3.39,.49-6.57-1.47-9.56-1.55-2.36-4.35-4.43-6.95-2.21-3.53,3.01-.36,8.97,2.21,11.6,1.81,1.85,4.52,4.27,5.8,5.39,.35,1.03,1.15,3.29,2.36,6.07-1.32-.77-3.22-2.66-3.74-3.12-2.55-2.25-4.8-4.51-8.36-4.85-2.81-.27-6.18,.6-6.08,4.03,.13,4.64,6.76,5.91,10.42,5.56,2.65-.25,6.37-.87,7.97-1.15,1.12,2.55,2.57,5.48,4.32,8.29,.1,.15,.2,.31,.3,.47-1.47-.41-3.81-1.8-4.44-2.12-3.02-1.55-5.77-3.18-9.3-2.64-2.8,.43-5.84,2.1-4.9,5.4,1.27,4.46,8,4.07,11.47,2.83,2.5-.9,5.95-2.41,7.44-3.08,.88,1.29,2.02,2.72,3.3,4.32,1.29,1.62,2.72,3.41,4.16,5.41v.02c-.97,.43-4.62-1.77-5.43-2.18-3.02-1.55-5.77-3.18-9.3-2.64-2.8,.43-5.84,2.1-4.9,5.4,1.27,4.46,8.01,4.07,11.47,2.83,3.23-1.16,8.03-3.34,8.17-3.4v.16s.01-.1,.03-.15c1.57,2.18,3.14,4.6,4.55,7.28-1.28,.29-4.66-.66-5.45-.83-3.32-.71-6.4-1.56-9.67-.11-2.59,1.15-5.09,3.56-3.32,6.5,2.39,3.97,8.79,1.82,11.81-.28,2.39-1.67,5.68-4.35,6.69-5.18,1.47,2.83,2.76,5.95,3.64,9.39-1.4,.17-4.5-.7-5.25-.86-3.32-.71-6.4-1.56-9.67-.11-2.59,1.15-5.09,3.56-3.32,6.5,2.39,3.97,8.79,1.82,11.81-.28,2.25-1.57,5.3-4.04,6.49-5.02,1.03,4.11,1.51,8.67,1.07,13.75l.46,.04c.44-5.11-.03-9.7-1.06-13.83,.81-.86,4.63-1.43,5.47-1.61,3.32-.72,6.48-1.19,8.87-3.85,1.89-2.1,3.18-5.33,.37-7.29Z"/><path class="cls-5" d="M386.02,374.4c-3.52,.61-5.6,3.03-7.98,5.46-.54,.55-2.63,2.99-3.89,3.63-1.18-3.36-1.84-6.66-2.19-9.83,1.3,.13,5.52,.53,8.43,.59,3.68,.08,10.19-1.69,9.97-6.33-.16-3.42-3.58-4.04-6.37-3.56-3.52,.61-5.6,3.03-7.98,5.46-.57,.58-2.85,3.25-4.08,3.72-.32-3.01-.36-5.89-.26-8.58,.04,.04,.08,.07,.11,.11l-.09-.14c.15-.02,5.35-.88,8.68-1.71,3.57-.89,9.39-4.31,7.96-8.72-1.05-3.26-4.52-2.96-7.08-1.77-3.24,1.51-4.61,4.4-6.26,7.37-.44,.79-2.26,4.64-3.3,4.83v-.02c.07-2.46,.26-4.74,.44-6.8,.17-2.05,.32-3.86,.34-5.43,1.61-.27,5.31-.93,7.89-1.58,3.57-.89,9.39-4.31,7.96-8.72-1.05-3.26-4.52-2.96-7.08-1.77-3.24,1.51-4.61,4.4-6.26,7.37-.34,.61-1.51,3.07-2.51,4.23,0-.19,0-.38,0-.56-.11-3.31-.53-6.55-1.01-9.29,1.49-.66,4.92-2.21,7.26-3.47,3.24-1.74,8.04-6.48,5.57-10.41-1.82-2.9-5.11-1.76-7.3,.03-2.77,2.26-3.39,5.4-4.26,8.68-.18,.67-.7,3.3-1.37,4.67-.54-2.99-1.13-5.31-1.42-6.36,.44-1.64,1.35-5.16,1.82-7.7,.68-3.61,0-10.33-4.61-10.87-3.4-.4-4.58,2.87-4.56,5.7,.03,3.57,2.07,6.03,4.08,8.76,.4,.54,2.02,2.49,2.71,3.87,.06,.22,.17,.61,.3,1.12,0,0,0,.02,0,.03v-.02c.28,1.06,.66,2.69,1.04,4.66-.8-1.69-2.13-4.43-3.24-6.39-1.81-3.2-6.64-7.91-10.52-5.37-2.87,1.88-1.66,5.14,.17,7.29,2.32,2.72,5.46,3.28,8.76,4.09,.73,.18,3.76,.72,5.02,1.44,.02,.11,.04,.22,.06,.32-.09,.11-.19,.2-.28,.24,0,0,.12-.05,.3-.13,.47,2.7,.88,5.88,.99,9.12,0,.24,.01,.5,0,.75-.84-1.06-3.45-4.33-5.41-6.44-2.5-2.7-8.3-6.15-11.48-2.77-2.35,2.5-.42,5.39,1.87,7.05,2.89,2.11,6.07,1.92,9.47,1.93,.82,0,4.4-.21,5.55,.37v.08c-.12,.09-.23,.15-.34,.17,0,0,.12-.02,.34-.06-.02,1.53-.17,3.31-.34,5.31-.16,1.89-.33,3.98-.43,6.21-.96-1.4-3.03-4.38-4.64-6.39-2.3-2.87-7.83-6.74-11.25-3.6-2.53,2.32-.81,5.34,1.35,7.17,2.73,2.31,5.92,2.36,9.31,2.62,.76,.06,3.87,.1,5.21,.63-.1,2.75-.08,5.72,.25,8.82-1.02-.88-4.19-3.62-6.51-5.33-2.96-2.19-9.29-4.51-11.79-.6-1.85,2.89,.58,5.37,3.14,6.59,3.23,1.54,6.33,.77,9.67,.15,.81-.15,4.28-1.02,5.52-.66,.35,3.21,1.02,6.57,2.22,9.97-.04,0-.09,.01-.13,.01h.14c.03,.09,.05,.17,.08,.24-.92-.53-4.84-2.77-7.6-4.07-3.32-1.57-9.99-2.62-11.69,1.69-1.25,3.19,1.61,5.16,4.35,5.85,3.46,.88,6.35-.47,9.51-1.72,.79-.31,4.29-1.97,5.44-1.7,1.44,4.01,3.6,8.08,6.81,12.08l.36-.29c-3.19-3.98-5.33-8.04-6.76-12.03,1.53,.15,5.44,.51,8.18,.56,3.68,.08,10.19-1.69,9.97-6.33-.16-3.42-3.58-4.04-6.37-3.56Z"/><path class="cls-5" d="M115.65,362.93c-3.51-.7-6.32,.81-9.41,2.23-.7,.32-3.53,1.84-4.94,1.99,.11-3.56,.68-6.88,1.5-9.96,1.16,.59,4.96,2.48,7.66,3.59,3.4,1.39,10.11,2.09,11.58-2.31,1.08-3.25-1.89-5.06-4.66-5.62-3.51-.7-6.32,.81-9.41,2.23-.74,.34-3.83,2-5.14,2,.78-2.92,1.79-5.63,2.84-8.1,.02,.05,.05,.1,.06,.14l-.04-.16c.15,.03,5.31,1.11,8.71,1.53,3.65,.45,10.31-.64,10.57-5.27,.19-3.42-3.15-4.39-5.97-4.2-3.57,.25-5.89,2.44-8.5,4.62-.69,.58-3.78,3.52-4.82,3.31v-.02c.96-2.26,1.96-4.33,2.87-6.18,.9-1.85,1.69-3.49,2.27-4.94,1.6,.32,5.29,1.05,7.93,1.37,3.65,.45,10.31-.64,10.57-5.27,.19-3.42-3.15-4.39-5.97-4.2-3.57,.25-5.89,2.44-8.5,4.62-.54,.45-2.52,2.32-3.86,3.04,.07-.18,.13-.35,.19-.52,1.09-3.12,1.86-6.3,2.4-9.03,1.62-.08,5.38-.29,8.03-.62,3.65-.46,9.83-3.15,8.95-7.71-.66-3.36-4.13-3.48-6.82-2.6-3.4,1.12-5.1,3.81-7.1,6.57-.41,.56-1.84,2.82-2.96,3.86,.57-2.98,.86-5.37,.97-6.44,1-1.37,3.11-4.33,4.48-6.53,1.93-3.13,3.72-9.64-.38-11.8-3.03-1.6-5.3,1.03-6.3,3.68-1.26,3.34-.24,6.37,.65,9.65,.18,.65,.99,3.05,1.14,4.59-.02,.23-.06,.63-.13,1.16,0,0,0,.02-.01,.02h.01c-.13,1.07-.35,2.73-.71,4.71-.14-1.86-.39-4.9-.72-7.13-.53-3.64-3.35-9.77-7.88-8.8-3.35,.72-3.4,4.2-2.46,6.87,1.18,3.37,3.91,5.03,6.7,6.97,.62,.43,3.25,2.02,4.16,3.15-.02,.11-.04,.22-.06,.32-.13,.07-.25,.12-.35,.12,0,0,.13,0,.33-.01-.54,2.69-1.3,5.8-2.36,8.86-.08,.23-.17,.47-.26,.71-.4-1.29-1.66-5.28-2.73-7.95-1.36-3.42-5.53-8.72-9.71-6.72-3.09,1.48-2.33,4.88-.8,7.25,1.94,3.01,4.98,3.98,8.14,5.22,.76,.3,4.18,1.39,5.04,2.34l-.03,.07c-.14,.04-.27,.05-.38,.03,0,0,.12,.03,.33,.07-.57,1.42-1.35,3.02-2.23,4.83-.83,1.71-1.74,3.59-2.64,5.64-.39-1.66-1.25-5.17-2.03-7.63-1.11-3.51-4.88-9.1-9.2-7.41-3.19,1.25-2.68,4.69-1.32,7.18,1.71,3.14,4.67,4.33,7.74,5.8,.68,.33,3.57,1.49,4.64,2.46-1.09,2.53-2.13,5.3-2.95,8.31-.63-1.19-2.61-4.88-4.15-7.32-1.97-3.11-7.04-7.55-10.78-4.81-2.76,2.03-1.39,5.22,.55,7.28,2.46,2.6,5.62,2.99,8.96,3.62,.81,.15,4.36,.59,5.39,1.37-.83,3.12-1.41,6.49-1.53,10.1-.04-.01-.09-.02-.13-.04l.13,.06c0,.08,0,.16,0,.24-.67-.82-3.52-4.32-5.63-6.54-2.53-2.66-8.37-6.05-11.51-2.63-2.32,2.52-.35,5.39,1.95,7.03,2.91,2.07,6.1,1.85,9.5,1.82,.85,0,4.71-.29,5.69,.37-.1,4.26,.45,8.84,2,13.73l.44-.14c-1.54-4.86-2.08-9.42-1.97-13.65,1.37,.69,4.89,2.43,7.43,3.47,3.4,1.39,10.11,2.09,11.58-2.31,1.08-3.25-1.89-5.06-4.66-5.62Z"/><path class="cls-5" d="M163.54,388.2c-2.33-.46-4.19,.54-6.24,1.48-.46,.21-2.34,1.22-3.28,1.32,.07-2.36,.45-4.56,.99-6.61,.77,.39,3.29,1.65,5.08,2.38,2.26,.93,6.71,1.39,7.68-1.53,.72-2.16-1.25-3.36-3.09-3.72-2.33-.46-4.19,.54-6.24,1.48-.49,.22-2.54,1.33-3.41,1.33,.52-1.94,1.19-3.73,1.89-5.37,.02,.03,.03,.06,.04,.09l-.02-.11c.1,.02,3.52,.74,5.78,1.02,2.42,.3,6.84-.42,7.01-3.49,.13-2.27-2.09-2.91-3.96-2.78-2.37,.16-3.9,1.62-5.63,3.06-.46,.38-2.51,2.33-3.2,2.2v-.02c.64-1.5,1.3-2.87,1.9-4.1,.6-1.23,1.12-2.31,1.51-3.28,1.06,.21,3.51,.69,5.26,.91,2.42,.3,6.84-.42,7.01-3.49,.13-2.27-2.09-2.91-3.96-2.78-2.37,.16-3.9,1.62-5.63,3.06-.36,.3-1.67,1.54-2.56,2.02,.04-.12,.09-.23,.13-.35,.72-2.07,1.24-4.18,1.59-5.99,1.08-.05,3.57-.19,5.32-.41,2.42-.3,6.52-2.09,5.93-5.11-.43-2.23-2.74-2.31-4.52-1.72-2.25,.74-3.39,2.53-4.71,4.35-.27,.37-1.22,1.87-1.96,2.56,.38-1.98,.57-3.56,.64-4.27,.66-.91,2.07-2.87,2.97-4.33,1.28-2.07,2.47-6.39-.25-7.83-2.01-1.06-3.52,.68-4.18,2.44-.84,2.22-.16,4.22,.43,6.4,.12,.43,.66,2.02,.75,3.04-.01,.15-.04,.42-.08,.77v.02h0c-.09,.71-.23,1.81-.47,3.12-.09-1.24-.26-3.25-.47-4.73-.35-2.41-2.22-6.48-5.23-5.83-2.22,.48-2.26,2.79-1.63,4.56,.78,2.24,2.59,3.34,4.45,4.62,.41,.28,2.16,1.34,2.76,2.09-.01,.07-.03,.14-.04,.21-.08,.05-.16,.08-.23,.08,0,0,.08,0,.22,0-.35,1.78-.86,3.85-1.57,5.88-.05,.15-.11,.31-.17,.47-.27-.86-1.1-3.5-1.81-5.28-.9-2.27-3.67-5.79-6.44-4.46-2.05,.98-1.55,3.23-.53,4.81,1.28,1.99,3.3,2.64,5.4,3.46,.51,.2,2.78,.92,3.35,1.55l-.02,.05c-.09,.02-.18,.04-.25,.02,0,0,.08,.02,.22,.05-.38,.94-.9,2.01-1.48,3.21-.55,1.13-1.16,2.38-1.75,3.74-.26-1.1-.83-3.43-1.34-5.06-.74-2.33-3.24-6.04-6.1-4.91-2.12,.83-1.78,3.11-.88,4.76,1.14,2.08,3.1,2.87,5.13,3.84,.45,.22,2.37,.99,3.08,1.63-.72,1.68-1.41,3.52-1.95,5.51-.42-.79-1.73-3.24-2.76-4.86-1.31-2.06-4.67-5.01-7.15-3.19-1.83,1.34-.92,3.46,.37,4.83,1.63,1.72,3.73,1.99,5.95,2.4,.53,.1,2.89,.39,3.57,.91-.55,2.07-.94,4.31-1.01,6.7-.03,0-.06-.01-.08-.03l.08,.04c0,.05,0,.11,0,.16-.44-.55-2.33-2.87-3.73-4.34-1.68-1.77-5.55-4.01-7.64-1.74-1.54,1.67-.23,3.58,1.3,4.66,1.93,1.37,4.04,1.22,6.3,1.21,.57,0,3.12-.19,3.77,.25-.07,2.82,.3,5.86,1.32,9.1l.29-.09c-1.02-3.22-1.38-6.25-1.31-9.05,.91,.46,3.24,1.61,4.93,2.3,2.26,.93,6.71,1.39,7.68-1.53,.72-2.16-1.25-3.36-3.09-3.72Z"/><path class="cls-5" d="M156.27,387.61c-2.04,1.2-2.77,3.19-3.67,5.26-.2,.47-.93,2.47-1.56,3.17-1.52-1.81-2.71-3.7-3.66-5.59,.84-.22,3.55-.97,5.37-1.61,2.3-.81,5.93-3.44,4.71-6.26-.9-2.09-3.17-1.67-4.79-.72-2.04,1.2-2.77,3.19-3.67,5.26-.21,.49-1.01,2.68-1.66,3.26-.9-1.79-1.6-3.57-2.17-5.26,.03,.01,.07,.02,.09,.04l-.09-.06c.09-.05,3.12-1.8,4.99-3.09,2-1.39,4.82-4.87,2.9-7.28-1.42-1.78-3.5-.78-4.81,.56-1.65,1.7-1.83,3.81-2.16,6.04-.09,.59-.31,3.41-.92,3.77h-.01c-.52-1.55-.94-3.02-1.31-4.34-.37-1.31-.7-2.47-1.06-3.45,.93-.55,3.08-1.82,4.53-2.83,2-1.39,4.82-4.87,2.9-7.28-1.42-1.78-3.5-.78-4.81,.56-1.65,1.7-1.83,3.81-2.16,6.04-.07,.46-.22,2.26-.57,3.21-.05-.12-.09-.23-.14-.34-.84-2.03-1.87-3.94-2.81-5.53,.77-.76,2.53-2.52,3.69-3.86,1.6-1.84,3.47-5.91,1.02-7.77-1.81-1.37-3.58,.11-4.52,1.73-1.19,2.05-.84,4.14-.61,6.38,.05,.46,.34,2.21,.24,3.22-1.04-1.73-1.95-3.03-2.37-3.61-.11-1.12-.37-3.52-.67-5.21-.43-2.4-2.42-6.41-5.41-5.67-2.21,.55-2.17,2.85-1.49,4.6,.85,2.21,2.7,3.25,4.59,4.48,.37,.24,1.84,1.07,2.59,1.76,.09,.12,.25,.34,.45,.63v.02h0c.42,.58,1.04,1.5,1.74,2.64-.89-.86-2.36-2.25-3.51-3.21-1.87-1.56-5.97-3.35-7.79-.86-1.34,1.84,.18,3.58,1.82,4.49,2.08,1.15,4.16,.76,6.39,.48,.49-.06,2.5-.44,3.45-.28,.04,.06,.07,.13,.11,.19-.03,.09-.07,.17-.12,.22,0,0,.06-.06,.16-.15,.92,1.57,1.92,3.44,2.75,5.43,.06,.15,.12,.31,.18,.47-.77-.46-3.16-1.88-4.87-2.73-2.18-1.09-6.59-1.87-7.77,.97-.87,2.1,1,3.44,2.81,3.94,2.29,.63,4.22-.23,6.33-1.02,.51-.19,2.68-1.16,3.53-1.07l.02,.05c-.05,.08-.11,.15-.17,.18,0,0,.07-.04,.2-.11,.34,.95,.67,2.09,1.03,3.37,.34,1.21,.73,2.55,1.19,3.95-.93-.65-2.9-2.01-4.38-2.88-2.1-1.24-6.44-2.35-7.82,.4-1.02,2.03,.75,3.5,2.52,4.13,2.23,.8,4.23,.08,6.39-.56,.48-.14,2.43-.84,3.38-.83,.58,1.73,1.29,3.57,2.22,5.41-.84-.31-3.45-1.26-5.29-1.78-2.35-.66-6.82-.62-7.46,2.39-.47,2.22,1.62,3.2,3.49,3.35,2.36,.2,4.1-1.01,6.03-2.17,.47-.28,2.42-1.64,3.27-1.7,.97,1.91,2.17,3.83,3.71,5.67-.03,.01-.05,.03-.08,.04l.09-.02s.07,.08,.1,.12c-.69-.11-3.65-.58-5.67-.75-2.43-.2-6.81,.71-6.86,3.79-.03,2.27,2.21,2.82,4.07,2.61,2.36-.26,3.83-1.78,5.5-3.3,.42-.38,2.2-2.22,2.98-2.33,1.83,2.15,4.13,4.17,7.06,5.9l.15-.26c-2.91-1.72-5.19-3.74-7.01-5.88,.98-.27,3.49-.96,5.21-1.57,2.3-.81,5.93-3.44,4.7-6.26-.9-2.09-3.17-1.67-4.79-.72Z"/></g></g><g id="Icons"><g><g><g><path class="cls-11" d="M131.05,274.4c0-9.09-7.19-16.5-16.19-16.87v-.18h8.77c-.67-4.64-4.64-8.21-9.47-8.21s-8.8,3.57-9.47,8.21h8.77v.18c-9,.37-16.19,7.78-16.19,16.87,0,5.97,3.1,11.21,7.77,14.21l-2.23,6.61c-.2,.61,.12,1.26,.73,1.47,.12,.04,.25,.06,.37,.06,.48,0,.93-.3,1.1-.79l2.09-6.22c2.15,.99,4.54,1.55,7.06,1.55s4.71-.51,6.78-1.42l2.05,6.09c.16,.48,.61,.79,1.1,.79,.12,0,.25-.02,.37-.06,.61-.2,.93-.86,.73-1.47l-2.17-6.44c4.82-2.97,8.03-8.3,8.03-14.38Zm-16.88,13.44c-7.41,0-13.44-6.03-13.44-13.44s6.03-13.44,13.44-13.44,13.44,6.03,13.44,13.44-6.03,13.44-13.44,13.44Z"/><path class="cls-72" d="M114.17,272.84s-.04,0-.07,0l-4.47-7.09c-.23-.36-.7-.47-1.06-.24-.36,.23-.47,.7-.24,1.06l4.47,7.09c-.12,.22-.19,.46-.19,.73,0,.58,.32,1.08,.79,1.35v5.91c0,.43,.34,.77,.77,.77s.77-.35,.77-.77v-5.91c.47-.27,.79-.77,.79-1.35,0-.86-.7-1.56-1.56-1.56Z"/></g><circle class="cls-39" cx="114.49" cy="273.67" r="32.73" transform="translate(-57.61 32.04) rotate(-12.76)"/></g><g><g><g><path class="cls-70" d="M399.45,266.99v-10.07c0-1.24-1.22-2.24-2.72-2.24h-17.21c-1.5,0-2.72,1-2.72,2.24v10.07c0,.86,.59,1.59,1.46,1.97-.86,.38-1.46,1.11-1.46,1.97v5.69c0,.98,.77,1.81,1.84,2.11-1.07,.97-1.84,3.44-1.84,4.42v13.31c0,1.24,1.22,2.24,2.72,2.24h17.21c1.5,0,2.72-1,2.72-2.24v-13.31c0-.98-.77-3.45-1.84-4.42,1.07-.3,1.84-1.13,1.84-2.11v-5.69c0-.86-.59-1.59-1.46-1.97,.86-.38,1.46-1.11,1.46-1.97Z"/><path class="cls-71" d="M386.42,248.65h3.4c.84,0,1.52,.68,1.52,1.52v3.26h-6.45v-3.26c0-.84,.68-1.52,1.52-1.52Z"/><rect class="cls-4" x="385.63" y="252.03" width="5" height="4.78"/><path class="cls-5" d="M378.11,267.93c.05,.75,.55,1.4,1.28,1.73-.76,.35-1.29,1.04-1.29,1.84v5.32c0,.92,.68,1.69,1.63,1.97-.95,.91-1.63,3.22-1.63,4.14v12.46c0,1.16,1.08,2.09,2.41,2.09h15.24c1.33,0,2.41-.94,2.41-2.09v-12.46c0-.92-.68-3.23-1.63-4.14,.95-.28,1.63-1.05,1.63-1.97v-5.32c0-.8-.53-1.49-1.29-1.84,.73-.33,1.23-.98,1.28-1.73h0s.01-.07,.01-.11v-5.63c-1.7,.62-4.47,1.49-7.39,1.79-4.73,.49-6.05-1.15-10.21-1.15-.9,0-1.72,.25-2.45,.62v4.36s.01,.07,.01,.11h0Z"/></g><path class="cls-9" d="M393.24,277.64c0,2.94-2.38,5.32-5.32,5.32s-5.32-2.38-5.32-5.32,5.32-9.03,5.32-9.03c0,0,5.32,6.09,5.32,9.03Z"/></g><circle class="cls-39" cx="388.12" cy="273.67" r="32.73" transform="translate(-79.83 354.6) rotate(-45)"/></g><g><g><g><ellipse class="cls-23" cx="137.53" cy="198.67" rx="12.9" ry="14.78"/><path class="cls-28" d="M137.53,213.92c-7.37,0-13.37-6.84-13.37-15.25s6-15.25,13.37-15.25,13.37,6.84,13.37,15.25-6,15.25-13.37,15.25Zm0-29.56c-6.86,0-12.43,6.42-12.43,14.31s5.58,14.31,12.43,14.31,12.43-6.42,12.43-14.31-5.58-14.31-12.43-14.31Z"/></g><g><ellipse class="cls-15" cx="133.31" cy="198.67" rx="12.9" ry="14.78"/><path class="cls-16" d="M133.31,213.92c-7.37,0-13.37-6.84-13.37-15.25s6-15.25,13.37-15.25,13.37,6.84,13.37,15.25-6,15.25-13.37,15.25Zm0-29.56c-6.86,0-12.43,6.42-12.43,14.31s5.58,14.31,12.43,14.31,12.43-6.42,12.43-14.31-5.58-14.31-12.43-14.31Z"/></g><g><path class="cls-26" d="M134.71,200.31h-26.51v-4.22h26.51c1.17,0,2.11,.95,2.11,2.11h0c0,1.17-.95,2.11-2.11,2.11Z"/><path class="cls-25" d="M134.71,200.78h-26.98v-5.16h26.98c1.42,0,2.58,1.16,2.58,2.58s-1.16,2.58-2.58,2.58Zm-26.04-.94h26.04c.91,0,1.64-.74,1.64-1.64s-.74-1.64-1.64-1.64h-26.04v3.28Z"/></g><g><ellipse class="cls-17" cx="114.54" cy="198.67" rx="12.9" ry="14.78"/><path class="cls-18" d="M114.54,213.92c-7.37,0-13.37-6.84-13.37-15.25s6-15.25,13.37-15.25,13.37,6.84,13.37,15.25-6,15.25-13.37,15.25Zm0-29.56c-6.86,0-12.43,6.42-12.43,14.31s5.58,14.31,12.43,14.31,12.43-6.42,12.43-14.31-5.58-14.31-12.43-14.31Z"/></g><g><ellipse class="cls-24" cx="110.31" cy="198.67" rx="12.9" ry="14.78"/><path class="cls-22" d="M110.31,213.92c-7.37,0-13.37-6.84-13.37-15.25s6-15.25,13.37-15.25,13.37,6.84,13.37,15.25-6,15.25-13.37,15.25Zm0-29.56c-6.86,0-12.43,6.42-12.43,14.31s5.58,14.31,12.43,14.31,12.43-6.42,12.43-14.31-5.58-14.31-12.43-14.31Z"/></g><g><path class="cls-27" d="M115.02,198.67c0,2.98-2.11,5.4-4.71,5.4s-4.71-2.42-4.71-5.4,2.11-5.4,4.71-5.4,4.71,2.42,4.71,5.4Z"/><path class="cls-29" d="M110.31,204.53c-2.86,0-5.18-2.63-5.18-5.87s2.32-5.87,5.18-5.87,5.18,2.63,5.18,5.87-2.32,5.87-5.18,5.87Zm0-10.79c-2.34,0-4.24,2.21-4.24,4.93s1.9,4.93,4.24,4.93,4.24-2.21,4.24-4.93-1.9-4.93-4.24-4.93Z"/></g><g><path class="cls-20" d="M113.15,198.67c0,2.98-2.11,5.4-4.71,5.4s-4.71-2.42-4.71-5.4,2.11-5.4,4.71-5.4,4.71,2.42,4.71,5.4Z"/><path class="cls-19" d="M108.44,204.53c-2.86,0-5.18-2.63-5.18-5.87s2.32-5.87,5.18-5.87,5.18,2.63,5.18,5.87-2.32,5.87-5.18,5.87Zm0-10.79c-2.34,0-4.24,2.21-4.24,4.93s1.9,4.93,4.24,4.93,4.24-2.21,4.24-4.93-1.9-4.93-4.24-4.93Z"/></g></g><circle class="cls-39" cx="124.59" cy="197.89" r="32.73" transform="translate(-106.53 233.52) rotate(-66.57)"/></g><g><g><path class="cls-53" d="M403.72,182.9s3.77-4.5,.84-5.66c-2.93-1.16-5.56,7.87-5.56,7.87,0,0,.59-4.81-1.38-7.04-1.97-2.23-2.55,2.58-1.87,6.49,.43,2.46,1.03,4.15,1.42,5.07-.78-.82-1.66-1.61-2.65-2.37-6.35-4.86-12.69,6.02-12.69,6.02,0,0-15.46,13-18.04,22.05-2.58,9.05,24.54-5.57,32.03-11.26,5.37-4.09,5.62-8.45,2.99-12.39,2.65,.23,8.14,.52,9.69-.72,2.06-1.66-3.59-2.5-3.59-2.5,0,0,8.7-2.66,9.81-6.6,1.11-3.94-10.99,1.05-10.99,1.05Z"/><path class="cls-5" d="M373.11,208.68c-.15,.04-.31,.02-.44-.08-.89-.65-1.86-.74-1.87-.74-.27-.02-.48-.26-.46-.54,.02-.27,.26-.48,.53-.46,.05,0,1.26,.1,2.39,.93,.22,.16,.27,.48,.11,.7-.07,.09-.16,.15-.26,.18Z"/><path class="cls-5" d="M389.25,205.34c-.26,.08-.54-.07-.62-.33-.73-2.37-1.8-4.3-3.2-5.74-.19-.2-.19-.51,0-.71,.2-.19,.52-.19,.71,0,1.51,1.56,2.67,3.63,3.45,6.15,.08,.26-.07,.54-.33,.62Z"/><path class="cls-5" d="M383.85,197.74c-.13,.04-.28,.03-.4-.05-1.36-.81-2.42-.94-2.43-.94-.27-.03-.47-.28-.44-.55,.03-.27,.27-.47,.55-.44,.05,0,1.27,.15,2.84,1.07,.24,.14,.32,.45,.17,.69-.07,.11-.17,.19-.28,.22Z"/><path class="cls-5" d="M395.54,202.38c-.07,.02-.15,.03-.23,.02-.27-.05-.46-.3-.41-.58,.66-3.93-2.35-5.78-2.48-5.86-.24-.14-.32-.45-.17-.68,.14-.24,.45-.32,.68-.18,.04,.02,3.74,2.26,2.96,6.88-.03,.19-.17,.34-.35,.4Z"/><path class="cls-5" d="M381.45,209.27c-.26,.08-.54-.07-.62-.33-.64-2.08-3.02-3.02-3.04-3.03-.26-.1-.39-.39-.29-.65,.1-.26,.39-.39,.64-.29,.12,.04,2.86,1.11,3.64,3.67,.08,.26-.07,.54-.33,.62Z"/></g><circle class="cls-39" cx="388.88" cy="197.89" r="32.73" transform="translate(-34.72 93.26) rotate(-13.1)"/></g><g><g><path class="cls-12" d="M186.57,134.51c.63-.19,1.12-.56,1.46-1.1,1.18-1.84,.64-5.32-.06-7.79-2.91-4.01-7.53-6.68-12.8-6.96,6.04,2.55,10.5,8.61,11.39,15.85Z"/><path class="cls-73" d="M169.29,140.1c5.83,.78,11.4,.44,15.84-.81,.07-.69,.11-1.38,.11-2.09,0-.34-.01-.69-.03-1.03-.01,0-.03,0-.05,0-3.73,0-7.12-2.33-10.7-4.8-1.69-1.17-3.45-2.37-5.33-3.41-3.54-1.94-6.73-2.25-8.7-2.2-1.96,2.76-3.12,6.12-3.13,9.75,1.19,1.18,4.45,3.57,11.98,4.58Z"/><path class="cls-35" d="M190.19,129.81c.07,1.59-.14,3.19-.91,4.4-.6,.94-1.47,1.54-2.58,1.8,.02,.39,.04,.79,.04,1.19,0,.54-.02,1.07-.06,1.6,1.73-.61,3.25-1.38,4.49-2.29,.02-.31,.05-.62,.05-.94,0-2.02-.37-3.95-1.02-5.75Z"/><path class="cls-54" d="M185.98,142.94c1.28-.09,2.35,.16,3.17,.74,.88-1.6,1.48-3.37,1.8-5.23-1.3,.79-2.8,1.46-4.46,2-.12,.84-.3,1.67-.52,2.48Z"/><path class="cls-32" d="M183.62,145.18c-.89,.43-1.87,1-2.93,1.62-2.68,1.57-5.73,3.35-9.12,3.89-.81,.13-1.59,.18-2.35,.18-.95,0-1.84-.09-2.68-.23,2.32,1.19,4.94,1.88,7.73,1.88,1.51,0,2.96-.22,4.35-.58,2.16-1.79,3.86-4.1,5-6.75Z"/><path class="cls-65" d="M185.77,144.44c-.09,.01-.19,.04-.28,.05-.8,2.26-1.98,4.34-3.47,6.13,2.57-1.33,4.76-3.28,6.35-5.67-.6-.47-1.47-.64-2.6-.51Z"/><path class="cls-58" d="M169.86,126.67c1.95,1.07,3.73,2.3,5.46,3.49,3.49,2.4,6.54,4.5,9.77,4.53-1.01-8.17-6.88-14.71-14.33-15.71-3.6,.76-6.76,2.66-9.12,5.3,2.14,.1,5.04,.64,8.22,2.39Z"/><path class="cls-56" d="M171.33,149.22c3.12-.49,6.03-2.2,8.6-3.7,1.62-.95,3.07-1.8,4.39-2.25,.24-.77,.44-1.56,.58-2.36-2.79,.72-5.95,1.11-9.34,1.11-2.09,0-4.25-.14-6.47-.44-6.23-.83-9.75-2.59-11.65-3.99,.48,4,2.35,7.57,5.12,10.22,1.66,.8,4.95,2.01,8.77,1.41Z"/></g><circle class="cls-39" cx="174.27" cy="135.59" r="32.73" transform="translate(-26.19 43.01) rotate(-13.1)"/></g><g><g><path class="cls-52" d="M355.2,136.71c0,8.78-7.18,18.1-14.06,18.1-1.68,0-6.07,0-7.63-.6-8.52-3.29-11.81-11.45-11.81-18.55,0-3.69,1.1-7.7,4.02-10.16,3.87-3.26,8.13-1.21,12.63-1.21,3.91,0,9.39-1.6,12.37,.6,3.76,2.77,4.49,7.45,4.49,11.82Z"/><path class="cls-67" d="M337.89,125.49s1.3-4.04,2.35-6.13c1.05-2.09,2.84-2.99,2.84-2.99l1.79,.75s-2.09,1.35-3.44,3.14c-1.35,1.79-3.14,6.28-3.14,6.28"/><path class="cls-69" d="M339.05,122.8s.15-1.35-1.05-2.39c-1.2-1.05-5.83-3.29-5.83-3.29,0,0-.45,2.54,1.05,4.04s5.83,1.65,5.83,1.65Z"/><path class="cls-5" d="M350.59,130.81c-.57,.98-2.27,1.05-3.82,.16-1.54-.89-2.33-2.41-1.77-3.39,.57-.98,2.27-1.05,3.82-.17,1.54,.89,2.33,2.41,1.77,3.39Z"/></g><circle class="cls-39" cx="338.45" cy="135.59" r="32.73" transform="translate(92.19 404.46) rotate(-69.35)"/></g><g><g><g class="cls-59"><g><path class="cls-3" d="M281.49,106.67l-.15-.08c-.1-.05-10.16-5.44-12.55-5.92-1.99-.4-6.56-.3-8.75-.26-.49,.01-.88,.02-1.1,.02-1.52,0-2.78,.31-2.93,.71-.07,.18,.1,.58,.77,1.19,2,1.82,5.88,2.1,7.74,2.23,.72,.05,1.08,.08,1.29,.15,.83,.28,2.39,2.03,2.7,2.38l.61,.7-25.9,2.66c-.66,.07-1.14,.64-1.09,1.3,.05,.63,.58,1.12,1.21,1.12h.02l19.51-.3-21.93,4.91c-.28,.06-.51,.23-.66,.47-.15,.24-.19,.53-.11,.8,.13,.48,.59,.79,1.08,.75l16.41-1.39,.18,.94-14.67,4.29c-.59,.17-.94,.78-.79,1.38,.14,.58,.72,.95,1.31,.85l14.18-2.48,.25,.93-8.52,3.12c-.24,.09-.29,.29-.3,.37-.01,.08-.02,.29,.19,.44,.09,.07,.2,.1,.31,.08,2.37-.25,14.28-1.5,16.26-1.94,2.17-.48,13.49-5.15,13.6-5.2l.17-.04,22.75-.5-5.18-16.73s-.03,.02-.05,.02l-15.84,3.02Z"/><g><path class="cls-1" d="M246.25,121.45l4.77-1.39c.11-.16,.21-.3,.29-.43l-4.33,.37-.73,1.45Z"/><polygon class="cls-57" points="251.47 119.62 251.36 119.96 252.95 119.49 251.47 119.62"/><path class="cls-60" d="M244.81,113.82c-.38,.58-.69,1.04-.89,1.33-.16,.25-.32,.51-.46,.78l10.04-2.25-8.7,.13Z"/><path class="cls-75" d="M248.65,116.64l-1.17,2.34,10.17-.86,.18,.94-6.83,2-1.15,3.44,5.19-.91c1.46-1.48,2.82-2.98,2.82-2.98,0,0-1.22,1.52-1.9,2.82l1.9-.33,.25,.93-2.56,.94s.04,.1,.07,.13c.75,.75,1.99,1.49,2.74,.75s6.72-8.46,7.96-9.2c1.24-.75,5.22-2.99,8.71-5.97,.83-.72,2.57-2.55,4.73-4.92-2.95-1.55-9.16-4.72-10.96-5.08-1.99-.4-6.56-.3-8.75-.26-.49,.01-.88,.02-1.1,.02-1.52,0-2.78,.31-2.93,.71-.07,.18,.1,.58,.77,1.19,2,1.82,5.88,2.1,7.74,2.23,.72,.05,1.08,.08,1.29,.15,.83,.28,2.39,2.03,2.7,2.38l.61,.7-21.77,2.24c-.68,1.02-1.32,1.98-1.87,2.81l17.4-.26-19.89,4.45c-.34,.86-.58,1.71-.74,2.4l4.06-.34c1.19-1.26,2.37-2.45,2.37-2.45Z"/><path class="cls-51" d="M243.92,121.87c.16-.32,.71-.98,1.39-1.73l-3.3,.28c-.05,.28-.08,.46-.08,.46,0,0,1.49,1.99,1.99,1Z"/><path class="cls-63" d="M248.4,101.47c1.74-.5,4.98-.5,4.98-.5,0,0-2.77,4.16-5.35,8.03l19.1-1.96c-.66-.69-1.35-1.31-1.64-1.4-.12-.04-.62-.07-1.06-.11-2.12-.16-6.08-.44-8.32-2.48-.35-.31-1.4-1.27-1.02-2.25,.45-1.15,2.59-1.33,3.83-1.33,.22,0,.6,0,1.08-.02,2.23-.05,6.87-.14,8.96,.28,2,.4,8.56,3.77,11.44,5.29,6.87-7.59,17.24-19.72,17.24-19.72l-16.67-6.22c-.75,0-8.46,15.17-8.46,15.17,0,0-13.43-1.99-15.17-1.74-1.74,.25-9.45,4.48-11.19,5.22s-3.73,1.49-2.74,2.49,3.23,1.74,4.98,1.24Z"/><path class="cls-66" d="M252.04,126.25l-.69,.25c.17-.02,.35-.07,.54-.16,.05-.02,.1-.06,.15-.09Z"/><path class="cls-44" d="M252.7,124.99l-2.87,.5c.08,.14,.18,.29,.3,.44l2.56-.94Z"/><path class="cls-30" d="M250.16,121.31l-4.5,1.31-.24,.49s.15,1.3,.55,2.07l1.62-.28c.74-.96,1.75-2.39,2.57-3.59Z"/></g></g></g><path class="cls-14" d="M255.12,92.29s-3.54-7.55-6.18-4.96c-2.8,2.75,6.18,4.96,6.18,4.96Z"/><path class="cls-47" d="M265.97,92.29s3.54-7.55,6.18-4.96c2.8,2.75-6.18,4.96-6.18,4.96Z"/><path class="cls-68" d="M256.85,91.75c-.27,0-.48-.22-.48-.48v-16.56c0-.27,.22-.48,.48-.48s.48,.22,.48,.48v16.56c0,.27-.22,.48-.48,.48Z"/><path class="cls-5" d="M260.37,97.77c-.27,0-.48-.22-.48-.48v-3.51c0-.27,.22-.48,.48-.48s.48,.22,.48,.48v3.51c0,.27-.22,.48-.48,.48Z"/><path class="cls-13" d="M260.37,94.26c-.27,0-.48-.22-.48-.48v-9.03c0-.27,.22-.48,.48-.48s.48,.22,.48,.48v9.03c0,.27-.22,.48-.48,.48Z"/><path class="cls-55" d="M264.63,96.26c-.27,0-.48-.22-.48-.48v-14.81c0-.27,.22-.48,.48-.48s.48,.22,.48,.48v14.81c0,.27-.22,.48-.48,.48Z"/><path class="cls-2" d="M264.63,79.95c-.27,0-.48-.22-.48-.48v-3.76c0-.27,.22-.48,.48-.48s.48,.22,.48,.48v3.76c0,.27-.22,.48-.48,.48Z"/><path class="cls-34" d="M252.34,103.31s-2.76-1.51-6.27-.25c-3.51,1.25-2.01,3.76,.25,3.26,2.26-.5,6.02-3.01,6.02-3.01Z"/><path class="cls-5" d="M253.59,108.81c-.27,0-.48-.22-.48-.48v-4.52c0-.27,.22-.48,.48-.48s.48,.22,.48,.48v4.52c0,.27-.22,.48-.48,.48Z"/></g><circle class="cls-39" cx="261.83" cy="109.26" r="32.73" transform="translate(-.57 217.14) rotate(-45)"/></g></g></g><g id="Shadow"><ellipse class="cls-8" cx="241" cy="425.5" rx="87.57" ry="13.5"/></g><g id="Character"><g><path class="cls-7" d="M226.48,278.49s-1.97,7.83-3.4,19.54c-1.44,11.71,.94,30.04,.94,30.04,0,0-17.04-8.72-26.24-7.57-9.21,1.15-46.5,14.36-51.41,13.9,0,0-3.67,6.51-.11,6.42,4.89-.12,56.9,.96,65.3,1.95,8.6,1.01,20.77,3.6,25.04-.28,2.9-2.63,13.51-35.64,13.67-46.45,.16-10.81,1.27-18.19,1.27-18.19"/><path class="cls-50" d="M223.07,298.03c-1.44,11.71,.94,30.04,.94,30.04,0,0-17.04-8.72-26.24-7.57-2.05,.26-5.51,1.12-9.69,2.29-2.32,4.51-4.39,11.42-1.16,18.86,11.28,.34,21.33,.74,24.64,1.13,8.6,1.01,20.77,3.6,25.04-.28,2.9-2.63,13.51-35.64,13.67-46.45,.16-10.81,1.27-18.19,1.27-18.19l-25.06,.63s-1.97,7.83-3.4,19.54Z"/><path class="cls-7" d="M239.28,283.35l-5.57,2.81s-1.86-.2,1.67-5.08"/><g><path class="cls-38" d="M257.94,167.14s-5.59-3.87-15.06-4.3-15.92,12.48-14.63,20.65c1.29,8.17,.86,16.78-10.33,15.49-11.19-1.29-24.95,0-27.97,12.05-3.01,12.05,10.33,27.11,25.39,21.51,15.06-5.59,11.43-16.64,18.5-18.93,7.08-2.29,14.2-2.15,15.06-10.76,.86-8.61-4.73-16.35-.86-24.09s9.9-11.62,9.9-11.62Z"/><path class="cls-21" d="M251.82,168.9s-11.74-2.28-15.65,7.5,4.89,18.26,1.96,28.05c-2.94,9.78-14.02,17.28-23.15,14.02-9.13-3.26-17.94-6.52-18.59-1.3-.65,5.22,6.2,6.52,7.83,5.54,1.63-.98-.65-2.94-.65-2.94"/><path class="cls-21" d="M214.23,207.1c-1.34-.35-2.72-.6-4.15-.7"/><path class="cls-21" d="M242.69,167.6s-11.09,1.96-11.09,13.7,5.54,18.92,.65,26.42c-3.39,5.2-8.03,2.88-13.82,.75"/></g><path class="cls-7" d="M264.35,178.74s.39,6.29-1.04,9.97c-1.42,3.67-7.6,9.63-7.23,12.8,.37,3.16,9.42,9.66,12.31,8.57,2.89-1.09,5.29-17.51,5.29-17.51,0,0-5.04-11.64-9.33-13.82Z"/><g><g><path class="cls-5" d="M269.42,190.17c1.86,3.47,3.45,6.37,7.58,7.13,5.68,1.05,7.76-6.3,8.53-13.71,.19,.08,.39,.15,.59,.17,1.41,.15,2.88-.18,3.94-1.26,.45-.46-.24-1.36-1.16-2.33-2.71-2.86-2.93-5.08-2.9-8.97,.01-1.76,.02-3.54-.44-5.24-.1-.38-.23-.74-.37-1.1-4.13-10.1-24.8-10.48-25.92,1.95-.36,4.03,.16,8.65,1.52,13.06"/><g class="cls-48"><path class="cls-61" d="M286,171.2c.01-1.76,.02-3.54-.44-5.24-.1-.38-.23-.74-.37-1.1-4.13-10.1-24.8-10.47-25.92,1.95-.36,4.02,.16,8.61,1.5,13.01,10.12-3.4,19.82-5.17,25.28-5.98-.06-.8-.07-1.67-.06-2.65Z"/><path class="cls-6" d="M286,171.2c.01-1.76,.02-3.54-.44-5.24-.1-.38-.23-.74-.37-1.1-4.13-10.1-24.8-10.47-25.92,1.95-.36,4.02,.16,8.61,1.5,13.01,10.12-3.4,19.82-5.17,25.28-5.98-.06-.8-.07-1.67-.06-2.65Z"/></g><path class="cls-40" d="M269.42,190.17c1.86,3.47,3.45,6.37,7.58,7.13,5.68,1.05,7.76-6.3,8.53-13.71,.19,.08,.39,.15,.59,.17,1.41,.15,2.88-.18,3.94-1.26,.45-.46-.24-1.36-1.16-2.33-2.71-2.86-2.93-5.08-2.9-8.97,.01-1.76,.02-3.54-.44-5.24-.1-.38-.23-.74-.37-1.1-4.13-10.1-24.8-10.48-25.92,1.95-.36,4.03,.16,8.65,1.52,13.06"/></g><path class="cls-74" d="M283.14,175.78c.04,.76-.21,1.39-.57,1.41-.36,.02-.68-.58-.73-1.34-.04-.76,.21-1.39,.57-1.41,.36-.02,.68,.58,.73,1.34Z"/><path class="cls-40" d="M283,186.61s-3.07,.2-3.69-2.05"/></g><path class="cls-38" d="M284.04,162.84c-5.87-8.06-24.88-2.17-25.92,9.37-.53,5.84-.75,13.67,4.85,14.57,1.73-5.43,7.32-5.58,7.14-8.37-.26-4.14,7.96-3.98,6.9-10.26-.92-5.43,3.4-2.14,7.02-5.31Z"/><g><path class="cls-62" d="M258.28,176.84l28.81-9.7s-3.77-10-8.65-12.57c-4.88-2.57-16.47,0-20.43,5.08-3.96,5.08-1.6,8.76,.27,17.19Z"/><g class="cls-31"><path class="cls-33" d="M263.24,162.53c.32-4.78,5.31-7.91,6.67-8.68-4.67,.73-9.6,2.83-11.91,5.8-3.96,5.08-1.6,8.76,.27,17.19l8.88-2.99c-1.65-3.25-4.15-7.86-3.92-11.31Z"/></g><path class="cls-40" d="M258.28,176.84l28.81-9.7s-3.77-10-8.65-12.57c-4.88-2.57-16.47,0-20.43,5.08-3.96,5.08-1.6,8.76,.27,17.19Z"/></g><path class="cls-7" d="M277.46,170.6s12.4-.43,18.51,.21c6.11,.64,2.32-2.5-8.88-3.67,0,0-7.48,2.65-9.63,3.46Z"/><path class="cls-50" d="M259.3,194.32s11.62,8.5,14.12,16.17c3.12,9.59,1.81,17.33-1.18,26.05-2.99,8.72-6.9,9.07-9.24,18.29-2.58,10.18-3.1,30.06-8.1,39.13-9.3,16.85-35.29,1.82-35.73-14.35-.48-17.47,15.69-27.9,17.56-36.68,2.03-9.51-.22-22.7,4.18-31.62,4.4-8.92,12.81-17.35,18.38-16.99Z"/><g><path class="cls-42" d="M255.88,202.64c-2.34,.67-5.24,2.04-7.61,4.87-4.85,5.78-10.72,28.53-11.91,32.02-1.75,5.14-4.8,23.64-3.57,24.05s8.89,.11,22.14,1.39c13.25,1.27,38.05-5.7,38.05-5.7,0,0,4.09,2.75,7.65,1.66,.46-.14,.87-.27,1.25-.41,1.1-.38,2.04-1.14,2.64-2.14,.25-.41,.46-.85,.54-1.22,.17-.58,.25-1.24,.08-1.99-.13-1.21-.2-2.72-1.04-4.16s-1.39-.64-2.57-1.27-3.76-.87-4.72-.47c-.95,.41-4.5,5.21-4.5,5.21,0,0-14.52,1.61-27.34-2.48-11.55-3.69-14.3-3.67-14.3-3.67,0,0,11.14-25.59,14.96-32.75"/><path class="cls-7" d="M300.63,260.94c.32-.1,.63-.2,.91-.29,1.39-.47,2.6-1.42,3.24-2.74,.12-.25,.22-.5,.27-.73,.17-.58,.25-1.24,.08-1.99-.13-1.21-.2-2.72-1.04-4.16s-1.39-.64-2.57-1.27-3.76-.87-4.72-.47c-.95,.41-4.5,5.21-4.5,5.21,0,0-4.21,.47-10.1,.26l.13,7.13c6.16-1.35,10.64-2.61,10.64-2.61,0,0,4.09,2.75,7.65,1.66Z"/><path class="cls-40" d="M301.53,249.74s1.23,3.4,.47,5.18-3.32-2.55-3.32-2.55"/><path class="cls-40" d="M300.47,257.99l-.51-3.32s-4.08,4.34-5.87,2.55"/></g><g><path class="cls-46" d="M277.16,225.95c-.48-2.26-1.1-4.5-1.79-6.73-.9-2.93-1.9-5.84-2.83-8.73-.2-.64-.47-1.28-.79-1.92v-1.48c0-1.6,1.83-4.53,1.83-4.53,0,0-1.05-1.33-4.45-4.26-3.4-2.93-9.42-6.93-9.42-6.93l-2.83,3.14c-5.36,1.23-12.39,8.81-16.26,16.81-4.32,8.92-2.11,22.11-4.11,31.62-1.04,4.98-6.6,10.49-11.13,17.52,5.57,3.34,17.6,9.36,34.28,11.15,.84-6.29,1.56-12.42,2.64-16.77,1.12-4.52,3.45-8.74,6.55-12.16,4.52-4.98,9.93-9.01,8.29-16.73Z"/><g class="cls-64"><path class="cls-33" d="M241.13,264.98c0-1.48,10.17-12.94,12.35-15.9,2.18-2.96-9.08-.74-10.89-.74s5.08-8.51,9.8-17.38c4.72-8.88,3.63-11.1,3.63-11.1l-12.35-5.55s-2.01,.95-4.84,2.36c-1.84,8.33-.68,18.51-2.31,26.26-1.04,4.98-6.6,10.49-11.13,17.52,3.17,1.9,8.44,4.67,15.45,7.03,.19-1.14,.28-2.09,.28-2.5Z"/></g><path class="cls-40" d="M277.16,225.95c-.48-2.26-1.1-4.5-1.79-6.73-.9-2.93-1.9-5.84-2.83-8.73-.2-.64-.47-1.28-.79-1.92v-1.48c0-1.6,1.83-4.53,1.83-4.53,0,0-1.05-1.33-4.45-4.26-3.4-2.93-9.42-6.93-9.42-6.93l-2.83,3.14c-5.36,1.23-12.39,8.81-16.26,16.81-4.32,8.92-2.11,22.11-4.11,31.62-1.04,4.98-6.6,10.49-11.13,17.52,5.57,3.34,17.6,9.36,34.28,11.15,.84-6.29,1.56-12.42,2.64-16.77,1.12-4.52,3.45-8.74,6.55-12.16,4.52-4.98,9.93-9.01,8.29-16.73Z"/></g><g><path class="cls-46" d="M260.28,201.56c-2.29-.8-5.46-1.35-9.03-.4-7.3,1.93-25.19,17.15-28.18,19.33-4.39,3.2-17.53,16.57-16.76,17.61,.77,1.05,7.2,5.21,17.3,13.88,10.1,8.67,31.04,16.52,31.04,16.52,0,0,5.12,5.33,8.65,6.49,1.06,.35,1.92,.58,2.63,.74,.2,.07,.41,.13,.61,.19,1.93,.56,3.24-.03,4.11-.81,.47-.37,.92-.87,1.22-1.58,.59-1.06,1.4-2.33,1.54-4,.14-1.67-2.34-1.98-2.94-3.17s-2.57-2.88-3.59-3.1c-1.02-.22-6.68,1.67-6.68,1.67,0,0-12.8-7.04-20.93-17.77-7.32-9.66-9.58-11.23-9.58-11.23,0,0,23.84-14.51,31.09-18.17"/><g class="cls-49"><path class="cls-33" d="M269.53,274.6c-8.14-2.22-17.75-9.62-24.78-14.05-7.03-4.44-26.26-20.71-28.85-21.45-2.59-.74,.74-1.85,4.81-4.81,4.07-2.96-5.18,0-7.4,0s32.18-22.19,36.98-27.74c3.63-4.19-1.17-3.74-3.74-3.27-8.43,4.77-21.01,15.42-23.48,17.21-4.39,3.2-17.53,16.57-16.76,17.61,.77,1.05,7.2,5.21,17.3,13.88,10.1,8.67,31.04,16.52,31.04,16.52,0,0,5.12,5.33,8.65,6.49,1.06,.35,1.92,.58,2.63,.74,.2,.07,.41,.13,.61,.19,1.93,.56,3.24-.03,4.11-.81,.06-.05,.11-.1,.17-.15-.43-.12-.86-.25-1.3-.37Z"/></g><path class="cls-40" d="M260.28,201.56c-2.29-.8-5.46-1.35-9.03-.4-7.3,1.93-25.19,17.15-28.18,19.33-4.39,3.2-17.53,16.57-16.76,17.61,.77,1.05,7.2,5.21,17.3,13.88,10.1,8.67,31.04,16.52,31.04,16.52,0,0,5.12,5.33,8.65,6.49,1.06,.35,1.92,.58,2.63,.74,.2,.07,.41,.13,.61,.19,1.93,.56,3.24-.03,4.11-.81,.47-.37,.92-.87,1.22-1.58,.59-1.06,1.4-2.33,1.54-4,.14-1.67-2.34-1.98-2.94-3.17s-2.57-2.88-3.59-3.1c-1.02-.22-6.68,1.67-6.68,1.67,0,0-12.8-7.04-20.93-17.77-7.32-9.66-9.58-11.23-9.58-11.23,0,0,23.84-14.51,31.09-18.17"/></g><path class="cls-7" d="M270.49,266.36c-.6-1.19-2.57-2.88-3.59-3.1-1.02-.22-6.68,1.67-6.68,1.67,0,0-2.5-1.38-5.99-3.84l-4.61,5.38c3.04,1.28,5.03,2.03,5.03,2.03,0,0,5.12,5.33,8.65,6.49,1.06,.35,1.92,.58,2.63,.74,.2,.07,.41,.13,.61,.19,1.93,.56,3.24-.03,4.11-.81,.47-.37,.92-.87,1.22-1.58,.59-1.06,1.4-2.33,1.54-4,.14-1.67-2.34-1.98-2.94-3.17Z"/><path class="cls-7" d="M268.8,180.52s-3.12-5.68-5.58-3.68c-2.47,2,.47,5.78,3.75,6.88,3.27,1.09,1.92-1.04,1.92-1.04"/><path class="cls-7" d="M233.16,294.05s5.46,5.95,14.45,13.58c8.99,7.64,25.39,14.61,25.39,14.61,0,0-8.92,20.83-8.59,30.1,.33,9.27,10.16,47.6,9.27,52.44,0,0,5.41,4.11,6.39,.68,1.57-5.54,4.54-50.57,5.72-59.15,1.16-8.42,4.24-23.55,4.23-27.47,0-7.5-20.17-28.93-29.11-35.01-8.94-6.08-14.49-11.06-14.49-11.06"/><path class="cls-50" d="M260.9,283.84c-8.94-6.08-14.49-11.06-14.49-11.06l-13.25,21.28s5.46,5.95,14.45,13.58c8.99,7.64,25.39,14.61,25.39,14.61,0,0-8.92,20.83-8.59,30.1,.09,2.47,.85,7,1.9,12.4,4.84,1.01,10.91,1.55,17.73,.62,.71-8.63,1.34-16.05,1.75-19.04,1.16-8.42,4.24-23.55,4.23-27.47,0-7.5-20.17-28.93-29.11-35.01Z"/><path class="cls-21" d="M231.06,296.6c4.53,3.66,11.61,9.01,16.55,11.03"/><path class="cls-21" d="M226.67,292.94s.76,.67,2.03,1.73"/><line class="cls-21" x1="241.04" y1="271.21" x2="256.47" y2="279.97"/><path class="cls-21" d="M231.23,265.95s-6.66,3.51-6.31,6.66c.35,3.15,8.06-2.1,7.36,1.4-.7,3.51-4.5,4.15-.7,5.61s20.68,15.07,31.2,22.08c10.52,7.01,21.38,16.48,20.33,19.28-1.05,2.8-10.87,28.04-8.76,44.52"/><path class="cls-21" d="M186.01,335.01s25.24,3.86,35.75,4.91,11.57-1.05,9.81-3.15c-1.75-2.1,1.75,.7,2.45-2.45,.7-3.15,2.1-22.78,2.45-27.69"/><g><path class="cls-45" d="M147.32,334.91s-6.49-9.08-8.62-8.02-7.19,4.62-9.93,6.09c-2.74,1.47-7.64,7.4-7.6,9.32,.04,1.92,5.23-1.19,8.66-1.88,3.43-.7,16.42,.42,16.42,.42,0,0-.7-4.97,1.06-5.92Z"/><path class="cls-7" d="M140.77,327.56c-.83-.61-1.57-.92-2.07-.67-2.12,1.06-7.19,4.62-9.93,6.09-2.74,1.47-7.64,7.4-7.6,9.32,.02,.71,.73,.73,1.81,.44,2.09-4.15,6.6-6.31,10.86-9.96,3.23-2.77,5.6-4.39,6.93-5.22Z"/></g><g><path class="cls-10" d="M273.67,404.78s-4.67,10.14-2.69,11.46,7.58,3.95,10.21,5.6,10.21,2.97,11.86,1.98c1.65-.99-3.62-3.95-5.93-6.59-2.31-2.64-7.06-11.77-7.06-11.77,0,0-4.69,.38-6.39-.68Z"/><path class="cls-7" d="M293.06,423.82c.71-.43,.13-1.23-.96-2.21-1.44,.15-3.05,.24-4.5,.09-2.9-.29-12.84-5.57-17.02-7.86-.17,1.16-.1,2.07,.4,2.4,1.98,1.32,7.58,3.95,10.21,5.6,2.64,1.65,10.21,2.97,11.86,1.98Z"/></g></g></g></svg>