<?xml version="1.0" encoding="UTF-8"?><svg id="Camada_1" xmlns="http://www.w3.org/2000/svg" viewBox="0 0 429 380"><defs><style>.cls-1{fill:#53326d;}.cls-1,.cls-2,.cls-3,.cls-4{isolation:isolate;opacity:.75;}.cls-5{fill:#fff;}.cls-2{fill:#0d548a;}.cls-3{fill:#25a675;}.cls-4{fill:#9ae0f9;}.cls-6{fill:#0f233f;}.cls-7{fill:#d1d4de;opacity:.5;}</style></defs><rect class="cls-7" x="84" y="59.5" width="261" height="261" transform="translate(197.18 -96.02) rotate(45)"/><rect class="cls-3" x="72.77" y="37.86" width="135" height="135" rx="10" ry="10"/><rect class="cls-2" x="72.77" y="194.86" width="135" height="135" rx="10" ry="10"/><rect class="cls-1" x="227.77" y="37.86" width="135" height="135" rx="10" ry="10"/><rect class="cls-4" x="227.77" y="196.86" width="135" height="135" rx="10" ry="10"/><g><path class="cls-5" d="M108.73,205.64v1.92h-2.6v7.91h-2.39v-7.91h-2.6v-1.92h7.6Z"/><path class="cls-5" d="M117.25,212.13h-5.42c.04,.49,.19,.86,.47,1.11,.27,.26,.61,.38,1.01,.38,.6,0,1.01-.25,1.25-.76h2.55c-.13,.51-.37,.98-.71,1.39-.34,.41-.77,.73-1.28,.97-.51,.23-1.09,.35-1.72,.35-.77,0-1.45-.16-2.04-.49s-1.06-.79-1.4-1.4c-.34-.61-.5-1.32-.5-2.13s.17-1.52,.5-2.13c.33-.61,.8-1.07,1.39-1.4,.6-.33,1.28-.49,2.06-.49s1.43,.16,2.02,.48,1.05,.77,1.38,1.36c.33,.59,.5,1.27,.5,2.06,0,.22-.01,.46-.04,.7Zm-2.41-1.33c0-.41-.14-.74-.42-.98-.28-.24-.63-.36-1.05-.36s-.74,.12-1.02,.35-.45,.57-.51,.99h3Z"/><path class="cls-5" d="M122,207.94c.42-.25,.89-.37,1.4-.37v2.53h-.66c-.6,0-1.05,.13-1.34,.39s-.45,.71-.45,1.35v3.63h-2.39v-7.81h2.39v1.3c.28-.43,.63-.77,1.05-1.02Z"/><path class="cls-5" d="M124.52,209.43c.3-.61,.72-1.07,1.24-1.4,.52-.33,1.11-.49,1.75-.49,.55,0,1.03,.11,1.45,.34,.42,.22,.73,.52,.96,.88v-1.11h2.39v7.81h-2.39v-1.11c-.23,.36-.56,.66-.97,.88-.42,.22-.9,.34-1.45,.34-.63,0-1.21-.17-1.74-.5-.52-.33-.94-.8-1.24-1.41-.3-.61-.46-1.32-.46-2.12s.15-1.51,.46-2.11Zm4.9,.71c-.33-.34-.73-.52-1.21-.52s-.88,.17-1.21,.51c-.33,.34-.5,.81-.5,1.41s.17,1.07,.5,1.42c.33,.35,.73,.53,1.21,.53s.88-.17,1.21-.52c.33-.34,.5-.82,.5-1.41s-.17-1.07-.5-1.41Z"/><path class="cls-5" d="M137.41,207.88c.41-.22,.89-.34,1.44-.34,.64,0,1.23,.16,1.75,.49,.52,.33,.94,.79,1.24,1.4,.3,.61,.45,1.31,.45,2.11s-.15,1.51-.45,2.12c-.3,.61-.72,1.08-1.24,1.41-.52,.33-1.11,.5-1.75,.5-.54,0-1.02-.11-1.44-.34-.42-.22-.74-.51-.97-.87v4.82h-2.39v-11.54h2.39v1.11c.23-.36,.56-.66,.97-.88Zm1.95,2.26c-.33-.34-.74-.51-1.23-.51s-.88,.17-1.21,.52c-.33,.35-.5,.82-.5,1.41s.17,1.07,.5,1.41c.33,.35,.73,.52,1.21,.52s.88-.18,1.22-.53,.5-.82,.5-1.42-.17-1.07-.5-1.41Z"/><path class="cls-5" d="M150.88,212.13h-5.42c.04,.49,.19,.86,.47,1.11,.27,.26,.61,.38,1.01,.38,.6,0,1.01-.25,1.25-.76h2.55c-.13,.51-.37,.98-.71,1.39-.34,.41-.77,.73-1.28,.97-.51,.23-1.09,.35-1.72,.35-.77,0-1.45-.16-2.04-.49s-1.06-.79-1.4-1.4c-.34-.61-.5-1.32-.5-2.13s.17-1.52,.5-2.13c.33-.61,.8-1.07,1.39-1.4,.6-.33,1.28-.49,2.06-.49s1.43,.16,2.02,.48,1.05,.77,1.38,1.36c.33,.59,.5,1.27,.5,2.06,0,.22-.01,.46-.04,.7Zm-2.41-1.33c0-.41-.14-.74-.42-.98-.28-.24-.63-.36-1.05-.36s-.74,.12-1.02,.35-.45,.57-.51,.99h3Z"/><path class="cls-5" d="M159.89,207.65v7.81h-2.39v-1.06c-.24,.35-.57,.62-.99,.83-.42,.21-.88,.32-1.38,.32-.6,0-1.12-.13-1.58-.4-.46-.27-.81-.65-1.06-1.15-.25-.5-.38-1.1-.38-1.78v-4.56h2.38v4.24c0,.52,.13,.93,.41,1.22,.27,.29,.63,.43,1.09,.43s.84-.14,1.11-.43c.27-.29,.41-.7,.41-1.22v-4.24h2.39Z"/><path class="cls-5" d="M165.97,213.44v2.03h-1.22c-.87,0-1.54-.21-2.03-.64-.49-.42-.73-1.12-.73-2.08v-3.11h-.95v-1.99h.95v-1.9h2.39v1.9h1.57v1.99h-1.57v3.14c0,.23,.06,.4,.17,.5,.11,.1,.3,.15,.56,.15h.85Z"/><path class="cls-5" d="M167.28,209.43c.3-.61,.72-1.07,1.24-1.4,.52-.33,1.11-.49,1.75-.49,.55,0,1.03,.11,1.45,.34,.42,.22,.73,.52,.96,.88v-1.11h2.39v7.81h-2.39v-1.11c-.23,.36-.56,.66-.97,.88-.42,.22-.9,.34-1.45,.34-.63,0-1.21-.17-1.74-.5-.52-.33-.94-.8-1.24-1.41-.3-.61-.46-1.32-.46-2.12s.15-1.51,.46-2.11Zm4.9,.71c-.33-.34-.73-.52-1.21-.52s-.88,.17-1.21,.51c-.33,.34-.5,.81-.5,1.41s.17,1.07,.5,1.42c.33,.35,.73,.53,1.21,.53s.88-.17,1.21-.52c.33-.34,.5-.82,.5-1.41s-.17-1.07-.5-1.41Z"/><path class="cls-5" d="M178.16,215.23c-.53-.23-.95-.55-1.26-.96-.31-.41-.48-.86-.52-1.36h2.37c.03,.27,.15,.49,.38,.66s.5,.25,.83,.25c.3,0,.53-.06,.69-.17,.16-.12,.25-.27,.25-.46,0-.22-.12-.39-.35-.5-.23-.11-.61-.23-1.13-.36-.56-.13-1.03-.27-1.4-.41-.37-.14-.7-.37-.97-.69-.27-.31-.41-.73-.41-1.27,0-.45,.12-.86,.37-1.22,.25-.37,.61-.66,1.09-.88,.48-.21,1.05-.32,1.71-.32,.98,0,1.75,.24,2.32,.73,.56,.49,.89,1.13,.97,1.93h-2.21c-.04-.27-.16-.49-.36-.64-.2-.16-.46-.24-.79-.24-.28,0-.5,.05-.64,.16-.15,.11-.22,.25-.22,.44,0,.22,.12,.39,.36,.5,.24,.11,.61,.22,1.11,.34,.58,.15,1.05,.3,1.41,.44,.36,.14,.68,.38,.96,.7,.27,.32,.42,.75,.43,1.3,0,.46-.13,.87-.38,1.22-.26,.36-.63,.64-1.11,.85-.48,.21-1.04,.31-1.67,.31-.68,0-1.29-.12-1.82-.35Z"/><path class="cls-5" d="M109.78,224.68c.41-.22,.89-.34,1.44-.34,.64,0,1.23,.16,1.75,.49,.52,.33,.94,.79,1.24,1.4,.3,.61,.45,1.31,.45,2.11s-.15,1.51-.45,2.12c-.3,.61-.72,1.08-1.24,1.41-.52,.33-1.11,.5-1.75,.5-.54,0-1.02-.11-1.44-.34-.42-.22-.74-.51-.97-.87v4.82h-2.39v-11.54h2.39v1.11c.23-.36,.56-.66,.97-.88Zm1.95,2.26c-.33-.34-.74-.51-1.23-.51s-.88,.17-1.21,.52c-.33,.35-.5,.82-.5,1.41s.17,1.07,.5,1.41c.33,.35,.73,.52,1.21,.52s.88-.18,1.22-.53,.5-.82,.5-1.42-.17-1.07-.5-1.41Z"/><path class="cls-5" d="M117.42,231.89c-.61-.33-1.09-.79-1.44-1.4-.35-.61-.52-1.32-.52-2.13s.18-1.51,.53-2.12c.35-.61,.84-1.08,1.46-1.41,.62-.33,1.31-.49,2.07-.49s1.46,.16,2.07,.49c.62,.33,1.1,.79,1.46,1.41,.35,.61,.53,1.32,.53,2.12s-.18,1.51-.54,2.12c-.36,.61-.85,1.08-1.47,1.41s-1.31,.49-2.08,.49-1.45-.16-2.06-.49Zm3.23-2.09c.32-.34,.48-.82,.48-1.44s-.16-1.11-.47-1.44c-.31-.34-.7-.5-1.15-.5s-.85,.17-1.16,.5c-.31,.33-.46,.81-.46,1.45s.15,1.11,.46,1.44c.3,.34,.68,.5,1.14,.5s.85-.17,1.17-.5Z"/><path class="cls-5" d="M128.21,224.68c.41-.22,.89-.34,1.44-.34,.64,0,1.23,.16,1.75,.49,.52,.33,.94,.79,1.24,1.4,.3,.61,.45,1.31,.45,2.11s-.15,1.51-.45,2.12c-.3,.61-.72,1.08-1.24,1.41-.52,.33-1.11,.5-1.75,.5-.54,0-1.02-.11-1.44-.34-.42-.22-.74-.51-.97-.87v4.82h-2.39v-11.54h2.39v1.11c.23-.36,.56-.66,.97-.88Zm1.95,2.26c-.33-.34-.74-.51-1.23-.51s-.88,.17-1.21,.52c-.33,.35-.5,.82-.5,1.41s.17,1.07,.5,1.41c.33,.35,.73,.52,1.21,.52s.88-.18,1.22-.53,.5-.82,.5-1.42-.17-1.07-.5-1.41Z"/><path class="cls-5" d="M142.07,224.46v7.81h-2.39v-1.06c-.24,.35-.57,.62-.99,.83-.42,.21-.88,.32-1.38,.32-.6,0-1.12-.13-1.58-.4-.46-.27-.81-.65-1.06-1.15-.25-.5-.38-1.1-.38-1.78v-4.56h2.38v4.24c0,.52,.13,.93,.41,1.22,.27,.29,.63,.43,1.09,.43s.84-.14,1.11-.43c.27-.29,.41-.7,.41-1.22v-4.24h2.39Z"/><path class="cls-5" d="M146.18,221.91v10.36h-2.39v-10.36h2.39Z"/><path class="cls-5" d="M147.9,226.23c.3-.61,.72-1.07,1.24-1.4,.52-.33,1.11-.49,1.75-.49,.55,0,1.03,.11,1.45,.34,.42,.22,.73,.52,.96,.88v-1.11h2.39v7.81h-2.39v-1.11c-.23,.36-.56,.66-.97,.88-.42,.22-.9,.34-1.45,.34-.63,0-1.21-.17-1.74-.5-.52-.33-.94-.8-1.24-1.41-.3-.61-.46-1.32-.46-2.12s.15-1.51,.46-2.11Zm4.9,.71c-.33-.34-.73-.52-1.21-.52s-.88,.17-1.21,.51c-.33,.34-.5,.81-.5,1.41s.17,1.07,.5,1.42c.33,.35,.73,.53,1.21,.53s.88-.17,1.21-.52c.33-.34,.5-.82,.5-1.41s-.17-1.07-.5-1.41Z"/><path class="cls-5" d="M160.87,224.74c.42-.25,.89-.37,1.4-.37v2.53h-.66c-.6,0-1.05,.13-1.34,.39s-.45,.71-.45,1.35v3.63h-2.39v-7.81h2.39v1.3c.28-.43,.63-.77,1.05-1.02Z"/><path class="cls-5" d="M170.74,228.94h-5.42c.04,.49,.19,.86,.47,1.11,.27,.26,.61,.38,1.01,.38,.6,0,1.01-.25,1.25-.76h2.55c-.13,.51-.37,.98-.71,1.39-.34,.41-.77,.73-1.28,.97-.51,.23-1.09,.35-1.72,.35-.77,0-1.45-.16-2.04-.49s-1.06-.79-1.4-1.4c-.34-.61-.5-1.32-.5-2.13s.17-1.52,.5-2.13c.33-.61,.8-1.07,1.39-1.4,.6-.33,1.28-.49,2.06-.49s1.43,.16,2.02,.48,1.05,.77,1.38,1.36c.33,.59,.5,1.27,.5,2.06,0,.22-.01,.46-.04,.7Zm-2.41-1.33c0-.41-.14-.74-.42-.98-.28-.24-.63-.36-1.05-.36s-.74,.12-1.02,.35-.45,.57-.51,.99h3Z"/><path class="cls-5" d="M173.4,232.03c-.53-.23-.95-.55-1.26-.96-.31-.41-.48-.86-.52-1.36h2.37c.03,.27,.15,.49,.38,.66s.5,.25,.83,.25c.3,0,.53-.06,.69-.17,.16-.12,.25-.27,.25-.46,0-.22-.12-.39-.35-.5-.23-.11-.61-.23-1.13-.36-.56-.13-1.03-.27-1.4-.41-.37-.14-.7-.37-.97-.69-.27-.31-.41-.73-.41-1.27,0-.45,.12-.86,.37-1.22,.25-.37,.61-.66,1.09-.88,.48-.21,1.05-.32,1.71-.32,.98,0,1.75,.24,2.32,.73,.56,.49,.89,1.13,.97,1.93h-2.21c-.04-.27-.16-.49-.36-.64-.2-.16-.46-.24-.79-.24-.28,0-.5,.05-.64,.16-.15,.11-.22,.25-.22,.44,0,.22,.12,.39,.36,.5,.24,.11,.61,.22,1.11,.34,.58,.15,1.05,.3,1.41,.44,.36,.14,.68,.38,.96,.7,.27,.32,.42,.75,.43,1.3,0,.46-.13,.87-.38,1.22-.26,.36-.63,.64-1.11,.85-.48,.21-1.04,.31-1.67,.31-.68,0-1.29-.12-1.82-.35Z"/><path class="cls-5" d="M110.13,243.03c.3-.61,.72-1.07,1.24-1.4,.52-.33,1.11-.49,1.75-.49,.51,0,.98,.11,1.41,.32,.42,.21,.76,.5,1,.87v-3.63h2.39v10.36h-2.39v-1.12c-.22,.37-.54,.67-.96,.9-.42,.22-.9,.34-1.45,.34-.64,0-1.23-.17-1.75-.5-.52-.33-.94-.8-1.24-1.41-.3-.61-.46-1.32-.46-2.12s.15-1.51,.46-2.11Zm4.9,.71c-.33-.34-.73-.52-1.21-.52s-.88,.17-1.21,.51c-.33,.34-.5,.81-.5,1.41s.17,1.07,.5,1.42c.33,.35,.73,.53,1.21,.53s.88-.17,1.21-.52c.33-.34,.5-.82,.5-1.41s-.17-1.07-.5-1.41Z"/><path class="cls-5" d="M126.97,245.74h-5.42c.04,.49,.19,.86,.47,1.11,.27,.26,.61,.38,1.01,.38,.6,0,1.01-.25,1.25-.76h2.55c-.13,.51-.37,.98-.71,1.39-.34,.41-.77,.73-1.28,.97-.51,.23-1.09,.35-1.72,.35-.77,0-1.45-.16-2.04-.49s-1.06-.79-1.4-1.4c-.34-.61-.5-1.32-.5-2.13s.17-1.52,.5-2.13c.33-.61,.8-1.07,1.39-1.4,.6-.33,1.28-.49,2.06-.49s1.43,.16,2.02,.48,1.05,.77,1.38,1.36c.33,.59,.5,1.27,.5,2.06,0,.22-.01,.46-.04,.7Zm-2.41-1.33c0-.41-.14-.74-.42-.98-.28-.24-.63-.36-1.05-.36s-.74,.12-1.02,.35-.45,.57-.51,.99h3Z"/><path class="cls-5" d="M132.6,248.83c-.53-.23-.95-.55-1.26-.96-.31-.41-.48-.86-.52-1.36h2.37c.03,.27,.15,.49,.38,.66s.5,.25,.83,.25c.3,0,.53-.06,.69-.17,.16-.12,.25-.27,.25-.46,0-.22-.12-.39-.35-.5-.23-.11-.61-.23-1.13-.36-.56-.13-1.03-.27-1.4-.41-.37-.14-.7-.37-.97-.69-.27-.31-.41-.73-.41-1.27,0-.45,.12-.86,.37-1.22,.25-.37,.61-.66,1.09-.88,.48-.21,1.05-.32,1.71-.32,.98,0,1.75,.24,2.32,.73,.56,.49,.89,1.13,.97,1.93h-2.21c-.04-.27-.16-.49-.36-.64-.2-.16-.46-.24-.79-.24-.28,0-.5,.05-.64,.16-.15,.11-.22,.25-.22,.44,0,.22,.12,.39,.36,.5,.24,.11,.61,.22,1.11,.34,.58,.15,1.05,.3,1.41,.44,.36,.14,.68,.38,.96,.7,.27,.32,.42,.75,.43,1.3,0,.46-.13,.87-.38,1.22-.26,.36-.63,.64-1.11,.85-.48,.21-1.04,.31-1.67,.31-.68,0-1.29-.12-1.82-.35Z"/><path class="cls-5" d="M139.04,243.03c.3-.61,.72-1.07,1.24-1.4,.52-.33,1.11-.49,1.75-.49,.55,0,1.03,.11,1.45,.34,.42,.22,.73,.52,.96,.88v-1.11h2.39v7.81h-2.39v-1.11c-.23,.36-.56,.66-.97,.88-.42,.22-.9,.34-1.45,.34-.63,0-1.21-.17-1.74-.5-.52-.33-.94-.8-1.24-1.41-.3-.61-.46-1.32-.46-2.12s.15-1.51,.46-2.11Zm4.9,.71c-.33-.34-.73-.52-1.21-.52s-.88,.17-1.21,.51c-.33,.34-.5,.81-.5,1.41s.17,1.07,.5,1.42c.33,.35,.73,.53,1.21,.53s.88-.17,1.21-.52c.33-.34,.5-.82,.5-1.41s-.17-1.07-.5-1.41Z"/><path class="cls-5" d="M156.28,241.26v7.81h-2.39v-1.06c-.24,.35-.57,.62-.99,.83-.42,.21-.88,.32-1.38,.32-.6,0-1.12-.13-1.58-.4-.46-.27-.81-.65-1.06-1.15-.25-.5-.38-1.1-.38-1.78v-4.56h2.38v4.24c0,.52,.13,.93,.41,1.22,.27,.29,.63,.43,1.09,.43s.84-.14,1.11-.43c.27-.29,.41-.7,.41-1.22v-4.24h2.39Zm-2.23-1.95l-3.37,1.41v-1.65l3.37-1.62v1.86Z"/><path class="cls-5" d="M157.98,243.03c.3-.61,.72-1.07,1.24-1.4,.52-.33,1.11-.49,1.75-.49,.51,0,.98,.11,1.41,.32,.42,.21,.76,.5,1,.87v-3.63h2.39v10.36h-2.39v-1.12c-.22,.37-.54,.67-.96,.9-.42,.22-.9,.34-1.45,.34-.64,0-1.23-.17-1.75-.5-.52-.33-.94-.8-1.24-1.41-.3-.61-.46-1.32-.46-2.12s.15-1.51,.46-2.11Zm4.9,.71c-.33-.34-.73-.52-1.21-.52s-.88,.17-1.21,.51c-.33,.34-.5,.81-.5,1.41s.17,1.07,.5,1.42c.33,.35,.73,.53,1.21,.53s.88-.17,1.21-.52c.33-.34,.5-.82,.5-1.41s-.17-1.07-.5-1.41Z"/><path class="cls-5" d="M174.83,245.74h-5.42c.04,.49,.19,.86,.47,1.11,.27,.26,.61,.38,1.01,.38,.6,0,1.01-.25,1.25-.76h2.55c-.13,.51-.37,.98-.71,1.39-.34,.41-.77,.73-1.28,.97-.51,.23-1.09,.35-1.72,.35-.77,0-1.45-.16-2.04-.49s-1.06-.79-1.4-1.4c-.34-.61-.5-1.32-.5-2.13s.17-1.52,.5-2.13c.33-.61,.8-1.07,1.39-1.4,.6-.33,1.28-.49,2.06-.49s1.43,.16,2.02,.48,1.05,.77,1.38,1.36c.33,.59,.5,1.27,.5,2.06,0,.22-.01,.46-.04,.7Zm-2.41-1.33c0-.41-.14-.74-.42-.98-.28-.24-.63-.36-1.05-.36s-.74,.12-1.02,.35-.45,.57-.51,.99h3Z"/><path class="cls-5" d="M100.58,265.43c-.5-1.37-.76-2.85-.76-4.44s.26-3.11,.78-4.5c.52-1.4,1.26-2.53,2.23-3.41h2.35v.22c-.98,.97-1.74,2.13-2.27,3.49-.53,1.36-.8,2.76-.8,4.19s.26,2.8,.77,4.13c.51,1.33,1.24,2.47,2.17,3.44v.22h-2.37c-.91-.87-1.61-1.99-2.11-3.36Z"/><path class="cls-5" d="M109.59,258.34c.42-.25,.89-.37,1.4-.37v2.53h-.66c-.6,0-1.05,.13-1.34,.39s-.45,.71-.45,1.35v3.63h-2.39v-7.81h2.39v1.3c.28-.43,.63-.77,1.05-1.02Z"/><path class="cls-5" d="M119.46,262.53h-5.42c.04,.49,.19,.86,.47,1.11,.27,.26,.61,.38,1.01,.38,.6,0,1.01-.25,1.25-.76h2.55c-.13,.51-.37,.98-.71,1.39-.34,.41-.77,.73-1.28,.97-.51,.23-1.09,.35-1.72,.35-.77,0-1.45-.16-2.04-.49s-1.06-.79-1.4-1.4c-.34-.61-.5-1.32-.5-2.13s.17-1.52,.5-2.13c.33-.61,.8-1.07,1.39-1.4,.6-.33,1.28-.49,2.06-.49s1.43,.16,2.02,.48,1.05,.77,1.38,1.36c.33,.59,.5,1.27,.5,2.06,0,.22-.01,.46-.04,.7Zm-2.41-1.33c0-.41-.14-.74-.42-.98-.28-.24-.63-.36-1.05-.36s-.74,.12-1.02,.35-.45,.57-.51,.99h3Z"/><path class="cls-5" d="M123,263.89h3.39v1.97h-6.06v-1.9l3.25-3.93h-3.22v-1.97h5.96v1.9l-3.32,3.93Z"/><path class="cls-5" d="M127.69,259.83c.3-.61,.72-1.07,1.24-1.4,.52-.33,1.11-.49,1.75-.49,.55,0,1.03,.11,1.45,.34,.42,.22,.73,.52,.96,.88v-1.11h2.39v7.81h-2.39v-1.11c-.23,.36-.56,.66-.97,.88-.42,.22-.9,.34-1.45,.34-.63,0-1.21-.17-1.74-.5-.52-.33-.94-.8-1.24-1.41-.3-.61-.46-1.32-.46-2.12s.15-1.51,.46-2.11Zm4.9,.71c-.33-.34-.73-.52-1.21-.52s-.88,.17-1.21,.51c-.33,.34-.5,.81-.5,1.41s.17,1.07,.5,1.42c.33,.35,.73,.53,1.21,.53s.88-.17,1.21-.52c.33-.34,.5-.82,.5-1.41s-.17-1.07-.5-1.41Z"/><path class="cls-5" d="M137.19,259.83c.3-.61,.72-1.07,1.24-1.4,.52-.33,1.11-.49,1.75-.49,.51,0,.98,.11,1.41,.32,.42,.21,.76,.5,1,.87v-3.63h2.39v10.36h-2.39v-1.12c-.22,.37-.54,.67-.96,.9-.42,.22-.9,.34-1.45,.34-.64,0-1.23-.17-1.75-.5-.52-.33-.94-.8-1.24-1.41-.3-.61-.46-1.32-.46-2.12s.15-1.51,.46-2.11Zm4.9,.71c-.33-.34-.73-.52-1.21-.52s-.88,.17-1.21,.51c-.33,.34-.5,.81-.5,1.41s.17,1.07,.5,1.42c.33,.35,.73,.53,1.21,.53s.88-.17,1.21-.52c.33-.34,.5-.82,.5-1.41s-.17-1.07-.5-1.41Z"/><path class="cls-5" d="M154.04,262.53h-5.42c.04,.49,.19,.86,.47,1.11,.27,.26,.61,.38,1.01,.38,.6,0,1.01-.25,1.25-.76h2.55c-.13,.51-.37,.98-.71,1.39-.34,.41-.77,.73-1.28,.97-.51,.23-1.09,.35-1.72,.35-.77,0-1.45-.16-2.04-.49s-1.06-.79-1.4-1.4c-.34-.61-.5-1.32-.5-2.13s.17-1.52,.5-2.13c.33-.61,.8-1.07,1.39-1.4,.6-.33,1.28-.49,2.06-.49s1.43,.16,2.02,.48,1.05,.77,1.38,1.36c.33,.59,.5,1.27,.5,2.06,0,.22-.01,.46-.04,.7Zm-2.41-1.33c0-.41-.14-.74-.42-.98-.28-.24-.63-.36-1.05-.36s-.74,.12-1.02,.35-.45,.57-.51,.99h3Z"/><path class="cls-5" d="M155.52,256.87c-.27-.25-.4-.55-.4-.92s.13-.68,.4-.93,.61-.37,1.03-.37,.75,.12,1.02,.37,.4,.56,.4,.93-.13,.67-.4,.92-.6,.37-1.02,.37-.76-.12-1.03-.37Zm2.22,1.18v7.81h-2.39v-7.81h2.39Z"/><path class="cls-5" d="M162.92,258.34c.42-.25,.89-.37,1.4-.37v2.53h-.66c-.6,0-1.05,.13-1.34,.39s-.45,.71-.45,1.35v3.63h-2.39v-7.81h2.39v1.3c.28-.43,.63-.77,1.05-1.02Z"/><path class="cls-5" d="M165.45,259.83c.3-.61,.72-1.07,1.24-1.4,.52-.33,1.11-.49,1.75-.49,.55,0,1.03,.11,1.45,.34,.42,.22,.73,.52,.96,.88v-1.11h2.39v7.81h-2.39v-1.11c-.23,.36-.56,.66-.97,.88-.42,.22-.9,.34-1.45,.34-.63,0-1.21-.17-1.74-.5-.52-.33-.94-.8-1.24-1.41-.3-.61-.46-1.32-.46-2.12s.15-1.51,.46-2.11Zm4.9,.71c-.33-.34-.73-.52-1.21-.52s-.88,.17-1.21,.51c-.33,.34-.5,.81-.5,1.41s.17,1.07,.5,1.42c.33,.35,.73,.53,1.21,.53s.88-.17,1.21-.52c.33-.34,.5-.82,.5-1.41s-.17-1.07-.5-1.41Z"/><path class="cls-5" d="M176.33,265.63c-.53-.23-.95-.55-1.26-.96-.31-.41-.48-.86-.52-1.36h2.37c.03,.27,.15,.49,.38,.66s.5,.25,.83,.25c.3,0,.53-.06,.69-.17,.16-.12,.25-.27,.25-.46,0-.22-.12-.39-.35-.5-.23-.11-.61-.23-1.13-.36-.56-.13-1.03-.27-1.4-.41-.37-.14-.7-.37-.97-.69-.27-.31-.41-.73-.41-1.27,0-.45,.12-.86,.37-1.22,.25-.37,.61-.66,1.09-.88,.48-.21,1.05-.32,1.71-.32,.98,0,1.75,.24,2.32,.73,.56,.49,.89,1.13,.97,1.93h-2.21c-.04-.27-.16-.49-.36-.64-.2-.16-.46-.24-.79-.24-.28,0-.5,.05-.64,.16-.15,.11-.22,.25-.22,.44,0,.22,.12,.39,.36,.5,.24,.11,.61,.22,1.11,.34,.58,.15,1.05,.3,1.41,.44,.36,.14,.68,.38,.96,.7,.27,.32,.42,.75,.43,1.3,0,.46-.13,.87-.38,1.22-.26,.36-.63,.64-1.11,.85-.48,.21-1.04,.31-1.67,.31-.68,0-1.29-.12-1.82-.35Z"/><path class="cls-5" d="M185.36,263.65l-1.55,4.02h-1.53l.81-4.02h2.27Z"/><path class="cls-5" d="M100.14,275.08c.42-.22,.9-.34,1.44-.34,.64,0,1.23,.16,1.75,.49,.52,.33,.94,.79,1.24,1.4,.3,.61,.45,1.31,.45,2.11s-.15,1.51-.45,2.12c-.3,.61-.72,1.08-1.24,1.41-.52,.33-1.11,.5-1.75,.5-.55,0-1.03-.11-1.44-.33-.41-.22-.73-.51-.97-.88v1.09h-2.39v-10.36h2.39v3.65c.22-.36,.55-.66,.97-.88Zm1.95,2.26c-.33-.34-.74-.51-1.23-.51s-.88,.17-1.21,.52c-.33,.35-.5,.82-.5,1.41s.17,1.07,.5,1.41c.33,.35,.73,.52,1.21,.52s.88-.18,1.22-.53,.5-.82,.5-1.42-.17-1.07-.5-1.41Z"/><path class="cls-5" d="M113.6,279.33h-5.42c.04,.49,.19,.86,.47,1.11,.27,.26,.61,.38,1.01,.38,.6,0,1.01-.25,1.25-.76h2.55c-.13,.51-.37,.98-.71,1.39-.34,.41-.77,.73-1.28,.97-.51,.23-1.09,.35-1.72,.35-.77,0-1.45-.16-2.04-.49s-1.06-.79-1.4-1.4c-.34-.61-.5-1.32-.5-2.13s.17-1.52,.5-2.13c.33-.61,.8-1.07,1.39-1.4,.6-.33,1.28-.49,2.06-.49s1.43,.16,2.02,.48,1.05,.77,1.38,1.36c.33,.59,.5,1.27,.5,2.06,0,.22-.01,.46-.04,.7Zm-2.41-1.33c0-.41-.14-.74-.42-.98-.28-.24-.63-.36-1.05-.36s-.74,.12-1.02,.35-.45,.57-.51,.99h3Z"/><path class="cls-5" d="M121.86,275.66c.55,.59,.82,1.41,.82,2.44v4.56h-2.38v-4.24c0-.52-.14-.93-.41-1.22-.27-.29-.63-.43-1.09-.43s-.82,.14-1.09,.43c-.27,.29-.41,.7-.41,1.22v4.24h-2.39v-7.81h2.39v1.04c.24-.34,.57-.62,.98-.82,.41-.2,.87-.3,1.39-.3,.91,0,1.65,.3,2.19,.89Z"/><path class="cls-5" d="M126.58,280.69h3.39v1.97h-6.06v-1.9l3.25-3.93h-3.22v-1.97h5.96v1.9l-3.32,3.93Z"/><path class="cls-5" d="M138.61,279.33h-5.42c.04,.49,.19,.86,.47,1.11,.27,.26,.61,.38,1.01,.38,.6,0,1.01-.25,1.25-.76h2.55c-.13,.51-.37,.98-.71,1.39-.34,.41-.77,.73-1.28,.97-.51,.23-1.09,.35-1.72,.35-.77,0-1.45-.16-2.04-.49s-1.06-.79-1.4-1.4c-.34-.61-.5-1.32-.5-2.13s.17-1.52,.5-2.13c.33-.61,.8-1.07,1.39-1.4,.6-.33,1.28-.49,2.06-.49s1.43,.16,2.02,.48,1.05,.77,1.38,1.36c.33,.59,.5,1.27,.5,2.06,0,.22-.01,.46-.04,.7Zm-2.41-1.33c0-.41-.14-.74-.42-.98-.28-.24-.63-.36-1.05-.36s-.74,.12-1.02,.35-.45,.57-.51,.99h3Z"/><path class="cls-5" d="M139.89,276.63c.3-.61,.72-1.07,1.24-1.4,.52-.33,1.11-.49,1.75-.49,.51,0,.98,.11,1.41,.32,.42,.21,.76,.5,1,.87v-3.63h2.39v10.36h-2.39v-1.12c-.22,.37-.54,.67-.96,.9-.42,.22-.9,.34-1.45,.34-.64,0-1.23-.17-1.75-.5-.52-.33-.94-.8-1.24-1.41-.3-.61-.46-1.32-.46-2.12s.15-1.51,.46-2.11Zm4.9,.71c-.33-.34-.73-.52-1.21-.52s-.88,.17-1.21,.51c-.33,.34-.5,.81-.5,1.41s.17,1.07,.5,1.42c.33,.35,.73,.53,1.21,.53s.88-.17,1.21-.52c.33-.34,.5-.82,.5-1.41s-.17-1.07-.5-1.41Z"/><path class="cls-5" d="M156.74,279.33h-5.42c.04,.49,.19,.86,.47,1.11,.27,.26,.61,.38,1.01,.38,.6,0,1.01-.25,1.25-.76h2.55c-.13,.51-.37,.98-.71,1.39-.34,.41-.77,.73-1.28,.97-.51,.23-1.09,.35-1.72,.35-.77,0-1.45-.16-2.04-.49s-1.06-.79-1.4-1.4c-.34-.61-.5-1.32-.5-2.13s.17-1.52,.5-2.13c.33-.61,.8-1.07,1.39-1.4,.6-.33,1.28-.49,2.06-.49s1.43,.16,2.02,.48,1.05,.77,1.38,1.36c.33,.59,.5,1.27,.5,2.06,0,.22-.01,.46-.04,.7Zm-2.41-1.33c0-.41-.14-.74-.42-.98-.28-.24-.63-.36-1.05-.36s-.74,.12-1.02,.35-.45,.57-.51,.99h3Z"/><path class="cls-5" d="M158.22,273.67c-.27-.25-.4-.55-.4-.92s.13-.68,.4-.93,.61-.37,1.03-.37,.75,.12,1.02,.37,.4,.56,.4,.93-.13,.67-.4,.92-.6,.37-1.02,.37-.76-.12-1.03-.37Zm2.22,1.18v7.81h-2.39v-7.81h2.39Z"/><path class="cls-5" d="M165.61,275.14c.42-.25,.89-.37,1.4-.37v2.53h-.66c-.6,0-1.05,.13-1.34,.39s-.45,.71-.45,1.35v3.63h-2.39v-7.81h2.39v1.3c.28-.43,.63-.77,1.05-1.02Z"/><path class="cls-5" d="M168.14,276.63c.3-.61,.72-1.07,1.24-1.4,.52-.33,1.11-.49,1.75-.49,.55,0,1.03,.11,1.45,.34,.42,.22,.73,.52,.96,.88v-1.11h2.39v7.81h-2.39v-1.11c-.23,.36-.56,.66-.97,.88-.42,.22-.9,.34-1.45,.34-.63,0-1.21-.17-1.74-.5-.52-.33-.94-.8-1.24-1.41-.3-.61-.46-1.32-.46-2.12s.15-1.51,.46-2.11Zm4.9,.71c-.33-.34-.73-.52-1.21-.52s-.88,.17-1.21,.51c-.33,.34-.5,.81-.5,1.41s.17,1.07,.5,1.42c.33,.35,.73,.53,1.21,.53s.88-.17,1.21-.52c.33-.34,.5-.82,.5-1.41s-.17-1.07-.5-1.41Z"/><path class="cls-5" d="M179.03,282.43c-.53-.23-.95-.55-1.26-.96-.31-.41-.48-.86-.52-1.36h2.37c.03,.27,.15,.49,.38,.66s.5,.25,.83,.25c.3,0,.53-.06,.69-.17,.16-.12,.25-.27,.25-.46,0-.22-.12-.39-.35-.5-.23-.11-.61-.23-1.13-.36-.56-.13-1.03-.27-1.4-.41-.37-.14-.7-.37-.97-.69-.27-.31-.41-.73-.41-1.27,0-.45,.12-.86,.37-1.22,.25-.37,.61-.66,1.09-.88,.48-.21,1.05-.32,1.71-.32,.98,0,1.75,.24,2.32,.73,.56,.49,.89,1.13,.97,1.93h-2.21c-.04-.27-.16-.49-.36-.64-.2-.16-.46-.24-.79-.24-.28,0-.5,.05-.64,.16-.15,.11-.22,.25-.22,.44,0,.22,.12,.39,.36,.5,.24,.11,.61,.22,1.11,.34,.58,.15,1.05,.3,1.41,.44,.36,.14,.68,.38,.96,.7,.27,.32,.42,.75,.43,1.3,0,.46-.13,.87-.38,1.22-.26,.36-.63,.64-1.11,.85-.48,.21-1.04,.31-1.67,.31-.68,0-1.29-.12-1.82-.35Z"/><path class="cls-5" d="M188.06,280.45l-1.55,4.02h-1.53l.81-4.02h2.27Z"/><path class="cls-5" d="M111.11,291.88c.41-.22,.89-.34,1.44-.34,.64,0,1.23,.16,1.75,.49,.52,.33,.94,.79,1.24,1.4,.3,.61,.45,1.31,.45,2.11s-.15,1.51-.45,2.12c-.3,.61-.72,1.08-1.24,1.41-.52,.33-1.11,.5-1.75,.5-.54,0-1.02-.11-1.44-.34-.42-.22-.74-.51-.97-.87v4.82h-2.39v-11.54h2.39v1.11c.23-.36,.56-.66,.97-.88Zm1.95,2.26c-.33-.34-.74-.51-1.23-.51s-.88,.17-1.21,.52c-.33,.35-.5,.82-.5,1.41s.17,1.07,.5,1.41c.33,.35,.73,.52,1.21,.52s.88-.18,1.22-.53,.5-.82,.5-1.42-.17-1.07-.5-1.41Z"/><path class="cls-5" d="M117.24,293.43c.3-.61,.72-1.07,1.24-1.4,.52-.33,1.11-.49,1.75-.49,.55,0,1.03,.11,1.45,.34,.42,.22,.73,.52,.96,.88v-1.11h2.39v7.81h-2.39v-1.11c-.23,.36-.56,.66-.97,.88-.42,.22-.9,.34-1.45,.34-.63,0-1.21-.17-1.74-.5-.52-.33-.94-.8-1.24-1.41-.3-.61-.46-1.32-.46-2.12s.15-1.51,.46-2.11Zm4.9,.71c-.33-.34-.73-.52-1.21-.52s-.88,.17-1.21,.51c-.33,.34-.5,.81-.5,1.41s.17,1.07,.5,1.42c.33,.35,.73,.53,1.21,.53s.88-.17,1.21-.52c.33-.34,.5-.82,.5-1.41s-.17-1.07-.5-1.41Z"/><path class="cls-5" d="M130.21,291.94c.42-.25,.89-.37,1.4-.37v2.53h-.66c-.6,0-1.05,.13-1.34,.39s-.45,.71-.45,1.35v3.63h-2.39v-7.81h2.39v1.3c.28-.43,.63-.77,1.05-1.02Z"/><path class="cls-5" d="M137.11,297.44v2.03h-1.22c-.87,0-1.54-.21-2.03-.64-.49-.42-.73-1.12-.73-2.08v-3.11h-.95v-1.99h.95v-1.9h2.39v1.9h1.57v1.99h-1.57v3.14c0,.23,.06,.4,.17,.5,.11,.1,.3,.15,.56,.15h.85Z"/><path class="cls-5" d="M145.76,296.14h-5.42c.04,.49,.19,.86,.47,1.11,.27,.26,.61,.38,1.01,.38,.6,0,1.01-.25,1.25-.76h2.55c-.13,.51-.37,.98-.71,1.39-.34,.41-.77,.73-1.28,.97-.51,.23-1.09,.35-1.72,.35-.77,0-1.45-.16-2.04-.49s-1.06-.79-1.4-1.4c-.34-.61-.5-1.32-.5-2.13s.17-1.52,.5-2.13c.33-.61,.8-1.07,1.39-1.4,.6-.33,1.28-.49,2.06-.49s1.43,.16,2.02,.48,1.05,.77,1.38,1.36c.33,.59,.5,1.27,.5,2.06,0,.22-.01,.46-.04,.7Zm-2.41-1.33c0-.41-.14-.74-.42-.98-.28-.24-.63-.36-1.05-.36s-.74,.12-1.02,.35-.45,.57-.51,.99h3Z"/><path class="cls-5" d="M147.24,290.47c-.27-.25-.4-.55-.4-.92s.13-.68,.4-.93,.61-.37,1.03-.37,.75,.12,1.02,.37,.4,.56,.4,.93-.13,.67-.4,.92-.6,.37-1.02,.37-.76-.12-1.03-.37Zm2.22,1.18v7.81h-2.39v-7.81h2.39Z"/><path class="cls-5" d="M154.64,291.94c.42-.25,.89-.37,1.4-.37v2.53h-.66c-.6,0-1.05,.13-1.34,.39s-.45,.71-.45,1.35v3.63h-2.39v-7.81h2.39v1.3c.28-.43,.63-.77,1.05-1.02Z"/><path class="cls-5" d="M157.16,293.43c.3-.61,.72-1.07,1.24-1.4,.52-.33,1.11-.49,1.75-.49,.55,0,1.03,.11,1.45,.34,.42,.22,.73,.52,.96,.88v-1.11h2.39v7.81h-2.39v-1.11c-.23,.36-.56,.66-.97,.88-.42,.22-.9,.34-1.45,.34-.63,0-1.21-.17-1.74-.5-.52-.33-.94-.8-1.24-1.41-.3-.61-.46-1.32-.46-2.12s.15-1.51,.46-2.11Zm4.9,.71c-.33-.34-.73-.52-1.21-.52s-.88,.17-1.21,.51c-.33,.34-.5,.81-.5,1.41s.17,1.07,.5,1.42c.33,.35,.73,.53,1.21,.53s.88-.17,1.21-.52c.33-.34,.5-.82,.5-1.41s-.17-1.07-.5-1.41Z"/><path class="cls-5" d="M168.05,299.23c-.53-.23-.95-.55-1.26-.96-.31-.41-.48-.86-.52-1.36h2.37c.03,.27,.15,.49,.38,.66s.5,.25,.83,.25c.3,0,.53-.06,.69-.17,.16-.12,.25-.27,.25-.46,0-.22-.12-.39-.35-.5-.23-.11-.61-.23-1.13-.36-.56-.13-1.03-.27-1.4-.41-.37-.14-.7-.37-.97-.69-.27-.31-.41-.73-.41-1.27,0-.45,.12-.86,.37-1.22,.25-.37,.61-.66,1.09-.88,.48-.21,1.05-.32,1.71-.32,.98,0,1.75,.24,2.32,.73,.56,.49,.89,1.13,.97,1.93h-2.21c-.04-.27-.16-.49-.36-.64-.2-.16-.46-.24-.79-.24-.28,0-.5,.05-.64,.16-.15,.11-.22,.25-.22,.44,0,.22,.12,.39,.36,.5,.24,.11,.61,.22,1.11,.34,.58,.15,1.05,.3,1.41,.44,.36,.14,.68,.38,.96,.7,.27,.32,.42,.75,.43,1.3,0,.46-.13,.87-.38,1.22-.26,.36-.63,.64-1.11,.85-.48,.21-1.04,.31-1.67,.31-.68,0-1.29-.12-1.82-.35Z"/><path class="cls-5" d="M177.08,297.26l-1.55,4.02h-1.53l.81-4.02h2.27Z"/><path class="cls-5" d="M115.42,312.94h-5.42c.04,.49,.19,.86,.47,1.11,.27,.26,.61,.38,1.01,.38,.6,0,1.01-.25,1.25-.76h2.55c-.13,.51-.37,.98-.71,1.39-.34,.41-.77,.73-1.28,.97-.51,.23-1.09,.35-1.72,.35-.77,0-1.45-.16-2.04-.49s-1.06-.79-1.4-1.4c-.34-.61-.5-1.32-.5-2.13s.17-1.52,.5-2.13c.33-.61,.8-1.07,1.39-1.4,.6-.33,1.28-.49,2.06-.49s1.43,.16,2.02,.48,1.05,.77,1.38,1.36c.33,.59,.5,1.27,.5,2.06,0,.22-.01,.46-.04,.7Zm-2.41-1.33c0-.41-.14-.74-.42-.98-.28-.24-.63-.36-1.05-.36s-.74,.12-1.02,.35-.45,.57-.51,.99h3Z"/><path class="cls-5" d="M120.17,308.74c.42-.25,.89-.37,1.4-.37v2.53h-.66c-.6,0-1.05,.13-1.34,.39s-.45,.71-.45,1.35v3.63h-2.39v-7.81h2.39v1.3c.28-.43,.63-.77,1.05-1.02Z"/><path class="cls-5" d="M126.23,314.03l1.69-5.57h2.55l-2.77,7.81h-2.95l-2.77-7.81h2.56l1.69,5.57Z"/><path class="cls-5" d="M138.8,312.94h-5.42c.04,.49,.19,.86,.47,1.11,.27,.26,.61,.38,1.01,.38,.6,0,1.01-.25,1.25-.76h2.55c-.13,.51-.37,.98-.71,1.39-.34,.41-.77,.73-1.28,.97-.51,.23-1.09,.35-1.72,.35-.77,0-1.45-.16-2.04-.49s-1.06-.79-1.4-1.4c-.34-.61-.5-1.32-.5-2.13s.17-1.52,.5-2.13c.33-.61,.8-1.07,1.39-1.4,.6-.33,1.28-.49,2.06-.49s1.43,.16,2.02,.48,1.05,.77,1.38,1.36c.33,.59,.5,1.27,.5,2.06,0,.22-.01,.46-.04,.7Zm-2.41-1.33c0-.41-.14-.74-.42-.98-.28-.24-.63-.36-1.05-.36s-.74,.12-1.02,.35-.45,.57-.51,.99h3Z"/><path class="cls-5" d="M140.28,307.27c-.27-.25-.4-.55-.4-.92s.13-.68,.4-.93,.61-.37,1.03-.37,.75,.12,1.02,.37,.4,.56,.4,.93-.13,.67-.4,.92-.6,.37-1.02,.37-.76-.12-1.03-.37Zm2.22,1.18v7.81h-2.39v-7.81h2.39Z"/><path class="cls-5" d="M147.68,308.74c.42-.25,.89-.37,1.4-.37v2.53h-.66c-.6,0-1.05,.13-1.34,.39s-.45,.71-.45,1.35v3.63h-2.39v-7.81h2.39v1.3c.28-.43,.63-.77,1.05-1.02Z"/><path class="cls-5" d="M150.21,310.23c.3-.61,.72-1.07,1.24-1.4,.52-.33,1.11-.49,1.75-.49,.55,0,1.03,.11,1.45,.34,.42,.22,.73,.52,.96,.88v-1.11h2.39v7.81h-2.39v-1.11c-.23,.36-.56,.66-.97,.88-.42,.22-.9,.34-1.45,.34-.63,0-1.21-.17-1.74-.5-.52-.33-.94-.8-1.24-1.41-.3-.61-.46-1.32-.46-2.12s.15-1.51,.46-2.11Zm4.9,.71c-.33-.34-.73-.52-1.21-.52s-.88,.17-1.21,.51c-.33,.34-.5,.81-.5,1.41s.17,1.07,.5,1.42c.33,.35,.73,.53,1.21,.53s.88-.17,1.21-.52c.33-.34,.5-.82,.5-1.41s-.17-1.07-.5-1.41Z"/><path class="cls-5" d="M161.09,316.03c-.53-.23-.95-.55-1.26-.96-.31-.41-.48-.86-.52-1.36h2.37c.03,.27,.15,.49,.38,.66s.5,.25,.83,.25c.3,0,.53-.06,.69-.17,.16-.12,.25-.27,.25-.46,0-.22-.12-.39-.35-.5-.23-.11-.61-.23-1.13-.36-.56-.13-1.03-.27-1.4-.41-.37-.14-.7-.37-.97-.69-.27-.31-.41-.73-.41-1.27,0-.45,.12-.86,.37-1.22,.25-.37,.61-.66,1.09-.88,.48-.21,1.05-.32,1.71-.32,.98,0,1.75,.24,2.32,.73,.56,.49,.89,1.13,.97,1.93h-2.21c-.04-.27-.16-.49-.36-.64-.2-.16-.46-.24-.79-.24-.28,0-.5,.05-.64,.16-.15,.11-.22,.25-.22,.44,0,.22,.12,.39,.36,.5,.24,.11,.61,.22,1.11,.34,.58,.15,1.05,.3,1.41,.44,.36,.14,.68,.38,.96,.7,.27,.32,.42,.75,.43,1.3,0,.46-.13,.87-.38,1.22-.26,.36-.63,.64-1.11,.85-.48,.21-1.04,.31-1.67,.31-.68,0-1.29-.12-1.82-.35Z"/><path class="cls-5" d="M166.9,319.19v-.22c.93-.97,1.66-2.12,2.17-3.44,.51-1.33,.77-2.7,.77-4.13s-.27-2.83-.8-4.19c-.53-1.36-1.29-2.52-2.27-3.49v-.22h2.35c.96,.88,1.7,2.01,2.23,3.41,.52,1.4,.78,2.9,.78,4.5s-.25,3.07-.76,4.44-1.21,2.49-2.11,3.36h-2.37Z"/><path class="cls-5" d="M174.31,316.01c-.27-.25-.4-.55-.4-.92s.13-.69,.4-.94,.61-.38,1.03-.38,.75,.13,1.02,.38,.4,.57,.4,.94-.13,.67-.4,.92-.6,.37-1.02,.37-.76-.12-1.03-.37Z"/></g><g><path class="cls-6" d="M127.5,90.75c-.18-.33-.43-.58-.76-.75-.33-.17-.72-.26-1.17-.26-.77,0-1.4,.25-1.86,.76-.47,.51-.7,1.19-.7,2.04,0,.91,.25,1.61,.73,2.12,.49,.51,1.16,.76,2.02,.76,.59,0,1.09-.15,1.49-.45,.41-.3,.7-.73,.89-1.29h-3.04v-1.76h5.21v2.23c-.18,.6-.48,1.15-.9,1.67-.42,.51-.96,.93-1.62,1.25s-1.39,.48-2.21,.48c-.97,0-1.84-.21-2.6-.64-.76-.42-1.35-1.01-1.78-1.77-.42-.76-.64-1.62-.64-2.59s.21-1.84,.64-2.6c.42-.76,1.01-1.35,1.77-1.78,.76-.42,1.62-.64,2.59-.64,1.18,0,2.17,.29,2.98,.85,.81,.57,1.34,1.36,1.6,2.37h-2.65Z"/><path class="cls-6" d="M135.08,89.94c.42-.25,.89-.37,1.4-.37v2.53h-.66c-.6,0-1.05,.13-1.34,.39s-.45,.71-.45,1.35v3.63h-2.39v-7.81h2.39v1.3c.28-.43,.63-.77,1.05-1.02Z"/><path class="cls-6" d="M145.35,89.65v7.81h-2.39v-1.06c-.24,.35-.57,.62-.99,.83-.42,.21-.88,.32-1.38,.32-.6,0-1.12-.13-1.58-.4-.46-.27-.81-.65-1.06-1.15-.25-.5-.38-1.1-.38-1.78v-4.56h2.38v4.24c0,.52,.13,.93,.41,1.22,.27,.29,.63,.43,1.09,.43s.84-.14,1.11-.43c.27-.29,.41-.7,.41-1.22v-4.24h2.39Z"/><path class="cls-6" d="M150.43,89.88c.41-.22,.89-.34,1.44-.34,.64,0,1.23,.16,1.75,.49,.52,.33,.94,.79,1.24,1.4,.3,.61,.45,1.31,.45,2.11s-.15,1.51-.45,2.12c-.3,.61-.72,1.08-1.24,1.41-.52,.33-1.11,.5-1.75,.5-.54,0-1.02-.11-1.44-.34-.42-.22-.74-.51-.97-.87v4.82h-2.39v-11.54h2.39v1.11c.23-.36,.56-.66,.97-.88Zm1.95,2.26c-.33-.34-.74-.51-1.23-.51s-.88,.17-1.21,.52c-.33,.35-.5,.82-.5,1.41s.17,1.07,.5,1.41c.33,.35,.73,.52,1.21,.52s.88-.18,1.22-.53,.5-.82,.5-1.42-.17-1.07-.5-1.41Z"/><path class="cls-6" d="M158.06,97.09c-.61-.33-1.09-.79-1.44-1.4-.35-.61-.52-1.32-.52-2.13s.18-1.51,.53-2.12c.35-.61,.84-1.08,1.46-1.41,.62-.33,1.31-.49,2.07-.49s1.46,.16,2.07,.49c.62,.33,1.1,.79,1.46,1.41,.35,.61,.53,1.32,.53,2.12s-.18,1.51-.54,2.12c-.36,.61-.85,1.08-1.47,1.41s-1.31,.49-2.08,.49-1.45-.16-2.06-.49Zm3.23-2.09c.32-.34,.48-.82,.48-1.44s-.16-1.11-.47-1.44c-.31-.34-.7-.5-1.15-.5s-.85,.17-1.16,.5c-.31,.33-.46,.81-.46,1.45s.15,1.11,.46,1.44c.3,.34,.68,.5,1.14,.5s.85-.17,1.17-.5Z"/><path class="cls-6" d="M166.85,97.23c-.53-.23-.95-.55-1.26-.96-.31-.41-.48-.86-.52-1.36h2.37c.03,.27,.15,.49,.38,.66s.5,.25,.83,.25c.3,0,.53-.06,.69-.17,.16-.12,.25-.27,.25-.46,0-.22-.12-.39-.35-.5-.23-.11-.61-.23-1.13-.36-.56-.13-1.03-.27-1.4-.41-.37-.14-.7-.37-.97-.69-.27-.31-.41-.73-.41-1.27,0-.45,.12-.86,.37-1.22,.25-.37,.61-.66,1.09-.88,.48-.21,1.05-.32,1.71-.32,.98,0,1.75,.24,2.32,.73,.56,.49,.89,1.13,.97,1.93h-2.21c-.04-.27-.16-.49-.36-.64-.2-.16-.46-.24-.79-.24-.28,0-.5,.05-.64,.16-.15,.11-.22,.25-.22,.44,0,.22,.12,.39,.36,.5,.24,.11,.61,.22,1.11,.34,.58,.15,1.05,.3,1.41,.44,.36,.14,.68,.38,.96,.7,.27,.32,.42,.75,.43,1.3,0,.46-.13,.87-.38,1.22-.26,.36-.63,.64-1.11,.85-.48,.21-1.04,.31-1.67,.31-.68,0-1.29-.12-1.82-.35Z"/><path class="cls-6" d="M103.32,112.24v2.03h-1.22c-.87,0-1.54-.21-2.03-.64-.49-.42-.73-1.12-.73-2.08v-3.11h-.95v-1.99h.95v-1.9h2.39v1.9h1.57v1.99h-1.57v3.14c0,.23,.06,.4,.17,.5,.11,.1,.3,.15,.56,.15h.85Z"/><path class="cls-6" d="M111.98,110.94h-5.42c.04,.49,.19,.86,.47,1.11,.27,.26,.61,.38,1.01,.38,.6,0,1.01-.25,1.25-.76h2.55c-.13,.51-.37,.98-.71,1.39-.34,.41-.77,.73-1.28,.97-.51,.23-1.09,.35-1.72,.35-.77,0-1.45-.16-2.04-.49s-1.06-.79-1.4-1.4c-.34-.61-.5-1.32-.5-2.13s.17-1.52,.5-2.13c.33-.61,.8-1.07,1.39-1.4,.6-.33,1.28-.49,2.06-.49s1.43,.16,2.02,.48,1.05,.77,1.38,1.36c.33,.59,.5,1.27,.5,2.06,0,.22-.01,.46-.04,.7Zm-2.41-1.33c0-.41-.14-.74-.42-.98-.28-.24-.63-.36-1.05-.36s-.74,.12-1.02,.35-.45,.57-.51,.99h3Z"/><path class="cls-6" d="M116.72,106.74c.42-.25,.89-.37,1.4-.37v2.53h-.66c-.6,0-1.05,.13-1.34,.39s-.45,.71-.45,1.35v3.63h-2.39v-7.81h2.39v1.3c.28-.43,.63-.77,1.05-1.02Z"/><path class="cls-6" d="M119.25,108.23c.3-.61,.72-1.07,1.24-1.4,.52-.33,1.11-.49,1.75-.49,.55,0,1.03,.11,1.45,.34,.42,.22,.73,.52,.96,.88v-1.11h2.39v7.81h-2.39v-1.11c-.23,.36-.56,.66-.97,.88-.42,.22-.9,.34-1.45,.34-.63,0-1.21-.17-1.74-.5-.52-.33-.94-.8-1.24-1.41-.3-.61-.46-1.32-.46-2.12s.15-1.51,.46-2.11Zm4.9,.71c-.33-.34-.73-.52-1.21-.52s-.88,.17-1.21,.51c-.33,.34-.5,.81-.5,1.41s.17,1.07,.5,1.42c.33,.35,.73,.53,1.21,.53s.88-.17,1.21-.52c.33-.34,.5-.82,.5-1.41s-.17-1.07-.5-1.41Z"/><path class="cls-6" d="M132.14,106.68c.41-.22,.89-.34,1.44-.34,.64,0,1.23,.16,1.75,.49,.52,.33,.94,.79,1.24,1.4,.3,.61,.45,1.31,.45,2.11s-.15,1.51-.45,2.12c-.3,.61-.72,1.08-1.24,1.41-.52,.33-1.11,.5-1.75,.5-.54,0-1.02-.11-1.44-.34-.42-.22-.74-.51-.97-.87v4.82h-2.39v-11.54h2.39v1.11c.23-.36,.56-.66,.97-.88Zm1.95,2.26c-.33-.34-.74-.51-1.23-.51s-.88,.17-1.21,.52c-.33,.35-.5,.82-.5,1.41s.17,1.07,.5,1.41c.33,.35,.73,.52,1.21,.52s.88-.18,1.22-.53,.5-.82,.5-1.42-.17-1.07-.5-1.41Z"/><path class="cls-6" d="M145.6,110.94h-5.42c.04,.49,.19,.86,.47,1.11,.27,.26,.61,.38,1.01,.38,.6,0,1.01-.25,1.25-.76h2.55c-.13,.51-.37,.98-.71,1.39-.34,.41-.77,.73-1.28,.97-.51,.23-1.09,.35-1.72,.35-.77,0-1.45-.16-2.04-.49s-1.06-.79-1.4-1.4c-.34-.61-.5-1.32-.5-2.13s.17-1.52,.5-2.13c.33-.61,.8-1.07,1.39-1.4,.6-.33,1.28-.49,2.06-.49s1.43,.16,2.02,.48,1.05,.77,1.38,1.36c.33,.59,.5,1.27,.5,2.06,0,.22-.01,.46-.04,.7Zm-3.88-6.22l-2.17,1.15v-1.65l2.17-1.11,2.17,1.11v1.65l-2.17-1.15Zm1.47,4.89c0-.41-.14-.74-.42-.98-.28-.24-.63-.36-1.05-.36s-.74,.12-1.02,.35-.45,.57-.51,.99h3Z"/><path class="cls-6" d="M154.62,106.46v7.81h-2.39v-1.06c-.24,.35-.57,.62-.99,.83-.42,.21-.88,.32-1.38,.32-.6,0-1.12-.13-1.58-.4-.46-.27-.81-.65-1.06-1.15-.25-.5-.38-1.1-.38-1.78v-4.56h2.38v4.24c0,.52,.13,.93,.41,1.22,.27,.29,.63,.43,1.09,.43s.84-.14,1.11-.43c.27-.29,.41-.7,.41-1.22v-4.24h2.39Z"/><path class="cls-6" d="M160.7,112.24v2.03h-1.22c-.87,0-1.54-.21-2.03-.64-.49-.42-.73-1.12-.73-2.08v-3.11h-.95v-1.99h.95v-1.9h2.39v1.9h1.57v1.99h-1.57v3.14c0,.23,.06,.4,.17,.5,.11,.1,.3,.15,.56,.15h.85Z"/><path class="cls-6" d="M162.2,105.27c-.27-.25-.4-.55-.4-.92s.13-.68,.4-.93,.61-.37,1.03-.37,.75,.12,1.02,.37,.4,.56,.4,.93-.13,.67-.4,.92-.6,.37-1.02,.37-.76-.12-1.03-.37Zm2.22,1.18v7.81h-2.39v-7.81h2.39Z"/><path class="cls-6" d="M166.18,108.23c.33-.61,.79-1.07,1.39-1.4,.59-.33,1.27-.49,2.04-.49,.98,0,1.8,.26,2.46,.77,.66,.51,1.09,1.24,1.29,2.17h-2.55c-.21-.6-.63-.9-1.25-.9-.44,0-.79,.17-1.05,.51-.26,.34-.39,.83-.39,1.46s.13,1.12,.39,1.46c.26,.34,.61,.51,1.05,.51,.62,0,1.03-.3,1.25-.9h2.55c-.21,.92-.64,1.63-1.3,2.16-.66,.52-1.48,.78-2.45,.78-.77,0-1.44-.16-2.04-.49s-1.05-.79-1.39-1.4c-.33-.61-.5-1.32-.5-2.13s.17-1.52,.5-2.13Z"/><path class="cls-6" d="M176.12,113.89c-.61-.33-1.09-.79-1.44-1.4-.35-.61-.52-1.32-.52-2.13s.18-1.51,.53-2.12c.35-.61,.84-1.08,1.46-1.41,.62-.33,1.31-.49,2.07-.49s1.46,.16,2.07,.49c.62,.33,1.1,.79,1.46,1.41,.35,.61,.53,1.32,.53,2.12s-.18,1.51-.54,2.12c-.36,.61-.85,1.08-1.47,1.41s-1.31,.49-2.08,.49-1.45-.16-2.06-.49Zm3.23-2.09c.32-.34,.48-.82,.48-1.44s-.16-1.11-.47-1.44c-.31-.34-.7-.5-1.15-.5s-.85,.17-1.16,.5c-.31,.33-.46,.81-.46,1.45s.15,1.11,.46,1.44c.3,.34,.68,.5,1.14,.5s.85-.17,1.17-.5Z"/><path class="cls-6" d="M184.9,114.03c-.53-.23-.95-.55-1.26-.96-.31-.41-.48-.86-.52-1.36h2.37c.03,.27,.15,.49,.38,.66s.5,.25,.83,.25c.3,0,.53-.06,.69-.17,.16-.12,.25-.27,.25-.46,0-.22-.12-.39-.35-.5-.23-.11-.61-.23-1.13-.36-.56-.13-1.03-.27-1.4-.41-.37-.14-.7-.37-.97-.69-.27-.31-.41-.73-.41-1.27,0-.45,.12-.86,.37-1.22,.25-.37,.61-.66,1.09-.88,.48-.21,1.05-.32,1.71-.32,.98,0,1.75,.24,2.32,.73,.56,.49,.89,1.13,.97,1.93h-2.21c-.04-.27-.16-.49-.36-.64-.2-.16-.46-.24-.79-.24-.28,0-.5,.05-.64,.16-.15,.11-.22,.25-.22,.44,0,.22,.12,.39,.36,.5,.24,.11,.61,.22,1.11,.34,.58,.15,1.05,.3,1.41,.44,.36,.14,.68,.38,.96,.7,.27,.32,.42,.75,.43,1.3,0,.46-.13,.87-.38,1.22-.26,.36-.63,.64-1.11,.85-.48,.21-1.04,.31-1.67,.31-.68,0-1.29-.12-1.82-.35Z"/><path class="cls-6" d="M191.45,114.01c-.27-.25-.4-.55-.4-.92s.13-.69,.4-.94,.61-.38,1.03-.38,.75,.13,1.02,.38,.4,.57,.4,.94-.13,.67-.4,.92-.6,.37-1.02,.37-.76-.12-1.03-.37Z"/></g><g><path class="cls-5" d="M278.82,85.36c-.26,.47-.66,.85-1.2,1.14-.54,.29-1.21,.43-2.02,.43h-1.48v3.53h-2.39v-9.83h3.88c.78,0,1.45,.14,1.99,.41s.95,.64,1.22,1.12c.27,.48,.41,1.02,.41,1.64,0,.57-.13,1.09-.39,1.56Zm-2.38-.65c.22-.21,.34-.52,.34-.91s-.11-.7-.34-.91c-.22-.21-.56-.32-1.02-.32h-1.3v2.46h1.3c.46,0,.8-.11,1.02-.32Z"/><path class="cls-5" d="M283.9,82.94c.42-.25,.89-.37,1.4-.37v2.53h-.66c-.6,0-1.05,.13-1.34,.39s-.45,.71-.45,1.35v3.63h-2.39v-7.81h2.39v1.3c.28-.43,.63-.77,1.05-1.02Z"/><path class="cls-5" d="M286.43,84.43c.3-.61,.72-1.07,1.24-1.4,.52-.33,1.11-.49,1.75-.49,.55,0,1.03,.11,1.45,.34,.41,.22,.73,.52,.96,.88v-1.11h2.39v7.81h-2.39v-1.11c-.23,.36-.56,.66-.97,.88-.42,.22-.9,.34-1.45,.34-.63,0-1.21-.17-1.74-.5-.52-.33-.94-.8-1.24-1.41s-.46-1.32-.46-2.12,.15-1.51,.46-2.11Zm4.9,.71c-.33-.34-.73-.52-1.21-.52s-.88,.17-1.21,.51c-.33,.34-.5,.81-.5,1.41s.17,1.07,.5,1.42c.33,.35,.74,.53,1.21,.53s.88-.17,1.21-.52c.33-.34,.5-.82,.5-1.41s-.17-1.07-.5-1.41Zm.68-4.44l-3.38,1.41v-1.65l3.38-1.62v1.86Z"/><path class="cls-5" d="M300.31,88.44v2.03h-1.22c-.87,0-1.54-.21-2.03-.64s-.73-1.12-.73-2.08v-3.11h-.95v-1.99h.95v-1.9h2.39v1.9h1.57v1.99h-1.57v3.14c0,.23,.06,.4,.17,.5s.3,.15,.56,.15h.85Z"/><path class="cls-5" d="M301.81,81.47c-.27-.25-.4-.55-.4-.92s.13-.68,.4-.93,.61-.37,1.03-.37,.75,.12,1.01,.37,.4,.56,.4,.93-.13,.67-.4,.92-.6,.37-1.01,.37-.76-.12-1.03-.37Zm2.22,1.18v7.81h-2.39v-7.81h2.39Z"/><path class="cls-5" d="M305.79,84.43c.33-.61,.79-1.07,1.38-1.4,.59-.33,1.27-.49,2.04-.49,.98,0,1.8,.26,2.46,.77,.66,.51,1.09,1.24,1.29,2.17h-2.55c-.21-.6-.63-.9-1.25-.9-.44,0-.79,.17-1.05,.51s-.39,.83-.39,1.46,.13,1.12,.39,1.46c.26,.34,.61,.51,1.05,.51,.62,0,1.03-.3,1.25-.9h2.55c-.21,.92-.64,1.63-1.3,2.16-.66,.52-1.48,.78-2.45,.78-.77,0-1.44-.16-2.04-.49-.59-.33-1.05-.79-1.38-1.4-.33-.61-.5-1.32-.5-2.13s.17-1.52,.5-2.13Z"/><path class="cls-5" d="M314.22,84.43c.3-.61,.71-1.07,1.24-1.4,.52-.33,1.11-.49,1.75-.49,.55,0,1.03,.11,1.45,.34,.42,.22,.73,.52,.96,.88v-1.11h2.39v7.81h-2.39v-1.11c-.23,.36-.56,.66-.97,.88-.42,.22-.9,.34-1.45,.34-.63,0-1.21-.17-1.74-.5-.52-.33-.94-.8-1.24-1.41-.3-.61-.46-1.32-.46-2.12s.15-1.51,.46-2.11Zm4.9,.71c-.33-.34-.74-.52-1.21-.52s-.88,.17-1.21,.51-.5,.81-.5,1.41,.17,1.07,.5,1.42,.74,.53,1.21,.53,.88-.17,1.21-.52c.33-.34,.5-.82,.5-1.41s-.17-1.07-.5-1.41Z"/><path class="cls-5" d="M325.1,90.23c-.53-.23-.95-.55-1.26-.96-.31-.41-.48-.86-.52-1.36h2.37c.03,.27,.15,.49,.38,.66,.22,.17,.5,.25,.83,.25,.3,0,.53-.06,.69-.17,.16-.12,.25-.27,.25-.46,0-.22-.12-.39-.35-.5-.23-.11-.61-.23-1.13-.36-.56-.13-1.03-.27-1.4-.41s-.7-.37-.97-.69c-.27-.31-.41-.73-.41-1.27,0-.45,.12-.86,.37-1.22,.25-.37,.61-.66,1.09-.88,.48-.21,1.05-.32,1.71-.32,.98,0,1.75,.24,2.32,.73s.89,1.13,.97,1.93h-2.21c-.04-.27-.16-.49-.36-.64-.2-.16-.46-.24-.79-.24-.28,0-.5,.05-.64,.16-.15,.11-.22,.25-.22,.44,0,.22,.12,.39,.36,.5s.61,.22,1.11,.34c.58,.15,1.05,.3,1.41,.44,.36,.14,.68,.38,.96,.7,.28,.32,.42,.75,.43,1.3,0,.46-.13,.87-.38,1.22s-.63,.64-1.11,.85-1.04,.31-1.67,.31c-.68,0-1.29-.12-1.82-.35Z"/><path class="cls-5" d="M262.44,103.94h-5.42c.04,.49,.19,.86,.47,1.11s.61,.38,1.02,.38c.6,0,1.01-.25,1.25-.76h2.55c-.13,.51-.37,.98-.71,1.39-.34,.41-.77,.73-1.28,.97-.51,.23-1.09,.35-1.72,.35-.77,0-1.45-.16-2.04-.49-.6-.33-1.06-.79-1.4-1.4-.34-.61-.5-1.32-.5-2.13s.17-1.52,.5-2.13c.33-.61,.79-1.07,1.39-1.4,.6-.33,1.28-.49,2.06-.49s1.43,.16,2.02,.48,1.05,.77,1.38,1.36c.33,.59,.5,1.27,.5,2.06,0,.22-.01,.46-.04,.7Zm-2.41-1.33c0-.41-.14-.74-.42-.98-.28-.24-.63-.36-1.05-.36s-.74,.12-1.01,.35-.45,.57-.51,.99h3Z"/><path class="cls-5" d="M263.73,101.23c.3-.61,.72-1.07,1.24-1.4,.52-.33,1.11-.49,1.75-.49,.51,0,.98,.11,1.41,.32,.42,.21,.76,.5,1,.87v-3.63h2.39v10.36h-2.39v-1.12c-.22,.37-.54,.67-.96,.9-.42,.22-.9,.34-1.45,.34-.64,0-1.23-.17-1.75-.5-.52-.33-.94-.8-1.24-1.41-.3-.61-.46-1.32-.46-2.12s.15-1.51,.46-2.11Zm4.9,.71c-.33-.34-.74-.52-1.21-.52s-.88,.17-1.21,.51c-.33,.34-.5,.81-.5,1.41s.17,1.07,.5,1.42c.33,.35,.73,.53,1.21,.53s.88-.17,1.21-.52c.33-.34,.5-.82,.5-1.41s-.17-1.07-.5-1.41Z"/><path class="cls-5" d="M280.97,99.46v7.81h-2.39v-1.06c-.24,.35-.57,.62-.99,.83-.42,.21-.88,.32-1.38,.32-.6,0-1.12-.13-1.58-.4-.46-.27-.81-.65-1.06-1.15-.25-.5-.38-1.1-.38-1.78v-4.56h2.38v4.24c0,.52,.13,.93,.41,1.22,.27,.29,.63,.43,1.09,.43s.84-.14,1.11-.43c.27-.29,.41-.7,.41-1.22v-4.24h2.39Z"/><path class="cls-5" d="M282.71,101.23c.33-.61,.79-1.07,1.38-1.4,.59-.33,1.27-.49,2.04-.49,.98,0,1.8,.26,2.46,.77,.66,.51,1.09,1.24,1.29,2.17h-2.55c-.21-.6-.63-.9-1.25-.9-.44,0-.79,.17-1.05,.51s-.39,.83-.39,1.46,.13,1.12,.39,1.46c.26,.34,.61,.51,1.05,.51,.62,0,1.03-.3,1.25-.9h2.55c-.21,.92-.64,1.63-1.3,2.16-.66,.52-1.48,.78-2.45,.78-.77,0-1.44-.16-2.04-.49-.59-.33-1.05-.79-1.38-1.4-.33-.61-.5-1.32-.5-2.13s.17-1.52,.5-2.13Z"/><path class="cls-5" d="M291.14,101.23c.3-.61,.71-1.07,1.24-1.4,.52-.33,1.11-.49,1.75-.49,.55,0,1.03,.11,1.45,.34,.42,.22,.73,.52,.96,.88v-1.11h2.39v7.81h-2.39v-1.11c-.23,.36-.56,.66-.97,.88-.42,.22-.9,.34-1.45,.34-.63,0-1.21-.17-1.74-.5-.52-.33-.94-.8-1.24-1.41-.3-.61-.46-1.32-.46-2.12s.15-1.51,.46-2.11Zm4.9,.71c-.33-.34-.74-.52-1.21-.52s-.88,.17-1.21,.51-.5,.81-.5,1.41,.17,1.07,.5,1.42,.74,.53,1.21,.53,.88-.17,1.21-.52c.33-.34,.5-.82,.5-1.41s-.17-1.07-.5-1.41Z"/><path class="cls-5" d="M305.02,105.24v2.03h-1.22c-.87,0-1.54-.21-2.03-.64-.49-.42-.73-1.12-.73-2.08v-3.11h-.95v-1.99h.95v-1.9h2.39v1.9h1.57v1.99h-1.57v3.14c0,.23,.05,.4,.17,.5,.11,.1,.3,.15,.56,.15h.85Z"/><path class="cls-5" d="M306.52,98.27c-.27-.25-.4-.55-.4-.92s.13-.68,.4-.93c.27-.25,.61-.37,1.03-.37s.75,.12,1.02,.37c.27,.25,.4,.56,.4,.93s-.13,.67-.4,.92c-.27,.25-.61,.37-1.02,.37s-.76-.12-1.03-.37Zm2.22,1.18v7.81h-2.39v-7.81h2.39Z"/><path class="cls-5" d="M313.99,105.03l1.7-5.57h2.55l-2.77,7.81h-2.95l-2.77-7.81h2.56l1.69,5.57Z"/><path class="cls-5" d="M319.22,101.23c.3-.61,.72-1.07,1.24-1.4,.52-.33,1.11-.49,1.75-.49,.55,0,1.03,.11,1.45,.34,.41,.22,.73,.52,.96,.88v-1.11h2.39v7.81h-2.39v-1.11c-.23,.36-.56,.66-.97,.88-.42,.22-.9,.34-1.45,.34-.63,0-1.21-.17-1.74-.5-.52-.33-.94-.8-1.24-1.41s-.46-1.32-.46-2.12,.15-1.51,.46-2.11Zm4.9,.71c-.33-.34-.73-.52-1.21-.52s-.88,.17-1.21,.51c-.33,.34-.5,.81-.5,1.41s.17,1.07,.5,1.42c.33,.35,.74,.53,1.21,.53s.88-.17,1.21-.52c.33-.34,.5-.82,.5-1.41s-.17-1.07-.5-1.41Z"/><path class="cls-5" d="M330.11,107.03c-.53-.23-.95-.55-1.26-.96-.31-.41-.48-.86-.52-1.36h2.37c.03,.27,.15,.49,.38,.66s.5,.25,.83,.25c.3,0,.53-.06,.69-.17,.16-.12,.24-.27,.24-.46,0-.22-.12-.39-.35-.5-.23-.11-.61-.23-1.13-.36-.56-.13-1.03-.27-1.4-.41-.37-.14-.7-.37-.97-.69-.27-.31-.41-.73-.41-1.27,0-.45,.12-.86,.37-1.22,.25-.37,.61-.66,1.09-.88s1.05-.32,1.71-.32c.98,0,1.75,.24,2.32,.73,.57,.49,.89,1.13,.97,1.93h-2.21c-.04-.27-.16-.49-.36-.64-.2-.16-.46-.24-.79-.24-.28,0-.5,.05-.64,.16-.15,.11-.22,.25-.22,.44,0,.22,.12,.39,.36,.5s.61,.22,1.11,.34c.58,.15,1.05,.3,1.41,.44,.36,.14,.68,.38,.96,.7,.27,.32,.42,.75,.43,1.3,0,.46-.13,.87-.38,1.22-.26,.36-.62,.64-1.11,.85s-1.04,.31-1.67,.31c-.68,0-1.29-.12-1.82-.35Z"/><path class="cls-5" d="M346.85,103.94h-5.42c.04,.49,.19,.86,.47,1.11,.27,.26,.61,.38,1.01,.38,.6,0,1.01-.25,1.25-.76h2.55c-.13,.51-.37,.98-.71,1.39-.34,.41-.77,.73-1.28,.97-.51,.23-1.09,.35-1.72,.35-.77,0-1.45-.16-2.04-.49s-1.06-.79-1.4-1.4c-.34-.61-.5-1.32-.5-2.13s.17-1.52,.5-2.13c.33-.61,.8-1.07,1.39-1.4,.6-.33,1.28-.49,2.06-.49s1.43,.16,2.02,.48,1.05,.77,1.38,1.36c.33,.59,.5,1.27,.5,2.06,0,.22-.01,.46-.04,.7Zm-2.41-1.33c0-.41-.14-.74-.42-.98-.28-.24-.63-.36-1.05-.36s-.74,.12-1.02,.35-.45,.57-.51,.99h3Z"/><path class="cls-5" d="M263.49,118.24h-1.29v5.82h-2.39v-5.82h-.87v-1.99h.87v-.22c0-.96,.28-1.69,.83-2.19,.55-.5,1.36-.75,2.42-.75,.18,0,.31,0,.39,.01v2.03c-.46-.03-.78,.04-.97,.2-.19,.16-.28,.44-.28,.85v.07h1.29v1.99Z"/><path class="cls-5" d="M266.1,123.69c-.61-.33-1.09-.79-1.44-1.4-.35-.61-.53-1.32-.53-2.13s.18-1.51,.53-2.12,.84-1.08,1.46-1.41c.62-.33,1.31-.49,2.07-.49s1.46,.16,2.07,.49c.62,.33,1.1,.79,1.46,1.41,.36,.61,.53,1.32,.53,2.12s-.18,1.51-.54,2.12c-.36,.61-.85,1.08-1.47,1.41s-1.31,.49-2.08,.49-1.45-.16-2.07-.49Zm3.23-2.09c.32-.34,.48-.82,.48-1.44s-.16-1.11-.47-1.44-.7-.5-1.15-.5-.85,.17-1.16,.5c-.31,.33-.46,.81-.46,1.45s.15,1.11,.46,1.44,.68,.5,1.14,.5,.85-.17,1.17-.5Z"/><path class="cls-5" d="M276.98,116.54c.42-.25,.89-.37,1.4-.37v2.53h-.66c-.6,0-1.04,.13-1.34,.39s-.45,.71-.45,1.35v3.63h-2.39v-7.81h2.39v1.3c.28-.43,.63-.77,1.05-1.02Z"/><path class="cls-5" d="M291.81,117.05c.57,.59,.86,1.4,.86,2.45v4.56h-2.38v-4.24c0-.5-.13-.89-.4-1.17-.27-.28-.63-.41-1.1-.41s-.83,.14-1.1,.41c-.27,.28-.4,.67-.4,1.17v4.24h-2.38v-4.24c0-.5-.13-.89-.4-1.17s-.63-.41-1.1-.41-.83,.14-1.1,.41c-.27,.28-.4,.67-.4,1.17v4.24h-2.39v-7.81h2.39v.98c.24-.33,.56-.59,.95-.78,.39-.19,.83-.29,1.33-.29,.59,0,1.11,.13,1.57,.38,.46,.25,.82,.61,1.09,1.08,.27-.43,.64-.78,1.11-1.05,.47-.27,.97-.41,1.53-.41,.97,0,1.74,.29,2.32,.88Z"/><path class="cls-5" d="M294.33,118.03c.3-.61,.71-1.07,1.24-1.4,.52-.33,1.11-.49,1.75-.49,.55,0,1.03,.11,1.45,.34,.42,.22,.73,.52,.96,.88v-1.11h2.39v7.81h-2.39v-1.11c-.23,.36-.56,.66-.97,.88-.42,.22-.9,.34-1.45,.34-.63,0-1.21-.17-1.74-.5-.52-.33-.94-.8-1.24-1.41-.3-.61-.46-1.32-.46-2.12s.15-1.51,.46-2.11Zm4.9,.71c-.33-.34-.74-.52-1.21-.52s-.88,.17-1.21,.51-.5,.81-.5,1.41,.17,1.07,.5,1.42,.74,.53,1.21,.53,.88-.17,1.21-.52c.33-.34,.5-.82,.5-1.41s-.17-1.07-.5-1.41Z"/><path class="cls-5" d="M308.21,122.04v2.03h-1.22c-.87,0-1.54-.21-2.03-.64-.49-.42-.73-1.12-.73-2.08v-3.11h-.95v-1.99h.95v-1.9h2.39v1.9h1.57v1.99h-1.57v3.14c0,.23,.05,.4,.17,.5,.11,.1,.3,.15,.56,.15h.85Z"/><path class="cls-5" d="M309.71,115.07c-.27-.25-.4-.55-.4-.92s.13-.68,.4-.93c.27-.25,.61-.37,1.03-.37s.75,.12,1.02,.37c.27,.25,.4,.56,.4,.93s-.13,.67-.4,.92c-.27,.25-.61,.37-1.02,.37s-.76-.12-1.03-.37Zm2.22,1.18v7.81h-2.39v-7.81h2.39Z"/><path class="cls-5" d="M317.18,121.83l1.7-5.57h2.55l-2.77,7.81h-2.95l-2.77-7.81h2.56l1.69,5.57Z"/><path class="cls-5" d="M322.41,118.03c.3-.61,.72-1.07,1.24-1.4,.52-.33,1.11-.49,1.75-.49,.55,0,1.03,.11,1.45,.34,.41,.22,.73,.52,.96,.88v-1.11h2.39v7.81h-2.39v-1.11c-.23,.36-.56,.66-.97,.88-.42,.22-.9,.34-1.45,.34-.63,0-1.21-.17-1.74-.5-.52-.33-.94-.8-1.24-1.41s-.46-1.32-.46-2.12,.15-1.51,.46-2.11Zm4.9,.71c-.33-.34-.73-.52-1.21-.52s-.88,.17-1.21,.51c-.33,.34-.5,.81-.5,1.41s.17,1.07,.5,1.42c.33,.35,.74,.53,1.21,.53s.88-.17,1.21-.52c.33-.34,.5-.82,.5-1.41s-.17-1.07-.5-1.41Z"/><path class="cls-5" d="M333.3,123.83c-.53-.23-.95-.55-1.26-.96-.31-.41-.48-.86-.52-1.36h2.37c.03,.27,.15,.49,.38,.66s.5,.25,.83,.25c.3,0,.53-.06,.69-.17,.16-.12,.24-.27,.24-.46,0-.22-.12-.39-.35-.5-.23-.11-.61-.23-1.13-.36-.56-.13-1.03-.27-1.4-.41-.37-.14-.7-.37-.97-.69-.27-.31-.41-.73-.41-1.27,0-.45,.12-.86,.37-1.22,.25-.37,.61-.66,1.09-.88s1.05-.32,1.71-.32c.98,0,1.75,.24,2.32,.73,.57,.49,.89,1.13,.97,1.93h-2.21c-.04-.27-.16-.49-.36-.64-.2-.16-.46-.24-.79-.24-.28,0-.5,.05-.64,.16-.15,.11-.22,.25-.22,.44,0,.22,.12,.39,.36,.5s.61,.22,1.11,.34c.58,.15,1.05,.3,1.41,.44,.36,.14,.68,.38,.96,.7,.27,.32,.42,.75,.43,1.3,0,.46-.13,.87-.38,1.22-.26,.36-.62,.64-1.11,.85s-1.04,.31-1.67,.31c-.68,0-1.29-.12-1.82-.35Z"/><path class="cls-5" d="M339.84,123.81c-.27-.25-.4-.55-.4-.92s.13-.69,.4-.94,.61-.38,1.03-.38,.75,.13,1.02,.38,.4,.57,.4,.94-.13,.67-.4,.92-.6,.37-1.02,.37-.76-.12-1.03-.37Z"/></g><g><path class="cls-6" d="M249.63,218.64v9.83h-2.39v-9.83h2.39Z"/><path class="cls-6" d="M258.32,221.46c.55,.59,.82,1.41,.82,2.44v4.56h-2.38v-4.24c0-.52-.13-.93-.41-1.22-.27-.29-.63-.43-1.09-.43s-.82,.14-1.09,.43c-.27,.29-.41,.7-.41,1.22v4.24h-2.39v-7.81h2.39v1.04c.24-.34,.57-.62,.98-.82,.41-.2,.87-.3,1.39-.3,.92,0,1.65,.3,2.19,.89Z"/><path class="cls-6" d="M260.98,219.47c-.27-.25-.4-.55-.4-.92s.13-.68,.4-.93c.27-.25,.61-.37,1.03-.37s.75,.12,1.02,.37c.27,.25,.4,.56,.4,.93s-.13,.67-.4,.92c-.27,.25-.61,.37-1.02,.37s-.76-.12-1.03-.37Zm2.22,1.18v7.81h-2.39v-7.81h2.39Z"/><path class="cls-6" d="M264.96,222.43c.33-.61,.79-1.07,1.39-1.4,.59-.33,1.27-.49,2.04-.49,.98,0,1.8,.26,2.46,.77,.66,.51,1.09,1.24,1.29,2.17h-2.55c-.21-.6-.63-.9-1.25-.9-.44,0-.79,.17-1.05,.51-.26,.34-.39,.83-.39,1.46s.13,1.12,.39,1.46c.26,.34,.61,.51,1.05,.51,.62,0,1.03-.3,1.25-.9h2.55c-.21,.92-.64,1.63-1.3,2.16-.66,.52-1.48,.78-2.45,.78-.77,0-1.44-.16-2.04-.49s-1.05-.79-1.39-1.4c-.33-.61-.5-1.32-.5-2.13s.17-1.52,.5-2.13Z"/><path class="cls-6" d="M273.58,219.47c-.27-.25-.4-.55-.4-.92s.13-.68,.4-.93c.27-.25,.61-.37,1.03-.37s.75,.12,1.02,.37c.27,.25,.4,.56,.4,.93s-.13,.67-.4,.92c-.27,.25-.61,.37-1.02,.37s-.76-.12-1.03-.37Zm2.22,1.18v7.81h-2.39v-7.81h2.39Z"/><path class="cls-6" d="M277.51,222.43c.3-.61,.72-1.07,1.24-1.4,.52-.33,1.11-.49,1.75-.49,.55,0,1.03,.11,1.45,.34,.41,.22,.73,.52,.96,.88v-1.11h2.39v7.81h-2.39v-1.11c-.23,.36-.56,.66-.97,.88-.42,.22-.9,.34-1.45,.34-.63,0-1.21-.17-1.74-.5-.52-.33-.94-.8-1.24-1.41s-.46-1.32-.46-2.12,.15-1.51,.46-2.11Zm4.9,.71c-.33-.34-.73-.52-1.21-.52s-.88,.17-1.21,.51c-.33,.34-.5,.81-.5,1.41s.17,1.07,.5,1.42c.33,.35,.74,.53,1.21,.53s.88-.17,1.21-.52c.33-.34,.5-.82,.5-1.41s-.17-1.07-.5-1.41Z"/><path class="cls-6" d="M291.39,226.44v2.03h-1.22c-.87,0-1.54-.21-2.03-.64s-.73-1.12-.73-2.08v-3.11h-.95v-1.99h.95v-1.9h2.39v1.9h1.57v1.99h-1.57v3.14c0,.23,.06,.4,.17,.5s.3,.15,.56,.15h.85Z"/><path class="cls-6" d="M292.9,219.47c-.27-.25-.4-.55-.4-.92s.13-.68,.4-.93,.61-.37,1.03-.37,.75,.12,1.01,.37,.4,.56,.4,.93-.13,.67-.4,.92-.6,.37-1.01,.37-.76-.12-1.03-.37Zm2.22,1.18v7.81h-2.39v-7.81h2.39Z"/><path class="cls-6" d="M300.37,226.23l1.69-5.57h2.55l-2.77,7.81h-2.96l-2.77-7.81h2.56l1.69,5.57Z"/><path class="cls-6" d="M305.6,222.43c.3-.61,.72-1.07,1.24-1.4,.52-.33,1.11-.49,1.75-.49,.55,0,1.03,.11,1.45,.34s.74,.52,.96,.88v-1.11h2.39v7.81h-2.39v-1.11c-.23,.36-.56,.66-.97,.88-.42,.22-.9,.34-1.45,.34-.63,0-1.21-.17-1.74-.5s-.94-.8-1.24-1.41c-.3-.61-.46-1.32-.46-2.12s.15-1.51,.46-2.11Zm4.9,.71c-.33-.34-.73-.52-1.21-.52s-.88,.17-1.21,.51c-.33,.34-.5,.81-.5,1.41s.17,1.07,.5,1.42c.33,.35,.73,.53,1.21,.53s.88-.17,1.21-.52c.33-.34,.5-.82,.5-1.41s-.17-1.07-.5-1.41Z"/><path class="cls-6" d="M316.48,228.23c-.53-.23-.95-.55-1.26-.96-.31-.41-.48-.86-.52-1.36h2.37c.03,.27,.15,.49,.38,.66,.22,.17,.5,.25,.83,.25,.3,0,.53-.06,.69-.17,.16-.12,.25-.27,.25-.46,0-.22-.12-.39-.35-.5-.23-.11-.61-.23-1.13-.36-.56-.13-1.03-.27-1.4-.41-.37-.14-.7-.37-.96-.69-.27-.31-.41-.73-.41-1.27,0-.45,.12-.86,.37-1.22,.25-.37,.61-.66,1.09-.88s1.05-.32,1.71-.32c.98,0,1.75,.24,2.32,.73,.57,.49,.89,1.13,.97,1.93h-2.21c-.04-.27-.16-.49-.36-.64-.2-.16-.46-.24-.79-.24-.28,0-.49,.05-.64,.16-.15,.11-.22,.25-.22,.44,0,.22,.12,.39,.36,.5,.24,.11,.61,.22,1.11,.34,.58,.15,1.05,.3,1.41,.44s.68,.38,.96,.7c.27,.32,.42,.75,.43,1.3,0,.46-.13,.87-.38,1.22-.26,.36-.62,.64-1.11,.85-.48,.21-1.04,.31-1.67,.31-.68,0-1.29-.12-1.82-.35Z"/><path class="cls-6" d="M325.88,222.43c.3-.61,.72-1.07,1.24-1.4,.52-.33,1.11-.49,1.75-.49,.51,0,.98,.11,1.41,.32,.42,.21,.76,.5,1,.87v-3.63h2.39v10.36h-2.39v-1.12c-.22,.37-.54,.67-.96,.9-.42,.22-.9,.34-1.45,.34-.64,0-1.23-.17-1.75-.5-.52-.33-.94-.8-1.24-1.41s-.46-1.32-.46-2.12,.15-1.51,.46-2.11Zm4.9,.71c-.33-.34-.73-.52-1.21-.52s-.88,.17-1.21,.51c-.33,.34-.5,.81-.5,1.41s.17,1.07,.5,1.42c.33,.35,.74,.53,1.21,.53s.88-.17,1.21-.52c.33-.34,.5-.82,.5-1.41s-.17-1.07-.5-1.41Z"/><path class="cls-6" d="M342.73,225.13h-5.42c.04,.49,.19,.86,.47,1.11s.61,.38,1.02,.38c.6,0,1.01-.25,1.25-.76h2.55c-.13,.51-.37,.98-.71,1.39-.34,.41-.77,.73-1.28,.97-.51,.23-1.09,.35-1.72,.35-.77,0-1.45-.16-2.04-.49-.6-.33-1.06-.79-1.4-1.4-.34-.61-.5-1.32-.5-2.13s.17-1.52,.5-2.13c.33-.61,.79-1.07,1.39-1.4,.6-.33,1.28-.49,2.06-.49s1.43,.16,2.02,.48,1.05,.77,1.38,1.36c.33,.59,.5,1.27,.5,2.06,0,.22-.01,.46-.04,.7Zm-2.41-1.33c0-.41-.14-.74-.42-.98-.28-.24-.63-.36-1.05-.36s-.74,.12-1.01,.35-.45,.57-.51,.99h3Z"/><path class="cls-6" d="M228.91,239.23c.3-.61,.71-1.07,1.24-1.4,.52-.33,1.11-.49,1.75-.49,.55,0,1.03,.11,1.45,.34,.42,.22,.73,.52,.96,.88v-1.11h2.39v7.81h-2.39v-1.11c-.23,.36-.56,.66-.97,.88-.42,.22-.9,.34-1.45,.34-.63,0-1.21-.17-1.74-.5-.52-.33-.94-.8-1.24-1.41-.3-.61-.46-1.32-.46-2.12s.15-1.51,.46-2.11Zm4.9,.71c-.33-.34-.74-.52-1.21-.52s-.88,.17-1.21,.51-.5,.81-.5,1.41,.17,1.07,.5,1.42,.74,.53,1.21,.53,.88-.17,1.21-.52c.33-.34,.5-.82,.5-1.41s-.17-1.07-.5-1.41Z"/><path class="cls-6" d="M243.08,242.44h2.55c-.18,.79-.53,1.44-1.06,1.95s-1.2,.82-1.99,.94v.52c.49,0,.91,.13,1.27,.4,.36,.27,.55,.67,.55,1.2s-.19,.94-.57,1.21-.84,.41-1.37,.41h-2.16v-1.32h1.83c.19,0,.33-.03,.42-.08,.09-.06,.14-.15,.14-.28s-.05-.22-.14-.27c-.09-.05-.23-.08-.42-.08h-.99v-1.71c-.96-.15-1.73-.58-2.31-1.28-.58-.71-.87-1.6-.87-2.68,0-.81,.17-1.52,.5-2.13,.33-.61,.79-1.07,1.39-1.4,.59-.33,1.27-.49,2.04-.49,.98,0,1.8,.26,2.46,.77,.66,.51,1.09,1.24,1.29,2.17h-2.55c-.21-.6-.63-.9-1.25-.9-.44,0-.79,.17-1.05,.51-.26,.34-.39,.83-.39,1.46s.13,1.12,.39,1.46c.26,.34,.61,.51,1.05,.51,.62,0,1.03-.3,1.25-.9Z"/><path class="cls-6" d="M246.88,239.23c.3-.61,.72-1.07,1.24-1.4,.52-.33,1.11-.49,1.75-.49,.55,0,1.03,.11,1.45,.34s.74,.52,.96,.88v-1.11h2.39v7.81h-2.39v-1.11c-.23,.36-.56,.66-.97,.88-.42,.22-.9,.34-1.45,.34-.63,0-1.21-.17-1.74-.5s-.94-.8-1.24-1.41c-.3-.61-.46-1.32-.46-2.12s.15-1.51,.46-2.11Zm3.09-4.51c.21,0,.38,.03,.54,.09,.15,.06,.34,.15,.57,.27,.17,.09,.3,.16,.41,.2,.1,.04,.21,.06,.32,.06,.34,0,.54-.21,.6-.63h1.23c-.22,1.38-.87,2.07-1.93,2.07-.21,0-.38-.03-.54-.09-.15-.06-.34-.15-.57-.27-.17-.09-.3-.16-.41-.2s-.21-.06-.32-.06c-.34,0-.55,.21-.62,.63h-1.22c.22-1.38,.87-2.07,1.93-2.07Zm1.81,5.22c-.33-.34-.73-.52-1.21-.52s-.88,.17-1.21,.51c-.33,.34-.5,.81-.5,1.41s.17,1.07,.5,1.42c.33,.35,.73,.53,1.21,.53s.88-.17,1.21-.52c.33-.34,.5-.82,.5-1.41s-.17-1.07-.5-1.41Z"/><path class="cls-6" d="M257.9,244.89c-.61-.33-1.09-.79-1.44-1.4-.35-.61-.53-1.32-.53-2.13s.18-1.51,.53-2.12,.84-1.08,1.46-1.41c.62-.33,1.31-.49,2.07-.49s1.46,.16,2.07,.49c.62,.33,1.1,.79,1.46,1.41,.36,.61,.53,1.32,.53,2.12s-.18,1.51-.54,2.12c-.36,.61-.85,1.08-1.47,1.41s-1.31,.49-2.08,.49-1.45-.16-2.07-.49Zm3.23-2.09c.32-.34,.48-.82,.48-1.44s-.16-1.11-.47-1.44-.7-.5-1.15-.5-.85,.17-1.16,.5c-.31,.33-.46,.81-.46,1.45s.15,1.11,.46,1.44,.68,.5,1.14,.5,.85-.17,1.17-.5Z"/><path class="cls-6" d="M268.32,239.23c.33-.61,.79-1.07,1.39-1.4,.59-.33,1.27-.49,2.04-.49,.98,0,1.8,.26,2.46,.77,.66,.51,1.09,1.24,1.29,2.17h-2.55c-.21-.6-.63-.9-1.25-.9-.44,0-.79,.17-1.05,.51-.26,.34-.39,.83-.39,1.46s.13,1.12,.39,1.46c.26,.34,.61,.51,1.05,.51,.62,0,1.03-.3,1.25-.9h2.55c-.21,.92-.64,1.63-1.3,2.16-.66,.52-1.48,.78-2.45,.78-.77,0-1.45-.16-2.04-.49-.59-.33-1.05-.79-1.39-1.4-.33-.61-.5-1.32-.5-2.13s.17-1.52,.5-2.13Z"/><path class="cls-6" d="M278.26,244.89c-.61-.33-1.09-.79-1.44-1.4-.35-.61-.53-1.32-.53-2.13s.18-1.51,.53-2.12,.84-1.08,1.46-1.41c.62-.33,1.31-.49,2.07-.49s1.46,.16,2.07,.49c.62,.33,1.1,.79,1.46,1.41,.36,.61,.53,1.32,.53,2.12s-.18,1.51-.54,2.12c-.36,.61-.85,1.08-1.47,1.41s-1.31,.49-2.08,.49-1.45-.16-2.07-.49Zm3.23-2.09c.32-.34,.48-.82,.48-1.44s-.16-1.11-.47-1.44-.7-.5-1.15-.5-.85,.17-1.16,.5c-.31,.33-.46,.81-.46,1.45s.15,1.11,.46,1.44,.68,.5,1.14,.5,.85-.17,1.17-.5Z"/><path class="cls-6" d="M297.97,238.25c.57,.59,.86,1.4,.86,2.45v4.56h-2.38v-4.24c0-.5-.13-.89-.4-1.17s-.63-.41-1.1-.41-.83,.14-1.1,.41-.4,.67-.4,1.17v4.24h-2.38v-4.24c0-.5-.13-.89-.4-1.17-.27-.28-.63-.41-1.1-.41s-.83,.14-1.1,.41-.4,.67-.4,1.17v4.24h-2.39v-7.81h2.39v.98c.24-.33,.56-.59,.95-.78,.39-.19,.84-.29,1.33-.29,.59,0,1.11,.13,1.58,.38s.82,.61,1.08,1.08c.27-.43,.64-.78,1.11-1.05,.47-.27,.98-.41,1.53-.41,.97,0,1.74,.29,2.32,.88Z"/><path class="cls-6" d="M308.22,237.46v7.81h-2.39v-1.06c-.24,.35-.57,.62-.99,.83-.42,.21-.88,.32-1.38,.32-.6,0-1.12-.13-1.58-.4-.46-.27-.81-.65-1.06-1.15-.25-.5-.38-1.1-.38-1.78v-4.56h2.38v4.24c0,.52,.13,.93,.41,1.22,.27,.29,.63,.43,1.09,.43s.84-.14,1.11-.43c.27-.29,.41-.7,.41-1.22v-4.24h2.39Z"/><path class="cls-6" d="M316.9,238.26c.55,.59,.82,1.41,.82,2.44v4.56h-2.38v-4.24c0-.52-.14-.93-.41-1.22-.27-.29-.63-.43-1.09-.43s-.82,.14-1.09,.43-.41,.7-.41,1.22v4.24h-2.39v-7.81h2.39v1.04c.24-.34,.57-.62,.98-.82,.41-.2,.87-.3,1.39-.3,.91,0,1.64,.3,2.19,.89Z"/><path class="cls-6" d="M319.56,236.27c-.27-.25-.4-.55-.4-.92s.13-.68,.4-.93c.27-.25,.61-.37,1.03-.37s.75,.12,1.01,.37c.27,.25,.4,.56,.4,.93s-.13,.67-.4,.92c-.27,.25-.6,.37-1.01,.37s-.76-.12-1.03-.37Zm2.22,1.18v7.81h-2.39v-7.81h2.39Z"/><path class="cls-6" d="M327.86,243.24v2.03h-1.22c-.87,0-1.54-.21-2.03-.64-.49-.42-.73-1.12-.73-2.08v-3.11h-.95v-1.99h.95v-1.9h2.39v1.9h1.57v1.99h-1.57v3.14c0,.23,.06,.4,.17,.5,.11,.1,.3,.15,.56,.15h.85Z"/><path class="cls-6" d="M329.17,239.23c.3-.61,.72-1.07,1.24-1.4,.52-.33,1.11-.49,1.75-.49,.55,0,1.03,.11,1.45,.34s.74,.52,.96,.88v-1.11h2.39v7.81h-2.39v-1.11c-.23,.36-.56,.66-.97,.88-.42,.22-.9,.34-1.45,.34-.63,0-1.21-.17-1.74-.5s-.94-.8-1.24-1.41c-.3-.61-.46-1.32-.46-2.12s.15-1.51,.46-2.11Zm4.9,.71c-.33-.34-.73-.52-1.21-.52s-.88,.17-1.21,.51c-.33,.34-.5,.81-.5,1.41s.17,1.07,.5,1.42c.33,.35,.73,.53,1.21,.53s.88-.17,1.21-.52c.33-.34,.5-.82,.5-1.41s-.17-1.07-.5-1.41Zm.68-4.44l-3.37,1.41v-1.65l3.37-1.62v1.86Z"/><path class="cls-6" d="M342.14,237.74c.42-.25,.89-.37,1.4-.37v2.53h-.66c-.6,0-1.04,.13-1.34,.39s-.45,.71-.45,1.35v3.63h-2.39v-7.81h2.39v1.3c.28-.43,.63-.77,1.05-1.02Z"/><path class="cls-6" d="M344.87,236.27c-.27-.25-.4-.55-.4-.92s.13-.68,.4-.93,.61-.37,1.03-.37,.75,.12,1.01,.37,.4,.56,.4,.93-.13,.67-.4,.92-.6,.37-1.01,.37-.76-.12-1.03-.37Zm2.22,1.18v7.81h-2.39v-7.81h2.39Z"/><path class="cls-6" d="M348.8,239.23c.3-.61,.72-1.07,1.24-1.4,.52-.33,1.11-.49,1.75-.49,.55,0,1.03,.11,1.45,.34,.42,.22,.73,.52,.96,.88v-1.11h2.39v7.81h-2.39v-1.11c-.23,.36-.56,.66-.97,.88-.42,.22-.9,.34-1.45,.34-.63,0-1.21-.17-1.74-.5s-.94-.8-1.24-1.41c-.3-.61-.46-1.32-.46-2.12s.15-1.51,.46-2.11Zm4.9,.71c-.33-.34-.74-.52-1.21-.52s-.88,.17-1.21,.51c-.33,.34-.5,.81-.5,1.41s.17,1.07,.5,1.42c.33,.35,.73,.53,1.21,.53s.88-.17,1.21-.52c.33-.34,.5-.82,.5-1.41s-.17-1.07-.5-1.41Z"/><path class="cls-6" d="M360.9,243.06l-1.55,4.02h-1.53l.81-4.02h2.27Z"/><path class="cls-6" d="M263.43,255.05c.57,.59,.86,1.4,.86,2.45v4.56h-2.38v-4.24c0-.5-.13-.89-.4-1.17s-.63-.41-1.1-.41-.83,.14-1.1,.41-.4,.67-.4,1.17v4.24h-2.38v-4.24c0-.5-.13-.89-.4-1.17-.27-.28-.63-.41-1.1-.41s-.83,.14-1.1,.41-.4,.67-.4,1.17v4.24h-2.39v-7.81h2.39v.98c.24-.33,.56-.59,.95-.78,.39-.19,.84-.29,1.33-.29,.59,0,1.11,.13,1.58,.38s.82,.61,1.08,1.08c.27-.43,.64-.78,1.11-1.05,.47-.27,.98-.41,1.53-.41,.97,0,1.74,.29,2.32,.88Z"/><path class="cls-6" d="M267.46,261.69c-.61-.33-1.09-.79-1.44-1.4-.35-.61-.53-1.32-.53-2.13s.18-1.51,.53-2.12c.36-.61,.84-1.08,1.46-1.41,.62-.33,1.31-.49,2.07-.49s1.46,.16,2.07,.49c.62,.33,1.1,.79,1.46,1.41,.35,.61,.53,1.32,.53,2.12s-.18,1.51-.54,2.12c-.36,.61-.85,1.08-1.47,1.41-.62,.33-1.31,.49-2.08,.49s-1.45-.16-2.06-.49Zm3.23-2.09c.32-.34,.48-.82,.48-1.44s-.16-1.11-.47-1.44-.7-.5-1.15-.5-.85,.17-1.16,.5c-.31,.33-.46,.81-.46,1.45s.15,1.11,.46,1.44c.3,.34,.68,.5,1.14,.5s.85-.17,1.17-.5Z"/><path class="cls-6" d="M278.25,254.48c.42-.22,.9-.34,1.44-.34,.64,0,1.23,.16,1.75,.49,.52,.33,.94,.79,1.24,1.4,.3,.61,.45,1.31,.45,2.11s-.15,1.51-.45,2.12c-.3,.61-.72,1.08-1.24,1.41-.52,.33-1.11,.5-1.75,.5-.55,0-1.03-.11-1.44-.33-.41-.22-.73-.51-.97-.88v1.09h-2.39v-10.36h2.39v3.65c.22-.36,.55-.66,.97-.88Zm1.95,2.26c-.33-.34-.74-.51-1.22-.51s-.88,.17-1.21,.52c-.33,.35-.5,.82-.5,1.41s.17,1.07,.5,1.41c.33,.35,.73,.52,1.21,.52s.88-.18,1.22-.53,.5-.82,.5-1.42-.17-1.07-.5-1.41Z"/><path class="cls-6" d="M284.57,253.07c-.27-.25-.4-.55-.4-.92s.13-.68,.4-.93c.27-.25,.61-.37,1.03-.37s.75,.12,1.02,.37c.27,.25,.4,.56,.4,.93s-.13,.67-.4,.92c-.27,.25-.61,.37-1.02,.37s-.76-.12-1.03-.37Zm2.22,1.18v7.81h-2.39v-7.81h2.39Z"/><path class="cls-6" d="M290.92,251.71v10.36h-2.39v-10.36h2.39Z"/><path class="cls-6" d="M292.83,253.07c-.27-.25-.4-.55-.4-.92s.13-.68,.4-.93c.27-.25,.61-.37,1.03-.37s.75,.12,1.02,.37c.27,.25,.4,.56,.4,.93s-.13,.67-.4,.92c-.27,.25-.61,.37-1.02,.37s-.76-.12-1.03-.37Zm2.22,1.18v7.81h-2.39v-7.81h2.39Z"/><path class="cls-6" d="M299.02,260.09h3.39v1.97h-6.06v-1.9l3.25-3.93h-3.22v-1.97h5.96v1.9l-3.32,3.93Z"/><path class="cls-6" d="M303.71,256.03c.3-.61,.71-1.07,1.24-1.4,.52-.33,1.11-.49,1.75-.49,.55,0,1.03,.11,1.45,.34,.42,.22,.73,.52,.96,.88v-1.11h2.39v7.81h-2.39v-1.11c-.23,.36-.56,.66-.97,.88-.42,.22-.9,.34-1.45,.34-.63,0-1.21-.17-1.74-.5-.52-.33-.94-.8-1.24-1.41-.3-.61-.46-1.32-.46-2.12s.15-1.51,.46-2.11Zm4.9,.71c-.33-.34-.74-.52-1.21-.52s-.88,.17-1.21,.51-.5,.81-.5,1.41,.17,1.07,.5,1.42,.74,.53,1.21,.53,.88-.17,1.21-.52c.33-.34,.5-.82,.5-1.41s-.17-1.07-.5-1.41Z"/><path class="cls-6" d="M317.88,259.24h2.55c-.18,.79-.53,1.44-1.06,1.95s-1.2,.82-1.99,.94v.52c.49,0,.91,.13,1.27,.4,.36,.27,.55,.67,.55,1.2s-.19,.94-.57,1.21-.84,.41-1.37,.41h-2.16v-1.32h1.83c.19,0,.33-.03,.42-.08,.09-.06,.14-.15,.14-.28s-.05-.22-.14-.27c-.09-.05-.23-.08-.42-.08h-.99v-1.71c-.96-.15-1.73-.58-2.31-1.28-.58-.71-.87-1.6-.87-2.68,0-.81,.17-1.52,.5-2.13,.33-.61,.79-1.07,1.39-1.4,.59-.33,1.27-.49,2.04-.49,.98,0,1.8,.26,2.46,.77,.66,.51,1.09,1.24,1.29,2.17h-2.55c-.21-.6-.63-.9-1.25-.9-.44,0-.79,.17-1.05,.51-.26,.34-.39,.83-.39,1.46s.13,1.12,.39,1.46c.26,.34,.61,.51,1.05,.51,.62,0,1.03-.3,1.25-.9Z"/><path class="cls-6" d="M321.68,256.03c.3-.61,.72-1.07,1.24-1.4,.52-.33,1.11-.49,1.75-.49,.55,0,1.03,.11,1.45,.34s.74,.52,.96,.88v-1.11h2.39v7.81h-2.39v-1.11c-.23,.36-.56,.66-.97,.88-.42,.22-.9,.34-1.45,.34-.63,0-1.21-.17-1.74-.5s-.94-.8-1.24-1.41c-.3-.61-.46-1.32-.46-2.12s.15-1.51,.46-2.11Zm3.09-4.51c.21,0,.38,.03,.54,.09,.15,.06,.34,.15,.57,.27,.17,.09,.3,.16,.41,.2,.1,.04,.21,.06,.32,.06,.34,0,.54-.21,.6-.63h1.23c-.22,1.38-.87,2.07-1.93,2.07-.21,0-.38-.03-.54-.09-.15-.06-.34-.15-.57-.27-.17-.09-.3-.16-.41-.2s-.21-.06-.32-.06c-.34,0-.55,.21-.62,.63h-1.22c.22-1.38,.87-2.07,1.93-2.07Zm1.81,5.22c-.33-.34-.73-.52-1.21-.52s-.88,.17-1.21,.51c-.33,.34-.5,.81-.5,1.41s.17,1.07,.5,1.42c.33,.35,.73,.53,1.21,.53s.88-.17,1.21-.52c.33-.34,.5-.82,.5-1.41s-.17-1.07-.5-1.41Z"/><path class="cls-6" d="M332.7,261.69c-.61-.33-1.09-.79-1.44-1.4-.35-.61-.53-1.32-.53-2.13s.18-1.51,.53-2.12,.84-1.08,1.46-1.41c.62-.33,1.31-.49,2.07-.49s1.46,.16,2.07,.49c.62,.33,1.1,.79,1.46,1.41,.36,.61,.53,1.32,.53,2.12s-.18,1.51-.54,2.12c-.36,.61-.85,1.08-1.47,1.41s-1.31,.49-2.08,.49-1.45-.16-2.07-.49Zm3.23-2.09c.32-.34,.48-.82,.48-1.44s-.16-1.11-.47-1.44-.7-.5-1.15-.5-.85,.17-1.16,.5c-.31,.33-.46,.81-.46,1.45s.15,1.11,.46,1.44,.68,.5,1.14,.5,.85-.17,1.17-.5Z"/><path class="cls-6" d="M269.72,278.63c-.53-.23-.95-.55-1.26-.96-.31-.41-.48-.86-.52-1.36h2.37c.03,.27,.15,.49,.38,.66s.5,.25,.83,.25c.3,0,.53-.06,.69-.17,.16-.12,.25-.27,.25-.46,0-.22-.12-.39-.35-.5-.23-.11-.61-.23-1.13-.36-.56-.13-1.03-.27-1.4-.41s-.7-.37-.97-.69c-.27-.31-.41-.73-.41-1.27,0-.45,.12-.86,.37-1.22,.25-.37,.61-.66,1.09-.88,.48-.21,1.05-.32,1.71-.32,.98,0,1.75,.24,2.32,.73s.89,1.13,.97,1.93h-2.21c-.04-.27-.16-.49-.36-.64-.2-.16-.46-.24-.79-.24-.28,0-.5,.05-.64,.16-.15,.11-.22,.25-.22,.44,0,.22,.12,.39,.36,.5,.24,.11,.61,.22,1.11,.34,.58,.15,1.05,.3,1.41,.44,.36,.14,.68,.38,.96,.7,.28,.32,.42,.75,.43,1.3,0,.46-.13,.87-.38,1.22-.26,.36-.63,.64-1.11,.85-.48,.21-1.04,.31-1.67,.31-.68,0-1.29-.12-1.82-.35Z"/><path class="cls-6" d="M277.66,278.49c-.61-.33-1.09-.79-1.44-1.4-.35-.61-.52-1.32-.52-2.13s.18-1.51,.53-2.12c.36-.61,.84-1.08,1.46-1.41,.62-.33,1.31-.49,2.07-.49s1.46,.16,2.07,.49c.62,.33,1.1,.79,1.46,1.41,.35,.61,.53,1.32,.53,2.12s-.18,1.51-.54,2.12-.85,1.08-1.47,1.41-1.31,.49-2.08,.49-1.45-.16-2.06-.49Zm3.23-2.09c.32-.34,.48-.82,.48-1.44s-.16-1.11-.47-1.44c-.31-.34-.7-.5-1.16-.5s-.85,.17-1.16,.5c-.31,.33-.46,.81-.46,1.45s.15,1.11,.46,1.44c.3,.34,.68,.5,1.14,.5s.85-.17,1.17-.5Z"/><path class="cls-6" d="M285.11,272.83c.33-.61,.79-1.07,1.39-1.4,.59-.33,1.27-.49,2.04-.49,.98,0,1.8,.26,2.46,.77,.66,.51,1.09,1.24,1.29,2.17h-2.55c-.21-.6-.63-.9-1.25-.9-.44,0-.79,.17-1.05,.51-.26,.34-.39,.83-.39,1.46s.13,1.12,.39,1.46c.26,.34,.61,.51,1.05,.51,.62,0,1.03-.3,1.25-.9h2.55c-.21,.92-.64,1.63-1.3,2.16-.66,.52-1.48,.78-2.45,.78-.77,0-1.45-.16-2.04-.49-.59-.33-1.05-.79-1.39-1.4-.33-.61-.5-1.32-.5-2.13s.17-1.52,.5-2.13Z"/><path class="cls-6" d="M293.73,269.87c-.27-.25-.4-.55-.4-.92s.13-.68,.4-.93,.61-.37,1.03-.37,.75,.12,1.02,.37,.4,.56,.4,.93-.13,.67-.4,.92-.6,.37-1.02,.37-.76-.12-1.03-.37Zm2.22,1.18v7.81h-2.39v-7.81h2.39Z"/><path class="cls-6" d="M297.67,272.83c.3-.61,.71-1.07,1.24-1.4,.52-.33,1.11-.49,1.75-.49,.55,0,1.03,.11,1.45,.34,.42,.22,.73,.52,.96,.88v-1.11h2.39v7.81h-2.39v-1.11c-.23,.36-.56,.66-.97,.88-.42,.22-.9,.34-1.45,.34-.63,0-1.21-.17-1.74-.5-.52-.33-.94-.8-1.24-1.41-.3-.61-.46-1.32-.46-2.12s.15-1.51,.46-2.11Zm4.9,.71c-.33-.34-.74-.52-1.21-.52s-.88,.17-1.21,.51-.5,.81-.5,1.41,.17,1.07,.5,1.42,.74,.53,1.21,.53,.88-.17,1.21-.52c.33-.34,.5-.82,.5-1.41s-.17-1.07-.5-1.41Z"/><path class="cls-6" d="M309.59,268.51v10.36h-2.39v-10.36h2.39Z"/><path class="cls-6" d="M321.61,275.53h-5.42c.04,.49,.19,.86,.47,1.11,.27,.26,.61,.38,1.01,.38,.6,0,1.01-.25,1.25-.76h2.55c-.13,.51-.37,.98-.71,1.39-.34,.41-.77,.73-1.28,.97-.51,.23-1.09,.35-1.72,.35-.77,0-1.45-.16-2.04-.49s-1.06-.79-1.4-1.4c-.34-.61-.5-1.32-.5-2.13s.17-1.52,.5-2.13c.33-.61,.8-1.07,1.39-1.4,.6-.33,1.28-.49,2.06-.49s1.43,.16,2.02,.48,1.05,.77,1.38,1.36c.33,.59,.5,1.27,.5,2.06,0,.22-.01,.46-.04,.7Zm-2.41-1.33c0-.41-.14-.74-.42-.98-.28-.24-.63-.36-1.05-.36s-.74,.12-1.02,.35-.45,.57-.51,.99h3Z"/><path class="cls-6" d="M258.97,288.14c.42-.25,.89-.37,1.4-.37v2.53h-.66c-.6,0-1.05,.13-1.34,.39s-.45,.71-.45,1.35v3.63h-2.39v-7.81h2.39v1.3c.28-.43,.63-.77,1.05-1.02Z"/><path class="cls-6" d="M268.84,292.33h-5.42c.04,.49,.19,.86,.47,1.11s.61,.38,1.01,.38c.6,0,1.01-.25,1.25-.76h2.55c-.13,.51-.37,.98-.71,1.39-.34,.41-.77,.73-1.28,.97-.51,.23-1.09,.35-1.72,.35-.76,0-1.45-.16-2.04-.49s-1.06-.79-1.4-1.4c-.34-.61-.5-1.32-.5-2.13s.17-1.52,.5-2.13c.33-.61,.79-1.07,1.39-1.4,.6-.33,1.28-.49,2.06-.49s1.43,.16,2.02,.48,1.05,.77,1.38,1.36c.33,.59,.5,1.27,.5,2.06,0,.22-.01,.46-.04,.7Zm-2.41-1.33c0-.41-.14-.74-.42-.98-.28-.24-.63-.36-1.05-.36s-.74,.12-1.01,.35-.45,.57-.51,.99h3Z"/><path class="cls-6" d="M271.5,295.43c-.53-.23-.95-.55-1.26-.96-.31-.41-.48-.86-.52-1.36h2.37c.03,.27,.15,.49,.38,.66,.22,.17,.5,.25,.83,.25,.3,0,.53-.06,.69-.17,.16-.12,.25-.27,.25-.46,0-.22-.12-.39-.35-.5-.23-.11-.61-.23-1.13-.36-.56-.13-1.03-.27-1.4-.41s-.7-.37-.97-.69c-.27-.31-.41-.73-.41-1.27,0-.45,.12-.86,.37-1.22,.25-.37,.61-.66,1.09-.88,.48-.21,1.05-.32,1.71-.32,.98,0,1.75,.24,2.32,.73s.89,1.13,.97,1.93h-2.21c-.04-.27-.16-.49-.36-.64-.2-.16-.46-.24-.79-.24-.28,0-.5,.05-.64,.16-.15,.11-.22,.25-.22,.44,0,.22,.12,.39,.36,.5s.61,.22,1.11,.34c.58,.15,1.05,.3,1.41,.44,.36,.14,.68,.38,.96,.7,.28,.32,.42,.75,.43,1.3,0,.46-.13,.87-.38,1.22s-.63,.64-1.11,.85-1.04,.31-1.67,.31c-.68,0-1.29-.12-1.82-.35Z"/><path class="cls-6" d="M278.13,286.67c-.27-.25-.4-.55-.4-.92s.13-.68,.4-.93c.27-.25,.61-.37,1.03-.37s.75,.12,1.01,.37c.27,.25,.4,.56,.4,.93s-.13,.67-.4,.92c-.27,.25-.6,.37-1.01,.37s-.76-.12-1.03-.37Zm2.22,1.18v7.81h-2.39v-7.81h2.39Z"/><path class="cls-6" d="M283.44,295.43c-.53-.23-.95-.55-1.26-.96-.31-.41-.48-.86-.52-1.36h2.37c.03,.27,.15,.49,.38,.66s.5,.25,.83,.25c.3,0,.53-.06,.69-.17,.16-.12,.25-.27,.25-.46,0-.22-.12-.39-.35-.5-.23-.11-.61-.23-1.13-.36-.56-.13-1.03-.27-1.4-.41s-.7-.37-.97-.69c-.27-.31-.41-.73-.41-1.27,0-.45,.12-.86,.37-1.22,.25-.37,.61-.66,1.09-.88,.48-.21,1.05-.32,1.71-.32,.98,0,1.75,.24,2.32,.73s.89,1.13,.97,1.93h-2.21c-.04-.27-.16-.49-.36-.64-.2-.16-.46-.24-.79-.24-.28,0-.5,.05-.64,.16-.15,.11-.22,.25-.22,.44,0,.22,.12,.39,.36,.5,.24,.11,.61,.22,1.11,.34,.58,.15,1.05,.3,1.41,.44,.36,.14,.68,.38,.96,.7,.28,.32,.42,.75,.43,1.3,0,.46-.13,.87-.38,1.22-.26,.36-.63,.64-1.11,.85-.48,.21-1.04,.31-1.67,.31-.68,0-1.29-.12-1.82-.35Z"/><path class="cls-6" d="M294.25,293.64v2.03h-1.22c-.87,0-1.54-.21-2.03-.64-.49-.42-.73-1.12-.73-2.08v-3.11h-.95v-1.99h.95v-1.9h2.39v1.9h1.57v1.99h-1.57v3.14c0,.23,.05,.4,.17,.5,.11,.1,.3,.15,.56,.15h.85Z"/><path class="cls-6" d="M302.9,292.33h-5.42c.04,.49,.19,.86,.47,1.11,.27,.26,.61,.38,1.01,.38,.6,0,1.01-.25,1.25-.76h2.55c-.13,.51-.37,.98-.71,1.39-.34,.41-.77,.73-1.28,.97-.51,.23-1.09,.35-1.72,.35-.76,0-1.45-.16-2.04-.49-.6-.33-1.06-.79-1.4-1.4-.34-.61-.5-1.32-.5-2.13s.17-1.52,.5-2.13c.33-.61,.8-1.07,1.39-1.4,.6-.33,1.28-.49,2.06-.49s1.43,.16,2.02,.48,1.05,.77,1.38,1.36,.5,1.27,.5,2.06c0,.22-.01,.46-.04,.7Zm-3.88-6.22l-2.17,1.15v-1.65l2.17-1.11,2.17,1.11v1.65l-2.17-1.15Zm1.47,4.89c0-.41-.14-.74-.42-.98-.28-.24-.63-.36-1.05-.36s-.74,.12-1.02,.35-.45,.57-.51,.99h3Z"/><path class="cls-6" d="M311.16,288.66c.55,.59,.82,1.41,.82,2.44v4.56h-2.38v-4.24c0-.52-.14-.93-.41-1.22-.27-.29-.63-.43-1.09-.43s-.82,.14-1.09,.43c-.27,.29-.41,.7-.41,1.22v4.24h-2.39v-7.81h2.39v1.04c.24-.34,.57-.62,.98-.82,.41-.2,.87-.3,1.38-.3,.92,0,1.65,.3,2.19,.89Z"/><path class="cls-6" d="M313.66,289.63c.33-.61,.79-1.07,1.39-1.4,.59-.33,1.27-.49,2.04-.49,.98,0,1.8,.26,2.46,.77,.66,.51,1.09,1.24,1.29,2.17h-2.55c-.21-.6-.63-.9-1.25-.9-.44,0-.79,.17-1.05,.51-.26,.34-.39,.83-.39,1.46s.13,1.12,.39,1.46c.26,.34,.61,.51,1.05,.51,.62,0,1.03-.3,1.25-.9h2.55c-.21,.92-.64,1.63-1.3,2.16-.66,.52-1.48,.78-2.45,.78-.77,0-1.45-.16-2.04-.49-.59-.33-1.05-.79-1.39-1.4-.33-.61-.5-1.32-.5-2.13s.17-1.52,.5-2.13Z"/><path class="cls-6" d="M322.29,286.67c-.27-.25-.4-.55-.4-.92s.13-.68,.4-.93,.61-.37,1.03-.37,.75,.12,1.02,.37,.4,.56,.4,.93-.13,.67-.4,.92-.6,.37-1.02,.37-.76-.12-1.03-.37Zm2.22,1.18v7.81h-2.39v-7.81h2.39Z"/><path class="cls-6" d="M326.22,289.63c.3-.61,.71-1.07,1.24-1.4,.52-.33,1.11-.49,1.75-.49,.55,0,1.03,.11,1.45,.34,.42,.22,.73,.52,.96,.88v-1.11h2.39v7.81h-2.39v-1.11c-.23,.36-.56,.66-.97,.88-.42,.22-.9,.34-1.45,.34-.63,0-1.21-.17-1.74-.5-.52-.33-.94-.8-1.24-1.41-.3-.61-.46-1.32-.46-2.12s.15-1.51,.46-2.11Zm4.9,.71c-.33-.34-.74-.52-1.21-.52s-.88,.17-1.21,.51-.5,.81-.5,1.41,.17,1.07,.5,1.42,.74,.53,1.21,.53,.88-.17,1.21-.52c.33-.34,.5-.82,.5-1.41s-.17-1.07-.5-1.41Z"/><path class="cls-6" d="M268.53,304.88c.41-.22,.89-.34,1.44-.34,.64,0,1.23,.16,1.75,.49,.52,.33,.94,.79,1.24,1.4,.3,.61,.45,1.31,.45,2.11s-.15,1.51-.45,2.12-.72,1.08-1.24,1.41c-.52,.33-1.11,.5-1.75,.5-.54,0-1.02-.11-1.44-.34-.41-.22-.74-.51-.97-.87v4.82h-2.39v-11.54h2.39v1.11c.23-.36,.56-.66,.97-.88Zm1.95,2.26c-.33-.34-.74-.51-1.23-.51s-.88,.17-1.21,.52c-.33,.35-.5,.82-.5,1.41s.17,1.07,.5,1.41c.33,.35,.74,.52,1.21,.52s.88-.18,1.22-.53,.5-.82,.5-1.42-.17-1.07-.5-1.41Z"/><path class="cls-6" d="M276.16,312.09c-.61-.33-1.09-.79-1.44-1.4-.35-.61-.52-1.32-.52-2.13s.18-1.51,.53-2.12c.36-.61,.84-1.08,1.46-1.41,.62-.33,1.31-.49,2.07-.49s1.46,.16,2.07,.49c.62,.33,1.1,.79,1.46,1.41,.35,.61,.53,1.32,.53,2.12s-.18,1.51-.54,2.12-.85,1.08-1.47,1.41-1.31,.49-2.08,.49-1.45-.16-2.06-.49Zm3.23-2.09c.32-.34,.48-.82,.48-1.44s-.16-1.11-.47-1.44c-.31-.34-.7-.5-1.16-.5s-.85,.17-1.16,.5c-.31,.33-.46,.81-.46,1.45s.15,1.11,.46,1.44c.3,.34,.68,.5,1.14,.5s.85-.17,1.17-.5Z"/><path class="cls-6" d="M286.95,304.88c.41-.22,.89-.34,1.44-.34,.64,0,1.23,.16,1.75,.49,.52,.33,.94,.79,1.24,1.4,.3,.61,.45,1.31,.45,2.11s-.15,1.51-.45,2.12-.72,1.08-1.24,1.41c-.52,.33-1.11,.5-1.75,.5-.54,0-1.02-.11-1.44-.34-.41-.22-.74-.51-.97-.87v4.82h-2.39v-11.54h2.39v1.11c.23-.36,.56-.66,.97-.88Zm1.95,2.26c-.33-.34-.74-.51-1.23-.51s-.88,.17-1.21,.52c-.33,.35-.5,.82-.5,1.41s.17,1.07,.5,1.41c.33,.35,.74,.52,1.21,.52s.88-.18,1.22-.53,.5-.82,.5-1.42-.17-1.07-.5-1.41Z"/><path class="cls-6" d="M300.81,304.66v7.81h-2.39v-1.06c-.24,.35-.57,.62-.99,.83-.42,.21-.88,.32-1.38,.32-.6,0-1.12-.13-1.58-.4-.46-.27-.81-.65-1.06-1.15s-.38-1.1-.38-1.78v-4.56h2.38v4.24c0,.52,.13,.93,.41,1.22,.27,.29,.63,.43,1.09,.43s.84-.14,1.11-.43c.27-.29,.41-.7,.41-1.22v-4.24h2.39Z"/><path class="cls-6" d="M304.93,302.11v10.36h-2.39v-10.36h2.39Z"/><path class="cls-6" d="M306.64,306.43c.3-.61,.72-1.07,1.24-1.4,.52-.33,1.11-.49,1.75-.49,.55,0,1.03,.11,1.45,.34,.41,.22,.73,.52,.96,.88v-1.11h2.39v7.81h-2.39v-1.11c-.23,.36-.56,.66-.97,.88-.42,.22-.9,.34-1.45,.34-.63,0-1.21-.17-1.74-.5-.52-.33-.94-.8-1.24-1.41s-.46-1.32-.46-2.12,.15-1.51,.46-2.11Zm4.9,.71c-.33-.34-.73-.52-1.21-.52s-.88,.17-1.21,.51c-.33,.34-.5,.81-.5,1.41s.17,1.07,.5,1.42c.33,.35,.74,.53,1.21,.53s.88-.17,1.21-.52c.33-.34,.5-.82,.5-1.41s-.17-1.07-.5-1.41Z"/><path class="cls-6" d="M319.61,304.94c.42-.25,.89-.37,1.4-.37v2.53h-.66c-.6,0-1.05,.13-1.34,.39s-.45,.71-.45,1.35v3.63h-2.39v-7.81h2.39v1.3c.28-.43,.63-.77,1.05-1.02Z"/><path class="cls-6" d="M322.25,312.21c-.27-.25-.4-.55-.4-.92s.13-.69,.4-.94,.61-.38,1.03-.38,.75,.13,1.02,.38,.4,.57,.4,.94-.13,.67-.4,.92-.6,.37-1.02,.37-.76-.12-1.03-.37Z"/></g></svg>