<?xml version="1.0" encoding="UTF-8"?><svg id="Flag" xmlns="http://www.w3.org/2000/svg" xmlns:xlink="http://www.w3.org/1999/xlink" viewBox="0 0 435.5 247.7"><defs><style>.cls-1,.cls-2{fill:#fff;}.cls-3{fill:#ec1c24;}.cls-3,.cls-2{fill-rule:evenodd;}.cls-4{filter:url(#drop-shadow-1);}</style><filter id="drop-shadow-1" filterUnits="userSpaceOnUse"><feOffset dx="7" dy="7"/><feGaussianBlur result="blur" stdDeviation="5"/><feFlood flood-color="#000" flood-opacity=".15"/><feComposite in2="blur" operator="in"/><feComposite in="SourceGraphic"/></filter></defs><g class="cls-4"><g><g><polygon class="cls-3" points="9.13 13.77 9.13 233.93 113.44 233.93 113.44 13.77 9.13 13.77 9.13 13.77"/><polygon class="cls-2" points="113.44 13.77 113.44 233.93 322.06 233.93 322.06 13.77 113.44 13.77 113.44 13.77"/><polygon class="cls-3" points="426.37 13.77 322.06 13.77 322.06 233.93 426.37 233.93 426.37 13.77 426.37 13.77"/></g><path class="cls-3" d="M217.75,192.69h2.48l-.8-32.16,2.28-1.92c10.3,1.2,19.53,2.28,29.82,3.51l-2.61-8.79c-.42-1.55,.17-3.23,1.34-4.17l29.91-24.87-6.2-2.99c-2.72-1-1.95-2.56-.98-6.33l4.56-17-17.36,3.74c-1.7,.26-2.83-.84-3.08-1.89l-2.25-8-13.74,15.75c-1.95,2.52-5.9,2.52-4.67-3.31l5.87-31.9-7.87,4.18c-2.22,1.26-4.42,1.46-5.67-.79l-11.05-20.76-11.05,20.75c-1.23,2.25-3.45,2.05-5.65,.79l-7.87-4.18,5.87,31.89c1.22,5.84-2.73,5.84-4.69,3.32l-13.74-15.75-2.23,8c-.27,1.04-1.37,2.15-3.08,1.89l-17.37-3.74,4.56,16.99c.98,3.77,1.75,5.34-.97,6.34l-6.21,2.98,29.91,24.86c1.19,.94,1.79,2.63,1.37,4.17l-2.62,8.79c10.29-1.23,19.51-2.31,29.82-3.51l2.28,1.92-.79,32.16h2.46Z"/></g><g><path class="cls-1" d="M198.47,126.64h-3.14l-.5,1.49h-2.15l3.05-8.42h2.38l3.05,8.42h-2.17l-.5-1.49Zm-.53-1.58l-1.04-3.08-1.03,3.08h2.08Z"/><path class="cls-1" d="M205.8,126.39v1.74h-1.04c-.74,0-1.32-.18-1.74-.55s-.62-.96-.62-1.78v-2.66h-.82v-1.7h.82v-1.63h2.05v1.63h1.34v1.7h-1.34v2.69c0,.2,.05,.34,.14,.43,.1,.09,.26,.13,.48,.13h.73Z"/><path class="cls-1" d="M213.21,125.27h-4.64c.03,.42,.17,.73,.4,.95,.24,.22,.53,.33,.87,.33,.51,0,.87-.22,1.07-.65h2.18c-.11,.44-.31,.84-.61,1.19-.29,.35-.66,.63-1.1,.83-.44,.2-.93,.3-1.48,.3-.66,0-1.24-.14-1.75-.42-.51-.28-.91-.68-1.2-1.2-.29-.52-.43-1.13-.43-1.82s.14-1.3,.43-1.82c.28-.52,.68-.92,1.19-1.2,.51-.28,1.1-.42,1.76-.42s1.22,.14,1.73,.41,.9,.66,1.18,1.16c.28,.5,.43,1.09,.43,1.76,0,.19-.01,.39-.04,.6Zm-2.06-1.14c0-.35-.12-.63-.36-.84-.24-.21-.54-.31-.9-.31s-.63,.1-.87,.3-.38,.48-.44,.85h2.57Z"/><path class="cls-1" d="M220.29,122.12c.47,.51,.7,1.21,.7,2.09v3.91h-2.04v-3.64c0-.45-.12-.8-.35-1.04s-.54-.37-.94-.37-.7,.12-.94,.37c-.23,.25-.35,.6-.35,1.04v3.64h-2.05v-6.7h2.05v.89c.21-.3,.49-.53,.84-.7,.35-.17,.75-.26,1.19-.26,.78,0,1.41,.25,1.88,.76Z"/><path class="cls-1" d="M226.4,125.71h2.18c-.15,.68-.46,1.24-.91,1.67-.46,.43-1.02,.7-1.7,.8v.44c.42,0,.78,.11,1.09,.34,.31,.23,.47,.57,.47,1.03s-.16,.8-.49,1.04c-.33,.24-.72,.35-1.18,.35h-1.85v-1.13h1.57c.16,0,.28-.02,.36-.07s.12-.13,.12-.24-.04-.19-.12-.23-.2-.07-.36-.07h-.85v-1.46c-.82-.13-1.48-.49-1.98-1.1-.5-.6-.74-1.37-.74-2.3,0-.7,.14-1.3,.43-1.82,.28-.52,.68-.92,1.19-1.2,.51-.28,1.09-.42,1.75-.42,.84,0,1.54,.22,2.11,.66,.56,.44,.93,1.06,1.11,1.86h-2.18c-.18-.51-.54-.77-1.07-.77-.38,0-.68,.15-.9,.44s-.34,.71-.34,1.25,.11,.96,.34,1.25,.52,.44,.9,.44c.53,0,.88-.26,1.07-.77Z"/><path class="cls-1" d="M229.66,122.96c.26-.52,.61-.92,1.06-1.2,.45-.28,.95-.42,1.5-.42,.47,0,.89,.1,1.24,.29s.63,.44,.82,.76v-.95h2.05v6.7h-2.05v-.95c-.2,.31-.48,.56-.83,.76-.36,.19-.77,.29-1.24,.29-.54,0-1.04-.14-1.49-.43-.45-.28-.8-.69-1.06-1.21-.26-.52-.39-1.13-.39-1.82s.13-1.29,.39-1.81Zm2.65-3.86c.18,0,.33,.03,.46,.08,.13,.05,.29,.13,.49,.23,.14,.08,.26,.14,.35,.17,.09,.04,.18,.05,.28,.05,.3,0,.47-.18,.52-.54h1.06c-.19,1.18-.74,1.78-1.66,1.78-.18,0-.33-.03-.46-.08-.13-.05-.29-.13-.49-.23-.14-.08-.26-.14-.35-.17-.09-.04-.18-.05-.28-.05-.3,0-.47,.18-.53,.54h-1.04c.19-1.18,.74-1.78,1.66-1.78Zm1.55,4.48c-.29-.3-.63-.44-1.04-.44s-.75,.15-1.04,.44c-.28,.29-.43,.69-.43,1.21s.14,.92,.43,1.22c.28,.3,.63,.45,1.04,.45s.75-.15,1.04-.44c.28-.3,.43-.7,.43-1.21s-.14-.92-.43-1.21Z"/><path class="cls-1" d="M239.1,127.81c-.52-.28-.94-.68-1.24-1.2-.3-.52-.45-1.13-.45-1.82s.15-1.29,.46-1.82,.72-.93,1.25-1.21c.53-.28,1.12-.42,1.78-.42s1.25,.14,1.78,.42c.53,.28,.94,.68,1.25,1.21s.46,1.13,.46,1.82-.15,1.29-.46,1.82c-.31,.52-.73,.93-1.26,1.21-.53,.28-1.13,.42-1.78,.42s-1.25-.14-1.77-.42Zm2.77-1.79c.28-.29,.41-.7,.41-1.24s-.13-.95-.4-1.24c-.27-.29-.6-.43-.99-.43s-.73,.14-1,.43c-.26,.28-.4,.7-.4,1.24s.13,.95,.39,1.24c.26,.29,.59,.43,.98,.43s.73-.14,1-.43Z"/><path class="cls-1" d="M191.86,134.11v8.42h-2.05v-8.42h2.05Z"/><path class="cls-1" d="M199.31,136.52c.47,.51,.7,1.21,.7,2.09v3.91h-2.04v-3.64c0-.45-.12-.8-.35-1.04-.23-.25-.54-.37-.94-.37s-.7,.12-.94,.37c-.23,.25-.35,.6-.35,1.04v3.64h-2.05v-6.7h2.05v.89c.21-.3,.49-.53,.84-.7,.35-.17,.75-.26,1.19-.26,.78,0,1.41,.25,1.88,.76Z"/><path class="cls-1" d="M205.17,140.79v1.74h-1.04c-.74,0-1.32-.18-1.74-.55s-.62-.96-.62-1.78v-2.66h-.82v-1.7h.82v-1.63h2.05v1.63h1.34v1.7h-1.34v2.69c0,.2,.05,.34,.14,.43,.1,.09,.26,.13,.48,.13h.73Z"/><path class="cls-1" d="M212.58,139.67h-4.64c.03,.42,.17,.73,.4,.95,.24,.22,.53,.33,.87,.33,.51,0,.87-.22,1.07-.65h2.18c-.11,.44-.31,.84-.61,1.19-.29,.35-.66,.63-1.1,.83-.44,.2-.93,.3-1.48,.3-.66,0-1.24-.14-1.75-.42-.51-.28-.91-.68-1.2-1.2-.29-.52-.43-1.13-.43-1.82s.14-1.3,.43-1.82c.28-.52,.68-.92,1.19-1.2s1.1-.42,1.76-.42,1.22,.14,1.73,.41c.5,.27,.9,.66,1.18,1.16s.43,1.09,.43,1.76c0,.19-.01,.39-.04,.6Zm-2.06-1.14c0-.35-.12-.63-.36-.84-.24-.21-.54-.31-.9-.31s-.63,.1-.87,.3-.38,.48-.44,.85h2.57Z"/><path class="cls-1" d="M217.49,136.03c.36,.19,.63,.44,.82,.76v-.95h2.05v6.68c0,.62-.12,1.17-.37,1.67s-.62,.9-1.12,1.19c-.5,.3-1.12,.44-1.87,.44-.99,0-1.8-.23-2.41-.7-.62-.47-.97-1.1-1.06-1.9h2.03c.06,.26,.22,.46,.46,.61,.24,.15,.54,.22,.89,.22,.42,0,.76-.12,1.01-.37s.38-.63,.38-1.17v-.95c-.2,.31-.48,.57-.83,.76-.35,.2-.76,.29-1.24,.29-.55,0-1.05-.14-1.5-.43s-.8-.69-1.06-1.21c-.26-.52-.39-1.13-.39-1.82s.13-1.29,.39-1.81c.26-.52,.61-.92,1.06-1.2s.95-.42,1.5-.42c.47,0,.89,.1,1.24,.29Zm.4,1.94c-.28-.3-.63-.44-1.04-.44s-.75,.15-1.04,.44c-.28,.29-.43,.69-.43,1.21s.14,.92,.43,1.22c.28,.3,.63,.45,1.04,.45s.75-.15,1.04-.44c.28-.3,.43-.7,.43-1.21s-.14-.92-.43-1.21Z"/><path class="cls-1" d="M224.8,136.08c.36-.21,.76-.32,1.2-.32v2.17h-.56c-.51,0-.9,.11-1.15,.33-.26,.22-.38,.61-.38,1.16v3.11h-2.05v-6.7h2.05v1.12c.24-.37,.54-.66,.9-.87Z"/><path class="cls-1" d="M226.97,137.36c.26-.52,.61-.92,1.06-1.2s.95-.42,1.5-.42c.47,0,.89,.1,1.24,.29,.36,.19,.63,.44,.82,.76v-.95h2.05v6.7h-2.05v-.95c-.2,.31-.48,.56-.83,.76-.36,.19-.77,.29-1.24,.29-.54,0-1.04-.14-1.49-.43s-.8-.69-1.06-1.21c-.26-.52-.39-1.13-.39-1.82s.13-1.29,.39-1.81Zm4.2,.61c-.28-.3-.63-.44-1.04-.44s-.75,.15-1.04,.44c-.28,.29-.43,.69-.43,1.21s.14,.92,.43,1.22c.28,.3,.63,.45,1.04,.45s.75-.15,1.04-.44c.28-.3,.43-.7,.43-1.21s-.14-.92-.43-1.21Z"/><path class="cls-1" d="M235.11,137.36c.26-.52,.61-.92,1.06-1.2s.95-.42,1.5-.42c.44,0,.84,.09,1.21,.28,.36,.18,.65,.43,.86,.74v-3.11h2.05v8.88h-2.05v-.96c-.19,.32-.47,.58-.82,.77-.36,.19-.77,.29-1.24,.29-.55,0-1.05-.14-1.5-.43s-.8-.69-1.06-1.21c-.26-.52-.39-1.13-.39-1.82s.13-1.29,.39-1.81Zm4.2,.61c-.28-.3-.63-.44-1.04-.44s-.75,.15-1.04,.44c-.28,.29-.43,.69-.43,1.21s.14,.92,.43,1.22c.28,.3,.63,.45,1.04,.45s.75-.15,1.04-.44,.43-.7,.43-1.21-.14-.92-.43-1.21Z"/><path class="cls-1" d="M243.26,137.36c.26-.52,.61-.92,1.06-1.2s.95-.42,1.5-.42c.47,0,.89,.1,1.24,.29,.36,.19,.63,.44,.82,.76v-.95h2.05v6.7h-2.05v-.95c-.2,.31-.48,.56-.83,.76-.36,.19-.77,.29-1.24,.29-.54,0-1.04-.14-1.49-.43s-.8-.69-1.06-1.21c-.26-.52-.39-1.13-.39-1.82s.13-1.29,.39-1.81Zm4.2,.61c-.28-.3-.63-.44-1.04-.44s-.75,.15-1.04,.44c-.28,.29-.43,.69-.43,1.21s.14,.92,.43,1.22c.28,.3,.63,.45,1.04,.45s.75-.15,1.04-.44,.43-.7,.43-1.21-.14-.92-.43-1.21Z"/></g></g></svg>