<svg xmlns="http://www.w3.org/2000/svg" xmlns:xlink="http://www.w3.org/1999/xlink" width="322" height="315.771" viewBox="0 0 322 315.771">
  <defs>
    <clipPath id="clip-path">
      <rect id="Retângulo_1030" data-name="Retângulo 1030" width="322" height="315.771" transform="translate(35)" fill="none"/>
    </clipPath>
    <clipPath id="clip-path-2">
      <rect id="Retângulo_1024" data-name="Retângulo 1024" width="315.721" height="315.771" fill="#6aaac6"/>
    </clipPath>
    <clipPath id="clip-path-3">
      <rect id="Retângulo_1023" data-name="Retângulo 1023" width="315.721" height="285.324" fill="#6aaac6"/>
    </clipPath>
    <clipPath id="clip-path-4">
      <rect id="Retângulo_1025" data-name="Retângulo 1025" width="315.721" height="315.771" fill="none"/>
    </clipPath>
  </defs>
  <g id="img-slide-18" transform="translate(-49.337 -45)">
    <g id="Grupo_1361" data-name="Grupo 1361" transform="translate(14.337 45)" clip-path="url(#clip-path)">
      <g id="Grupo_1350" data-name="Grupo 1350" transform="translate(38.588 19.734)">
        <g id="Grupo_1349" data-name="Grupo 1349" clip-path="url(#clip-path-2)">
          <path id="Caminho_1532" data-name="Caminho 1532" d="M289.637,210.767s35.036-39.37,23.9-107.883-68.343-93.751-106.3-80.562-46.5,36.133-77.506,49.264S39.854,75.692,10.407,119.779s8.143,117.137,56,162.943,170.022,17.123,223.23-71.954" transform="translate(0 -5.956)" fill="#6aaac6"/>
          <g id="Grupo_1348" data-name="Grupo 1348" transform="translate(0 12.995)" opacity="0.7">
            <g id="Grupo_1347" data-name="Grupo 1347">
              <g id="Grupo_1346" data-name="Grupo 1346" clip-path="url(#clip-path-3)">
                <path id="Caminho_1533" data-name="Caminho 1533" d="M289.637,210.767s35.036-39.37,23.9-107.883-68.343-93.751-106.3-80.562-46.5,36.133-77.506,49.264S39.854,75.692,10.407,119.779s8.143,117.137,56,162.943,170.022,17.123,223.23-71.954" transform="translate(0 -18.952)" fill="#6aaac6"/>
              </g>
            </g>
          </g>
        </g>
      </g>
      <g id="Grupo_1352" data-name="Grupo 1352" transform="translate(3.606)">
        <g id="Grupo_1351" data-name="Grupo 1351" clip-path="url(#clip-path-4)">
          <line id="Linha_62" data-name="Linha 62" x2="274.386" transform="translate(31.939 315.428)" fill="none" stroke="#263238" stroke-miterlimit="10" stroke-width="1"/>
        </g>
      </g>
      <g id="Grupo_1354" data-name="Grupo 1354" transform="translate(3.606)">
        <g id="Grupo_1353" data-name="Grupo 1353" clip-path="url(#clip-path-4)">
          <line id="Linha_63" data-name="Linha 63" x2="10.889" y2="104.084" transform="translate(74.515 211.211)" fill="none" stroke="#263238" stroke-miterlimit="10" stroke-width="2"/>
        </g>
      </g>
      <line id="Linha_64" data-name="Linha 64" x1="4.84" y1="5.113" transform="translate(82.237 288.826)" fill="none" stroke="#263238" stroke-miterlimit="10" stroke-width="2"/>
      <g id="Grupo_1356" data-name="Grupo 1356" transform="translate(3.606)">
        <g id="Grupo_1355" data-name="Grupo 1355" clip-path="url(#clip-path-4)">
          <path id="Caminho_1534" data-name="Caminho 1534" d="M112.061,420.441a5.481,5.481,0,0,0-1.927-4.106c-1.242-1.109-7.781-3.86-8.4-1.557-.675,2.5,6.018,7.423,10.328,5.663" transform="translate(-31.96 -130.083)" fill="#92e3a9"/>
          <path id="Caminho_1535" data-name="Caminho 1535" d="M112.061,420.441a5.481,5.481,0,0,0-1.927-4.106c-1.242-1.109-7.781-3.86-8.4-1.557C101.059,417.283,107.751,422.2,112.061,420.441Z" transform="translate(-31.96 -130.083)" fill="none" stroke="#263238" stroke-miterlimit="10" stroke-width="1"/>
          <line id="Linha_65" data-name="Linha 65" x1="6.225" y1="3.879" transform="translate(73.877 286.479)" fill="none" stroke="#263238" stroke-miterlimit="10" stroke-width="0.5"/>
          <line id="Linha_66" data-name="Linha 66" x1="4.84" y1="5.113" transform="translate(79.845 300.461)" fill="none" stroke="#263238" stroke-miterlimit="10" stroke-width="2"/>
          <path id="Caminho_1536" data-name="Caminho 1536" d="M113.832,437.409a5.481,5.481,0,0,0-1.927-4.106c-1.242-1.109-7.781-3.86-8.4-1.557-.675,2.5,6.018,7.424,10.328,5.663" transform="translate(-32.516 -135.416)" fill="#92e3a9"/>
          <path id="Caminho_1537" data-name="Caminho 1537" d="M113.832,437.409a5.481,5.481,0,0,0-1.927-4.106c-1.242-1.109-7.781-3.86-8.4-1.557C102.83,434.251,109.522,439.17,113.832,437.409Z" transform="translate(-32.516 -135.416)" fill="none" stroke="#263238" stroke-miterlimit="10" stroke-width="1"/>
          <line id="Linha_67" data-name="Linha 67" x1="6.225" y1="3.879" transform="translate(75.091 298.114)" fill="none" stroke="#263238" stroke-miterlimit="10" stroke-width="0.5"/>
          <line id="Linha_68" data-name="Linha 68" x1="4.84" y1="5.113" transform="translate(75.668 260.434)" fill="none" stroke="#263238" stroke-miterlimit="10" stroke-width="2"/>
          <path id="Caminho_1538" data-name="Caminho 1538" d="M107.74,379.035a5.482,5.482,0,0,0-1.926-4.106c-1.242-1.109-7.781-3.86-8.4-1.557-.675,2.5,6.018,7.423,10.328,5.663" transform="translate(-30.602 -117.07)" fill="#92e3a9"/>
          <path id="Caminho_1539" data-name="Caminho 1539" d="M107.74,379.035a5.482,5.482,0,0,0-1.926-4.106c-1.242-1.109-7.781-3.86-8.4-1.557C96.738,375.877,103.43,380.8,107.74,379.035Z" transform="translate(-30.602 -117.07)" fill="none" stroke="#263238" stroke-miterlimit="10" stroke-width="1"/>
          <line id="Linha_69" data-name="Linha 69" x1="6.225" y1="3.879" transform="translate(70.914 258.087)" fill="none" stroke="#263238" stroke-miterlimit="10" stroke-width="0.5"/>
          <line id="Linha_70" data-name="Linha 70" x1="4.84" y1="5.112" transform="translate(76.882 272.069)" fill="none" stroke="#263238" stroke-miterlimit="10" stroke-width="2"/>
          <path id="Caminho_1540" data-name="Caminho 1540" d="M109.511,396a5.481,5.481,0,0,0-1.926-4.105c-1.242-1.11-7.781-3.86-8.4-1.558-.675,2.5,6.018,7.424,10.328,5.663" transform="translate(-31.158 -122.403)" fill="#92e3a9"/>
          <path id="Caminho_1541" data-name="Caminho 1541" d="M109.511,396a5.481,5.481,0,0,0-1.926-4.105c-1.242-1.11-7.781-3.86-8.4-1.558C98.509,392.845,105.2,397.763,109.511,396Z" transform="translate(-31.158 -122.403)" fill="none" stroke="#263238" stroke-miterlimit="10" stroke-width="1"/>
          <line id="Linha_71" data-name="Linha 71" x1="6.225" y1="3.879" transform="translate(72.128 269.722)" fill="none" stroke="#263238" stroke-miterlimit="10" stroke-width="0.5"/>
          <line id="Linha_72" data-name="Linha 72" x1="4.84" y1="5.113" transform="translate(73.695 241.533)" fill="none" stroke="#263238" stroke-miterlimit="10" stroke-width="2"/>
          <path id="Caminho_1542" data-name="Caminho 1542" d="M104.863,351.471a5.479,5.479,0,0,0-1.927-4.105c-1.242-1.11-7.781-3.86-8.4-1.558-.675,2.5,6.018,7.424,10.328,5.663" transform="translate(-29.697 -108.406)" fill="#92e3a9"/>
          <path id="Caminho_1543" data-name="Caminho 1543" d="M104.863,351.471a5.479,5.479,0,0,0-1.927-4.105c-1.242-1.11-7.781-3.86-8.4-1.558C93.861,348.313,100.553,353.232,104.863,351.471Z" transform="translate(-29.697 -108.406)" fill="none" stroke="#263238" stroke-miterlimit="10" stroke-width="1"/>
          <line id="Linha_73" data-name="Linha 73" x1="6.225" y1="3.879" transform="translate(68.941 239.186)" fill="none" stroke="#263238" stroke-miterlimit="10" stroke-width="0.5"/>
          <line id="Linha_74" data-name="Linha 74" x1="4.84" y1="5.113" transform="translate(71.714 222.55)" fill="none" stroke="#263238" stroke-miterlimit="10" stroke-width="2"/>
          <path id="Caminho_1544" data-name="Caminho 1544" d="M101.974,323.787a5.481,5.481,0,0,0-1.926-4.105c-1.243-1.109-7.781-3.86-8.4-1.557-.675,2.5,6.018,7.423,10.328,5.663" transform="translate(-28.789 -99.706)" fill="#92e3a9"/>
          <path id="Caminho_1545" data-name="Caminho 1545" d="M101.974,323.787a5.481,5.481,0,0,0-1.926-4.105c-1.243-1.109-7.781-3.86-8.4-1.557C90.972,320.63,97.664,325.548,101.974,323.787Z" transform="translate(-28.789 -99.706)" fill="none" stroke="#263238" stroke-miterlimit="10" stroke-width="1"/>
          <line id="Linha_75" data-name="Linha 75" x1="6.225" y1="3.879" transform="translate(66.96 220.203)" fill="none" stroke="#263238" stroke-miterlimit="10" stroke-width="0.5"/>
          <line id="Linha_76" data-name="Linha 76" y1="6.001" x2="3.68" transform="translate(82.658 281.053)" fill="none" stroke="#263238" stroke-miterlimit="10" stroke-width="2"/>
          <path id="Caminho_1546" data-name="Caminho 1546" d="M124.225,408.709a5.479,5.479,0,0,1,1.037-4.415c.986-1.342,6.816-5.383,7.9-3.259,1.177,2.312-4.355,8.506-8.936,7.674" transform="translate(-39.01 -125.854)" fill="#92e3a9"/>
          <path id="Caminho_1547" data-name="Caminho 1547" d="M124.225,408.709a5.479,5.479,0,0,1,1.037-4.415c.986-1.342,6.816-5.383,7.9-3.259C134.339,403.347,128.807,409.541,124.225,408.709Z" transform="translate(-39.01 -125.854)" fill="none" stroke="#263238" stroke-miterlimit="10" stroke-width="1"/>
          <line id="Linha_77" data-name="Linha 77" y1="5.357" x2="5.605" transform="translate(85.216 277.497)" fill="none" stroke="#263238" stroke-miterlimit="10" stroke-width="0.5"/>
          <line id="Linha_78" data-name="Linha 78" y1="6.001" x2="3.68" transform="translate(79.462 250.435)" fill="none" stroke="#263238" stroke-miterlimit="10" stroke-width="2"/>
          <path id="Caminho_1548" data-name="Caminho 1548" d="M119.565,364.057a5.48,5.48,0,0,1,1.037-4.415c.986-1.342,6.816-5.383,7.9-3.258,1.177,2.312-4.355,8.506-8.936,7.674" transform="translate(-37.545 -111.82)" fill="#92e3a9"/>
          <path id="Caminho_1549" data-name="Caminho 1549" d="M119.565,364.057a5.48,5.48,0,0,1,1.037-4.415c.986-1.342,6.816-5.383,7.9-3.258C129.679,358.695,124.147,364.889,119.565,364.057Z" transform="translate(-37.545 -111.82)" fill="none" stroke="#263238" stroke-miterlimit="10" stroke-width="1"/>
          <line id="Linha_79" data-name="Linha 79" y1="5.357" x2="5.605" transform="translate(82.02 246.879)" fill="none" stroke="#263238" stroke-miterlimit="10" stroke-width="0.5"/>
          <line id="Linha_80" data-name="Linha 80" y1="6.001" x2="3.68" transform="translate(78.058 236.979)" fill="none" stroke="#263238" stroke-miterlimit="10" stroke-width="2"/>
          <path id="Caminho_1550" data-name="Caminho 1550" d="M117.518,344.434a5.483,5.483,0,0,1,1.037-4.415c.986-1.342,6.816-5.383,7.9-3.258,1.177,2.312-4.355,8.506-8.936,7.674" transform="translate(-36.902 -105.653)" fill="#92e3a9"/>
          <path id="Caminho_1551" data-name="Caminho 1551" d="M117.518,344.434a5.483,5.483,0,0,1,1.037-4.415c.986-1.342,6.816-5.383,7.9-3.258C127.631,339.072,122.1,345.266,117.518,344.434Z" transform="translate(-36.902 -105.653)" fill="none" stroke="#263238" stroke-miterlimit="10" stroke-width="1"/>
          <line id="Linha_81" data-name="Linha 81" y1="5.357" x2="5.605" transform="translate(80.616 233.424)" fill="none" stroke="#263238" stroke-miterlimit="10" stroke-width="0.5"/>
          <line id="Linha_82" data-name="Linha 82" y1="6.001" x2="3.68" transform="translate(76 217.253)" fill="none" stroke="#263238" stroke-miterlimit="10" stroke-width="2"/>
          <path id="Caminho_1552" data-name="Caminho 1552" d="M114.515,315.667a5.48,5.48,0,0,1,1.037-4.415c.986-1.342,6.816-5.383,7.9-3.258,1.177,2.311-4.355,8.506-8.936,7.674" transform="translate(-35.958 -96.611)" fill="#92e3a9"/>
          <path id="Caminho_1553" data-name="Caminho 1553" d="M114.515,315.667a5.48,5.48,0,0,1,1.037-4.415c.986-1.342,6.816-5.383,7.9-3.258C124.629,310.3,119.1,316.5,114.515,315.667Z" transform="translate(-35.958 -96.611)" fill="none" stroke="#263238" stroke-miterlimit="10" stroke-width="1"/>
          <line id="Linha_83" data-name="Linha 83" y1="5.357" x2="5.605" transform="translate(78.557 213.698)" fill="none" stroke="#263238" stroke-miterlimit="10" stroke-width="0.5"/>
          <path id="Caminho_1554" data-name="Caminho 1554" d="M108.49,303.4a5.483,5.483,0,0,1,1.037-4.415c.986-1.342,6.816-5.383,7.9-3.258,1.177,2.311-4.356,8.506-8.936,7.674" transform="translate(-34.064 -92.755)" fill="#92e3a9"/>
          <path id="Caminho_1555" data-name="Caminho 1555" d="M108.49,303.4a5.483,5.483,0,0,1,1.037-4.415c.986-1.342,6.816-5.383,7.9-3.258C118.6,298.036,113.07,304.23,108.49,303.4Z" transform="translate(-34.064 -92.755)" fill="none" stroke="#263238" stroke-miterlimit="10" stroke-width="1"/>
          <line id="Linha_84" data-name="Linha 84" y1="5.357" x2="5.605" transform="translate(74.425 205.285)" fill="none" stroke="#263238" stroke-miterlimit="10" stroke-width="0.5"/>
          <path id="Caminho_1556" data-name="Caminho 1556" d="M105.607,303.045a5.479,5.479,0,0,1-4.282-1.495c-1.232-1.122-4.639-7.343-2.412-8.2,2.422-.928,8,5.224,6.694,9.692" transform="translate(-30.856 -92.171)" fill="#92e3a9"/>
          <path id="Caminho_1557" data-name="Caminho 1557" d="M105.607,303.045a5.479,5.479,0,0,1-4.282-1.495c-1.232-1.122-4.639-7.343-2.412-8.2C101.335,292.425,106.915,298.577,105.607,303.045Z" transform="translate(-30.856 -92.171)" fill="none" stroke="#263238" stroke-miterlimit="10" stroke-width="1"/>
          <line id="Linha_85" data-name="Linha 85" x1="4.74" y1="6.136" transform="translate(70.01 204.737)" fill="none" stroke="#263238" stroke-miterlimit="10" stroke-width="0.5"/>
          <line id="Linha_86" data-name="Linha 86" x1="9.005" y2="89.994" transform="translate(93.671 225.3)" fill="none" stroke="#263238" stroke-miterlimit="10" stroke-width="2"/>
          <line id="Linha_87" data-name="Linha 87" x1="3.684" y1="5.999" transform="translate(90.723 302.1)" fill="none" stroke="#263238" stroke-miterlimit="10" stroke-width="2"/>
          <path id="Caminho_1558" data-name="Caminho 1558" d="M129.774,439.4a5.481,5.481,0,0,0-1.04-4.415c-.987-1.341-6.82-5.379-7.9-3.254-1.177,2.312,4.36,8.5,8.94,7.668" transform="translate(-37.927 -135.503)" fill="#92e3a9"/>
          <path id="Caminho_1559" data-name="Caminho 1559" d="M129.774,439.4a5.481,5.481,0,0,0-1.04-4.415c-.987-1.341-6.82-5.379-7.9-3.254C119.657,434.048,125.193,440.239,129.774,439.4Z" transform="translate(-37.927 -135.503)" fill="none" stroke="#263238" stroke-miterlimit="10" stroke-width="1"/>
          <line id="Linha_88" data-name="Linha 88" x1="5.292" y1="5.078" transform="translate(86.554 298.824)" fill="none" stroke="#263238" stroke-miterlimit="10" stroke-width="0.5"/>
          <line id="Linha_89" data-name="Linha 89" x1="3.684" y1="5.999" transform="translate(93.669 273.706)" fill="none" stroke="#263238" stroke-miterlimit="10" stroke-width="2"/>
          <path id="Caminho_1560" data-name="Caminho 1560" d="M134.07,398a5.481,5.481,0,0,0-1.04-4.415c-.987-1.341-6.82-5.379-7.9-3.254-1.176,2.312,4.36,8.5,8.941,7.668" transform="translate(-39.278 -122.489)" fill="#92e3a9"/>
          <path id="Caminho_1561" data-name="Caminho 1561" d="M134.07,398a5.481,5.481,0,0,0-1.04-4.415c-.987-1.341-6.82-5.379-7.9-3.254C123.954,392.64,129.49,398.831,134.07,398Z" transform="translate(-39.278 -122.489)" fill="none" stroke="#263238" stroke-miterlimit="10" stroke-width="1"/>
          <line id="Linha_90" data-name="Linha 90" x1="5.293" y1="5.078" transform="translate(89.5 270.43)" fill="none" stroke="#263238" stroke-miterlimit="10" stroke-width="0.5"/>
          <line id="Linha_91" data-name="Linha 91" x1="3.684" y1="5.999" transform="translate(92.462 285.342)" fill="none" stroke="#263238" stroke-miterlimit="10" stroke-width="2"/>
          <path id="Caminho_1562" data-name="Caminho 1562" d="M132.309,414.965a5.481,5.481,0,0,0-1.04-4.415c-.987-1.341-6.82-5.379-7.9-3.254-1.176,2.312,4.36,8.5,8.941,7.668" transform="translate(-38.724 -127.822)" fill="#92e3a9"/>
          <path id="Caminho_1563" data-name="Caminho 1563" d="M132.309,414.965a5.481,5.481,0,0,0-1.04-4.415c-.987-1.341-6.82-5.379-7.9-3.254C122.193,409.609,127.729,415.8,132.309,414.965Z" transform="translate(-38.724 -127.822)" fill="none" stroke="#263238" stroke-miterlimit="10" stroke-width="1"/>
          <line id="Linha_92" data-name="Linha 92" x1="5.293" y1="5.078" transform="translate(88.292 282.066)" fill="none" stroke="#263238" stroke-miterlimit="10" stroke-width="0.5"/>
          <line id="Linha_93" data-name="Linha 93" x1="3.684" y1="5.999" transform="translate(95.631 254.805)" fill="none" stroke="#263238" stroke-miterlimit="10" stroke-width="2"/>
          <path id="Caminho_1564" data-name="Caminho 1564" d="M136.93,370.431a5.481,5.481,0,0,0-1.04-4.415c-.987-1.341-6.82-5.379-7.9-3.254-1.176,2.312,4.36,8.5,8.941,7.668" transform="translate(-40.177 -113.825)" fill="#92e3a9"/>
          <path id="Caminho_1565" data-name="Caminho 1565" d="M136.93,370.431a5.481,5.481,0,0,0-1.04-4.415c-.987-1.341-6.82-5.379-7.9-3.254C126.814,365.075,132.35,371.266,136.93,370.431Z" transform="translate(-40.177 -113.825)" fill="none" stroke="#263238" stroke-miterlimit="10" stroke-width="1"/>
          <line id="Linha_94" data-name="Linha 94" x1="5.293" y1="5.078" transform="translate(91.461 251.528)" fill="none" stroke="#263238" stroke-miterlimit="10" stroke-width="0.5"/>
          <line id="Linha_95" data-name="Linha 95" x1="3.684" y1="5.999" transform="translate(97.6 235.82)" fill="none" stroke="#263238" stroke-miterlimit="10" stroke-width="2"/>
          <path id="Caminho_1566" data-name="Caminho 1566" d="M139.8,342.745a5.481,5.481,0,0,0-1.04-4.415c-.987-1.341-6.82-5.379-7.9-3.254-1.176,2.312,4.36,8.5,8.941,7.668" transform="translate(-41.08 -105.123)" fill="#92e3a9"/>
          <path id="Caminho_1567" data-name="Caminho 1567" d="M139.8,342.745a5.481,5.481,0,0,0-1.04-4.415c-.987-1.341-6.82-5.379-7.9-3.254C129.687,337.389,135.223,343.58,139.8,342.745Z" transform="translate(-41.08 -105.123)" fill="none" stroke="#263238" stroke-miterlimit="10" stroke-width="1"/>
          <line id="Linha_96" data-name="Linha 96" x1="5.293" y1="5.078" transform="translate(93.431 232.544)" fill="none" stroke="#263238" stroke-miterlimit="10" stroke-width="0.5"/>
          <line id="Linha_97" data-name="Linha 97" y1="5.115" x2="4.837" transform="translate(95.028 296.079)" fill="none" stroke="#263238" stroke-miterlimit="10" stroke-width="2"/>
          <path id="Caminho_1568" data-name="Caminho 1568" d="M143.5,431.019a5.48,5.48,0,0,1,1.924-4.107c1.242-1.11,7.779-3.865,8.4-1.563.676,2.5-6.014,7.428-10.325,5.669" transform="translate(-45.1 -133.406)" fill="#92e3a9"/>
          <path id="Caminho_1569" data-name="Caminho 1569" d="M143.5,431.019a5.48,5.48,0,0,1,1.924-4.107c1.242-1.11,7.779-3.865,8.4-1.563C154.5,427.854,147.806,432.777,143.5,431.019Z" transform="translate(-45.1 -133.406)" fill="none" stroke="#263238" stroke-miterlimit="10" stroke-width="1"/>
          <line id="Linha_98" data-name="Linha 98" y1="4.088" x2="6.588" transform="translate(98.395 293.524)" fill="none" stroke="#263238" stroke-miterlimit="10" stroke-width="0.5"/>
          <line id="Linha_99" data-name="Linha 99" y1="5.115" x2="4.837" transform="translate(98.205 265.459)" fill="none" stroke="#263238" stroke-miterlimit="10" stroke-width="2"/>
          <path id="Caminho_1570" data-name="Caminho 1570" d="M148.129,386.364a5.477,5.477,0,0,1,1.924-4.107c1.241-1.111,7.778-3.865,8.4-1.563.677,2.5-6.014,7.427-10.324,5.669" transform="translate(-46.556 -119.371)" fill="#92e3a9"/>
          <path id="Caminho_1571" data-name="Caminho 1571" d="M148.129,386.364a5.477,5.477,0,0,1,1.924-4.107c1.241-1.111,7.778-3.865,8.4-1.563C159.13,383.2,152.439,388.122,148.129,386.364Z" transform="translate(-46.556 -119.371)" fill="none" stroke="#263238" stroke-miterlimit="10" stroke-width="1"/>
          <line id="Linha_100" data-name="Linha 100" y1="4.089" x2="6.588" transform="translate(101.573 262.903)" fill="none" stroke="#263238" stroke-miterlimit="10" stroke-width="0.5"/>
          <line id="Linha_101" data-name="Linha 101" y1="5.115" x2="4.837" transform="translate(99.601 252.003)" fill="none" stroke="#263238" stroke-miterlimit="10" stroke-width="2"/>
          <path id="Caminho_1572" data-name="Caminho 1572" d="M150.165,366.739a5.481,5.481,0,0,1,1.924-4.107c1.242-1.109,7.779-3.865,8.4-1.562.676,2.5-6.014,7.427-10.325,5.669" transform="translate(-47.196 -113.203)" fill="#92e3a9"/>
          <path id="Caminho_1573" data-name="Caminho 1573" d="M150.165,366.739a5.481,5.481,0,0,1,1.924-4.107c1.242-1.109,7.779-3.865,8.4-1.562C161.166,363.575,154.476,368.5,150.165,366.739Z" transform="translate(-47.196 -113.203)" fill="none" stroke="#263238" stroke-miterlimit="10" stroke-width="1"/>
          <line id="Linha_102" data-name="Linha 102" y1="4.088" x2="6.588" transform="translate(102.969 249.448)" fill="none" stroke="#263238" stroke-miterlimit="10" stroke-width="0.5"/>
          <line id="Linha_103" data-name="Linha 103" y1="5.115" x2="4.837" transform="translate(101.649 232.276)" fill="none" stroke="#263238" stroke-miterlimit="10" stroke-width="2"/>
          <path id="Caminho_1574" data-name="Caminho 1574" d="M153.15,337.97a5.48,5.48,0,0,1,1.924-4.107c1.242-1.11,7.779-3.865,8.4-1.563.676,2.5-6.014,7.428-10.325,5.669" transform="translate(-48.134 -104.161)" fill="#92e3a9"/>
          <path id="Caminho_1575" data-name="Caminho 1575" d="M153.15,337.97a5.48,5.48,0,0,1,1.924-4.107c1.242-1.11,7.779-3.865,8.4-1.563C164.151,334.805,157.461,339.728,153.15,337.97Z" transform="translate(-48.134 -104.161)" fill="none" stroke="#263238" stroke-miterlimit="10" stroke-width="1"/>
          <line id="Linha_104" data-name="Linha 104" y1="4.088" x2="6.588" transform="translate(105.016 229.721)" fill="none" stroke="#263238" stroke-miterlimit="10" stroke-width="0.5"/>
          <path id="Caminho_1576" data-name="Caminho 1576" d="M149.78,324.724a5.48,5.48,0,0,1,1.924-4.107c1.242-1.11,7.779-3.865,8.4-1.563.676,2.5-6.014,7.427-10.325,5.669" transform="translate(-47.075 -99.998)" fill="#92e3a9"/>
          <path id="Caminho_1577" data-name="Caminho 1577" d="M149.78,324.724a5.48,5.48,0,0,1,1.924-4.107c1.242-1.11,7.779-3.865,8.4-1.563C160.781,321.558,154.091,326.482,149.78,324.724Z" transform="translate(-47.075 -99.998)" fill="none" stroke="#263238" stroke-miterlimit="10" stroke-width="1"/>
          <line id="Linha_105" data-name="Linha 105" y1="4.088" x2="6.588" transform="translate(102.705 220.637)" fill="none" stroke="#263238" stroke-miterlimit="10" stroke-width="0.5"/>
          <path id="Caminho_1578" data-name="Caminho 1578" d="M147.588,323.171a5.48,5.48,0,0,1-3.882-2.344c-.974-1.351-3.028-8.141-.673-8.518,2.561-.41,6.756,6.759,4.555,10.862" transform="translate(-44.613 -98.153)" fill="#92e3a9"/>
          <path id="Caminho_1579" data-name="Caminho 1579" d="M147.588,323.171a5.48,5.48,0,0,1-3.882-2.344c-.974-1.351-3.028-8.141-.673-8.518C145.594,311.9,149.788,319.068,147.588,323.171Z" transform="translate(-44.613 -98.153)" fill="none" stroke="#263238" stroke-miterlimit="10" stroke-width="1"/>
          <line id="Linha_106" data-name="Linha 106" x1="3.375" y1="6.98" transform="translate(99.6 218.038)" fill="none" stroke="#263238" stroke-miterlimit="10" stroke-width="0.5"/>
          <line id="Linha_107" data-name="Linha 107" x1="0.666" y2="131.81" transform="translate(89.844 183.638)" fill="none" stroke="#263238" stroke-miterlimit="10" stroke-width="2"/>
          <line id="Linha_108" data-name="Linha 108" x1="4.284" y1="5.587" transform="translate(86.329 287.978)" fill="none" stroke="#263238" stroke-miterlimit="10" stroke-width="2"/>
          <path id="Caminho_1580" data-name="Caminho 1580" d="M123.318,419.009a5.482,5.482,0,0,0-1.49-4.284c-1.12-1.232-7.338-4.647-8.194-2.421-.931,2.421,5.215,8.008,9.684,6.7" transform="translate(-35.685 -129.355)" fill="#92e3a9"/>
          <path id="Caminho_1581" data-name="Caminho 1581" d="M123.318,419.009a5.482,5.482,0,0,0-1.49-4.284c-1.12-1.232-7.338-4.647-8.194-2.421C112.7,414.726,118.848,420.313,123.318,419.009Z" transform="translate(-35.685 -129.355)" fill="none" stroke="#263238" stroke-miterlimit="10" stroke-width="1"/>
          <line id="Linha_109" data-name="Linha 109" x1="5.789" y1="4.504" transform="translate(81.844 285.15)" fill="none" stroke="#263238" stroke-miterlimit="10" stroke-width="0.5"/>
          <line id="Linha_110" data-name="Linha 110" x1="4.284" y1="5.587" transform="translate(86.329 263.664)" fill="none" stroke="#263238" stroke-miterlimit="10" stroke-width="2"/>
          <path id="Caminho_1582" data-name="Caminho 1582" d="M123.318,383.551a5.482,5.482,0,0,0-1.49-4.284c-1.12-1.232-7.338-4.647-8.194-2.421-.931,2.421,5.215,8.008,9.684,6.7" transform="translate(-35.685 -118.211)" fill="#92e3a9"/>
          <path id="Caminho_1583" data-name="Caminho 1583" d="M123.318,383.551a5.482,5.482,0,0,0-1.49-4.284c-1.12-1.232-7.338-4.647-8.194-2.421C112.7,379.268,118.848,384.855,123.318,383.551Z" transform="translate(-35.685 -118.211)" fill="none" stroke="#263238" stroke-miterlimit="10" stroke-width="1"/>
          <line id="Linha_111" data-name="Linha 111" x1="5.789" y1="4.504" transform="translate(81.844 260.836)" fill="none" stroke="#263238" stroke-miterlimit="10" stroke-width="0.5"/>
          <line id="Linha_112" data-name="Linha 112" x1="4.284" y1="5.587" transform="translate(86.329 235.118)" fill="none" stroke="#263238" stroke-miterlimit="10" stroke-width="2"/>
          <path id="Caminho_1584" data-name="Caminho 1584" d="M123.318,341.92a5.482,5.482,0,0,0-1.49-4.284c-1.12-1.232-7.338-4.647-8.194-2.421-.931,2.421,5.215,8.008,9.684,6.7" transform="translate(-35.685 -105.126)" fill="#92e3a9"/>
          <path id="Caminho_1585" data-name="Caminho 1585" d="M123.318,341.92a5.482,5.482,0,0,0-1.49-4.284c-1.12-1.232-7.338-4.647-8.194-2.421C112.7,337.637,118.848,343.224,123.318,341.92Z" transform="translate(-35.685 -105.126)" fill="none" stroke="#263238" stroke-miterlimit="10" stroke-width="1"/>
          <line id="Linha_113" data-name="Linha 113" x1="5.789" y1="4.504" transform="translate(81.844 232.29)" fill="none" stroke="#263238" stroke-miterlimit="10" stroke-width="0.5"/>
          <line id="Linha_114" data-name="Linha 114" x1="4.284" y1="5.587" transform="translate(86.329 216.115)" fill="none" stroke="#263238" stroke-miterlimit="10" stroke-width="2"/>
          <path id="Caminho_1586" data-name="Caminho 1586" d="M123.318,314.207a5.482,5.482,0,0,0-1.49-4.284c-1.12-1.232-7.338-4.647-8.194-2.421-.931,2.421,5.215,8.008,9.684,6.7" transform="translate(-35.685 -96.416)" fill="#92e3a9"/>
          <path id="Caminho_1587" data-name="Caminho 1587" d="M123.318,314.207a5.482,5.482,0,0,0-1.49-4.284c-1.12-1.232-7.338-4.647-8.194-2.421C112.7,309.924,118.848,315.511,123.318,314.207Z" transform="translate(-35.685 -96.416)" fill="none" stroke="#263238" stroke-miterlimit="10" stroke-width="1"/>
          <line id="Linha_115" data-name="Linha 115" x1="5.789" y1="4.504" transform="translate(81.844 213.287)" fill="none" stroke="#263238" stroke-miterlimit="10" stroke-width="0.5"/>
          <line id="Linha_116" data-name="Linha 116" x1="4.284" y1="5.587" transform="translate(86.329 197.029)" fill="none" stroke="#263238" stroke-miterlimit="10" stroke-width="2"/>
          <path id="Caminho_1588" data-name="Caminho 1588" d="M123.318,286.372a5.482,5.482,0,0,0-1.49-4.284c-1.12-1.232-7.338-4.647-8.194-2.421-.931,2.421,5.215,8.008,9.684,6.7" transform="translate(-35.685 -87.668)" fill="#92e3a9"/>
          <path id="Caminho_1589" data-name="Caminho 1589" d="M123.318,286.372a5.482,5.482,0,0,0-1.49-4.284c-1.12-1.232-7.338-4.647-8.194-2.421C112.7,282.089,118.848,287.676,123.318,286.372Z" transform="translate(-35.685 -87.668)" fill="none" stroke="#263238" stroke-miterlimit="10" stroke-width="1"/>
          <line id="Linha_117" data-name="Linha 117" x1="5.789" y1="4.504" transform="translate(81.844 194.201)" fill="none" stroke="#263238" stroke-miterlimit="10" stroke-width="0.5"/>
          <line id="Linha_118" data-name="Linha 118" y1="5.587" x2="4.284" transform="translate(90.518 295.403)" fill="none" stroke="#263238" stroke-miterlimit="10" stroke-width="2"/>
          <path id="Caminho_1590" data-name="Caminho 1590" d="M136.339,429.837a5.482,5.482,0,0,1,1.49-4.284c1.12-1.232,7.338-4.647,8.194-2.421.931,2.421-5.215,8.008-9.684,6.7" transform="translate(-42.842 -132.758)" fill="#92e3a9"/>
          <path id="Caminho_1591" data-name="Caminho 1591" d="M136.339,429.837a5.482,5.482,0,0,1,1.49-4.284c1.12-1.232,7.338-4.647,8.194-2.421C146.954,425.554,140.808,431.141,136.339,429.837Z" transform="translate(-42.842 -132.758)" fill="none" stroke="#263238" stroke-miterlimit="10" stroke-width="1"/>
          <line id="Linha_119" data-name="Linha 119" y1="4.746" x2="6.131" transform="translate(93.498 292.333)" fill="none" stroke="#263238" stroke-miterlimit="10" stroke-width="0.5"/>
          <line id="Linha_120" data-name="Linha 120" y1="5.587" x2="4.284" transform="translate(90.518 256.733)" fill="none" stroke="#263238" stroke-miterlimit="10" stroke-width="2"/>
          <path id="Caminho_1592" data-name="Caminho 1592" d="M136.339,373.442a5.482,5.482,0,0,1,1.49-4.284c1.12-1.232,7.338-4.647,8.194-2.421.931,2.421-5.215,8.008-9.684,6.7" transform="translate(-42.842 -115.034)" fill="#92e3a9"/>
          <path id="Caminho_1593" data-name="Caminho 1593" d="M136.339,373.442a5.482,5.482,0,0,1,1.49-4.284c1.12-1.232,7.338-4.647,8.194-2.421C146.954,369.159,140.808,374.746,136.339,373.442Z" transform="translate(-42.842 -115.034)" fill="none" stroke="#263238" stroke-miterlimit="10" stroke-width="1"/>
          <line id="Linha_121" data-name="Linha 121" y1="4.746" x2="6.131" transform="translate(93.498 253.662)" fill="none" stroke="#263238" stroke-miterlimit="10" stroke-width="0.5"/>
          <line id="Linha_122" data-name="Linha 122" y1="5.587" x2="4.284" transform="translate(90.518 237.647)" fill="none" stroke="#263238" stroke-miterlimit="10" stroke-width="2"/>
          <path id="Caminho_1594" data-name="Caminho 1594" d="M136.339,345.608a5.482,5.482,0,0,1,1.49-4.284c1.12-1.232,7.338-4.647,8.194-2.421.931,2.421-5.215,8.008-9.684,6.7" transform="translate(-42.842 -106.285)" fill="#92e3a9"/>
          <path id="Caminho_1595" data-name="Caminho 1595" d="M136.339,345.608a5.482,5.482,0,0,1,1.49-4.284c1.12-1.232,7.338-4.647,8.194-2.421C146.954,341.325,140.808,346.912,136.339,345.608Z" transform="translate(-42.842 -106.285)" fill="none" stroke="#263238" stroke-miterlimit="10" stroke-width="1"/>
          <line id="Linha_123" data-name="Linha 123" y1="4.746" x2="6.131" transform="translate(93.498 234.576)" fill="none" stroke="#263238" stroke-miterlimit="10" stroke-width="0.5"/>
          <line id="Linha_124" data-name="Linha 124" y1="5.587" x2="4.284" transform="translate(90.518 212.42)" fill="none" stroke="#263238" stroke-miterlimit="10" stroke-width="2"/>
          <path id="Caminho_1596" data-name="Caminho 1596" d="M136.339,308.818a5.481,5.481,0,0,1,1.49-4.283c1.12-1.232,7.338-4.647,8.194-2.421.931,2.421-5.215,8.008-9.684,6.7" transform="translate(-42.842 -94.722)" fill="#92e3a9"/>
          <path id="Caminho_1597" data-name="Caminho 1597" d="M136.339,308.818a5.481,5.481,0,0,1,1.49-4.283c1.12-1.232,7.338-4.647,8.194-2.421C146.954,304.535,140.808,310.122,136.339,308.818Z" transform="translate(-42.842 -94.722)" fill="none" stroke="#263238" stroke-miterlimit="10" stroke-width="1"/>
          <line id="Linha_125" data-name="Linha 125" y1="4.746" x2="6.131" transform="translate(93.498 209.349)" fill="none" stroke="#263238" stroke-miterlimit="10" stroke-width="0.5"/>
          <line id="Linha_126" data-name="Linha 126" y1="5.587" x2="4.284" transform="translate(90.518 192.587)" fill="none" stroke="#263238" stroke-miterlimit="10" stroke-width="2"/>
          <path id="Caminho_1598" data-name="Caminho 1598" d="M136.339,279.894a5.482,5.482,0,0,1,1.49-4.284c1.12-1.232,7.338-4.647,8.194-2.421.931,2.421-5.215,8.008-9.684,6.7" transform="translate(-42.842 -85.632)" fill="#92e3a9"/>
          <path id="Caminho_1599" data-name="Caminho 1599" d="M136.339,279.894a5.482,5.482,0,0,1,1.49-4.284c1.12-1.232,7.338-4.647,8.194-2.421C146.954,275.611,140.808,281.2,136.339,279.894Z" transform="translate(-42.842 -85.632)" fill="none" stroke="#263238" stroke-miterlimit="10" stroke-width="1"/>
          <line id="Linha_127" data-name="Linha 127" y1="4.746" x2="6.131" transform="translate(93.498 189.517)" fill="none" stroke="#263238" stroke-miterlimit="10" stroke-width="0.5"/>
          <path id="Caminho_1600" data-name="Caminho 1600" d="M131.62,267.066a5.481,5.481,0,0,1,1.49-4.284c1.12-1.232,7.338-4.647,8.194-2.421.931,2.421-5.215,8.008-9.684,6.7" transform="translate(-41.358 -81.6)" fill="#92e3a9"/>
          <path id="Caminho_1601" data-name="Caminho 1601" d="M131.62,267.066a5.481,5.481,0,0,1,1.49-4.284c1.12-1.232,7.338-4.647,8.194-2.421C142.235,262.783,136.089,268.37,131.62,267.066Z" transform="translate(-41.358 -81.6)" fill="none" stroke="#263238" stroke-miterlimit="10" stroke-width="1"/>
          <line id="Linha_128" data-name="Linha 128" y1="4.746" x2="6.131" transform="translate(90.261 180.72)" fill="none" stroke="#263238" stroke-miterlimit="10" stroke-width="0.5"/>
          <path id="Caminho_1602" data-name="Caminho 1602" d="M129.069,266.1a5.483,5.483,0,0,1-4.1-1.931c-1.108-1.244-3.852-7.785-1.548-8.4,2.506-.672,7.417,6.026,5.652,10.334" transform="translate(-38.509 -80.373)" fill="#92e3a9"/>
          <path id="Caminho_1603" data-name="Caminho 1603" d="M129.069,266.1a5.483,5.483,0,0,1-4.1-1.931c-1.108-1.244-3.852-7.785-1.548-8.4C125.923,255.1,130.834,261.8,129.069,266.1Z" transform="translate(-38.509 -80.373)" fill="none" stroke="#263238" stroke-miterlimit="10" stroke-width="1"/>
          <line id="Linha_129" data-name="Linha 129" x1="4.078" y1="6.595" transform="translate(86.483 179.135)" fill="none" stroke="#263238" stroke-miterlimit="10" stroke-width="0.5"/>
        </g>
      </g>
      <path id="Caminho_1604" data-name="Caminho 1604" d="M241.03,393.381l-5.179,45.686H338.833l-3.965-45.686Z" transform="translate(-70.522 -123.639)" fill="#263238"/>
      <g id="Grupo_1358" data-name="Grupo 1358" transform="translate(3.606)">
        <g id="Grupo_1357" data-name="Grupo 1357" clip-path="url(#clip-path-4)">
          <path id="Caminho_1605" data-name="Caminho 1605" d="M338.834,439.067l-3.965-45.686H241.031l-5.179,45.686Z" transform="translate(-74.128 -123.639)" fill="none" stroke="#263238" stroke-miterlimit="10" stroke-width="1"/>
          <path id="Caminho_1606" data-name="Caminho 1606" d="M275.6,191.429s-27.445,7.538-39.428,16.621S215.876,226.412,217.809,244s14.5,65.713,14.5,65.713-1.74,19.52-1.74,20.68-.193,4.445,4.059,4.638,55.276,2.32,66.678,2.512,26.478-.966,28.218-2.319a8.054,8.054,0,0,0,2.9-5.8c.193-2.319,2.126-30.73,2.126-30.73l.193-12.756s12.563-41.747,13.336-55.276-4.252-17.974-9.857-22.226-23.044-11.451-32.47-14.3-30.15-2.706-30.15-2.706" transform="translate(-68.369 -60.166)" fill="#ffa800"/>
          <path id="Caminho_1607" data-name="Caminho 1607" d="M275.6,191.429s-27.445,7.538-39.428,16.621S215.876,226.412,217.809,244s14.5,65.713,14.5,65.713-1.74,19.52-1.74,20.68-.193,4.445,4.059,4.638,55.276,2.32,66.678,2.512,26.478-.966,28.218-2.319a8.054,8.054,0,0,0,2.9-5.8c.193-2.319,2.126-30.73,2.126-30.73l.193-12.756s12.563-41.747,13.336-55.276-4.252-17.974-9.857-22.226-23.044-11.451-32.47-14.3S275.6,191.429,275.6,191.429Z" transform="translate(-68.369 -60.166)" fill="none" stroke="#263238" stroke-miterlimit="10" stroke-width="1"/>
          <path id="Caminho_1608" data-name="Caminho 1608" d="M309.013,286.024c-1.4,18.825-3.876,53.517-3.656,59.457.3,8.226-3.047,10.663-3.047,13.71" transform="translate(-95.015 -89.897)" fill="none" stroke="#263238" stroke-miterlimit="10" stroke-width="1"/>
          <path id="Caminho_1609" data-name="Caminho 1609" d="M313.131,268.316s-.247,3.206-.625,8.271" transform="translate(-98.22 -84.331)" fill="none" stroke="#263238" stroke-miterlimit="10" stroke-width="1"/>
          <path id="Caminho_1610" data-name="Caminho 1610" d="M331.281,303.583l1.755,20.708,9.828-.7Z" transform="translate(-104.121 -95.415)" fill="#263238"/>
          <path id="Caminho_1611" data-name="Caminho 1611" d="M331.281,303.583l1.755,20.708,9.828-.7Z" transform="translate(-104.121 -95.415)" fill="none" stroke="#263238" stroke-miterlimit="10" stroke-width="1"/>
          <path id="Caminho_1612" data-name="Caminho 1612" d="M317.7,351.943s24.016-3.771,25.8-3.374,14.093,6.352,15.879,6.749a16.63,16.63,0,0,1,3.374,1.191l2.693,2.253-.907-6.818s-3.572-4.367-11.512-7.542-11.909-1.39-13.695-.794-21.635,8.336-21.635,8.336" transform="translate(-99.853 -107.668)" fill="#263238"/>
          <path id="Caminho_1613" data-name="Caminho 1613" d="M317.7,351.943s24.016-3.771,25.8-3.374,14.093,6.352,15.879,6.749a16.63,16.63,0,0,1,3.374,1.191l2.693,2.253-.907-6.818s-3.572-4.367-11.512-7.542-11.909-1.39-13.695-.794S317.7,351.943,317.7,351.943Z" transform="translate(-99.853 -107.668)" fill="none" stroke="#263238" stroke-miterlimit="10" stroke-width="1"/>
          <path id="Caminho_1614" data-name="Caminho 1614" d="M251.035,328.755l62.427-.193s20.1-1.933,20.873-2.126,8.7,1.932,9.47,2.512.773,2.319.387,4.059l-.387,1.74a36.362,36.362,0,0,1,.58,4.445c0,1.353-1.546,1.74-1.74,2.32s1.16,2.706-.387,4.059l-1.546,1.353s-.193,3.672-.966,4.638-3.093,2.706-4.059,2.126-.58-2.126-.58-3.092-.386-1.932-1.546-1.932-1.353.966-7.344-.58-12.563-6.764-13.143-6.958-52.957,13.916-68.418,15.849-16.815-.193-17.395-2.706-1.546-8.5-1.546-8.5l-2.706-11.79Z" transform="translate(-70.092 -102.594)" fill="#fff"/>
          <path id="Caminho_1615" data-name="Caminho 1615" d="M251.035,328.755l62.427-.193s20.1-1.933,20.873-2.126,8.7,1.932,9.47,2.512.773,2.319.387,4.059l-.387,1.74a36.362,36.362,0,0,1,.58,4.445c0,1.353-1.546,1.74-1.74,2.32s1.16,2.706-.387,4.059l-1.546,1.353s-.193,3.672-.966,4.638-3.093,2.706-4.059,2.126-.58-2.126-.58-3.092-.386-1.932-1.546-1.932-1.353.966-7.344-.58-12.563-6.764-13.143-6.958-52.957,13.916-68.418,15.849-16.815-.193-17.395-2.706-1.546-8.5-1.546-8.5l-2.706-11.79Z" transform="translate(-70.092 -102.594)" fill="none" stroke="#263238" stroke-miterlimit="10" stroke-width="1"/>
          <path id="Caminho_1616" data-name="Caminho 1616" d="M313.04,212.417s3.224-3.394,5.261-1.867,3.9,9.673,6.448,8.994,7.636-16.46,7.636-22.739-4.412-10.012-5.43-10.351-26.981-.679-30.036.509-4.242,11.878-5.43,18.327,1.527,7.975,3.224,7.127,8.315-3.564,9.842-3.564,8.485,3.564,8.485,3.564" transform="translate(-91.523 -58.502)" fill="#294667"/>
          <path id="Caminho_1617" data-name="Caminho 1617" d="M313.04,212.417s3.224-3.394,5.261-1.867,3.9,9.673,6.448,8.994,7.636-16.46,7.636-22.739-4.412-10.012-5.43-10.351-26.981-.679-30.036.509-4.242,11.878-5.43,18.327,1.527,7.975,3.224,7.127,8.315-3.564,9.842-3.564S313.04,212.417,313.04,212.417Z" transform="translate(-91.523 -58.502)" fill="none" stroke="#263238" stroke-miterlimit="10" stroke-width="1"/>
          <path id="Caminho_1618" data-name="Caminho 1618" d="M332.544,172.3s-2.432,12.024-3.378,15-7.836,12.024-9.592,13.916-6.891,11.214-8.242,11.484-5.134-12.43-5.134-12.43-4.864-8.377-5.81-10.539a79.627,79.627,0,0,1-2.432-8.512s7.971,6.891,16.483,5.4,12.836-10,12.836-10Z" transform="translate(-93.647 -54.154)" fill="#fff"/>
          <path id="Caminho_1619" data-name="Caminho 1619" d="M332.544,172.3s-2.432,12.024-3.378,15-7.836,12.024-9.592,13.916-6.891,11.214-8.242,11.484-5.134-12.43-5.134-12.43-4.864-8.377-5.81-10.539a79.627,79.627,0,0,1-2.432-8.512s7.971,6.891,16.483,5.4,12.836-10,12.836-10Z" transform="translate(-93.647 -54.154)" fill="none" stroke="#263238" stroke-miterlimit="10" stroke-width="1"/>
          <path id="Caminho_1620" data-name="Caminho 1620" d="M298.4,136.98s-2.376-2.545-3.733,1.358,1.357,10.86,1.357,10.86Z" transform="translate(-92.494 -42.796)" fill="#fff"/>
          <path id="Caminho_1621" data-name="Caminho 1621" d="M298.4,136.98s-2.376-2.545-3.733,1.358,1.357,10.86,1.357,10.86Z" transform="translate(-92.494 -42.796)" fill="none" stroke="#263238" stroke-miterlimit="10" stroke-width="1"/>
          <path id="Caminho_1622" data-name="Caminho 1622" d="M298.953,118.741s-3.918,27.833-3.918,29.454-1.081,7.026.54,10.539,6.485,7.836,10.4,8.377,11.619-.27,15.943-3.648,9.323-10.674,9.323-10.674a45.6,45.6,0,0,0,8.917-2.3c3.513-1.487,6.215-4.864,6.08-8.377a11.762,11.762,0,0,0-2.3-6.215l-2.026-3.783,5.4-10.133s-3.108-5.81-13.105-11.349-18.916-7.3-23.1-7.3-9.457,1.756-10.944,5.134-1.216,10.268-1.216,10.268" transform="translate(-92.618 -32.479)" fill="#fff"/>
          <path id="Caminho_1623" data-name="Caminho 1623" d="M298.953,118.741s-3.918,27.833-3.918,29.454-1.081,7.026.54,10.539,6.485,7.836,10.4,8.377,11.619-.27,15.943-3.648,9.323-10.674,9.323-10.674a45.6,45.6,0,0,0,8.917-2.3c3.513-1.487,6.215-4.864,6.08-8.377a11.762,11.762,0,0,0-2.3-6.215l-2.026-3.783,5.4-10.133s-3.108-5.81-13.105-11.349-18.916-7.3-23.1-7.3-9.457,1.756-10.944,5.134S298.953,118.741,298.953,118.741Z" transform="translate(-92.618 -32.479)" fill="none" stroke="#263238" stroke-miterlimit="10" stroke-width="1"/>
          <path id="Caminho_1624" data-name="Caminho 1624" d="M309.865,97.957s7.7,12.7,13.511,12.16,7.566-3.243,7.566-3.243l3.918,5.27s-4.188,1.756-3.378,3.918,4.459,7.026,4.459,7.026l-2.973,12.7s2.3.405,2.7-.405,2.432-5.809,2.432-5.809a7.112,7.112,0,0,1,1.756-.811,5.209,5.209,0,0,1,2.162,0s1.486-5,2.026-5.134,5.945-1.621,7.971-6.891-1.081-13.646-8.106-20.266-21.888-8.377-22.7-9.593,3.783.54,2.837-2.162S317.161,78.5,309.6,82.285s-6.485,7.971-5.675,9.322l.811,1.352s-6.35-2.162-10.809.54-6.62,8.106-4.594,8.647,4.594-.675,4.594-.675-2.7,4.458-1.892,5.4,5,4.729,5,4.729,1.622-9.458,5-10.809,7.836-2.837,7.836-2.837" transform="translate(-90.695 -25.341)" fill="#263238"/>
          <path id="Caminho_1625" data-name="Caminho 1625" d="M309.865,97.957s7.7,12.7,13.511,12.16,7.566-3.243,7.566-3.243l3.918,5.27s-4.188,1.756-3.378,3.918,4.459,7.026,4.459,7.026l-2.973,12.7s2.3.405,2.7-.405,2.432-5.809,2.432-5.809a7.112,7.112,0,0,1,1.756-.811,5.209,5.209,0,0,1,2.162,0s1.486-5,2.026-5.134,5.945-1.621,7.971-6.891-1.081-13.646-8.106-20.266-21.888-8.377-22.7-9.593,3.783.54,2.837-2.162S317.161,78.5,309.6,82.285s-6.485,7.971-5.675,9.322l.811,1.352s-6.35-2.162-10.809.54-6.62,8.106-4.594,8.647,4.594-.675,4.594-.675-2.7,4.458-1.892,5.4,5,4.729,5,4.729,1.622-9.458,5-10.809S309.865,97.957,309.865,97.957Z" transform="translate(-90.695 -25.341)" fill="none" stroke="#263238" stroke-miterlimit="10" stroke-width="1"/>
          <path id="Caminho_1626" data-name="Caminho 1626" d="M313.482,132.5l1.216,3.918-6.891,12.97,7.3,2.837" transform="translate(-96.743 -41.645)" fill="none" stroke="#263238" stroke-miterlimit="10" stroke-width="1"/>
          <path id="Caminho_1627" data-name="Caminho 1627" d="M310.732,129.414s-3.243-2.567-5.945-1.892-1.081,1.081.811,1.757,5.674,2.432,5.134.135" transform="translate(-95.345 -40.044)" fill="#263238"/>
          <path id="Caminho_1628" data-name="Caminho 1628" d="M310.732,129.414s-3.243-2.567-5.945-1.892-1.081,1.081.811,1.757S311.272,131.711,310.732,129.414Z" transform="translate(-95.345 -40.044)" fill="none" stroke="#263238" stroke-miterlimit="10" stroke-width="1"/>
          <path id="Caminho_1629" data-name="Caminho 1629" d="M327.765,129.125s-3.108.811-1.621,1.486,5.944-.675,7.7,0,4.053,2.973,3.918,1.892a5.451,5.451,0,0,0-3.648-4.053c-2.432-.811-6.35.675-6.35.675" transform="translate(-102.38 -40.295)" fill="#263238"/>
          <path id="Caminho_1630" data-name="Caminho 1630" d="M327.765,129.125s-3.108.811-1.621,1.486,5.944-.675,7.7,0,4.053,2.973,3.918,1.892a5.451,5.451,0,0,0-3.648-4.053C331.684,127.639,327.765,129.125,327.765,129.125Z" transform="translate(-102.38 -40.295)" fill="none" stroke="#263238" stroke-miterlimit="10" stroke-width="1"/>
          <path id="Caminho_1631" data-name="Caminho 1631" d="M310.505,138.14c-.237.979-.9,1.659-1.479,1.519s-.859-1.048-.622-2.027.9-1.659,1.479-1.519.858,1.048.622,2.027" transform="translate(-96.904 -42.774)" fill="#263238"/>
          <path id="Caminho_1632" data-name="Caminho 1632" d="M331.982,143.756c-.237.979-.9,1.659-1.479,1.519s-.859-1.048-.622-2.027.9-1.659,1.479-1.519.858,1.048.622,2.027" transform="translate(-103.655 -44.539)" fill="#263238"/>
          <line id="Linha_130" data-name="Linha 130" x2="5.539" y2="3.648" transform="translate(206.876 112.203)" fill="none" stroke="#263238" stroke-miterlimit="10" stroke-width="1"/>
          <path id="Caminho_1633" data-name="Caminho 1633" d="M375.673,211.443s19.134,7.345,22.806,18.361-.966,24.932-2.9,30.73-13.916,28.411-15.849,33.823-4.832,11.983-4.832,11.983-2.706-16.235-10.05-26.285a52.9,52.9,0,0,1-9.084-19.134S369.1,237.341,372.581,230" transform="translate(-111.817 -66.456)" fill="#ffa800"/>
          <path id="Caminho_1634" data-name="Caminho 1634" d="M375.673,211.443s19.134,7.345,22.806,18.361-.966,24.932-2.9,30.73-13.916,28.411-15.849,33.823-4.832,11.983-4.832,11.983-2.706-16.235-10.05-26.285a52.9,52.9,0,0,1-9.084-19.134S369.1,237.341,372.581,230" transform="translate(-111.817 -66.456)" fill="none" stroke="#263238" stroke-miterlimit="10" stroke-width="1"/>
          <path id="Caminho_1635" data-name="Caminho 1635" d="M358.363,276.984s3.915-1.958,5.22-1.3,18.052,9.57,20.228,19.792a34.643,34.643,0,0,1-3.045,22.619c-1.958,3.7-5.655,10.875-8.482,11.745s-5.22-22.4-11.093-34.581-2.827-18.27-2.827-18.27" transform="translate(-112.385 -86.604)" fill="#294667"/>
          <path id="Caminho_1636" data-name="Caminho 1636" d="M358.363,276.984s3.915-1.958,5.22-1.3,18.052,9.57,20.228,19.792a34.643,34.643,0,0,1-3.045,22.619c-1.958,3.7-5.655,10.875-8.482,11.745s-5.22-22.4-11.093-34.581S358.363,276.984,358.363,276.984Z" transform="translate(-112.385 -86.604)" fill="none" stroke="#263238" stroke-miterlimit="10" stroke-width="1"/>
          <path id="Caminho_1637" data-name="Caminho 1637" d="M368.168,253.8s3.479-11.789,4.832-16.428" transform="translate(-115.715 -74.606)" fill="none" stroke="#263238" stroke-miterlimit="10" stroke-width="1"/>
          <path id="Caminho_1638" data-name="Caminho 1638" d="M306.548,191.037s-5.4-7.566-9.593-12.565-8.512-7.972-10-7.567-2.027,1.892-1.081,3.648,5.4,5.675,6.215,6.756a27.273,27.273,0,0,1,2.027,5s-3.918.27-4.594,1.081a17.707,17.707,0,0,0-1.621,2.973,5.754,5.754,0,0,0-2.027,1.756,4.709,4.709,0,0,0-.81,1.892c-.135.54-2.026,1.486-1.891,3.918s2.432,5.944,3.243,7.566,6.755,8.782,7.836,10,7.3,12.024,8.917,15.672,17.294,45.937,21.888,52.287,13.106,12.43,17.7,14.592,7.836-1.486,10-6.08,4.053-13.781-.136-24.319-12.43-19.591-18.78-25S315.6,223.733,314.25,221.3a62.056,62.056,0,0,1-3.108-7.836s3.513-10.268,3.783-12.7-1.081-6.756-.675-8.647a58.193,58.193,0,0,1,2.7-7.3c.675-1.621,2.973-4.323,1.756-5.539s-6.214.27-7.971,3.108a83.564,83.564,0,0,0-4.188,8.647" transform="translate(-88.999 -53.704)" fill="#fff"/>
          <path id="Caminho_1639" data-name="Caminho 1639" d="M306.548,191.037s-5.4-7.566-9.593-12.565-8.512-7.972-10-7.567-2.027,1.892-1.081,3.648,5.4,5.675,6.215,6.756a27.273,27.273,0,0,1,2.027,5s-3.918.27-4.594,1.081a17.707,17.707,0,0,0-1.621,2.973,5.754,5.754,0,0,0-2.027,1.756,4.709,4.709,0,0,0-.81,1.892c-.135.54-2.026,1.486-1.891,3.918s2.432,5.944,3.243,7.566,6.755,8.782,7.836,10,7.3,12.024,8.917,15.672,17.294,45.937,21.888,52.287,13.106,12.43,17.7,14.592,7.836-1.486,10-6.08,4.053-13.781-.136-24.319-12.43-19.591-18.78-25S315.6,223.733,314.25,221.3a62.056,62.056,0,0,1-3.108-7.836s3.513-10.268,3.783-12.7-1.081-6.756-.675-8.647a58.193,58.193,0,0,1,2.7-7.3c.675-1.621,2.973-4.323,1.756-5.539s-6.214.27-7.971,3.108A83.564,83.564,0,0,0,306.548,191.037Z" transform="translate(-88.999 -53.704)" fill="none" stroke="#263238" stroke-miterlimit="10" stroke-width="1"/>
          <path id="Caminho_1640" data-name="Caminho 1640" d="M256.363,241.288c.409-2.146.709-3.631.709-3.631" transform="translate(-80.574 -74.695)" fill="#92e3a9"/>
          <path id="Caminho_1641" data-name="Caminho 1641" d="M256.363,241.288c.409-2.146.709-3.631.709-3.631" transform="translate(-80.574 -74.695)" fill="none" stroke="#263238" stroke-miterlimit="10" stroke-width="1"/>
          <path id="Caminho_1642" data-name="Caminho 1642" d="M241.866,210.6s-10.244,1.353-20.873,12.756-5.992,38.461-5.025,44.066,2.512,22.806,2.512,22.806l27.251-9.083s-4.445-30.344-4.831-33.049c-.2-1.367.547-6.19,1.33-10.627" transform="translate(-67.301 -66.19)" fill="#ffa800"/>
          <path id="Caminho_1643" data-name="Caminho 1643" d="M241.866,210.6s-10.244,1.353-20.873,12.756-5.992,38.461-5.025,44.066,2.512,22.806,2.512,22.806l27.251-9.083s-4.445-30.344-4.831-33.049c-.2-1.367.547-6.19,1.33-10.627" transform="translate(-67.301 -66.19)" fill="none" stroke="#263238" stroke-miterlimit="10" stroke-width="1"/>
          <path id="Caminho_1644" data-name="Caminho 1644" d="M216.382,315.761s2.706,14.5,4.059,15.269,22.42-5.025,24.739-5.412,3.673.193,3.673-1.74-1.933-11.017-3.093-12.563-26.285,1.74-28.411,2.32-.966,2.126-.966,2.126" transform="translate(-67.909 -97.717)" fill="#294667"/>
          <path id="Caminho_1645" data-name="Caminho 1645" d="M216.382,315.761s2.706,14.5,4.059,15.269,22.42-5.025,24.739-5.412,3.673.193,3.673-1.74-1.933-11.017-3.093-12.563-26.285,1.74-28.411,2.32S216.382,315.761,216.382,315.761Z" transform="translate(-67.909 -97.717)" fill="none" stroke="#263238" stroke-miterlimit="10" stroke-width="1"/>
          <path id="Caminho_1646" data-name="Caminho 1646" d="M239.036,297.924a109.876,109.876,0,0,1,13.943,6.757s-6.571-12.369-9.277-14.882" transform="translate(-75.129 -91.084)" fill="none" stroke="#263238" stroke-miterlimit="10" stroke-width="1"/>
          <path id="Caminho_1647" data-name="Caminho 1647" d="M233.721,299.665c.776.269,1.543.549,2.3.835" transform="translate(-73.458 -94.184)" fill="none" stroke="#263238" stroke-miterlimit="10" stroke-width="1"/>
          <path id="Caminho_1648" data-name="Caminho 1648" d="M326.162,389.335c5-1.782,9.6-3.745,12.376-5.676" transform="translate(-102.512 -120.583)" fill="none" stroke="#263238" stroke-miterlimit="10" stroke-width="1"/>
          <path id="Caminho_1649" data-name="Caminho 1649" d="M291.784,399.261s10.678-2.534,20.812-5.933" transform="translate(-91.707 -123.622)" fill="none" stroke="#263238" stroke-miterlimit="10" stroke-width="1"/>
          <path id="Caminho_1650" data-name="Caminho 1650" d="M347.946,382.488c-5.251,2.617-13.569,6.449-20.365,8.147" transform="translate(-102.958 -120.215)" fill="none" stroke="#263238" stroke-miterlimit="10" stroke-width="1"/>
          <path id="Caminho_1651" data-name="Caminho 1651" d="M363.474,378.586s-1.077.6-2.863,1.517" transform="translate(-113.339 -118.989)" fill="none" stroke="#263238" stroke-miterlimit="10" stroke-width="1"/>
        </g>
      </g>
    </g>
  </g>
</svg>
