<?xml version="1.0" encoding="UTF-8"?><svg id="Character_2" xmlns="http://www.w3.org/2000/svg" viewBox="0 0 500 500"><defs><style>.cls-1{fill:#f0f0f0;}.cls-2,.cls-3,.cls-4,.cls-5,.cls-6,.cls-7,.cls-8,.cls-9{fill:#fff;}.cls-10{fill:#fafafa;}.cls-3{opacity:.9;}.cls-11{stroke-miterlimit:10;stroke-width:.5px;}.cls-11,.cls-12{fill:none;stroke:#263238;}.cls-12{stroke-linecap:round;stroke-linejoin:round;stroke-width:.53px;}.cls-4,.cls-13{opacity:.4;}.cls-14,.cls-9{opacity:.6;}.cls-15{fill:#f5f5f5;}.cls-5,.cls-16{opacity:.3;}.cls-17{fill:#ebb376;}.cls-18,.cls-19,.cls-8{opacity:.2;}.cls-20{fill:#e0e0e0;}.cls-6{opacity:.8;}.cls-7{opacity:.7;}.cls-7,.cls-19,.cls-16{isolation:isolate;}.cls-21{fill:#e6e6e6;}.cls-22{fill:#ebebeb;}.cls-23{fill:#407bff;}.cls-24{fill:#d58745;}.cls-25{fill:#e4897b;}.cls-26{fill:#263238;}</style></defs><g><rect class="cls-22" y="382.4" width="500" height=".25"/><rect class="cls-22" x="50.1" y="398.49" width="33.12" height=".25"/><rect class="cls-22" x="168.78" y="401.21" width="8.69" height=".25"/><rect class="cls-22" x="84.22" y="389.21" width="19.19" height=".25"/><rect class="cls-22" x="404.35" y="390.89" width="43.19" height=".25"/><rect class="cls-22" x="389.11" y="390.89" width="6.33" height=".25"/><rect class="cls-22" x="274.85" y="395.11" width="93.68" height=".25"/><path class="cls-22" d="M262.99,337.8h193.1c3.15,0,5.71-2.56,5.71-5.71V60.66c0-3.15-2.56-5.71-5.71-5.71h-193.1c-3.15,0-5.71,2.56-5.71,5.71V332.09c0,3.15,2.56,5.71,5.71,5.71ZM456.09,55.2c3.01,0,5.46,2.45,5.46,5.46V332.09c0,3.01-2.45,5.46-5.46,5.46h-193.1c-3.01,0-5.46-2.45-5.46-5.46V60.66c0-3.01,2.45-5.46,5.46-5.46h193.1Z"/><path class="cls-22" d="M46.69,337.8H239.79c3.15,0,5.71-2.56,5.71-5.71V60.66c0-3.15-2.56-5.71-5.71-5.71H46.69c-3.15,0-5.71,2.56-5.71,5.71V332.09c0,3.15,2.56,5.71,5.71,5.71ZM239.79,55.2c3.01,0,5.46,2.45,5.46,5.46V332.09c0,3.01-2.45,5.46-5.46,5.46H46.69c-3.01,0-5.46-2.45-5.46-5.46V60.66c0-3.01,2.45-5.46,5.46-5.46H239.79Z"/></g><g><g><g><path class="cls-20" d="M86.18,346.03c-.01-.4-1.34-39.68-7.73-45.89-6.21-6.04-13.35-.22-13.65,.03l-.64-.77c.08-.07,8.13-6.64,14.98,.03,6.68,6.49,7.98,44.94,8.03,46.57l-1,.03Z"/><path class="cls-20" d="M86.73,353.75c-.05-.47-4.37-47.16,12.68-66.72l.75,.66c-16.77,19.24-12.49,65.5-12.44,65.97l-1,.1Z"/><path class="cls-20" d="M86.1,348.82l-1-.07c.04-.53,3.34-53.08-9.17-64.58l.68-.74c12.86,11.83,9.63,63.2,9.49,65.38Z"/><path class="cls-20" d="M87.73,348.79h-1c.01-1.45,.41-35.5,10.08-41.04,2.15-1.23,4.25-1.44,6.26-.61,5.85,2.42,8.75,12.83,8.87,13.27l-.96,.26c-.03-.1-2.89-10.38-8.28-12.61-1.7-.7-3.51-.52-5.38,.55-9.18,5.26-9.58,39.83-9.58,40.18Z"/><path class="cls-20" d="M83.96,348.81l-1-.06c.02-.27,1.46-26.9-5.73-36.29-1.74-2.27-3.63-3.36-5.63-3.22-4.71,.33-8.66,7.22-8.7,7.29l-.87-.49c.17-.3,4.25-7.43,9.5-7.8,2.35-.17,4.54,1.05,6.5,3.61,7.41,9.68,6,35.84,5.93,36.95Z"/><path class="cls-20" d="M85.54,352.43c-.2-2.58-4.7-63.4,3.22-74.12l.8,.59c-7.7,10.42-3.08,72.82-3.03,73.45l-1,.08Z"/></g><path class="cls-22" d="M105.22,313.3s-4.75,1.75-3.34,5.89c1.41,4.14,16.44,10.95,16.44,10.95,0,0,6.3-5.77,.51-15.15s-13.49-4.64-13.62-1.68Z"/><path class="cls-22" d="M84.56,305.42s5.06-.21,5.35,4.15-10.97,16.43-10.97,16.43c0,0-8.03-2.9-6.31-13.79s10.66-9.48,11.92-6.79Z"/><path class="cls-22" d="M80.27,284.54s3.37-.36,3.1-2.42-13.12-7.35-20.7,1.21c0,0,4.85,8.34,11.87,8.45,7.02,.11,5.73-7.24,5.73-7.24Z"/><path class="cls-22" d="M86.56,279.55s-3.06,1.48-3.91-.41c-.86-1.89,7.25-13.17,18.21-9.92,0,0,.29,9.64-5.61,13.45-5.9,3.8-8.69-3.11-8.69-3.11Z"/><path class="cls-22" d="M70.58,311.63s2.33-1.88-.18-2.8c-2.51-.92-14.85-.66-14.98,11.56,0,0,14.36,2.39,16.14-2.27s-.98-6.5-.98-6.5Z"/><path class="cls-22" d="M99.88,284.23s-2.33-1.88,.18-2.8c2.51-.92,14.85-.66,14.98,11.56,0,0-14.36,2.39-16.14-2.27-1.78-4.65,.98-6.5,.98-6.5Z"/><path class="cls-22" d="M92.28,294.07s-.2-2.29,1.64-1.39c1.85,.9,8.28,7.83,1.61,14.41,0,0-8.97-6.64-7.35-10.1,1.62-3.46,4.1-2.92,4.1-2.92Z"/><path class="cls-22" d="M68.5,297.33s1.39-1.82-.65-2.05c-2.04-.23-11.18,2.21-9.05,11.34,0,0,11.13-.84,11.61-4.63s-1.91-4.66-1.91-4.66Z"/><polygon class="cls-1" points="106.11 382.65 67.91 382.65 63.79 340.83 110.23 340.83 106.11 382.65"/><rect class="cls-21" x="61.75" y="336.21" width="50.52" height="9.23"/></g><g><rect class="cls-22" x="349.13" y="116.55" width="98.72" height="266.1" transform="translate(796.98 499.2) rotate(180)"/><rect class="cls-10" x="416.41" y="145.82" width="22.72" height="99.29" transform="translate(855.54 390.92) rotate(180)"/><path class="cls-20" d="M431.44,265.16c0,2.5,2.03,4.53,4.53,4.53s4.53-2.03,4.53-4.53-2.03-4.53-4.53-4.53-4.53,2.03-4.53,4.53Z"/></g><rect class="cls-15" x="379.54" y="98.3" width="37.89" height="8.94" transform="translate(796.98 205.55) rotate(180)"/><g><rect class="cls-21" x="64.44" y="131.36" width="111.57" height="87.82" transform="translate(295.49 55.04) rotate(90)"/><rect class="cls-1" x="78.32" y="121.48" width="83.82" height="107.57" transform="translate(240.45 350.53) rotate(180)"/><path class="cls-10" d="M99.91,171.91c3.25,3.59,4.06-3.54,4.06-3.54l9.29-15.78,2.02,16.2-6.98,50.2s-6.4,1.9-6.81,2.98c-.4,1.07,10.96,1.36,12.18,0,1.21-1.36-1.22-2.98-1.22-2.98l8.79-41.5,.14,.66,8.65,40.84s-2.43,1.62-1.21,2.98c1.21,1.36,12.58,1.07,12.17,0-.4-1.08-6.8-2.98-6.8-2.98l-6.98-50.2,2.01-16.2,9.29,15.78s.81,7.13,4.06,3.54c3.25-3.58-2.44-6.83-2.44-6.83l-10.1-17.52-5.57-1.93-1.23-1.55s7.15-12.83-1.85-13.08v-.02s-.09,.01-.14,.01-.09-.01-.13-.01v.02c-9,.25-1.86,13.08-1.86,13.08l-1.23,1.55-5.57,1.93-10.1,17.52s-5.68,3.25-2.44,6.83Z"/><path class="cls-21" d="M121.38,131v47.15l8.65,40.84s-2.43,1.62-1.21,2.98c1.21,1.36,12.58,1.07,12.17,0-.4-1.08-6.8-2.98-6.8-2.98l-6.98-50.2,2.01-16.2,9.29,15.78s.81,7.13,4.06,3.54c3.25-3.58-2.44-6.83-2.44-6.83l-10.1-17.52-5.57-1.93-1.23-1.55s7.15-12.83-1.85-13.08Z"/><rect class="cls-21" x="91.24" y="134" width="11.6" height="4.52" transform="translate(194.09 272.53) rotate(180)"/><rect class="cls-21" x="87.31" y="154.34" width="11.6" height="4.52" transform="translate(186.22 313.19) rotate(180)"/><rect class="cls-21" x="142.41" y="175.68" width="11.6" height="4.52" transform="translate(296.42 355.89) rotate(180)"/><rect class="cls-21" x="137.77" y="133.83" width="11.6" height="4.52" transform="translate(287.15 272.19) rotate(180)"/><rect class="cls-21" x="91.24" y="183.19" width="11.6" height="4.52" transform="translate(194.09 370.9) rotate(180)"/><rect class="cls-21" x="139.23" y="200.49" width="11.6" height="4.52" transform="translate(290.05 405.49) rotate(180)"/><rect class="cls-21" x="85.44" y="205.01" width="11.6" height="4.52" transform="translate(182.48 414.54) rotate(180)"/></g><g><rect class="cls-21" x="159.05" y="172.62" width="112.63" height="84.81" transform="translate(.34 430.39) rotate(-90)"/><rect class="cls-15" x="174.96" y="160.71" width="80.81" height="108.63"/><rect class="cls-10" x="174.96" y="160.71" width="80.81" height="27"/><rect class="cls-10" x="174.96" y="212.69" width="80.81" height="29.69"/><circle class="cls-15" cx="190.72" cy="173.01" r="8.18"/><circle class="cls-10" cx="243.32" cy="200.02" r="8.18" transform="translate(-28.9 41.56) rotate(-9.22)"/><circle class="cls-15" cx="189.75" cy="228.87" r="8.18" transform="translate(-94.31 316.59) rotate(-67.5)"/><circle class="cls-10" cx="242.35" cy="255.88" r="8.18"/></g></g><ellipse id="_Path_" class="cls-15" cx="250" cy="416.16" rx="195.18" ry="11.4"/><g><path class="cls-23" d="M377.56,418.7h29.51c1.43,0,2.69-.57,3.55-1.6,.87-1.04,1.22-2.46,.96-3.89l-13.18-73.22h-39.95l13.28,73.77c.5,2.77,3.06,4.94,5.83,4.94Zm18.25-75.61l12.72,70.67c.1,.54,0,1.02-.29,1.35-.27,.32-.68,.49-1.18,.49h-29.51c-1.28,0-2.55-1.1-2.79-2.39l-12.62-70.12h33.66Z"/><g class="cls-13"><path class="cls-2" d="M398.4,339.99l11.85,65.81,1.33,7.41c.26,1.42-.09,2.85-.96,3.88-.86,1.03-2.13,1.61-3.55,1.61h-29.51c-2.77,0-5.33-2.18-5.83-4.94l-1.78-9.87-11.5-63.9h39.95Zm-25.28,64.06l1.65,9.17c.24,1.29,1.52,2.39,2.79,2.39h29.51c.51,0,.91-.18,1.18-.5,.29-.34,.38-.82,.29-1.35l-1.46-8.11-11.26-62.56h-33.66l10.96,60.96Z"/></g><path class="cls-18" d="M358.45,339.99l11.5,63.9c1.05,.05,2.11,.1,3.17,.15l-10.96-60.96h33.66l11.26,62.56c1.07,.05,2.14,.1,3.17,.15l-11.85-65.81h-39.95Z"/><path class="cls-23" d="M360.24,342.5h39.95l13.18-73.22c.26-1.43-.09-2.85-.96-3.89-.86-1.03-2.13-1.6-3.55-1.6h-29.51c-2.77,0-5.34,2.17-5.83,4.94l-13.28,73.77Zm37.36-3.1h-33.66l12.62-70.12c.23-1.3,1.51-2.39,2.79-2.39h29.51c.5,0,.91,.17,1.18,.49,.28,.34,.38,.82,.29,1.35l-12.72,70.67Z"/><g class="cls-13"><path class="cls-2" d="M360.24,342.5h39.95l13.18-73.22c.26-1.43-.09-2.85-.96-3.89-.86-1.03-2.13-1.6-3.55-1.6h-29.51c-2.77,0-5.34,2.17-5.83,4.94l-13.28,73.77Zm37.36-3.1h-33.66l12.62-70.12c.23-1.3,1.51-2.39,2.79-2.39h29.51c.5,0,.91,.17,1.18,.49,.28,.34,.38,.82,.29,1.35l-12.72,70.67Z"/></g><g><path class="cls-23" d="M364.08,418.7c.73,0,1.39-.53,1.52-1.27l12.95-71.95c.26-1.43-.09-2.85-.96-3.89-.86-1.03-2.13-1.6-3.55-1.6h-29.51c-2.77,0-5.34,2.17-5.83,4.94l-12.95,71.95c-.15,.84,.41,1.65,1.25,1.8,.84,.14,1.65-.41,1.8-1.25l12.95-71.95c.23-1.3,1.51-2.39,2.79-2.39h29.51c.5,0,.91,.17,1.18,.49,.28,.34,.38,.82,.29,1.35l-12.95,71.95c-.15,.84,.41,1.65,1.25,1.8,.09,.02,.18,.02,.28,.02Z"/><g class="cls-13"><path class="cls-2" d="M364.08,418.7c.73,0,1.39-.53,1.52-1.27l12.95-71.95c.26-1.43-.09-2.85-.96-3.89-.86-1.03-2.13-1.6-3.55-1.6h-29.51c-2.77,0-5.34,2.17-5.83,4.94l-12.95,71.95c-.15,.84,.41,1.65,1.25,1.8,.84,.14,1.65-.41,1.8-1.25l12.95-71.95c.23-1.3,1.51-2.39,2.79-2.39h29.51c.5,0,.91,.17,1.18,.49,.28,.34,.38,.82,.29,1.35l-12.95,71.95c-.15,.84,.41,1.65,1.25,1.8,.09,.02,.18,.02,.28,.02Z"/></g></g><path class="cls-23" d="M335.02,338.59h65.18c0-3.14-2.55-5.69-5.69-5.69h-53.8c-3.14,0-5.69,2.55-5.69,5.69h0Z"/><g><rect class="cls-23" x="333.38" y="338.3" width="68.47" height="6.48" rx="1.03" ry="1.03" transform="translate(735.23 683.08) rotate(180)"/><g class="cls-14"><rect class="cls-2" x="333.38" y="338.3" width="68.47" height="6.48" rx="1.03" ry="1.03" transform="translate(735.23 683.08) rotate(180)"/></g></g></g><g><path class="cls-17" d="M325.68,281.5l-4.17,.94s-1.66-.27-3.45-2.13c-1.78-1.86-8.82-.86-8.82-.86,0,0-2.69,6.5-1.9,7.38,.79,.87,9.62,.57,10.72,.49,1.1-.08,2.28-.92,2.28-.92l6.16-.74-.81-4.17Z"/><path class="cls-23" d="M321.05,281.36s1.84-1.21,3.03-2.79c2.34-3.09,7.14-19.09,10.96-23.09,0,0,6.59,7.73,4.55,17.4-.21,1-.52,2.02-.93,3.06-2.49,6.26-6.49,9.4-10.19,10.56-2.59,.82-5.73,.54-5.73,.54l-1.7-5.67Z"/><path class="cls-19" d="M328.48,286.49c3.7-1.16,7.7-4.3,10.19-10.56,.41-1.03,.72-2.05,.93-3.06l-3.39-8.41c.01,.15-10.31,13.43-7.73,22.03Z"/><path class="cls-26" d="M386.51,293.3l-48.83,5.22-.37,16.15c-1.25,.34-2.49,.65-3.72,.95v20.39c13.02-.67,51.31,4.07,58.59-6.21,4.2-5.92-5.66-36.5-5.66-36.5Z"/><polygon class="cls-17" points="323.35 406.16 316.31 406.68 311.9 390.63 318.93 390.12 323.35 406.16"/><path class="cls-23" d="M315.33,406.99s0,.04-.02,.05c-.02,.01-.04,.01-.06,0-.55,.31-1.12,.56-1.72,.74-.44,.18-.93,.19-1.37,.02-.29-.17-.47-.49-.44-.83-.02-.21,.07-.42,.24-.55,.4-.3,1.24-.21,1.97-.05-.54-.44-1.01-.99-1.04-1.43-.02-.29,.15-.55,.43-.64,.24-.1,.48-.09,.71,.03,.85,.47,1.19,2.44,1.21,2.54h0s.12,.02,.12,.03c0,.03-.01,.05-.03,.07Zm-.52-.39c.06,.02,.11,.03,.16,.05-.17-.65-.52-1.71-1.03-1.99-.11-.07-.25-.09-.38-.05l-.08,.03c-.22,.09-.25,.22-.23,.31,.06,.47,.87,1.27,1.56,1.65Zm-.03,.36c-.93-.28-2.22-.53-2.61-.24-.08,.06-.13,.17-.12,.27,0,.21,.09,.41,.27,.53,.41,.22,1.31,.01,2.46-.57Z"/><polygon class="cls-19" points="318.93 390.12 311.9 390.64 314.43 399.81 321.37 398.96 318.93 390.12"/><path class="cls-26" d="M309.52,398.68l12.39-3.64s-17.59-51.94-14.9-56.24c.31-.49,63.19-16.9,63.19-16.9l-16.68-15.56s-66.42,10.13-67.8,27.63c-.66,8.42,23.79,64.71,23.79,64.71Z"/><polygon class="cls-23" points="323.51 395.31 308.59 399.53 305.91 393.33 322.38 389.01 323.51 395.31"/><polygon class="cls-8" points="323.51 395.31 308.59 399.53 305.91 393.33 322.38 389.01 323.51 395.31"/><path class="cls-26" d="M315.62,405.97l7.62-2.13c.26-.09,.55,.06,.63,.32h0l2.06,5.94c.18,.66-.2,1.34-.85,1.53-2.67,.7-3.98,.9-7.34,1.81-2.06,.57-6.08,1.89-9.02,2.22-2.94,.33-3.19-2.58-1.98-2.98,2.88-.96,6.32-3.96,7.82-6,.26-.35,.64-.6,1.06-.72Z"/><g><polygon class="cls-17" points="350.83 412.37 343.84 411.41 342.87 394.79 349.85 395.76 350.83 412.37"/><polygon class="cls-19" points="349.85 395.76 342.87 394.8 343.43 404.3 350.4 404.91 349.85 395.76"/><path class="cls-26" d="M372.95,313.87s22.67,10,19.47,15.93c-5.72,10.58-28.24,5.3-40.21,7.97-2.95,.66-.47,63.42-.47,63.42l-12.88,.98s-6.34-51.68-6.58-73.82c-.09-8.86,5.05-14.48,40.66-14.48Z"/><polygon class="cls-23" points="353.25 401.79 337.78 402.81 336.45 396.18 353.45 395.39 353.25 401.79"/><polygon class="cls-8" points="353.25 401.79 337.78 402.81 336.45 396.18 353.45 395.39 353.25 401.79"/><path class="cls-23" d="M343.15,411.43s-.15,.01-.15,.02c0,.03-.16,.05-.18,.07-.01,.02-.01,.04-.03,.05-.02,0-.04,0-.06,0-.6,.19-1.21,.31-1.84,.36-.46,.08-.94-.01-1.34-.26-.25-.23-.35-.58-.26-.9,.02-.21,.16-.4,.35-.49,.45-.21,1.27,.05,1.95,.36-.43-.54-.76-1.17-.69-1.61,.04-.29,.31-.51,.6-.53,.25-.05,.58,.02,.78,.18,.73,.63,.85,2.63,.85,2.75h0Zm-.76-.39c.05,.03,.1,.06,.14,.08-.03-.67-.15-1.78-.6-2.16-.1-.09-.23-.14-.36-.13h-.08c-.23,.05-.29,.17-.29,.27-.04,.48,.59,1.42,1.18,1.94Zm-.1,.35c-.85-.47-2.06-.98-2.51-.78-.1,.04-.16,.14-.17,.24-.05,.21,0,.42,.15,.58,.35,.3,1.28,.28,2.52-.04Z"/><path class="cls-26" d="M343.31,410.57l7.9-.49c.27-.03,.52,.17,.55,.44h0l.77,6.24c.04,.68-.47,1.27-1.15,1.32-2.76,.13-4.08,.05-7.56,.24-2.13,.13-6.34,.58-9.28,.3-2.94-.28-2.58-3.19-1.31-3.33,3.02-.34,7.01-2.56,8.89-4.24,.33-.29,.75-.46,1.19-.48Z"/></g><path class="cls-23" d="M337.52,281.72c.16,3.75,.26,7.74,.23,11.89,0,1.61-.03,3.25-.07,4.9,0,0,17.27,16.4,49.32-3.65,0,0-3.93-16.42-10.4-31.84h0c-.81-1.94-1.65-3.85-2.55-5.72-1.65-3.5-3.45-6.82-5.35-9.75,0,0-7.57-3.67-17.77,0-10.2,3.66-15.88,7.93-15.88,7.93,0,0,1.81,11.04,2.48,26.25Z"/><g><path class="cls-23" d="M361.02,250.47s.89-7.69-6.01-5.6c-6.9,2.09-11.5,3.28-12.49,9.68l3.36-1.6,5.04,4.05,6.66-7.79,3.44,1.26Z"/><path class="cls-7" d="M361.02,250.47s.89-7.69-6.01-5.6c-6.9,2.09-11.5,3.28-12.49,9.68l3.36-1.6,5.04,4.05,6.66-7.79,3.44,1.26Z"/></g><g><path class="cls-17" d="M356.74,247l-5.92,9.05-4.56-4.78s.36-1.09,.18-2.69c-.12-1.19-.52-2.67-1.6-4.19l4.81-8.91,1.69-3.14c.97,5.47,2.18,10.77,5.4,14.66Z"/><path class="cls-16" d="M346.45,248.58c-.12-1.19-.52-2.67-1.6-4.19l4.81-8.91s2.14,8.62-3.21,13.1Z"/></g><g><path class="cls-26" d="M337.37,222.9c3.33,1.51,2.57,5.17-3.25,11.71-3.35-3.08-5.01-9.9-3.13-12.01,1.88-2.11,3.47-1,6.37,.31Z"/><path class="cls-17" d="M351.16,226.23s4.55,11.02-2.12,17.05c-4.84,4.38-11.54,5.3-16.48-.12-3.87-4.24-1.57-9.63-1.57-9.63-.79-5.55,.11-11.66,4.62-14.57,4.67-3.05,10.92-1.75,13.98,2.92,.86,1.31,1.4,2.8,1.58,4.36Z"/><path class="cls-26" d="M340.7,230.29c.11,.59-.11,1.13-.5,1.2-.39,.07-.78-.34-.9-.93-.11-.59,.1-1.13,.49-1.21s.76,.36,.91,.94Z"/><path class="cls-26" d="M333.99,231.58c.11,.59-.11,1.13-.5,1.2-.39,.07-.79-.34-.91-.94-.12-.6,.11-1.13,.5-1.2,.39-.07,.79,.35,.91,.94Z"/><path class="cls-24" d="M336.23,231.44c-.36,1.94-.99,3.82-1.86,5.59,1.25,.77,2.93-.01,2.93-.01l-1.07-5.58Z"/><path class="cls-26" d="M342.13,227.82c.08,0,.15-.04,.21-.09,.13-.14,.12-.37-.02-.5-.83-.79-1.98-1.12-3.1-.89-.18,.04-.3,.22-.26,.41v.02c.06,.18,.25,.29,.44,.25h0c.88-.16,1.79,.11,2.44,.73,.08,.06,.19,.09,.29,.07Z"/><path class="cls-26" d="M330.5,229.9c.13-.03,.24-.13,.28-.26,.21-.87,.82-1.6,1.65-1.94,.19-.06,.29-.26,.23-.45-.06-.18-.26-.28-.44-.23-1.06,.42-1.85,1.33-2.12,2.44-.05,.19,.06,.38,.24,.43h0s.1,.02,.15,.01Z"/><path class="cls-26" d="M347.48,220.19c-3.24,1.69-2.26,5.31,3.91,11.49,3.18-3.27,4.44-10.18,2.43-12.17-2-1.99-3.52-.79-6.35,.67Z"/><path class="cls-17" d="M355.72,231.38c-.17,1.86-1.07,3.57-2.5,4.76-1.91,1.56-3.85,.09-4.15-2.22-.27-2.09,.41-5.42,2.72-6.08,2.31-.66,4.13,1.26,3.93,3.54Z"/><path class="cls-12" d="M342.79,237.38s-.62,2.67-4.12,3.47"/><path class="cls-26" d="M339.64,219.94s1.96,6.47,9.07,5.96c7.1-.51,8.1-4.65,8.1-4.65,0,0-1.06,.29-1.72,.36,0,0,1.64-3.48-.83-6.32-2.47-2.83-9.92-5.14-14.92-2.79,0,0-5.43-1.29-9.75,2.17-6.57,5.25-2.94,8.68-2.94,8.68,0,0-1.03-2.08,1.49-4.61,0,0-1.9,7.36,2.58,8.66,0,0-.49-6.93,8.93-7.47Z"/></g><path class="cls-19" d="M337.52,281.72c.16,3.75,.26,7.74,.23,11.89,3.54,3.06,11.78,8.34,22.87,3.86,15.01-6.05,19.28-20.5,15.97-34.45h0c-.67-2.84-1.56-4.64-2.55-5.72-3.87-4.22-9.31,2.78-9.31,2.78,0,.4-3.1,14.01-6.14,17.46-2.87,3.24-18.98,4.09-21.07,4.18Z"/><path class="cls-17" d="M350.98,282.46l-4.17,.94s-1.66-.27-3.45-2.13c-1.78-1.86-8.82-.86-8.82-.86,0,0-2.69,6.5-1.9,7.38,.79,.87,9.62,.57,10.72,.49,1.1-.08,2.28-.92,2.28-.92l6.16-.74-.81-4.17Z"/><path class="cls-23" d="M368.69,247.55c9.95,4.28,9.11,25.4,5.88,32.8-3.23,7.41-24.14,7.86-24.14,7.86l-1.41-6.17s13.02-3.22,14.92-6.1c1.89-2.88,1.35-10.06,.87-14.76-.87-8.54,3.88-13.63,3.88-13.63Z"/></g><g><polygon class="cls-23" points="168.46 285.22 168.46 418.9 174.73 418.9 174.73 297.22 245.87 297.22 245.87 418.9 252.15 418.9 252.15 297.22 276.4 297.22 276.4 418.9 282.69 418.9 282.69 297.22 353.82 297.22 353.82 418.9 360.1 418.9 360.1 285.22 168.46 285.22"/><polygon class="cls-4" points="168.46 285.22 168.46 418.9 174.73 418.9 174.73 297.22 245.87 297.22 245.87 418.9 252.15 418.9 252.15 297.22 276.4 297.22 276.4 418.9 282.69 418.9 282.69 297.22 353.82 297.22 353.82 418.9 360.1 418.9 360.1 285.22 168.46 285.22"/><polygon class="cls-5" points="252.24 285.22 252.24 297.22 276.4 297.22 282.69 297.22 353.82 297.22 353.82 418.9 360.1 418.9 360.1 285.22 252.24 285.22"/><g><rect class="cls-26" x="280.27" y="271.53" width="13.57" height="8.16" transform="translate(574.11 551.22) rotate(180)"/><g><polygon class="cls-23" points="280.17 281.83 291.2 281.83 288.1 259.68 277.07 259.68 280.17 281.83"/><polygon class="cls-5" points="280.17 281.83 291.2 281.83 288.1 259.68 277.07 259.68 280.17 281.83"/></g><g><polygon class="cls-23" points="282.81 283.33 293.84 283.33 290.74 261.18 279.72 261.18 282.81 283.33"/><polygon class="cls-9" points="282.81 283.33 293.84 283.33 290.74 261.18 279.72 261.18 282.81 283.33"/></g><path class="cls-26" d="M276.6,285.22h19.19l-2.93-13.7h-.72l1.33,3.27h-10.99l-1.34-3.27h-2.79s-2.05,13.69-1.74,13.7Z"/><g><polygon class="cls-26" points="279.38 271.53 284.97 285.22 299.48 285.22 293.89 271.53 292.13 271.53 293.47 274.8 282.47 274.8 281.13 271.53 279.38 271.53"/><polygon class="cls-5" points="279.38 271.53 284.97 285.22 299.48 285.22 293.89 271.53 292.13 271.53 293.47 274.8 282.47 274.8 281.13 271.53 279.38 271.53"/></g></g><g><path class="cls-26" d="M242.24,280.81h27.42v2.57c0,1.01-.82,1.84-1.84,1.84h-23.74c-1.01,0-1.84-.82-1.84-1.84v-2.57h0Z" transform="translate(511.89 566.03) rotate(180)"/><path class="cls-5" d="M252.24,280.81h17.42v2.57c0,1.01-.82,1.84-1.84,1.84h-13.74c-1.01,0-1.84-.82-1.84-1.84v-2.57h0Z" transform="translate(521.9 566.03) rotate(180)"/></g></g><g id="_Group_"><rect class="cls-11" x="193.42" y="222.88" width="4.13" height="4.13" rx=".71" ry=".71" transform="translate(390.96 449.89) rotate(180)"/><path class="cls-25" d="M195.02,267.84l4.3-6.34s.36-3.35,.72-3.59c.36-.24,10.4-2.99,10.4-2.99,0,0,1.31,6.34,.6,7.29-.72,.96-6.81,2.63-6.81,2.63l-1.21-.6-3.93,6.45-4.06-2.87Z"/><g><path class="cls-23" d="M173.76,250.22s-5.88,7.03-5.22,16.67c0,0,13.93,18.33,20.87,18.33s12.44-16.66,12.44-16.66l-6.05-3.68s-4.55,7.35-8.43,6.53c-3.88-.82-13.6-21.2-13.6-21.2Z"/><path class="cls-9" d="M173.76,250.22s-5.88,7.03-5.22,16.67c0,0,13.93,18.33,20.87,18.33s12.44-16.66,12.44-16.66l-6.05-3.68s-4.55,7.35-8.43,6.53c-3.88-.82-13.6-21.2-13.6-21.2Z"/></g><path class="cls-25" d="M215.66,267.84l4.3-6.34s.36-3.35,.72-3.59c.36-.24,10.4-2.99,10.4-2.99,0,0,1.31,6.34,.6,7.29-.72,.96-6.81,2.63-6.81,2.63l-1.21-.6-3.93,6.45-4.06-2.87Z"/><g><path class="cls-25" d="M194.38,234.06c-.15,.34-.31,.67-.49,.98-1.05,1.88-2.61,3.31-4.4,4.2-.47,.24-.96,.43-1.45,.6-2.63,.84-5.54,.6-7.94-.96-.99-.63-1.9-1.49-2.66-2.58-3.03-4.29-2.23-8.52-1.44-15.79,.15-1.57,.65-3.08,1.49-4.41,2.93-4.68,9.1-6.1,13.77-3.17,6.58,4.06,5.76,14.93,3.12,21.14Z"/><path class="cls-19" d="M189.49,239.23c-.47,.24-.96,.43-1.45,.6-2.63,.84-5.54,.6-7.94-.96,.74-1.31,1.69-2.23,1.69-2.23,0,0,4.41,.05,7.7,2.6Z"/><path class="cls-25" d="M169.4,245.88c3.01,3.81,15.95,4.34,15.95,4.34,0,0,5.67-.58,4.81-2.46-3.11-1.06-4.4-2.81-4.72-4.82-.19-1.17-.03-2.43,.28-3.7,.16-.67,.37-1.34,.61-1.99l-9.41-9.74c3.18,11.36-3.41,15.15-7.52,18.38Z"/><path class="cls-26" d="M194.56,212.23c-2.74-3.6-4.83-2.76-4.83-2.76-1.81-3.06-10.89-2.44-15.24,1.07-4.35,3.52-5.47,9.53-4.78,14.17,1.01,6.76,5.84,13.32,5.84,13.32h0c5.48,.99,9.88-.56,9.99-3.43,.11-2.87,2.8-5.21,2.8-5.21,2.71,.67,4.86-2.47,4.86-2.47,0,0,2.78-2.89,1.67-6.48s2-5.2-.31-8.24Z"/><path class="cls-25" d="M187.23,227.61c.17,1.64,.84,2.93,1.86,3.6,1.36,.87,2.67-1.04,2.82-3.24,.12-1.95-.42-4.82-2.05-4.72s-2.82,2.34-2.63,4.36Z"/></g><g><path class="cls-23" d="M189.9,248.55s-2.18-9.79-15.31-9.69l-3.33,4.84,18.65,4.85Z"/><path class="cls-6" d="M189.9,248.55s-2.18-9.79-15.31-9.69l-3.33,4.84,18.65,4.85Z"/></g><g><polygon class="cls-17" points="166.8 411.16 174.35 411.3 178.1 393.9 170.57 393.77 166.8 411.16"/><polygon class="cls-19" points="170.57 393.77 178.1 393.91 175.95 403.86 168.49 403.36 170.57 393.77"/></g><path class="cls-26" d="M191.04,368.57c-4.97,18.91-10.99,32.45-10.99,32.45l-13.77-1.05s5.65-22.06,7.69-42.27c1.27-12.47,1.15-22.79-2.5-23.59-2.3-.51-7.68-.49-14.56-.33v-25.68c19.33,3.97,38.57,11.46,40.03,17.46,2.05,8.46-1.53,26.35-5.91,43Z"/><g><polygon class="cls-23" points="164.83 400.62 181.22 401.71 183.63 394.62 165.57 393.78 164.83 400.62"/><polygon class="cls-8" points="164.83 400.62 181.22 401.71 183.63 394.62 165.57 393.78 164.83 400.62"/></g><path class="cls-23" d="M175.48,410.92h0c0-.14,.13-2.27,.91-2.95,.21-.17,.57-.25,.84-.2,.31,.03,.59,.26,.64,.57,.07,.47-.28,1.15-.74,1.72,.74-.33,1.61-.61,2.09-.38,.21,.1,.35,.3,.38,.52,.1,.35,0,.72-.27,.97-.43,.27-.94,.37-1.43,.28-.67-.06-1.33-.19-1.96-.39-.02,0-.04,.01-.06,0-.02-.01-.02-.04-.03-.05-.02-.02-.18-.04-.19-.07,0,0-.16-.01-.16-.02h0Zm2.08-2.51c0-.1-.07-.23-.32-.27h-.09c-.14-.02-.28,.03-.38,.12-.47,.4-.61,1.59-.64,2.31,.05-.03,.1-.05,.15-.09,.64-.55,1.31-1.56,1.27-2.07Zm1.54,2.49c.16-.16,.22-.4,.16-.62-.01-.11-.08-.21-.18-.26-.48-.22-1.77,.33-2.68,.83,1.33,.35,2.32,.37,2.7,.04Z"/><path class="cls-26" d="M175.3,410l-8.45-.53c-.29-.03-.56,.18-.59,.47h0l-.83,6.67c-.05,.73,.5,1.36,1.23,1.41,2.95,.14,4.36,.05,8.08,.26,2.28,.14,6.78,.62,9.93,.32,3.15-.3,2.76-3.41,1.4-3.56-3.22-.37-7.49-2.74-9.51-4.53-.35-.31-.8-.49-1.27-.51Z"/><path class="cls-19" d="M191.04,368.57c-5.14-3.26-11.16-7.09-17.06-10.87,1.27-12.47,1.15-22.79-2.5-23.59-2.3-.51-7.68-.49-14.56-.33v-25.68c19.33,3.97,38.57,11.46,40.03,17.46,2.05,8.46-1.53,26.35-5.91,43Z"/><g><polygon class="cls-17" points="210.91 411.16 218.45 411.3 222.21 393.9 214.68 393.77 210.91 411.16"/><polygon class="cls-19" points="214.68 393.77 222.21 393.91 220.06 403.86 212.59 403.36 214.68 393.77"/></g><path class="cls-26" d="M183.51,305.59l-.13-10.76-40.57-7.72s-10.37,27.77-4.07,40.28c5.79,11.48,67.37,4.64,76.85,6.71,9.58,2.09-5.2,65.86-5.2,65.86l13.77,1.05s21.27-57.39,16.9-75.44c-1.91-7.88-34.37-18.31-57.55-19.99Z"/><g><polygon class="cls-23" points="208.93 400.62 225.33 401.71 227.74 394.62 209.68 393.78 208.93 400.62"/><polygon class="cls-8" points="208.93 400.62 225.33 401.71 227.74 394.62 209.68 393.78 208.93 400.62"/></g><path class="cls-23" d="M219.59,410.92h0c0-.14,.13-2.27,.91-2.95,.21-.17,.57-.25,.84-.2,.31,.03,.59,.26,.64,.57,.07,.47-.28,1.15-.74,1.72,.74-.33,1.61-.61,2.09-.38,.21,.1,.35,.3,.38,.52,.1,.35,0,.72-.27,.97-.43,.27-.94,.37-1.43,.28-.67-.06-1.33-.19-1.96-.39-.02,0-.04,.01-.06,0-.02-.01-.02-.04-.03-.05-.02-.02-.18-.04-.19-.07,0,0-.16-.01-.16-.02h0Zm2.08-2.51c0-.1-.07-.23-.32-.27h-.09c-.14-.02-.28,.03-.38,.12-.47,.4-.61,1.59-.64,2.31,.05-.03,.1-.05,.15-.09,.64-.55,1.31-1.56,1.27-2.07Zm1.54,2.49c.16-.16,.22-.4,.16-.62-.01-.11-.08-.21-.18-.26-.48-.22-1.77,.33-2.68,.83,1.33,.35,2.32,.37,2.7,.04Z"/><path class="cls-26" d="M219.4,410l-8.45-.53c-.29-.03-.56,.18-.59,.47h0l-.83,6.67c-.05,.73,.5,1.36,1.23,1.41,2.95,.14,4.37,.05,8.08,.26,2.28,.14,6.78,.62,9.93,.32s2.76-3.41,1.4-3.56c-3.22-.37-7.49-2.74-9.51-4.53-.35-.31-.8-.49-1.27-.51Z"/><g><polygon points="141.3 297.79 160.45 300.18 161.07 297.49 141.89 294.83 141.3 297.79"/><polygon points="162.66 297.51 162.43 300.18 180.12 302.51 180.12 299.86 162.66 297.51"/><polygon points="181.22 300.01 181.22 302.51 183.79 302.83 183.79 300.42 181.22 300.01"/><polygon points="140 297.22 140.65 294.83 140 294.83 139.23 296.69 140 297.22"/></g><g><path class="cls-23" d="M194.4,250.22s-11.27-8.55-23.13-8.41c-11.86,.14-37.55,41.31-36.82,75.99l51.72,1.09v-30.2s.75-19.03,8.23-38.47Z"/><path class="cls-3" d="M194.4,250.22s-11.27-8.55-23.13-8.41c-11.86,.14-37.55,41.31-36.82,75.99l51.72,1.09v-30.2s.75-19.03,8.23-38.47Z"/></g><g><path class="cls-23" d="M194.4,250.22s-5.88,7.03-5.22,16.67c0,0,13.93,18.33,20.87,18.33s12.44-16.66,12.44-16.66l-6.05-3.68s-4.55,7.35-8.43,6.53c-3.88-.82-13.6-21.2-13.6-21.2Z"/><path class="cls-6" d="M194.4,250.22s-5.88,7.03-5.22,16.67c0,0,13.93,18.33,20.87,18.33s12.44-16.66,12.44-16.66l-6.05-3.68s-4.55,7.35-8.43,6.53c-3.88-.82-13.6-21.2-13.6-21.2Z"/></g></g><g><g><rect class="cls-23" x="95.71" y="333.33" width="109.97" height="85.57" transform="translate(301.4 752.24) rotate(180)"/><rect class="cls-8" x="146.36" y="333.33" width="59.33" height="85.57" transform="translate(352.05 752.24) rotate(180)"/></g><g><path class="cls-23" d="M84.75,240.84h51.61c4.17,0,7.76,2.91,8.63,6.99l20.19,94.99H95.53l-19.41-91.32c-1.17-5.49,3.02-10.66,8.63-10.66Z"/><path class="cls-8" d="M147.14,342.82h18.04l-20.19-94.99c-.87-4.07-4.46-6.99-8.63-6.99h0c-5.61,0-9.8,5.17-8.63,10.66l19.41,91.32Z"/></g><g><path class="cls-23" d="M170.27,305.1h44.38c4.33,0,7.84,3.51,7.84,7.84v105.96h-15.68v-.2h-28.71v.2h-15.68v-105.96c0-4.33,3.51-7.84,7.84-7.84Z"/><path class="cls-8" d="M170.27,305.1h44.38c4.33,0,7.84,3.51,7.84,7.84v105.96h-15.68v-.2h-28.71v.2h-15.68v-105.96c0-4.33,3.51-7.84,7.84-7.84Z"/><path class="cls-23" d="M170.27,305.1h0c4.33,0,7.84,3.51,7.84,7.84v105.96h-15.68v-105.96c0-4.33,3.51-7.84,7.84-7.84Z"/></g></g></svg>