<svg xmlns="http://www.w3.org/2000/svg" xmlns:xlink="http://www.w3.org/1999/xlink" width="331.105" height="338.539" viewBox="0 0 331.105 338.539">
  <defs>
    <linearGradient id="linear-gradient" x1="1.086" y1="1.014" x2="0.335" y2="0.363" gradientUnits="objectBoundingBox">
      <stop offset="0" stop-color="#b37cff"/>
      <stop offset="1" stop-color="#f895e7"/>
    </linearGradient>
    <linearGradient id="linear-gradient-2" x1="0" y1="0.5" x2="1" y2="0.5" xlink:href="#linear-gradient"/>
    <linearGradient id="linear-gradient-3" x1="-0.51" y1="2.018" x2="0.929" y2="-0.146" gradientUnits="objectBoundingBox">
      <stop offset="0" stop-color="#a737d5"/>
      <stop offset="1" stop-color="#ef497a"/>
    </linearGradient>
    <linearGradient id="linear-gradient-4" x1="1.52" y1="-0.561" x2="-0.225" y2="1.249" xlink:href="#linear-gradient-3"/>
    <linearGradient id="linear-gradient-5" x1="0.635" y1="-0.363" x2="0.267" y2="2.014" gradientUnits="objectBoundingBox">
      <stop offset="0" stop-color="#2b3582"/>
      <stop offset="1" stop-color="#150e42"/>
    </linearGradient>
    <linearGradient id="linear-gradient-6" x1="0" y1="0.5" x2="1" y2="0.5" xlink:href="#linear-gradient-5"/>
    <linearGradient id="linear-gradient-7" x1="1.329" y1="1.508" x2="1.251" y2="1.412" gradientUnits="objectBoundingBox">
      <stop offset="0" stop-color="#53d8ff"/>
      <stop offset="1" stop-color="#3840f7"/>
    </linearGradient>
    <linearGradient id="linear-gradient-8" x1="-0.124" y1="0.61" x2="1.095" y2="0.403" xlink:href="#linear-gradient-7"/>
    <linearGradient id="linear-gradient-9" x1="0.317" y1="3.559" x2="0.701" y2="-2.788" xlink:href="#linear-gradient-5"/>
    <linearGradient id="linear-gradient-10" x1="0.439" y1="1.599" x2="0.787" y2="-4.98" xlink:href="#linear-gradient-7"/>
    <linearGradient id="linear-gradient-12" x1="0.16" y1="1.301" x2="0.874" y2="0.097" xlink:href="#linear-gradient-7"/>
    <linearGradient id="linear-gradient-13" x1="1.637" y1="-1.051" x2="-1.874" y2="3.74" xlink:href="#linear-gradient-5"/>
    <linearGradient id="linear-gradient-14" x1="0.543" y1="1.603" x2="0.509" y2="0.635" xlink:href="#linear-gradient-5"/>
    <linearGradient id="linear-gradient-15" x1="0.48" y1="1.04" x2="0.514" y2="0.113" xlink:href="#linear-gradient-5"/>
    <linearGradient id="linear-gradient-16" x1="0" y1="0.5" x2="1" y2="0.5" xlink:href="#linear-gradient-7"/>
    <linearGradient id="linear-gradient-17" x1="0.518" y1="-0.467" x2="0.501" y2="0.838" xlink:href="#linear-gradient-7"/>
    <linearGradient id="linear-gradient-20" x1="0.745" y1="0.028" x2="-0.022" y2="1.503" xlink:href="#linear-gradient-7"/>
    <linearGradient id="linear-gradient-21" x1="0.878" y1="-0.071" x2="-1.173" y2="3.028" xlink:href="#linear-gradient-7"/>
    <linearGradient id="linear-gradient-22" x1="1.747" y1="-1.845" x2="2.557" y2="-1.845" gradientUnits="objectBoundingBox">
      <stop offset="0" stop-color="#e40045"/>
      <stop offset="1" stop-color="#5c0e16"/>
    </linearGradient>
    <linearGradient id="linear-gradient-23" x1="-2.01" y1="-3.509" x2="2.268" y2="3.345" xlink:href="#linear-gradient-7"/>
    <linearGradient id="linear-gradient-24" x1="-6.698" y1="-12.911" x2="-5.878" y2="-12.911" xlink:href="#linear-gradient-22"/>
    <linearGradient id="linear-gradient-25" x1="-0.712" y1="-2.103" x2="3.695" y2="6.796" xlink:href="#linear-gradient-7"/>
    <linearGradient id="linear-gradient-26" x1="-4.526" y1="-21.271" x2="-3.782" y2="-21.271" xlink:href="#linear-gradient-22"/>
    <linearGradient id="linear-gradient-27" x1="-1.196" y1="-2.747" x2="2.771" y2="4.587" xlink:href="#linear-gradient-7"/>
    <linearGradient id="linear-gradient-28" x1="0.652" y1="0.849" x2="1.323" y2="0.071" gradientUnits="objectBoundingBox">
      <stop offset="0" stop-color="#fdf53f"/>
      <stop offset="1" stop-color="#d93c65"/>
    </linearGradient>
    <linearGradient id="linear-gradient-29" x1="1.743" y1="-0.531" x2="-0.308" y2="2.568" xlink:href="#linear-gradient-28"/>
    <linearGradient id="linear-gradient-30" x1="3.487" y1="-1.018" x2="0.69" y2="1.841" xlink:href="#linear-gradient-28"/>
    <linearGradient id="linear-gradient-31" x1="-0.046" y1="0.64" x2="0.624" y2="-0.138" xlink:href="#linear-gradient-28"/>
    <linearGradient id="linear-gradient-32" x1="1.021" y1="-0.747" x2="-1.031" y2="2.352" xlink:href="#linear-gradient-28"/>
    <linearGradient id="linear-gradient-33" x1="1.667" y1="-1.355" x2="-1.196" y2="1.504" xlink:href="#linear-gradient-28"/>
    <linearGradient id="linear-gradient-34" x1="0.785" y1="0.012" x2="-0.008" y2="2.477" xlink:href="#linear-gradient-7"/>
    <linearGradient id="linear-gradient-35" x1="0.504" y1="-0.54" x2="0.496" y2="1.597" xlink:href="#linear-gradient-7"/>
    <linearGradient id="linear-gradient-36" x1="0.743" y1="-0.443" x2="-1.342" y2="9.579" xlink:href="#linear-gradient-7"/>
    <linearGradient id="linear-gradient-37" x1="0.891" y1="0.055" x2="-0.208" y2="1.036" xlink:href="#linear-gradient-7"/>
    <linearGradient id="linear-gradient-38" x1="0.519" y1="0.516" x2="2.196" y2="-4.932" xlink:href="#linear-gradient-7"/>
    <linearGradient id="linear-gradient-39" x1="0.875" y1="-0.051" x2="-1.081" y2="2.245" xlink:href="#linear-gradient-7"/>
    <linearGradient id="linear-gradient-41" x1="0.519" y1="0.517" x2="2.196" y2="-4.93" xlink:href="#linear-gradient-7"/>
    <linearGradient id="linear-gradient-42" x1="0.875" y1="-0.051" x2="-1.081" y2="2.245" xlink:href="#linear-gradient-7"/>
    <linearGradient id="linear-gradient-43" x1="-16.443" y1="0.5" x2="-15.443" y2="0.5" xlink:href="#linear-gradient-5"/>
    <linearGradient id="linear-gradient-44" x1="-17.563" y1="3.185" x2="-17.934" y2="7.248" gradientUnits="objectBoundingBox">
      <stop offset="0" stop-color="#53eac9"/>
      <stop offset="1" stop-color="#45aed8"/>
    </linearGradient>
    <linearGradient id="linear-gradient-45" x1="-29.795" y1="5.732" x2="-32.781" y2="12.591" xlink:href="#linear-gradient-44"/>
    <linearGradient id="linear-gradient-46" x1="-34.056" y1="5.368" x2="-37.581" y2="10.992" gradientUnits="objectBoundingBox">
      <stop offset="0" stop-color="#f9b776"/>
      <stop offset="1" stop-color="#f47960"/>
    </linearGradient>
    <linearGradient id="linear-gradient-47" x1="-3925.76" y1="0.462" x2="-3924.76" y2="0.462" xlink:href="#linear-gradient-5"/>
    <linearGradient id="linear-gradient-48" x1="-38259.816" y1="2" x2="-38260.996" y2="3.823" xlink:href="#linear-gradient-44"/>
    <linearGradient id="linear-gradient-49" x1="-26.156" y1="-0.484" x2="-28.991" y2="6.011" xlink:href="#linear-gradient-5"/>
    <linearGradient id="linear-gradient-50" x1="-110.409" y1="0.5" x2="-109.409" y2="0.5" xlink:href="#linear-gradient-46"/>
    <linearGradient id="linear-gradient-51" x1="-32.036" y1="0.031" x2="-34.933" y2="0.887" xlink:href="#linear-gradient-5"/>
    <linearGradient id="linear-gradient-52" x1="-70.112" y1="-2.223" x2="-77.129" y2="5.384" xlink:href="#linear-gradient-5"/>
    <linearGradient id="linear-gradient-53" x1="-136.388" y1="0.5" x2="-135.388" y2="0.5" xlink:href="#linear-gradient-46"/>
    <linearGradient id="linear-gradient-54" x1="-23.094" y1="-0.035" x2="-25.134" y2="0.806" xlink:href="#linear-gradient-5"/>
    <linearGradient id="linear-gradient-55" x1="-31.513" y1="1.066" x2="-27.464" y2="-1.521" gradientUnits="objectBoundingBox">
      <stop offset="0" stop-color="#9cfffb"/>
      <stop offset="1" stop-color="#9bfffa"/>
    </linearGradient>
    <linearGradient id="linear-gradient-56" x1="-45.237" y1="1.215" x2="-44.76" y2="0.981" xlink:href="#linear-gradient-46"/>
    <linearGradient id="linear-gradient-57" x1="-25.368" y1="0.5" x2="-24.368" y2="0.5" xlink:href="#linear-gradient-55"/>
    <linearGradient id="linear-gradient-58" x1="-32.095" y1="0.532" x2="-33.757" y2="1.009" xlink:href="#linear-gradient-44"/>
    <linearGradient id="linear-gradient-59" x1="-83.368" y1="1.815" x2="-79.835" y2="-5.237" xlink:href="#linear-gradient-55"/>
    <linearGradient id="linear-gradient-60" x1="-50.008" y1="0.616" x2="-49.743" y2="0.485" xlink:href="#linear-gradient-44"/>
    <linearGradient id="linear-gradient-61" x1="-104.023" y1="0.5" x2="-103.023" y2="0.5" xlink:href="#linear-gradient-55"/>
    <linearGradient id="linear-gradient-62" x1="-18.416" y1="0.5" x2="-17.416" y2="0.5" xlink:href="#linear-gradient-55"/>
    <linearGradient id="linear-gradient-63" x1="-15.076" y1="-0.062" x2="-14.562" y2="2.428" xlink:href="#linear-gradient-28"/>
    <linearGradient id="linear-gradient-64" x1="-78.848" y1="-3.497" x2="-79.421" y2="1.805" xlink:href="#linear-gradient-7"/>
    <linearGradient id="linear-gradient-65" x1="-41.253" y1="-1.235" x2="-41.396" y2="1.146" xlink:href="#linear-gradient-7"/>
    <linearGradient id="linear-gradient-66" x1="-55.375" y1="0.5" x2="-54.375" y2="0.5" xlink:href="#linear-gradient-46"/>
    <linearGradient id="linear-gradient-67" x1="-36.659" y1="0.5" x2="-35.659" y2="0.5" xlink:href="#linear-gradient-44"/>
    <linearGradient id="linear-gradient-68" x1="-34.41" y1="0.5" x2="-33.41" y2="0.5" xlink:href="#linear-gradient-44"/>
    <linearGradient id="linear-gradient-69" x1="-60.182" y1="3.158" x2="-61.372" y2="3.928" xlink:href="#linear-gradient-46"/>
    <linearGradient id="linear-gradient-70" x1="6.759" y1="2.048" x2="8.094" y2="3.839" xlink:href="#linear-gradient-5"/>
    <linearGradient id="linear-gradient-71" x1="-253.688" y1="8.232" x2="-258.629" y2="10.598" xlink:href="#linear-gradient-46"/>
    <linearGradient id="linear-gradient-72" x1="0.697" y1="1.775" x2="1.367" y2="0.996" xlink:href="#linear-gradient-28"/>
    <linearGradient id="linear-gradient-73" x1="1.789" y1="0.426" x2="-0.262" y2="3.525" xlink:href="#linear-gradient-28"/>
    <linearGradient id="linear-gradient-74" x1="3.497" y1="0.476" x2="0.794" y2="3.346" xlink:href="#linear-gradient-28"/>
  </defs>
  <g id="img-slide-23" transform="translate(-456.454 -375.006)" style="isolation: isolate">
    <g id="Illustration" transform="translate(456.454 375.006)">
      <g id="Grupo_6860" data-name="Grupo 6860" transform="translate(0 0)">
        <path id="Caminho_40428" data-name="Caminho 40428" d="M799.961,670.427c-31.386,73.9-114.99,115.3-187.491,104.132-11.8-1.817-44.141-7.23-72.776-32.768-55.125-49.16-66.914-146.5-22.446-215.1,32.365-49.929,90.382-78.232,145.509-76.816,11.874.305,57.382,2.184,97.375,35.162a150.013,150.013,0,0,1,30.508,34.614c27.419,42.878,29.776,102.617,9.321,150.778Z" transform="translate(-486.055 -440.965)" opacity="0.3" fill="url(#linear-gradient)"/>
        <g id="Grupo_6840" data-name="Grupo 6840" transform="translate(1.918 152.412)">
          <g id="Grupo_6826" data-name="Grupo 6826" transform="translate(63.829)">
            <path id="Caminho_40429" data-name="Caminho 40429" d="M1089.413,1665.958a3.464,3.464,0,0,0-3.416-3.417h-70.386a3.79,3.79,0,0,0-3.741,3.523V1835.9a3.717,3.717,0,0,0,3.67,3.44l73.593-.2a3.449,3.449,0,0,0,2.453-1.035,3.515,3.515,0,0,0,.985-2.492l-3.156-169.657Z" transform="translate(-1011.87 -1662.54)" fill="url(#linear-gradient-2)"/>
            <g id="Grupo_6825" data-name="Grupo 6825" transform="translate(5.496 9.638)" opacity="0.5">
              <g id="Grupo_6816" data-name="Grupo 6816">
                <path id="Caminho_40430" data-name="Caminho 40430" d="M1078.511,1754.336l-20.052-.027-.16-10.348h20.072Z" transform="translate(-1058.3 -1743.96)" fill="#fff"/>
                <path id="Caminho_40431" data-name="Caminho 40431" d="M1268.689,1754.33l-20.031-.026-.137-10.344h20.052Z" transform="translate(-1226.003 -1743.96)" fill="#fff"/>
                <path id="Caminho_40432" data-name="Caminho 40432" d="M1458.676,1754.325l-20.01-.027-.116-10.338h20.03Z" transform="translate(-1393.538 -1743.96)" fill="#fff"/>
              </g>
              <g id="Grupo_6817" data-name="Grupo 6817" transform="translate(0.286 18.656)">
                <path id="Caminho_40433" data-name="Caminho 40433" d="M1080.895,1912l-20.016.013-.159-10.281,20.036-.008Z" transform="translate(-1060.72 -1901.701)" fill="#fff"/>
                <path id="Caminho_40434" data-name="Caminho 40434" d="M1270.743,1911.911l-20,.013-.136-10.276,20.016-.008Z" transform="translate(-1228.132 -1901.63)" fill="#fff"/>
                <path id="Caminho_40435" data-name="Caminho 40435" d="M1460.4,1911.827l-19.976.012-.115-10.27,19.995-.008Z" transform="translate(-1395.376 -1901.56)" fill="#fff"/>
              </g>
              <g id="Grupo_6818" data-name="Grupo 6818" transform="translate(0.572 37.121)">
                <path id="Caminho_40436" data-name="Caminho 40436" d="M1083.269,2068.1l-19.982.021-.157-10.245,20-.017Z" transform="translate(-1063.13 -2057.823)" fill="#fff"/>
                <path id="Caminho_40437" data-name="Caminho 40437" d="M1272.788,2067.936l-19.962.021-.136-10.24,19.98-.017Z" transform="translate(-1230.251 -2057.682)" fill="#fff"/>
                <path id="Caminho_40438" data-name="Caminho 40438" d="M1462.106,2067.78l-19.941.021-.115-10.235,19.962-.017Z" transform="translate(-1397.195 -2057.55)" fill="#fff"/>
              </g>
              <g id="Grupo_6819" data-name="Grupo 6819" transform="translate(0.856 55.523)">
                <path id="Caminho_40439" data-name="Caminho 40439" d="M1085.634,2223.666l-19.946.03-.157-10.211,19.966-.025Z" transform="translate(-1065.53 -2213.406)" fill="#fff"/>
                <path id="Caminho_40440" data-name="Caminho 40440" d="M1274.822,2223.43l-19.927.03-.135-10.2,19.946-.025Z" transform="translate(-1232.36 -2213.203)" fill="#fff"/>
                <path id="Caminho_40441" data-name="Caminho 40441" d="M1463.812,2223.194l-19.907.03-.115-10.2,19.927-.024Z" transform="translate(-1399.013 -2213)" fill="#fff"/>
              </g>
              <g id="Grupo_6820" data-name="Grupo 6820" transform="translate(1.139 73.86)">
                <path id="Caminho_40442" data-name="Caminho 40442" d="M1087.989,2378.7l-19.912.037-.157-10.174,19.932-.033Z" transform="translate(-1067.92 -2368.457)" fill="#fff"/>
                <path id="Caminho_40443" data-name="Caminho 40443" d="M1276.848,2378.385l-19.893.038-.135-10.169,19.912-.033Z" transform="translate(-1234.459 -2368.183)" fill="#fff"/>
                <path id="Caminho_40444" data-name="Caminho 40444" d="M1465.516,2378.07l-19.873.037-.114-10.165,19.892-.032Z" transform="translate(-1400.83 -2367.91)" fill="#fff"/>
              </g>
              <g id="Grupo_6821" data-name="Grupo 6821" transform="translate(1.421 92.134)">
                <path id="Caminho_40445" data-name="Caminho 40445" d="M1090.335,2533.2l-19.877.045-.157-10.139,19.9-.041Z" transform="translate(-1070.3 -2522.968)" fill="#fff"/>
                <path id="Caminho_40446" data-name="Caminho 40446" d="M1278.872,2532.8l-19.857.045-.135-10.134,19.876-.042Z" transform="translate(-1236.557 -2522.624)" fill="#fff"/>
                <path id="Caminho_40447" data-name="Caminho 40447" d="M1467.212,2532.406l-19.838.045-.114-10.129,19.857-.042Z" transform="translate(-1402.637 -2522.28)" fill="#fff"/>
              </g>
              <g id="Grupo_6822" data-name="Grupo 6822" transform="translate(1.702 110.346)">
                <path id="Caminho_40448" data-name="Caminho 40448" d="M1092.679,2687.16l-19.843.053-.156-10.1,19.862-.049Z" transform="translate(-1072.68 -2676.95)" fill="#fff"/>
                <path id="Caminho_40449" data-name="Caminho 40449" d="M1280.888,2686.686l-19.824.053-.134-10.1,19.842-.05Z" transform="translate(-1238.646 -2676.536)" fill="#fff"/>
                <path id="Caminho_40450" data-name="Caminho 40450" d="M1468.9,2686.22l-19.8.053-.114-10.095,19.823-.049Z" transform="translate(-1404.436 -2676.13)" fill="#fff"/>
              </g>
              <g id="Grupo_6823" data-name="Grupo 6823" transform="translate(1.983 128.495)">
                <path id="Caminho_40451" data-name="Caminho 40451" d="M1095.014,2840.587l-19.809.062-.155-10.07,19.828-.058Z" transform="translate(-1075.05 -2830.393)" fill="#fff"/>
                <path id="Caminho_40452" data-name="Caminho 40452" d="M1282.894,2840.042l-19.79.06-.134-10.064,19.808-.058Z" transform="translate(-1240.725 -2829.917)" fill="#fff"/>
                <path id="Caminho_40453" data-name="Caminho 40453" d="M1470.582,2839.5l-19.77.062-.113-10.06,19.789-.057Z" transform="translate(-1406.232 -2829.45)" fill="#fff"/>
              </g>
              <g id="Grupo_6824" data-name="Grupo 6824" transform="translate(2.262 146.581)">
                <path id="Caminho_40454" data-name="Caminho 40454" d="M1097.34,2993.491l-19.776.07-.154-10.036,19.794-.065Z" transform="translate(-1077.41 -2983.315)" fill="#fff"/>
                <path id="Caminho_40455" data-name="Caminho 40455" d="M1284.889,2992.876l-19.756.069-.134-10.03,19.775-.065Z" transform="translate(-1242.794 -2982.778)" fill="#fff"/>
                <path id="Caminho_40456" data-name="Caminho 40456" d="M1472.258,2992.26l-19.736.07-.113-10.026,19.756-.064Z" transform="translate(-1408.019 -2982.24)" fill="#fff"/>
              </g>
            </g>
          </g>
          <g id="Grupo_6837" data-name="Grupo 6837" transform="translate(0 38.767)">
            <path id="Caminho_40457" data-name="Caminho 40457" d="M568.474,1992.722c-.044-1.477-1.92-2.692-4.221-2.692H477.281c-2.332,0-4.621,1.278-4.621,2.776v133.806a2.639,2.639,0,0,0,1.441,1.919,5.99,5.99,0,0,0,3.093.791l90.932-.16a5.691,5.691,0,0,0,3.03-.814,2.36,2.36,0,0,0,1.217-1.963l-3.9-133.664Z" transform="translate(-472.66 -1990.03)" fill="url(#linear-gradient-3)"/>
            <g id="Grupo_6836" data-name="Grupo 6836" transform="translate(6.792 7.591)" opacity="0.5">
              <g id="Grupo_6827" data-name="Grupo 6827">
                <path id="Caminho_40458" data-name="Caminho 40458" d="M555.012,2062.335l-24.776-.021-.2-8.154h24.8Z" transform="translate(-530.04 -2054.16)" fill="#fff"/>
                <path id="Caminho_40459" data-name="Caminho 40459" d="M790,2062.331l-24.751-.021-.169-8.15h24.775Z" transform="translate(-737.257 -2054.16)" fill="#fff"/>
                <path id="Caminho_40460" data-name="Caminho 40460" d="M1024.75,2062.327l-24.726-.021-.143-8.145h24.751Z" transform="translate(-944.263 -2054.16)" fill="#fff"/>
              </g>
              <g id="Grupo_6828" data-name="Grupo 6828" transform="translate(0.353 14.699)">
                <path id="Caminho_40461" data-name="Caminho 40461" d="M557.949,2186.556l-24.732.011-.2-8.1,24.757-.006Z" transform="translate(-533.02 -2178.445)" fill="#fff"/>
                <path id="Caminho_40462" data-name="Caminho 40462" d="M792.528,2186.483l-24.708.01-.169-8.1,24.732-.007Z" transform="translate(-739.876 -2178.383)" fill="#fff"/>
                <path id="Caminho_40463" data-name="Caminho 40463" d="M1026.876,2186.418l-24.684.011-.142-8.092,24.707-.007Z" transform="translate(-946.529 -2178.33)" fill="#fff"/>
              </g>
              <g id="Grupo_6829" data-name="Grupo 6829" transform="translate(0.706 29.247)">
                <path id="Caminho_40464" data-name="Caminho 40464" d="M560.885,2309.538l-24.689.017-.2-8.072,24.713-.013Z" transform="translate(-536 -2301.441)" fill="#fff"/>
                <path id="Caminho_40465" data-name="Caminho 40465" d="M795.054,2309.415l-24.666.017-.168-8.069,24.689-.013Z" transform="translate(-742.494 -2301.336)" fill="#fff"/>
                <path id="Caminho_40466" data-name="Caminho 40466" d="M1028.992,2309.29l-24.641.017-.141-8.064,24.665-.013Z" transform="translate(-948.786 -2301.23)" fill="#fff"/>
              </g>
              <g id="Grupo_6830" data-name="Grupo 6830" transform="translate(1.056 43.744)">
                <path id="Caminho_40467" data-name="Caminho 40467" d="M563.8,2432.11l-24.647.022-.2-8.044,24.672-.019Z" transform="translate(-538.96 -2424.026)" fill="#fff"/>
                <path id="Caminho_40468" data-name="Caminho 40468" d="M797.57,2431.916l-24.622.024-.168-8.04,24.646-.02Z" transform="translate(-745.102 -2423.859)" fill="#fff"/>
                <path id="Caminho_40469" data-name="Caminho 40469" d="M1031.1,2431.731l-24.6.024-.141-8.036,24.622-.019Z" transform="translate(-951.032 -2423.7)" fill="#fff"/>
              </g>
              <g id="Grupo_6831" data-name="Grupo 6831" transform="translate(1.406 58.191)">
                <path id="Caminho_40470" data-name="Caminho 40470" d="M566.718,2554.243l-24.6.03-.194-8.016,24.628-.026Z" transform="translate(-541.92 -2546.172)" fill="#fff"/>
                <path id="Caminho_40471" data-name="Caminho 40471" d="M800.076,2554l-24.579.029-.167-8.011,24.6-.026Z" transform="translate(-747.7 -2545.96)" fill="#fff"/>
                <path id="Caminho_40472" data-name="Caminho 40472" d="M1033.2,2553.745l-24.556.029-.141-8.008,24.579-.026Z" transform="translate(-953.269 -2545.74)" fill="#fff"/>
              </g>
              <g id="Grupo_6832" data-name="Grupo 6832" transform="translate(1.754 72.589)">
                <path id="Caminho_40473" data-name="Caminho 40473" d="M569.616,2675.965l-24.562.036-.194-7.989,24.585-.032Z" transform="translate(-544.86 -2667.908)" fill="#fff"/>
                <path id="Caminho_40474" data-name="Caminho 40474" d="M802.574,2675.652l-24.537.036-.167-7.984,24.56-.033Z" transform="translate(-750.287 -2667.634)" fill="#fff"/>
                <path id="Caminho_40475" data-name="Caminho 40475" d="M1035.293,2675.347l-24.512.036-.141-7.981,24.537-.032Z" transform="translate(-955.503 -2667.37)" fill="#fff"/>
              </g>
              <g id="Grupo_6833" data-name="Grupo 6833" transform="translate(2.102 86.936)">
                <path id="Caminho_40476" data-name="Caminho 40476" d="M572.512,2797.267l-24.519.042-.193-7.962,24.543-.038Z" transform="translate(-547.8 -2789.222)" fill="#fff"/>
                <path id="Caminho_40477" data-name="Caminho 40477" d="M805.061,2796.894l-24.5.042-.166-7.957,24.519-.039Z" transform="translate(-752.866 -2788.896)" fill="#fff"/>
                <path id="Caminho_40478" data-name="Caminho 40478" d="M1037.38,2796.52l-24.47.043-.14-7.954,24.494-.039Z" transform="translate(-957.729 -2788.57)" fill="#fff"/>
              </g>
              <g id="Grupo_6834" data-name="Grupo 6834" transform="translate(2.448 101.236)">
                <path id="Caminho_40479" data-name="Caminho 40479" d="M575.389,2918.15l-24.478.049-.192-7.935,24.5-.044Z" transform="translate(-550.72 -2910.119)" fill="#fff"/>
                <path id="Caminho_40480" data-name="Caminho 40480" d="M807.538,2917.716l-24.453.049-.166-7.93,24.476-.045Z" transform="translate(-755.433 -2909.74)" fill="#fff"/>
                <path id="Caminho_40481" data-name="Caminho 40481" d="M1039.458,2917.292l-24.428.048-.14-7.926,24.453-.044Z" transform="translate(-959.944 -2909.37)" fill="#fff"/>
              </g>
              <g id="Grupo_6835" data-name="Grupo 6835" transform="translate(2.794 115.484)">
                <path id="Caminho_40482" data-name="Caminho 40482" d="M578.266,3038.613l-24.435.054-.191-7.906,24.458-.051Z" transform="translate(-553.64 -3030.595)" fill="#fff"/>
                <path id="Caminho_40483" data-name="Caminho 40483" d="M810.016,3038.119l-24.411.055-.165-7.9,24.434-.052Z" transform="translate(-758.001 -3030.163)" fill="#fff"/>
                <path id="Caminho_40484" data-name="Caminho 40484" d="M1041.535,3037.635l-24.386.054-.138-7.9,24.41-.051Z" transform="translate(-962.159 -3029.74)" fill="#fff"/>
              </g>
            </g>
          </g>
          <g id="Grupo_6839" data-name="Grupo 6839" transform="translate(118.631 64.89)">
            <path id="Caminho_40485" data-name="Caminho 40485" d="M1566.351,2212.1c-.026-.768-1.182-1.386-2.6-1.386h-85.969c-1.436,0-2.962.637-2.962,1.416v108.748c0,.581.607,1.139,1.366,1.548a6.534,6.534,0,0,0,2.951.638l86.91-.129a6.2,6.2,0,0,0,2.9-.657,1.873,1.873,0,0,0,1.162-1.572l-3.754-108.606Z" transform="translate(-1474.82 -2210.71)" fill="url(#linear-gradient-4)"/>
            <g id="Grupo_6838" data-name="Grupo 6838" transform="translate(13.511 5.747)">
              <path id="Caminho_40486" data-name="Caminho 40486" d="M1621.532,2261.22l-28.122-.053.011-1.907,28.09.048Z" transform="translate(-1592.883 -2259.26)" fill="#fff" style="mix-blend-mode: overlay;isolation: isolate"/>
              <path id="Caminho_40487" data-name="Caminho 40487" d="M1621.327,2320.322l-28.237-.07.011-1.922,28.205.065Z" transform="translate(-1592.601 -2311.338)" fill="#fff" style="mix-blend-mode: overlay;isolation: isolate"/>
              <path id="Caminho_40488" data-name="Caminho 40488" d="M1621.114,2379.906l-28.354-.087.011-1.939,28.322.083Z" transform="translate(-1592.31 -2363.838)" fill="#fff" style="mix-blend-mode: overlay;isolation: isolate"/>
              <path id="Caminho_40489" data-name="Caminho 40489" d="M1620.9,2439.99l-28.472-.105.011-1.954,28.439.1Z" transform="translate(-1592.019 -2416.78)" fill="#fff" style="mix-blend-mode: overlay;isolation: isolate"/>
              <path id="Caminho_40490" data-name="Caminho 40490" d="M1620.681,2500.564l-28.591-.123.012-1.971,28.558.119Z" transform="translate(-1591.719 -2470.153)" fill="#fff" style="mix-blend-mode: overlay;isolation: isolate"/>
              <path id="Caminho_40491" data-name="Caminho 40491" d="M1620.25,2623.244l-28.83-.16.011-2,28.8.155Z" transform="translate(-1591.129 -2578.25)" fill="#fff" style="mix-blend-mode: overlay;isolation: isolate"/>
              <path id="Caminho_40492" data-name="Caminho 40492" d="M1619.578,2811.163l-29.2-.217.012-2.056,29.164.212Z" transform="translate(-1590.212 -2743.827)" fill="#fff" style="mix-blend-mode: overlay;isolation: isolate"/>
              <path id="Caminho_40493" data-name="Caminho 40493" d="M1620.469,2561.648l-28.709-.141.01-1.988,28.678.136Z" transform="translate(-1591.429 -2523.976)" fill="#fff" style="mix-blend-mode: overlay;isolation: isolate"/>
              <path id="Caminho_40494" data-name="Caminho 40494" d="M1620.032,2685.359l-28.952-.179.011-2.02,28.919.173Z" transform="translate(-1590.829 -2632.981)" fill="#fff" style="mix-blend-mode: overlay;isolation: isolate"/>
              <path id="Caminho_40495" data-name="Caminho 40495" d="M1619.805,2748l-29.075-.2.012-2.038,29.041.192Z" transform="translate(-1590.52 -2688.17)" fill="#fff" style="mix-blend-mode: overlay;isolation: isolate"/>
              <path id="Caminho_40496" data-name="Caminho 40496" d="M1619.354,2874.871l-29.324-.237.012-2.074,29.289.232Z" transform="translate(-1589.903 -2799.96)" fill="#fff" style="mix-blend-mode: overlay;isolation: isolate"/>
              <path id="Caminho_40497" data-name="Caminho 40497" d="M1619.128,2939.127l-29.448-.257.012-2.091,29.414.251Z" transform="translate(-1589.595 -2856.579)" fill="#fff" style="mix-blend-mode: overlay;isolation: isolate"/>
              <path id="Caminho_40498" data-name="Caminho 40498" d="M1618.9,3003.928l-29.576-.278.012-2.11,29.541.272Z" transform="translate(-1589.277 -2913.673)" fill="#fff" style="mix-blend-mode: overlay;isolation: isolate"/>
              <path id="Caminho_40499" data-name="Caminho 40499" d="M1618.664,3069.3l-29.7-.3.012-2.127,29.668.292Z" transform="translate(-1588.96 -2971.269)" fill="#fff" style="mix-blend-mode: overlay;isolation: isolate"/>
              <path id="Caminho_40500" data-name="Caminho 40500" d="M1931.468,2261.756l-28.3-.053-.03-1.913,28.267.049Z" transform="translate(-1865.949 -2259.727)" fill="#fff" style="mix-blend-mode: overlay;isolation: isolate"/>
              <path id="Caminho_40501" data-name="Caminho 40501" d="M1932.527,2321.049l-28.416-.071-.031-1.928,28.384.065Z" transform="translate(-1866.778 -2311.972)" fill="#fff" style="mix-blend-mode: overlay;isolation: isolate"/>
              <path id="Caminho_40502" data-name="Caminho 40502" d="M1933.6,2380.823l-28.534-.088-.031-1.945,28.5.083Z" transform="translate(-1867.624 -2364.641)" fill="#fff" style="mix-blend-mode: overlay;isolation: isolate"/>
              <path id="Caminho_40503" data-name="Caminho 40503" d="M1934.685,2441.1l-28.653-.105-.032-1.961,28.621.1Z" transform="translate(-1868.47 -2417.75)" fill="#fff" style="mix-blend-mode: overlay;isolation: isolate"/>
              <path id="Caminho_40504" data-name="Caminho 40504" d="M1935.775,2501.871l-28.773-.123-.032-1.978,28.74.118Z" transform="translate(-1869.326 -2471.3)" fill="#fff" style="mix-blend-mode: overlay;isolation: isolate"/>
              <path id="Caminho_40505" data-name="Caminho 40505" d="M1937.988,2624.952l-29.016-.161-.032-2.011,28.983.156Z" transform="translate(-1871.062 -2579.748)" fill="#fff" style="mix-blend-mode: overlay;isolation: isolate"/>
              <path id="Caminho_40506" data-name="Caminho 40506" d="M1941.381,2813.511l-29.389-.219-.032-2.062,29.353.213Z" transform="translate(-1873.725 -2745.89)" fill="#fff" style="mix-blend-mode: overlay;isolation: isolate"/>
              <path id="Caminho_40507" data-name="Caminho 40507" d="M1936.876,2563.155l-28.894-.141-.032-1.995,28.861.137Z" transform="translate(-1870.19 -2525.299)" fill="#fff" style="mix-blend-mode: overlay;isolation: isolate"/>
              <path id="Caminho_40508" data-name="Caminho 40508" d="M1939.111,2687.278l-29.139-.18-.032-2.028,29.1.174Z" transform="translate(-1871.944 -2634.665)" fill="#fff" style="mix-blend-mode: overlay;isolation: isolate"/>
              <path id="Caminho_40509" data-name="Caminho 40509" d="M1940.237,2750.124l-29.264-.2-.033-2.046,29.229.194Z" transform="translate(-1872.826 -2690.04)" fill="#fff" style="mix-blend-mode: overlay;isolation: isolate"/>
              <path id="Caminho_40510" data-name="Caminho 40510" d="M1942.528,2877.429l-29.514-.238-.033-2.081,29.48.233Z" transform="translate(-1874.624 -2802.209)" fill="#fff" style="mix-blend-mode: overlay;isolation: isolate"/>
              <path id="Caminho_40511" data-name="Caminho 40511" d="M1943.685,2941.907l-29.642-.259-.033-2.1,29.607.253Z" transform="translate(-1875.532 -2859.021)" fill="#fff" style="mix-blend-mode: overlay;isolation: isolate"/>
              <path id="Caminho_40512" data-name="Caminho 40512" d="M1944.854,3006.936l-29.771-.28-.033-2.116,29.736.273Z" transform="translate(-1876.449 -2916.318)" fill="#fff" style="mix-blend-mode: overlay;isolation: isolate"/>
              <path id="Caminho_40513" data-name="Caminho 40513" d="M1946.034,3072.526l-29.9-.3-.034-2.135,29.865.295Z" transform="translate(-1877.375 -2974.108)" fill="#fff" style="mix-blend-mode: overlay;isolation: isolate"/>
            </g>
          </g>
        </g>
        <g id="Grupo_6841" data-name="Grupo 6841" transform="translate(0 38.892)">
          <path id="Caminho_40514" data-name="Caminho 40514" d="M619.069,2935.413a552.752,552.752,0,0,1-153.343-.5,10.753,10.753,0,0,1-8.871-13.539l2.953-10.564a8.153,8.153,0,0,1,7.226-5.937c51.955-3.965,102.708-5.739,150.024-1.237a8.653,8.653,0,0,1,7.184,5.289l4.211,10.151a11.893,11.893,0,0,1-9.384,16.331Z" transform="translate(-456.454 -2640.865)" fill="url(#linear-gradient-5)"/>
          <path id="Caminho_40515" data-name="Caminho 40515" d="M1185.58,1389.622l14.264,71.652a2.316,2.316,0,0,0,1.795,1.817,14.865,14.865,0,0,0,10.579-1.879,2.331,2.331,0,0,0,1.122-2.462L1199.1,1386.58l-13.524,3.043Z" transform="translate(-1099.27 -1305.727)" fill="url(#linear-gradient-6)"/>
          <path id="Caminho_40516" data-name="Caminho 40516" d="M1073.8,982.863l22.089,110.958a3.582,3.582,0,0,0,2.778,2.813,23.02,23.02,0,0,0,16.383-2.908,3.609,3.609,0,0,0,1.738-3.813L1094.744,978.15l-20.944,4.713Z" transform="translate(-1000.722 -945.645)" fill="url(#linear-gradient-7)"/>
          <path id="Caminho_40517" data-name="Caminho 40517" d="M992.64,746.012l26.246,128.393a4.828,4.828,0,0,0,3.745,3.792,31.026,31.026,0,0,0,22.084-3.921,4.864,4.864,0,0,0,2.343-5.14L1020.871,739.66Z" transform="translate(-929.169 -735.386)" fill="url(#linear-gradient-8)"/>
          <path id="Caminho_40518" data-name="Caminho 40518" d="M968.983,713.771l.844,1.52a2.67,2.67,0,0,0,2.869,1.32l27-5.523a2.67,2.67,0,0,0,2.135-2.616v-2.248a2.67,2.67,0,0,0-3.255-2.605l-27.845,6.251a2.67,2.67,0,0,0-1.75,3.9Z" transform="translate(-908.013 -703.552)" fill="url(#linear-gradient-9)"/>
          <path id="Caminho_40519" data-name="Caminho 40519" d="M1008.937,945.386l28.274-5.726,2.179.182a2.891,2.891,0,0,1,2.385,1.67h0a4.7,4.7,0,0,1-1.441,3.384l-1.757,1.688-28.262,5.725-3.712-1.424a2.276,2.276,0,0,1-1.218-1.1h0a2.305,2.305,0,0,1,1-3.079Z" transform="translate(-940.191 -911.711)" fill="url(#linear-gradient-10)"/>
          <path id="Caminho_40520" data-name="Caminho 40520" d="M669.534,1142.475l-3.746-31.842a4.47,4.47,0,0,1,3.623-4.916l30-5.555a4.03,4.03,0,0,1,4.7,3.267l11.3,64.453a118.188,118.188,0,0,1-41.642,7.764s-4.234-9.175-10.586-8.47-26.115,9.175-22.585,48.7,31.76,34.583,31.76,34.583l12,54.346s-61.06-10.616-67.05-78.343c-3.7-41.809,21.946-68.489,32.037-77.269a18.613,18.613,0,0,1,8.266-4.128l11.925-2.592Z" transform="translate(-597.946 -1053.153)" fill="url(#linear-gradient-6)"/>
          <path id="Caminho_40521" data-name="Caminho 40521" d="M812.517,2543.111l10.893-40.978a12.855,12.855,0,0,1,12.423-9.553h6.417a12.625,12.625,0,0,1,12.24,9.53l10.379,41.049a4.158,4.158,0,0,1-4.032,5.177h-44.3a4.159,4.159,0,0,1-4.019-5.226Z" transform="translate(-770.242 -2280.804)" fill="url(#linear-gradient-12)"/>
          <path id="Caminho_40522" data-name="Caminho 40522" d="M987.141,2567.345a9.175,9.175,0,1,1-9.175-9.175A9.175,9.175,0,0,1,987.141,2567.345Z" transform="translate(-908.142 -2338.63)" fill="url(#linear-gradient-13)"/>
          <path id="Caminho_40523" data-name="Caminho 40523" d="M1113.108,2247.493c-8.244-6.733-24.1-11.293-42.311-11.293s-34.067,4.56-42.311,11.293h-6.036v10.586c0,12.084,21.646,21.879,48.347,21.879s48.347-9.8,48.347-21.879v-10.586h-6.036Z" transform="translate(-955.45 -2054.773)" fill="url(#linear-gradient-14)"/>
          <ellipse id="Elipse_630" data-name="Elipse 630" cx="48.347" cy="21.879" rx="48.347" ry="21.879" transform="translate(67 170.841)" fill="url(#linear-gradient-15)"/>
          <ellipse id="Elipse_631" data-name="Elipse 631" cx="40.583" cy="16.586" rx="40.583" ry="16.586" transform="translate(74.764 175.782)" fill="url(#linear-gradient-16)"/>
          <path id="Caminho_40524" data-name="Caminho 40524" d="M1128.623,2191.332c21.248,0,38.672,6.675,40.426,15.175a6.978,6.978,0,0,0,.156-1.411c0-9.16-18.169-16.585-40.583-16.585s-40.583,7.426-40.583,16.585a6.977,6.977,0,0,0,.156,1.411C1089.95,2198.007,1107.374,2191.332,1128.623,2191.332Z" transform="translate(-1013.276 -2012.728)" fill="url(#linear-gradient-17)"/>
          <ellipse id="Elipse_632" data-name="Elipse 632" cx="17.292" cy="16.233" rx="17.292" ry="16.233" transform="translate(55.354 63.208)" fill="url(#linear-gradient-16)"/>
          <circle id="Elipse_633" data-name="Elipse 633" cx="11.646" cy="11.646" r="11.646" transform="translate(56.177 80.5) rotate(-45)" fill="url(#linear-gradient-6)"/>
          <path id="Caminho_40525" data-name="Caminho 40525" d="M1584.813,3022a1.006,1.006,0,0,1-.181-1.995c2.773-.509,5.536-1.077,8.209-1.689a1.005,1.005,0,0,1,.449,1.96c-2.7.619-5.493,1.193-8.3,1.707a.98.98,0,0,1-.182.017Z" transform="translate(-1450.358 -2744.28)" fill="#fff"/>
          <path id="Caminho_40526" data-name="Caminho 40526" d="M611.257,2999.188a363.639,363.639,0,0,1-79.646-9.141,1.005,1.005,0,1,1,.5-1.948c.584.148,59.019,14.769,116,6.6a1.006,1.006,0,0,1,.285,1.991,263.157,263.157,0,0,1-37.138,2.5Z" transform="translate(-522.047 -2717.638)" fill="#fff"/>
          <path id="Caminho_40527" data-name="Caminho 40527" d="M1389.177,1577.81a1.006,1.006,0,0,1-.991-.838l-.862-5.133a1.006,1.006,0,0,1,1.984-.334l.862,5.133a1.006,1.006,0,0,1-.825,1.159,1.02,1.02,0,0,1-.167.014Z" transform="translate(-1277.12 -1468.023)" fill="#fff"/>
          <path id="Caminho_40528" data-name="Caminho 40528" d="M1283.356,1167.743a1.007,1.007,0,0,1-.991-.838l-7.246-43.147a1,1,0,0,0-1.127-.83l-2.99.407a1.005,1.005,0,1,1-.271-1.992l2.99-.407a3,3,0,0,1,3.383,2.49l7.246,43.145a1.006,1.006,0,0,1-.825,1.159,1.182,1.182,0,0,1-.167.014Z" transform="translate(-1173.574 -1071.504)" fill="#fff"/>
        </g>
        <g id="Grupo_6847" data-name="Grupo 6847" transform="translate(107.273 29.647)">
          <g id="Grupo_6842" data-name="Grupo 6842" transform="translate(0 0)">
            <circle id="Elipse_634" data-name="Elipse 634" cx="57.904" cy="57.904" r="57.904" transform="translate(0 81.889) rotate(-45)" fill="url(#linear-gradient-20)"/>
            <circle id="Elipse_635" data-name="Elipse 635" cx="55.978" cy="55.978" r="55.978" transform="translate(2.724 81.889) rotate(-45)" fill="url(#linear-gradient-21)"/>
            <path id="Caminho_40529" data-name="Caminho 40529" d="M1614.106,1241.923h-.032a.592.592,0,0,1-.56-.621,52.478,52.478,0,0,1,.76-6.565.591.591,0,1,1,1.164.211,51.465,51.465,0,0,0-.742,6.416.591.591,0,0,1-.59.561Z" transform="translate(-1583.82 -1162.184)" fill="#fff"/>
            <path id="Caminho_40530" data-name="Caminho 40530" d="M1660.087,905.3a.583.583,0,0,1-.266-.064.592.592,0,0,1-.262-.794,52.047,52.047,0,0,1,46.687-28.746,52.707,52.707,0,0,1,9.428.849.591.591,0,1,1-.212,1.164,51.55,51.55,0,0,0-9.217-.83,50.87,50.87,0,0,0-45.631,28.1A.592.592,0,0,1,1660.087,905.3Z" transform="translate(-1624.358 -846.078)" fill="#fff"/>
            <circle id="Elipse_636" data-name="Elipse 636" cx="47.38" cy="47.38" r="47.38" transform="translate(16.105 83.108) rotate(-45)" fill="#fff" opacity="0.78"/>
          </g>
          <g id="Grupo_6846" data-name="Grupo 6846" transform="translate(47.382 51.558)">
            <g id="Grupo_6843" data-name="Grupo 6843" transform="translate(44.774 23.268)">
              <path id="Caminho_40531" data-name="Caminho 40531" d="M2200.688,1262.542a7.868,7.868,0,0,0-14.536-.233l-4.341,10.022a4.1,4.1,0,0,1,2.139,2.43,8.191,8.191,0,0,1,2.331.43c2.447.833,5.112,2.4,7.645,2.728a6.072,6.072,0,0,1,2.274.782l4.391-10.14a7.841,7.841,0,0,0,.1-6.021Z" transform="translate(-2177 -1257.566)" fill="url(#linear-gradient-22)"/>
              <path id="Caminho_40532" data-name="Caminho 40532" d="M2160.516,1386.765l-4.25,9.811a7.868,7.868,0,1,1-14.439-6.255l4.25-9.811,14.439,6.254Z" transform="translate(-2141.177 -1365.956)" fill="url(#linear-gradient-23)"/>
            </g>
            <g id="Grupo_6844" data-name="Grupo 6844" transform="translate(16.198)">
              <path id="Caminho_40533" data-name="Caminho 40533" d="M2062.295,1061.007l-11.1.3v15.742l11.534-.315a7.868,7.868,0,0,0-.43-15.73Z" transform="translate(-2033.266 -1061.004)" fill="url(#linear-gradient-24)"/>
              <path id="Caminho_40534" data-name="Caminho 40534" d="M1918.545,1079.22l-10.688.292a7.868,7.868,0,1,1-.43-15.73l10.688-.292Z" transform="translate(-1899.775 -1063.196)" fill="url(#linear-gradient-25)"/>
            </g>
            <g id="Grupo_6845" data-name="Grupo 6845" transform="translate(0 36.114)">
              <path id="Caminho_40535" data-name="Caminho 40535" d="M1898.51,1412.629l-10.038-4.538c-.04.079-.077.162-.122.239a4.5,4.5,0,0,1-2.463,2.025,51.93,51.93,0,0,1-3.607,9.087c-.019.035-.041.067-.062.1a4.2,4.2,0,0,1-.208,2.893l10.019,4.53a7.868,7.868,0,1,0,6.483-14.338Z" transform="translate(-1867.915 -1403.118)" fill="url(#linear-gradient-26)"/>
              <path id="Caminho_40536" data-name="Caminho 40536" d="M1777.312,1385.533l-9.742-4.4a7.868,7.868,0,1,1,6.483-14.338l9.742,4.4-6.482,14.338Z" transform="translate(-1762.942 -1366.089)" fill="url(#linear-gradient-27)"/>
            </g>
          </g>
        </g>
        <g id="Grupo_6848" data-name="Grupo 6848" transform="translate(174.348 1.253)">
          <circle id="Elipse_637" data-name="Elipse 637" cx="18.372" cy="18.372" r="18.372" transform="translate(0 25.982) rotate(-45)" fill="url(#linear-gradient-28)"/>
          <circle id="Elipse_638" data-name="Elipse 638" cx="17.761" cy="17.761" r="17.761" transform="translate(0.864 25.982) rotate(-45)" fill="url(#linear-gradient-29)"/>
          <path id="Caminho_40537" data-name="Caminho 40537" d="M2016.618,472.811a.594.594,0,0,1-.588-.823,16.918,16.918,0,0,1,14.483-10.384,17.105,17.105,0,0,1,3.076.06.594.594,0,1,1-.13,1.18,16.04,16.04,0,0,0-2.862-.056,15.734,15.734,0,0,0-13.471,9.658.6.6,0,0,1-.507.363Z" transform="translate(-2005.722 -452.57)" fill="#fff"/>
          <circle id="Elipse_639" data-name="Elipse 639" cx="15.032" cy="15.032" r="15.032" transform="translate(5.136 26.341) rotate(-45)" fill="#fff" opacity="0.78"/>
          <path id="Caminho_40538" data-name="Caminho 40538" d="M2100.925,540.078l-.115-1.631a13.345,13.345,0,0,1-4.648-.671.946.946,0,0,1-.6-1.078l.308-1.548a.953.953,0,0,1,1.248-.713,11.075,11.075,0,0,0,4.289.593c1.638-.115,2.821-.756,2.74-1.894-.072-1.028-1.059-1.572-3.378-2.023-3.311-.661-5.742-1.913-5.944-4.772-.181-2.582,1.569-4.685,4.807-5.443l-.115-1.631a.953.953,0,0,1,.884-1.017l.959-.067a.953.953,0,0,1,1.017.884l.1,1.464a12.167,12.167,0,0,1,3.675.4.948.948,0,0,1,.671,1.1l-.283,1.432a.95.95,0,0,1-1.206.728,9.92,9.92,0,0,0-3.6-.4c-1.944.136-2.442.98-2.391,1.7.063.888,1.271,1.417,3.852,2.017,3.685.83,5.29,2.223,5.479,4.916.174,2.47-1.5,4.82-5.018,5.625l.128,1.825a.952.952,0,0,1-.884,1.017l-.959.068a.953.953,0,0,1-1.017-.884Z" transform="translate(-2075.219 -502.485)" fill="url(#linear-gradient-30)"/>
        </g>
        <g id="Grupo_6849" data-name="Grupo 6849" transform="translate(200.576)">
          <circle id="Elipse_640" data-name="Elipse 640" cx="24.674" cy="24.674" r="24.674" transform="translate(0 34.895) rotate(-45)" fill="url(#linear-gradient-31)"/>
          <circle id="Elipse_641" data-name="Elipse 641" cx="23.854" cy="23.854" r="23.854" transform="translate(1.159 34.895) rotate(-45)" fill="url(#linear-gradient-32)"/>
          <path id="Caminho_40539" data-name="Caminho 40539" d="M2273.042,492.427a.6.6,0,0,1-.275-.059.608.608,0,0,1-.288-.81,22.532,22.532,0,0,1,19.914-12.915,22.781,22.781,0,0,1,4.089.272.608.608,0,0,1-.189,1.2,21.679,21.679,0,0,0-3.871-.257,21.323,21.323,0,0,0-18.845,12.221A.606.606,0,0,1,2273.042,492.427Z" transform="translate(-2258.031 -466.37)" fill="#fff"/>
          <circle id="Elipse_642" data-name="Elipse 642" cx="20.189" cy="20.189" r="20.189" transform="translate(6.874 35.402) rotate(-45)" fill="#fff" opacity="0.78"/>
          <path id="Caminho_40540" data-name="Caminho 40540" d="M2381.816,582.618l-.051-2.2a17.9,17.9,0,0,1-6.192-1.192,1.272,1.272,0,0,1-.737-1.484l.51-2.058a1.281,1.281,0,0,1,1.719-.878,14.875,14.875,0,0,0,5.716,1.064c2.205-.052,3.832-.838,3.795-2.37-.032-1.383-1.322-2.174-4.406-2.925-4.4-1.094-7.584-2.926-7.674-6.775-.082-3.476,2.4-6.189,6.791-7l-.051-2.2a1.28,1.28,0,0,1,1.249-1.309l1.29-.031a1.28,1.28,0,0,1,1.309,1.25l.046,1.972a16.341,16.341,0,0,1,4.9.762,1.272,1.272,0,0,1,.831,1.519l-.469,1.9a1.276,1.276,0,0,1-1.665.9,13.306,13.306,0,0,0-4.809-.758c-2.616.062-3.338,1.162-3.314,2.134.028,1.2,1.617,1.982,5.042,2.948,4.893,1.344,6.957,3.315,7.042,6.939.078,3.326-2.319,6.373-7.085,7.233l.058,2.457a1.28,1.28,0,0,1-1.25,1.309l-1.29.031A1.28,1.28,0,0,1,2381.816,582.618Z" transform="translate(-2348.021 -532.165)" fill="url(#linear-gradient-33)"/>
        </g>
        <g id="Grupo_6853" data-name="Grupo 6853" transform="translate(137.042 237.343)">
          <g id="Grupo_6850" data-name="Grupo 6850">
            <path id="Caminho_40541" data-name="Caminho 40541" d="M1668.689,2427.031l-.034-20.441h-18.608l.034,19.209a48,48,0,0,1-9.446,28.592l-24.512,33.044a10.016,10.016,0,0,0-1.972,5.968v.014a10.018,10.018,0,0,0,10.018,10.018H1694.8a10.018,10.018,0,0,0,10.018-10.018h0a10.023,10.023,0,0,0-1.988-5.99l-25.4-34.051a44.06,44.06,0,0,1-8.743-26.347Z" transform="translate(-1614.15 -2403.444)" fill="url(#linear-gradient-34)"/>
            <path id="Caminho_40542" data-name="Caminho 40542" d="M1642.823,2519.587a7.525,7.525,0,0,1-6.035-12l24.512-33.044a50.833,50.833,0,0,0,9.94-30.083l-.03-16.7h13.6l.03,17.941a46.867,46.867,0,0,0,9.24,27.839l25.4,34.051a7.514,7.514,0,0,1-6.023,12.005h-70.632Z" transform="translate(-1632.805 -2422.099)" fill="#fff" opacity="0.49"/>
            <path id="Caminho_40543" data-name="Caminho 40543" d="M1911.2,2386.833H1891.51a2.88,2.88,0,0,1-2.88-2.88h0a2.881,2.881,0,0,1,2.726-2.876l19.688-1.058a2.88,2.88,0,0,1,3.035,2.876v1.058a2.88,2.88,0,0,1-2.88,2.88Z" transform="translate(-1856.138 -2380.014)" fill="url(#linear-gradient-35)"/>
            <path id="Caminho_40544" data-name="Caminho 40544" d="M1636.789,2988.888a7.525,7.525,0,0,0,6.035,12h70.632a7.514,7.514,0,0,0,6.023-12.006l-11.343-15.207H1648.07Z" transform="translate(-1632.805 -2903.405)" fill="url(#linear-gradient-36)"/>
          </g>
          <g id="Grupo_6851" data-name="Grupo 6851" transform="translate(89.587 37.824)">
            <path id="Caminho_40545" data-name="Caminho 40545" d="M2399.584,2793.759h0a7.094,7.094,0,0,1-7.094-7.094V2735.9h15.739l-1.552,50.765a7.094,7.094,0,0,1-7.094,7.094Z" transform="translate(-2389.941 -2731.596)" fill="url(#linear-gradient-37)"/>
            <path id="Caminho_40546" data-name="Caminho 40546" d="M2411.971,2792.1a5.437,5.437,0,0,1-5.431-5.431V2735.9H2418.9l-1.5,50.74v.026a5.437,5.437,0,0,1-5.431,5.431Z" transform="translate(-2402.328 -2731.596)" fill="#fff" opacity="0.49"/>
            <path id="Caminho_40547" data-name="Caminho 40547" d="M2389.243,2705.064h-15.95a2.333,2.333,0,0,1-2.333-2.333h0a2.332,2.332,0,0,1,2.208-2.329l15.95-.857a2.333,2.333,0,0,1,2.459,2.33v.857A2.333,2.333,0,0,1,2389.243,2705.064Z" transform="translate(-2370.96 -2699.541)" fill="url(#linear-gradient-38)"/>
            <path id="Caminho_40548" data-name="Caminho 40548" d="M2406.54,2931.591v27.6a5.431,5.431,0,1,0,10.862,0v-.026l.816-27.574H2406.54Z" transform="translate(-2402.328 -2904.121)" fill="url(#linear-gradient-39)"/>
          </g>
          <g id="Grupo_6852" data-name="Grupo 6852" transform="translate(67.959 38.328)">
            <path id="Caminho_40549" data-name="Caminho 40549" d="M2216.874,2798.029h0a7.094,7.094,0,0,1-7.094-7.094V2740.17h15.739l-1.552,50.765a7.094,7.094,0,0,1-7.094,7.094Z" transform="translate(-2207.231 -2735.865)" fill="url(#linear-gradient-37)"/>
            <path id="Caminho_40550" data-name="Caminho 40550" d="M2229.261,2796.376a5.437,5.437,0,0,1-5.431-5.431V2740.18h12.363l-1.5,50.74v.025a5.437,5.437,0,0,1-5.431,5.431Z" transform="translate(-2219.618 -2735.874)" fill="#fff" opacity="0.49"/>
            <path id="Caminho_40551" data-name="Caminho 40551" d="M2206.533,2709.325h-15.95a2.332,2.332,0,0,1-2.333-2.333h0a2.333,2.333,0,0,1,2.208-2.33l15.95-.858a2.333,2.333,0,0,1,2.459,2.33v.857a2.333,2.333,0,0,1-2.333,2.333Z" transform="translate(-2188.25 -2703.801)" fill="url(#linear-gradient-41)"/>
            <path id="Caminho_40552" data-name="Caminho 40552" d="M2223.83,2935.87v27.6a5.431,5.431,0,0,0,10.862,0v-.025l.815-27.574Z" transform="translate(-2219.618 -2908.399)" fill="url(#linear-gradient-42)"/>
          </g>
        </g>
        <g id="Grupo_6858" data-name="Grupo 6858" transform="translate(192.844 100.276)">
          <path id="Caminho_40553" data-name="Caminho 40553" d="M2679.191,1640.377a.206.206,0,0,1,.056.061l.234.011c.025.036.281.1.281.168v0l-.225.076c0,.076-.105.173-.084.279l-.052.046c.264,1.564,1.7,5.842,3.265,11.378.015.046.01.1.026.142,3.517,12.423,8.6,31.123,10.128,39.782a26.26,26.26,0,0,0,6.936,2.012h.01c6.1,1.334,15.307,2.555,23.874.311,0,0-5.952-36.253-11.53-68.815,0,0-4.077-4.971-19.871-5.965-.082,0-.162.277-.244.272-1.274-.071-2.553.17-3.832.17H2686.7a9.205,9.205,0,0,0-3.218.814c-.04.015-.122-.129-.122-.108a1,1,0,0,0-.015-.12s-.239.107-.345.153c-.157.066-.32.133-.488.214a1.074,1.074,0,0,1-.111.051c-.015.011-.035.013-.051.023-.106.056-.218.11-.335.167l-.066.03c-.132.066-.264.136-.4.207-.02.011.086.02.066.035-.157.082-.36.167-.523.253-.146.076-.259.157-.269.244l-.02-.131c-.075.04-.157.086-.233.131a.056.056,0,0,0-.02.011,17.157,17.157,0,0,0-2.476,1.735s0,.011-.01.015l-.036.051c-3.537,5.877-5.181,15.5,1.162,16.291Z" transform="translate(-2605.136 -1572.785)" fill="url(#linear-gradient-43)"/>
          <g id="Grupo_6854" data-name="Grupo 6854" transform="translate(13.159 46.953)">
            <path id="Caminho_40554" data-name="Caminho 40554" d="M2395.585,1649.138c15.918-1.684,23.391-13.947,29.307-21.745,7.812-10.3,16.435-8.517,16.435-8.517l-5.278,22.719c-11.811,18.819-28.7,19.714-40.059,17.563a20.147,20.147,0,0,1-.405-10.018Z" transform="translate(-2371.65 -1618.759)" fill="url(#linear-gradient-44)"/>
            <path id="Caminho_40555" data-name="Caminho 40555" d="M2196.741,1845.471l5.792,1.413a45.927,45.927,0,0,0,18.118,2.128,20.147,20.147,0,0,0,.405,10.018,48.454,48.454,0,0,1-12.214-3.973c-13.293-3.871-12.1-9.588-12.1-9.588Z" transform="translate(-2196.716 -1818.633)" fill="url(#linear-gradient-45)"/>
          </g>
          <path id="Caminho_40556" data-name="Caminho 40556" d="M2085.628,1830.857a3.874,3.874,0,0,1,1.567-2.966l9.233-6.828s-.188-1.363-2.756-1.655-2.7-3.048-2.7-3.048,3.566.625,8.835,1.719a11.294,11.294,0,0,1,6.367,4.112l-1.747,4.181a48.741,48.741,0,0,1-18.876,6.527l.078-2.043Z" transform="translate(-2085.55 -1746.016)" fill="url(#linear-gradient-46)"/>
          <path id="Caminho_40557" data-name="Caminho 40557" d="M2773.26,1618.6c.055,0,.106,0,.157,0,.016,0,.025,0,.041-.011Z" transform="translate(-2691.852 -1571.648)" fill="url(#linear-gradient-47)"/>
          <path id="Caminho_40558" data-name="Caminho 40558" d="M2746.21,1617.179l.02.011v-.02a.038.038,0,0,1-.02.01Z" transform="translate(-2668.004 -1570.405)" fill="url(#linear-gradient-48)"/>
          <path id="Caminho_40559" data-name="Caminho 40559" d="M2624.732,3114.251s.826,4.678,1.231,9.309a3.19,3.19,0,0,1-3.052,3.456c-6.166.257-19.358.756-24.09.544a1.038,1.038,0,0,1-.914-1.421h0a2.326,2.326,0,0,1,1.189-1.253l21.789-10.015,3.847-.623Z" transform="translate(-2537.191 -2890.268)" fill="url(#linear-gradient-49)"/>
          <path id="Caminho_40560" data-name="Caminho 40560" d="M2778,3084.6l-.664,5.6s-3.816,1.777-6.423-.224l1.58-6.236Z" transform="translate(-2689.781 -2863.37)" fill="url(#linear-gradient-50)"/>
          <path id="Caminho_40561" data-name="Caminho 40561" d="M2780.922,2202.344c.286,1.461,1.539,72.918-6.1,104.941a1.087,1.087,0,0,0,.638,1.264,18.932,18.932,0,0,0,6.22,1.264,1.873,1.873,0,0,0,1.857-1.344c2.183-7.429,12.646-44.655,14.011-80.215,1.525-39.735,0-1.353,0-1.353l-.895-24.562-15.732,0Z" transform="translate(-2693.203 -2086.305)" fill="url(#linear-gradient-51)"/>
          <path id="Caminho_40562" data-name="Caminho 40562" d="M2971.692,3134.87s1.315,2.361,2.589,8.636a1.947,1.947,0,0,1-1.713,2.331c-2.036.2-5.171.458-7.683.44a1.94,1.94,0,0,1-1.921-2.165,16.371,16.371,0,0,1,3.821-8.978l4.906-.265Z" transform="translate(-2859.087 -2908.447)" fill="url(#linear-gradient-52)"/>
          <path id="Caminho_40563" data-name="Caminho 40563" d="M3000.989,3071.629l-1.551,8.461s-1.534,1.141-4.568.314l.74-9.1Z" transform="translate(-2887.229 -2852.402)" fill="url(#linear-gradient-53)"/>
          <path id="Caminho_40564" data-name="Caminho 40564" d="M2852.076,2191.435c6.247,37.7-1.355,93.182-3.919,104.041a1.692,1.692,0,0,1-1.367,1.285,11.371,11.371,0,0,1-4.887-.2,1.553,1.553,0,0,1-1.116-1.429c-.344-8.779.275-62.674-5.546-83.974a4.838,4.838,0,0,0-1.867-2.669l-11.3-8.032-.866-12.982,30.864,3.955Z" transform="translate(-2734.126 -2073.204)" fill="url(#linear-gradient-54)"/>
          <path id="Caminho_40565" data-name="Caminho 40565" d="M3017.68,1677.068l7.181-18.128s17.486,11.881,20.363,26.946a41.408,41.408,0,0,0-15.2,4.074C3028.729,1682.847,3017.68,1677.068,3017.68,1677.068Z" transform="translate(-2907.339 -1607.23)" fill="url(#linear-gradient-55)"/>
          <path id="Caminho_40566" data-name="Caminho 40566" d="M2815.575,1489.02l5.957,17.227a.621.621,0,0,1-.283.747c-1.624.9-7.474,3.493-14.523-.977a2.923,2.923,0,0,1-1.346-2.087l-1.929-14.909h12.125Z" transform="translate(-2718.469 -1457.425)" fill="url(#linear-gradient-56)"/>
          <path id="Caminho_40567" data-name="Caminho 40567" d="M2869.252,1597.6l-7.108-6.037-10.634,25.961,7.755,103.16,24.21.724a.619.619,0,0,0,.638-.64l-3.379-99.246s-.092-21.446-2.372-21.982-9.109-1.939-9.109-1.939Z" transform="translate(-2760.839 -1547.827)" fill="url(#linear-gradient-57)"/>
          <path id="Caminho_40568" data-name="Caminho 40568" d="M2713.625,1615.5l.044.168v0l-.225.076-.084.279.5.046,2.481,20.484v.011l7.906,85.461c.02.173-.193.324-.062.431s.157.147.324.122l13.036-1.888-3.84-51.3-.023-.076-3.854-53.122-3.484-21.331v-.011l-.646-3.284-3.576,3.1-.08,0-1.022.056-.423.02c-.65.173-3.318,1.178-3.318,1.178,0,.015-.932.417-1.379.63a.488.488,0,0,0-.052.031c-.132.066-.257.137-.394.208-.02.011.1.02.078.036-.274.153-.525.32-.525.5v.011l-1.334,18.093v.062l-.044.011Z" transform="translate(-2639.043 -1547.836)" fill="url(#linear-gradient-58)"/>
          <path id="Caminho_40569" data-name="Caminho 40569" d="M2747.836,1802.822v2.525l-9.336-.561v-2.805Z" transform="translate(-2661.207 -1733.338)" fill="url(#linear-gradient-59)"/>
          <path id="Caminho_40570" data-name="Caminho 40570" d="M2854.47,1686.975a.248.248,0,0,0,.12-.031l8.17-4.387a.254.254,0,0,0,.132-.186l1.12-7.534,2.981-.529a.251.251,0,0,0,.2-.175l3.152-10.239a.254.254,0,1,0-.485-.149l-3.106,10.091-3.008.534a.254.254,0,0,0-.207.213l-1.126,7.589-8.058,4.328a.253.253,0,0,0,.12.477Z" transform="translate(-2763.226 -1611.307)" fill="url(#linear-gradient-60)"/>
          <path id="Caminho_40571" data-name="Caminho 40571" d="M2785.207,1642.632a.2.2,0,0,0,.095-.025.19.19,0,0,0,.071-.259l-4.287-7.516.708-4.247a.19.19,0,0,0-.1-.2l-3.45-1.836.876-12.218a.19.19,0,0,0-.176-.2.192.192,0,0,0-.2.176l-.885,12.342a.189.189,0,0,0,.1.181l3.438,1.83-.7,4.178a.187.187,0,0,0,.022.125l4.321,7.575a.191.191,0,0,0,.166.1Z" transform="translate(-2695.904 -1569.487)" fill="url(#linear-gradient-61)"/>
          <g id="Grupo_6856" data-name="Grupo 6856" transform="translate(48.348 56.237)">
            <path id="Caminho_40572" data-name="Caminho 40572" d="M2869.058,1890.329s19.632,11.1,26.258,1.622a7.442,7.442,0,0,0,1.365-5.786,41.406,41.406,0,0,1,15.2-4.074,20.8,20.8,0,0,1-2.26,14.254c-11.6,21.227-43.163-1.173-43.163-1.173l2.6-4.84Z" transform="translate(-2822.368 -1860.202)" fill="url(#linear-gradient-62)"/>
            <g id="Grupo_6855" data-name="Grupo 6855">
              <path id="Caminho_40573" data-name="Caminho 40573" d="M2543.031,1768.417,2532.316,1731a1.091,1.091,0,0,0-.923-.786c-1.941-.226-7.566-.863-14.062-1.412-7.824-.662-16.909-1.2-22.339-.742a1.1,1.1,0,0,0-.895,1.576c3.087,6.245,15.787,31.654,22.146,39.976a1.1,1.1,0,0,0,.883.433l24.861-.231a1.1,1.1,0,0,0,1.043-1.4Z" transform="translate(-2493.983 -1724.253)" fill="url(#linear-gradient-63)"/>
              <path id="Caminho_40574" data-name="Caminho 40574" d="M2619.136,1698.487l-7.769-1.3a.558.558,0,0,0-.622.724l.77,2.331a.559.559,0,0,0,.456.378l7.475,1a.557.557,0,0,0,.617-.68l-.476-2.035A.557.557,0,0,0,2619.136,1698.487Z" transform="translate(-2596.898 -1697.184)" fill="url(#linear-gradient-64)"/>
              <path id="Caminho_40575" data-name="Caminho 40575" d="M2597.968,1722.407l-.64-3.333a.771.771,0,0,0-.679-.621l-15.691-1.592a.772.772,0,0,0-.827.947l1,4.154a.77.77,0,0,0,.71.589l15.333.772a.77.77,0,0,0,.8-.915Z" transform="translate(-2569.913 -1714.527)" fill="url(#linear-gradient-65)"/>
              <path id="Caminho_40576" data-name="Caminho 40576" d="M2787.842,1898.882s1.493-6.138.89-8.315-1.769-4.978-5.657-4.355a57.007,57.007,0,0,0-8.476,2.26,2.226,2.226,0,0,0,3.187,1.921l-1.833,1.418s.262,2.27,2.758,1.058l-1.7,1.881a1.986,1.986,0,0,0,2.909.669c1.837-1.2,2.717,4.2,7.925,3.464Z" transform="translate(-2741.381 -1863.758)" fill="url(#linear-gradient-66)"/>
            </g>
          </g>
          <path id="Caminho_40577" data-name="Caminho 40577" d="M2912.97,1951.446a10.058,10.058,0,0,0,4.773-.969.254.254,0,1,0-.244-.445c-5.231,2.872-18.145-2.046-18.275-2.1-.034-.012-2.545-.884-3.441-2.634a.253.253,0,0,0-.451.231c.991,1.935,3.61,2.842,3.719,2.88C2899.457,1948.569,2907.013,1951.446,2912.97,1951.446Z" transform="translate(-2799.45 -1859.573)" fill="url(#linear-gradient-67)"/>
          <path id="Caminho_40578" data-name="Caminho 40578" d="M2926.451,2021.994c.136,0,.249,0,.253-.139s-.105-.2-.245-.208c-14.911-.514-23.4-7.312-23.481-7.381a.256.256,0,0,0-.358.048c-.089.108-.073.168.036.257.085.07,8.705,7.422,23.785,7.422Z" transform="translate(-2805.849 -1920.449)" fill="url(#linear-gradient-68)"/>
          <g id="Grupo_6857" data-name="Grupo 6857" transform="translate(73.417)">
            <path id="Caminho_40579" data-name="Caminho 40579" d="M2754.616,1351.061s-2.874,10.448-2.423,15.651-.182,8.713,5.937,8.9,10.72-3.507,12.709-9.04c0,0,3.135-8.535,1.713-11.642s-17.934-3.867-17.934-3.867Z" transform="translate(-2746.653 -1335.796)" fill="url(#linear-gradient-69)"/>
            <path id="Caminho_40580" data-name="Caminho 40580" d="M2738.1,1237.959c-1.3-.811-2.151-.531-2.647-.122a.411.411,0,0,1-.45.051c-.013-.154-1-10.834-15.561-8.955a3.759,3.759,0,0,1-3.748-1.87c-1.721-3.032-4.987-7.489-7.453-3.133-3.508,6.194-4.548,14.322,5.387,16.008.587.1,1.181.179,1.777.243,4.1,1.011,8.773,1.329,10.5,1.766,2.892.729.682,7.458.682,7.458l.755-.108,1.609-.23c.233-.033.46.231.479.466l.374,4.6a.438.438,0,0,0,.371.4c.735.08,2.642.008,5.575-2.144,2.867-2.1,1.492-3.171.613-3.58a.4.4,0,0,1-.111-.644c3.914-4.263,4.11-8.789,1.844-10.2Z" transform="translate(-2705.756 -1222.113)" fill="url(#linear-gradient-70)"/>
            <path id="Caminho_40581" data-name="Caminho 40581" d="M2887.93,1421.719s.734-6.516,3.8-5.158-.454,7.248-2.685,7.808l-1.117-2.651Z" transform="translate(-2866.365 -1393.379)" fill="url(#linear-gradient-71)"/>
            <path id="Caminho_40582" data-name="Caminho 40582" d="M2722.548,1257.7a.209.209,0,0,0,.13-.075.2.2,0,0,0-.033-.284,8.118,8.118,0,0,1-3.416-5.688c-.3-3.685,2.471-6.786,2.5-6.817a.2.2,0,1,0-.3-.273c-.12.131-2.92,3.258-2.6,7.12a8.5,8.5,0,0,0,3.569,5.975A.2.2,0,0,0,2722.548,1257.7Z" transform="translate(-2717.256 -1241.845)" fill="#fff"/>
          </g>
        </g>
        <g id="Grupo_6859" data-name="Grupo 6859" transform="translate(225.378 17.534)">
          <circle id="Elipse_643" data-name="Elipse 643" cx="30.851" cy="30.851" r="30.851" transform="translate(0 43.63) rotate(-45)" fill="url(#linear-gradient-72)"/>
          <circle id="Elipse_644" data-name="Elipse 644" cx="29.826" cy="29.826" r="29.826" transform="translate(1.449 43.631) rotate(-45)" fill="url(#linear-gradient-73)"/>
          <path id="Caminho_40583" data-name="Caminho 40583" d="M2504.368,674.269a.563.563,0,0,1-.257-.024.557.557,0,0,1-.349-.705,27.97,27.97,0,0,1,22.646-18.851,28.331,28.331,0,0,1,5.081-.268.557.557,0,1,1-.043,1.113,27.216,27.216,0,0,0-4.88.257,26.865,26.865,0,0,0-21.749,18.1A.558.558,0,0,1,2504.368,674.269Z" transform="translate(-2486.764 -638.862)" fill="#fff"/>
          <circle id="Elipse_645" data-name="Elipse 645" cx="25.243" cy="25.243" r="25.243" transform="translate(8.665 44.182) rotate(-45)" fill="#fff" opacity="0.78"/>
          <path id="Caminho_40584" data-name="Caminho 40584" d="M2647.809,782.58l-.389-2.719a22.409,22.409,0,0,1-7.865-.561,1.589,1.589,0,0,1-1.135-1.733l.328-2.631a1.6,1.6,0,0,1,2-1.346,18.584,18.584,0,0,0,7.255.474c2.73-.391,4.633-1.609,4.361-3.505-.245-1.712-1.964-2.5-5.9-2.978-5.625-.7-9.85-2.507-10.533-7.273-.617-4.3,2.059-8.039,7.393-9.7l-.39-2.719a1.6,1.6,0,0,1,1.357-1.811l1.6-.228a1.6,1.6,0,0,1,1.812,1.357l.349,2.441a20.425,20.425,0,0,1,6.2.219,1.591,1.591,0,0,1,1.257,1.761l-.3,2.433a1.6,1.6,0,0,1-1.933,1.366,16.654,16.654,0,0,0-6.084-.227c-3.239.464-3.972,1.938-3.8,3.142.212,1.481,2.3,2.219,6.7,2.912,6.272.942,9.129,3.082,9.772,7.571.589,4.117-1.933,8.257-7.723,10.03l.436,3.042a1.6,1.6,0,0,1-1.356,1.811l-1.6.229a1.6,1.6,0,0,1-1.812-1.357Z" transform="translate(-2603.236 -719.469)" fill="url(#linear-gradient-74)"/>
        </g>
      </g>
    </g>
  </g>
</svg>
