<svg xmlns="http://www.w3.org/2000/svg" width="305.212" height="190.165" viewBox="0 0 305.212 190.165">
  <g id="img-slide-115" transform="translate(-13.401 -19.283)">
    <g id="Background_Simple" transform="translate(13.401 19.282)">
      <g id="Grupo_6202" data-name="Grupo 6202">
        <path id="Caminho_31835" data-name="Caminho 31835" d="M304.458,62.909A81.341,81.341,0,0,0,275.2,37.672C259.586,29.737,234.9,18.959,216.548,19.29c-28.939.517-94.071,36.061-128.1,42.822S4.39,94.119,14.8,145.507s38.027,66.716,90.868,59.954,71.656-13.523,114.486-4.957,92.071,2.7,97.273-58.6c3.809-44.885-1.822-63.428-12.968-78.989Z" transform="translate(-13.401 -19.282)" fill="#92e3a9"/>
        <path id="Caminho_31836" data-name="Caminho 31836" d="M304.458,62.909A81.341,81.341,0,0,0,275.2,37.672C259.586,29.737,234.9,18.959,216.548,19.29c-28.939.517-94.071,36.061-128.1,42.822S4.39,94.119,14.8,145.507s38.027,66.716,90.868,59.954,71.656-13.523,114.486-4.957,92.071,2.7,97.273-58.6c3.809-44.885-1.822-63.428-12.968-78.989Z" transform="translate(-13.401 -19.282)" fill="#fff" opacity="0.7"/>
      </g>
    </g>
    <g id="Mug" transform="translate(33.224 52.555)">
      <g id="Grupo_6203" data-name="Grupo 6203">
        <path id="Caminho_31837" data-name="Caminho 31837" d="M73.282,126.84l1.14,13.921S64.5,139.134,61.864,144.4s-2.635,19.026,3.512,26.347c4.427,5.274,9.159,3.1,11.46,1.474l1.19,15.213c0,5.681,10.913,16.145,24.377,16.145s24.377-10.46,24.377-16.145l4.749-60.6ZM68.893,164.6c-3.8-3.22-1.758-17.272,0-19.026,1.3-1.3,4.376-.352,5.876.229l1.572,20.038c-1.961.5-5.054.788-7.448-1.237Z" transform="translate(-60.192 -114.546)" fill="#263238" stroke="#263238" stroke-miterlimit="10" stroke-width="1"/>
        <ellipse id="Elipse_619" data-name="Elipse 619" cx="29.126" cy="12.294" rx="29.126" ry="12.294" transform="translate(13.094)" fill="#fff" stroke="#263238" stroke-miterlimit="10" stroke-width="1"/>
        <ellipse id="Elipse_620" data-name="Elipse 620" cx="25.914" cy="10.939" rx="25.914" ry="10.939" transform="translate(16.305 1.356)" fill="#fff" stroke="#263238" stroke-miterlimit="10" stroke-width="1"/>
        <path id="Caminho_31838" data-name="Caminho 31838" d="M116.86,140.916a48.823,48.823,0,0,0,18.208,3.156,48.909,48.909,0,0,0,18.208-3.156,48.824,48.824,0,0,0-18.208-3.156A48.909,48.909,0,0,0,116.86,140.916Z" transform="translate(-92.853 -120.84)" fill="#92e3a9" stroke="#263238" stroke-miterlimit="10" stroke-width="1"/>
      </g>
    </g>
    <g id="Books_2" transform="translate(155.56 25.441)">
      <g id="Grupo_6204" data-name="Grupo 6204" transform="translate(14.581 25.957)">
        <path id="Caminho_31839" data-name="Caminho 31839" d="M391.7,140.912s13.853,32.9,17.187,34.642,101.074-6.744,101.074-6.744l-2.775-3.088-.131-21.292,3.652-.161L473.366,95.09l-84.373,6.16s-4.525,3.139-5.13,5.846a33.885,33.885,0,0,0-.47,6.808l8.3,27Z" transform="translate(-383.379 -95.09)" fill="#263238" stroke="#263238" stroke-miterlimit="10" stroke-width="1"/>
        <path id="Caminho_31840" data-name="Caminho 31840" d="M537.578,211.55l-95.892,7.723a11.8,11.8,0,0,0-5.215,8.575c-.7,5.982,1.716,12.061,3.516,12.934a11.867,11.867,0,0,0,4.143.945l93.579-8.884-.131-21.292Z" transform="translate(-413.907 -162.212)" fill="#e0e0e0" stroke="#263238" stroke-miterlimit="10" stroke-width="1"/>
      </g>
      <g id="Grupo_6205" data-name="Grupo 6205">
        <path id="Caminho_31841" data-name="Caminho 31841" d="M389.648,34.8,350.974,88.2s-2.105,2.076-2.008,7.164.36,13.387,1.873,13.972,113.419,9.075,113.419,9.075l25.838-59.679-2.017-.864.7-14.692,1.678-4.766L392.487,33.82l-2.838.983Z" transform="translate(-348.962 -33.82)" fill="#92e3a9" stroke="#263238" stroke-miterlimit="10" stroke-width="1"/>
        <path id="Caminho_31842" data-name="Caminho 31842" d="M355.483,102.456s-3.5-1.085-4.495,2.279,1.449,15.556,1.449,15.556a13.24,13.24,0,0,0,3.05.9c.962.03,108.657,7.138,108.657,7.138L489.109,70.6l.7-14.692-23.885,51.727-110.445-5.181Z" transform="translate(-349.993 -46.552)" fill="#fff" stroke="#263238" stroke-miterlimit="10" stroke-width="1"/>
        <path id="Caminho_31843" data-name="Caminho 31843" d="M463.455,170.616l-107.975-5.063s-3.5-1.085-4.495,2.279,1.449,15.556,1.449,15.556a13.241,13.241,0,0,0,3.05.9c.962.03,108.657,7.138,108.657,7.138l-.148-20.348-.538-.462Z" transform="translate(-349.991 -109.649)" fill="#e0e0e0" stroke="#263238" stroke-miterlimit="10" stroke-width="1"/>
      </g>
    </g>
    <g id="Book_1" transform="translate(66.046 99.763)">
      <g id="Grupo_6215" data-name="Grupo 6215">
        <path id="Caminho_31844" data-name="Caminho 31844" d="M396.01,338.9s3.957,5.707,8.092,5.613c27.562-.614,75.1,12.578,80.612,12.578s9.617-.487,9.617-1.661-19.4-77.938-19.4-77.938l-3.847-1.169L484.3,351.246s-16.391-2.343-49.507-7.859-31.757-10.18-35.768-9.346-3.012,4.851-3.012,4.851Z" transform="translate(-286.5 -247.907)" fill="#92e3a9" stroke="#263238" stroke-miterlimit="10" stroke-width="1"/>
        <path id="Caminho_31845" data-name="Caminho 31845" d="M489.146,438.034c-5.685-.335-16.747-3.215-44.034-8.816s-47.766-9-47.766-9l-.576,1.97c.945,1.241,4.321,5.338,7.833,5.262,27.562-.614,75.1,12.578,80.612,12.578s9.617-.491,9.617-1.661c0-.1-2.851-.169-5.685-.335Z" transform="translate(-287.002 -330.844)" fill="#263238" stroke="#263238" stroke-miterlimit="10" stroke-width="1"/>
        <path id="Caminho_31846" data-name="Caminho 31846" d="M157.864,272.04s-2.008.669-2.343,2.173-19.568,78.608-17.73,78.773,103.192.835,104.365-.335,5.016-16.221,5.016-16.221l-8.528,11.54L150.67,345.8l10.536-71.918-3.347-1.839Z" transform="translate(-137.668 -245.44)" fill="#92e3a9" stroke="#263238" stroke-miterlimit="10" stroke-width="1"/>
        <path id="Caminho_31847" data-name="Caminho 31847" d="M242.331,440.261c1.169-1.169,5.016-16.221,5.016-16.221l-.563.763-5.287,13.62-102.506,1.322-1.021.856c1.839.165,103.192.835,104.365-.335Z" transform="translate(-137.842 -333.046)" fill="#263238" stroke="#263238" stroke-miterlimit="10" stroke-width="1"/>
        <path id="Caminho_31848" data-name="Caminho 31848" d="M165.614,269.445l-2.343,1L147.05,348.887l99.68.335L253.419,332l-93.66,4.516,8.7-67.233Z" transform="translate(-143.075 -243.85)" fill="#fff" stroke="#263238" stroke-miterlimit="10" stroke-width="1"/>
        <path id="Caminho_31849" data-name="Caminho 31849" d="M153.739,424.344l-4.546,7.562-2.144,2.3,99.68.335,6.689-17.225-93.66,4.516Z" transform="translate(-143.075 -329.173)" fill="#e0e0e0" stroke="#263238" stroke-miterlimit="10" stroke-width="1"/>
        <path id="Caminho_31850" data-name="Caminho 31850" d="M280.5,396.387V381l-80.446,8.863-6.02,10.54Z" transform="translate(-170.152 -308.24)" fill="#b8b8b8" stroke="#263238" stroke-miterlimit="10" stroke-width="1"/>
        <path id="Caminho_31851" data-name="Caminho 31851" d="M178.386,249.54l-2.343.335L162.83,327.643a182.5,182.5,0,0,0,25.588-4.347c14.717-3.512,44.657-8.863,54.689-7.359s18.564,7.528,18.564,7.528,12.523,2.487,26.571,5.329,34.955,7.194,48.838,9.532,17.225,1.339,17.225,1.339L337.08,259.555l-1.673-.5,9.2,72.588S286.59,315.608,278.9,315.608s-11.875-8.193-27.262-11.205-32.612,3.012-47.165,5.52a201.236,201.236,0,0,0-26.927,6.689l3.847-67.067h-3.012Z" transform="translate(-152.17 -232.472)" fill="#e0e0e0" stroke="#263238" stroke-miterlimit="10" stroke-width="1"/>
        <path id="Caminho_31852" data-name="Caminho 31852" d="M168.86,325.135l-6.02,2.508,13.214-77.769,5.351-.335Z" transform="translate(-152.176 -232.472)" fill="#fff" stroke="#263238" stroke-miterlimit="10" stroke-width="1"/>
        <g id="Grupo_6209" data-name="Grupo 6209" transform="translate(108.332 5.72)">
          <path id="Caminho_31853" data-name="Caminho 31853" d="M393.384,223.731s1.5-2.677,15.222.835,28.075,12.354,39.785,14.027,19.4,3.347,19.4,3.347l15.887,80.616a467.791,467.791,0,0,1-50.342-10.036c-24.419-6.524-34.769-10.85-37.946-7.338l-2.008-81.45Z" transform="translate(-393.38 -222.755)" fill="#fff" stroke="#263238" stroke-miterlimit="10" stroke-width="1"/>
          <g id="Grupo_6208" data-name="Grupo 6208" transform="translate(5.249 9.526)">
            <g id="Grupo_6206" data-name="Grupo 6206" transform="translate(36.188 13.476)">
              <path id="Caminho_31854" data-name="Caminho 31854" d="M491.19,277.05s.843,0,28.706,6.122" transform="translate(-491.19 -277.05)" fill="none" stroke="#263238" stroke-miterlimit="10" stroke-width="1"/>
              <path id="Caminho_31855" data-name="Caminho 31855" d="M491.84,285.05s.78.038,10.392,2.1c4.423.949,10.824,2.4,18.632,4.118" transform="translate(-491.565 -281.661)" fill="none" stroke="#263238" stroke-miterlimit="10" stroke-width="1"/>
              <path id="Caminho_31856" data-name="Caminho 31856" d="M492.49,293.05s1.144.076,10.519,2.084c4.652,1,11.54,2.622,18.823,4.224" transform="translate(-491.939 -286.272)" fill="none" stroke="#263238" stroke-miterlimit="10" stroke-width="1"/>
              <path id="Caminho_31857" data-name="Caminho 31857" d="M493.15,301.06s1.512.114,10.642,2.072c4.876,1.046,12.252,2.843,19.018,4.325" transform="translate(-492.32 -290.888)" fill="none" stroke="#263238" stroke-miterlimit="10" stroke-width="1"/>
              <path id="Caminho_31858" data-name="Caminho 31858" d="M493.8,309.06s1.877.152,10.765,2.059c5.1,1.1,12.968,3.063,19.208,4.431" transform="translate(-492.694 -295.499)" fill="none" stroke="#263238" stroke-miterlimit="10" stroke-width="1"/>
              <path id="Caminho_31859" data-name="Caminho 31859" d="M494.46,317.06s2.241.191,10.888,2.046c5.329,1.144,13.68,3.279,19.4,4.537" transform="translate(-493.075 -300.11)" fill="none" stroke="#263238" stroke-miterlimit="10" stroke-width="1"/>
              <path id="Caminho_31860" data-name="Caminho 31860" d="M495.11,325.07s2.605.229,11.011,2.034c5.554,1.195,14.4,3.5,19.6,4.643" transform="translate(-493.449 -304.727)" fill="none" stroke="#263238" stroke-miterlimit="10" stroke-width="1"/>
              <path id="Caminho_31861" data-name="Caminho 31861" d="M495.76,333.07a111.161,111.161,0,0,1,11.133,2.017c5.779,1.246,15.107,3.72,19.789,4.749" transform="translate(-493.824 -309.337)" fill="none" stroke="#263238" stroke-miterlimit="10" stroke-width="1"/>
              <path id="Caminho_31862" data-name="Caminho 31862" d="M496.42,341.07a108.613,108.613,0,0,1,11.256,2c6,1.292,15.823,3.94,19.983,4.855" transform="translate(-494.204 -313.948)" fill="none" stroke="#263238" stroke-miterlimit="10" stroke-width="1"/>
              <path id="Caminho_31863" data-name="Caminho 31863" d="M497.07,349.07a108.318,108.318,0,0,1,11.379,1.991c6.232,1.343,16.535,4.16,20.178,4.961" transform="translate(-494.579 -318.559)" fill="none" stroke="#263238" stroke-miterlimit="10" stroke-width="1"/>
              <path id="Caminho_31864" data-name="Caminho 31864" d="M497.73,357.08a108.89,108.89,0,0,1,11.5,1.978c6.456,1.394,17.247,4.38,20.369,5.067" transform="translate(-494.959 -323.176)" fill="none" stroke="#263238" stroke-miterlimit="10" stroke-width="1"/>
              <path id="Caminho_31865" data-name="Caminho 31865" d="M498.38,365.08A109.977,109.977,0,0,1,510,367.046c6.681,1.44,17.963,4.6,20.564,5.173" transform="translate(-495.334 -327.786)" fill="none" stroke="#263238" stroke-miterlimit="10" stroke-width="1"/>
              <path id="Caminho_31866" data-name="Caminho 31866" d="M499.03,373.08a111.54,111.54,0,0,1,11.748,1.953c6.905,1.491,18.674,4.821,20.759,5.279" transform="translate(-495.709 -332.397)" fill="none" stroke="#263238" stroke-miterlimit="10" stroke-width="1"/>
              <path id="Caminho_31867" data-name="Caminho 31867" d="M499.69,381.09a113.707,113.707,0,0,1,11.875,1.94c7.134,1.542,19.39,5.041,20.949,5.385" transform="translate(-496.089 -337.014)" fill="none" stroke="#263238" stroke-miterlimit="10" stroke-width="1"/>
              <path id="Caminho_31868" data-name="Caminho 31868" d="M500.34,389.09a116.151,116.151,0,0,1,12,1.928c7.359,1.589,20.1,5.257,21.144,5.486" transform="translate(-496.464 -341.625)" fill="none" stroke="#263238" stroke-miterlimit="10" stroke-width="1"/>
              <path id="Caminho_31869" data-name="Caminho 31869" d="M501,397.09A118.8,118.8,0,0,1,513.12,399c7.583,1.639,20.818,5.478,21.335,5.592" transform="translate(-496.844 -346.235)" fill="none" stroke="#263238" stroke-miterlimit="10" stroke-width="1"/>
              <path id="Caminho_31870" data-name="Caminho 31870" d="M501.65,405.1a122.8,122.8,0,0,1,12.243,1.9c7.812,1.69,21.53,5.7,21.53,5.7" transform="translate(-497.219 -350.852)" fill="none" stroke="#263238" stroke-miterlimit="10" stroke-width="1"/>
            </g>
            <g id="Grupo_6207" data-name="Grupo 6207">
              <path id="Caminho_31871" data-name="Caminho 31871" d="M405.77,245.24a48.909,48.909,0,0,1,11.8,2.05c5.3,1.712,9.4,5.3,20.178,10.261" transform="translate(-405.77 -245.24)" fill="none" stroke="#263238" stroke-miterlimit="10" stroke-width="1"/>
              <path id="Caminho_31872" data-name="Caminho 31872" d="M438.037,265.924c-10.1-4.647-14.163-8.121-19.861-9.973A44.51,44.51,0,0,0,405.81,253.8" transform="translate(-405.793 -250.169)" fill="none" stroke="#263238" stroke-miterlimit="10" stroke-width="1"/>
              <path id="Caminho_31873" data-name="Caminho 31873" d="M438.333,274.275c-9.426-4.338-13.447-7.693-19.539-9.685a41.932,41.932,0,0,0-12.934-2.245" transform="translate(-405.822 -255.079)" fill="none" stroke="#263238" stroke-miterlimit="10" stroke-width="1"/>
              <path id="Caminho_31874" data-name="Caminho 31874" d="M438.634,282.629c-8.753-4.029-12.731-7.27-19.217-9.4-6.855-2.245-12.794-2.563-13.5-2.343" transform="translate(-405.856 -259.989)" fill="none" stroke="#263238" stroke-miterlimit="10" stroke-width="1"/>
              <path id="Caminho_31875" data-name="Caminho 31875" d="M438.94,290.977c-8.079-3.72-12.015-6.842-18.895-9.1-7.219-2.377-13.125-2.737-14.065-2.436" transform="translate(-405.891 -264.897)" fill="none" stroke="#263238" stroke-miterlimit="10" stroke-width="1"/>
              <path id="Caminho_31876" data-name="Caminho 31876" d="M439.23,299.316c-7.405-3.41-11.3-6.414-18.577-8.816-7.587-2.5-13.455-2.906-14.633-2.533" transform="translate(-405.914 -269.796)" fill="none" stroke="#263238" stroke-miterlimit="10" stroke-width="1"/>
              <path id="Caminho_31877" data-name="Caminho 31877" d="M439.525,307.661c-6.732-3.1-10.583-5.986-18.255-8.528-7.956-2.635-13.79-3.08-15.2-2.631" transform="translate(-405.943 -274.697)" fill="none" stroke="#263238" stroke-miterlimit="10" stroke-width="1"/>
              <path id="Caminho_31878" data-name="Caminho 31878" d="M439.827,316c-6.058-2.788-9.867-5.558-17.933-8.24-8.325-2.766-14.12-3.249-15.764-2.724" transform="translate(-405.978 -279.596)" fill="none" stroke="#263238" stroke-miterlimit="10" stroke-width="1"/>
              <path id="Caminho_31879" data-name="Caminho 31879" d="M440.117,324.345c-5.389-2.478-9.151-5.13-17.615-7.952-8.689-2.894-14.451-3.419-16.332-2.822" transform="translate(-406.001 -284.497)" fill="none" stroke="#263238" stroke-miterlimit="10" stroke-width="1"/>
              <path id="Caminho_31880" data-name="Caminho 31880" d="M440.412,332.678c-4.715-2.169-8.435-4.7-17.293-7.664-9.058-3.025-14.781-3.592-16.9-2.919" transform="translate(-406.029 -289.389)" fill="none" stroke="#263238" stroke-miterlimit="10" stroke-width="1"/>
              <path id="Caminho_31881" data-name="Caminho 31881" d="M440.714,341.015c-4.042-1.86-7.719-4.275-16.971-7.376-9.426-3.152-15.111-3.762-17.463-3.012" transform="translate(-406.064 -294.286)" fill="none" stroke="#263238" stroke-miterlimit="10" stroke-width="1"/>
              <path id="Caminho_31882" data-name="Caminho 31882" d="M441,349.358a112.044,112.044,0,0,0-16.654-7.088c-9.79-3.283-15.446-3.931-18.03-3.11" transform="translate(-406.087 -299.186)" fill="none" stroke="#263238" stroke-miterlimit="10" stroke-width="1"/>
              <path id="Caminho_31883" data-name="Caminho 31883" d="M441.3,357.689a109.918,109.918,0,0,0-16.332-6.8c-10.159-3.415-15.777-4.105-18.6-3.207" transform="translate(-406.116 -304.076)" fill="none" stroke="#263238" stroke-miterlimit="10" stroke-width="1"/>
              <path id="Caminho_31884" data-name="Caminho 31884" d="M441.6,366.028a110.252,110.252,0,0,0-16.01-6.507c-10.528-3.542-16.107-4.275-19.166-3.3" transform="translate(-406.145 -308.976)" fill="none" stroke="#263238" stroke-miterlimit="10" stroke-width="1"/>
              <path id="Caminho_31885" data-name="Caminho 31885" d="M441.891,374.371c-1.347-.618-4.851-2.563-15.692-6.219-10.892-3.673-16.437-4.448-19.729-3.4" transform="translate(-406.173 -313.874)" fill="none" stroke="#263238" stroke-miterlimit="10" stroke-width="1"/>
              <path id="Caminho_31886" data-name="Caminho 31886" d="M442.187,382.7c-.674-.309-4.135-2.139-15.37-5.931-11.261-3.8-16.768-4.618-20.3-3.5" transform="translate(-406.202 -318.767)" fill="none" stroke="#263238" stroke-miterlimit="10" stroke-width="1"/>
              <path id="Caminho_31887" data-name="Caminho 31887" d="M442.483,391.046s-3.419-1.712-15.048-5.643-17.1-4.787-20.865-3.593" transform="translate(-406.231 -323.665)" fill="none" stroke="#263238" stroke-miterlimit="10" stroke-width="1"/>
            </g>
          </g>
        </g>
        <g id="Grupo_6213" data-name="Grupo 6213" transform="translate(16.684)">
          <path id="Caminho_31888" data-name="Caminho 31888" d="M268.7,215.949l2.008,81.45s-6.02-12.375-22.076-11.875-51.511,12.879-57.2,14.048-14.383,2.343-14.383,2.343l9.532-77.769s42.149-7.693,51.011-10.371,16.556-5.52,22.246-4.181S268.7,211.938,268.7,215.949Z" transform="translate(-177.05 -209.253)" fill="#fff" stroke="#263238" stroke-miterlimit="10" stroke-width="1"/>
          <g id="Grupo_6212" data-name="Grupo 6212" transform="translate(13.222 10.095)">
            <g id="Grupo_6210" data-name="Grupo 6210" transform="translate(0 7.21)">
              <line id="Linha_64" data-name="Linha 64" y1="6.965" x2="31.24" transform="translate(5.486)" fill="none" stroke="#263238" stroke-miterlimit="10" stroke-width="1"/>
              <path id="Caminho_31889" data-name="Caminho 31889" d="M220.4,265.031s19.835-4.474,20.3-4.618c.424-.136,11.21-2.533,11.21-2.533" transform="translate(-215.257 -254.584)" fill="none" stroke="#263238" stroke-miterlimit="10" stroke-width="1"/>
              <path id="Caminho_31890" data-name="Caminho 31890" d="M219.59,273.013s19.539-4.457,20.462-4.745c.847-.267,11.3-2.588,11.3-2.588" transform="translate(-214.79 -259.08)" fill="none" stroke="#263238" stroke-miterlimit="10" stroke-width="1"/>
              <path id="Caminho_31891" data-name="Caminho 31891" d="M218.78,280.98s19.246-4.44,20.632-4.872c1.275-.4,11.4-2.648,11.4-2.648" transform="translate(-214.323 -263.564)" fill="none" stroke="#263238" stroke-miterlimit="10" stroke-width="1"/>
              <path id="Caminho_31892" data-name="Caminho 31892" d="M217.97,288.946s18.95-4.423,20.8-5c1.7-.534,11.5-2.7,11.5-2.7" transform="translate(-213.856 -268.048)" fill="none" stroke="#263238" stroke-miterlimit="10" stroke-width="1"/>
              <path id="Caminho_31893" data-name="Caminho 31893" d="M217.16,296.918s18.653-4.406,20.962-5.13c2.122-.665,11.6-2.758,11.6-2.758" transform="translate(-213.39 -272.537)" fill="none" stroke="#263238" stroke-miterlimit="10" stroke-width="1"/>
              <path id="Caminho_31894" data-name="Caminho 31894" d="M216.35,304.89s18.361-4.389,21.131-5.257c2.546-.8,11.693-2.813,11.693-2.813" transform="translate(-212.923 -277.027)" fill="none" stroke="#263238" stroke-miterlimit="10" stroke-width="1"/>
              <path id="Caminho_31895" data-name="Caminho 31895" d="M215.54,312.851s18.064-4.372,21.3-5.389c2.974-.932,11.79-2.872,11.79-2.872" transform="translate(-212.456 -281.505)" fill="none" stroke="#263238" stroke-miterlimit="10" stroke-width="1"/>
              <path id="Caminho_31896" data-name="Caminho 31896" d="M214.73,320.823s17.768-4.355,21.462-5.516c3.4-1.068,11.888-2.927,11.888-2.927" transform="translate(-211.989 -285.995)" fill="none" stroke="#263238" stroke-miterlimit="10" stroke-width="1"/>
              <path id="Caminho_31897" data-name="Caminho 31897" d="M213.93,328.8s17.475-4.338,21.631-5.643c3.821-1.2,11.985-2.982,11.985-2.982" transform="translate(-211.528 -290.485)" fill="none" stroke="#263238" stroke-miterlimit="10" stroke-width="1"/>
              <path id="Caminho_31898" data-name="Caminho 31898" d="M213.12,336.756s17.179-4.321,21.8-5.774C239.162,329.647,247,327.94,247,327.94" transform="translate(-211.061 -294.963)" fill="none" stroke="#263238" stroke-miterlimit="10" stroke-width="1"/>
              <path id="Caminho_31899" data-name="Caminho 31899" d="M212.31,344.738s16.882-4.3,21.962-5.9c4.669-1.466,12.18-3.1,12.18-3.1" transform="translate(-210.594 -299.459)" fill="none" stroke="#263238" stroke-miterlimit="10" stroke-width="1"/>
              <path id="Caminho_31900" data-name="Caminho 31900" d="M211.5,352.71s16.59-4.287,22.131-6.029c5.1-1.6,12.277-3.152,12.277-3.152" transform="translate(-210.127 -303.949)" fill="none" stroke="#263238" stroke-miterlimit="10" stroke-width="1"/>
              <path id="Caminho_31901" data-name="Caminho 31901" d="M210.69,360.677s16.293-4.27,22.3-6.16c5.52-1.733,12.375-3.207,12.375-3.207" transform="translate(-209.661 -308.433)" fill="none" stroke="#263238" stroke-miterlimit="10" stroke-width="1"/>
              <path id="Caminho_31902" data-name="Caminho 31902" d="M209.88,368.643s16-4.253,22.462-6.287c5.944-1.868,12.472-3.266,12.472-3.266" transform="translate(-209.194 -312.917)" fill="none" stroke="#263238" stroke-miterlimit="10" stroke-width="1"/>
              <path id="Caminho_31903" data-name="Caminho 31903" d="M209.07,376.615s15.7-4.236,22.631-6.414c6.367-2,12.57-3.321,12.57-3.321" transform="translate(-208.727 -317.407)" fill="none" stroke="#263238" stroke-miterlimit="10" stroke-width="1"/>
              <path id="Caminho_31904" data-name="Caminho 31904" d="M208.26,384.582s15.408-4.22,22.8-6.545c6.791-2.135,12.663-3.376,12.663-3.376" transform="translate(-208.26 -321.891)" fill="none" stroke="#263238" stroke-miterlimit="10" stroke-width="1"/>
            </g>
            <g id="Grupo_6211" data-name="Grupo 6211" transform="translate(39.683)">
              <path id="Caminho_31905" data-name="Caminho 31905" d="M305.42,239.024s29.13-9.286,33.349-4.643" transform="translate(-303.941 -233.081)" fill="none" stroke="#263238" stroke-miterlimit="10" stroke-width="1"/>
              <path id="Caminho_31906" data-name="Caminho 31906" d="M305.2,247.1a181.157,181.157,0,0,1,18.78-4.859c6.787-1.262,13-1.534,14.675.309" transform="translate(-303.815 -237.776)" fill="none" stroke="#263238" stroke-miterlimit="10" stroke-width="1"/>
              <path id="Caminho_31907" data-name="Caminho 31907" d="M304.98,255.165a175.751,175.751,0,0,1,18.84-4.9c6.965-1.262,13.163-1.275,14.722.445" transform="translate(-303.688 -242.464)" fill="none" stroke="#263238" stroke-miterlimit="10" stroke-width="1"/>
              <path id="Caminho_31908" data-name="Caminho 31908" d="M304.76,263.2a164.315,164.315,0,0,1,18.895-4.944c7.143-1.284,13.324-1.017,14.773.576" transform="translate(-303.561 -247.12)" fill="none" stroke="#263238" stroke-miterlimit="10" stroke-width="1"/>
              <path id="Caminho_31909" data-name="Caminho 31909" d="M304.54,271.222a158.321,158.321,0,0,1,18.95-4.986c7.325-1.288,13.485-.763,14.823.712" transform="translate(-303.434 -251.769)" fill="none" stroke="#263238" stroke-miterlimit="10" stroke-width="1"/>
              <path id="Caminho_31910" data-name="Caminho 31910" d="M304.33,279.234a153.713,153.713,0,0,1,19.009-5.029c7.5-1.292,13.641-.5,14.87.847" transform="translate(-303.313 -256.404)" fill="none" stroke="#263238" stroke-miterlimit="10" stroke-width="1"/>
              <path id="Caminho_31911" data-name="Caminho 31911" d="M304.11,287.232a149.6,149.6,0,0,1,19.064-5.071c7.685-1.3,13.8-.246,14.921.979" transform="translate(-303.186 -261.026)" fill="none" stroke="#263238" stroke-miterlimit="10" stroke-width="1"/>
              <path id="Caminho_31912" data-name="Caminho 31912" d="M303.89,295.234a145.628,145.628,0,0,1,19.119-5.109c7.867-1.3,13.963.008,14.967,1.114" transform="translate(-303.06 -265.647)" fill="none" stroke="#263238" stroke-miterlimit="10" stroke-width="1"/>
              <path id="Caminho_31913" data-name="Caminho 31913" d="M303.67,303.209s11.133-3.855,19.178-5.152,14.124.267,15.018,1.25" transform="translate(-302.933 -270.246)" fill="none" stroke="#263238" stroke-miterlimit="10" stroke-width="1"/>
              <path id="Caminho_31914" data-name="Caminho 31914" d="M303.45,311.177s11.311-3.944,19.234-5.194c8.227-1.3,14.285.525,15.065,1.381" transform="translate(-302.806 -274.837)" fill="none" stroke="#263238" stroke-miterlimit="10" stroke-width="1"/>
              <path id="Caminho_31915" data-name="Caminho 31915" d="M303.24,319.139s11.494-4.033,19.293-5.236c8.409-1.3,14.446.78,15.116,1.517" transform="translate(-302.685 -279.423)" fill="none" stroke="#263238" stroke-miterlimit="10" stroke-width="1"/>
              <path id="Caminho_31916" data-name="Caminho 31916" d="M303.02,327.094s11.671-4.122,19.348-5.279c8.592-1.3,14.607,1.038,15.162,1.652" transform="translate(-302.558 -284.001)" fill="none" stroke="#263238" stroke-miterlimit="10" stroke-width="1"/>
              <path id="Caminho_31917" data-name="Caminho 31917" d="M302.8,335.054s11.854-4.207,19.4-5.321c8.769-1.292,14.768,1.292,15.213,1.784" transform="translate(-302.431 -288.58)" fill="none" stroke="#263238" stroke-miterlimit="10" stroke-width="1"/>
              <path id="Caminho_31918" data-name="Caminho 31918" d="M302.58,343s12.032-4.292,19.462-5.363c8.952-1.288,14.929,1.551,15.264,1.919" transform="translate(-302.305 -293.15)" fill="none" stroke="#263238" stroke-miterlimit="10" stroke-width="1"/>
              <path id="Caminho_31919" data-name="Caminho 31919" d="M302.36,350.951s12.214-4.364,19.517-5.406c9.138-1.267,15.086,1.809,15.311,2.055" transform="translate(-302.178 -297.725)" fill="none" stroke="#263238" stroke-miterlimit="10" stroke-width="1"/>
              <path id="Caminho_31920" data-name="Caminho 31920" d="M302.15,358.888s12.392-4.457,19.572-5.448c9.316-1.267,15.247,2.063,15.361,2.186" transform="translate(-302.057 -302.285)" fill="none" stroke="#263238" stroke-miterlimit="10" stroke-width="1"/>
              <path id="Caminho_31921" data-name="Caminho 31921" d="M301.93,366.828s12.574-4.546,19.632-5.486c9.5-1.267,15.408,2.322,15.408,2.322" transform="translate(-301.93 -306.848)" fill="none" stroke="#263238" stroke-miterlimit="10" stroke-width="1"/>
            </g>
          </g>
        </g>
        <path id="Caminho_31922" data-name="Caminho 31922" d="M466.98,433.66c2.072.432,3.364.758,3.364.758" transform="translate(-327.468 -338.591)" fill="none" stroke="#263238" stroke-miterlimit="10" stroke-width="1"/>
        <path id="Caminho_31923" data-name="Caminho 31923" d="M391.05,417.3a25.321,25.321,0,0,1,2.161,2.851,45.891,45.891,0,0,1,16.687-2.779c5.245.152,7.825,5.766,11.794,6.55" transform="translate(-283.705 -329.161)" fill="none" stroke="#263238" stroke-miterlimit="10" stroke-width="1"/>
        <path id="Caminho_31924" data-name="Caminho 31924" d="M380.39,407.22a28.767,28.767,0,0,1,3.406,3.05" transform="translate(-277.562 -323.352)" fill="none" stroke="#263238" stroke-miterlimit="10" stroke-width="1"/>
        <path id="Caminho_31925" data-name="Caminho 31925" d="M320.77,396.86c2.957-.8,11.82-2.419,19.611.538a22.785,22.785,0,0,1,5.647,3.177" transform="translate(-243.199 -316.707)" fill="none" stroke="#263238" stroke-miterlimit="10" stroke-width="1"/>
        <path id="Caminho_31926" data-name="Caminho 31926" d="M307.831,402.724a36.024,36.024,0,0,0-11.477-2.025c-10.146-.241-33.824,5.075-33.824,5.075" transform="translate(-209.632 -319.589)" fill="none" stroke="#263238" stroke-miterlimit="10" stroke-width="1"/>
        <path id="Caminho_31927" data-name="Caminho 31927" d="M375.877,408.382a13.85,13.85,0,0,0-1.987-1.072" transform="translate(-273.815 -323.404)" fill="none" stroke="#263238" stroke-miterlimit="10" stroke-width="1"/>
        <g id="Grupo_6214" data-name="Grupo 6214" transform="translate(9.618 91.549)">
          <line id="Linha_65" data-name="Linha 65" x1="64.017" y2="3.076" transform="translate(26.94 0.288)" fill="none" stroke="#263238" stroke-miterlimit="10" stroke-width="1"/>
          <line id="Linha_66" data-name="Linha 66" x1="3.495" y2="0.165" transform="translate(93.486)" fill="none" stroke="#263238" stroke-miterlimit="10" stroke-width="1"/>
          <line id="Linha_67" data-name="Linha 67" y1="0.097" x2="3.732" transform="translate(43.187 6.283)" fill="none" stroke="#263238" stroke-miterlimit="10" stroke-width="1"/>
          <line id="Linha_68" data-name="Linha 68" y1="0.75" x2="29.596" transform="translate(11.451 6.431)" fill="none" stroke="#263238" stroke-miterlimit="10" stroke-width="1"/>
          <line id="Linha_69" data-name="Linha 69" y1="0.11" x2="3.287" transform="translate(84.937 8.079)" fill="none" stroke="#263238" stroke-miterlimit="10" stroke-width="1"/>
          <line id="Linha_70" data-name="Linha 70" y1="1.377" x2="41.67" transform="translate(40.632 8.274)" fill="none" stroke="#263238" stroke-miterlimit="10" stroke-width="1"/>
          <line id="Linha_71" data-name="Linha 71" x1="8.731" y2="0.297" transform="translate(61.734 5.088)" fill="none" stroke="#263238" stroke-miterlimit="10" stroke-width="1"/>
          <line id="Linha_72" data-name="Linha 72" x1="21.653" y2="0.741" transform="translate(72.859 4.262)" fill="none" stroke="#263238" stroke-miterlimit="10" stroke-width="1"/>
          <line id="Linha_73" data-name="Linha 73" y1="0.08" x2="3.021" transform="translate(29.981 9.875)" fill="none" stroke="#263238" stroke-miterlimit="10" stroke-width="1"/>
          <line id="Linha_74" data-name="Linha 74" y1="0.763" x2="28.096" transform="translate(0 10.011)" fill="none" stroke="#263238" stroke-miterlimit="10" stroke-width="1"/>
        </g>
      </g>
    </g>
    <g id="Glasses" transform="translate(123.487 88.285)">
      <g id="Grupo_6216" data-name="Grupo 6216">
        <path id="Caminho_31928" data-name="Caminho 31928" d="M279.114,202.55s6.228-8.189,10.151-11.6,10.663-8.786,13.391-8.786,3.41,1.707,3.584,2.3,2.474,9.214,2.474,9.638-2.389,1.11-2.559.6-1.195-7.85-1.623-9.214-.343-2.131-3.584-.767-12.794,11.6-14.76,13.989-3.838,4.863-3.838,4.863a13.167,13.167,0,0,0-3.241-1.025Z" transform="translate(-276.63 -182.16)" fill="#263238" stroke="#263238" stroke-miterlimit="10" stroke-width="1"/>
        <path id="Caminho_31929" data-name="Caminho 31929" d="M521.023,249.088c-.2-.288-.466-.623-.657-.669-.3-.076-2.3,3.321-2.792,4.164a5.5,5.5,0,0,1,.915-.919,52.738,52.738,0,0,1-1.962,7.676c-.94,2.389-.682,3.5.254,3.41s2.22-4.351,2.987-6.74a33.189,33.189,0,0,0,1.254-6.922Z" transform="translate(-413.126 -220.347)" fill="#fff" stroke="#263238" stroke-miterlimit="10" stroke-width="1"/>
        <path id="Caminho_31930" data-name="Caminho 31930" d="M381.1,236.825c-.343-1.534-2.559.428-3.5,1.792a94.909,94.909,0,0,1-7.592,8.274c-2.389,2.3-11.345,9.981-12.286,10.663s-2.046,1.877-2.728,1.961a6.77,6.77,0,0,1-3.326-.513,27.876,27.876,0,0,0-5.376-3.669c-4.1-2.22-21.839-7.338-23.118-7.422s-2.3,1.195-4.1,1.961-4.779.941-6.058-.169-2.817-3.923-3.669-5.973-2.22-2.559-3.41-3.241-15.527-6.994-18.17-7.85a34.78,34.78,0,0,0-6.482-1.534,8.855,8.855,0,0,0-2.3.169s-.169.254-.852-.254-2.9-1.449-3.584-.085-1.707,4.52-1.11,5.715l.6,1.195a100.26,100.26,0,0,0-.343,10.324c.254,2.644,2.3,6.058,4.008,8.1s8.532,5.884,13.565,7.079,8.1.513,9.468-.428,5.546-5.63,6.571-6.74.936-1.792,4.266-.767a7.492,7.492,0,0,1,5.118,5.2c.6,1.792,2.813,8.956,4.605,11.26a21.441,21.441,0,0,0,8.7,6.91c4.351,1.877,7.253,3.326,11.345,2.817s6.312-2.389,7.592-4.605,2.131-6.655,2.559-8.02a4.67,4.67,0,0,1,1.792-2.22,4.92,4.92,0,0,0,2.22-1.961c.513-1.195,4.52-4.863,4.52-4.863s6.482-5.118,8.956-7.935,9.638-11.091,9.638-10.833a52.6,52.6,0,0,1-1.961,7.676c-.94,2.389-.682,3.5.254,3.41s2.22-4.351,2.987-6.74,1.534-7.164,1.195-8.7ZM308.585,250.9a5.131,5.131,0,0,1-.682,1.449c-.513.767-3.923,6.228-6.058,7.935s-4.605,3.156-7.164,2.9-9.13-2.728-13.989-6.571-5.546-8.871-5.033-13.735,2.22-8.189,4.779-8.7,11.006,1.623,16.806,4.69,10.748,6.825,11.091,8.1a18.672,18.672,0,0,1,.254,3.923Zm40.861,17.488c-.513,4.436-1.534,6.994-3.071,9.041s-3.326,2.987-8.1,2.559a22.777,22.777,0,0,1-11.688-4.605c-3.326-2.389-4.436-5.546-5.715-8.532s-3.5-8.956-2.22-12.709a4.213,4.213,0,0,1,5.033-2.817s3.156.682,3.41.767,19.111,5.63,19.962,6.91a14.646,14.646,0,0,1,2.389,9.384Z" transform="translate(-273.255 -209.864)" fill="#263238" stroke="#263238" stroke-miterlimit="10" stroke-width="1"/>
        <path id="Caminho_31931" data-name="Caminho 31931" d="M353.83,260.9a5.515,5.515,0,0,1,1.534,2.644c.767,2.131,1.877,5.63,4.948,6.312s6.143-1.961,6.143-1.961" transform="translate(-319.695 -227.542)" fill="none" stroke="#fff" stroke-miterlimit="10" stroke-width="1"/>
        <path id="Caminho_31932" data-name="Caminho 31932" d="M392.29,276.61s13.735,3.41,19.793,6.143,6.655,5.118,6.91,5.287,2.817,1.279,4.1.343" transform="translate(-341.861 -236.597)" fill="none" stroke="#fff" stroke-miterlimit="10" stroke-width="1"/>
        <path id="Caminho_31933" data-name="Caminho 31933" d="M277.31,233.92s1.534,1.364,2.728,1.025a8.474,8.474,0,0,1,4.69-.169,94.294,94.294,0,0,1,15.527,5.2c7.164,3.241,8.786,4.605,8.786,4.605" transform="translate(-275.592 -211.992)" fill="none" stroke="#fff" stroke-miterlimit="10" stroke-width="1"/>
        <path id="Caminho_31934" data-name="Caminho 31934" d="M277.3,269.16s-.343,5.63,3.5,8.956" transform="translate(-275.582 -232.303)" fill="none" stroke="#fff" stroke-miterlimit="10" stroke-width="1"/>
      </g>
    </g>
  </g>
</svg>
