<?xml version="1.0" encoding="UTF-8"?><svg xmlns="http://www.w3.org/2000/svg" viewBox="0 0 750 500"><defs><style>.cls-1{fill:#fff;}.cls-2{fill:#fafafa;}.cls-3{opacity:.6;}.cls-4{fill:#f5f5f5;}.cls-5{fill:#455a64;}.cls-6{fill:#ffbf9d;}.cls-7{fill:#e0e0e0;}.cls-8{fill:#ff9a6c;}.cls-9{fill:#ff725e;}.cls-10{opacity:.3;}.cls-11{fill:#ebebeb;}.cls-12{fill:#263238;}</style></defs><g id="Background_Complete"><g><g><path class="cls-7" d="M53.07,392.9c-3.64-2.29-7.82-3.73-12.1-4.16-1.98-.2-4.14-.15-5.72,1.05-.34,.25-.66,.63-.59,1.05,.06,.31,.31,.53,.56,.72,4.92,3.76,12.37,4.23,17.85,1.35"/><path class="cls-7" d="M52.76,392.55c-2.74-2.14-5.49-4.29-7.82-6.88-2.32-2.59-4.21-5.66-4.9-9.06-.21-1.03-.28-2.21,.39-3.03,6.23,4.87,11.12,11.16,12.33,18.97"/><path class="cls-7" d="M53.01,392.85c-.47-3.41-.64-6.91,.14-10.26,.78-3.35,2.6-6.56,5.47-8.47,1.08,2.52,.61,5.41-.14,8.04-1.17,4.06-3.01,7.93-5.42,11.41"/><path class="cls-7" d="M59.11,403.79c-3.71,.45-6.94,2.4-9.7,4.91-2.77,2.51-4.74,5.88-5.55,9.53,3.64-.22,6.72-2.79,8.96-5.66s3.79-6.03,6.25-8.72"/><path class="cls-7" d="M60.44,405.54c-2.99-7.35-1.9-16.22,2.76-22.64,2.11,7.51,1.34,16-2.76,22.64"/><path class="cls-7" d="M68.51,415.15c-3.36-.21-6.78,.59-9.71,2.27-2.92,1.68-5.33,4.24-6.84,7.25-.21,.41-.39,.93-.11,1.3,.24,.32,.7,.35,1.1,.32,3.26-.21,6.15-2.17,8.54-4.41,2.39-2.23,4.46-4.82,7.1-6.75"/><path class="cls-7" d="M68.25,414.63c-1.74-5.55-1.84-11.6-.31-17.22,.61-2.22,1.62-4.55,3.67-5.59,.17-.09,.38-.17,.56-.1,.17,.07,.27,.24,.36,.41,.73,1.52,.94,3.25,.87,4.94-.08,1.69-.43,3.35-.77,5-.65,3.06-.99,6.34-2.66,8.98-.4,.63-.75,1.3-1.07,1.97-.32,.67-.32,.91-.61,1.44"/><path class="cls-7" d="M89.61,417.81c-1.58-6.02,.1-13.32,3.89-18.25,.28-.36,.65-.75,1.11-.71,.7,.06,.88,1,.85,1.7-.27,6.15-2.33,12.21-5.84,17.26"/><path class="cls-7" d="M91.54,419.13c7.31,1.9,15.7,.05,21.78-4.43-3.6-1.83-7.85-2.35-11.79-1.45s-7.54,2.67-9.99,5.88"/><path class="cls-7" d="M93.16,415.12c4.1-6.68,11.95-11.04,19.77-11.43-.9,3.18-3.52,5.66-6.47,7.15-2.95,1.49-6.24,2.15-9.49,2.78-1.26,.25-3,.51-3.81,1.51"/><path class="cls-7" d="M90.02,395.67c1.11-3.8,2.22-7.63,2.53-11.58,.3-3.95-.26-8.07-2.31-11.45-3.83,7.4-4.21,16.05-.34,23.43"/><path class="cls-7" d="M102.9,389.16c4.47-8.13,13.6-14.63,22.84-15.54-3.56,8.87-13.28,15.73-22.84,15.54"/><path class="cls-7" d="M100.08,390.75c6.67,1.02,12.36,5.28,18.59,7.86,1.33,.55,2.77,.99,4.2,.8,1.43-.19,2.84-1.15,3.16-2.56,.27-1.17-.27-2.41-1.1-3.27-.84-.86-1.95-1.39-3.05-1.85-6.79-2.83-14.07-2.9-21.23-1.18"/><path class="cls-7" d="M96.22,395.43c1.51,.43,2.03,1.21,3.22,2.23,4.06,3.46,8.93,5.96,14.1,7.24,.54,.13,1.25,.19,1.51-.3,.23-.43-.06-.94-.36-1.32-2.17-2.71-5.26-4.57-8.51-5.78-3.25-1.21-6.07-2.67-9.96-2.36"/><path class="cls-7" d="M91.86,367.17c5.43,5.06,13.07,7.66,20.46,6.96,.34-.03,.7-.09,.93-.33,.51-.56-.1-1.42-.7-1.89-6.01-4.69-13.3-6.63-20.68-4.73"/><path class="cls-7" d="M97.03,365.28c7.17-5.38,17.01-7,25.53-4.21-3.21,3.17-7.67,4.87-12.16,5.34-4.49,.47-8.98-.03-13.36-1.13"/><path class="cls-7" d="M94.98,352.29c-.59-6-.21-10.74-.62-16.77-.03-.48-.14-1.06-.59-1.24-.63-.24-1.15,.53-1.36,1.17-1.79,5.56-.81,11.94,2.56,16.71"/><path class="cls-7" d="M94.55,352.95c4.07-2.52,7.12-5.8,9.94-9.66,1.96-2.69,3.62-5.91,3.17-9.21-2.76-.06-5.38,1.47-7.17,3.56-1.79,2.1-2.86,4.72-3.66,7.36-.8,2.64-1.35,5.36-2.29,7.95"/><path class="cls-7" d="M104.32,350.24c8.93-3.3,17.26-8.21,24.47-14.43-2.92-1.18-6.27-.47-9.19,.71-6.68,2.7-12.13,7.24-15.41,13.66"/><path class="cls-7" d="M97.29,356.24c4.52,.49,9.11,.82,13.59,.07,4.41-.74,8.57-2.48,12.69-4.22,.34-.14,.71-.32,.86-.65,.16-.37-.01-.82-.31-1.09-.3-.27-.69-.4-1.08-.51-4.48-1.25-9.31-.67-13.71,.82-4.4,1.49-8.01,3.25-12.04,5.58"/><path class="cls-7" d="M71.5,367.37c-3.08-6.22-2.88-13.48-.22-19.89,1.87,2.86,2.1,6.49,1.76,9.89-.34,3.4-1.38,6.9-1.44,10.31"/><path class="cls-7" d="M59.19,361.17c-7.69-.15-15.39,3.13-20.62,8.78,3.84,.6,7.8-.39,11.29-2.09,3.49-1.71,6.6-4.1,9.67-6.48"/><path class="cls-7" d="M50.91,358.4c-3.76-.31-7.39-.77-11.01,.34-3.62,1.11-6.91,3.63-8.39,7.11,3.52,.4,7.09-.49,10.32-1.95,3.23-1.46,6.16-3.49,9.08-5.5"/><path class="cls-7" d="M63.16,358.52c-3.39-2.22-6.86-4.48-10.81-5.4-3.94-.92-8.51-.24-11.26,2.73,3.19,1.87,7.06,2.09,10.77,2.09s8.24-.04,11.73,1.19"/><path class="cls-7" d="M63.18,358.7c-5.79-5.69-7.98-15.9-5.66-23.67,4.55,6.91,6.59,15.45,5.66,23.67"/><path class="cls-7" d="M79.1,342.59c1.09-2.54,1.86-5.2,2.84-7.79,.98-2.58,2.2-5.13,4.05-7.18,1.85-2.05,4.41-3.58,7.17-3.72-1.73,7.82-6.92,14.81-13.92,18.72"/><path class="cls-7" d="M76.22,345.95c-1.81-2.49-3.89-5.86-6.34-7.72-2.45-1.86-5.64-2.98-8.63-2.27,3.04,5.44,8.79,9.27,14.98,9.99"/><path class="cls-7" d="M76.8,342.8c-1.18-3.01-2.38-6.05-2.86-9.25-.48-3.2-.19-6.61,1.45-9.41,3.18,6.01,4.2,12.46,1.57,18.72"/><path class="cls-7" d="M79.13,324.15c1.8-5.96,7.25-10.34,13.14-12.35,.74-.25,1.53-.47,2.3-.35,.78,.12,1.54,.65,1.7,1.42,.21,1.01-.62,1.92-1.41,2.59-4.58,3.92-9.97,6.9-15.73,8.69"/><path class="cls-7" d="M79.2,319.28c.23-3.84,.47-7.74,1.72-11.37,1.25-3.64,3.66-7.05,7.16-8.64,.6,3.88-1.12,7.74-3.18,11.07-2.06,3.34-4.55,6.49-5.79,10.21"/><path class="cls-7" d="M79.1,321.92c-1.49-4.34-1.64-9.85-4.24-13.63-1.82-2.64-4.73-4.44-6.29-7.24-1.04,2.61-.72,5.63,.37,8.22,1.09,2.6,2.88,4.83,4.81,6.88,1.92,2.05,3.57,3.6,5.36,5.77"/><path class="cls-7" d="M79.13,449.74c-.12,0-.22-28.95-.22-64.66,0-35.72,.08-64.67,.19-64.67s.22,28.95,.22,64.67c0,35.71-.08,64.66-.19,64.66Z"/><path class="cls-7" d="M104.43,363.01s-.38,.17-1.09,.41c-.78,.26-1.79,.6-3,1.01-2.53,.86-6,2.11-9.76,3.65-3.73,1.6-7.25,2.9-9.25,4.63-1,.86-1.57,1.78-1.86,2.46-.29,.68-.34,1.1-.38,1.09-.01,0,0-.11,.01-.3,.03-.2,.08-.49,.21-.84,.24-.71,.8-1.7,1.81-2.62,1.01-.92,2.41-1.74,4.01-2.49,1.61-.75,3.38-1.53,5.27-2.31,3.78-1.55,7.27-2.75,9.83-3.54,1.28-.4,2.32-.69,3.04-.89,.72-.19,1.13-.28,1.14-.25Z"/><path class="cls-7" d="M112.73,342.63s-.1,.12-.31,.33c-.25,.23-.55,.52-.93,.87-.86,.78-2.04,1.85-3.47,3.15-2.99,2.67-7.06,6.28-11.54,10.28-4.51,4.01-8.4,7.84-11.1,10.73-1.35,1.44-2.42,2.64-3.14,3.47l-.84,.96c-.19,.22-.3,.33-.31,.32-.01,0,.07-.14,.25-.37,.18-.23,.43-.58,.78-1.01,.69-.87,1.72-2.09,3.05-3.56,2.65-2.94,6.52-6.82,11.04-10.84,4.52-4,8.64-7.6,11.63-10.19,1.47-1.26,2.67-2.29,3.56-3.05,.4-.33,.72-.6,.98-.81,.23-.18,.35-.27,.36-.26Z"/><path class="cls-7" d="M91.62,361.34c-.12-.05,.82-2.23,1.76-4.98,.95-2.75,1.39-5.07,1.51-5.05,.11,.01-.16,2.4-1.12,5.18-.47,1.39-.99,2.61-1.4,3.48-.41,.87-.7,1.38-.76,1.36Z"/><path class="cls-7" d="M79.16,378.87s-.27-.27-.69-.81c-.47-.6-1.07-1.37-1.78-2.28-1.49-1.93-3.56-4.6-5.88-7.52-2.32-2.92-4.44-5.54-5.99-7.43-.73-.9-1.34-1.65-1.82-2.25-.42-.54-.65-.84-.63-.86,.02-.02,.29,.25,.75,.75,.46,.5,1.12,1.24,1.92,2.17,1.6,1.85,3.77,4.44,6.09,7.36,2.32,2.92,4.35,5.62,5.78,7.6,.72,.99,1.29,1.8,1.67,2.36,.38,.57,.59,.89,.56,.9Z"/><path class="cls-7" d="M73.61,371.74c-.07,.07-1.55-1.68-2.32-4.35-.57-1.88-.6-3.6-.53-4.39h.18c-.08,.35-.14,.53-.18,.52-.03,0-.03-.19,0-.54h.18c.07,.8,.19,2.46,.74,4.28,.75,2.59,2.04,4.4,1.92,4.47Z"/><path class="cls-7" d="M66.45,362.73c-.05,.06-.53-.54-1.62-.94-1.08-.42-2.72-.51-4.51-.36-1.79,.13-3.39,.45-4.54,.73-1.15,.28-1.85,.51-1.87,.45-.02-.05,.65-.37,1.79-.73,1.14-.36,2.76-.73,4.58-.86,1.81-.16,3.53-.02,4.65,.5,1.14,.5,1.55,1.21,1.51,1.22Z"/><path class="cls-7" d="M64.75,360.55c-.03,.07-.95-.38-2.49-.91-1.54-.53-3.73-1.08-6.2-1.28-2.48-.18-4.73,.03-6.33,.32-1.6,.29-2.57,.59-2.59,.52,0-.03,.23-.13,.66-.28,.43-.16,1.07-.35,1.88-.53,1.61-.37,3.9-.64,6.42-.45,2.52,.2,4.74,.81,6.27,1.42,.77,.3,1.37,.58,1.78,.81,.41,.22,.62,.35,.61,.38Z"/><path class="cls-7" d="M79.1,351.32c-.11,.03-.92-2.79-1.81-6.3-.89-3.51-1.52-6.37-1.41-6.4,.11-.03,.92,2.79,1.81,6.3,.89,3.51,1.52,6.37,1.41,6.4Z"/><path class="cls-7" d="M79.22,351.32c-.12,.04-.65-1.84-2.01-3.77-1.33-1.97-3.02-2.95-2.96-3.05,.02-.04,.49,.13,1.14,.59,.65,.45,1.46,1.23,2.16,2.22,1.41,2.01,1.77,4,1.67,4.01Z"/><path class="cls-7" d="M79.13,434.3s-.13-.7-.46-1.93c-.32-1.23-.93-2.97-1.93-5.01-2-4.09-5.64-9.27-10.27-14.46-2.29-2.62-4.52-5.09-6.4-7.45-1.89-2.36-3.44-4.61-4.58-6.6-1.14-1.99-1.88-3.7-2.31-4.9-.21-.6-.37-1.08-.45-1.4-.09-.32-.13-.5-.12-.5,.04-.01,.25,.66,.73,1.84,.48,1.18,1.25,2.85,2.41,4.81,1.16,1.96,2.73,4.17,4.62,6.51,1.89,2.34,4.12,4.8,6.42,7.42,4.64,5.21,8.27,10.45,10.22,14.61,.98,2.07,1.55,3.85,1.83,5.1,.13,.63,.22,1.12,.26,1.45,.04,.33,.06,.51,.04,.51Z"/><path class="cls-7" d="M102,408.48s-.42,.25-1.2,.67c-.77,.43-1.86,1.1-3.11,2.05-1.25,.96-2.65,2.21-4.08,3.72-1.43,1.51-2.91,3.27-4.41,5.15-3.01,3.78-5.83,7.12-7.51,9.79-.86,1.32-1.48,2.44-1.89,3.22-.41,.78-.63,1.22-.66,1.21-.01,0,.03-.12,.11-.34,.09-.22,.21-.54,.4-.94,.36-.81,.95-1.95,1.78-3.31,1.64-2.73,4.43-6.12,7.44-9.89,1.51-1.89,3-3.65,4.46-5.16,1.46-1.51,2.9-2.76,4.18-3.69,1.29-.94,2.41-1.57,3.21-1.96,.4-.2,.72-.32,.94-.41,.22-.09,.33-.13,.34-.11Z"/><path class="cls-7" d="M102.44,416.85c0,.06-.97,.18-2.53,.37-1.56,.2-3.73,.46-6.01,1.18-2.27,.74-4.15,1.86-5.38,2.82-1.24,.96-1.82,1.75-1.88,1.7-.02-.01,.1-.23,.38-.58,.27-.35,.71-.83,1.32-1.35,1.21-1.04,3.11-2.23,5.44-2.99,2.33-.74,4.53-.95,6.11-1.08,1.58-.11,2.56-.13,2.56-.07Z"/><path class="cls-7" d="M87.38,422.01c-.13-.07,1.01-1.82,1.89-4.16,.83-2.37,1.03-4.44,1.17-4.42,.05,0,.05,.53-.04,1.36-.1,.83-.3,1.99-.74,3.2-.44,1.21-1.02,2.23-1.47,2.94-.45,.71-.77,1.11-.82,1.08Z"/><path class="cls-7" d="M109.4,385.98s-.13,.09-.41,.22c-.31,.14-.71,.32-1.19,.54-.52,.22-1.15,.51-1.87,.88-.72,.37-1.55,.75-2.42,1.27l-1.38,.79c-.48,.28-.95,.6-1.46,.92-1.02,.62-2.04,1.38-3.13,2.16-2.13,1.62-4.37,3.53-6.53,5.74-2.14,2.23-3.97,4.54-5.52,6.72-.74,1.12-1.47,2.16-2.05,3.2-.3,.51-.61,1-.87,1.49-.26,.49-.5,.96-.74,1.41-.49,.89-.84,1.73-1.19,2.46-.35,.73-.61,1.37-.82,1.9-.2,.49-.37,.89-.5,1.21-.12,.27-.19,.42-.2,.41-.01,0,.03-.16,.12-.44,.11-.33,.25-.74,.43-1.24,.18-.54,.42-1.19,.76-1.93,.33-.74,.66-1.6,1.14-2.5,.23-.46,.47-.93,.72-1.43,.25-.5,.56-.99,.85-1.51,.57-1.05,1.29-2.11,2.03-3.24,1.54-2.21,3.38-4.55,5.53-6.8,2.17-2.23,4.44-4.15,6.6-5.76,1.1-.77,2.14-1.53,3.17-2.14,.51-.31,.99-.63,1.48-.9,.49-.27,.96-.52,1.4-.77,.88-.51,1.73-.87,2.46-1.22,.73-.36,1.37-.62,1.9-.82,.5-.19,.9-.35,1.22-.47,.28-.1,.43-.15,.44-.14Z"/><path class="cls-7" d="M91.31,398.11s.16-.71,.99-1.48c.81-.77,2.29-1.49,4.01-1.54,1.72-.05,3.2,.43,4.22,.82,1.02,.4,1.62,.73,1.6,.77-.02,.06-.66-.17-1.69-.5-1.03-.31-2.48-.73-4.11-.69-1.62,.05-3.02,.67-3.83,1.34-.83,.67-1.12,1.3-1.19,1.26Z"/><path class="cls-7" d="M88.6,400.9c-.11-.06,.91-1.56,1.14-3.7,.27-2.14-.38-3.83-.26-3.87,.05-.02,.27,.37,.47,1.08,.2,.7,.33,1.72,.2,2.84-.13,1.11-.49,2.08-.85,2.71-.35,.64-.67,.97-.71,.94Z"/></g><path class="cls-7" d="M59.14,438.45c.62,11.07,3.96,22.32,9.09,33.7h22.3c4.89-11.26,7.99-22.5,8.55-33.7H59.14Z"/><path class="cls-2" d="M95.46,456.35c0,.12-7.34,.21-16.4,.21s-16.4-.09-16.4-.21,7.34-.21,16.4-.21,16.4,.09,16.4,.21Z"/><path class="cls-2" d="M94.96,460.36c0,.12-6.88,.21-15.37,.21s-15.38-.09-15.38-.21,6.88-.21,15.38-.21,15.37,.09,15.37,.21Z"/><path class="cls-2" d="M68.58,445.71c.12,0,.21,2.3,.21,5.14s-.09,5.14-.21,5.14-.21-2.3-.21-5.14,.09-5.14,.21-5.14Z"/><path class="cls-2" d="M80.53,445.71c.12,0,.21,2.38,.21,5.32s-.09,5.32-.21,5.32-.21-2.38-.21-5.32,.09-5.32,.21-5.32Z"/><path class="cls-2" d="M91.75,445.62c.12,0,.21,2.43,.21,5.43s-.09,5.43-.21,5.43-.21-2.43-.21-5.43,.09-5.43,.21-5.43Z"/><path class="cls-2" d="M98.36,445.71c0,.12-8.61,.21-19.23,.21s-19.24-.09-19.24-.21,8.61-.21,19.24-.21,19.23,.09,19.23,.21Z"/></g><g><g><polygon class="cls-7" points="719.15 57.97 719.15 143.12 609.16 143.12 605.19 58.56 719.15 57.97"/><g><rect class="cls-4" x="617.86" y="45.8" width="84.67" height="109.99" transform="translate(559.4 760.98) rotate(-90)"/><path class="cls-7" d="M715.61,143.54h-110.83V58.04h110.83v85.5Zm-109.99-.84h109.15V58.88h-109.15v83.83Z"/></g><g><rect class="cls-1" x="617.11" y="67.16" width="86.17" height="64.82"/><path class="cls-7" d="M703.27,67.16s-.14,0-.42,.01h-1.21c-1.08,.02-2.65,.02-4.69,.04-4.1,.01-10.09,.03-17.67,.05-15.15,.02-36.67,.06-62.17,.1l.2-.2c0,19.44,.01,41.51,.02,64.81h0l-.22-.21c32.09,.01,61.83,.03,86.17,.04l-.18,.18c.04-19.59,.07-35.77,.09-47.07,.02-5.65,.04-10.08,.05-13.11,0-1.51,.02-2.66,.02-3.45,0-.78,.02-1.19,.02-1.19,0,0,.01,.39,.02,1.16,0,.78,.01,1.93,.02,3.42,.01,3.02,.03,7.43,.05,13.07,.02,11.32,.05,27.54,.09,47.18v.18h-.18c-24.33,.01-54.08,.02-86.17,.04h-.22v-.22h0c0-23.31,.01-45.38,.02-64.82v-.2h.2c25.56,.04,47.11,.07,62.3,.1,7.56,.02,13.53,.04,17.63,.05,2.03,.01,3.59,.02,4.65,.02,.52,0,.91,0,1.19,.01,.27,0,.4,.01,.4,.01Z"/></g><path class="cls-7" d="M605.19,58.26s.74,.39,1.86,1.14c1.12,.75,2.64,1.82,4.3,3.04,1.65,1.22,3.11,2.38,4.15,3.24,1.03,.86,1.65,1.43,1.61,1.48-.04,.05-.72-.43-1.8-1.23-1.2-.89-2.63-1.96-4.22-3.13-1.58-1.18-3.01-2.24-4.22-3.14-1.07-.82-1.72-1.35-1.68-1.39Z"/><path class="cls-7" d="M715.19,58.46c.07,.1-2.54,2.12-5.83,4.53-3.29,2.4-6.01,4.27-6.09,4.17-.07-.1,2.54-2.12,5.83-4.53,3.29-2.4,6.01-4.27,6.09-4.17Z"/><g><line class="cls-1" x1="715.19" y1="143.12" x2="702.84" y2="131.98"/><path class="cls-7" d="M702.83,131.98c.08-.09,2.91,2.33,6.32,5.41,3.41,3.08,6.11,5.65,6.03,5.73-.08,.09-2.91-2.33-6.32-5.41-3.41-3.08-6.11-5.64-6.03-5.73Z"/></g><path class="cls-7" d="M605.19,143.12c-.08-.09,2.49-2.55,5.75-5.48,3.26-2.94,5.96-5.25,6.04-5.16,.08,.09-2.49,2.54-5.75,5.48-3.26,2.94-5.96,5.25-6.04,5.16Z"/></g><path class="cls-7" d="M680.14,79.11c0,.12-8.52,.23-19.04,.23s-19.04-.1-19.04-.23,8.52-.23,19.04-.23,19.04,.1,19.04,.23Z"/><path class="cls-7" d="M688.71,100.54c0,.12-12.77,.23-28.52,.23s-28.53-.1-28.53-.23,12.77-.23,28.53-.23,28.52,.1,28.52,.23Z"/><path class="cls-7" d="M688.71,105.84c0,.12-12.77,.23-28.52,.23s-28.53-.1-28.53-.23,12.77-.23,28.53-.23,28.52,.1,28.52,.23Z"/><g><path class="cls-7" d="M628.84,89.77c0-2.01,1.53-3.43,3.62-3.43,1.21,0,2.19,.44,2.83,1.24l-1.19,1.07c-.41-.5-.92-.77-1.55-.77-1.08,0-1.84,.75-1.84,1.88s.75,1.88,1.84,1.88c.63,0,1.14-.27,1.55-.77l1.19,1.07c-.64,.8-1.62,1.24-2.83,1.24-2.09,0-3.62-1.42-3.62-3.43Z"/><path class="cls-7" d="M641.42,91.63v1.44h-5.29v-6.59h5.17v1.44h-3.32v1.11h2.93v1.39h-2.93v1.21h3.45Z"/><path class="cls-7" d="M645.34,91.32h-1.02v1.75h-1.86v-6.59h3.01c1.8,0,2.93,.93,2.93,2.44,0,.97-.47,1.69-1.29,2.08l1.42,2.07h-2l-1.2-1.75Zm.02-3.37h-1.04v1.93h1.04c.77,0,1.16-.36,1.16-.96s-.39-.97-1.16-.97Z"/><path class="cls-7" d="M650.73,87.96h-2.02v-1.48h5.9v1.48h-2.01v5.11h-1.86v-5.11Z"/><path class="cls-7" d="M655.31,86.48h1.86v6.59h-1.86v-6.59Z"/><path class="cls-7" d="M660.37,87.92v1.45h2.91v1.44h-2.91v2.26h-1.86v-6.59h5.17v1.44h-3.3Z"/><path class="cls-7" d="M664.55,86.48h1.86v6.59h-1.86v-6.59Z"/><path class="cls-7" d="M667.4,89.77c0-2.01,1.54-3.43,3.63-3.43,1.21,0,2.19,.44,2.83,1.24l-1.19,1.07c-.41-.5-.92-.77-1.55-.77-1.08,0-1.84,.75-1.84,1.88s.75,1.88,1.84,1.88c.63,0,1.14-.27,1.55-.77l1.19,1.07c-.64,.8-1.62,1.24-2.83,1.24-2.09,0-3.63-1.42-3.63-3.43Z"/><path class="cls-7" d="M678.99,91.79h-2.79l-.52,1.28h-1.9l2.91-6.59h1.84l2.92,6.59h-1.94l-.52-1.28Zm-.55-1.37l-.85-2.11-.85,2.11h1.69Z"/><path class="cls-7" d="M683.05,87.96h-2.02v-1.48h5.9v1.48h-2.01v5.11h-1.86v-5.11Z"/><path class="cls-7" d="M692.92,91.63v1.44h-5.29v-6.59h5.17v1.44h-3.32v1.11h2.93v1.39h-2.93v1.21h3.45Z"/></g><g><path class="cls-7" d="M667.67,119c0,3.67-2.97,6.64-6.64,6.64s-6.64-2.97-6.64-6.64,2.97-6.64,6.64-6.64,6.64,2.97,6.64,6.64Z"/><path class="cls-7" d="M661.03,125.66c-3.67,0-6.66-2.99-6.66-6.66s2.99-6.66,6.66-6.66,6.66,2.99,6.66,6.66-2.99,6.66-6.66,6.66Zm0-13.28c-3.65,0-6.62,2.97-6.62,6.62s2.97,6.62,6.62,6.62,6.62-2.97,6.62-6.62-2.97-6.62-6.62-6.62Z"/></g><path class="cls-7" d="M647.53,119c0,.13-3.58,.23-8,.23s-8-.1-8-.23,3.58-.23,8-.23,8,.1,8,.23Z"/><path class="cls-7" d="M691.39,119c0,.13-4.01,.23-8.95,.23s-8.95-.1-8.95-.23,4.01-.23,8.95-.23,8.95,.1,8.95,.23Z"/><path class="cls-11" d="M643.4,117.75s-.06-.18-.1-.55c-.03-.36-.04-.91,.09-1.6,.14-.68,.39-1.51,1.01-2.33,.17-.2,.39-.39,.68-.47,.3-.08,.63,0,.88,.19,.51,.35,.75,1.09,.56,1.73-.17,.65-.58,1.19-.98,1.73-.41,.54-.88,1.08-1.47,1.55-.58,.46-1.29,.86-2.11,.97-.8,.11-1.69-.03-2.41-.54-.75-.49-1.13-1.47-1.06-2.36,.06-.91,.35-1.74,.72-2.58,.2-.42,.47-.83,.87-1.14,.4-.3,.93-.46,1.46-.36,.54,.09,.99,.57,1.1,1.09,.12,.52,.04,1.03-.09,1.5-.31,.94-.76,1.76-1.31,2.53-.56,.75-1.27,1.41-2.11,1.81-.84,.4-1.79,.53-2.68,.34-.89-.17-1.69-.75-2.12-1.5-.45-.74-.61-1.6-.56-2.4,.05-.8,.28-1.55,.58-2.23,.3-.64,.67-1.4,1.47-1.61,.41-.09,.83,.15,1.01,.47,.19,.32,.25,.66,.27,.98,.03,1.27-.31,2.4-.79,3.27-.46,.88-1.06,1.52-1.59,1.97-.53,.45-1.01,.71-1.34,.87-.34,.15-.52,.2-.52,.19-.03-.05,.73-.28,1.75-1.19,.49-.46,1.05-1.09,1.48-1.96,.44-.85,.74-1.94,.7-3.13-.02-.29-.08-.59-.23-.82-.14-.23-.4-.36-.67-.31-.26,.05-.51,.27-.71,.53-.2,.25-.34,.57-.49,.89-.57,1.26-.83,2.91,0,4.26,.39,.66,1.06,1.14,1.85,1.29,.78,.16,1.65,.04,2.4-.32,1.53-.74,2.59-2.38,3.18-4.07,.12-.42,.18-.87,.08-1.26-.09-.39-.38-.69-.75-.76-.37-.07-.79,.05-1.11,.28-.32,.24-.56,.59-.74,.97-.34,.78-.63,1.62-.68,2.41-.06,.8,.24,1.58,.87,2,.61,.44,1.4,.58,2.12,.49,.72-.09,1.38-.44,1.93-.87,.55-.43,1.01-.95,1.42-1.47,.41-.53,.79-1.04,.94-1.6,.17-.55-.02-1.12-.42-1.42-.4-.33-.92-.15-1.2,.21-.58,.74-.87,1.56-1.03,2.21-.3,1.33-.11,2.11-.17,2.11Z"/><path class="cls-11" d="M689.29,116.69s-.06,.04-.17,.1c-.12,.05-.29,.14-.53,.24-.47,.2-1.18,.46-2.12,.73-.94,.26-2.11,.52-3.5,.64-.69,.06-1.44,.1-2.23,.08-.79,.02-1.64-.16-2.47-.06-.41,.05-.8,.23-1.07,.55-.28,.31-.32,.75-.13,1.15,.18,.4,.51,.77,.81,1.16,.31,.39,.64,.77,.98,1.15,.34,.38,.7,.77,1.08,1.14,.37,.38,.75,.77,1.21,.93,.46,.18,.96-.03,1.26-.44,.32-.41,.39-.96,.38-1.52-.48-4.64-.1-9.97,1.67-15.2l.19-.57,.23,.56c.5,1.2,.81,2.57,.89,3.96,.1,1.91-.21,3.81-.91,5.53-.35,.86-.78,1.67-1.29,2.41-.5,.72-1.13,1.51-2.09,1.76-.48,.14-1.08-.06-1.37-.49-.29-.43-.33-.9-.36-1.33-.05-.85-.02-1.7,.08-2.52,.2-1.64,.69-3.19,1.38-4.56l.14-.29,.19,.26c1.09,1.47,.6,3.67-.85,4.48-1.43,.81-3.3,.35-4.09-.89-.79-1.23-.57-2.82,.27-3.74,.2-.23,.46-.43,.76-.53,.3-.1,.69-.02,.89,.25,.2,.26,.23,.57,.21,.84-.01,.27-.08,.53-.17,.77-.66,1.88-1.7,3.11-2.45,3.83-.38,.37-.71,.61-.92,.77-.22,.16-.34,.23-.35,.22,0,0,.1-.1,.31-.27,.21-.18,.51-.44,.88-.81,.72-.75,1.71-1.97,2.32-3.82,.15-.43,.25-1-.03-1.37-.3-.38-.92-.12-1.25,.31-.74,.82-.92,2.29-.21,3.37,.69,1.08,2.39,1.49,3.63,.76,1.25-.7,1.68-2.68,.72-3.93l.33-.03c-.66,1.33-1.13,2.83-1.32,4.43-.1,.8-.12,1.62-.07,2.44,.02,.41,.08,.81,.28,1.1,.2,.28,.55,.41,.92,.31,.36-.09,.72-.32,1.02-.6,.3-.27,.54-.64,.8-.99,.49-.72,.91-1.5,1.24-2.33,.67-1.65,.96-3.49,.87-5.33-.08-1.34-.38-2.66-.86-3.82h.42c-1.75,5.15-2.14,10.37-1.69,15.03,.02,.59-.07,1.26-.47,1.77-.19,.25-.44,.46-.75,.58-.31,.12-.66,.1-.95,0-.59-.22-.98-.66-1.35-1.04-.38-.39-.74-.77-1.08-1.17-.34-.39-.67-.78-.98-1.18-.3-.4-.64-.77-.85-1.25-.23-.47-.17-1.11,.2-1.49,.34-.39,.82-.59,1.27-.64,.46-.06,.9-.02,1.31,.02,.41,.03,.81,.06,1.2,.07,.78,.02,1.52,0,2.21-.05,1.37-.1,2.54-.33,3.48-.56,.94-.24,1.65-.48,2.13-.65,.48-.17,.73-.27,.74-.25Z"/></g><path class="cls-11" d="M343.83,283.55c5.06-2.12,8.65-7.33,8.68-13.48,.03-8.05-6.06-14.6-13.6-14.63-7.54-.03-13.69,6.46-13.72,14.51-.03,6.2,3.6,11.48,8.71,13.6-21.02,3.17-20.07,26.02-20.07,26.02l49.72,.23s1.13-23.1-19.71-26.25Z"/><g><path class="cls-11" d="M455.49,62.63l7.84,1.73s1.45-6.58,8.32-5.19c3.57,.72,4.89,3.46,5.25,5.41,.41,2.26-.37,4.56-1.96,6.23-1.81,1.9-5.17,3.25-10.24,1.15l-3.91,17.67,7.75,1.71,2.29-10.35s11.49-.41,14.14-12.39c2.53-11.46-7.16-16.4-11.56-17.37-3.36-.74-15.01-2.46-17.91,11.4Z"/><rect class="cls-11" x="459.05" y="94.04" width="8.06" height="7.52" transform="translate(32.02 -97.63) rotate(12.46)"/></g><g><path class="cls-4" d="M170.66,113.61l6.13-2.67s-2.24-5.15,3.07-7.57c2.76-1.26,4.99-.06,6.18,1.08,1.38,1.32,1.98,3.26,1.72,5.16-.29,2.17-1.9,4.72-6.34,5.79l6.01,13.82,6.06-2.64-3.52-8.1s7.55-5.9,3.47-15.27c-3.9-8.97-12.84-7.55-16.29-6.05-2.63,1.14-11.32,5.68-6.5,16.45Z"/><rect class="cls-4" x="189.63" y="130.47" width="6.71" height="6.27" transform="translate(-37.27 88.05) rotate(-23.5)"/></g><g><path class="cls-4" d="M339.59,346.67l6.1,2.73s2.29-5.12,7.66-2.83c2.79,1.19,3.41,3.64,3.37,5.29-.04,1.91-1.07,3.66-2.65,4.75-1.8,1.24-4.76,1.78-8.55-.79l-6.16,13.76,6.03,2.7,3.61-8.06s9.44,1.6,13.62-7.73c3.99-8.92-3.08-14.58-6.51-16.11-2.62-1.17-11.83-4.53-16.53,6.29Z"/><rect class="cls-4" x="336.52" y="373.51" width="6.71" height="6.27" transform="translate(183.47 -105.97) rotate(24.11)"/></g><g><rect class="cls-7" x="31.83" y="59.72" width="104.65" height="173.23"/><rect class="cls-11" x="28.35" y="59.72" width="104.65" height="173.23"/><rect class="cls-1" x="32.8" y="63.23" width="95.74" height="166.21"/><g><rect class="cls-11" x="51.03" y="84.83" width="58.87" height="123.01"/><path class="cls-7" d="M51.03,164.31c-.14-11.49,10.2-22.71,21.57-24.31,5.43-.76,11.19,.31,16.26-1.77,9.05-3.71,11.93-15.73,21.04-19.3l.42,88.91H51.03v-43.53Z"/></g></g></g><g id="Floor"><path class="cls-12" d="M725.34,471.31c0,.14-157.76,.26-352.33,.26s-352.36-.12-352.36-.26,157.73-.26,352.36-.26,352.33,.12,352.33,.26Z"/></g><g id="Samples"><g><g><g><path class="cls-7" d="M559.83,344.76l1.13,101.36c.21,5.68,4.86,10.18,10.55,10.19h0c5.96,0,10.75-4.91,10.58-10.87v-100.44l-22.26-.24Z"/><path class="cls-9" d="M562.69,396.73l.11,48.28c.17,4.8,4.11,8.61,8.92,8.62h0c5.04,0,9.09-4.15,8.95-9.19l-.35-47.51-17.64-.19Z"/><rect class="cls-9" x="553.26" y="337.51" width="35.39" height="21.74" rx="2.19" ry="2.19"/><g><rect class="cls-2" x="565.81" y="372.76" width="11.76" height="52.42"/><path class="cls-12" d="M577.57,425.18s-.01-.1-.02-.28c0-.2,0-.46-.02-.78,0-.72-.02-1.72-.03-2.99-.02-2.62-.04-6.38-.07-11.05-.03-9.38-.07-22.44-.11-37.31l.26,.26c-3.79,0-7.73,0-11.75,0,.51-.52,.14-.14,.26-.25v2.01c0,.67,0,1.34,0,2.01v3.97c0,2.62,0,5.2,0,7.72,0,5.03-.02,9.82-.02,14.3-.03,8.94-.06,16.61-.08,22.4l-.15-.15c3.67,.04,6.59,.06,8.62,.08,.99,.02,1.76,.03,2.31,.04l.6,.02c.14,0,.21,0,.21,.01,0,0-.06,0-.19,.01-.15,0-.34,0-.58,.02-.55,0-1.31,.02-2.28,.04-2.05,.02-5,.05-8.71,.08h-.15v-.15c-.02-5.79-.05-13.46-.08-22.4,0-4.48-.01-9.27-.02-14.3,0-2.52,0-5.09,0-7.72,0-1.31,0-2.64,0-3.97,0-.67,0-1.34,0-2.01v-2.01c.12-.12-.26,.25,.26-.27,4.03,0,7.96,0,11.75,0h.26v.26c-.05,14.94-.09,28.06-.12,37.49-.03,4.65-.06,8.39-.07,11-.01,1.25-.03,2.24-.03,2.94l-.02,.75c0,.17-.01,.25-.02,.24Z"/></g><path class="cls-12" d="M558.52,359.31c-.14,0-.26-4.74-.26-10.58s.12-10.58,.26-10.58,.26,4.74,.26,10.58-.12,10.58-.26,10.58Z"/><path class="cls-12" d="M563.51,359.31c-.14,0-.26-4.74-.26-10.58s.12-10.58,.26-10.58,.26,4.74,.26,10.58-.12,10.58-.26,10.58Z"/><path class="cls-12" d="M568.51,359.31c-.14,0-.26-4.74-.26-10.58s.12-10.58,.26-10.58,.26,4.74,.26,10.58-.12,10.58-.26,10.58Z"/><path class="cls-12" d="M573.51,359.31c-.14,0-.26-4.74-.26-10.58s.12-10.58,.26-10.58,.26,4.74,.26,10.58-.12,10.58-.26,10.58Z"/><path class="cls-12" d="M578.5,359.31c-.14,0-.26-4.74-.26-10.58s.12-10.58,.26-10.58,.26,4.74,.26,10.58-.12,10.58-.26,10.58Z"/><path class="cls-12" d="M583.5,359.31c-.14,0-.26-4.74-.26-10.58s.12-10.58,.26-10.58,.26,4.74,.26,10.58-.12,10.58-.26,10.58Z"/><rect class="cls-7" x="569.68" y="387.16" width="4.01" height="30.8" rx="1.53" ry="1.53"/><path class="cls-9" d="M573.71,381.61c0,1.11-.9,2.02-2.02,2.02s-2.02-.9-2.02-2.02,.9-2.02,2.02-2.02,2.02,.9,2.02,2.02Z"/></g><g><path class="cls-7" d="M601.38,344.76l1.13,101.36c.21,5.68,4.86,10.18,10.55,10.19h0c5.96,0,10.75-4.91,10.58-10.87v-100.44l-22.26-.24Z"/><path class="cls-9" d="M604.24,396.73l.11,48.28c.17,4.8,4.11,8.61,8.92,8.62h0c5.04,0,9.09-4.15,8.95-9.19l-.35-47.51-17.64-.19Z"/><rect class="cls-9" x="594.81" y="337.51" width="35.39" height="21.74" rx="2.19" ry="2.19"/><g><rect class="cls-2" x="607.36" y="372.76" width="11.76" height="52.42"/><path class="cls-12" d="M619.12,425.18s-.01-.1-.02-.28l-.02-.78c0-.72-.02-1.72-.03-2.99-.02-2.62-.04-6.38-.07-11.05-.03-9.38-.07-22.44-.11-37.31l.26,.26c-3.79,0-7.73,0-11.75,0,.51-.52,.14-.14,.26-.25v2.01c0,.67,0,1.34,0,2.01v3.97c0,2.62,0,5.2,0,7.72,0,5.03-.02,9.82-.02,14.3-.03,8.94-.06,16.61-.08,22.4l-.15-.15c3.67,.04,6.59,.06,8.62,.08,.99,.02,1.76,.03,2.31,.04l.6,.02c.14,0,.21,0,.21,.01,0,0-.06,0-.19,.01-.15,0-.34,0-.58,.02-.55,0-1.31,.02-2.28,.04-2.05,.02-5,.05-8.71,.08h-.15v-.15c-.02-5.79-.05-13.46-.08-22.4,0-4.48-.01-9.27-.02-14.3,0-2.52,0-5.09,0-7.72v-3.97c0-.67,0-1.34,0-2.01v-2.01c.12-.12-.26,.25,.26-.27,4.03,0,7.96,0,11.75,0h.26v.26c-.05,14.94-.09,28.06-.12,37.49-.03,4.65-.06,8.39-.07,11-.01,1.25-.03,2.24-.03,2.94,0,.31-.01,.56-.02,.75,0,.17-.01,.25-.02,.24Z"/></g><path class="cls-12" d="M600.07,359.31c-.14,0-.26-4.74-.26-10.58s.12-10.58,.26-10.58,.26,4.74,.26,10.58-.12,10.58-.26,10.58Z"/><path class="cls-12" d="M605.06,359.31c-.14,0-.26-4.74-.26-10.58s.12-10.58,.26-10.58,.26,4.74,.26,10.58-.12,10.58-.26,10.58Z"/><path class="cls-12" d="M610.06,359.31c-.14,0-.26-4.74-.26-10.58s.12-10.58,.26-10.58,.26,4.74,.26,10.58-.12,10.58-.26,10.58Z"/><path class="cls-12" d="M615.06,359.31c-.14,0-.26-4.74-.26-10.58s.12-10.58,.26-10.58,.26,4.74,.26,10.58-.12,10.58-.26,10.58Z"/><path class="cls-12" d="M620.06,359.31c-.14,0-.26-4.74-.26-10.58s.12-10.58,.26-10.58,.26,4.74,.26,10.58-.12,10.58-.26,10.58Z"/><path class="cls-12" d="M625.05,359.31c-.14,0-.26-4.74-.26-10.58s.12-10.58,.26-10.58,.26,4.74,.26,10.58-.12,10.58-.26,10.58Z"/><rect class="cls-7" x="611.23" y="387.16" width="4.01" height="30.8" rx="1.53" ry="1.53"/><path class="cls-9" d="M615.26,381.61c0,1.11-.9,2.02-2.02,2.02s-2.02-.9-2.02-2.02,.9-2.02,2.02-2.02,2.02,.9,2.02,2.02Z"/></g><g><path class="cls-7" d="M642.93,344.76l1.13,101.36c.21,5.68,4.86,10.18,10.55,10.19h0c5.96,0,10.75-4.91,10.58-10.87v-100.44l-22.26-.24Z"/><path class="cls-9" d="M645.79,396.73l.11,48.28c.17,4.8,4.11,8.61,8.92,8.62h0c5.04,0,9.09-4.15,8.95-9.19l-.35-47.51-17.64-.19Z"/><rect class="cls-9" x="636.36" y="337.51" width="35.39" height="21.74" rx="2.19" ry="2.19"/><g><rect class="cls-2" x="648.91" y="372.76" width="11.76" height="52.42"/><path class="cls-12" d="M660.67,425.18s-.01-.1-.02-.28l-.02-.78c0-.72-.02-1.72-.03-2.99-.02-2.62-.04-6.38-.07-11.05-.03-9.38-.07-22.44-.11-37.31l.26,.26c-3.79,0-7.73,0-11.75,0,.51-.52,.14-.14,.26-.25v2.01c0,.67,0,1.34,0,2.01v3.97c0,2.62,0,5.2,0,7.72,0,5.03-.02,9.82-.02,14.3-.03,8.94-.06,16.61-.08,22.4l-.15-.15c3.67,.04,6.59,.06,8.62,.08,.99,.02,1.76,.03,2.31,.04l.6,.02c.14,0,.21,0,.21,.01,0,0-.06,0-.19,.01-.15,0-.34,0-.58,.02-.55,0-1.31,.02-2.28,.04-2.05,.02-5,.05-8.71,.08h-.15v-.15c-.02-5.79-.05-13.46-.08-22.4,0-4.48-.01-9.27-.02-14.3,0-2.52,0-5.09,0-7.72,0-1.31,0-2.64,0-3.97v-4.02c.12-.12-.26,.25,.26-.27,4.03,0,7.96,0,11.75,0h.26v.26c-.05,14.94-.09,28.06-.12,37.49-.03,4.65-.06,8.39-.07,11-.01,1.25-.03,2.24-.03,2.94l-.02,.75c0,.17-.01,.25-.02,.24Z"/></g><path class="cls-12" d="M641.62,359.31c-.14,0-.26-4.74-.26-10.58s.12-10.58,.26-10.58,.26,4.74,.26,10.58-.12,10.58-.26,10.58Z"/><path class="cls-12" d="M646.61,359.31c-.14,0-.26-4.74-.26-10.58s.12-10.58,.26-10.58,.26,4.74,.26,10.58-.12,10.58-.26,10.58Z"/><path class="cls-12" d="M651.61,359.31c-.14,0-.26-4.74-.26-10.58s.12-10.58,.26-10.58,.26,4.74,.26,10.58-.12,10.58-.26,10.58Z"/><path class="cls-12" d="M656.61,359.31c-.14,0-.26-4.74-.26-10.58s.12-10.58,.26-10.58,.26,4.74,.26,10.58-.12,10.58-.26,10.58Z"/><path class="cls-12" d="M661.61,359.31c-.14,0-.26-4.74-.26-10.58s.12-10.58,.26-10.58,.26,4.74,.26,10.58-.12,10.58-.26,10.58Z"/><path class="cls-12" d="M666.6,359.31c-.14,0-.26-4.74-.26-10.58s.12-10.58,.26-10.58,.26,4.74,.26,10.58-.12,10.58-.26,10.58Z"/><rect class="cls-7" x="652.78" y="387.16" width="4.01" height="30.8" rx="1.53" ry="1.53"/><path class="cls-9" d="M656.81,381.61c0,1.11-.9,2.02-2.02,2.02s-2.02-.9-2.02-2.02,.9-2.02,2.02-2.02,2.02,.9,2.02,2.02Z"/></g><rect class="cls-5" x="536.89" y="463.87" width="152.36" height="6.92"/><rect class="cls-5" x="676.66" y="398.61" width="7.82" height="68.2"/><rect class="cls-5" x="540.76" y="398.61" width="7.82" height="68.2"/><path class="cls-12" d="M688.87,463.9c0,.14-34.02,.26-75.99,.26s-75.99-.12-75.99-.26,34.02-.26,75.99-.26,75.99,.12,75.99,.26Z"/></g><g><rect class="cls-5" x="537.08" y="396.88" width="151.19" height="3.46"/><path class="cls-12" d="M688.27,400.34s-.01-.3-.02-.88c0-.59-.02-1.44-.03-2.58l.05,.05c-14.73,.12-76.84,.21-151.18,.21h0l.26-.26c0,1.19,0,2.37,0,3.46l-.26-.26c41.89,.04,79.65,.08,106.95,.11,13.66,.03,24.7,.06,32.34,.08,3.81,.02,6.78,.03,8.8,.04,1,0,1.76,.01,2.3,.02,.52,0,.79,.02,.79,.02,0,0-.25,.01-.76,.02-.52,0-1.28,.01-2.26,.02-2.01,0-4.95,.02-8.74,.04-7.63,.02-18.65,.05-32.28,.08-27.35,.03-65.18,.06-107.14,.11h-.26v-.26c0-1.09,0-2.27,0-3.46v-.26h.27c74.35,0,136.45,.09,151.18,.21h.05v.05c-.01,1.15-.02,2.01-.03,2.61,0,.58-.02,.85-.02,.85Z"/></g></g></g><g id="Document"><g><g><g><g><path class="cls-5" d="M646.09,311.47h-148.97c-3.62,0-6.55-2.79-6.55-6.24V98.54c0-3.45,2.93-6.24,6.55-6.24h148.97c3.62,0,6.55,2.79,6.55,6.24v206.69c0,3.45-2.93,6.24-6.55,6.24Z"/><g class="cls-10"><polygon points="503.49 304.52 639.39 303.99 640.94 285.14 636.78 273.78 502.26 288.87 503.49 304.52"/></g></g><polygon class="cls-1" points="643.08 299.67 498.78 299.67 498.78 101.57 644.44 101.57 643.08 299.67"/><g><path class="cls-12" d="M544.14,86.57h62.03c3.49,0,6.33,2.83,6.33,6.33v15.34h-74.68v-15.34c0-3.49,2.83-6.33,6.33-6.33Z"/><polygon class="cls-12" points="584.66 78.43 565.66 78.43 567.88 94.72 582.2 94.72 584.66 78.43"/><path class="cls-5" d="M607.7,86.57c0,.09-14.57,.16-32.54,.16s-32.55-.07-32.55-.16,14.57-.16,32.55-.16c17.97,0,32.54,.07,32.54,.16Z"/><path class="cls-5" d="M539.49,104.74c-.09,0-.16-3.06-.16-6.84s.07-6.84,.16-6.84,.16,3.06,.16,6.84-.07,6.84-.16,6.84Z"/><path class="cls-5" d="M610.09,103.12c-.09,0-.16-2.78-.16-6.21s.07-6.21,.16-6.21,.16,2.78,.16,6.21-.07,6.21-.16,6.21Z"/><path class="cls-5" d="M606.48,106c0,.09-14.96,.16-33.41,.16s-33.41-.07-33.41-.16,14.95-.16,33.41-.16c18.45,0,33.41,.07,33.41,.16Z"/></g><g class="cls-10"><polygon points="612.5 92.77 615.59 101.94 615.59 106.43 612.11 106.43 612.5 92.77"/></g></g><rect class="cls-9" x="559.43" y="131.03" width="56.72" height="6.02" rx="2.42" ry="2.42"/><rect class="cls-7" x="511.95" y="156.58" width="74.08" height="6.02" rx="2.42" ry="2.42"/><path class="cls-7" d="M513.21,169.71h0c0,.83,.66,1.5,1.48,1.5h85.14c.82,0,1.48-.67,1.48-1.5h0c0-.83-.66-1.5-1.48-1.5h-85.14c-.82,0-1.48,.67-1.48,1.5Z"/><path class="cls-7" d="M513.21,177.02h0c0,.83,.56,1.5,1.26,1.5h72.07c.69,0,1.26-.67,1.26-1.5h0c0-.83-.56-1.5-1.26-1.5h-72.07c-.69,0-1.26,.67-1.26,1.5Z"/><path class="cls-7" d="M513.21,191.93h0c0,.83,.56,1.5,1.26,1.5h72.07c.69,0,1.26-.67,1.26-1.5h0c0-.83-.56-1.5-1.26-1.5h-72.07c-.69,0-1.26,.67-1.26,1.5Z"/><path class="cls-7" d="M513.21,184.28h0c0,.83,.69,1.5,1.54,1.5h88.6c.85,0,1.54-.67,1.54-1.5h0c0-.83-.69-1.5-1.54-1.5h-88.6c-.85,0-1.54,.67-1.54,1.5Z"/><rect class="cls-7" x="511.95" y="208.52" width="48.52" height="6.02" rx="2.42" ry="2.42"/><path class="cls-7" d="M513.06,221.65h0c0,.83,.67,1.5,1.51,1.5h86.53c.83,0,1.51-.67,1.51-1.5h0c0-.83-.67-1.5-1.51-1.5h-86.53c-.83,0-1.51,.67-1.51,1.5Z"/><path class="cls-7" d="M513.06,228.97h0c0,.83,.5,1.5,1.11,1.5h63.52c.61,0,1.11-.67,1.11-1.5h0c0-.83-.5-1.5-1.11-1.5h-63.52c-.61,0-1.11,.67-1.11,1.5Z"/><path class="cls-7" d="M513.06,243.87h0c0,.83,.5,1.5,1.11,1.5h63.52c.61,0,1.11-.67,1.11-1.5h0c0-.83-.5-1.5-1.11-1.5h-63.52c-.61,0-1.11,.67-1.11,1.5Z"/><path class="cls-7" d="M513.06,236.22h0c0,.83,.61,1.5,1.36,1.5h78.1c.75,0,1.36-.67,1.36-1.5h0c0-.83-.61-1.5-1.36-1.5h-78.1c-.75,0-1.36,.67-1.36,1.5Z"/><rect class="cls-7" x="511.95" y="259.15" width="48.52" height="6.02" rx="2.42" ry="2.42"/><path class="cls-7" d="M513.06,272.28h0c0,.83,.67,1.5,1.51,1.5h86.53c.83,0,1.51-.67,1.51-1.5h0c0-.83-.67-1.5-1.51-1.5h-86.53c-.83,0-1.51,.67-1.51,1.5Z"/><path class="cls-7" d="M513.06,279.59h0c0,.83,.5,1.5,1.11,1.5h63.52c.61,0,1.11-.67,1.11-1.5h0c0-.83-.5-1.5-1.11-1.5h-63.52c-.61,0-1.11,.67-1.11,1.5Z"/><path class="cls-7" d="M513.06,286.85h0c0,.83,.61,1.5,1.36,1.5h78.1c.75,0,1.36-.67,1.36-1.5h0c0-.83-.61-1.5-1.36-1.5h-78.1c-.75,0-1.36,.67-1.36,1.5Z"/><circle class="cls-7" cx="528.99" cy="134.04" r="13.62"/><rect class="cls-7" x="614.8" y="208.52" width="13.96" height="13.96" rx="3.52" ry="3.52"/><path class="cls-7" d="M618.32,260.76h6.92c1.94,0,3.52,1.58,3.52,3.52v6.92c0,1.94-1.58,3.52-3.52,3.52h-6.92c-1.94,0-3.52-1.58-3.52-3.52v-6.92c0-1.94,1.58-3.52,3.52-3.52Z"/><rect class="cls-7" x="614.8" y="155.84" width="13.96" height="13.96" rx="3.52" ry="3.52"/></g><polygon class="cls-1" points="616.69 163.49 618.02 162.16 620.59 164.45 625.64 159.59 626.88 160.92 620.4 167.02 616.69 163.49"/><polygon class="cls-1" points="616.69 214.61 618.02 213.28 620.59 215.57 625.64 210.71 626.88 212.04 620.4 218.14 616.69 214.61"/><path class="cls-1" d="M530.31,134.28c1.29-.54,2.21-1.87,2.21-3.44,0-2.05-1.54-3.72-3.47-3.73-1.92,0-3.49,1.65-3.5,3.7,0,1.58,.92,2.93,2.22,3.47-5.36,.81-5.12,6.64-5.12,6.64l12.68,.06s.29-5.89-5.03-6.7Z"/></g></g><g id="Microscope"><g><g><polygon class="cls-7" points="197.25 334.8 191.32 325.4 276.25 275.74 281.85 287.04 197.25 334.8"/><path class="cls-12" d="M197.25,334.8s.15-.1,.43-.26c.3-.17,.72-.42,1.26-.73,1.12-.64,2.75-1.58,4.84-2.77,4.22-2.4,10.32-5.88,17.89-10.19,15.17-8.6,36.27-20.55,60.04-34.02l-.1,.34c-1.77-3.57-3.64-7.35-5.54-11.17l-.06-.13,.36,.11c-37.55,21.88-69.95,40.77-85,49.54l.04-.16c1.89,3.05,3.35,5.4,4.34,7,.48,.79,.86,1.39,1.12,1.82,.25,.41,.37,.64,.37,.64,0,0-.13-.19-.39-.58-.27-.41-.65-1-1.15-1.77-1.03-1.6-2.53-3.94-4.48-6.99l-.06-.1,.1-.06c15.02-8.82,47.37-27.8,84.85-49.79l.24-.14,.12,.25,.06,.13c1.9,3.83,3.77,7.6,5.54,11.18l.11,.22-.21,.12c-23.88,13.43-45.07,25.35-60.31,33.92-7.59,4.25-13.69,7.66-17.92,10.03-2.09,1.16-3.71,2.06-4.83,2.68-.54,.29-.95,.52-1.25,.68-.28,.15-.42,.22-.42,.22Z"/></g><g><polygon class="cls-7" points="222.3 389.47 230.57 384.27 235.16 391.43 226.72 397.86 221.03 395.1 222.3 389.47"/><rect class="cls-12" x="230.4" y="356.97" width="77.79" height="19.62" transform="translate(-99.82 100.69) rotate(-17.93)"/><path class="cls-7" d="M187.79,259.47s.27,.1,.77,.26c2.18,.67,8.79,2.33,17.04,.85,10.14-1.82,14.64-4.13,23.24-9.46,8.6-5.34,13.92-15.3,15.09-17.79,1.16-2.49,1.16-8.54,1.16-8.54"/><polygon class="cls-7" points="122.81 165.82 167.38 243.07 207.68 219 164.9 140.57 122.81 165.82"/><path class="cls-7" d="M135.63,214.12s-36.16,58.75-12.82,120.37c7.17,18.94,16.16,33.64,25.17,44.92,14.62,18.3,34.56,31.61,56.98,38.42,10.23,3.1,22.13,6.65,25.73,7.42,6.69,1.43,16.72,.96,9.08-11.94-7.64-12.9-31.41-32-25.74-61.14l3.29-10.03-18.63,11.94s4.3,8.6-.96,11.94c-5.25,3.34-38.69-15.28-48.72-51.59-8.92-32.29-4.35-58.74,1.57-71.07,1.96-4.08,6.76-6.11,10.95-4.38,1.77,.73,3.74,2,5.85,4.09l16.98-15.09-36.78-36.16-11.94,22.31Z"/><path class="cls-12" d="M151.27,215.59c.12-.07,3.79,6.08,8.18,13.74,4.39,7.66,7.85,13.93,7.73,14-.12,.07-3.79-6.08-8.18-13.74-4.39-7.66-7.85-13.93-7.73-14Z"/><polygon class="cls-12" points="122.81 165.82 125.3 155.87 154.42 138.8 164.9 140.57 122.81 165.82"/><polygon class="cls-12" points="125.3 155.87 88.98 93.28 117.43 76.98 154.42 138.8 125.3 155.87"/><rect class="cls-12" x="83.74" y="81.34" width="37.77" height="6.64" rx="2.97" ry="2.97" transform="translate(-28.58 62.65) rotate(-30)"/><polygon class="cls-12" points="168.62 242.33 175.24 254.99 214.03 231.29 207.68 219 168.62 242.33"/><polygon class="cls-5" points="184.37 255.24 181.8 250.98 240.09 215.85 243.93 221.19 184.37 255.24"/><path class="cls-12" d="M182.88,259.3h0c-.77-1.27-.35-2.93,.93-3.67l59.99-34.76c1.34-.78,3.05-.41,3.95,.86h0c1.02,1.44,.58,3.46-.96,4.33l-60.34,34.17c-1.24,.7-2.82,.29-3.57-.93Z"/><polygon class="cls-5" points="192.58 347.18 197.88 356.31 225.27 339.54 220.81 330.62 192.58 347.18"/><polygon class="cls-12" points="190.45 348.03 185.36 339.96 289.16 280.1 294.68 288.59 190.45 348.03"/><path class="cls-5" d="M228.09,382.07l7.98,12.66,37.52-24.14c2.62-1.68,3.43-5.14,1.83-7.81h0c-1.58-2.66-4.98-3.59-7.7-2.12l-39.64,21.41Z"/><path class="cls-7" d="M272.75,365.84c0,1.37-1.11,2.48-2.48,2.48s-2.48-1.11-2.48-2.48,1.11-2.48,2.48-2.48,2.48,1.11,2.48,2.48Z"/><g><path class="cls-7" d="M128.59,442.75l54.83-69.64c4.02-5.11,10.59-7.51,16.96-6.19h0c7.88,1.63,13.57,8.51,13.68,16.56,.14,10.13,.57,23.08,1.85,28.6,2.24,9.7,13.14,21.28,29.42,24.41,16.27,3.13,67.29,6.26,67.29,6.26v11.27H142.05l-13.46-11.27Z"/><path class="cls-12" d="M128.59,442.75s.31,.24,.89,.72c.59,.48,1.45,1.2,2.58,2.13,2.27,1.89,5.64,4.68,10.05,8.34l-.06-.02c28.72-.03,92.57-.09,170.56-.16l-.26,.26c0-3.54,0-7.39,0-11.27l.24,.26c-10.88-.68-22.28-1.5-33.88-2.47-8.03-.68-15.96-1.41-23.75-2.36-3.89-.49-7.77-.97-11.55-1.86-3.78-.9-7.41-2.29-10.76-4.13-6.66-3.68-12.37-9.12-15.51-15.83-.22-.41-.37-.84-.54-1.27-.16-.43-.35-.85-.48-1.29-.25-.89-.52-1.76-.67-2.66-.33-1.79-.53-3.58-.7-5.37-.33-3.57-.51-7.1-.65-10.59-.13-3.49-.22-6.94-.27-10.34,.1-3.39-.63-6.71-2.27-9.55-1.65-2.81-4.06-5.13-6.88-6.58-2.81-1.45-5.98-2.11-9.04-1.87-3.06,.22-5.99,1.29-8.42,2.98-1.22,.84-2.31,1.84-3.25,2.94-.94,1.11-1.82,2.28-2.71,3.4-3.56,4.52-6.99,8.85-10.25,12.99-13.08,16.55-23.67,29.94-31,39.21-3.67,4.63-6.52,8.23-8.46,10.67-.97,1.22-1.71,2.14-2.21,2.78-.5,.63-.77,.95-.77,.95,0,0,.23-.32,.72-.94,.49-.63,1.22-1.56,2.16-2.78,1.92-2.45,4.74-6.05,8.36-10.69,7.3-9.3,17.84-22.75,30.88-39.37,3.27-4.16,6.69-8.51,10.25-13.05,.9-1.13,1.77-2.29,2.72-3.43,.96-1.13,2.08-2.15,3.32-3.02,2.48-1.74,5.49-2.83,8.62-3.06,3.14-.25,6.38,.43,9.27,1.91,2.89,1.48,5.37,3.85,7.07,6.74,1.69,2.9,2.44,6.36,2.34,9.77,.05,3.4,.14,6.84,.28,10.33,.14,3.48,.32,7.01,.66,10.56,.34,3.54,.74,7.17,2.35,10.44,3.08,6.58,8.72,11.96,15.3,15.59,3.31,1.82,6.89,3.19,10.63,4.08,3.74,.87,7.61,1.35,11.5,1.84,7.78,.95,15.71,1.67,23.73,2.36,11.59,.97,23,1.79,33.87,2.48l.24,.02v.24c0,3.88,0,7.73,0,11.27v.26h-.26c-77.99-.07-141.84-.13-170.56-.16h-.04l-.03-.02c-4.39-3.71-7.75-6.54-10.02-8.46-1.12-.95-1.96-1.67-2.54-2.16-.57-.48-.84-.73-.84-.73Z"/></g><rect class="cls-7" x="128.59" y="442.75" width="214.62" height="28.05"/><circle class="cls-5" cx="197.25" cy="382.27" r="10.91" transform="translate(-130.51 103.68) rotate(-22.34)"/><path class="cls-7" d="M188.54,259.79c.18,.94,0,5.58,0,5.58l3.46,2.23,3.32,27.82,18.71-2.71-3.79-27.33,2.63-4.17-1.25-5.14-23.08,3.73Z"/><path class="cls-7" d="M211.06,255.99c.51,.81,1.81,5.21,1.81,5.21l4.21,.84,13.28,23.8,16.27-8.23-13.3-24.17,2.19-4.64-3.85-4.99-20.6,12.17Z"/><path class="cls-7" d="M231.65,244.78c.78,.56,3.85,4.03,3.85,4.03l4.04-.78,21.45,16.82,11.83-13.87-21.61-17.16-.98-4.83-4.91-1.98-13.66,17.76Z"/><circle class="cls-12" cx="140.58" cy="196.52" r="24.66"/><circle class="cls-5" cx="140.58" cy="196.34" r="15.28"/><path class="cls-5" d="M118.67,78.95c.07,.13-6.3,3.87-14.22,8.37-7.93,4.5-14.4,8.04-14.48,7.91-.07-.12,6.29-3.87,14.22-8.37,7.92-4.49,14.4-8.04,14.47-7.91Z"/><path class="cls-5" d="M153.36,139.02c.07,.13-6.3,3.87-14.22,8.37-7.92,4.5-14.4,8.04-14.48,7.91-.07-.12,6.29-3.87,14.22-8.37,7.92-4.49,14.4-8.04,14.47-7.91Z"/><path class="cls-12" d="M209.81,265.46c.02,.14-3.98,.81-8.93,1.48-4.95,.68-8.98,1.11-9,.97-.02-.14,3.98-.81,8.93-1.48,4.95-.68,8.98-1.11,9-.97Z"/><path class="cls-12" d="M214.51,292.95c-.04,.09-1.08-.34-2.85-.72-1.76-.38-4.26-.61-6.99-.25-1.36,.19-2.63,.51-3.76,.88-1.12,.39-2.11,.81-2.9,1.24-1.59,.84-2.48,1.55-2.54,1.47-.02-.03,.18-.22,.57-.56,.39-.34,.99-.77,1.78-1.24,.78-.48,1.78-.94,2.92-1.37,1.15-.4,2.45-.74,3.85-.94,2.8-.38,5.37-.07,7.14,.4,.89,.24,1.59,.48,2.06,.7,.47,.21,.72,.34,.7,.37Z"/><path class="cls-12" d="M232.65,253.67c.07,.13-3.37,2.19-7.68,4.61-4.31,2.42-7.86,4.29-7.93,4.16-.07-.13,3.37-2.19,7.68-4.61,4.31-2.42,7.86-4.29,7.93-4.16Z"/><path class="cls-12" d="M246.26,276.73c0,.09-1.09,.06-2.8,.33-1.71,.27-4.03,.94-6.32,2.26-2.28,1.33-4.01,3.02-5.09,4.37-1.08,1.35-1.59,2.32-1.67,2.27-.03-.02,.07-.27,.29-.71,.21-.45,.58-1.06,1.09-1.78,1.02-1.44,2.77-3.23,5.12-4.6,2.35-1.36,4.77-2,6.53-2.18,.88-.09,1.6-.11,2.09-.07,.49,.03,.76,.07,.76,.1Z"/><path class="cls-12" d="M251.01,233.44c.06,.05-.56,.87-1.57,2.19-1.12,1.46-2.46,3.21-3.95,5.15-1.46,1.95-2.79,3.72-3.89,5.19-1,1.33-1.63,2.14-1.69,2.1-.06-.04,.47-.93,1.39-2.31,.92-1.39,2.24-3.27,3.78-5.29,1.54-2.02,2.99-3.8,4.08-5.06,1.09-1.26,1.8-2,1.86-1.96Z"/><path class="cls-12" d="M272.37,251.18c0,.1-1.12,.05-2.75,.69-1.62,.62-3.65,2.09-5.15,4.3-1.5,2.22-2.28,4.56-2.83,6.23-.54,1.69-.85,2.74-.93,2.72-.06-.02,.12-1.1,.58-2.83,.47-1.71,1.21-4.12,2.76-6.42,1.56-2.3,3.73-3.79,5.45-4.35,.86-.29,1.59-.4,2.1-.41,.5-.01,.78,.03,.78,.06Z"/><path class="cls-12" d="M229.34,398.97c-.11,.09-1.91-1.94-3.85-4.66-1.95-2.72-3.28-5.08-3.16-5.15,.13-.08,1.65,2.15,3.58,4.85,1.93,2.7,3.54,4.87,3.43,4.96Z"/><path class="cls-12" d="M343.31,442.55c0,.14-48,.26-107.19,.26s-107.2-.12-107.2-.26,47.99-.26,107.2-.26,107.19,.12,107.19,.26Z"/></g></g></g><g id="Character"><g><g><path class="cls-12" d="M440.76,173.21c1.81-3.58,3.61-7.2,4.77-11.04,1.17-3.84,1.68-7.95,.87-11.88-.12-.6-1.32-4.65-1.93-4.69-.43-.02,.12,3.67-.15,4.01-2.61,3.23-3.83,7.4-4.14,11.54-.3,4.14-.02,7.95,.57,12.06"/><path class="cls-6" d="M443.49,158.14c1.86-9.89-2.34-19.22-12.29-20.81l-.93-.09c-9.33-.94-17.82,5.45-19.5,14.67-1.57,8.58-3.18,18.09-3.59,22.74-.84,9.62,8.62,12.08,8.62,12.08,.02,0-.84,14.94-.84,14.94l22.98-9.77,5.55-33.76Z"/><path class="cls-8" d="M415.79,186.8s6.02,.96,12.88-2.44c0,0-3.55,7.65-13.05,5.82l.17-3.38Z"/><path class="cls-12" d="M412.73,160.52c-.1,.72,.43,1.4,1.18,1.52,.75,.12,1.44-.37,1.54-1.1,.1-.72-.43-1.4-1.18-1.52-.75-.12-1.44,.37-1.54,1.1Z"/><path class="cls-12" d="M412.43,156.11c.15,.2,1.27-.47,2.75-.32,1.48,.13,2.48,1,2.66,.83,.09-.07-.05-.41-.49-.8-.43-.39-1.19-.8-2.11-.89-.92-.09-1.73,.17-2.21,.48-.49,.3-.68,.61-.6,.7Z"/><path class="cls-12" d="M425.21,162.52c-.1,.72,.43,1.4,1.18,1.52,.75,.12,1.44-.37,1.54-1.1,.1-.72-.43-1.4-1.18-1.52-.75-.12-1.44,.37-1.54,1.1Z"/><path class="cls-12" d="M426.84,158.16c.15,.2,1.27-.47,2.75-.32,1.48,.13,2.48,1,2.66,.83,.09-.07-.05-.41-.49-.8-.43-.39-1.19-.8-2.11-.89-.92-.09-1.73,.17-2.21,.48-.49,.3-.67,.61-.6,.7Z"/><path class="cls-12" d="M420.41,168.97c.02-.08-.89-.33-2.36-.67-.37-.08-.72-.19-.76-.45-.06-.28,.14-.67,.36-1.09,.45-.88,.91-1.8,1.4-2.76,1.96-3.93,3.42-7.18,3.26-7.26-.16-.08-1.88,3.05-3.83,6.98-.47,.97-.93,1.9-1.36,2.78-.19,.41-.48,.88-.34,1.46,.07,.29,.33,.52,.56,.61,.23,.1,.45,.12,.63,.15,1.49,.23,2.42,.33,2.43,.25Z"/><path class="cls-12" d="M427.52,152.17c.11,.42,1.6,.37,3.31,.76,1.72,.35,3.07,1,3.33,.66,.12-.16-.09-.56-.61-1.01-.52-.44-1.38-.9-2.41-1.12-1.03-.22-2-.15-2.65,.05-.66,.19-1.01,.48-.97,.67Z"/><path class="cls-12" d="M413.54,151.26c.23,.36,1.28,.12,2.5,.22,1.23,.06,2.24,.45,2.51,.12,.12-.16,0-.51-.43-.88-.41-.36-1.13-.69-1.98-.75-.84-.06-1.6,.17-2.06,.47-.47,.3-.64,.63-.55,.81Z"/><path class="cls-6" d="M441.99,165.18c.17-.05,6.8-1.29,5.93,5.26-.87,6.55-7.26,4.33-7.25,4.14,.01-.19,1.32-9.4,1.32-9.4Z"/><path class="cls-8" d="M443,172.36s.1,.09,.28,.21c.18,.11,.49,.21,.85,.13,.73-.16,1.45-1.18,1.64-2.36,.1-.59,.05-1.18-.1-1.68-.14-.51-.4-.88-.74-.99-.34-.13-.61,.05-.71,.22-.11,.17-.09,.31-.12,.31-.02,.01-.13-.13-.04-.39,.04-.13,.14-.27,.31-.38,.17-.11,.41-.14,.65-.08,.5,.1,.89,.63,1.06,1.17,.19,.55,.26,1.21,.15,1.88-.22,1.31-1.06,2.46-2.04,2.61-.48,.06-.84-.13-1.02-.31-.18-.19-.2-.34-.17-.35Z"/><path class="cls-12" d="M416.55,141.68c-.98-.73,2.69-3.71,5.46-4.52,4.18-1.23,10.34-1.48,13.82,.07,4.19,1.86,7.51,4.54,9.14,8.82,1.63,4.28,1.8,9.03,1.03,13.55-.23,1.38-.58,2.8-1.49,3.87-1.12,1.32-3,1.98-3.21,3.99-.08,.73-.39,1.44-.96,1.9-1.38,1.1-2.67-.3-3.17-1.59-1.08-2.77-.8-5.85-.51-8.8,.21-2.1,.42-4.24,1.29-6.16,.47-1.04,1.13-2,1.55-3.07,.42-1.07,.56-2.33,0-3.33-.09-.16-.25-.37-.46-.61-1.62-1.89-4.15-2.74-6.59-2.25-3.87,.78-10.43,1.84-11.9,.35-2.11-2.13-2.51-3.39-2.51-3.39l-1.5,1.19Z"/></g><g><path class="cls-8" d="M424.54,171.54c.14-.05,.3-.1,.44-.03,.12,.06,.18,.2,.22,.33,.33,1.06,.06,2.28-.67,3.11l-.02,.02c-1.09,1.2-3.09,.69-3.63-.83l-.4-1.14c.93-.33,3.14-1.12,4.07-1.45Z"/><path class="cls-12" d="M421.18,174.71c-.06,.01,.36,.71,1.53,.97,.28,.06,.65,.05,.97-.06,.32-.1,.69-.26,.97-.57,.54-.6,.81-1.44,.88-2.31,.02-.22,.03-.42,.01-.66-.03-.22-.07-.5-.32-.69-.27-.19-.58-.1-.75-.04-.18,.07-.35,.14-.53,.21-.64,.26-1.24,.5-1.81,.73-1.02,.43-1.65,.72-1.62,.77,.02,.06,.68-.13,1.73-.49,.58-.2,1.19-.41,1.84-.64,.33-.1,.77-.33,.89-.2,.17,.12,.17,.59,.13,.98-.06,.8-.31,1.57-.74,2.08-.21,.25-.5,.39-.79,.5-.3,.12-.54,.13-.81,.1-1.06-.15-1.54-.72-1.58-.67Z"/></g><g><g><g><path class="cls-12" d="M409.51,440.3l.77,19.53s-19.6,7.34-19.81,10.96l37.93-.13,.06-30.49-18.94,.11Z"/><path class="cls-7" d="M422,458.15c.73,.2,1.24,1.02,1.08,1.76-.17,.74-1,1.27-1.74,1.08-.74-.19-1.38-1.16-1.13-1.87,.25-.72,1.26-1.28,1.93-.93"/><path class="cls-5" d="M428.4,470.67l-.11-3.07-36.32,1.27s-1.69,.74-1.49,1.93l37.93-.13Z"/><path class="cls-1" d="M409.66,459.65c0,.19,.93,.27,1.85,.86,.93,.57,1.4,1.37,1.57,1.3,.17-.04-.11-1.14-1.23-1.84-1.11-.71-2.23-.48-2.19-.31Z"/><path class="cls-1" d="M405.69,461.3c-.04,.18,.76,.49,1.39,1.27,.65,.76,.82,1.61,1,1.6,.17,.03,.3-1.06-.51-2.01-.8-.96-1.88-1.04-1.89-.86Z"/><path class="cls-1" d="M403.45,466.07c.17,.04,.42-.89-.06-1.9-.47-1.02-1.35-1.41-1.42-1.26-.1,.15,.46,.69,.84,1.53,.4,.83,.46,1.61,.64,1.63Z"/><path class="cls-1" d="M409.98,455.17c.08,.17,.93-.09,1.97-.02,1.05,.05,1.86,.39,1.96,.24,.11-.13-.69-.82-1.93-.88-1.23-.07-2.1,.52-2.01,.67Z"/></g><g><path class="cls-12" d="M452.8,439.61l1.93,22.17-3.53,17.98c-.25,1.3,.64,2.54,1.95,2.7h0c.73,.09,1.46-.17,1.96-.72,3.18-3.47,14.82-16.29,14.59-17.9-.27-1.87-.49-23.52-.49-23.52l-16.42-.71Z"/><path class="cls-5" d="M453.16,482.46l16.45-20.11,.06,.94c.05,.81-.18,1.62-.67,2.27-1.3,1.75-5.01,6.5-13.81,16.18-.51,.56-1.28,.83-2.03,.72h0Z"/><g class="cls-3"><path class="cls-1" d="M464.59,455.48c-.53,.42-.66,1.27-.26,1.82,.4,.55,1.27,.69,1.8,.27,.54-.41,.72-1.43,.27-1.93-.46-.5-1.48-.61-1.91-.08"/></g><path class="cls-1" d="M457.61,472.43c-.12,.07-.7-1.06-2.06-1.6-1.34-.58-2.55-.19-2.59-.33-.02-.05,.25-.24,.76-.35,.51-.11,1.27-.08,2.01,.22,.75,.31,1.3,.83,1.58,1.27,.29,.44,.34,.77,.29,.79Z"/><path class="cls-1" d="M456.22,475.51c-.1,.1-.86-.57-2.03-.83-1.16-.28-2.14,0-2.19-.14-.07-.11,.97-.65,2.3-.34,1.33,.3,2.03,1.24,1.92,1.31Z"/><path class="cls-1" d="M460.31,468.43c-.1,.11-1.26-.93-3.04-1.49-1.78-.58-3.33-.41-3.34-.56-.04-.12,1.59-.53,3.49,.09,1.91,.6,3,1.89,2.9,1.96Z"/><path class="cls-1" d="M460.29,461.64c-.05,.14-1.31-.3-2.91-.25-1.6,.02-2.84,.51-2.9,.37-.07-.1,1.17-.84,2.89-.86,1.72-.04,2.98,.63,2.92,.74Z"/><path class="cls-1" d="M459.88,455.12c-.06,.13-1.34-.53-3.02-.34-1.69,.15-2.81,1.05-2.9,.93-.04-.04,.19-.34,.68-.67,.49-.33,1.26-.66,2.17-.75,.91-.09,1.73,.08,2.28,.31,.55,.23,.83,.47,.8,.52Z"/><path class="cls-1" d="M456.82,453.53s-.1-.29-.08-.84c.01-.54,.12-1.34,.53-2.24,.21-.43,.43-.97,1.03-1.31,.3-.17,.76-.14,1.04,.14,.28,.27,.39,.63,.42,.98,.07,1.41-1.06,2.85-2.63,3.16-1.58,.28-3.08-.54-3.79-1.72-.16-.31-.28-.69-.13-1.07,.15-.39,.59-.57,.91-.53,.67,.06,1.11,.41,1.51,.67,.8,.57,1.32,1.18,1.63,1.63,.31,.45,.42,.73,.39,.75-.07,.06-.63-1.05-2.21-2.09-.4-.24-.85-.54-1.33-.55-.23,0-.43,.1-.5,.29-.07,.18,0,.46,.13,.7,.6,.96,1.97,1.7,3.3,1.45,1.33-.24,2.31-1.51,2.27-2.65-.01-.27-.1-.54-.26-.7-.15-.15-.38-.18-.57-.08-.42,.2-.68,.69-.89,1.09-.83,1.69-.65,2.95-.75,2.93Z"/></g><g><path class="cls-12" d="M394.2,284.28s-3.26,13.21-2.28,25.97c.38,4.94,15.03,144.01,15.03,144.01h22.91l-6.44-130.73,1.84,.4s12.29,54.78,13.29,63.65c.9,7.97,11.26,65.88,11.26,65.88l20.58,.24-6.57-76.6-7.65-73.5-2.88-21.4-59.09,2.07Z"/><path class="cls-12" d="M426.97,310.44s-.32,.22-.94,.53c-.62,.29-1.54,.74-2.79,.98-.62,.11-1.33,.15-2.07,.01-.74-.13-1.53-.45-2.17-1.04-.64-.6-1.05-1.43-1.31-2.3-.27-.87-.42-1.78-.6-2.71-.72-3.71-1.2-7.09-1.49-9.55-.14-1.23-.24-2.22-.29-2.91-.05-.69-.06-1.07-.03-1.08,.03,0,.11,.37,.21,1.06,.12,.78,.26,1.75,.44,2.89,.37,2.44,.91,5.81,1.62,9.5,.36,1.83,.61,3.69,1.75,4.78,1.14,1.07,2.73,1.18,3.89,1.01,1.2-.18,2.12-.57,2.77-.81,.64-.25,1-.39,1.01-.36Z"/><path class="cls-12" d="M420.19,293.02s.15-.12,.46-.14c.31-.02,.79,.07,1.26,.4,.45,.33,.93,.93,.95,1.74,.04,.82-.6,1.63-1.44,1.93-.83,.32-1.84,.14-2.36-.51-.52-.62-.55-1.39-.43-1.93,.13-.56,.43-.94,.68-1.13,.25-.19,.43-.22,.44-.2,.06,.06-.63,.38-.79,1.4-.07,.48,0,1.12,.43,1.58,.4,.47,1.17,.61,1.86,.35,.69-.26,1.18-.87,1.17-1.49,.01-.62-.35-1.15-.72-1.47-.79-.67-1.52-.45-1.51-.53Z"/><path class="cls-12" d="M455.86,302.28s-.27,.07-.77,.12c-.5,.05-1.22,.07-2.11,.02-1.78-.08-4.25-.51-6.78-1.57-2.52-1.07-4.56-2.53-5.86-3.75-.65-.61-1.15-1.13-1.46-1.53-.31-.39-.47-.61-.45-.63,.06-.06,.79,.77,2.13,1.91,1.34,1.14,3.35,2.52,5.82,3.57,2.47,1.03,4.87,1.51,6.62,1.67,1.75,.17,2.85,.11,2.85,.19Z"/><path class="cls-12" d="M401.15,293.43s-.3,.94-1.04,2.3c-.74,1.36-1.92,3.14-3.48,4.84-1.56,1.7-3.18,2.97-4.41,3.77-1.23,.8-2.05,1.15-2.07,1.1-.03-.07,.74-.53,1.91-1.39,1.18-.86,2.74-2.15,4.27-3.82,1.53-1.67,2.73-3.39,3.52-4.68,.8-1.29,1.23-2.15,1.29-2.11Z"/></g></g><g><path class="cls-6" d="M353.79,194.15l-1.37-3.16s-1.17-5.01-1.6-6.22c-.43-1.21-2.68-5.02-3.17-5.31-.49-.29-4.83-3.77-5.55-5.03-.72-1.26-1.42-2.74-1.42-2.74,0,0-1.35,.29-1.49,1.87-.14,1.57,1.69,6.02,1.69,6.02l-6.96,7.23s1.37,4.61,3.18,6.13c1.81,1.52,3.93,2.44,4.35,2.99s1.44,1.98,1.44,1.98l10.89-3.75Z"/><polygon class="cls-12" points="344.83 188.63 333.6 159.82 331.17 160.73 342.24 189.35 344.83 188.63"/><g><path class="cls-6" d="M335.9,176.17s-2.08-.49-2.26,1.59c-.17,2.08,1.24,2.39,1.24,2.39,0,0-1.51,1.31-.3,3.45,0,0-1.29,1.39-.66,3.2l.65,1.25,1.54-.8s4.1,2.36,5.77,1.24l.59-.78s1.02,.15,1.42-.69c.4-.84,.46-.82-.64-2.33-1.1-1.52-4.41-3.35-4.41-3.35,0,0,2.09,.53,2.67-.34,.57-.87,.3-1.88-1.56-3-1.86-1.12-4.05-1.82-4.05-1.82Z"/><path class="cls-8" d="M335.9,176.17s.26,.11,.74,.31c.48,.2,1.19,.49,2.05,.92,.43,.22,.9,.48,1.39,.79,.48,.32,1,.7,1.35,1.24,.17,.27,.26,.59,.21,.91-.06,.31-.22,.66-.51,.81-.3,.16-.68,.2-1.07,.19-.38,0-.79-.07-1.18-.16l-.95-.22,.84,.5c1.23,.73,2.59,1.56,3.77,2.68,.3,.29,.55,.59,.79,.94,.24,.34,.52,.7,.63,1.05,.05,.16,0,.32-.09,.52l-.14,.29c-.04,.09-.1,.17-.16,.24-.25,.28-.69,.39-1.08,.35h-.1l-.06,.07c-.19,.25-.39,.51-.59,.78l.04-.04c-.07,.03-.14,.07-.22,.11-.42,.18-.91,.18-1.39,.13-.48-.05-.95-.19-1.4-.33-.91-.3-1.78-.7-2.58-1.14l-.08-.04-.08,.04c-.52,.27-1.04,.54-1.54,.8l.22,.07c-.22-.43-.44-.84-.65-1.25v.02c-.39-1.09-.02-2.28,.63-3.05l.07-.08-.05-.09c-.32-.58-.51-1.21-.45-1.8,.05-.59,.33-1.13,.7-1.49l.15-.15-.2-.06c-.41-.11-.75-.44-.93-.79-.19-.36-.24-.76-.26-1.12,0-.37,.04-.71,.14-1,.11-.29,.29-.51,.5-.65,.42-.29,.85-.3,1.12-.31,.27,0,.42,.03,.42,.01,0-.01-.14-.06-.42-.08-.27-.01-.72-.03-1.19,.27-.23,.15-.44,.39-.57,.7-.12,.31-.17,.68-.18,1.06,0,.38,.05,.81,.25,1.22,.2,.4,.56,.77,1.07,.93l-.05-.2c-.43,.41-.74,.98-.81,1.64-.08,.66,.12,1.35,.46,1.96l.02-.17c-.37,.43-.64,.95-.79,1.53-.15,.58-.12,1.22,.08,1.82h0v.02c.22,.41,.43,.83,.65,1.25l.07,.14,.14-.07c.5-.26,1.02-.53,1.54-.8h-.16c.82,.45,1.7,.86,2.64,1.17,.47,.15,.95,.29,1.47,.35,.51,.06,1.05,.07,1.57-.15,.09-.05,.19-.1,.27-.14h.02l.02-.04c.2-.27,.4-.53,.59-.78l-.16,.07c.5,.05,1.03-.07,1.38-.46,.09-.1,.15-.2,.21-.31l.14-.3c.1-.19,.19-.48,.11-.75-.16-.48-.45-.8-.69-1.16-.24-.35-.53-.7-.83-.98-1.24-1.15-2.6-1.97-3.86-2.7l-.11,.27c.42,.1,.83,.15,1.25,.16,.41,0,.83-.03,1.2-.24,.76-.49,.79-1.51,.37-2.09-.4-.6-.94-.97-1.44-1.29-.5-.31-.98-.56-1.43-.77-.88-.42-1.6-.68-2.09-.85-.25-.08-.44-.14-.57-.18-.13-.04-.2-.05-.2-.04Z"/></g><path class="cls-8" d="M335.01,183.95c-.02,.11,1.92,.3,4.01,1.36,2.11,1.04,3.42,2.47,3.5,2.39,.03-.03-.26-.42-.83-.96-.57-.54-1.44-1.2-2.52-1.74-1.08-.54-2.13-.84-2.9-.97-.77-.13-1.26-.13-1.26-.09Z"/><path class="cls-8" d="M334.87,180.29c0,.09,1.05,.13,2.25,.57,1.21,.42,2.1,.96,2.16,.88,.05-.07-.79-.76-2.05-1.2-1.26-.46-2.38-.34-2.36-.24Z"/></g><path class="cls-7" d="M464.65,210.91s11.12,47.88,9.95,62.51c-1.17,14.63-3.41,36.08-3.41,36.08l-15.64-.87,1.54-39.87-6.46-29.11,14.01-28.74Z"/><g><g><path class="cls-9" d="M440.69,193.31l10.8,7.55-12,48.01v42.63s-12.75,2.19-20.75,1.64c-4.59-.31-11.63-1.94-16.8-3.27h-.03c-1.88-.49-3.52-.94-4.69-1.26l-3.35-.89-3.29-4.12,.67-24.84-.38-4.47v-45.44c2.13-3.95,1.24-10.5,5.55-11.78l18.94-6.69s2.51,5.39,9.48,5.43c6.97,.04,13.44-6.84,13.44-6.84l2.4,4.35Z"/><path class="cls-7" d="M415.16,189.37l-6.64,3.28-16.78,5.66-27.88,17.58-8.11-23.93-17.38,6.32,12.75,34.27c2.28,5.58,7.98,9.22,13.96,8.42,.97-.13,1.94-.37,2.9-.72l22.56-8.58,.39,27.37-.86,100.09,18.15,1.28,.31-100.22c.29-24.78,6.64-70.83,6.64-70.83Z"/><path class="cls-12" d="M390.42,210.91s-.02,.16-.04,.47c-.01,.34-.03,.79-.05,1.36-.02,1.22-.05,2.91-.09,5-.05,4.22-.08,10.05-.01,16.49,.06,6.44,.2,12.27,.33,16.49,.08,2.08,.14,3.78,.19,4.99,.03,.56,.05,1.01,.07,1.36,.02,.31,.04,.47,.05,.47,.01,0,.02-.16,.02-.47,0-.34,0-.79,0-1.36-.02-1.22-.05-2.91-.08-5-.08-4.22-.17-10.05-.23-16.48-.06-6.44-.08-12.26-.08-16.48,0-2.08-.01-3.78-.01-5,0-.56-.01-1.02-.02-1.36,0-.31-.02-.47-.03-.47Z"/><path class="cls-7" d="M450.51,264.78l2.53-26.69,11.54-25.9c.63-2.17-3.25-8.38-5.25-9.43l-15.29-7.7-4.43-5.23-4.33,16.78c-1.31,5.06-2.15,13.18-3.23,26.56l-1.49,29.61c-.22,4.39,.02,8.8,.72,13.14l8.12,82.94s26.77,3.49,27.4-.14c.62-3.63-16.28-93.94-16.28-93.94Z"/></g><path class="cls-12" d="M451.51,253.79c.14,.02,1.45-9.43,2.92-21.09,1.47-11.67,2.55-21.14,2.41-21.16-.14-.02-1.45,9.42-2.92,21.09-1.47,11.66-2.55,21.14-2.41,21.15Z"/><path class="cls-12" d="M444.28,194.95s.04,.13,.07,.4c.04,.26,.06,.65,.07,1.16,.02,1.01-.05,2.47-.25,4.29-.19,1.81-.5,3.97-.88,6.39-.18,1.21-.38,2.48-.58,3.81-.05,.36-.18,.74-.46,1.05-.27,.31-.66,.5-1.03,.57-.76,.15-1.49,.05-2.21-.06l.25-.43c.75,1.14,.95,2.45,1.03,3.76,.13,3.4-.75,6.54-1.69,9.27-.97,2.73-2.08,5.1-3.08,7.04-.51,.95-.97,1.82-1.39,2.6-.43,.72-.82,1.36-1.15,1.91-.29,.47-.54,.87-.74,1.19-.17,.27-.27,.41-.29,.4-.02,0,.05-.17,.2-.45,.18-.34,.39-.75,.65-1.24,.3-.56,.66-1.21,1.06-1.95,.39-.79,.83-1.66,1.32-2.63,.95-1.95,2.02-4.32,2.95-7.03,.91-2.7,1.75-5.81,1.63-9.08-.06-1.24-.31-2.55-.9-3.46l-.35-.53,.6,.1c.69,.12,1.39,.2,2.01,.08,.63-.11,1.02-.57,1.1-1.19,.22-1.32,.42-2.59,.62-3.8,.41-2.41,.75-4.56,.99-6.36,.24-1.8,.36-3.25,.4-4.25,.04-1,0-1.55,.05-1.55Z"/><path class="cls-12" d="M408.51,192.89s-.19,.52-.5,1.47c-.31,.95-.71,2.35-1.12,4.12-.41,1.77-.85,3.9-1.32,6.3-.24,1.2-.5,2.46-.77,3.77-.14,.61,.06,1.17,.61,1.5,.53,.34,1.22,.5,1.91,.64l1.08,.21-1.08,.31c-.42,.12-.87,.52-1.22,.94-.33,.46-.6,.98-.82,1.53-.58,1.5-.74,3.11-.84,4.64-.09,1.54-.02,3.03,.06,4.45,.13,1.42,.23,2.76,.44,4.02,.17,1.26,.34,2.42,.55,3.48,.36,2.13,.74,3.83,.99,5.02,.11,.54,.19,.99,.27,1.37,.06,.31,.08,.48,.06,.49-.02,0-.07-.15-.16-.46l-.36-1.34c-.31-1.17-.75-2.87-1.15-4.99-.24-1.06-.43-2.23-.62-3.49-.23-1.26-.34-2.61-.49-4.04-.09-1.43-.18-2.94-.1-4.51,.09-1.56,.25-3.21,.86-4.8,.47-1.15,1.12-2.35,2.46-2.79v.52c-.72-.15-1.45-.31-2.1-.72-.32-.2-.62-.51-.76-.9-.15-.38-.13-.79-.06-1.14,.28-1.31,.55-2.57,.8-3.77,.5-2.39,.98-4.52,1.44-6.29,.46-1.76,.92-3.16,1.29-4.1,.19-.47,.35-.83,.48-1.06,.12-.23,.19-.35,.21-.35Z"/><path class="cls-12" d="M471.2,309.49s-.4,.03-1.14,.01c-.81-.03-1.88-.06-3.2-.11-2.83-.13-6.72-.31-11.31-.53h-.24v-.25c.14-3.63,.29-7.75,.45-12.11,.33-7.63,.62-14.54,.84-19.63,.13-2.45,.24-4.47,.32-5.95,.05-.65,.08-1.19,.11-1.62,.03-.37,.06-.56,.08-.56,.02,0,.03,.2,.03,.57,0,.43,0,.97-.01,1.62-.04,1.48-.08,3.5-.14,5.95-.18,5.09-.42,12-.68,19.63-.18,4.36-.35,8.48-.5,12.11l-.23-.25c4.58,.29,8.47,.54,11.29,.72,1.32,.1,2.39,.18,3.2,.24,.74,.07,1.14,.11,1.13,.14Z"/></g><g><rect class="cls-5" x="433.08" y="319.22" width="55.61" height="39.69" rx="2.61" ry="2.61"/><path class="cls-6" d="M454.64,319.25c.29-.13,1.3-.03,1.35,1.08,.05,1.11-.9,8.59-.9,8.59,0,0-2.34,8.32-1.71,9.26,.63,.93,1.93,.71,2.38,.11,.32-.44,2.95-7.39,2.95-7.39l.68-3.78s-1.36,11.98-.6,12.92c.76,.94,1.58,.58,2.1,.1,.52-.48,1.07-5.77,1.07-5.77l1.23-7.07-.17,11.48s.14,1.28,1.14,1.32c1.38,.06,1.67-1.43,1.67-1.43l1.4-11.89s-.47,7.72,.05,8.12c.69,.54,1.33,.36,1.55-.23,.46-1.2,1.14-8.15,1.14-8.15l.64-13.22,.48-3.65-12.69-.65-.03,.9s-4.89,3.69-5.96,5.14c0,0-1.52,2.36-1.92,4.18l4.13,.02Z"/><rect class="cls-5" x="430.08" y="328.14" width="6" height="17.69"/><polygon class="cls-5" points="431.71 335.77 426.85 334.3 426.82 340.17 431.53 339.09 431.71 335.77"/><path class="cls-12" d="M432.91,345.83c0-.07,1.19-.13,3.17-.18l-.18,.18c-.05-2.19-.09-5.41-.09-8.99s.03-6.5,.08-8.7l.19,.19c-2.14-.05-3.45-.11-3.45-.19s1.31-.14,3.45-.19h.18v.19c.05,2.2,.09,5.28,.09,8.7s-.03,6.8-.09,8.99v.18h-.18c-1.98-.05-3.17-.11-3.17-.18Z"/></g></g></g></g></svg>