<?xml version="1.0" encoding="UTF-8"?><svg id="Camada_1" xmlns="http://www.w3.org/2000/svg" xmlns:xlink="http://www.w3.org/1999/xlink" viewBox="0 0 595.28 841.89"><defs><style>.cls-1{fill:#fff;}.cls-2{fill:#188d85;}.cls-3{fill:none;stroke:#0f2439;stroke-linecap:round;stroke-linejoin:round;stroke-width:4px;}.cls-4{fill:#1c605f;}.cls-5,.cls-6{fill:#0f2439;}.cls-7{fill:#99bb89;}.cls-6{opacity:.15;}.cls-8{fill:url(#Gradiente_sem_nome_11);}</style><linearGradient id="Gradiente_sem_nome_11" x1="141.52" y1="193.87" x2="161.57" y2="283.46" gradientTransform="matrix(1, 0, 0, 1, 0, 0)" gradientUnits="userSpaceOnUse"><stop offset="0" stop-color="#0f2439"/><stop offset=".29" stop-color="#0f273b"/><stop offset=".53" stop-color="#113141"/><stop offset=".75" stop-color="#15424c"/><stop offset=".96" stop-color="#1a5a5b"/><stop offset="1" stop-color="#1c605f"/></linearGradient></defs><g><path class="cls-6" d="M203.64,331.25l-.79-22.29-12.27,12.01c-18.5-40.07,3.52-55.32,3.52-55.32H113.56c10.47,52.36,44.63,68.74,58.63,73.33l-10.94,10.71,21.59,1.92,21.59,1.92-.79-22.29Z"/><path class="cls-8" d="M207.11,328.71l-.79-21.57-12.22,11.62c-18.42-38.78,3.5-53.53,3.5-53.53H117.4c10.43,50.67,44.45,66.52,58.38,70.96l-10.89,10.36,21.5,1.86,21.5,1.86-.79-21.57Z"/></g><g><polygon class="cls-4" points="76.98 265.23 183.64 265.23 290.3 265.23 254.79 203.73 112.48 203.73 76.98 265.23"/><polygon class="cls-7" points="183.64 65.69 148.13 127.19 219.14 127.19 183.64 65.69"/><polygon class="cls-2" points="219.14 134.59 148.13 134.59 130.31 165.46 112.48 196.34 254.79 196.34 236.97 165.46 219.14 134.59"/><polygon class="cls-3" points="76.98 265.23 183.64 265.23 290.3 265.23 254.79 203.73 112.48 203.73 76.98 265.23"/><polygon class="cls-3" points="183.64 65.69 148.13 127.19 219.14 127.19 183.64 65.69"/><polygon class="cls-3" points="219.14 134.59 148.13 134.59 130.31 165.46 112.48 196.34 254.79 196.34 236.97 165.46 219.14 134.59"/></g><g><path class="cls-5" d="M234.16,89.01l-.79-2.58h-3.95l-.79,2.58h-2.48l3.83-10.89h2.81l3.84,10.89h-2.48Zm-1.33-4.51c-.73-2.34-1.14-3.66-1.23-3.97-.09-.31-.16-.55-.2-.73-.16,.63-.63,2.2-1.4,4.69h2.83Z"/><path class="cls-5" d="M238,89.01v-10.84h2.3v8.94h4.4v1.9h-6.7Z"/><path class="cls-5" d="M250.77,89.01h-2.3v-8.93h-2.94v-1.91h8.19v1.91h-2.94v8.93Z"/><path class="cls-5" d="M262.01,89.01l-.79-2.58h-3.95l-.79,2.58h-2.48l3.83-10.89h2.81l3.84,10.89h-2.48Zm-1.33-4.51c-.73-2.34-1.14-3.66-1.23-3.97-.09-.31-.16-.55-.2-.73-.16,.63-.63,2.2-1.4,4.69h2.83Z"/><path class="cls-5" d="M232.13,98.15c-.87,0-1.54,.33-2.01,.98-.47,.65-.71,1.56-.71,2.72,0,2.42,.91,3.63,2.72,3.63,.76,0,1.68-.19,2.77-.57v1.93c-.89,.37-1.88,.56-2.98,.56-1.58,0-2.78-.48-3.62-1.44-.84-.96-1.25-2.33-1.25-4.12,0-1.13,.21-2.11,.62-2.96s1-1.5,1.77-1.95,1.67-.68,2.7-.68,2.11,.25,3.17,.76l-.74,1.87c-.41-.19-.81-.36-1.22-.5s-.81-.22-1.21-.22Z"/><path class="cls-5" d="M247.04,101.8c0,1.79-.44,3.17-1.33,4.14-.89,.96-2.17,1.45-3.83,1.45s-2.94-.48-3.83-1.45c-.89-.96-1.33-2.35-1.33-4.15s.45-3.18,1.34-4.13,2.17-1.43,3.84-1.43,2.94,.48,3.82,1.44,1.32,2.34,1.32,4.14Zm-7.91,0c0,1.21,.23,2.12,.69,2.74,.46,.61,1.15,.92,2.06,.92,1.83,0,2.75-1.22,2.75-3.66s-.91-3.66-2.74-3.66c-.92,0-1.6,.31-2.07,.92-.46,.62-.7,1.53-.7,2.74Z"/><path class="cls-5" d="M253.88,107.23l-2.61-8.51h-.07c.09,1.73,.14,2.88,.14,3.46v5.04h-2.05v-10.84h3.13l2.57,8.29h.04l2.72-8.29h3.13v10.84h-2.14v-5.13c0-.24,0-.52,.01-.84,0-.32,.04-1.16,.1-2.52h-.07l-2.8,8.49h-2.11Z"/><path class="cls-5" d="M271.1,99.77c0,1.17-.36,2.06-1.09,2.68-.73,.62-1.77,.93-3.11,.93h-.99v3.86h-2.3v-10.84h3.46c1.32,0,2.32,.28,3,.85s1.03,1.41,1.03,2.53Zm-5.19,1.72h.76c.71,0,1.24-.14,1.59-.42,.35-.28,.53-.69,.53-1.22s-.15-.94-.44-1.19c-.29-.26-.75-.39-1.38-.39h-1.05v3.22Z"/><path class="cls-5" d="M273.15,107.23v-10.84h2.3v8.94h4.4v1.9h-6.7Z"/><path class="cls-5" d="M287.97,107.23h-6.24v-10.84h6.24v1.88h-3.95v2.38h3.67v1.88h-3.67v2.8h3.95v1.9Z"/><path class="cls-5" d="M298.99,107.23h-2.62l-2.52-4.1-2.52,4.1h-2.46l3.6-5.59-3.37-5.25h2.54l2.34,3.9,2.29-3.9h2.48l-3.4,5.38,3.66,5.47Z"/><path class="cls-5" d="M300.36,107.23v-10.84h2.3v10.84h-2.3Z"/><path class="cls-5" d="M314.38,101.71c0,1.78-.51,3.15-1.52,4.1-1.02,.95-2.48,1.42-4.4,1.42h-3.07v-10.84h3.4c1.77,0,3.14,.47,4.12,1.4,.98,.93,1.47,2.24,1.47,3.92Zm-2.39,.06c0-2.33-1.03-3.49-3.08-3.49h-1.22v7.06h.99c2.21,0,3.32-1.19,3.32-3.57Z"/><path class="cls-5" d="M323.26,107.23l-.79-2.58h-3.95l-.79,2.58h-2.48l3.83-10.89h2.81l3.84,10.89h-2.48Zm-1.33-4.51c-.73-2.34-1.14-3.66-1.23-3.97-.09-.31-.16-.55-.2-.73-.16,.63-.63,2.2-1.4,4.69h2.83Z"/><path class="cls-5" d="M336.1,101.71c0,1.78-.51,3.15-1.52,4.1-1.02,.95-2.48,1.42-4.4,1.42h-3.07v-10.84h3.4c1.77,0,3.14,.47,4.12,1.4,.98,.93,1.47,2.24,1.47,3.92Zm-2.39,.06c0-2.33-1.03-3.49-3.08-3.49h-1.22v7.06h.99c2.21,0,3.32-1.19,3.32-3.57Z"/><path class="cls-5" d="M344.59,107.23h-6.24v-10.84h6.24v1.88h-3.95v2.38h3.67v1.88h-3.67v2.8h3.95v1.9Z"/></g><g><path class="cls-5" d="M272.16,152.71l-2.61-8.51h-.07c.09,1.73,.14,2.88,.14,3.46v5.04h-2.05v-10.84h3.13l2.57,8.29h.04l2.72-8.29h3.13v10.84h-2.14v-5.13c0-.24,0-.52,.01-.84,0-.32,.04-1.16,.1-2.52h-.07l-2.8,8.49h-2.11Z"/><path class="cls-5" d="M288.13,152.71h-6.24v-10.84h6.24v1.88h-3.95v2.38h3.67v1.88h-3.67v2.8h3.95v1.9Zm-4.46-11.71v-.2c.85-.99,1.43-1.73,1.74-2.23h2.54v.16c-.26,.26-.7,.64-1.32,1.15-.62,.51-1.11,.88-1.46,1.13h-1.5Z"/><path class="cls-5" d="M299.39,147.19c0,1.78-.51,3.15-1.52,4.1-1.02,.95-2.48,1.42-4.4,1.42h-3.07v-10.84h3.4c1.77,0,3.14,.47,4.12,1.4,.98,.93,1.47,2.24,1.47,3.92Zm-2.39,.06c0-2.33-1.03-3.49-3.08-3.49h-1.22v7.06h.99c2.21,0,3.32-1.19,3.32-3.57Z"/><path class="cls-5" d="M301.64,152.71v-10.84h2.3v10.84h-2.3Z"/><path class="cls-5" d="M313.3,152.71l-.79-2.58h-3.95l-.79,2.58h-2.48l3.83-10.89h2.81l3.84,10.89h-2.48Zm-1.33-4.51c-.73-2.34-1.14-3.66-1.23-3.97-.09-.31-.16-.55-.2-.73-.16,.63-.63,2.2-1.4,4.69h2.83Z"/><path class="cls-5" d="M272.18,161.85c-.87,0-1.54,.33-2.01,.98-.47,.65-.71,1.56-.71,2.72,0,2.42,.91,3.63,2.72,3.63,.76,0,1.68-.19,2.77-.57v1.93c-.89,.37-1.88,.56-2.98,.56-1.58,0-2.78-.48-3.62-1.44-.84-.96-1.25-2.33-1.25-4.12,0-1.13,.21-2.11,.62-2.96s1-1.5,1.77-1.95,1.67-.68,2.7-.68,2.11,.25,3.17,.76l-.74,1.87c-.41-.19-.81-.36-1.22-.5s-.81-.22-1.21-.22Z"/><path class="cls-5" d="M287.09,165.5c0,1.79-.44,3.17-1.33,4.14-.89,.96-2.17,1.45-3.83,1.45s-2.94-.48-3.83-1.45c-.89-.96-1.33-2.35-1.33-4.15s.45-3.18,1.34-4.13,2.17-1.43,3.84-1.43,2.94,.48,3.82,1.44,1.32,2.34,1.32,4.14Zm-7.91,0c0,1.21,.23,2.12,.69,2.74,.46,.61,1.15,.92,2.06,.92,1.83,0,2.75-1.22,2.75-3.66s-.91-3.66-2.74-3.66c-.92,0-1.6,.31-2.07,.92-.46,.62-.7,1.53-.7,2.74Z"/><path class="cls-5" d="M293.92,170.94l-2.61-8.51h-.07c.09,1.73,.14,2.88,.14,3.46v5.04h-2.05v-10.84h3.13l2.57,8.29h.04l2.72-8.29h3.13v10.84h-2.14v-5.13c0-.24,0-.52,.01-.84,0-.32,.04-1.16,.1-2.52h-.07l-2.8,8.49h-2.11Z"/><path class="cls-5" d="M311.14,163.48c0,1.17-.36,2.06-1.09,2.68-.73,.62-1.77,.93-3.11,.93h-.99v3.86h-2.3v-10.84h3.46c1.32,0,2.32,.28,3,.85s1.03,1.41,1.03,2.53Zm-5.19,1.72h.76c.71,0,1.24-.14,1.59-.42,.35-.28,.53-.69,.53-1.22s-.15-.94-.44-1.19c-.29-.26-.75-.39-1.38-.39h-1.05v3.22Z"/><path class="cls-5" d="M313.19,170.94v-10.84h2.3v8.94h4.4v1.9h-6.7Z"/><path class="cls-5" d="M328.01,170.94h-6.24v-10.84h6.24v1.88h-3.95v2.38h3.67v1.88h-3.67v2.8h3.95v1.9Z"/><path class="cls-5" d="M339.04,170.94h-2.62l-2.52-4.1-2.52,4.1h-2.46l3.6-5.59-3.37-5.25h2.54l2.34,3.9,2.29-3.9h2.48l-3.4,5.38,3.66,5.47Z"/><path class="cls-5" d="M340.4,170.94v-10.84h2.3v10.84h-2.3Z"/><path class="cls-5" d="M354.42,165.41c0,1.78-.51,3.15-1.52,4.1-1.02,.95-2.48,1.42-4.4,1.42h-3.07v-10.84h3.4c1.77,0,3.14,.47,4.12,1.4,.98,.93,1.47,2.24,1.47,3.92Zm-2.39,.06c0-2.33-1.03-3.49-3.08-3.49h-1.22v7.06h.99c2.21,0,3.32-1.19,3.32-3.57Z"/><path class="cls-5" d="M363.31,170.94l-.79-2.58h-3.95l-.79,2.58h-2.48l3.83-10.89h2.81l3.84,10.89h-2.48Zm-1.33-4.51c-.73-2.34-1.14-3.66-1.23-3.97-.09-.31-.16-.55-.2-.73-.16,.63-.63,2.2-1.4,4.69h2.83Z"/><path class="cls-5" d="M376.14,165.41c0,1.78-.51,3.15-1.52,4.1-1.02,.95-2.48,1.42-4.4,1.42h-3.07v-10.84h3.4c1.77,0,3.14,.47,4.12,1.4,.98,.93,1.47,2.24,1.47,3.92Zm-2.39,.06c0-2.33-1.03-3.49-3.08-3.49h-1.22v7.06h.99c2.21,0,3.32-1.19,3.32-3.57Z"/><path class="cls-5" d="M384.63,170.94h-6.24v-10.84h6.24v1.88h-3.95v2.38h3.67v1.88h-3.67v2.8h3.95v1.9Z"/></g><g><path class="cls-5" d="M298.3,215.85l-.79-2.58h-3.95l-.79,2.58h-2.48l3.83-10.89h2.81l3.84,10.89h-2.48Zm-1.33-4.51c-.73-2.34-1.14-3.66-1.23-3.97-.09-.31-.16-.55-.2-.73-.16,.63-.63,2.2-1.4,4.69h2.83Z"/><path class="cls-5" d="M306.32,215.85h-2.3v-8.93h-2.94v-1.91h8.19v1.91h-2.94v8.93Z"/><path class="cls-5" d="M317.18,215.85h-6.24v-10.84h6.24v1.88h-3.95v2.38h3.67v1.88h-3.67v2.8h3.95v1.9Z"/><path class="cls-5" d="M329.06,215.85h-2.92l-4.72-8.2h-.07c.09,1.45,.14,2.48,.14,3.1v5.1h-2.05v-10.84h2.9l4.71,8.12h.05c-.07-1.41-.11-2.41-.11-2.99v-5.13h2.07v10.84Z"/><path class="cls-5" d="M336.39,206.77c-.87,0-1.54,.33-2.01,.98-.47,.65-.71,1.56-.71,2.72,0,2.42,.91,3.63,2.72,3.63,.76,0,1.68-.19,2.77-.57v1.93c-.89,.37-1.88,.56-2.98,.56-1.58,0-2.78-.48-3.62-1.44-.84-.96-1.25-2.33-1.25-4.12,0-1.13,.21-2.11,.62-2.96s1-1.5,1.77-1.95,1.67-.68,2.7-.68,2.11,.25,3.17,.76l-.74,1.87c-.41-.19-.81-.36-1.22-.5s-.81-.22-1.21-.22Zm1.14,10.94c0,.63-.19,1.09-.56,1.37-.37,.28-.95,.42-1.73,.42-.39,0-.75-.05-1.08-.16v-1.25c.13,.03,.31,.07,.54,.1,.22,.03,.4,.05,.52,.05,.36,0,.53-.15,.53-.46,0-.41-.41-.68-1.23-.8l.58-1.14h1.43l-.2,.45c.37,.12,.66,.3,.88,.55,.22,.25,.33,.53,.33,.85Z"/><path class="cls-5" d="M348.1,215.85l-.79-2.58h-3.95l-.79,2.58h-2.48l3.83-10.89h2.81l3.84,10.89h-2.48Zm-3.97-12.49c-.15,0-.3,.07-.44,.2-.14,.13-.24,.33-.31,.6h-1.1c.05-.72,.26-1.28,.61-1.68,.35-.41,.82-.61,1.41-.61,.2,0,.4,.04,.6,.12s.39,.17,.58,.27c.19,.1,.38,.18,.56,.26s.36,.12,.54,.12c.15,0,.3-.06,.44-.19s.24-.33,.31-.59h1.11c-.05,.72-.26,1.28-.62,1.68s-.83,.61-1.4,.61c-.2,0-.4-.04-.6-.12s-.39-.17-.58-.27c-.19-.1-.38-.19-.56-.27-.18-.08-.36-.12-.54-.12Zm2.64,7.98c-.73-2.34-1.14-3.66-1.23-3.97-.09-.31-.16-.55-.2-.73-.16,.63-.63,2.2-1.4,4.69h2.83Z"/><path class="cls-5" d="M361.78,210.42c0,1.79-.44,3.17-1.33,4.14-.89,.96-2.17,1.45-3.83,1.45s-2.94-.48-3.83-1.45c-.89-.96-1.33-2.35-1.33-4.15s.45-3.18,1.34-4.13,2.17-1.43,3.84-1.43,2.94,.48,3.82,1.44,1.32,2.34,1.32,4.14Zm-7.91,0c0,1.21,.23,2.12,.69,2.74,.46,.61,1.15,.92,2.06,.92,1.83,0,2.75-1.22,2.75-3.66s-.91-3.66-2.74-3.66c-.92,0-1.6,.31-2.07,.92-.46,.62-.7,1.53-.7,2.74Z"/><path class="cls-5" d="M375.46,208.39c0,1.17-.36,2.06-1.09,2.68-.73,.62-1.77,.93-3.11,.93h-.99v3.86h-2.3v-10.84h3.46c1.32,0,2.32,.28,3,.85s1.03,1.41,1.03,2.53Zm-5.19,1.72h.76c.71,0,1.24-.14,1.59-.42,.35-.28,.53-.69,.53-1.22s-.15-.94-.44-1.19c-.29-.26-.75-.39-1.38-.39h-1.05v3.22Z"/><path class="cls-5" d="M379.81,211.69v4.16h-2.3v-10.84h3.16c1.47,0,2.56,.27,3.27,.8,.71,.54,1.06,1.35,1.06,2.44,0,.64-.17,1.21-.53,1.7-.35,.5-.85,.89-1.49,1.17,1.63,2.44,2.69,4.01,3.19,4.72h-2.55l-2.59-4.16h-1.22Zm0-1.87h.74c.73,0,1.26-.12,1.61-.36s.52-.62,.52-1.14-.18-.88-.53-1.1c-.35-.22-.9-.33-1.64-.33h-.7v2.93Z"/><path class="cls-5" d="M387.54,215.85v-10.84h2.3v10.84h-2.3Z"/><path class="cls-5" d="M397.15,215.85l-2.61-8.51h-.07c.09,1.73,.14,2.88,.14,3.46v5.04h-2.05v-10.84h3.13l2.57,8.29h.04l2.72-8.29h3.13v10.84h-2.14v-5.13c0-.24,0-.52,.01-.84,0-.32,.04-1.16,.1-2.52h-.07l-2.8,8.49h-2.11Z"/><path class="cls-5" d="M413.52,215.85l-.79-2.58h-3.95l-.79,2.58h-2.48l3.83-10.89h2.81l3.84,10.89h-2.48Zm-1.33-4.51c-.73-2.34-1.14-3.66-1.23-3.97-.09-.31-.16-.55-.2-.73-.16,.63-.63,2.2-1.4,4.69h2.83Zm-2.65-7.2v-.2c.85-.99,1.43-1.73,1.74-2.23h2.54v.16c-.26,.26-.7,.64-1.32,1.15-.62,.51-1.11,.88-1.46,1.13h-1.5Z"/><path class="cls-5" d="M419.66,211.69v4.16h-2.3v-10.84h3.16c1.47,0,2.56,.27,3.27,.8,.71,.54,1.06,1.35,1.06,2.44,0,.64-.17,1.21-.53,1.7-.35,.5-.85,.89-1.49,1.17,1.63,2.44,2.69,4.01,3.19,4.72h-2.55l-2.59-4.16h-1.22Zm0-1.87h.74c.73,0,1.26-.12,1.61-.36s.52-.62,.52-1.14-.18-.88-.53-1.1c-.35-.22-.9-.33-1.64-.33h-.7v2.93Z"/><path class="cls-5" d="M427.39,215.85v-10.84h2.3v10.84h-2.3Z"/><path class="cls-5" d="M439.05,215.85l-.79-2.58h-3.95l-.79,2.58h-2.48l3.83-10.89h2.81l3.84,10.89h-2.48Zm-1.33-4.51c-.73-2.34-1.14-3.66-1.23-3.97-.09-.31-.16-.55-.2-.73-.16,.63-.63,2.2-1.4,4.69h2.83Z"/><path class="cls-5" d="M298.3,234.08l-.79-2.58h-3.95l-.79,2.58h-2.48l3.83-10.89h2.81l3.84,10.89h-2.48Zm-2.71-11.71c-.31-.22-.77-.57-1.37-1.06-.6-.49-1.07-.89-1.41-1.22v-.16h2.54c.31,.5,.89,1.24,1.74,2.23v.2h-1.5Zm1.38,7.2c-.73-2.34-1.14-3.66-1.23-3.97-.09-.31-.16-.55-.2-.73-.16,.63-.63,2.2-1.4,4.69h2.83Z"/><path class="cls-5" d="M312.49,231.06c0,.98-.35,1.75-1.06,2.31-.7,.56-1.68,.85-2.94,.85-1.16,0-2.18-.22-3.07-.65v-2.14c.73,.33,1.35,.56,1.86,.69s.97,.2,1.39,.2c.5,0,.89-.1,1.16-.29s.4-.48,.4-.86c0-.21-.06-.4-.18-.57-.12-.17-.29-.32-.52-.48-.23-.15-.7-.4-1.41-.73-.66-.31-1.16-.61-1.49-.9s-.6-.62-.79-1c-.2-.38-.3-.83-.3-1.33,0-.96,.33-1.71,.97-2.26,.65-.55,1.55-.82,2.7-.82,.56,0,1.1,.07,1.61,.2,.51,.13,1.05,.32,1.61,.56l-.74,1.79c-.58-.24-1.06-.4-1.44-.5-.38-.09-.75-.14-1.12-.14-.44,0-.77,.1-1,.3-.23,.2-.35,.47-.35,.79,0,.2,.05,.38,.14,.53s.24,.3,.45,.44c.21,.14,.69,.39,1.46,.76,1.01,.48,1.71,.97,2.08,1.46s.56,1.08,.56,1.79Z"/><path class="cls-5" d="M321.09,234.08l-.79-2.58h-3.95l-.79,2.58h-2.48l3.83-10.89h2.81l3.84,10.89h-2.48Zm-1.33-4.51c-.73-2.34-1.14-3.66-1.23-3.97-.09-.31-.16-.55-.2-.73-.16,.63-.63,2.2-1.4,4.69h2.83Z"/><path class="cls-5" d="M333.75,223.23v7.02c0,.8-.18,1.5-.54,2.11s-.88,1.07-1.55,1.39c-.68,.32-1.48,.48-2.4,.48-1.39,0-2.48-.36-3.25-1.07-.77-.71-1.16-1.69-1.16-2.93v-6.99h2.29v6.64c0,.84,.17,1.45,.5,1.84,.34,.39,.89,.59,1.67,.59s1.3-.2,1.64-.59c.34-.39,.51-1.01,.51-1.85v-6.62h2.29Zm-5.72-.87v-.2c.85-.99,1.43-1.73,1.74-2.23h2.54v.16c-.26,.26-.7,.64-1.32,1.15-.62,.51-1.11,.88-1.46,1.13h-1.51Z"/><path class="cls-5" d="M345.4,228.55c0,1.78-.51,3.15-1.52,4.1-1.02,.95-2.48,1.42-4.4,1.42h-3.07v-10.84h3.4c1.77,0,3.14,.47,4.12,1.4,.98,.93,1.47,2.24,1.47,3.92Zm-2.39,.06c0-2.33-1.03-3.49-3.08-3.49h-1.22v7.06h.99c2.21,0,3.32-1.19,3.32-3.57Z"/><path class="cls-5" d="M353.89,234.08h-6.24v-10.84h6.24v1.88h-3.95v2.38h3.67v1.88h-3.67v2.8h3.95v1.9Z"/></g><g><g><g><g><g><ellipse class="cls-4" cx="482.84" cy="426.05" rx="64.3" ry="17.89"/><path class="cls-4" d="M547.13,431.59c.09,1.47-.5,2.94-1.37,4.15-.89,1.21-2,2.24-3.19,3.14-2.39,1.79-5.07,3.11-7.78,4.29-5.47,2.27-11.18,3.82-16.94,4.99-2.88,.6-5.78,1.11-8.69,1.5-2.91,.41-5.83,.75-8.75,1.02-5.85,.53-11.72,.73-17.58,.79-5.87-.05-11.73-.25-17.58-.78-2.92-.27-5.84-.61-8.75-1.02-2.91-.39-5.81-.9-8.69-1.5-5.76-1.17-11.47-2.72-16.94-4.99-2.71-1.18-5.39-2.51-7.78-4.29-1.19-.89-2.3-1.93-3.19-3.14-.87-1.21-1.46-2.68-1.37-4.15,.12,1.47,.87,2.76,1.84,3.78,.96,1.03,2.11,1.89,3.34,2.6,2.46,1.43,5.13,2.5,7.85,3.38,5.45,1.78,11.12,2.88,16.8,3.77,5.7,.84,11.43,1.48,17.18,1.82,5.75,.4,11.52,.58,17.29,.56,5.77,.02,11.54-.16,17.29-.56,5.76-.34,11.49-.98,17.18-1.82,5.68-.89,11.35-1.99,16.8-3.77,2.72-.88,5.39-1.95,7.85-3.38,1.23-.72,2.37-1.57,3.34-2.6,.96-1.02,1.72-2.31,1.83-3.78Z"/></g><g><path class="cls-4" d="M449.65,402.62h-3.56v-7.27h-6.67v7.27h-3.57v-16.84h3.57v6.6h6.67v-6.6h3.56v16.84Z"/><path class="cls-4" d="M465.33,396.16c0,2.1-.55,3.74-1.66,4.92-1.11,1.18-2.65,1.77-4.62,1.77-1.24,0-2.33-.27-3.27-.81-.95-.54-1.67-1.32-2.18-2.33-.51-1.01-.76-2.2-.76-3.55,0-2.1,.55-3.74,1.65-4.91,1.1-1.17,2.64-1.75,4.63-1.75,1.24,0,2.33,.27,3.27,.81,.95,.54,1.67,1.31,2.18,2.32s.76,2.19,.76,3.54Zm-8.91,0c0,1.28,.21,2.24,.63,2.89,.42,.65,1.1,.98,2.04,.98s1.61-.32,2.02-.97c.41-.65,.62-1.61,.62-2.9s-.21-2.23-.62-2.87c-.42-.64-1.09-.96-2.04-.96s-1.61,.32-2.03,.95c-.41,.63-.62,1.59-.62,2.87Z"/><path class="cls-4" d="M477.22,398.8c0,1.32-.46,2.33-1.38,3.02-.92,.69-2.29,1.04-4.12,1.04-.94,0-1.74-.06-2.4-.19-.66-.13-1.28-.31-1.85-.56v-2.9c.65,.31,1.39,.56,2.21,.77,.82,.21,1.54,.31,2.16,.31,1.28,0,1.91-.37,1.91-1.11,0-.28-.08-.5-.25-.67s-.46-.37-.88-.59c-.41-.22-.97-.47-1.66-.77-.99-.41-1.72-.8-2.18-1.15-.46-.35-.8-.76-1.01-1.22-.21-.46-.32-1.02-.32-1.69,0-1.14,.44-2.03,1.33-2.66,.89-.63,2.14-.94,3.77-.94s3.06,.34,4.53,1.01l-1.06,2.53c-.65-.28-1.25-.5-1.81-.68s-1.13-.27-1.72-.27c-1.04,0-1.56,.28-1.56,.84,0,.31,.17,.59,.5,.82,.33,.23,1.07,.57,2.2,1.02,1.01,.41,1.74,.79,2.21,1.14,.47,.35,.81,.76,1.04,1.22,.22,.46,.33,1.01,.33,1.65Z"/><path class="cls-4" d="M487.04,402.85c-1.51,0-2.7-.55-3.56-1.65h-.18c.12,1.08,.18,1.7,.18,1.87v5.22h-3.51v-18.55h2.86l.5,1.67h.16c.82-1.27,2.04-1.91,3.65-1.91,1.52,0,2.71,.59,3.57,1.76,.86,1.18,1.29,2.81,1.29,4.9,0,1.38-.2,2.57-.6,3.58-.4,1.01-.98,1.79-1.72,2.32-.75,.53-1.62,.79-2.63,.79Zm-1.04-10.54c-.87,0-1.5,.27-1.9,.8-.4,.53-.61,1.42-.62,2.64v.38c0,1.38,.21,2.37,.62,2.97s1.06,.9,1.95,.9c1.57,0,2.36-1.3,2.36-3.89,0-1.27-.19-2.22-.58-2.85s-1-.95-1.83-.95Z"/><path class="cls-4" d="M494.74,386.41c0-1.14,.64-1.72,1.91-1.72s1.91,.57,1.91,1.72c0,.55-.16,.97-.48,1.27-.32,.3-.8,.46-1.43,.46-1.28,0-1.91-.58-1.91-1.73Zm3.66,16.21h-3.51v-12.88h3.51v12.88Z"/><path class="cls-4" d="M507.52,400.05c.61,0,1.35-.13,2.21-.4v2.62c-.88,.39-1.95,.59-3.23,.59-1.41,0-2.43-.35-3.07-1.07-.64-.71-.96-1.78-.96-3.2v-6.21h-1.68v-1.49l1.94-1.17,1.01-2.72h2.25v2.74h3.61v2.64h-3.61v6.21c0,.5,.14,.87,.42,1.11,.28,.24,.65,.36,1.11,.36Z"/><path class="cls-4" d="M520.52,402.62l-.68-1.75h-.09c-.59,.75-1.2,1.26-1.83,1.55s-1.44,.43-2.45,.43c-1.24,0-2.21-.35-2.92-1.06-.71-.71-1.07-1.71-1.07-3.02s.48-2.38,1.43-3.02c.96-.65,2.4-1.01,4.33-1.08l2.24-.07v-.56c0-1.31-.67-1.96-2-1.96-1.03,0-2.24,.31-3.63,.93l-1.16-2.37c1.48-.78,3.12-1.16,4.93-1.16s3.05,.38,3.97,1.13c.92,.75,1.38,1.9,1.38,3.43v8.58h-2.45Zm-1.04-5.97l-1.36,.05c-1.02,.03-1.78,.22-2.28,.55s-.75,.85-.75,1.54c0,.99,.57,1.49,1.71,1.49,.81,0,1.46-.23,1.95-.7,.49-.47,.73-1.09,.73-1.87v-1.06Z"/><path class="cls-4" d="M530.1,402.62h-3.51v-17.93h3.51v17.93Z"/></g></g><g><g><ellipse class="cls-4" cx="196.66" cy="426.05" rx="64.3" ry="17.89"/><path class="cls-4" d="M260.96,431.59c.09,1.47-.5,2.94-1.37,4.15-.89,1.21-2,2.24-3.19,3.14-2.39,1.79-5.07,3.11-7.78,4.29-5.47,2.27-11.18,3.82-16.94,4.99-2.88,.6-5.78,1.11-8.69,1.5-2.91,.41-5.83,.75-8.75,1.02-5.85,.53-11.72,.73-17.58,.79-5.87-.05-11.73-.25-17.58-.78-2.92-.27-5.84-.61-8.75-1.02-2.91-.39-5.81-.9-8.69-1.5-5.76-1.17-11.47-2.72-16.94-4.99-2.71-1.18-5.39-2.51-7.78-4.29-1.19-.89-2.3-1.93-3.19-3.14-.87-1.21-1.46-2.68-1.37-4.15,.12,1.47,.87,2.76,1.84,3.78,.96,1.03,2.11,1.89,3.34,2.6,2.46,1.43,5.13,2.5,7.85,3.38,5.45,1.78,11.12,2.88,16.8,3.77,5.7,.84,11.43,1.48,17.18,1.82,5.75,.4,11.52,.58,17.29,.56,5.77,.02,11.54-.16,17.29-.56,5.76-.34,11.49-.98,17.18-1.82,5.68-.89,11.35-1.99,16.8-3.77,2.72-.88,5.39-1.95,7.85-3.38,1.23-.72,2.37-1.57,3.34-2.6,.96-1.02,1.72-2.31,1.83-3.78Z"/></g><g><path class="cls-4" d="M176.38,388.51c-1.34,0-2.38,.51-3.12,1.52-.74,1.01-1.11,2.42-1.11,4.22,0,3.76,1.41,5.63,4.23,5.63,1.18,0,2.62-.3,4.3-.89v3c-1.38,.58-2.93,.86-4.63,.86-2.45,0-4.32-.74-5.62-2.23-1.3-1.49-1.95-3.62-1.95-6.4,0-1.75,.32-3.29,.96-4.6,.64-1.32,1.55-2.33,2.75-3.03,1.19-.7,2.59-1.05,4.2-1.05s3.28,.4,4.93,1.19l-1.15,2.9c-.63-.3-1.26-.56-1.9-.78-.64-.22-1.26-.33-1.88-.33Z"/><path class="cls-4" d="M194.57,402.62l-1.22-4.01h-6.14l-1.22,4.01h-3.85l5.94-16.91h4.37l5.97,16.91h-3.85Zm-2.07-7c-1.13-3.63-1.76-5.69-1.91-6.16-.14-.48-.24-.85-.31-1.13-.25,.98-.98,3.41-2.18,7.29h4.39Z"/><path class="cls-4" d="M212.17,391.03c0,1.81-.57,3.2-1.7,4.16-1.13,.96-2.74,1.44-4.83,1.44h-1.53v5.99h-3.57v-16.84h5.38c2.04,0,3.6,.44,4.66,1.32,1.06,.88,1.6,2.19,1.6,3.93Zm-8.06,2.67h1.18c1.1,0,1.92-.22,2.47-.65,.55-.43,.82-1.07,.82-1.9s-.23-1.46-.69-1.85c-.46-.4-1.17-.6-2.15-.6h-1.62v5Z"/><path class="cls-4" d="M225.29,397.95c0,1.52-.55,2.72-1.64,3.59-1.09,.88-2.62,1.31-4.57,1.31-1.8,0-3.39-.34-4.77-1.01v-3.32c1.14,.51,2.1,.86,2.89,1.07,.79,.21,1.51,.31,2.16,.31,.78,0,1.38-.15,1.8-.45,.42-.3,.63-.74,.63-1.34,0-.33-.09-.62-.28-.88-.18-.26-.46-.5-.81-.74-.36-.24-1.08-.62-2.18-1.14-1.03-.48-1.8-.95-2.32-1.39s-.93-.96-1.23-1.56c-.31-.59-.46-1.28-.46-2.07,0-1.49,.5-2.66,1.52-3.51,1.01-.85,2.41-1.28,4.19-1.28,.88,0,1.71,.1,2.51,.31s1.63,.5,2.49,.88l-1.15,2.78c-.9-.37-1.64-.63-2.23-.77-.59-.15-1.17-.22-1.73-.22-.68,0-1.19,.16-1.56,.47s-.54,.73-.54,1.23c0,.32,.07,.59,.22,.82,.15,.23,.38,.46,.7,.68,.32,.22,1.07,.61,2.26,1.18,1.57,.75,2.65,1.51,3.24,2.26,.58,.76,.88,1.68,.88,2.78Z"/></g></g></g><g><g><g><ellipse class="cls-4" cx="339.75" cy="364.54" rx="64.3" ry="17.89"/><path class="cls-4" d="M404.05,370.08c.09,1.47-.5,2.94-1.37,4.15-.89,1.21-2,2.24-3.19,3.14-2.39,1.79-5.07,3.11-7.78,4.29-5.47,2.27-11.18,3.82-16.94,4.99-2.88,.6-5.78,1.11-8.69,1.5-2.91,.41-5.83,.75-8.75,1.02-5.85,.53-11.72,.73-17.58,.79-5.87-.05-11.73-.25-17.58-.78-2.92-.27-5.84-.61-8.75-1.02-2.91-.39-5.81-.9-8.69-1.5-5.76-1.17-11.47-2.72-16.94-4.99-2.71-1.18-5.39-2.51-7.78-4.29-1.19-.89-2.3-1.93-3.19-3.14-.87-1.21-1.46-2.68-1.37-4.15,.12,1.47,.87,2.76,1.84,3.78,.96,1.03,2.11,1.89,3.34,2.6,2.46,1.43,5.13,2.5,7.85,3.38,5.45,1.78,11.12,2.88,16.8,3.77,5.7,.84,11.43,1.48,17.18,1.82,5.75,.4,11.52,.58,17.29,.56,5.77,.02,11.54-.16,17.29-.56,5.76-.34,11.49-.98,17.18-1.82,5.68-.89,11.35-1.99,16.8-3.77,2.72-.88,5.39-1.95,7.85-3.38,1.23-.72,2.37-1.57,3.34-2.6,.96-1.02,1.72-2.31,1.83-3.78Z"/></g><g><path class="cls-4" d="M331.12,324.27v10.9c0,1.24-.28,2.33-.84,3.27-.56,.94-1.36,1.66-2.41,2.15-1.05,.5-2.3,.75-3.73,.75-2.17,0-3.85-.55-5.05-1.67-1.2-1.11-1.8-2.63-1.8-4.56v-10.85h3.56v10.31c0,1.3,.26,2.25,.78,2.86,.52,.61,1.39,.91,2.59,.91s2.01-.31,2.54-.92c.53-.61,.79-1.57,.79-2.87v-10.29h3.56Z"/><path class="cls-4" d="M346.88,329.52c0,1.81-.57,3.2-1.7,4.16-1.13,.96-2.74,1.44-4.83,1.44h-1.53v5.99h-3.57v-16.84h5.38c2.04,0,3.6,.44,4.66,1.32s1.6,2.19,1.6,3.93Zm-8.06,2.67h1.17c1.1,0,1.92-.22,2.47-.65,.54-.43,.82-1.07,.82-1.9s-.23-1.46-.69-1.85c-.46-.4-1.17-.6-2.15-.6h-1.62v5Z"/><path class="cls-4" d="M360.37,341.11l-1.22-4.01h-6.14l-1.22,4.01h-3.85l5.94-16.91h4.37l5.97,16.91h-3.85Zm-2.07-7c-1.13-3.63-1.76-5.69-1.91-6.16-.14-.48-.24-.85-.3-1.13-.25,.98-.98,3.41-2.18,7.29h4.39Z"/></g></g><g><g><ellipse class="cls-4" cx="339.75" cy="618.07" rx="64.3" ry="17.89"/><path class="cls-4" d="M404.05,623.61c.09,1.47-.5,2.94-1.37,4.15-.89,1.21-2,2.24-3.19,3.14-2.39,1.79-5.07,3.11-7.78,4.29-5.47,2.27-11.18,3.82-16.94,4.99-2.88,.6-5.78,1.11-8.69,1.5-2.91,.41-5.83,.75-8.75,1.02-5.85,.53-11.72,.73-17.58,.79-5.87-.05-11.73-.25-17.58-.78-2.92-.27-5.84-.61-8.75-1.02-2.91-.39-5.81-.9-8.69-1.5-5.76-1.17-11.47-2.72-16.94-4.99-2.71-1.18-5.39-2.51-7.78-4.29-1.19-.89-2.3-1.93-3.19-3.14-.87-1.21-1.46-2.68-1.37-4.15,.12,1.47,.87,2.76,1.84,3.78,.96,1.03,2.11,1.89,3.34,2.6,2.46,1.43,5.13,2.5,7.85,3.38,5.45,1.78,11.12,2.88,16.8,3.77,5.7,.84,11.43,1.48,17.18,1.82,5.75,.4,11.52,.58,17.29,.56,5.77,.02,11.54-.16,17.29-.56,5.76-.34,11.49-.98,17.18-1.82,5.68-.89,11.35-1.99,16.8-3.77,2.72-.88,5.39-1.95,7.85-3.38,1.23-.72,2.37-1.57,3.34-2.6,.96-1.02,1.72-2.31,1.83-3.78Z"/></g><g><path class="cls-4" d="M290.92,594.64h-3.51v-16.84h9.65v2.93h-6.14v4.34h5.71v2.92h-5.71v6.66Z"/><path class="cls-4" d="M308.26,594.64l-.68-1.75h-.09c-.59,.75-1.2,1.26-1.83,1.55-.63,.29-1.44,.43-2.45,.43-1.24,0-2.21-.35-2.92-1.06-.71-.71-1.07-1.71-1.07-3.02s.48-2.38,1.43-3.02c.96-.65,2.4-1.01,4.33-1.08l2.24-.07v-.56c0-1.31-.67-1.96-2-1.96-1.03,0-2.24,.31-3.63,.93l-1.16-2.37c1.48-.78,3.12-1.16,4.93-1.16s3.05,.38,3.97,1.13c.92,.75,1.38,1.9,1.38,3.43v8.58h-2.45Zm-1.04-5.97l-1.36,.05c-1.02,.03-1.78,.21-2.28,.55-.5,.34-.75,.85-.75,1.54,0,.99,.57,1.49,1.71,1.49,.81,0,1.46-.23,1.95-.7,.49-.47,.73-1.09,.73-1.87v-1.06Z"/><path class="cls-4" d="M321.52,581.52c.48,0,.87,.03,1.19,.1l-.26,3.29c-.28-.08-.63-.12-1.04-.12-1.12,0-2,.29-2.62,.86s-.94,1.38-.94,2.42v6.56h-3.51v-12.88h2.66l.52,2.17h.17c.4-.72,.94-1.3,1.62-1.75s1.42-.66,2.22-.66Z"/><path class="cls-4" d="M336.58,594.64h-3.51v-7.52c0-.93-.16-1.63-.47-2.09-.31-.46-.8-.7-1.47-.7-.9,0-1.55,.33-1.96,.99s-.61,1.75-.61,3.26v6.06h-3.51v-12.88h2.68l.47,1.65h.2c.35-.59,.84-1.05,1.5-1.39,.65-.33,1.4-.5,2.25-.5,1.93,0,3.23,.63,3.92,1.89h.31c.35-.6,.85-1.06,1.53-1.39,.67-.33,1.43-.5,2.28-.5,1.46,0,2.56,.37,3.31,1.12,.75,.75,1.12,1.95,1.12,3.6v8.4h-3.53v-7.52c0-.93-.16-1.63-.47-2.09-.31-.46-.8-.7-1.47-.7-.86,0-1.5,.31-1.93,.92-.43,.61-.64,1.59-.64,2.93v6.46Z"/><path class="cls-4" d="M356.4,594.64l-.68-1.75h-.09c-.59,.75-1.2,1.26-1.83,1.55-.63,.29-1.44,.43-2.45,.43-1.24,0-2.21-.35-2.92-1.06-.71-.71-1.07-1.71-1.07-3.02s.48-2.38,1.43-3.02c.96-.65,2.4-1.01,4.33-1.08l2.24-.07v-.56c0-1.31-.67-1.96-2-1.96-1.03,0-2.24,.31-3.63,.93l-1.16-2.37c1.48-.78,3.12-1.16,4.93-1.16s3.05,.38,3.97,1.13c.92,.75,1.38,1.9,1.38,3.43v8.58h-2.45Zm-1.04-5.97l-1.36,.05c-1.02,.03-1.78,.21-2.28,.55-.5,.34-.75,.85-.75,1.54,0,.99,.57,1.49,1.71,1.49,.81,0,1.46-.23,1.95-.7,.49-.47,.73-1.09,.73-1.87v-1.06Zm-3.91-8.33v-.31c1.32-1.54,2.22-2.69,2.71-3.47h3.94v.24c-.4,.4-1.08,.99-2.04,1.78-.96,.79-1.72,1.37-2.26,1.76h-2.34Z"/><path class="cls-4" d="M367.7,594.87c-4.01,0-6.01-2.2-6.01-6.6,0-2.19,.55-3.86,1.64-5.02,1.09-1.16,2.65-1.73,4.69-1.73,1.49,0,2.83,.29,4.01,.88l-1.04,2.72c-.55-.22-1.07-.41-1.54-.55-.48-.14-.95-.21-1.43-.21-1.83,0-2.74,1.3-2.74,3.89s.91,3.78,2.74,3.78c.68,0,1.3-.09,1.88-.27s1.15-.46,1.73-.85v3.01c-.57,.36-1.14,.61-1.72,.75-.58,.14-1.31,.21-2.19,.21Z"/><path class="cls-4" d="M374.45,578.43c0-1.14,.64-1.72,1.91-1.72s1.91,.57,1.91,1.72c0,.55-.16,.97-.48,1.27-.32,.3-.8,.46-1.43,.46-1.28,0-1.91-.58-1.91-1.73Zm3.66,16.21h-3.51v-12.88h3.51v12.88Z"/><path class="cls-4" d="M389.98,594.64l-.68-1.75h-.09c-.59,.75-1.2,1.26-1.83,1.55-.63,.29-1.44,.43-2.45,.43-1.24,0-2.21-.35-2.92-1.06-.71-.71-1.07-1.71-1.07-3.02s.48-2.38,1.43-3.02c.96-.65,2.4-1.01,4.33-1.08l2.24-.07v-.56c0-1.31-.67-1.96-2-1.96-1.03,0-2.24,.31-3.63,.93l-1.16-2.37c1.48-.78,3.12-1.16,4.93-1.16s3.05,.38,3.97,1.13c.92,.75,1.38,1.9,1.38,3.43v8.58h-2.45Zm-1.04-5.97l-1.36,.05c-1.02,.03-1.78,.21-2.28,.55-.5,.34-.75,.85-.75,1.54,0,.99,.57,1.49,1.71,1.49,.81,0,1.46-.23,1.95-.7,.49-.47,.73-1.09,.73-1.87v-1.06Z"/></g></g></g><g><g><g><ellipse class="cls-4" cx="490.35" cy="554.75" rx="64.3" ry="17.89"/><path class="cls-4" d="M554.64,560.3c.09,1.47-.5,2.94-1.37,4.15-.89,1.21-2,2.24-3.19,3.14-2.39,1.79-5.07,3.11-7.78,4.29-5.47,2.27-11.18,3.82-16.94,4.99-2.88,.6-5.78,1.11-8.69,1.5-2.91,.41-5.83,.75-8.75,1.02-5.85,.53-11.72,.73-17.58,.79-5.87-.05-11.73-.25-17.58-.78-2.92-.27-5.84-.61-8.75-1.02-2.91-.39-5.81-.9-8.69-1.5-5.76-1.17-11.47-2.72-16.94-4.99-2.71-1.18-5.39-2.51-7.78-4.29-1.19-.89-2.3-1.93-3.19-3.14-.87-1.21-1.46-2.68-1.37-4.15,.12,1.47,.87,2.76,1.84,3.78,.96,1.03,2.11,1.89,3.34,2.6,2.46,1.43,5.13,2.5,7.85,3.38,5.45,1.78,11.12,2.88,16.8,3.77,5.7,.84,11.43,1.48,17.18,1.82,5.75,.4,11.52,.58,17.29,.56,5.77,.02,11.54-.16,17.29-.56,5.76-.34,11.49-.98,17.18-1.82,5.68-.89,11.35-1.99,16.8-3.77,2.72-.88,5.39-1.95,7.85-3.38,1.23-.72,2.37-1.57,3.34-2.6,.96-1.02,1.72-2.31,1.83-3.78Z"/></g><g><path class="cls-4" d="M422.74,531.32v-16.84h3.57v13.89h6.83v2.95h-10.4Z"/><path class="cls-4" d="M443.97,531.32l-.68-1.75h-.09c-.59,.75-1.2,1.26-1.83,1.55-.63,.29-1.44,.43-2.45,.43-1.24,0-2.21-.35-2.92-1.06-.71-.71-1.07-1.71-1.07-3.02s.48-2.38,1.43-3.02c.96-.65,2.4-1.01,4.33-1.08l2.24-.07v-.56c0-1.31-.67-1.96-2-1.96-1.03,0-2.24,.31-3.63,.93l-1.16-2.37c1.48-.78,3.12-1.16,4.93-1.16s3.05,.38,3.97,1.13c.92,.75,1.38,1.9,1.38,3.43v8.58h-2.45Zm-1.04-5.97l-1.36,.05c-1.02,.03-1.78,.21-2.28,.55-.5,.34-.75,.85-.75,1.54,0,.99,.57,1.49,1.71,1.49,.81,0,1.46-.23,1.95-.7,.49-.47,.73-1.09,.73-1.87v-1.06Z"/><path class="cls-4" d="M457.21,518.2c1.52,0,2.71,.59,3.57,1.78,.86,1.19,1.29,2.81,1.29,4.88s-.44,3.77-1.33,4.94c-.89,1.17-2.1,1.75-3.62,1.75s-2.7-.55-3.56-1.65h-.24l-.59,1.42h-2.68v-17.93h3.51v4.17c0,.53-.05,1.38-.14,2.55h.14c.82-1.27,2.04-1.91,3.65-1.91Zm-1.13,2.81c-.87,0-1.5,.27-1.9,.8-.4,.53-.61,1.42-.62,2.64v.38c0,1.38,.21,2.37,.62,2.97,.41,.6,1.06,.9,1.95,.9,.72,0,1.3-.33,1.72-1,.43-.67,.64-1.63,.64-2.9s-.21-2.22-.65-2.85c-.43-.63-1.02-.95-1.76-.95Z"/><path class="cls-4" d="M476.68,524.86c0,2.1-.55,3.74-1.66,4.92s-2.65,1.77-4.62,1.77c-1.24,0-2.33-.27-3.27-.81-.95-.54-1.67-1.32-2.18-2.33s-.76-2.2-.76-3.55c0-2.1,.55-3.74,1.65-4.91,1.1-1.17,2.64-1.75,4.63-1.75,1.24,0,2.33,.27,3.27,.81,.95,.54,1.67,1.31,2.18,2.32s.76,2.18,.76,3.54Zm-8.91,0c0,1.27,.21,2.24,.63,2.89,.42,.65,1.1,.98,2.04,.98s1.61-.33,2.02-.97c.41-.65,.62-1.62,.62-2.9s-.21-2.23-.62-2.87-1.09-.96-2.04-.96-1.61,.32-2.03,.95c-.41,.63-.62,1.59-.62,2.88Z"/><path class="cls-4" d="M486.77,518.2c.48,0,.87,.03,1.19,.1l-.26,3.29c-.28-.08-.63-.12-1.04-.12-1.12,0-2,.29-2.62,.86s-.94,1.38-.94,2.42v6.56h-3.51v-12.88h2.66l.52,2.17h.17c.4-.72,.94-1.3,1.62-1.75s1.42-.66,2.22-.66Z"/><path class="cls-4" d="M498.47,531.32l-.68-1.75h-.09c-.59,.75-1.2,1.26-1.83,1.55-.63,.29-1.44,.43-2.45,.43-1.24,0-2.21-.35-2.92-1.06-.71-.71-1.07-1.71-1.07-3.02s.48-2.38,1.43-3.02c.96-.65,2.4-1.01,4.33-1.08l2.24-.07v-.56c0-1.31-.67-1.96-2-1.96-1.03,0-2.24,.31-3.63,.93l-1.16-2.37c1.48-.78,3.12-1.16,4.93-1.16s3.05,.38,3.97,1.13c.92,.75,1.38,1.9,1.38,3.43v8.58h-2.45Zm-1.04-5.97l-1.36,.05c-1.02,.03-1.78,.21-2.28,.55-.5,.34-.75,.85-.75,1.54,0,.99,.57,1.49,1.71,1.49,.81,0,1.46-.23,1.95-.7,.49-.47,.73-1.09,.73-1.87v-1.06Z"/><path class="cls-4" d="M509.97,528.75c.61,0,1.35-.13,2.21-.4v2.62c-.88,.39-1.95,.59-3.23,.59-1.41,0-2.43-.36-3.07-1.07-.64-.71-.96-1.78-.96-3.2v-6.21h-1.68v-1.49l1.94-1.17,1.01-2.72h2.25v2.74h3.61v2.64h-3.61v6.21c0,.5,.14,.87,.42,1.11,.28,.24,.65,.36,1.11,.36Z"/><path class="cls-4" d="M526.49,524.86c0,2.1-.55,3.74-1.66,4.92s-2.65,1.77-4.62,1.77c-1.24,0-2.33-.27-3.27-.81-.95-.54-1.67-1.32-2.18-2.33s-.76-2.2-.76-3.55c0-2.1,.55-3.74,1.65-4.91,1.1-1.17,2.64-1.75,4.63-1.75,1.24,0,2.33,.27,3.27,.81,.95,.54,1.67,1.31,2.18,2.32s.76,2.18,.76,3.54Zm-8.91,0c0,1.27,.21,2.24,.63,2.89,.42,.65,1.1,.98,2.04,.98s1.61-.33,2.02-.97c.41-.65,.62-1.62,.62-2.9s-.21-2.23-.62-2.87-1.09-.96-2.04-.96-1.61,.32-2.03,.95c-.41,.63-.62,1.59-.62,2.88Zm.74-7.83v-.31c1.32-1.54,2.22-2.69,2.71-3.47h3.94v.24c-.4,.4-1.08,.99-2.05,1.78-.96,.79-1.72,1.37-2.26,1.76h-2.34Z"/><path class="cls-4" d="M536.58,518.2c.48,0,.87,.03,1.19,.1l-.26,3.29c-.28-.08-.63-.12-1.04-.12-1.12,0-2,.29-2.62,.86s-.94,1.38-.94,2.42v6.56h-3.51v-12.88h2.66l.52,2.17h.17c.4-.72,.94-1.3,1.62-1.75s1.42-.66,2.22-.66Z"/><path class="cls-4" d="M539.96,515.11c0-1.14,.64-1.72,1.91-1.72s1.91,.57,1.91,1.72c0,.55-.16,.97-.48,1.27-.32,.3-.8,.46-1.43,.46-1.28,0-1.91-.58-1.91-1.73Zm3.66,16.21h-3.51v-12.88h3.51v12.88Z"/><path class="cls-4" d="M559.02,524.86c0,2.1-.55,3.74-1.66,4.92s-2.65,1.77-4.62,1.77c-1.24,0-2.33-.27-3.27-.81-.95-.54-1.67-1.32-2.18-2.33s-.76-2.2-.76-3.55c0-2.1,.55-3.74,1.65-4.91,1.1-1.17,2.64-1.75,4.63-1.75,1.24,0,2.33,.27,3.27,.81,.95,.54,1.67,1.31,2.18,2.32s.76,2.18,.76,3.54Zm-8.91,0c0,1.27,.21,2.24,.63,2.89,.42,.65,1.1,.98,2.04,.98s1.61-.33,2.02-.97c.41-.65,.62-1.62,.62-2.9s-.21-2.23-.62-2.87-1.09-.96-2.04-.96-1.61,.32-2.03,.95c-.41,.63-.62,1.59-.62,2.88Z"/></g></g><g><g><ellipse class="cls-4" cx="190.2" cy="554.75" rx="64.3" ry="17.89"/><path class="cls-4" d="M254.49,560.3c.09,1.47-.5,2.94-1.37,4.15-.89,1.21-2,2.24-3.19,3.14-2.39,1.79-5.07,3.11-7.78,4.29-5.47,2.27-11.18,3.82-16.94,4.99-2.88,.6-5.78,1.11-8.69,1.5-2.91,.41-5.83,.75-8.75,1.02-5.85,.53-11.72,.73-17.58,.79-5.87-.05-11.73-.25-17.58-.78-2.92-.27-5.84-.61-8.75-1.02-2.91-.39-5.81-.9-8.69-1.5-5.76-1.17-11.47-2.72-16.94-4.99-2.71-1.18-5.39-2.51-7.78-4.29-1.19-.89-2.3-1.93-3.19-3.14-.87-1.21-1.46-2.68-1.37-4.15,.12,1.47-2.28,6.47-1.31,7.49,.96,1.03,5.26-1.83,6.49-1.11,2.46,1.43,5.13,2.5,7.85,3.38,5.45,1.78,11.12,2.88,16.8,3.77,5.7,.84,11.43,1.48,17.18,1.82,5.75,.4,11.52,.58,17.29,.56,5.77,.02,11.54-.16,17.29-.56,5.76-.34,11.49-.98,17.18-1.82,5.68-.89,11.35-1.99,16.8-3.77,2.72-.88,5.39-1.95,7.85-3.38,1.23-.72,2.37-1.57,3.34-2.6,.96-1.02,1.72-2.31,1.83-3.78Z"/></g><g><path class="cls-4" d="M167.58,526.65c0,1.52-.55,2.72-1.64,3.59-1.09,.88-2.62,1.31-4.57,1.31-1.8,0-3.39-.34-4.77-1.01v-3.32c1.14,.51,2.1,.86,2.89,1.07,.79,.21,1.51,.31,2.16,.31,.78,0,1.38-.15,1.8-.45,.42-.3,.63-.75,.63-1.34,0-.33-.09-.62-.28-.88-.18-.26-.46-.5-.81-.74-.36-.24-1.08-.62-2.18-1.14-1.03-.48-1.8-.95-2.32-1.39-.51-.45-.93-.96-1.23-1.55-.31-.59-.46-1.28-.46-2.07,0-1.49,.5-2.66,1.52-3.51,1.01-.85,2.41-1.28,4.19-1.28,.88,0,1.71,.1,2.51,.31s1.63,.5,2.49,.88l-1.15,2.78c-.9-.37-1.64-.63-2.23-.77-.59-.15-1.17-.22-1.73-.22-.68,0-1.19,.16-1.56,.47-.36,.31-.54,.73-.54,1.23,0,.32,.07,.59,.22,.82,.15,.23,.38,.46,.7,.68s1.07,.61,2.26,1.18c1.57,.75,2.65,1.51,3.24,2.26,.58,.76,.88,1.68,.88,2.78Z"/><path class="cls-4" d="M180.94,531.32l-1.22-4.01h-6.14l-1.22,4.01h-3.85l5.94-16.91h4.37l5.97,16.91h-3.85Zm-2.07-7c-1.13-3.63-1.76-5.69-1.91-6.16-.14-.48-.24-.85-.31-1.13-.25,.98-.98,3.41-2.18,7.29h4.39Z"/><path class="cls-4" d="M194.04,531.32l-4.06-13.21h-.1c.15,2.69,.22,4.48,.22,5.38v7.83h-3.19v-16.84h4.86l3.99,12.88h.07l4.23-12.88h4.86v16.84h-3.33v-7.97c0-.38,0-.81,.02-1.3,.01-.49,.06-1.8,.16-3.92h-.1l-4.34,13.19h-3.27Z"/><path class="cls-4" d="M222.87,514.48v10.9c0,1.24-.28,2.33-.83,3.27-.56,.94-1.36,1.66-2.41,2.15-1.05,.5-2.3,.75-3.73,.75-2.17,0-3.85-.55-5.05-1.67-1.2-1.11-1.8-2.63-1.8-4.56v-10.85h3.56v10.31c0,1.3,.26,2.25,.78,2.86,.52,.61,1.39,.91,2.59,.91s2.01-.31,2.54-.92c.53-.61,.79-1.57,.79-2.88v-10.29h3.56Z"/></g></g></g><g><g><circle class="cls-4" cx="339.75" cy="485.42" r="48.71"/><path class="cls-4" d="M339.75,537.97c-28.98,0-52.55-23.58-52.55-52.55s23.57-52.55,52.55-52.55,52.55,23.57,52.55,52.55-23.57,52.55-52.55,52.55Zm0-104.03c-28.38,0-51.47,23.09-51.47,51.47s23.09,51.47,51.47,51.47,51.47-23.09,51.47-51.47-23.09-51.47-51.47-51.47Z"/><g><path class="cls-1" d="M330.14,492.08l-1.22-4.01h-6.14l-1.22,4.01h-3.85l5.94-16.91h4.37l5.97,16.91h-3.85Zm-2.07-7c-1.13-3.63-1.76-5.69-1.91-6.16-.14-.48-.24-.85-.3-1.13-.25,.98-.98,3.41-2.18,7.29h4.39Z"/><path class="cls-1" d="M347.74,480.49c0,1.81-.57,3.2-1.7,4.16s-2.74,1.44-4.83,1.44h-1.53v5.99h-3.57v-16.84h5.38c2.04,0,3.6,.44,4.66,1.32s1.6,2.19,1.6,3.93Zm-8.06,2.67h1.17c1.1,0,1.92-.22,2.47-.65,.54-.43,.82-1.07,.82-1.89s-.23-1.46-.69-1.86c-.46-.4-1.17-.6-2.15-.6h-1.62v5Z"/><path class="cls-1" d="M360.86,487.4c0,1.52-.55,2.72-1.64,3.59s-2.62,1.31-4.57,1.31c-1.8,0-3.39-.34-4.77-1.01v-3.32c1.14,.51,2.1,.86,2.89,1.07,.79,.21,1.51,.31,2.16,.31,.78,0,1.38-.15,1.8-.45,.42-.3,.63-.75,.63-1.34,0-.33-.09-.62-.28-.88-.18-.26-.46-.5-.81-.74-.36-.24-1.08-.62-2.18-1.14-1.03-.48-1.8-.95-2.32-1.39-.51-.45-.93-.96-1.23-1.55-.31-.59-.46-1.28-.46-2.07,0-1.49,.5-2.66,1.51-3.51s2.41-1.28,4.19-1.28c.88,0,1.71,.1,2.51,.31s1.63,.5,2.49,.88l-1.15,2.78c-.9-.37-1.64-.63-2.23-.77-.59-.15-1.17-.22-1.73-.22-.68,0-1.19,.16-1.55,.47-.36,.31-.54,.73-.54,1.23,0,.32,.07,.59,.22,.82,.15,.23,.38,.46,.7,.68s1.07,.61,2.26,1.18c1.57,.75,2.65,1.51,3.24,2.26,.58,.76,.88,1.68,.88,2.78Z"/></g></g><g><g><polygon class="cls-4" points="350.61 412.11 345.18 404.76 339.75 397.4 334.32 404.76 328.89 412.11 333.05 412.11 333.05 424.47 346.45 424.47 346.45 412.11 350.61 412.11"/><polygon class="cls-4" points="350.61 558.73 345.18 566.09 339.75 573.44 334.32 566.09 328.89 558.73 333.05 558.73 333.05 546.38 346.45 546.38 346.45 558.73 350.61 558.73"/></g><g><polygon class="cls-4" points="407.07 454.44 410.26 445.87 413.45 437.3 404.32 436.78 395.2 436.25 397.47 439.74 387.13 446.49 394.45 457.7 404.8 450.95 407.07 454.44"/><polygon class="cls-4" points="284.3 534.59 275.18 534.07 266.05 533.54 269.24 524.97 272.43 516.41 274.71 519.89 285.05 513.14 292.37 524.35 282.03 531.11 284.3 534.59"/></g><g><polygon class="cls-4" points="272.43 454.44 269.24 445.87 266.05 437.3 275.18 436.78 284.3 436.25 282.03 439.74 292.37 446.49 285.05 457.7 274.71 450.95 272.43 454.44"/><polygon class="cls-4" points="395.2 534.59 404.32 534.07 413.45 533.54 410.26 524.97 407.07 516.41 404.8 519.89 394.45 513.14 387.13 524.35 397.47 531.11 395.2 534.59"/></g></g></g></g><g><g><path class="cls-4" d="M258.28,626.62c-12.75-6.97-24.46-15.72-34.78-26l3.04-3.05c10.04,10,21.41,18.5,33.81,25.28l-2.07,3.78Z"/><polygon class="cls-4" points="221.72 604.87 218.65 592.34 231.03 595.94 221.72 604.87"/><polygon class="cls-4" points="251.04 626.86 263.88 628.1 258.53 616.36 251.04 626.86"/></g><g><path class="cls-4" d="M435.92,626.62c12.75-6.97,24.46-15.72,34.78-26l-3.04-3.05c-10.04,10-21.41,18.5-33.81,25.28l2.07,3.78Z"/><polygon class="cls-4" points="472.48 604.87 475.55 592.34 463.17 595.94 472.48 604.87"/><polygon class="cls-4" points="443.16 626.86 430.32 628.1 435.67 616.36 443.16 626.86"/></g><g><path class="cls-4" d="M189.15,501.81c-1-7.1-1.51-14.36-1.51-21.58,0-4.99,.25-10.05,.73-15.04l4.29,.42c-.47,4.85-.71,9.77-.71,14.62,0,7.02,.49,14.07,1.47,20.97l-4.27,.6Z"/><polygon class="cls-4" points="183.95 466.5 191.7 456.19 196.76 468.06 183.95 466.5"/><polygon class="cls-4" points="183.95 496.83 191.7 507.14 196.76 495.27 183.95 496.83"/></g><g><path class="cls-4" d="M495.28,501.81c1-7.1,1.51-14.36,1.51-21.58,0-4.99-.25-10.05-.73-15.04l-4.29,.42c.47,4.85,.71,9.77,.71,14.62,0,7.02-.49,14.07-1.47,20.97l4.27,.6Z"/><polygon class="cls-4" points="500.48 466.5 492.73 456.19 487.68 468.06 500.48 466.5"/><polygon class="cls-4" points="500.48 496.83 492.73 507.14 487.68 495.27 500.48 496.83"/></g><g><path class="cls-4" d="M226.45,375.92l-3.05-3.05c14.37-14.38,31.19-25.59,50-33.32l1.64,3.99c-18.28,7.51-34.63,18.4-48.59,32.38Z"/><polygon class="cls-4" points="270.18 336.28 282.92 338.28 274.81 348.32 270.18 336.28"/><polygon class="cls-4" points="221.41 378.73 233.7 374.84 224.18 366.14 221.41 378.73"/></g><g><path class="cls-4" d="M465.88,375.92l3.05-3.05c-14.37-14.38-31.19-25.59-50-33.32l-1.64,3.99c18.28,7.51,34.63,18.4,48.59,32.38Z"/><polygon class="cls-4" points="422.15 336.28 409.41 338.28 417.52 348.32 422.15 336.28"/><polygon class="cls-4" points="470.92 378.73 458.63 374.84 468.15 366.14 470.92 378.73"/></g></g></g></svg>