<?xml version="1.0" encoding="UTF-8"?><svg id="Camada_1" xmlns="http://www.w3.org/2000/svg" viewBox="0 0 183 104"><defs><style>.cls-1{fill:#fff;}.cls-2{fill:#0d548a;isolation:isolate;opacity:.75;}</style></defs><rect class="cls-2" y="0" width="183" height="104" rx="5" ry="5"/><g><path class="cls-1" d="M31.11,9.71v8.3h-1.09v-6.19l-2.76,6.19h-.77l-2.77-6.2v6.2h-1.09V9.71h1.18l3.07,6.86,3.07-6.86h1.16Z"/><path class="cls-1" d="M34.15,17.7c-.5-.28-.89-.68-1.18-1.19-.28-.52-.43-1.11-.43-1.79s.15-1.27,.44-1.78,.69-.91,1.19-1.19,1.07-.41,1.69-.41,1.19,.14,1.69,.41c.5,.28,.9,.67,1.19,1.18,.29,.51,.44,1.11,.44,1.79s-.15,1.28-.45,1.79c-.3,.52-.71,.91-1.22,1.19-.51,.28-1.08,.42-1.7,.42s-1.17-.14-1.67-.42Zm2.78-.82c.34-.18,.62-.46,.83-.83,.21-.37,.32-.82,.32-1.34s-.1-.98-.31-1.34c-.21-.37-.48-.64-.82-.82-.34-.18-.7-.27-1.09-.27s-.77,.09-1.1,.27c-.33,.18-.6,.45-.8,.82-.2,.37-.3,.82-.3,1.34s.1,.99,.29,1.36c.2,.37,.46,.64,.79,.82,.33,.18,.69,.27,1.08,.27s.76-.09,1.1-.28Z"/><path class="cls-1" d="M40.64,12.93c.27-.51,.65-.9,1.12-1.18,.48-.28,1.01-.42,1.6-.42,.51,0,.99,.12,1.43,.35,.44,.24,.78,.55,1.01,.93v-3.48h1.1v8.88h-1.1v-1.24c-.22,.39-.54,.71-.96,.97-.42,.25-.92,.38-1.49,.38s-1.11-.14-1.59-.43c-.48-.29-.85-.69-1.12-1.21s-.41-1.11-.41-1.78,.14-1.26,.41-1.77Zm4.86,.49c-.2-.37-.47-.65-.81-.85-.34-.2-.71-.29-1.12-.29s-.78,.1-1.12,.29c-.34,.19-.6,.47-.8,.84-.2,.37-.3,.8-.3,1.3s.1,.94,.3,1.31c.2,.37,.47,.66,.8,.85,.34,.2,.71,.29,1.12,.29s.78-.1,1.12-.29c.34-.2,.61-.48,.81-.85,.2-.37,.3-.81,.3-1.3s-.1-.93-.3-1.3Z"/><path class="cls-1" d="M54.71,15.13h-5.26c.04,.65,.26,1.15,.67,1.52,.4,.36,.89,.55,1.47,.55,.47,0,.87-.11,1.18-.33,.32-.22,.54-.51,.67-.88h1.18c-.18,.63-.53,1.15-1.06,1.54-.53,.4-1.18,.59-1.97,.59-.62,0-1.18-.14-1.67-.42-.49-.28-.88-.68-1.16-1.19-.28-.52-.42-1.11-.42-1.79s.14-1.28,.41-1.79c.27-.51,.65-.91,1.15-1.18,.49-.28,1.06-.41,1.7-.41s1.18,.14,1.66,.41,.85,.65,1.11,1.12c.26,.48,.39,1.01,.39,1.61,0,.21-.01,.43-.04,.66Zm-1.37-1.96c-.18-.3-.43-.53-.75-.68-.32-.16-.67-.23-1.05-.23-.55,0-1.02,.18-1.41,.53-.39,.35-.61,.84-.67,1.46h4.15c0-.42-.09-.77-.28-1.07Z"/><path class="cls-1" d="M57.28,9.13v8.88h-1.09V9.13h1.09Z"/><path class="cls-1" d="M60.34,17.7c-.5-.28-.89-.68-1.18-1.19-.28-.52-.43-1.11-.43-1.79s.15-1.27,.44-1.78,.69-.91,1.19-1.19,1.07-.41,1.69-.41,1.19,.14,1.69,.41c.5,.28,.9,.67,1.19,1.18,.29,.51,.44,1.11,.44,1.79s-.15,1.28-.45,1.79c-.3,.52-.71,.91-1.22,1.19-.51,.28-1.08,.42-1.7,.42s-1.17-.14-1.67-.42Zm2.78-.82c.34-.18,.62-.46,.83-.83,.21-.37,.32-.82,.32-1.34s-.1-.98-.31-1.34c-.21-.37-.48-.64-.82-.82-.34-.18-.7-.27-1.09-.27s-.77,.09-1.1,.27c-.33,.18-.6,.45-.8,.82-.2,.37-.3,.82-.3,1.34s.1,.99,.29,1.36c.2,.37,.46,.64,.79,.82,.33,.18,.69,.27,1.08,.27s.76-.09,1.1-.28Z"/><path class="cls-1" d="M70.03,12.93c.27-.51,.65-.9,1.12-1.18,.48-.28,1.01-.42,1.59-.42s1.08,.12,1.5,.37c.42,.25,.74,.56,.95,.94v-1.2h1.1v6.58h-1.1v-1.22c-.22,.38-.54,.7-.97,.95-.43,.25-.93,.38-1.49,.38s-1.11-.14-1.58-.43c-.47-.29-.84-.69-1.12-1.21s-.41-1.11-.41-1.78,.14-1.26,.41-1.77Zm4.86,.49c-.2-.37-.47-.65-.81-.85-.34-.2-.71-.29-1.12-.29s-.78,.1-1.12,.29c-.34,.19-.6,.47-.8,.84-.2,.37-.3,.8-.3,1.3s.1,.94,.3,1.31c.2,.37,.47,.66,.8,.85,.34,.2,.71,.29,1.12,.29s.78-.1,1.12-.29c.34-.2,.61-.48,.81-.85,.2-.37,.3-.81,.3-1.3s-.1-.93-.3-1.3Z"/><path class="cls-1" d="M79.11,17.86c-.4-.17-.72-.41-.95-.72-.23-.31-.36-.66-.38-1.06h1.13c.03,.33,.19,.6,.46,.8,.28,.21,.64,.31,1.09,.31,.42,0,.74-.09,.98-.28,.24-.18,.36-.42,.36-.7s-.13-.5-.38-.64c-.26-.14-.65-.28-1.19-.41-.49-.13-.89-.26-1.19-.39-.31-.13-.57-.33-.79-.59-.22-.26-.33-.6-.33-1.03,0-.34,.1-.64,.3-.92,.2-.28,.48-.5,.85-.67,.37-.16,.79-.25,1.26-.25,.73,0,1.32,.18,1.76,.55,.45,.37,.69,.87,.72,1.51h-1.09c-.02-.34-.16-.62-.41-.83-.25-.21-.59-.31-1.01-.31-.39,0-.7,.08-.94,.25-.23,.17-.35,.39-.35,.66,0,.22,.07,.39,.21,.53,.14,.14,.32,.25,.53,.34s.51,.18,.88,.28c.47,.13,.86,.25,1.15,.38s.55,.31,.76,.56,.32,.57,.33,.97c0,.36-.1,.68-.3,.97-.2,.29-.48,.51-.85,.68-.36,.16-.78,.25-1.25,.25-.5,0-.96-.09-1.36-.26Z"/><path class="cls-1" d="M85.37,17.86c-.4-.17-.72-.41-.95-.72-.23-.31-.36-.66-.38-1.06h1.13c.03,.33,.19,.6,.46,.8,.28,.21,.64,.31,1.09,.31,.42,0,.74-.09,.98-.28,.24-.18,.36-.42,.36-.7s-.13-.5-.38-.64c-.26-.14-.65-.28-1.19-.41-.49-.13-.89-.26-1.19-.39-.31-.13-.57-.33-.79-.59-.22-.26-.33-.6-.33-1.03,0-.34,.1-.64,.3-.92,.2-.28,.48-.5,.85-.67,.37-.16,.79-.25,1.26-.25,.73,0,1.32,.18,1.76,.55,.45,.37,.69,.87,.72,1.51h-1.09c-.02-.34-.16-.62-.41-.83-.25-.21-.59-.31-1.01-.31-.39,0-.7,.08-.94,.25-.23,.17-.35,.39-.35,.66,0,.22,.07,.39,.21,.53,.14,.14,.32,.25,.53,.34s.51,.18,.88,.28c.47,.13,.86,.25,1.15,.38s.55,.31,.76,.56,.32,.57,.33,.97c0,.36-.1,.68-.3,.97-.2,.29-.48,.51-.85,.68-.36,.16-.78,.25-1.25,.25-.5,0-.96-.09-1.36-.26Z"/><path class="cls-1" d="M90.7,10.15c-.14-.14-.22-.32-.22-.53s.07-.38,.22-.53,.32-.22,.53-.22,.37,.07,.51,.22c.14,.14,.21,.32,.21,.53s-.07,.38-.21,.53c-.14,.14-.31,.22-.51,.22s-.38-.07-.53-.22Zm1.06,1.28v6.58h-1.09v-6.58h1.09Z"/><path class="cls-1" d="M94.59,17.86c-.4-.17-.72-.41-.95-.72-.23-.31-.36-.66-.38-1.06h1.13c.03,.33,.19,.6,.46,.8,.28,.21,.64,.31,1.09,.31,.42,0,.74-.09,.98-.28,.24-.18,.36-.42,.36-.7s-.13-.5-.38-.64c-.26-.14-.65-.28-1.19-.41-.49-.13-.89-.26-1.19-.39-.31-.13-.57-.33-.79-.59-.22-.26-.33-.6-.33-1.03,0-.34,.1-.64,.3-.92,.2-.28,.48-.5,.85-.67,.37-.16,.79-.25,1.26-.25,.73,0,1.32,.18,1.76,.55,.45,.37,.69,.87,.72,1.51h-1.09c-.02-.34-.16-.62-.41-.83-.25-.21-.59-.31-1.01-.31-.39,0-.7,.08-.94,.25-.23,.17-.35,.39-.35,.66,0,.22,.07,.39,.21,.53,.14,.14,.32,.25,.53,.34s.51,.18,.88,.28c.47,.13,.86,.25,1.15,.38s.55,.31,.76,.56,.32,.57,.33,.97c0,.36-.1,.68-.3,.97-.2,.29-.48,.51-.85,.68-.36,.16-.78,.25-1.25,.25-.5,0-.96-.09-1.36-.26Z"/><path class="cls-1" d="M101.21,12.34v3.88c0,.32,.07,.55,.2,.68,.14,.13,.37,.2,.71,.2h.8v.92h-.98c-.61,0-1.06-.14-1.37-.42-.3-.28-.46-.74-.46-1.38v-3.88h-.85v-.9h.85v-1.66h1.09v1.66h1.72v.9h-1.72Z"/><path class="cls-1" d="M110.21,15.13h-5.26c.04,.65,.26,1.15,.67,1.52,.4,.36,.89,.55,1.47,.55,.47,0,.87-.11,1.18-.33,.32-.22,.54-.51,.67-.88h1.18c-.18,.63-.53,1.15-1.06,1.54-.53,.4-1.18,.59-1.97,.59-.62,0-1.18-.14-1.67-.42-.49-.28-.88-.68-1.16-1.19-.28-.52-.42-1.11-.42-1.79s.14-1.28,.41-1.79c.27-.51,.65-.91,1.15-1.18,.49-.28,1.06-.41,1.7-.41s1.18,.14,1.66,.41,.85,.65,1.11,1.12c.26,.48,.39,1.01,.39,1.61,0,.21-.01,.43-.04,.66Zm-1.37-1.96c-.18-.3-.43-.53-.75-.68-.32-.16-.67-.23-1.05-.23-.55,0-1.02,.18-1.41,.53-.39,.35-.61,.84-.67,1.46h4.15c0-.42-.09-.77-.28-1.07Z"/><path class="cls-1" d="M116.84,12.04c.5,.48,.74,1.18,.74,2.09v3.88h-1.08v-3.72c0-.66-.16-1.16-.49-1.51-.33-.35-.78-.52-1.34-.52s-1.03,.18-1.37,.54-.51,.88-.51,1.57v3.64h-1.09v-6.58h1.09v.94c.22-.34,.51-.6,.88-.78s.78-.28,1.23-.28c.8,0,1.45,.24,1.94,.73Z"/><path class="cls-1" d="M119.37,12.93c.27-.51,.65-.9,1.13-1.18,.48-.28,1.04-.42,1.66-.42,.81,0,1.47,.2,2,.59,.52,.39,.87,.94,1.04,1.63h-1.18c-.11-.4-.33-.72-.65-.95-.32-.23-.73-.35-1.21-.35-.62,0-1.13,.21-1.51,.64-.38,.43-.58,1.03-.58,1.82s.19,1.4,.58,1.84c.38,.43,.89,.65,1.51,.65,.48,0,.88-.11,1.2-.34s.54-.54,.66-.96h1.18c-.18,.67-.53,1.21-1.06,1.61-.53,.4-1.19,.61-1.98,.61-.62,0-1.18-.14-1.66-.42-.48-.28-.86-.68-1.13-1.19-.27-.51-.41-1.11-.41-1.8s.14-1.27,.41-1.78Z"/><path class="cls-1" d="M126.69,10.15c-.14-.14-.22-.32-.22-.53s.07-.38,.22-.53,.32-.22,.53-.22,.37,.07,.51,.22c.14,.14,.21,.32,.21,.53s-.07,.38-.21,.53c-.14,.14-.31,.22-.51,.22s-.38-.07-.53-.22Zm1.06,1.28v6.58h-1.09v-6.58h1.09Z"/><path class="cls-1" d="M129.6,12.93c.27-.51,.65-.9,1.12-1.18,.48-.28,1.01-.42,1.59-.42s1.08,.12,1.5,.37c.42,.25,.74,.56,.95,.94v-1.2h1.1v6.58h-1.1v-1.22c-.22,.38-.54,.7-.97,.95-.43,.25-.93,.38-1.49,.38s-1.11-.14-1.58-.43c-.47-.29-.84-.69-1.12-1.21s-.41-1.11-.41-1.78,.14-1.26,.41-1.77Zm4.86,.49c-.2-.37-.47-.65-.81-.85-.34-.2-.71-.29-1.12-.29s-.78,.1-1.12,.29c-.34,.19-.6,.47-.8,.84-.2,.37-.3,.8-.3,1.3s.1,.94,.3,1.31c.2,.37,.47,.66,.8,.85,.34,.2,.71,.29,1.12,.29s.78-.1,1.12-.29c.34-.2,.61-.48,.81-.85,.2-.37,.3-.81,.3-1.3s-.1-.93-.3-1.3Z"/><path class="cls-1" d="M138.81,9.13v8.88h-1.09V9.13h1.09Z"/><path class="cls-1" d="M23.82,32.1c-.5-.28-.89-.68-1.18-1.19-.28-.52-.43-1.11-.43-1.79s.15-1.27,.44-1.78,.69-.91,1.19-1.19,1.07-.41,1.69-.41,1.19,.14,1.69,.41c.5,.28,.9,.67,1.19,1.18,.29,.51,.44,1.11,.44,1.79s-.15,1.28-.45,1.79c-.3,.52-.71,.91-1.22,1.19-.51,.28-1.08,.42-1.7,.42s-1.17-.14-1.67-.42Zm2.78-.82c.34-.18,.62-.46,.83-.83,.21-.37,.32-.82,.32-1.34s-.1-.98-.31-1.34c-.21-.37-.48-.64-.82-.82-.34-.18-.7-.27-1.09-.27s-.77,.09-1.1,.27c-.33,.18-.6,.45-.8,.82-.2,.37-.3,.82-.3,1.34s.1,.99,.29,1.36c.2,.37,.46,.64,.79,.82,.33,.18,.69,.27,1.08,.27s.76-.09,1.1-.28Z"/><path class="cls-1" d="M32.22,26.03c.36-.21,.79-.31,1.3-.31v1.13h-.29c-1.22,0-1.84,.66-1.84,1.99v3.58h-1.09v-6.58h1.09v1.07c.19-.38,.47-.67,.82-.88Z"/><path class="cls-1" d="M34.82,24.55c-.14-.14-.22-.32-.22-.53s.07-.38,.22-.53,.32-.22,.53-.22,.37,.07,.51,.22c.14,.14,.21,.32,.21,.53s-.07,.38-.21,.53c-.14,.14-.31,.22-.51,.22s-.38-.07-.53-.22Zm1.06,1.28v6.58h-1.09v-6.58h1.09Z"/><path class="cls-1" d="M43.7,29.53h-5.26c.04,.65,.26,1.15,.67,1.52,.4,.36,.89,.55,1.47,.55,.47,0,.87-.11,1.18-.33,.32-.22,.54-.51,.67-.88h1.18c-.18,.63-.53,1.15-1.06,1.54-.53,.4-1.18,.59-1.97,.59-.62,0-1.18-.14-1.67-.42-.49-.28-.88-.68-1.16-1.19-.28-.52-.42-1.11-.42-1.79s.14-1.28,.41-1.79c.27-.51,.65-.91,1.15-1.18,.49-.28,1.06-.41,1.7-.41s1.18,.14,1.66,.41,.85,.65,1.11,1.12c.26,.48,.39,1.01,.39,1.61,0,.21-.01,.43-.04,.66Zm-1.37-1.96c-.18-.3-.43-.53-.75-.68-.32-.16-.67-.23-1.05-.23-.55,0-1.02,.18-1.41,.53-.39,.35-.61,.84-.67,1.46h4.15c0-.42-.09-.77-.28-1.07Z"/><path class="cls-1" d="M50.32,26.44c.5,.48,.74,1.18,.74,2.09v3.88h-1.08v-3.72c0-.66-.16-1.16-.49-1.51-.33-.35-.78-.52-1.34-.52s-1.03,.18-1.37,.54-.51,.88-.51,1.57v3.64h-1.09v-6.58h1.09v.94c.22-.34,.51-.6,.88-.78s.78-.28,1.23-.28c.8,0,1.45,.24,1.94,.73Z"/><path class="cls-1" d="M54.19,26.74v3.88c0,.32,.07,.55,.2,.68,.14,.13,.37,.2,.71,.2h.8v.92h-.98c-.61,0-1.06-.14-1.37-.42-.3-.28-.46-.74-.46-1.38v-3.88h-.85v-.9h.85v-1.66h1.09v1.66h1.72v.9h-1.72Z"/><path class="cls-1" d="M57.22,27.33c.27-.51,.65-.9,1.12-1.18,.48-.28,1.01-.42,1.59-.42s1.08,.12,1.5,.37c.42,.25,.74,.56,.95,.94v-1.2h1.1v6.58h-1.1v-1.22c-.22,.38-.54,.7-.97,.95-.43,.25-.93,.38-1.49,.38s-1.11-.14-1.58-.43c-.47-.29-.84-.69-1.12-1.21s-.41-1.11-.41-1.78,.14-1.26,.41-1.77Zm4.86,.49c-.2-.37-.47-.65-.81-.85-.34-.2-.71-.29-1.12-.29s-.78,.1-1.12,.29c-.34,.19-.6,.47-.8,.84-.2,.37-.3,.8-.3,1.3s.1,.94,.3,1.31c.2,.37,.47,.66,.8,.85,.34,.2,.71,.29,1.12,.29s.78-.1,1.12-.29c.34-.2,.61-.48,.81-.85,.2-.37,.3-.81,.3-1.3s-.1-.93-.3-1.3Z"/><path class="cls-1" d="M65.33,27.33c.27-.51,.65-.9,1.12-1.18,.48-.28,1.01-.42,1.6-.42,.51,0,.99,.12,1.43,.35,.44,.24,.78,.55,1.01,.93v-3.48h1.1v8.88h-1.1v-1.24c-.22,.39-.54,.71-.96,.97-.42,.25-.92,.38-1.49,.38s-1.11-.14-1.59-.43c-.48-.29-.85-.69-1.12-1.21s-.41-1.11-.41-1.78,.14-1.26,.41-1.77Zm4.86,.49c-.2-.37-.47-.65-.81-.85-.34-.2-.71-.29-1.12-.29s-.78,.1-1.12,.29c-.34,.19-.6,.47-.8,.84-.2,.37-.3,.8-.3,1.3s.1,.94,.3,1.31c.2,.37,.47,.66,.8,.85,.34,.2,.71,.29,1.12,.29s.78-.1,1.12-.29c.34-.2,.61-.48,.81-.85,.2-.37,.3-.81,.3-1.3s-.1-.93-.3-1.3Z"/><path class="cls-1" d="M74.64,32.1c-.5-.28-.89-.68-1.18-1.19-.28-.52-.43-1.11-.43-1.79s.15-1.27,.44-1.78,.69-.91,1.19-1.19,1.07-.41,1.69-.41,1.19,.14,1.69,.41c.5,.28,.9,.67,1.19,1.18,.29,.51,.44,1.11,.44,1.79s-.15,1.28-.45,1.79c-.3,.52-.71,.91-1.22,1.19-.51,.28-1.08,.42-1.7,.42s-1.17-.14-1.67-.42Zm2.78-.82c.34-.18,.62-.46,.83-.83,.21-.37,.32-.82,.32-1.34s-.1-.98-.31-1.34c-.21-.37-.48-.64-.82-.82-.34-.18-.7-.27-1.09-.27s-.77,.09-1.1,.27c-.33,.18-.6,.45-.8,.82-.2,.37-.3,.82-.3,1.34s.1,.99,.29,1.36c.2,.37,.46,.64,.79,.82,.33,.18,.69,.27,1.08,.27s.76-.09,1.1-.28Z"/><path class="cls-1" d="M86.39,26.11c.43-.25,.93-.38,1.49-.38s1.11,.14,1.59,.42c.48,.28,.85,.67,1.12,1.18,.27,.51,.41,1.1,.41,1.77s-.14,1.26-.41,1.78-.65,.92-1.12,1.21c-.48,.29-1.01,.43-1.59,.43s-1.05-.13-1.48-.38c-.43-.25-.75-.57-.98-.94v4.33h-1.09v-9.7h1.09v1.21c.22-.38,.54-.69,.97-.94Zm3.2,1.7c-.2-.37-.47-.65-.81-.84-.34-.19-.71-.29-1.12-.29s-.77,.1-1.11,.29c-.34,.2-.61,.48-.82,.85-.2,.37-.31,.8-.31,1.29s.1,.93,.31,1.3c.2,.37,.48,.66,.82,.85,.34,.2,.71,.29,1.11,.29s.78-.1,1.12-.29c.34-.2,.61-.48,.81-.85,.2-.37,.3-.81,.3-1.31s-.1-.93-.3-1.3Z"/><path class="cls-1" d="M92.44,27.33c.27-.51,.65-.9,1.12-1.18,.48-.28,1.01-.42,1.59-.42s1.08,.12,1.5,.37c.42,.25,.74,.56,.95,.94v-1.2h1.1v6.58h-1.1v-1.22c-.22,.38-.54,.7-.97,.95-.43,.25-.93,.38-1.49,.38s-1.11-.14-1.58-.43c-.47-.29-.84-.69-1.12-1.21s-.41-1.11-.41-1.78,.14-1.26,.41-1.77Zm4.86,.49c-.2-.37-.47-.65-.81-.85-.34-.2-.71-.29-1.12-.29s-.78,.1-1.12,.29c-.34,.19-.6,.47-.8,.84-.2,.37-.3,.8-.3,1.3s.1,.94,.3,1.31c.2,.37,.47,.66,.8,.85,.34,.2,.71,.29,1.12,.29s.78-.1,1.12-.29c.34-.2,.61-.48,.81-.85,.2-.37,.3-.81,.3-1.3s-.1-.93-.3-1.3Z"/><path class="cls-1" d="M102.47,26.03c.36-.21,.79-.31,1.3-.31v1.13h-.29c-1.22,0-1.84,.66-1.84,1.99v3.58h-1.09v-6.58h1.09v1.07c.19-.38,.47-.67,.82-.88Z"/><path class="cls-1" d="M105.03,27.33c.27-.51,.65-.9,1.12-1.18,.48-.28,1.01-.42,1.59-.42s1.08,.12,1.5,.37c.42,.25,.74,.56,.95,.94v-1.2h1.1v6.58h-1.1v-1.22c-.22,.38-.54,.7-.97,.95-.43,.25-.93,.38-1.49,.38s-1.11-.14-1.58-.43c-.47-.29-.84-.69-1.12-1.21s-.41-1.11-.41-1.78,.14-1.26,.41-1.77Zm4.86,.49c-.2-.37-.47-.65-.81-.85-.34-.2-.71-.29-1.12-.29s-.78,.1-1.12,.29c-.34,.19-.6,.47-.8,.84-.2,.37-.3,.8-.3,1.3s.1,.94,.3,1.31c.2,.37,.47,.66,.8,.85,.34,.2,.71,.29,1.12,.29s.78-.1,1.12-.29c.34-.2,.61-.48,.81-.85,.2-.37,.3-.81,.3-1.3s-.1-.93-.3-1.3Z"/><path class="cls-1" d="M24.54,40.43c.36-.21,.79-.31,1.3-.31v1.13h-.29c-1.22,0-1.84,.66-1.84,1.99v3.58h-1.09v-6.58h1.09v1.07c.19-.38,.47-.67,.82-.88Z"/><path class="cls-1" d="M33.07,43.93h-5.26c.04,.65,.26,1.15,.67,1.52,.4,.36,.89,.55,1.47,.55,.47,0,.87-.11,1.18-.33,.32-.22,.54-.51,.67-.88h1.18c-.18,.63-.53,1.15-1.06,1.54-.53,.4-1.18,.59-1.97,.59-.62,0-1.18-.14-1.67-.42-.49-.28-.88-.68-1.16-1.19-.28-.52-.42-1.11-.42-1.79s.14-1.28,.41-1.79c.27-.51,.65-.91,1.15-1.18,.49-.28,1.06-.41,1.7-.41s1.18,.14,1.66,.41,.85,.65,1.11,1.12c.26,.48,.39,1.01,.39,1.61,0,.21-.01,.43-.04,.66Zm-1.37-1.96c-.18-.3-.43-.53-.75-.68-.32-.16-.67-.23-1.05-.23-.55,0-1.02,.18-1.41,.53-.39,.35-.61,.84-.67,1.46h4.15c0-.42-.09-.77-.28-1.07Z"/><path class="cls-1" d="M35.51,46.66c-.4-.17-.72-.41-.95-.72-.23-.31-.36-.66-.38-1.06h1.13c.03,.33,.19,.6,.46,.8,.28,.21,.64,.31,1.09,.31,.42,0,.74-.09,.98-.28,.24-.18,.36-.42,.36-.7s-.13-.5-.38-.64c-.26-.14-.65-.28-1.19-.41-.49-.13-.89-.26-1.19-.39-.31-.13-.57-.33-.79-.59-.22-.26-.33-.6-.33-1.03,0-.34,.1-.64,.3-.92,.2-.28,.48-.5,.85-.67,.37-.16,.79-.25,1.26-.25,.73,0,1.32,.18,1.76,.55,.45,.37,.69,.87,.72,1.51h-1.09c-.02-.34-.16-.62-.41-.83-.25-.21-.59-.31-1.01-.31-.39,0-.7,.08-.94,.25-.23,.17-.35,.39-.35,.66,0,.22,.07,.39,.21,.53,.14,.14,.32,.25,.53,.34s.51,.18,.88,.28c.47,.13,.86,.25,1.15,.38s.55,.31,.76,.56,.32,.57,.33,.97c0,.36-.1,.68-.3,.97-.2,.29-.48,.51-.85,.68-.36,.16-.78,.25-1.25,.25-.5,0-.96-.09-1.36-.26Z"/><path class="cls-1" d="M42.86,40.51c.43-.25,.93-.38,1.49-.38s1.11,.14,1.59,.42c.48,.28,.85,.67,1.12,1.18,.27,.51,.41,1.1,.41,1.77s-.14,1.26-.41,1.78c-.27,.52-.65,.92-1.12,1.21s-1.01,.43-1.59,.43-1.05-.13-1.48-.38c-.43-.25-.75-.57-.98-.94v4.33h-1.09v-9.7h1.09v1.21c.22-.38,.54-.69,.97-.94Zm3.2,1.7c-.2-.37-.47-.65-.81-.84-.34-.19-.71-.29-1.12-.29s-.77,.1-1.11,.29c-.34,.2-.61,.48-.82,.85-.2,.37-.31,.8-.31,1.29s.1,.93,.31,1.3c.2,.37,.48,.66,.82,.85,.34,.2,.71,.29,1.11,.29s.78-.1,1.12-.29c.34-.2,.61-.48,.81-.85,.2-.37,.3-.81,.3-1.31s-.1-.93-.3-1.3Z"/><path class="cls-1" d="M50.11,46.5c-.5-.28-.89-.68-1.18-1.19-.28-.52-.43-1.11-.43-1.79s.15-1.27,.44-1.78,.69-.91,1.19-1.19,1.07-.41,1.69-.41,1.19,.14,1.69,.41c.5,.28,.9,.67,1.19,1.18,.29,.51,.44,1.11,.44,1.79s-.15,1.28-.45,1.79c-.3,.52-.71,.91-1.22,1.19-.51,.28-1.08,.42-1.7,.42s-1.17-.14-1.67-.42Zm2.78-.82c.34-.18,.62-.46,.83-.83,.21-.37,.32-.82,.32-1.34s-.1-.98-.31-1.34c-.21-.37-.48-.64-.82-.82-.34-.18-.7-.27-1.09-.27s-.77,.09-1.1,.27c-.33,.18-.6,.45-.8,.82-.2,.37-.3,.82-.3,1.34s.1,.99,.29,1.36c.2,.37,.46,.64,.79,.82s.69,.27,1.08,.27,.76-.09,1.1-.28Z"/><path class="cls-1" d="M61.75,40.84c.5,.48,.74,1.18,.74,2.09v3.88h-1.08v-3.72c0-.66-.16-1.16-.49-1.51-.33-.35-.78-.52-1.34-.52s-1.03,.18-1.37,.54-.51,.88-.51,1.57v3.64h-1.09v-6.58h1.09v.94c.22-.34,.51-.6,.88-.78s.78-.28,1.23-.28c.8,0,1.45,.24,1.94,.73Z"/><path class="cls-1" d="M65.25,46.66c-.4-.17-.72-.41-.95-.72-.23-.31-.36-.66-.38-1.06h1.13c.03,.33,.19,.6,.46,.8,.28,.21,.64,.31,1.09,.31,.42,0,.74-.09,.98-.28,.24-.18,.36-.42,.36-.7s-.13-.5-.38-.64c-.26-.14-.65-.28-1.19-.41-.49-.13-.89-.26-1.19-.39-.31-.13-.57-.33-.79-.59-.22-.26-.33-.6-.33-1.03,0-.34,.1-.64,.3-.92,.2-.28,.48-.5,.85-.67,.37-.16,.79-.25,1.26-.25,.73,0,1.32,.18,1.76,.55,.45,.37,.69,.87,.72,1.51h-1.09c-.02-.34-.16-.62-.41-.83-.25-.21-.59-.31-1.01-.31-.39,0-.7,.08-.94,.25-.23,.17-.35,.39-.35,.66,0,.22,.07,.39,.21,.53,.14,.14,.32,.25,.53,.34s.51,.18,.88,.28c.47,.13,.86,.25,1.15,.38s.55,.31,.76,.56,.32,.57,.33,.97c0,.36-.1,.68-.3,.97-.2,.29-.48,.51-.85,.68-.36,.16-.78,.25-1.25,.25-.5,0-.96-.09-1.36-.26Z"/><path class="cls-1" d="M70.54,41.73c.27-.51,.65-.9,1.12-1.18,.48-.28,1.01-.42,1.59-.42s1.08,.12,1.5,.37c.42,.25,.74,.56,.95,.94v-1.2h1.1v6.58h-1.1v-1.22c-.22,.38-.54,.7-.97,.95-.43,.25-.93,.38-1.49,.38s-1.11-.14-1.58-.43c-.47-.29-.84-.69-1.12-1.21-.27-.52-.41-1.11-.41-1.78s.14-1.26,.41-1.77Zm4.86,.49c-.2-.37-.47-.65-.81-.85-.34-.2-.71-.29-1.12-.29s-.78,.1-1.12,.29c-.34,.19-.6,.47-.8,.84-.2,.37-.3,.8-.3,1.3s.1,.94,.3,1.31c.2,.37,.47,.66,.8,.85,.34,.2,.71,.29,1.12,.29s.78-.1,1.12-.29c.34-.2,.61-.48,.81-.85,.2-.37,.3-.81,.3-1.3s-.1-.93-.3-1.3Z"/><path class="cls-1" d="M80.73,40.5c.43-.25,.92-.37,1.48-.37,.59,0,1.12,.14,1.6,.42,.47,.28,.84,.67,1.12,1.18,.27,.51,.41,1.1,.41,1.77s-.14,1.26-.41,1.78c-.27,.52-.65,.92-1.12,1.21s-1.01,.43-1.59,.43-1.07-.12-1.49-.37c-.43-.25-.75-.56-.97-.95v1.21h-1.09v-8.88h1.09v3.53c.22-.39,.55-.71,.98-.96Zm3.18,1.7c-.2-.37-.47-.65-.81-.84-.34-.19-.71-.29-1.12-.29s-.77,.1-1.11,.29c-.34,.2-.61,.48-.82,.85-.2,.37-.31,.8-.31,1.29s.1,.93,.31,1.3c.2,.37,.48,.66,.82,.85,.34,.2,.71,.29,1.11,.29s.78-.1,1.12-.29c.34-.2,.61-.48,.81-.85,.2-.37,.3-.81,.3-1.31s-.1-.93-.3-1.3Z"/><path class="cls-1" d="M86.8,38.95c-.14-.14-.22-.32-.22-.53s.07-.38,.22-.53,.32-.22,.53-.22,.37,.07,.51,.22c.14,.14,.21,.32,.21,.53s-.07,.38-.21,.53c-.14,.14-.31,.22-.51,.22s-.38-.07-.53-.22Zm1.06,1.28v6.58h-1.09v-6.58h1.09Z"/><path class="cls-1" d="M90.81,37.93v8.88h-1.09v-8.88h1.09Z"/><path class="cls-1" d="M92.7,38.95c-.14-.14-.22-.32-.22-.53s.07-.38,.22-.53,.32-.22,.53-.22,.37,.07,.51,.22c.14,.14,.21,.32,.21,.53s-.07,.38-.21,.53c-.14,.14-.31,.22-.51,.22s-.38-.07-.53-.22Zm1.06,1.28v6.58h-1.09v-6.58h1.09Z"/><path class="cls-1" d="M96.44,45.91h3.23v.9h-4.48v-.9l3.19-4.79h-3.17v-.89h4.43v.89l-3.2,4.79Z"/><path class="cls-1" d="M101.08,41.73c.27-.51,.65-.9,1.12-1.18,.48-.28,1.01-.42,1.59-.42s1.08,.12,1.5,.37c.42,.25,.74,.56,.95,.94v-1.2h1.1v6.58h-1.1v-1.22c-.22,.38-.54,.7-.97,.95-.43,.25-.93,.38-1.49,.38s-1.11-.14-1.58-.43c-.47-.29-.84-.69-1.12-1.21-.27-.52-.41-1.11-.41-1.78s.14-1.26,.41-1.77Zm4.86,.49c-.2-.37-.47-.65-.81-.85-.34-.2-.71-.29-1.12-.29s-.78,.1-1.12,.29c-.34,.19-.6,.47-.8,.84-.2,.37-.3,.8-.3,1.3s.1,.94,.3,1.31c.2,.37,.47,.66,.8,.85,.34,.2,.71,.29,1.12,.29s.78-.1,1.12-.29c.34-.2,.61-.48,.81-.85,.2-.37,.3-.81,.3-1.3s-.1-.93-.3-1.3Z"/><path class="cls-1" d="M113.19,45.66c.32-.22,.54-.54,.66-.96h1.18c-.16,.62-.47,1.13-.94,1.53-.47,.4-1.05,.62-1.76,.68v.6c.47,0,.85,.09,1.13,.3,.28,.21,.42,.5,.42,.89s-.14,.68-.41,.9c-.27,.22-.62,.34-1.06,.34h-1.38v-.71h1.16c.26,0,.46-.04,.58-.12s.19-.22,.19-.41-.06-.32-.19-.4-.32-.12-.58-.12h-.6v-1.28c-.55-.06-1.04-.23-1.46-.52-.42-.29-.75-.68-.99-1.18-.24-.49-.35-1.05-.35-1.69,0-.68,.14-1.27,.41-1.78,.27-.51,.65-.9,1.13-1.18,.48-.28,1.04-.42,1.66-.42,.81,0,1.47,.2,2,.59,.52,.39,.87,.94,1.04,1.63h-1.18c-.11-.4-.33-.72-.65-.95-.32-.23-.73-.35-1.21-.35-.62,0-1.13,.21-1.51,.64-.38,.43-.58,1.03-.58,1.82s.19,1.4,.58,1.84,.89,.65,1.51,.65c.48,0,.88-.11,1.2-.33Z"/><path class="cls-1" d="M116.48,41.73c.27-.51,.65-.9,1.12-1.18,.48-.28,1.01-.42,1.59-.42s1.08,.12,1.5,.37c.42,.25,.74,.56,.95,.94v-1.2h1.1v6.58h-1.1v-1.22c-.22,.38-.54,.7-.97,.95-.43,.25-.93,.38-1.49,.38s-1.11-.14-1.58-.43c-.47-.29-.84-.69-1.12-1.21-.27-.52-.41-1.11-.41-1.78s.14-1.26,.41-1.77Zm4.86,.49c-.2-.37-.47-.65-.81-.85-.34-.2-.71-.29-1.12-.29s-.78,.1-1.12,.29c-.34,.19-.6,.47-.8,.84-.2,.37-.3,.8-.3,1.3s.1,.94,.3,1.31c.2,.37,.47,.66,.8,.85,.34,.2,.71,.29,1.12,.29s.78-.1,1.12-.29c.34-.2,.61-.48,.81-.85,.2-.37,.3-.81,.3-1.3s-.1-.93-.3-1.3Zm-3.08-3.62c.21-.22,.48-.32,.8-.32,.15,0,.28,.03,.39,.08,.11,.05,.24,.13,.39,.22,.11,.08,.21,.14,.3,.19s.18,.07,.29,.07c.14,0,.25-.04,.35-.13,.1-.09,.16-.22,.18-.38h.62c-.05,.4-.18,.71-.4,.92-.22,.22-.48,.32-.8,.32-.15,0-.29-.03-.4-.08-.12-.05-.25-.13-.39-.23-.13-.08-.23-.14-.31-.18-.08-.04-.17-.06-.27-.06-.14,0-.25,.04-.34,.13-.09,.09-.15,.22-.17,.4h-.64c.06-.41,.19-.72,.4-.94Z"/><path class="cls-1" d="M125.78,46.5c-.5-.28-.89-.68-1.18-1.19-.28-.52-.43-1.11-.43-1.79s.15-1.27,.44-1.78,.69-.91,1.19-1.19,1.07-.41,1.69-.41,1.19,.14,1.69,.41c.5,.28,.9,.67,1.19,1.18,.29,.51,.44,1.11,.44,1.79s-.15,1.28-.45,1.79c-.3,.52-.71,.91-1.22,1.19-.51,.28-1.08,.42-1.7,.42s-1.17-.14-1.67-.42Zm2.78-.82c.34-.18,.62-.46,.83-.83,.21-.37,.32-.82,.32-1.34s-.1-.98-.31-1.34c-.21-.37-.48-.64-.82-.82-.34-.18-.7-.27-1.09-.27s-.77,.09-1.1,.27c-.33,.18-.6,.45-.8,.82-.2,.37-.3,.82-.3,1.34s.1,.99,.29,1.36c.2,.37,.46,.64,.79,.82s.69,.27,1.08,.27,.76-.09,1.1-.28Z"/><path class="cls-1" d="M28.59,58.33h-5.26c.04,.65,.26,1.15,.67,1.52,.4,.36,.89,.55,1.47,.55,.47,0,.87-.11,1.18-.33,.32-.22,.54-.51,.67-.88h1.18c-.18,.63-.53,1.15-1.06,1.54-.53,.4-1.18,.59-1.97,.59-.62,0-1.18-.14-1.67-.42-.49-.28-.88-.68-1.16-1.19-.28-.52-.42-1.11-.42-1.79s.14-1.28,.41-1.79,.65-.91,1.15-1.18c.49-.28,1.06-.41,1.7-.41s1.18,.14,1.66,.41c.48,.27,.85,.65,1.11,1.12,.26,.48,.39,1.01,.39,1.61,0,.21-.01,.43-.04,.66Zm-1.37-1.96c-.18-.3-.43-.53-.75-.68-.32-.16-.67-.23-1.05-.23-.55,0-1.02,.18-1.41,.53-.39,.35-.61,.84-.67,1.46h4.15c0-.42-.09-.77-.28-1.07Z"/><path class="cls-1" d="M35.72,60.21l2.04-5.57h1.16l-2.58,6.58h-1.27l-2.58-6.58h1.18l2.05,5.57Z"/><path class="cls-1" d="M41.72,52.78l-2.56,1.37v-.82l2.56-1.5v.95Zm-.62,1.86v6.58h-1.09v-6.58h1.09Z"/><path class="cls-1" d="M48.1,55.24c.5,.48,.74,1.18,.74,2.09v3.88h-1.08v-3.72c0-.66-.16-1.16-.49-1.51-.33-.35-.78-.52-1.34-.52s-1.03,.18-1.37,.54-.51,.88-.51,1.57v3.64h-1.09v-6.58h1.09v.94c.22-.34,.51-.6,.88-.78s.78-.28,1.23-.28c.8,0,1.45,.24,1.94,.73Z"/><path class="cls-1" d="M50.63,56.13c.27-.51,.65-.9,1.13-1.18,.48-.28,1.04-.42,1.66-.42,.81,0,1.47,.2,2,.59,.52,.39,.87,.94,1.04,1.63h-1.18c-.11-.4-.33-.72-.65-.95-.32-.23-.73-.35-1.21-.35-.62,0-1.13,.21-1.51,.64-.38,.43-.58,1.03-.58,1.82s.19,1.4,.58,1.84c.38,.43,.89,.65,1.51,.65,.48,0,.88-.11,1.2-.34,.32-.22,.54-.54,.66-.96h1.18c-.18,.67-.53,1.21-1.06,1.61-.53,.4-1.19,.61-1.98,.61-.62,0-1.18-.14-1.66-.42-.48-.28-.86-.68-1.13-1.19s-.41-1.11-.41-1.8,.14-1.27,.41-1.78Z"/><path class="cls-1" d="M63.75,54.64v6.58h-1.09v-.97c-.21,.34-.5,.6-.87,.79-.37,.19-.78,.28-1.23,.28-.51,0-.97-.11-1.38-.32-.41-.21-.73-.53-.97-.95-.24-.42-.35-.94-.35-1.55v-3.85h1.08v3.71c0,.65,.16,1.15,.49,1.49s.78,.52,1.34,.52,1.04-.18,1.38-.54c.34-.36,.5-.88,.5-1.57v-3.61h1.09Z"/><path class="cls-1" d="M66.69,52.33v8.88h-1.09v-8.88h1.09Z"/><path class="cls-1" d="M69.74,60.9c-.5-.28-.89-.68-1.18-1.19-.28-.52-.43-1.11-.43-1.79s.15-1.27,.44-1.78,.69-.91,1.19-1.19c.5-.28,1.07-.41,1.69-.41s1.19,.14,1.69,.41c.5,.28,.9,.67,1.19,1.18s.44,1.11,.44,1.79-.15,1.28-.45,1.79c-.3,.52-.71,.91-1.22,1.19-.51,.28-1.08,.42-1.7,.42s-1.17-.14-1.67-.42Zm2.78-.82c.34-.18,.62-.46,.83-.83s.32-.82,.32-1.34-.1-.98-.31-1.34c-.21-.37-.48-.64-.82-.82-.34-.18-.7-.27-1.09-.27s-.77,.09-1.1,.27c-.33,.18-.6,.45-.8,.82-.2,.37-.3,.82-.3,1.34s.1,.99,.29,1.36c.2,.37,.46,.64,.79,.82s.69,.27,1.08,.27,.76-.09,1.1-.28Z"/><path class="cls-1" d="M85.4,58.33h-5.26c.04,.65,.26,1.15,.67,1.52,.4,.36,.89,.55,1.47,.55,.47,0,.87-.11,1.18-.33,.32-.22,.54-.51,.67-.88h1.18c-.18,.63-.53,1.15-1.06,1.54-.53,.4-1.18,.59-1.97,.59-.62,0-1.18-.14-1.67-.42-.49-.28-.88-.68-1.16-1.19-.28-.52-.42-1.11-.42-1.79s.14-1.28,.41-1.79,.65-.91,1.15-1.18c.49-.28,1.06-.41,1.7-.41s1.18,.14,1.66,.41c.48,.27,.85,.65,1.11,1.12,.26,.48,.39,1.01,.39,1.61,0,.21-.01,.43-.04,.66Zm-1.37-1.96c-.18-.3-.43-.53-.75-.68-.32-.16-.67-.23-1.05-.23-.55,0-1.02,.18-1.41,.53-.39,.35-.61,.84-.67,1.46h4.15c0-.42-.09-.77-.28-1.07Z"/><path class="cls-1" d="M92.02,55.24c.5,.48,.74,1.18,.74,2.09v3.88h-1.08v-3.72c0-.66-.16-1.16-.49-1.51-.33-.35-.78-.52-1.34-.52s-1.03,.18-1.37,.54-.51,.88-.51,1.57v3.64h-1.09v-6.58h1.09v.94c.22-.34,.51-.6,.88-.78s.78-.28,1.23-.28c.8,0,1.45,.24,1.94,.73Z"/><path class="cls-1" d="M95.89,55.54v3.88c0,.32,.07,.55,.2,.68,.14,.13,.37,.2,.71,.2h.8v.92h-.98c-.61,0-1.06-.14-1.37-.42-.3-.28-.46-.74-.46-1.38v-3.88h-.85v-.9h.85v-1.66h1.09v1.66h1.72v.9h-1.72Z"/><path class="cls-1" d="M100.84,54.83c.36-.21,.79-.31,1.3-.31v1.13h-.29c-1.22,0-1.84,.66-1.84,1.99v3.58h-1.09v-6.58h1.09v1.07c.19-.38,.47-.67,.82-.88Z"/><path class="cls-1" d="M109.36,58.33h-5.26c.04,.65,.26,1.15,.67,1.52,.4,.36,.89,.55,1.47,.55,.47,0,.87-.11,1.18-.33,.32-.22,.54-.51,.67-.88h1.18c-.18,.63-.53,1.15-1.06,1.54-.53,.4-1.18,.59-1.97,.59-.62,0-1.18-.14-1.67-.42-.49-.28-.88-.68-1.16-1.19-.28-.52-.42-1.11-.42-1.79s.14-1.28,.41-1.79,.65-.91,1.15-1.18c.49-.28,1.06-.41,1.7-.41s1.18,.14,1.66,.41c.48,.27,.85,.65,1.11,1.12,.26,.48,.39,1.01,.39,1.61,0,.21-.01,.43-.04,.66Zm-1.37-1.96c-.18-.3-.43-.53-.75-.68-.32-.16-.67-.23-1.05-.23-.55,0-1.02,.18-1.41,.53-.39,.35-.61,.84-.67,1.46h4.15c0-.42-.09-.77-.28-1.07Z"/><path class="cls-1" d="M24.68,69.31c.43-.25,.93-.38,1.49-.38s1.11,.14,1.59,.42,.85,.67,1.12,1.18,.41,1.1,.41,1.77-.14,1.26-.41,1.78c-.27,.52-.65,.92-1.12,1.21s-1.01,.43-1.59,.43-1.05-.13-1.48-.38c-.43-.25-.75-.57-.98-.94v4.33h-1.09v-9.7h1.09v1.21c.22-.38,.54-.69,.97-.94Zm3.2,1.7c-.2-.37-.47-.65-.81-.84-.34-.19-.71-.29-1.12-.29s-.77,.1-1.11,.29c-.34,.2-.61,.48-.82,.85-.2,.37-.31,.8-.31,1.29s.1,.93,.31,1.3c.2,.37,.48,.66,.82,.85,.34,.2,.71,.29,1.11,.29s.78-.1,1.12-.29c.34-.2,.61-.48,.81-.85,.2-.37,.3-.81,.3-1.31s-.1-.93-.3-1.3Z"/><path class="cls-1" d="M32.65,69.23c.36-.21,.79-.31,1.3-.31v1.13h-.29c-1.22,0-1.84,.66-1.84,1.99v3.58h-1.09v-6.58h1.09v1.07c.19-.38,.47-.67,.82-.88Z"/><path class="cls-1" d="M36.41,75.3c-.5-.28-.89-.68-1.18-1.19-.28-.52-.43-1.11-.43-1.79s.15-1.27,.44-1.78,.69-.91,1.19-1.19c.5-.28,1.07-.41,1.69-.41s1.19,.14,1.69,.41c.5,.28,.9,.67,1.19,1.18s.44,1.11,.44,1.79-.15,1.28-.45,1.79c-.3,.52-.71,.91-1.22,1.19-.51,.28-1.08,.42-1.7,.42s-1.17-.14-1.67-.42Zm2.78-.82c.34-.18,.62-.46,.83-.83s.32-.82,.32-1.34-.1-.98-.31-1.34c-.21-.37-.48-.64-.82-.82-.34-.18-.7-.27-1.09-.27s-.77,.09-1.1,.27c-.33,.18-.6,.45-.8,.82-.2,.37-.3,.82-.3,1.34s.1,.99,.29,1.36c.2,.37,.46,.64,.79,.82s.69,.27,1.08,.27,.76-.09,1.1-.28Z"/><path class="cls-1" d="M45.57,69.94h-1.38v5.68h-1.09v-5.68h-.85v-.9h.85v-.47c0-.74,.19-1.27,.57-1.61,.38-.34,.99-.51,1.83-.51v.91c-.48,0-.82,.09-1.01,.28-.2,.19-.29,.5-.29,.93v.47h1.38v.9Z"/><path class="cls-1" d="M46.88,67.75c-.14-.14-.22-.32-.22-.53s.07-.38,.22-.53,.32-.22,.53-.22,.37,.07,.51,.22c.14,.14,.21,.32,.21,.53s-.07,.38-.21,.53c-.14,.14-.31,.22-.51,.22s-.38-.07-.53-.22Zm1.06,1.28v6.58h-1.09v-6.58h1.09Z"/><path class="cls-1" d="M50.76,75.46c-.4-.17-.72-.41-.95-.72-.23-.31-.36-.66-.38-1.06h1.13c.03,.33,.19,.6,.46,.8,.28,.21,.64,.31,1.09,.31,.42,0,.74-.09,.98-.28,.24-.18,.36-.42,.36-.7s-.13-.5-.38-.64c-.26-.14-.65-.28-1.19-.41-.49-.13-.89-.26-1.19-.39-.31-.13-.57-.33-.79-.59-.22-.26-.33-.6-.33-1.03,0-.34,.1-.64,.3-.92,.2-.28,.48-.5,.85-.67,.37-.16,.79-.25,1.26-.25,.73,0,1.32,.18,1.76,.55,.45,.37,.69,.87,.72,1.51h-1.09c-.02-.34-.16-.62-.41-.83s-.59-.31-1.01-.31c-.39,0-.7,.08-.94,.25-.23,.17-.35,.39-.35,.66,0,.22,.07,.39,.21,.53,.14,.14,.32,.25,.53,.34s.51,.18,.88,.28c.47,.13,.86,.25,1.15,.38s.55,.31,.76,.56,.32,.57,.33,.97c0,.36-.1,.68-.3,.97-.2,.29-.48,.51-.85,.68-.36,.16-.78,.25-1.25,.25-.5,0-.96-.09-1.36-.26Z"/><path class="cls-1" d="M57.03,75.46c-.4-.17-.72-.41-.95-.72-.23-.31-.36-.66-.38-1.06h1.13c.03,.33,.19,.6,.46,.8,.28,.21,.64,.31,1.09,.31,.42,0,.74-.09,.98-.28,.24-.18,.36-.42,.36-.7s-.13-.5-.38-.64c-.26-.14-.65-.28-1.19-.41-.49-.13-.89-.26-1.19-.39-.31-.13-.57-.33-.79-.59-.22-.26-.33-.6-.33-1.03,0-.34,.1-.64,.3-.92,.2-.28,.48-.5,.85-.67,.37-.16,.79-.25,1.26-.25,.73,0,1.32,.18,1.76,.55,.45,.37,.69,.87,.72,1.51h-1.09c-.02-.34-.16-.62-.41-.83s-.59-.31-1.01-.31c-.39,0-.7,.08-.94,.25-.23,.17-.35,.39-.35,.66,0,.22,.07,.39,.21,.53,.14,.14,.32,.25,.53,.34s.51,.18,.88,.28c.47,.13,.86,.25,1.15,.38s.55,.31,.76,.56,.32,.57,.33,.97c0,.36-.1,.68-.3,.97-.2,.29-.48,.51-.85,.68-.36,.16-.78,.25-1.25,.25-.5,0-.96-.09-1.36-.26Z"/><path class="cls-1" d="M62.36,67.75c-.14-.14-.22-.32-.22-.53s.07-.38,.22-.53,.32-.22,.53-.22,.37,.07,.51,.22c.14,.14,.21,.32,.21,.53s-.07,.38-.21,.53c-.14,.14-.31,.22-.51,.22s-.38-.07-.53-.22Zm1.06,1.28v6.58h-1.09v-6.58h1.09Z"/><path class="cls-1" d="M66.47,75.3c-.5-.28-.89-.68-1.18-1.19-.28-.52-.43-1.11-.43-1.79s.15-1.27,.44-1.78,.69-.91,1.19-1.19c.5-.28,1.07-.41,1.69-.41s1.19,.14,1.69,.41c.5,.28,.9,.67,1.19,1.18s.44,1.11,.44,1.79-.15,1.28-.45,1.79c-.3,.52-.71,.91-1.22,1.19-.51,.28-1.08,.42-1.7,.42s-1.17-.14-1.67-.42Zm2.78-.82c.34-.18,.62-.46,.83-.83s.32-.82,.32-1.34-.1-.98-.31-1.34c-.21-.37-.48-.64-.82-.82-.34-.18-.7-.27-1.09-.27s-.77,.09-1.1,.27c-.33,.18-.6,.45-.8,.82-.2,.37-.3,.82-.3,1.34s.1,.99,.29,1.36c.2,.37,.46,.64,.79,.82s.69,.27,1.08,.27,.76-.09,1.1-.28Z"/><path class="cls-1" d="M78.1,69.64c.5,.48,.74,1.18,.74,2.09v3.88h-1.08v-3.72c0-.66-.16-1.16-.49-1.51-.33-.35-.78-.52-1.34-.52s-1.03,.18-1.37,.54-.51,.88-.51,1.57v3.64h-1.09v-6.58h1.09v.94c.22-.34,.51-.6,.88-.78s.78-.28,1.23-.28c.8,0,1.45,.24,1.94,.73Z"/><path class="cls-1" d="M80.63,70.53c.27-.51,.65-.9,1.12-1.18s1.01-.42,1.59-.42,1.08,.12,1.5,.37c.42,.25,.74,.56,.95,.94v-1.2h1.1v6.58h-1.1v-1.22c-.22,.38-.54,.7-.97,.95-.43,.25-.93,.38-1.49,.38s-1.11-.14-1.58-.43c-.47-.29-.84-.69-1.12-1.21-.27-.52-.41-1.11-.41-1.78s.14-1.26,.41-1.77Zm4.86,.49c-.2-.37-.47-.65-.81-.85-.34-.2-.71-.29-1.12-.29s-.78,.1-1.12,.29c-.34,.19-.6,.47-.8,.84-.2,.37-.3,.8-.3,1.3s.1,.94,.3,1.31c.2,.37,.47,.66,.8,.85,.34,.2,.71,.29,1.12,.29s.78-.1,1.12-.29c.34-.2,.61-.48,.81-.85,.2-.37,.3-.81,.3-1.3s-.1-.93-.3-1.3Z"/><path class="cls-1" d="M88.78,67.75c-.14-.14-.22-.32-.22-.53s.07-.38,.22-.53,.32-.22,.53-.22,.37,.07,.51,.22c.14,.14,.21,.32,.21,.53s-.07,.38-.21,.53c-.14,.14-.31,.22-.51,.22s-.38-.07-.53-.22Zm1.06,1.28v6.58h-1.09v-6.58h1.09Z"/><path class="cls-1" d="M92.67,75.46c-.4-.17-.72-.41-.95-.72-.23-.31-.36-.66-.38-1.06h1.13c.03,.33,.19,.6,.46,.8,.28,.21,.64,.31,1.09,.31,.42,0,.74-.09,.98-.28,.24-.18,.36-.42,.36-.7s-.13-.5-.38-.64c-.26-.14-.65-.28-1.19-.41-.49-.13-.89-.26-1.19-.39-.31-.13-.57-.33-.79-.59-.22-.26-.33-.6-.33-1.03,0-.34,.1-.64,.3-.92,.2-.28,.48-.5,.85-.67,.37-.16,.79-.25,1.26-.25,.73,0,1.32,.18,1.76,.55,.45,.37,.69,.87,.72,1.51h-1.09c-.02-.34-.16-.62-.41-.83s-.59-.31-1.01-.31c-.39,0-.7,.08-.94,.25-.23,.17-.35,.39-.35,.66,0,.22,.07,.39,.21,.53,.14,.14,.32,.25,.53,.34s.51,.18,.88,.28c.47,.13,.86,.25,1.15,.38s.55,.31,.76,.56,.32,.57,.33,.97c0,.36-.1,.68-.3,.97-.2,.29-.48,.51-.85,.68-.36,.16-.78,.25-1.25,.25-.5,0-.96-.09-1.36-.26Z"/><path class="cls-1" d="M101.16,70.53c.27-.51,.65-.9,1.12-1.18s1.01-.42,1.6-.42c.51,0,.99,.12,1.43,.35,.44,.24,.78,.55,1.01,.93v-3.48h1.1v8.88h-1.1v-1.24c-.22,.39-.54,.71-.96,.97-.42,.25-.92,.38-1.49,.38s-1.11-.14-1.59-.43-.85-.69-1.12-1.21c-.27-.52-.41-1.11-.41-1.78s.14-1.26,.41-1.77Zm4.86,.49c-.2-.37-.47-.65-.81-.85-.34-.2-.71-.29-1.12-.29s-.78,.1-1.12,.29c-.34,.19-.6,.47-.8,.84-.2,.37-.3,.8-.3,1.3s.1,.94,.3,1.31c.2,.37,.47,.66,.8,.85,.34,.2,.71,.29,1.12,.29s.78-.1,1.12-.29c.34-.2,.61-.48,.81-.85,.2-.37,.3-.81,.3-1.3s-.1-.93-.3-1.3Z"/><path class="cls-1" d="M115.24,72.73h-5.26c.04,.65,.26,1.15,.67,1.52,.4,.36,.89,.55,1.47,.55,.47,0,.87-.11,1.18-.33,.32-.22,.54-.51,.67-.88h1.18c-.18,.63-.53,1.15-1.06,1.54-.53,.4-1.18,.59-1.97,.59-.62,0-1.18-.14-1.67-.42-.49-.28-.88-.68-1.16-1.19-.28-.52-.42-1.11-.42-1.79s.14-1.28,.41-1.79,.65-.91,1.15-1.18c.49-.28,1.06-.41,1.7-.41s1.18,.14,1.66,.41c.48,.27,.85,.65,1.11,1.12,.26,.48,.39,1.01,.39,1.61,0,.21-.01,.43-.04,.66Zm-1.37-1.96c-.18-.3-.43-.53-.75-.68-.32-.16-.67-.23-1.05-.23-.55,0-1.02,.18-1.41,.53-.39,.35-.61,.84-.67,1.46h4.15c0-.42-.09-.77-.28-1.07Z"/><path class="cls-1" d="M120.89,75.46c-.4-.17-.72-.41-.95-.72-.23-.31-.36-.66-.38-1.06h1.13c.03,.33,.19,.6,.46,.8,.28,.21,.64,.31,1.09,.31,.42,0,.74-.09,.98-.28,.24-.18,.36-.42,.36-.7s-.13-.5-.38-.64c-.26-.14-.65-.28-1.19-.41-.49-.13-.89-.26-1.19-.39-.31-.13-.57-.33-.79-.59-.22-.26-.33-.6-.33-1.03,0-.34,.1-.64,.3-.92,.2-.28,.48-.5,.85-.67,.37-.16,.79-.25,1.26-.25,.73,0,1.32,.18,1.76,.55,.45,.37,.69,.87,.72,1.51h-1.09c-.02-.34-.16-.62-.41-.83s-.59-.31-1.01-.31c-.39,0-.7,.08-.94,.25-.23,.17-.35,.39-.35,.66,0,.22,.07,.39,.21,.53,.14,.14,.32,.25,.53,.34s.51,.18,.88,.28c.47,.13,.86,.25,1.15,.38s.55,.31,.76,.56,.32,.57,.33,.97c0,.36-.1,.68-.3,.97-.2,.29-.48,.51-.85,.68-.36,.16-.78,.25-1.25,.25-.5,0-.96-.09-1.36-.26Z"/><path class="cls-1" d="M126.18,70.53c.27-.51,.65-.9,1.12-1.18s1.01-.42,1.59-.42,1.08,.12,1.5,.37c.42,.25,.74,.56,.95,.94v-1.2h1.1v6.58h-1.1v-1.22c-.22,.38-.54,.7-.97,.95-.43,.25-.93,.38-1.49,.38s-1.11-.14-1.58-.43c-.47-.29-.84-.69-1.12-1.21-.27-.52-.41-1.11-.41-1.78s.14-1.26,.41-1.77Zm4.86,.49c-.2-.37-.47-.65-.81-.85-.34-.2-.71-.29-1.12-.29s-.78,.1-1.12,.29c-.34,.19-.6,.47-.8,.84-.2,.37-.3,.8-.3,1.3s.1,.94,.3,1.31c.2,.37,.47,.66,.8,.85,.34,.2,.71,.29,1.12,.29s.78-.1,1.12-.29c.34-.2,.61-.48,.81-.85,.2-.37,.3-.81,.3-1.3s-.1-.93-.3-1.3Z"/><path class="cls-1" d="M140.13,69.04v6.58h-1.09v-.97c-.21,.34-.5,.6-.87,.79-.37,.19-.78,.28-1.23,.28-.51,0-.97-.11-1.38-.32-.41-.21-.73-.53-.97-.95-.24-.42-.35-.94-.35-1.55v-3.85h1.08v3.71c0,.65,.16,1.15,.49,1.49s.78,.52,1.34,.52,1.04-.18,1.38-.54c.34-.36,.5-.88,.5-1.57v-3.61h1.09Zm-1.74-1.86l-2.56,1.37v-.82l2.56-1.5v.95Z"/><path class="cls-1" d="M141.97,70.53c.27-.51,.65-.9,1.12-1.18s1.01-.42,1.6-.42c.51,0,.99,.12,1.43,.35,.44,.24,.78,.55,1.01,.93v-3.48h1.1v8.88h-1.1v-1.24c-.22,.39-.54,.71-.96,.97-.42,.25-.92,.38-1.49,.38s-1.11-.14-1.59-.43-.85-.69-1.12-1.21c-.27-.52-.41-1.11-.41-1.78s.14-1.26,.41-1.77Zm4.86,.49c-.2-.37-.47-.65-.81-.85-.34-.2-.71-.29-1.12-.29s-.78,.1-1.12,.29c-.34,.19-.6,.47-.8,.84-.2,.37-.3,.8-.3,1.3s.1,.94,.3,1.31c.2,.37,.47,.66,.8,.85,.34,.2,.71,.29,1.12,.29s.78-.1,1.12-.29c.34-.2,.61-.48,.81-.85,.2-.37,.3-.81,.3-1.3s-.1-.93-.3-1.3Z"/><path class="cls-1" d="M156.05,72.73h-5.26c.04,.65,.26,1.15,.67,1.52,.4,.36,.89,.55,1.47,.55,.47,0,.87-.11,1.18-.33,.32-.22,.54-.51,.67-.88h1.18c-.18,.63-.53,1.15-1.06,1.54-.53,.4-1.18,.59-1.97,.59-.62,0-1.18-.14-1.67-.42-.49-.28-.88-.68-1.16-1.19-.28-.52-.42-1.11-.42-1.79s.14-1.28,.41-1.79,.65-.91,1.15-1.18c.49-.28,1.06-.41,1.7-.41s1.18,.14,1.66,.41c.48,.27,.85,.65,1.11,1.12,.26,.48,.39,1.01,.39,1.61,0,.21-.01,.43-.04,.66Zm-1.37-1.96c-.18-.3-.43-.53-.75-.68-.32-.16-.67-.23-1.05-.23-.55,0-1.02,.18-1.41,.53-.39,.35-.61,.84-.67,1.46h4.15c0-.42-.09-.77-.28-1.07Z"/><path class="cls-1" d="M28.59,87.13h-5.26c.04,.65,.26,1.15,.67,1.52,.4,.36,.89,.55,1.47,.55,.47,0,.87-.11,1.18-.33,.32-.22,.54-.51,.67-.88h1.18c-.18,.63-.53,1.15-1.06,1.54-.53,.4-1.18,.59-1.97,.59-.62,0-1.18-.14-1.67-.42-.49-.28-.88-.68-1.16-1.19-.28-.52-.42-1.11-.42-1.79s.14-1.28,.41-1.79,.65-.91,1.15-1.18c.49-.28,1.06-.41,1.7-.41s1.18,.14,1.66,.41c.48,.27,.85,.65,1.11,1.12,.26,.48,.39,1.01,.39,1.61,0,.21-.01,.43-.04,.66Zm-1.37-1.96c-.18-.3-.43-.53-.75-.68-.32-.16-.67-.23-1.05-.23-.55,0-1.02,.18-1.41,.53-.39,.35-.61,.84-.67,1.46h4.15c0-.42-.09-.77-.28-1.07Z"/><path class="cls-1" d="M39.1,83.44v6.58h-1.09v-.97c-.21,.34-.5,.6-.87,.79-.37,.19-.78,.28-1.23,.28-.51,0-.97-.11-1.38-.32-.41-.21-.73-.53-.97-.95-.24-.42-.35-.94-.35-1.55v-3.85h1.08v3.71c0,.65,.16,1.15,.49,1.49s.78,.52,1.34,.52,1.04-.18,1.38-.54c.34-.36,.5-.88,.5-1.57v-3.61h1.09Z"/><path class="cls-1" d="M41.92,89.86c-.4-.17-.72-.41-.95-.72-.23-.31-.36-.66-.38-1.06h1.13c.03,.33,.19,.6,.46,.8,.28,.21,.64,.31,1.09,.31,.42,0,.74-.09,.98-.28,.24-.18,.36-.42,.36-.7s-.13-.5-.38-.64c-.26-.14-.65-.28-1.19-.41-.49-.13-.89-.26-1.19-.39-.31-.13-.57-.33-.79-.59-.22-.26-.33-.6-.33-1.03,0-.34,.1-.64,.3-.92,.2-.28,.48-.5,.85-.67,.37-.16,.79-.25,1.26-.25,.73,0,1.32,.18,1.76,.55,.45,.37,.69,.87,.72,1.51h-1.09c-.02-.34-.16-.62-.41-.83s-.59-.31-1.01-.31c-.39,0-.7,.08-.94,.25-.23,.17-.35,.39-.35,.66,0,.22,.07,.39,.21,.53,.14,.14,.32,.25,.53,.34s.51,.18,.88,.28c.47,.13,.86,.25,1.15,.38s.55,.31,.76,.56,.32,.57,.33,.97c0,.36-.1,.68-.3,.97-.2,.29-.48,.51-.85,.68-.36,.16-.78,.25-1.25,.25-.5,0-.96-.09-1.36-.26Z"/><path class="cls-1" d="M53.05,83.44v6.58h-1.09v-.97c-.21,.34-.5,.6-.87,.79-.37,.19-.78,.28-1.23,.28-.51,0-.97-.11-1.38-.32-.41-.21-.73-.53-.97-.95-.24-.42-.35-.94-.35-1.55v-3.85h1.08v3.71c0,.65,.16,1.15,.49,1.49s.78,.52,1.34,.52,1.04-.18,1.38-.54c.34-.36,.5-.88,.5-1.57v-3.61h1.09Z"/><path class="cls-1" d="M54.89,84.93c.27-.51,.65-.9,1.12-1.18s1.01-.42,1.59-.42,1.08,.12,1.5,.37c.42,.25,.74,.56,.95,.94v-1.2h1.1v6.58h-1.1v-1.22c-.22,.38-.54,.7-.97,.95-.43,.25-.93,.38-1.49,.38s-1.11-.14-1.58-.43c-.47-.29-.84-.69-1.12-1.21-.27-.52-.41-1.11-.41-1.78s.14-1.26,.41-1.77Zm4.86,.49c-.2-.37-.47-.65-.81-.85-.34-.2-.71-.29-1.12-.29s-.78,.1-1.12,.29c-.34,.19-.6,.47-.8,.84-.2,.37-.3,.8-.3,1.3s.1,.94,.3,1.31c.2,.37,.47,.66,.8,.85,.34,.2,.71,.29,1.12,.29s.78-.1,1.12-.29c.34-.2,.61-.48,.81-.85,.2-.37,.3-.81,.3-1.3s-.1-.93-.3-1.3Zm-.55-3.84l-2.56,1.37v-.82l2.56-1.5v.95Z"/><path class="cls-1" d="M64.92,83.63c.36-.21,.79-.31,1.3-.31v1.13h-.29c-1.22,0-1.84,.66-1.84,1.99v3.58h-1.09v-6.58h1.09v1.07c.19-.38,.47-.67,.82-.88Z"/><path class="cls-1" d="M67.52,82.15c-.14-.14-.22-.32-.22-.53s.07-.38,.22-.53,.32-.22,.53-.22,.37,.07,.51,.22c.14,.14,.21,.32,.21,.53s-.07,.38-.21,.53c-.14,.14-.31,.22-.51,.22s-.38-.07-.53-.22Zm1.06,1.28v6.58h-1.09v-6.58h1.09Z"/><path class="cls-1" d="M71.63,89.7c-.5-.28-.89-.68-1.18-1.19-.28-.52-.43-1.11-.43-1.79s.15-1.27,.44-1.78,.69-.91,1.19-1.19c.5-.28,1.07-.41,1.69-.41s1.19,.14,1.69,.41c.5,.28,.9,.67,1.19,1.18s.44,1.11,.44,1.79-.15,1.28-.45,1.79c-.3,.52-.71,.91-1.22,1.19-.51,.28-1.08,.42-1.7,.42s-1.17-.14-1.67-.42Zm2.78-.82c.34-.18,.62-.46,.83-.83s.32-.82,.32-1.34-.1-.98-.31-1.34c-.21-.37-.48-.64-.82-.82-.34-.18-.7-.27-1.09-.27s-.77,.09-1.1,.27c-.33,.18-.6,.45-.8,.82-.2,.37-.3,.82-.3,1.34s.1,.99,.29,1.36c.2,.37,.46,.64,.79,.82s.69,.27,1.08,.27,.76-.09,1.1-.28Z"/><path class="cls-1" d="M79.09,89.86c-.4-.17-.72-.41-.95-.72-.23-.31-.36-.66-.38-1.06h1.13c.03,.33,.19,.6,.46,.8,.28,.21,.64,.31,1.09,.31,.42,0,.74-.09,.98-.28,.24-.18,.36-.42,.36-.7s-.13-.5-.38-.64c-.26-.14-.65-.28-1.19-.41-.49-.13-.89-.26-1.19-.39-.31-.13-.57-.33-.79-.59-.22-.26-.33-.6-.33-1.03,0-.34,.1-.64,.3-.92,.2-.28,.48-.5,.85-.67,.37-.16,.79-.25,1.26-.25,.73,0,1.32,.18,1.76,.55,.45,.37,.69,.87,.72,1.51h-1.09c-.02-.34-.16-.62-.41-.83s-.59-.31-1.01-.31c-.39,0-.7,.08-.94,.25-.23,.17-.35,.39-.35,.66,0,.22,.07,.39,.21,.53,.14,.14,.32,.25,.53,.34s.51,.18,.88,.28c.47,.13,.86,.25,1.15,.38s.55,.31,.76,.56,.32,.57,.33,.97c0,.36-.1,.68-.3,.97-.2,.29-.48,.51-.85,.68-.36,.16-.78,.25-1.25,.25-.5,0-.96-.09-1.36-.26Z"/><path class="cls-1" d="M84.2,89.87c-.14-.14-.22-.32-.22-.53s.07-.38,.22-.53c.14-.14,.32-.22,.53-.22s.37,.07,.51,.22c.14,.14,.21,.32,.21,.53s-.07,.38-.21,.53c-.14,.14-.31,.22-.51,.22s-.38-.07-.53-.22Z"/></g></svg>