<?xml version="1.0" encoding="UTF-8"?><svg id="Camada_1" xmlns="http://www.w3.org/2000/svg" viewBox="0 0 183 104"><defs><style>.cls-1,.cls-2{isolation:isolate;}.cls-3{fill:#0d548a;}.cls-2{fill:#9ae0f9;opacity:.75;}</style></defs><rect class="cls-2" y="0" width="183" height="104" rx="5" ry="5"/><g class="cls-1"><g><path class="cls-3" d="M9.8,31.4c-.44-.2-.78-.47-1.03-.82-.25-.35-.38-.75-.38-1.21h1.16c.04,.39,.2,.72,.49,.99,.28,.27,.7,.4,1.24,.4s.93-.13,1.23-.39c.3-.26,.45-.59,.45-1,0-.32-.09-.58-.26-.78-.18-.2-.4-.35-.66-.46-.26-.1-.62-.22-1.07-.34-.55-.14-.99-.29-1.33-.43s-.62-.37-.85-.68c-.24-.31-.35-.72-.35-1.24,0-.46,.12-.86,.35-1.21,.23-.35,.56-.62,.98-.82s.9-.29,1.45-.29c.78,0,1.43,.2,1.93,.59s.78,.91,.85,1.56h-1.2c-.04-.32-.21-.6-.5-.85s-.69-.37-1.18-.37c-.46,0-.83,.12-1.12,.35-.29,.24-.43,.57-.43,.99,0,.3,.09,.55,.26,.74,.17,.19,.38,.34,.64,.44s.61,.21,1.06,.34c.55,.15,1,.3,1.33,.45s.62,.38,.86,.68c.24,.31,.36,.73,.36,1.25,0,.41-.11,.79-.32,1.15-.22,.36-.54,.65-.96,.88-.42,.22-.92,.34-1.5,.34s-1.05-.1-1.48-.29Z"/><path class="cls-3" d="M15.71,23.75c-.14-.14-.22-.32-.22-.53s.07-.38,.22-.53c.14-.14,.32-.22,.53-.22s.37,.07,.51,.22c.14,.14,.21,.32,.21,.53s-.07,.38-.21,.53c-.14,.14-.31,.22-.51,.22s-.38-.07-.53-.22Zm1.06,1.28v6.58h-1.09v-6.58h1.09Z"/><path class="cls-3" d="M19.59,31.46c-.4-.17-.72-.41-.95-.72-.23-.31-.36-.66-.38-1.06h1.13c.03,.33,.19,.6,.46,.8s.64,.31,1.09,.31c.42,0,.74-.09,.98-.28,.24-.18,.36-.42,.36-.7s-.13-.5-.38-.64c-.26-.14-.65-.28-1.19-.41-.49-.13-.89-.26-1.19-.39-.31-.13-.57-.33-.79-.59-.22-.26-.33-.6-.33-1.03,0-.34,.1-.64,.3-.92,.2-.28,.48-.5,.85-.67,.37-.16,.79-.25,1.26-.25,.73,0,1.32,.18,1.76,.55,.45,.37,.69,.87,.72,1.51h-1.09c-.02-.34-.16-.62-.41-.83-.25-.21-.59-.31-1.01-.31-.39,0-.7,.08-.94,.25-.23,.17-.35,.39-.35,.66,0,.22,.07,.39,.21,.53s.32,.25,.53,.34,.51,.18,.88,.28c.47,.13,.86,.25,1.15,.38s.55,.31,.76,.56,.32,.57,.33,.97c0,.36-.1,.68-.3,.97-.2,.29-.48,.51-.85,.68-.36,.16-.78,.25-1.25,.25-.5,0-.96-.09-1.36-.26Z"/><path class="cls-3" d="M26.22,25.93v3.88c0,.32,.07,.55,.2,.68s.37,.2,.71,.2h.8v.92h-.98c-.61,0-1.06-.14-1.37-.42-.3-.28-.46-.74-.46-1.38v-3.88h-.85v-.9h.85v-1.66h1.09v1.66h1.72v.9h-1.72Z"/><path class="cls-3" d="M35.22,28.73h-5.26c.04,.65,.26,1.15,.67,1.52,.4,.36,.89,.55,1.47,.55,.47,0,.87-.11,1.18-.33,.32-.22,.54-.51,.67-.88h1.18c-.18,.63-.53,1.15-1.06,1.54s-1.18,.59-1.97,.59c-.62,0-1.18-.14-1.67-.42-.49-.28-.88-.68-1.16-1.19-.28-.52-.42-1.11-.42-1.79s.14-1.28,.41-1.79c.27-.51,.65-.91,1.15-1.18s1.06-.41,1.7-.41,1.18,.14,1.66,.41c.48,.27,.85,.65,1.11,1.12s.39,1.01,.39,1.61c0,.21-.01,.43-.04,.66Zm-1.37-1.96c-.18-.3-.43-.53-.75-.68-.32-.16-.67-.23-1.05-.23-.55,0-1.02,.18-1.41,.53-.39,.35-.61,.84-.67,1.46h4.15c0-.42-.09-.77-.28-1.07Z"/><path class="cls-3" d="M45.97,25.23c.4,.21,.72,.53,.95,.95,.23,.42,.35,.94,.35,1.55v3.88h-1.08v-3.72c0-.66-.16-1.16-.49-1.51s-.76-.52-1.31-.52-1.02,.18-1.36,.55c-.34,.36-.5,.89-.5,1.58v3.62h-1.08v-3.72c0-.66-.16-1.16-.49-1.51-.32-.35-.76-.52-1.31-.52s-1.02,.18-1.36,.55c-.34,.36-.5,.89-.5,1.58v3.62h-1.09v-6.58h1.09v.95c.22-.34,.51-.61,.87-.79s.77-.28,1.21-.28c.55,0,1.04,.12,1.46,.37,.42,.25,.74,.61,.95,1.09,.18-.46,.49-.82,.91-1.08,.42-.26,.9-.38,1.42-.38s.97,.11,1.37,.32Z"/><path class="cls-3" d="M49.05,26.52c.27-.51,.65-.9,1.12-1.18,.48-.28,1.01-.42,1.59-.42s1.08,.12,1.5,.37c.42,.25,.74,.56,.95,.94v-1.2h1.1v6.58h-1.1v-1.22c-.22,.38-.54,.7-.97,.95s-.93,.38-1.49,.38-1.11-.14-1.58-.43c-.47-.29-.84-.69-1.12-1.21-.27-.52-.41-1.11-.41-1.78s.14-1.26,.41-1.77Zm4.86,.49c-.2-.37-.47-.65-.81-.85-.34-.2-.71-.29-1.12-.29s-.78,.1-1.12,.29c-.34,.19-.6,.47-.8,.84-.2,.37-.3,.8-.3,1.3s.1,.94,.3,1.31c.2,.37,.47,.66,.8,.85,.34,.2,.71,.29,1.12,.29s.78-.1,1.12-.29c.34-.2,.61-.48,.81-.85s.3-.81,.3-1.3-.1-.93-.3-1.3Z"/><path class="cls-3" d="M60.37,26.52c.27-.51,.65-.9,1.12-1.18,.48-.28,1.01-.42,1.6-.42,.51,0,.99,.12,1.43,.35,.44,.24,.78,.55,1.01,.93v-3.48h1.1v8.88h-1.1v-1.24c-.22,.39-.54,.71-.96,.97-.42,.25-.92,.38-1.49,.38s-1.11-.14-1.59-.43c-.48-.29-.85-.69-1.12-1.21-.27-.52-.41-1.11-.41-1.78s.14-1.26,.41-1.77Zm4.86,.49c-.2-.37-.47-.65-.81-.85s-.71-.29-1.12-.29-.78,.1-1.12,.29c-.34,.19-.6,.47-.8,.84s-.3,.8-.3,1.3,.1,.94,.3,1.31,.47,.66,.8,.85c.34,.2,.71,.29,1.12,.29s.78-.1,1.12-.29c.34-.2,.61-.48,.81-.85,.2-.37,.3-.81,.3-1.3s-.1-.93-.3-1.3Z"/><path class="cls-3" d="M74.45,28.73h-5.26c.04,.65,.26,1.15,.67,1.52,.4,.36,.89,.55,1.47,.55,.47,0,.87-.11,1.18-.33,.32-.22,.54-.51,.67-.88h1.18c-.18,.63-.53,1.15-1.06,1.54s-1.18,.59-1.97,.59c-.62,0-1.18-.14-1.67-.42-.49-.28-.88-.68-1.16-1.19-.28-.52-.42-1.11-.42-1.79s.14-1.28,.41-1.79c.27-.51,.65-.91,1.15-1.18s1.06-.41,1.7-.41,1.18,.14,1.66,.41c.48,.27,.85,.65,1.11,1.12s.39,1.01,.39,1.61c0,.21-.01,.43-.04,.66Zm-1.37-1.96c-.18-.3-.43-.53-.75-.68-.32-.16-.67-.23-1.05-.23-.55,0-1.02,.18-1.41,.53-.39,.35-.61,.84-.67,1.46h4.15c0-.42-.09-.77-.28-1.07Z"/><path class="cls-3" d="M79.16,23.75c-.14-.14-.22-.32-.22-.53s.07-.38,.22-.53c.14-.14,.32-.22,.53-.22s.37,.07,.51,.22c.14,.14,.21,.32,.21,.53s-.07,.38-.21,.53c-.14,.14-.31,.22-.51,.22s-.38-.07-.53-.22Zm1.06,1.28v6.58h-1.09v-6.58h1.09Z"/><path class="cls-3" d="M87.22,25.64c.5,.48,.74,1.18,.74,2.09v3.88h-1.08v-3.72c0-.66-.16-1.16-.49-1.51s-.78-.52-1.34-.52-1.03,.18-1.37,.54-.51,.88-.51,1.57v3.64h-1.09v-6.58h1.09v.94c.22-.34,.51-.6,.88-.78s.78-.28,1.23-.28c.8,0,1.45,.24,1.94,.73Z"/><path class="cls-3" d="M92.43,25.93h-1.38v5.68h-1.09v-5.68h-.85v-.9h.85v-.47c0-.74,.19-1.27,.57-1.61,.38-.34,.99-.51,1.83-.51v.91c-.48,0-.82,.09-1.01,.28s-.29,.5-.29,.93v.47h1.38v.9Z"/><path class="cls-3" d="M94.9,31.29c-.5-.28-.89-.68-1.18-1.19-.28-.52-.43-1.11-.43-1.79s.15-1.27,.44-1.78,.69-.91,1.19-1.19,1.07-.41,1.69-.41,1.19,.14,1.69,.41,.9,.67,1.19,1.18c.29,.51,.44,1.11,.44,1.79s-.15,1.28-.45,1.79c-.3,.52-.71,.91-1.22,1.19-.51,.28-1.08,.42-1.7,.42s-1.17-.14-1.67-.42Zm2.78-.82c.34-.18,.62-.46,.83-.83,.21-.37,.32-.82,.32-1.34s-.1-.98-.31-1.34c-.21-.37-.48-.64-.82-.82-.34-.18-.7-.27-1.09-.27s-.77,.09-1.1,.27c-.33,.18-.6,.45-.8,.82-.2,.37-.3,.82-.3,1.34s.1,.99,.29,1.36c.2,.37,.46,.64,.79,.82,.33,.18,.69,.27,1.08,.27s.76-.09,1.1-.28Z"/><path class="cls-3" d="M103.3,25.22c.36-.21,.79-.31,1.3-.31v1.13h-.29c-1.22,0-1.84,.66-1.84,1.99v3.58h-1.09v-6.58h1.09v1.07c.19-.38,.47-.67,.82-.88Z"/><path class="cls-3" d="M115.14,25.23c.4,.21,.72,.53,.95,.95,.23,.42,.35,.94,.35,1.55v3.88h-1.08v-3.72c0-.66-.16-1.16-.49-1.51s-.76-.52-1.31-.52-1.02,.18-1.36,.55c-.34,.36-.5,.89-.5,1.58v3.62h-1.08v-3.72c0-.66-.16-1.16-.49-1.51-.32-.35-.76-.52-1.31-.52s-1.02,.18-1.36,.55c-.34,.36-.5,.89-.5,1.58v3.62h-1.09v-6.58h1.09v.95c.22-.34,.51-.61,.87-.79s.77-.28,1.21-.28c.55,0,1.04,.12,1.46,.37,.42,.25,.74,.61,.95,1.09,.18-.46,.49-.82,.91-1.08,.42-.26,.9-.38,1.42-.38s.97,.11,1.37,.32Z"/><path class="cls-3" d="M118.22,26.52c.27-.51,.65-.9,1.12-1.18,.48-.28,1.01-.42,1.59-.42s1.08,.12,1.5,.37c.42,.25,.74,.56,.95,.94v-1.2h1.1v6.58h-1.1v-1.22c-.22,.38-.54,.7-.97,.95s-.93,.38-1.49,.38-1.11-.14-1.58-.43c-.47-.29-.84-.69-1.12-1.21-.27-.52-.41-1.11-.41-1.78s.14-1.26,.41-1.77Zm4.86,.49c-.2-.37-.47-.65-.81-.85-.34-.2-.71-.29-1.12-.29s-.78,.1-1.12,.29c-.34,.19-.6,.47-.8,.84-.2,.37-.3,.8-.3,1.3s.1,.94,.3,1.31c.2,.37,.47,.66,.8,.85,.34,.2,.71,.29,1.12,.29s.78-.1,1.12-.29c.34-.2,.61-.48,.81-.85s.3-.81,.3-1.3-.1-.93-.3-1.3Z"/><path class="cls-3" d="M130.33,30.45c.32-.22,.54-.54,.66-.96h1.18c-.16,.62-.47,1.13-.94,1.53-.47,.4-1.05,.62-1.76,.68v.6c.47,0,.85,.09,1.13,.3s.42,.5,.42,.89-.14,.68-.41,.9c-.27,.22-.62,.34-1.06,.34h-1.38v-.71h1.16c.26,0,.46-.04,.58-.12s.19-.22,.19-.41-.06-.32-.19-.4-.32-.12-.58-.12h-.6v-1.28c-.55-.06-1.04-.23-1.46-.52-.42-.29-.75-.68-.99-1.18-.24-.49-.35-1.05-.35-1.69,0-.68,.14-1.27,.41-1.78,.27-.51,.65-.9,1.13-1.18,.48-.28,1.04-.42,1.66-.42,.81,0,1.47,.2,2,.59,.52,.39,.87,.94,1.04,1.63h-1.18c-.11-.4-.33-.72-.65-.95-.32-.23-.73-.35-1.21-.35-.62,0-1.13,.21-1.51,.64-.38,.43-.58,1.03-.58,1.82s.19,1.4,.58,1.84c.38,.43,.89,.65,1.51,.65,.48,0,.88-.11,1.2-.34Z"/><path class="cls-3" d="M133.62,26.52c.27-.51,.65-.9,1.12-1.18,.48-.28,1.01-.42,1.59-.42s1.08,.12,1.5,.37,.74,.56,.95,.94v-1.2h1.1v6.58h-1.1v-1.22c-.22,.38-.54,.7-.97,.95-.43,.25-.93,.38-1.49,.38s-1.11-.14-1.58-.43c-.47-.29-.84-.69-1.12-1.21-.27-.52-.41-1.11-.41-1.78s.14-1.26,.41-1.77Zm4.86,.49c-.2-.37-.47-.65-.81-.85s-.71-.29-1.12-.29-.78,.1-1.12,.29c-.34,.19-.6,.47-.8,.84s-.3,.8-.3,1.3,.1,.94,.3,1.31,.47,.66,.8,.85c.34,.2,.71,.29,1.12,.29s.78-.1,1.12-.29c.34-.2,.61-.48,.81-.85,.2-.37,.3-.81,.3-1.3s-.1-.93-.3-1.3Zm-3.08-3.62c.21-.22,.48-.32,.8-.32,.15,0,.28,.03,.39,.08,.11,.05,.24,.13,.39,.22,.11,.08,.21,.14,.3,.19s.18,.07,.29,.07c.14,0,.25-.04,.35-.13,.1-.09,.16-.22,.18-.38h.62c-.05,.4-.18,.71-.4,.92s-.48,.32-.8,.32c-.15,0-.29-.03-.4-.08s-.25-.13-.39-.23c-.13-.08-.23-.14-.31-.18s-.17-.06-.27-.06c-.14,0-.25,.04-.34,.13-.09,.09-.15,.22-.17,.4h-.64c.06-.41,.19-.72,.4-.94Z"/><path class="cls-3" d="M142.92,31.29c-.5-.28-.89-.68-1.18-1.19-.28-.52-.43-1.11-.43-1.79s.15-1.27,.44-1.78,.69-.91,1.19-1.19,1.07-.41,1.69-.41,1.19,.14,1.69,.41,.9,.67,1.19,1.18c.29,.51,.44,1.11,.44,1.79s-.15,1.28-.45,1.79c-.3,.52-.71,.91-1.22,1.19-.51,.28-1.08,.42-1.7,.42s-1.17-.14-1.67-.42Zm2.78-.82c.34-.18,.62-.46,.83-.83,.21-.37,.32-.82,.32-1.34s-.1-.98-.31-1.34c-.21-.37-.48-.64-.82-.82-.34-.18-.7-.27-1.09-.27s-.77,.09-1.1,.27c-.33,.18-.6,.45-.8,.82-.2,.37-.3,.82-.3,1.34s.1,.99,.29,1.36c.2,.37,.46,.64,.79,.82,.33,.18,.69,.27,1.08,.27s.76-.09,1.1-.28Z"/><path class="cls-3" d="M152.61,26.52c.27-.51,.65-.9,1.12-1.18,.48-.28,1.01-.42,1.6-.42s1.07,.13,1.49,.38,.74,.56,.94,.93v-1.2h1.1v9.7h-1.1v-4.33c-.21,.37-.53,.68-.96,.94-.43,.26-.94,.38-1.51,.38s-1.1-.14-1.57-.43c-.47-.29-.84-.69-1.12-1.21-.27-.52-.41-1.11-.41-1.78s.14-1.26,.41-1.77Zm4.86,.49c-.2-.37-.47-.65-.81-.85s-.71-.29-1.12-.29-.78,.1-1.12,.29c-.34,.19-.6,.47-.8,.84s-.3,.8-.3,1.3,.1,.94,.3,1.31,.47,.66,.8,.85c.34,.2,.71,.29,1.12,.29s.78-.1,1.12-.29c.34-.2,.61-.48,.81-.85,.2-.37,.3-.81,.3-1.3s-.1-.93-.3-1.3Z"/><path class="cls-3" d="M166.56,25.03v6.58h-1.09v-.97c-.21,.34-.5,.6-.87,.79s-.78,.28-1.23,.28c-.51,0-.97-.11-1.38-.32-.41-.21-.73-.53-.97-.95-.24-.42-.35-.94-.35-1.55v-3.85h1.08v3.71c0,.65,.16,1.15,.49,1.49s.78,.52,1.34,.52,1.04-.18,1.38-.54,.5-.88,.5-1.57v-3.61h1.09Z"/><path class="cls-3" d="M174.37,28.73h-5.26c.04,.65,.26,1.15,.67,1.52,.4,.36,.89,.55,1.47,.55,.47,0,.87-.11,1.18-.33,.32-.22,.54-.51,.67-.88h1.18c-.18,.63-.53,1.15-1.06,1.54-.53,.4-1.18,.59-1.97,.59-.62,0-1.18-.14-1.67-.42-.49-.28-.88-.68-1.16-1.19-.28-.52-.42-1.11-.42-1.79s.14-1.28,.41-1.79c.27-.51,.65-.91,1.15-1.18,.49-.28,1.06-.41,1.7-.41s1.18,.14,1.66,.41c.48,.27,.85,.65,1.11,1.12,.26,.48,.39,1.01,.39,1.61,0,.21-.01,.43-.04,.66Zm-1.37-1.96c-.18-.3-.43-.53-.75-.68-.32-.16-.67-.23-1.05-.23-.55,0-1.02,.18-1.41,.53s-.61,.84-.67,1.46h4.15c0-.42-.09-.77-.28-1.07Z"/><path class="cls-3" d="M8.63,40.92c.27-.51,.65-.9,1.12-1.18,.48-.28,1.01-.42,1.6-.42,.51,0,.99,.12,1.43,.35,.44,.24,.78,.55,1.01,.93v-3.48h1.1v8.88h-1.1v-1.24c-.22,.39-.54,.71-.96,.97-.42,.25-.92,.38-1.49,.38s-1.11-.14-1.59-.43c-.48-.29-.85-.69-1.12-1.21-.27-.52-.41-1.11-.41-1.78s.14-1.26,.41-1.77Zm4.86,.49c-.2-.37-.47-.65-.81-.85s-.71-.29-1.12-.29-.78,.1-1.12,.29c-.34,.19-.6,.47-.8,.84s-.3,.8-.3,1.3,.1,.94,.3,1.31,.47,.66,.8,.85c.34,.2,.71,.29,1.12,.29s.78-.1,1.12-.29c.34-.2,.61-.48,.81-.85,.2-.37,.3-.81,.3-1.3s-.1-.93-.3-1.3Z"/><path class="cls-3" d="M22.7,43.13h-5.26c.04,.65,.26,1.15,.67,1.52,.4,.36,.89,.55,1.47,.55,.47,0,.87-.11,1.18-.33,.32-.22,.54-.51,.67-.88h1.18c-.18,.63-.53,1.15-1.06,1.54s-1.18,.59-1.97,.59c-.62,0-1.18-.14-1.67-.42-.49-.28-.88-.68-1.16-1.19-.28-.52-.42-1.11-.42-1.79s.14-1.28,.41-1.79c.27-.51,.65-.91,1.15-1.18s1.06-.41,1.7-.41,1.18,.14,1.66,.41c.48,.27,.85,.65,1.11,1.12s.39,1.01,.39,1.61c0,.21-.01,.43-.04,.66Zm-1.37-1.96c-.18-.3-.43-.53-.75-.68-.32-.16-.67-.23-1.05-.23-.55,0-1.02,.18-1.41,.53-.39,.35-.61,.84-.67,1.46h4.15c0-.42-.09-.77-.28-1.07Zm-1.79-3.34l-1.67,1.02v-.86l1.67-1,1.66,1v.86l-1.66-1.02Z"/><path class="cls-3" d="M27.38,40.92c.27-.51,.65-.9,1.13-1.18,.48-.28,1.04-.42,1.66-.42,.81,0,1.47,.2,2,.59,.52,.39,.87,.94,1.04,1.63h-1.18c-.11-.4-.33-.72-.65-.95-.32-.23-.73-.35-1.21-.35-.62,0-1.13,.21-1.51,.64-.38,.43-.58,1.03-.58,1.82s.19,1.4,.58,1.84c.38,.43,.89,.65,1.51,.65,.48,0,.88-.11,1.2-.34,.32-.22,.54-.54,.66-.96h1.18c-.18,.67-.53,1.21-1.06,1.61-.53,.4-1.19,.61-1.98,.61-.62,0-1.18-.14-1.66-.42-.48-.28-.86-.68-1.13-1.19-.27-.51-.41-1.11-.41-1.8s.14-1.27,.41-1.78Z"/><path class="cls-3" d="M35.86,45.69c-.5-.28-.89-.68-1.18-1.19-.28-.52-.43-1.11-.43-1.79s.15-1.27,.44-1.78,.69-.91,1.19-1.19,1.07-.41,1.69-.41,1.19,.14,1.69,.41c.5,.28,.9,.67,1.19,1.18,.29,.51,.44,1.11,.44,1.79s-.15,1.28-.45,1.79c-.3,.52-.71,.91-1.22,1.19-.51,.28-1.08,.42-1.7,.42s-1.17-.14-1.67-.42Zm2.78-.82c.34-.18,.62-.46,.83-.83,.21-.37,.32-.82,.32-1.34s-.1-.98-.31-1.34c-.21-.37-.48-.64-.82-.82-.34-.18-.7-.27-1.09-.27s-.77,.09-1.1,.27c-.33,.18-.6,.45-.8,.82-.2,.37-.3,.82-.3,1.34s.1,.99,.29,1.36c.2,.37,.46,.64,.79,.82,.33,.18,.69,.27,1.08,.27s.76-.09,1.1-.28Z"/><path class="cls-3" d="M47.49,40.04c.5,.48,.74,1.18,.74,2.09v3.88h-1.08v-3.72c0-.66-.16-1.16-.49-1.51s-.78-.52-1.34-.52-1.03,.18-1.37,.54-.51,.88-.51,1.57v3.64h-1.09v-6.58h1.09v.94c.22-.34,.51-.6,.88-.78s.78-.28,1.23-.28c.8,0,1.45,.24,1.94,.73Z"/><path class="cls-3" d="M51.36,40.33v3.88c0,.32,.07,.55,.2,.68,.14,.13,.37,.2,.71,.2h.8v.92h-.98c-.61,0-1.06-.14-1.37-.42-.3-.28-.46-.74-.46-1.38v-3.88h-.85v-.9h.85v-1.66h1.09v1.66h1.72v.9h-1.72Z"/><path class="cls-3" d="M54.39,40.92c.27-.51,.65-.9,1.12-1.18,.48-.28,1.01-.42,1.59-.42s1.08,.12,1.5,.37,.74,.56,.95,.94v-1.2h1.1v6.58h-1.1v-1.22c-.22,.38-.54,.7-.97,.95-.43,.25-.93,.38-1.49,.38s-1.11-.14-1.58-.43c-.47-.29-.84-.69-1.12-1.21-.27-.52-.41-1.11-.41-1.78s.14-1.26,.41-1.77Zm4.86,.49c-.2-.37-.47-.65-.81-.85s-.71-.29-1.12-.29-.78,.1-1.12,.29c-.34,.19-.6,.47-.8,.84s-.3,.8-.3,1.3,.1,.94,.3,1.31,.47,.66,.8,.85c.34,.2,.71,.29,1.12,.29s.78-.1,1.12-.29c.34-.2,.61-.48,.81-.85,.2-.37,.3-.81,.3-1.3s-.1-.93-.3-1.3Z"/><path class="cls-3" d="M65.71,40.92c.27-.51,.65-.9,1.12-1.18,.48-.28,1.01-.42,1.6-.42,.51,0,.99,.12,1.43,.35,.44,.24,.78,.55,1.01,.93v-3.48h1.1v8.88h-1.1v-1.24c-.22,.39-.54,.71-.96,.97s-.92,.38-1.49,.38-1.11-.14-1.59-.43c-.48-.29-.85-.69-1.12-1.21-.27-.52-.41-1.11-.41-1.78s.14-1.26,.41-1.77Zm4.86,.49c-.2-.37-.47-.65-.81-.85-.34-.2-.71-.29-1.12-.29s-.78,.1-1.12,.29c-.34,.19-.6,.47-.8,.84-.2,.37-.3,.8-.3,1.3s.1,.94,.3,1.31c.2,.37,.47,.66,.8,.85,.34,.2,.71,.29,1.12,.29s.78-.1,1.12-.29c.34-.2,.61-.48,.81-.85s.3-.81,.3-1.3-.1-.93-.3-1.3Z"/><path class="cls-3" d="M73.82,40.92c.27-.51,.65-.9,1.12-1.18,.48-.28,1.01-.42,1.59-.42s1.08,.12,1.5,.37,.74,.56,.95,.94v-1.2h1.1v6.58h-1.1v-1.22c-.22,.38-.54,.7-.97,.95-.43,.25-.93,.38-1.49,.38s-1.11-.14-1.58-.43c-.47-.29-.84-.69-1.12-1.21-.27-.52-.41-1.11-.41-1.78s.14-1.26,.41-1.77Zm4.86,.49c-.2-.37-.47-.65-.81-.85s-.71-.29-1.12-.29-.78,.1-1.12,.29c-.34,.19-.6,.47-.8,.84s-.3,.8-.3,1.3,.1,.94,.3,1.31,.47,.66,.8,.85c.34,.2,.71,.29,1.12,.29s.78-.1,1.12-.29c.34-.2,.61-.48,.81-.85,.2-.37,.3-.81,.3-1.3s-.1-.93-.3-1.3Z"/><path class="cls-3" d="M85.14,40.92c.27-.51,.65-.9,1.13-1.18,.48-.28,1.04-.42,1.66-.42,.81,0,1.47,.2,2,.59,.52,.39,.87,.94,1.04,1.63h-1.18c-.11-.4-.33-.72-.65-.95-.32-.23-.73-.35-1.21-.35-.62,0-1.13,.21-1.51,.64-.38,.43-.58,1.03-.58,1.82s.19,1.4,.58,1.84c.38,.43,.89,.65,1.51,.65,.48,0,.88-.11,1.2-.34,.32-.22,.54-.54,.66-.96h1.18c-.18,.67-.53,1.21-1.06,1.61-.53,.4-1.19,.61-1.98,.61-.62,0-1.18-.14-1.66-.42-.48-.28-.86-.68-1.13-1.19-.27-.51-.41-1.11-.41-1.8s.14-1.27,.41-1.78Z"/><path class="cls-3" d="M93.62,45.69c-.5-.28-.89-.68-1.18-1.19-.28-.52-.43-1.11-.43-1.79s.15-1.27,.44-1.78,.69-.91,1.19-1.19,1.07-.41,1.69-.41,1.19,.14,1.69,.41c.5,.28,.9,.67,1.19,1.18,.29,.51,.44,1.11,.44,1.79s-.15,1.28-.45,1.79c-.3,.52-.71,.91-1.22,1.19-.51,.28-1.08,.42-1.7,.42s-1.17-.14-1.67-.42Zm2.78-.82c.34-.18,.62-.46,.83-.83,.21-.37,.32-.82,.32-1.34s-.1-.98-.31-1.34c-.21-.37-.48-.64-.82-.82-.34-.18-.7-.27-1.09-.27s-.77,.09-1.1,.27c-.33,.18-.6,.45-.8,.82-.2,.37-.3,.82-.3,1.34s.1,.99,.29,1.36c.2,.37,.46,.64,.79,.82,.33,.18,.69,.27,1.08,.27s.76-.09,1.1-.28Z"/><path class="cls-3" d="M109.38,39.63c.4,.21,.72,.53,.95,.95,.23,.42,.35,.94,.35,1.55v3.88h-1.08v-3.72c0-.66-.16-1.16-.49-1.51-.32-.35-.76-.52-1.31-.52s-1.02,.18-1.36,.55c-.34,.36-.5,.89-.5,1.58v3.62h-1.08v-3.72c0-.66-.16-1.16-.49-1.51s-.76-.52-1.31-.52-1.02,.18-1.36,.55c-.34,.36-.5,.89-.5,1.58v3.62h-1.09v-6.58h1.09v.95c.22-.34,.51-.61,.87-.79,.36-.18,.77-.28,1.21-.28,.55,0,1.04,.12,1.46,.37,.42,.25,.74,.61,.95,1.09,.18-.46,.49-.82,.91-1.08,.42-.26,.9-.38,1.42-.38s.97,.11,1.37,.32Z"/><path class="cls-3" d="M114.52,39.7c.43-.25,.93-.38,1.49-.38s1.11,.14,1.59,.42c.48,.28,.85,.67,1.12,1.18,.27,.51,.41,1.1,.41,1.77s-.14,1.26-.41,1.78c-.27,.52-.65,.92-1.12,1.21-.48,.29-1.01,.43-1.59,.43s-1.05-.13-1.48-.38c-.43-.25-.75-.57-.98-.94v4.33h-1.09v-9.7h1.09v1.21c.22-.38,.54-.69,.97-.94Zm3.2,1.7c-.2-.37-.47-.65-.81-.84-.34-.19-.71-.29-1.12-.29s-.77,.1-1.11,.29-.61,.48-.82,.85c-.2,.37-.31,.8-.31,1.29s.1,.93,.31,1.3c.2,.37,.48,.66,.82,.85,.34,.2,.71,.29,1.11,.29s.78-.1,1.12-.29c.34-.2,.61-.48,.81-.85s.3-.81,.3-1.31-.1-.93-.3-1.3Z"/><path class="cls-3" d="M121.67,37.13v8.88h-1.09v-8.88h1.09Z"/><path class="cls-3" d="M129.49,43.13h-5.26c.04,.65,.26,1.15,.67,1.52,.4,.36,.89,.55,1.47,.55,.47,0,.87-.11,1.18-.33,.32-.22,.54-.51,.67-.88h1.18c-.18,.63-.53,1.15-1.06,1.54-.53,.4-1.18,.59-1.97,.59-.62,0-1.18-.14-1.67-.42-.49-.28-.88-.68-1.16-1.19-.28-.52-.42-1.11-.42-1.79s.14-1.28,.41-1.79c.27-.51,.65-.91,1.15-1.18,.49-.28,1.06-.41,1.7-.41s1.18,.14,1.66,.41c.48,.27,.85,.65,1.11,1.12,.26,.48,.39,1.01,.39,1.61,0,.21-.01,.43-.04,.66Zm-1.37-1.96c-.18-.3-.43-.53-.75-.68-.32-.16-.67-.23-1.05-.23-.55,0-1.02,.18-1.41,.53s-.61,.84-.67,1.46h4.15c0-.42-.09-.77-.28-1.07Z"/><path class="cls-3" d="M134.4,46.01l-1.56-2.45-1.5,2.45h-1.14l2.12-3.26-2.12-3.31h1.24l1.56,2.44,1.49-2.44h1.14l-2.11,3.25,2.12,3.32h-1.24Z"/><path class="cls-3" d="M136.75,38.15c-.14-.14-.22-.32-.22-.53s.07-.38,.22-.53c.14-.14,.32-.22,.53-.22s.37,.07,.51,.22,.21,.32,.21,.53-.07,.38-.21,.53-.31,.22-.51,.22-.38-.07-.53-.22Zm1.06,1.28v6.58h-1.09v-6.58h1.09Z"/><path class="cls-3" d="M139.66,40.92c.27-.51,.65-.9,1.12-1.18,.48-.28,1.01-.42,1.6-.42,.51,0,.99,.12,1.43,.35,.44,.24,.78,.55,1.01,.93v-3.48h1.1v8.88h-1.1v-1.24c-.22,.39-.54,.71-.96,.97-.42,.25-.92,.38-1.49,.38s-1.11-.14-1.59-.43c-.48-.29-.85-.69-1.12-1.21-.27-.52-.41-1.11-.41-1.78s.14-1.26,.41-1.77Zm4.86,.49c-.2-.37-.47-.65-.81-.85s-.71-.29-1.12-.29-.78,.1-1.12,.29c-.34,.19-.6,.47-.8,.84s-.3,.8-.3,1.3,.1,.94,.3,1.31,.47,.66,.8,.85c.34,.2,.71,.29,1.12,.29s.78-.1,1.12-.29c.34-.2,.61-.48,.81-.85,.2-.37,.3-.81,.3-1.3s-.1-.93-.3-1.3Z"/><path class="cls-3" d="M147.78,40.92c.27-.51,.65-.9,1.12-1.18,.48-.28,1.01-.42,1.59-.42s1.08,.12,1.5,.37c.42,.25,.74,.56,.95,.94v-1.2h1.1v6.58h-1.1v-1.22c-.22,.38-.54,.7-.97,.95s-.93,.38-1.49,.38-1.11-.14-1.58-.43c-.47-.29-.84-.69-1.12-1.21-.27-.52-.41-1.11-.41-1.78s.14-1.26,.41-1.77Zm4.86,.49c-.2-.37-.47-.65-.81-.85-.34-.2-.71-.29-1.12-.29s-.78,.1-1.12,.29c-.34,.19-.6,.47-.8,.84-.2,.37-.3,.8-.3,1.3s.1,.94,.3,1.31c.2,.37,.47,.66,.8,.85,.34,.2,.71,.29,1.12,.29s.78-.1,1.12-.29c.34-.2,.61-.48,.81-.85s.3-.81,.3-1.3-.1-.93-.3-1.3Z"/><path class="cls-3" d="M155.89,40.92c.27-.51,.65-.9,1.12-1.18,.48-.28,1.01-.42,1.6-.42,.51,0,.99,.12,1.43,.35,.44,.24,.78,.55,1.01,.93v-3.48h1.1v8.88h-1.1v-1.24c-.22,.39-.54,.71-.96,.97-.42,.25-.92,.38-1.49,.38s-1.11-.14-1.59-.43c-.48-.29-.85-.69-1.12-1.21-.27-.52-.41-1.11-.41-1.78s.14-1.26,.41-1.77Zm4.86,.49c-.2-.37-.47-.65-.81-.85s-.71-.29-1.12-.29-.78,.1-1.12,.29c-.34,.19-.6,.47-.8,.84s-.3,.8-.3,1.3,.1,.94,.3,1.31,.47,.66,.8,.85c.34,.2,.71,.29,1.12,.29s.78-.1,1.12-.29c.34-.2,.61-.48,.81-.85,.2-.37,.3-.81,.3-1.3s-.1-.93-.3-1.3Z"/><path class="cls-3" d="M169.96,43.13h-5.26c.04,.65,.26,1.15,.67,1.52,.4,.36,.89,.55,1.47,.55,.47,0,.87-.11,1.18-.33,.32-.22,.54-.51,.67-.88h1.18c-.18,.63-.53,1.15-1.06,1.54s-1.18,.59-1.97,.59c-.62,0-1.18-.14-1.67-.42-.49-.28-.88-.68-1.16-1.19-.28-.52-.42-1.11-.42-1.79s.14-1.28,.41-1.79c.27-.51,.65-.91,1.15-1.18s1.06-.41,1.7-.41,1.18,.14,1.66,.41c.48,.27,.85,.65,1.11,1.12s.39,1.01,.39,1.61c0,.21-.01,.43-.04,.66Zm-1.37-1.96c-.18-.3-.43-.53-.75-.68-.32-.16-.67-.23-1.05-.23-.55,0-1.02,.18-1.41,.53-.39,.35-.61,.84-.67,1.46h4.15c0-.42-.09-.77-.28-1.07Z"/><path class="cls-3" d="M14.59,57.53h-5.26c.04,.65,.26,1.15,.67,1.52,.4,.36,.89,.55,1.47,.55,.47,0,.87-.11,1.18-.33,.32-.22,.54-.51,.67-.88h1.18c-.18,.63-.53,1.15-1.06,1.54-.53,.4-1.18,.59-1.97,.59-.62,0-1.18-.14-1.67-.42-.49-.28-.88-.68-1.16-1.19-.28-.52-.42-1.11-.42-1.79s.14-1.28,.41-1.79c.27-.51,.65-.91,1.15-1.18,.49-.28,1.06-.41,1.7-.41s1.18,.14,1.66,.41c.48,.27,.85,.65,1.11,1.12,.26,.48,.39,1.01,.39,1.61,0,.21-.01,.43-.04,.66Zm-1.37-1.96c-.18-.3-.43-.53-.75-.68-.32-.16-.67-.23-1.05-.23-.55,0-1.02,.18-1.41,.53s-.61,.84-.67,1.46h4.15c0-.42-.09-.77-.28-1.07Z"/><path class="cls-3" d="M19.27,55.32c.27-.51,.65-.9,1.12-1.18,.48-.28,1.01-.42,1.6-.42,.51,0,.99,.12,1.43,.35,.44,.24,.78,.55,1.01,.93v-3.48h1.1v8.88h-1.1v-1.23c-.22,.39-.54,.71-.96,.97-.42,.25-.92,.38-1.49,.38s-1.11-.14-1.59-.43c-.48-.29-.85-.69-1.12-1.21-.27-.52-.41-1.11-.41-1.78s.14-1.26,.41-1.77Zm4.86,.49c-.2-.37-.47-.65-.81-.85-.34-.2-.71-.29-1.12-.29s-.78,.1-1.12,.29c-.34,.19-.6,.47-.8,.84-.2,.37-.3,.8-.3,1.3s.1,.94,.3,1.31c.2,.37,.47,.66,.8,.85,.34,.2,.71,.29,1.12,.29s.78-.1,1.12-.29c.34-.2,.61-.48,.81-.85s.3-.81,.3-1.3-.1-.93-.3-1.3Z"/><path class="cls-3" d="M27.38,55.32c.27-.51,.65-.9,1.12-1.18,.48-.28,1.01-.42,1.59-.42s1.08,.12,1.5,.37,.74,.56,.95,.94v-1.2h1.1v6.58h-1.1v-1.22c-.22,.38-.54,.7-.97,.95-.43,.25-.93,.38-1.49,.38s-1.11-.14-1.58-.43c-.47-.29-.84-.69-1.12-1.21-.27-.52-.41-1.11-.41-1.78s.14-1.26,.41-1.77Zm4.86,.49c-.2-.37-.47-.65-.81-.85s-.71-.29-1.12-.29-.78,.1-1.12,.29c-.34,.19-.6,.47-.8,.84s-.3,.8-.3,1.3,.1,.94,.3,1.31,.47,.66,.8,.85c.34,.2,.71,.29,1.12,.29s.78-.1,1.12-.29c.34-.2,.61-.48,.81-.85,.2-.37,.3-.81,.3-1.3s-.1-.93-.3-1.3Z"/><path class="cls-3" d="M38.7,55.32c.27-.51,.65-.9,1.12-1.18,.48-.28,1.01-.42,1.59-.42s1.08,.12,1.5,.37c.42,.25,.74,.56,.95,.94v-1.2h1.1v6.58h-1.1v-1.22c-.22,.38-.54,.7-.97,.95-.43,.25-.93,.38-1.49,.38s-1.11-.14-1.58-.43c-.47-.29-.84-.69-1.12-1.21-.27-.52-.41-1.11-.41-1.78s.14-1.26,.41-1.77Zm4.86,.49c-.2-.37-.47-.65-.81-.85-.34-.2-.71-.29-1.12-.29s-.78,.1-1.12,.29c-.34,.19-.6,.47-.8,.84-.2,.37-.3,.8-.3,1.3s.1,.94,.3,1.31c.2,.37,.47,.66,.8,.85,.34,.2,.71,.29,1.12,.29s.78-.1,1.12-.29c.34-.2,.61-.48,.81-.85s.3-.81,.3-1.3-.1-.93-.3-1.3Z"/><path class="cls-3" d="M48.14,54.73v3.88c0,.32,.07,.55,.2,.68,.14,.13,.37,.2,.71,.2h.8v.92h-.98c-.61,0-1.06-.14-1.37-.42-.3-.28-.46-.74-.46-1.38v-3.88h-.85v-.9h.85v-1.66h1.09v1.66h1.72v.9h-1.72Z"/><path class="cls-3" d="M57.01,53.83v6.58h-1.09v-.97c-.21,.34-.5,.6-.87,.79-.37,.19-.78,.28-1.23,.28-.51,0-.97-.11-1.38-.32-.41-.21-.73-.53-.97-.95-.24-.42-.35-.94-.35-1.55v-3.85h1.08v3.71c0,.65,.16,1.15,.49,1.49s.78,.52,1.34,.52,1.04-.18,1.38-.54c.34-.36,.5-.88,.5-1.57v-3.61h1.09Z"/><path class="cls-3" d="M58.86,55.32c.27-.51,.65-.9,1.12-1.18,.48-.28,1.01-.42,1.59-.42s1.08,.12,1.5,.37c.42,.25,.74,.56,.95,.94v-1.2h1.1v6.58h-1.1v-1.22c-.22,.38-.54,.7-.97,.95-.43,.25-.93,.38-1.49,.38s-1.11-.14-1.58-.43c-.47-.29-.84-.69-1.12-1.21-.27-.52-.41-1.11-.41-1.78s.14-1.26,.41-1.77Zm4.86,.49c-.2-.37-.47-.65-.81-.85-.34-.2-.71-.29-1.12-.29s-.78,.1-1.12,.29c-.34,.19-.6,.47-.8,.84-.2,.37-.3,.8-.3,1.3s.1,.94,.3,1.31c.2,.37,.47,.66,.8,.85,.34,.2,.71,.29,1.12,.29s.78-.1,1.12-.29c.34-.2,.61-.48,.81-.85s.3-.81,.3-1.3-.1-.93-.3-1.3Z"/><path class="cls-3" d="M68.06,51.53v8.88h-1.09v-8.88h1.09Z"/><path class="cls-3" d="M69.96,52.55c-.14-.14-.22-.32-.22-.53s.07-.38,.22-.53c.14-.14,.32-.22,.53-.22s.37,.07,.51,.22,.21,.32,.21,.53-.07,.38-.21,.53-.31,.22-.51,.22-.38-.07-.53-.22Zm1.06,1.28v6.58h-1.09v-6.58h1.09Z"/><path class="cls-3" d="M72.87,55.32c.27-.51,.65-.9,1.12-1.18,.48-.28,1.01-.42,1.6-.42,.51,0,.99,.12,1.43,.35,.44,.24,.78,.55,1.01,.93v-3.48h1.1v8.88h-1.1v-1.23c-.22,.39-.54,.71-.96,.97-.42,.25-.92,.38-1.49,.38s-1.11-.14-1.59-.43c-.48-.29-.85-.69-1.12-1.21-.27-.52-.41-1.11-.41-1.78s.14-1.26,.41-1.77Zm4.86,.49c-.2-.37-.47-.65-.81-.85s-.71-.29-1.12-.29-.78,.1-1.12,.29c-.34,.19-.6,.47-.8,.84s-.3,.8-.3,1.3,.1,.94,.3,1.31,.47,.66,.8,.85c.34,.2,.71,.29,1.12,.29s.78-.1,1.12-.29c.34-.2,.61-.48,.81-.85,.2-.37,.3-.81,.3-1.3s-.1-.93-.3-1.3Z"/><path class="cls-3" d="M80.98,55.32c.27-.51,.65-.9,1.12-1.18,.48-.28,1.01-.42,1.59-.42s1.08,.12,1.5,.37c.42,.25,.74,.56,.95,.94v-1.2h1.1v6.58h-1.1v-1.22c-.22,.38-.54,.7-.97,.95-.43,.25-.93,.38-1.49,.38s-1.11-.14-1.58-.43c-.47-.29-.84-.69-1.12-1.21-.27-.52-.41-1.11-.41-1.78s.14-1.26,.41-1.77Zm4.86,.49c-.2-.37-.47-.65-.81-.85-.34-.2-.71-.29-1.12-.29s-.78,.1-1.12,.29c-.34,.19-.6,.47-.8,.84-.2,.37-.3,.8-.3,1.3s.1,.94,.3,1.31c.2,.37,.47,.66,.8,.85,.34,.2,.71,.29,1.12,.29s.78-.1,1.12-.29c.34-.2,.61-.48,.81-.85s.3-.81,.3-1.3-.1-.93-.3-1.3Z"/><path class="cls-3" d="M89.1,55.32c.27-.51,.65-.9,1.12-1.18,.48-.28,1.01-.42,1.6-.42,.51,0,.99,.12,1.43,.35,.44,.24,.78,.55,1.01,.93v-3.48h1.1v8.88h-1.1v-1.23c-.22,.39-.54,.71-.96,.97-.42,.25-.92,.38-1.49,.38s-1.11-.14-1.59-.43c-.48-.29-.85-.69-1.12-1.21-.27-.52-.41-1.11-.41-1.78s.14-1.26,.41-1.77Zm4.86,.49c-.2-.37-.47-.65-.81-.85s-.71-.29-1.12-.29-.78,.1-1.12,.29c-.34,.19-.6,.47-.8,.84s-.3,.8-.3,1.3,.1,.94,.3,1.31,.47,.66,.8,.85c.34,.2,.71,.29,1.12,.29s.78-.1,1.12-.29c.34-.2,.61-.48,.81-.85,.2-.37,.3-.81,.3-1.3s-.1-.93-.3-1.3Z"/><path class="cls-3" d="M103.17,57.53h-5.26c.04,.65,.26,1.15,.67,1.52,.4,.36,.89,.55,1.47,.55,.47,0,.87-.11,1.18-.33,.32-.22,.54-.51,.67-.88h1.18c-.18,.63-.53,1.15-1.06,1.54-.53,.4-1.18,.59-1.97,.59-.62,0-1.18-.14-1.67-.42-.49-.28-.88-.68-1.16-1.19-.28-.52-.42-1.11-.42-1.79s.14-1.28,.41-1.79c.27-.51,.65-.91,1.15-1.18s1.06-.41,1.7-.41,1.18,.14,1.66,.41c.48,.27,.85,.65,1.11,1.12s.39,1.01,.39,1.61c0,.21-.01,.43-.04,.66Zm-1.37-1.96c-.18-.3-.43-.53-.75-.68-.32-.16-.67-.23-1.05-.23-.55,0-1.02,.18-1.41,.53-.39,.35-.61,.84-.67,1.46h4.15c0-.42-.09-.77-.28-1.07Z"/><path class="cls-3" d="M107.85,55.32c.27-.51,.65-.9,1.12-1.18,.48-.28,1.01-.42,1.6-.42,.51,0,.99,.12,1.43,.35,.44,.24,.78,.55,1.01,.93v-3.48h1.1v8.88h-1.1v-1.23c-.22,.39-.54,.71-.96,.97-.42,.25-.92,.38-1.49,.38s-1.11-.14-1.59-.43c-.48-.29-.85-.69-1.12-1.21-.27-.52-.41-1.11-.41-1.78s.14-1.26,.41-1.77Zm4.86,.49c-.2-.37-.47-.65-.81-.85s-.71-.29-1.12-.29-.78,.1-1.12,.29c-.34,.19-.6,.47-.8,.84s-.3,.8-.3,1.3,.1,.94,.3,1.31,.47,.66,.8,.85c.34,.2,.71,.29,1.12,.29s.78-.1,1.12-.29c.34-.2,.61-.48,.81-.85,.2-.37,.3-.81,.3-1.3s-.1-.93-.3-1.3Z"/><path class="cls-3" d="M121.93,57.53h-5.26c.04,.65,.26,1.15,.67,1.52,.4,.36,.89,.55,1.47,.55,.47,0,.87-.11,1.18-.33,.32-.22,.54-.51,.67-.88h1.18c-.18,.63-.53,1.15-1.06,1.54-.53,.4-1.18,.59-1.97,.59-.62,0-1.18-.14-1.67-.42-.49-.28-.88-.68-1.16-1.19-.28-.52-.42-1.11-.42-1.79s.14-1.28,.41-1.79c.27-.51,.65-.91,1.15-1.18s1.06-.41,1.7-.41,1.18,.14,1.66,.41c.48,.27,.85,.65,1.11,1.12s.39,1.01,.39,1.61c0,.21-.01,.43-.04,.66Zm-1.37-1.96c-.18-.3-.43-.53-.75-.68-.32-.16-.67-.23-1.05-.23-.55,0-1.02,.18-1.41,.53-.39,.35-.61,.84-.67,1.46h4.15c0-.42-.09-.77-.28-1.07Z"/><path class="cls-3" d="M132.44,53.83v6.58h-1.09v-.97c-.21,.34-.5,.6-.87,.79-.37,.19-.78,.28-1.23,.28-.51,0-.97-.11-1.38-.32-.41-.21-.73-.53-.97-.95-.24-.42-.35-.94-.35-1.55v-3.85h1.08v3.71c0,.65,.16,1.15,.49,1.49s.78,.52,1.34,.52,1.04-.18,1.38-.54c.34-.36,.5-.88,.5-1.57v-3.61h1.09Z"/><path class="cls-3" d="M143.56,54.03c.4,.21,.72,.53,.95,.95,.23,.42,.35,.94,.35,1.55v3.88h-1.08v-3.72c0-.66-.16-1.16-.49-1.51-.32-.35-.76-.52-1.31-.52s-1.02,.18-1.36,.55c-.34,.36-.5,.89-.5,1.58v3.62h-1.08v-3.72c0-.66-.16-1.16-.49-1.51s-.76-.52-1.31-.52-1.02,.18-1.36,.55c-.34,.36-.5,.89-.5,1.58v3.62h-1.09v-6.58h1.09v.95c.22-.34,.51-.61,.87-.79,.36-.18,.77-.28,1.21-.28,.55,0,1.04,.12,1.46,.37,.42,.25,.74,.61,.95,1.09,.18-.46,.49-.82,.91-1.08,.42-.26,.9-.38,1.42-.38s.97,.11,1.37,.32Z"/><path class="cls-3" d="M8.63,69.72c.27-.51,.65-.9,1.13-1.18s1.04-.42,1.66-.42c.81,0,1.47,.2,2,.59,.52,.39,.87,.94,1.04,1.63h-1.18c-.11-.4-.33-.72-.65-.95-.32-.23-.73-.35-1.21-.35-.62,0-1.13,.21-1.51,.64-.38,.43-.58,1.03-.58,1.82s.19,1.4,.58,1.84c.38,.43,.89,.65,1.51,.65,.48,0,.88-.11,1.2-.34,.32-.22,.54-.54,.66-.96h1.18c-.18,.67-.53,1.21-1.06,1.61-.53,.4-1.19,.61-1.98,.61-.62,0-1.18-.14-1.66-.42-.48-.28-.86-.68-1.13-1.19-.27-.51-.41-1.11-.41-1.8s.14-1.27,.41-1.78Z"/><path class="cls-3" d="M17.1,74.49c-.5-.28-.89-.68-1.18-1.19-.28-.52-.43-1.11-.43-1.79s.15-1.27,.44-1.78,.69-.91,1.19-1.19c.5-.28,1.07-.41,1.69-.41s1.19,.14,1.69,.41c.5,.28,.9,.67,1.19,1.18s.44,1.11,.44,1.79-.15,1.28-.45,1.79c-.3,.52-.71,.91-1.22,1.19-.51,.28-1.08,.42-1.7,.42s-1.17-.14-1.67-.42Zm2.78-.82c.34-.18,.62-.46,.83-.83s.32-.82,.32-1.34-.1-.98-.31-1.34c-.21-.37-.48-.64-.82-.82-.34-.18-.7-.27-1.09-.27s-.77,.09-1.1,.27c-.33,.18-.6,.45-.8,.82-.2,.37-.3,.82-.3,1.34s.1,.99,.29,1.36c.2,.37,.46,.64,.79,.82s.69,.27,1.08,.27,.76-.09,1.1-.28Z"/><path class="cls-3" d="M28.74,68.84c.5,.48,.74,1.18,.74,2.09v3.88h-1.08v-3.72c0-.66-.16-1.16-.49-1.51-.33-.35-.78-.52-1.34-.52s-1.03,.18-1.37,.54-.51,.88-.51,1.57v3.64h-1.09v-6.58h1.09v.94c.22-.34,.51-.6,.88-.78s.78-.28,1.23-.28c.8,0,1.45,.24,1.94,.73Z"/><path class="cls-3" d="M32.4,76.23c0,.58-.15,1.01-.44,1.28-.3,.27-.73,.41-1.3,.41h-.64v-.92h.46c.3,0,.52-.06,.64-.18,.12-.12,.19-.32,.19-.61v-7.98h1.09v8Zm-1.06-9.29c-.14-.14-.21-.32-.21-.53s.07-.38,.21-.53c.14-.14,.31-.22,.52-.22s.38,.07,.52,.22c.14,.14,.21,.32,.21,.53s-.07,.38-.21,.53c-.14,.14-.31,.22-.52,.22s-.38-.07-.52-.22Z"/><path class="cls-3" d="M40.08,68.23v6.58h-1.09v-.97c-.21,.34-.5,.6-.87,.79-.37,.19-.78,.28-1.23,.28-.51,0-.97-.11-1.38-.32s-.73-.53-.97-.95-.35-.94-.35-1.55v-3.85h1.08v3.71c0,.65,.16,1.15,.49,1.49s.78,.52,1.34,.52,1.04-.18,1.38-.54c.34-.36,.5-.88,.5-1.57v-3.61h1.09Z"/><path class="cls-3" d="M47.07,68.84c.5,.48,.74,1.18,.74,2.09v3.88h-1.08v-3.72c0-.66-.16-1.16-.49-1.51-.33-.35-.78-.52-1.34-.52s-1.03,.18-1.37,.54-.51,.88-.51,1.57v3.64h-1.09v-6.58h1.09v.94c.22-.34,.51-.6,.88-.78s.78-.28,1.23-.28c.8,0,1.45,.24,1.94,.73Z"/><path class="cls-3" d="M50.94,69.13v3.88c0,.32,.07,.55,.2,.68,.14,.13,.37,.2,.71,.2h.8v.92h-.98c-.61,0-1.06-.14-1.37-.42-.3-.28-.46-.74-.46-1.38v-3.88h-.85v-.9h.85v-1.66h1.09v1.66h1.72v.9h-1.72Z"/><path class="cls-3" d="M55.17,74.49c-.5-.28-.89-.68-1.18-1.19-.28-.52-.43-1.11-.43-1.79s.15-1.27,.44-1.78,.69-.91,1.19-1.19c.5-.28,1.07-.41,1.69-.41s1.19,.14,1.69,.41c.5,.28,.9,.67,1.19,1.18s.44,1.11,.44,1.79-.15,1.28-.45,1.79c-.3,.52-.71,.91-1.22,1.19-.51,.28-1.08,.42-1.7,.42s-1.17-.14-1.67-.42Zm2.78-.82c.34-.18,.62-.46,.83-.83s.32-.82,.32-1.34-.1-.98-.31-1.34c-.21-.37-.48-.64-.82-.82-.34-.18-.7-.27-1.09-.27s-.77,.09-1.1,.27c-.33,.18-.6,.45-.8,.82-.2,.37-.3,.82-.3,1.34s.1,.99,.29,1.36c.2,.37,.46,.64,.79,.82s.69,.27,1.08,.27,.76-.09,1.1-.28Z"/><path class="cls-3" d="M64.86,69.72c.27-.51,.65-.9,1.12-1.18,.48-.28,1.01-.42,1.6-.42,.51,0,.99,.12,1.43,.35,.44,.24,.78,.55,1.01,.93v-3.48h1.1v8.88h-1.1v-1.24c-.22,.39-.54,.71-.96,.97-.42,.25-.92,.38-1.49,.38s-1.11-.14-1.59-.43c-.48-.29-.85-.69-1.12-1.21-.27-.52-.41-1.11-.41-1.78s.14-1.26,.41-1.77Zm4.86,.49c-.2-.37-.47-.65-.81-.85-.34-.2-.71-.29-1.12-.29s-.78,.1-1.12,.29c-.34,.19-.6,.47-.8,.84-.2,.37-.3,.8-.3,1.3s.1,.94,.3,1.31c.2,.37,.47,.66,.8,.85,.34,.2,.71,.29,1.12,.29s.78-.1,1.12-.29c.34-.2,.61-.48,.81-.85s.3-.81,.3-1.3-.1-.93-.3-1.3Z"/><path class="cls-3" d="M78.93,71.93h-5.26c.04,.65,.26,1.15,.67,1.52,.4,.36,.89,.55,1.47,.55,.47,0,.87-.11,1.18-.33,.32-.22,.54-.51,.67-.88h1.18c-.18,.63-.53,1.15-1.06,1.54-.53,.4-1.18,.59-1.97,.59-.62,0-1.18-.14-1.67-.42-.49-.28-.88-.68-1.16-1.19-.28-.52-.42-1.11-.42-1.79s.14-1.28,.41-1.79c.27-.51,.65-.91,1.15-1.18,.49-.28,1.06-.41,1.7-.41s1.18,.14,1.66,.41c.48,.27,.85,.65,1.11,1.12,.26,.48,.39,1.01,.39,1.61,0,.21-.01,.43-.04,.66Zm-1.37-1.96c-.18-.3-.43-.53-.75-.68-.32-.16-.67-.23-1.05-.23-.55,0-1.02,.18-1.41,.53-.39,.35-.61,.84-.67,1.46h4.15c0-.42-.09-.77-.28-1.07Z"/><path class="cls-3" d="M83.65,66.94c-.14-.14-.22-.32-.22-.53s.07-.38,.22-.53c.14-.14,.32-.22,.53-.22s.37,.07,.51,.22,.21,.32,.21,.53-.07,.38-.21,.53c-.14,.14-.31,.22-.51,.22s-.38-.07-.53-.22Zm1.06,1.28v6.58h-1.09v-6.58h1.09Z"/><path class="cls-3" d="M91.71,68.84c.5,.48,.74,1.18,.74,2.09v3.88h-1.08v-3.72c0-.66-.16-1.16-.49-1.51-.33-.35-.78-.52-1.34-.52s-1.03,.18-1.37,.54-.51,.88-.51,1.57v3.64h-1.09v-6.58h1.09v.94c.22-.34,.51-.6,.88-.78s.78-.28,1.23-.28c.8,0,1.45,.24,1.94,.73Z"/><path class="cls-3" d="M96.92,69.13h-1.38v5.68h-1.09v-5.68h-.85v-.9h.85v-.47c0-.74,.19-1.27,.57-1.61s.99-.51,1.83-.51v.91c-.48,0-.82,.09-1.01,.28-.2,.19-.29,.5-.29,.93v.47h1.38v.9Z"/><path class="cls-3" d="M99.39,74.49c-.5-.28-.89-.68-1.18-1.19-.28-.52-.43-1.11-.43-1.79s.15-1.27,.44-1.78,.69-.91,1.19-1.19c.5-.28,1.07-.41,1.69-.41s1.19,.14,1.69,.41c.5,.28,.9,.67,1.19,1.18s.44,1.11,.44,1.79-.15,1.28-.45,1.79c-.3,.52-.71,.91-1.22,1.19-.51,.28-1.08,.42-1.7,.42s-1.17-.14-1.67-.42Zm2.78-.82c.34-.18,.62-.46,.83-.83s.32-.82,.32-1.34-.1-.98-.31-1.34c-.21-.37-.48-.64-.82-.82-.34-.18-.7-.27-1.09-.27s-.77,.09-1.1,.27c-.33,.18-.6,.45-.8,.82-.2,.37-.3,.82-.3,1.34s.1,.99,.29,1.36c.2,.37,.46,.64,.79,.82s.69,.27,1.08,.27,.76-.09,1.1-.28Z"/><path class="cls-3" d="M107.79,68.42c.36-.21,.79-.31,1.3-.31v1.13h-.29c-1.22,0-1.84,.66-1.84,1.99v3.58h-1.09v-6.58h1.09v1.07c.19-.38,.47-.67,.82-.88Z"/><path class="cls-3" d="M119.63,68.43c.4,.21,.72,.53,.95,.95,.23,.42,.35,.94,.35,1.55v3.88h-1.08v-3.72c0-.66-.16-1.16-.49-1.51-.32-.35-.76-.52-1.31-.52s-1.02,.18-1.36,.55-.5,.89-.5,1.58v3.62h-1.08v-3.72c0-.66-.16-1.16-.49-1.51-.32-.35-.76-.52-1.31-.52s-1.02,.18-1.36,.55-.5,.89-.5,1.58v3.62h-1.09v-6.58h1.09v.95c.22-.34,.51-.61,.87-.79s.77-.28,1.21-.28c.55,0,1.04,.12,1.46,.37s.74,.61,.95,1.09c.18-.46,.49-.82,.91-1.08,.42-.26,.9-.38,1.42-.38s.97,.11,1.37,.32Z"/><path class="cls-3" d="M122.71,69.72c.27-.51,.65-.9,1.12-1.18,.48-.28,1.01-.42,1.59-.42s1.08,.12,1.5,.37c.42,.25,.74,.56,.95,.94v-1.2h1.1v6.58h-1.1v-1.22c-.22,.38-.54,.7-.97,.95-.43,.25-.93,.38-1.49,.38s-1.11-.14-1.58-.43-.84-.69-1.12-1.21c-.27-.52-.41-1.11-.41-1.78s.14-1.26,.41-1.77Zm4.86,.49c-.2-.37-.47-.65-.81-.85-.34-.2-.71-.29-1.12-.29s-.78,.1-1.12,.29c-.34,.19-.6,.47-.8,.84-.2,.37-.3,.8-.3,1.3s.1,.94,.3,1.31c.2,.37,.47,.66,.8,.85,.34,.2,.71,.29,1.12,.29s.78-.1,1.12-.29c.34-.2,.61-.48,.81-.85s.3-.81,.3-1.3-.1-.93-.3-1.3Z"/><path class="cls-3" d="M134.82,73.65c.32-.22,.54-.54,.66-.96h1.18c-.16,.62-.47,1.13-.94,1.53-.47,.4-1.05,.62-1.76,.68v.6c.47,0,.85,.09,1.13,.3s.42,.5,.42,.89-.14,.68-.41,.9c-.27,.22-.62,.34-1.06,.34h-1.38v-.71h1.16c.26,0,.46-.04,.58-.12s.19-.22,.19-.41-.06-.32-.19-.4-.32-.12-.58-.12h-.6v-1.28c-.55-.06-1.04-.23-1.46-.52-.42-.29-.75-.68-.99-1.18-.24-.49-.35-1.05-.35-1.69,0-.68,.14-1.27,.41-1.78,.27-.51,.65-.9,1.13-1.18s1.04-.42,1.66-.42c.81,0,1.47,.2,2,.59,.52,.39,.87,.94,1.04,1.63h-1.18c-.11-.4-.33-.72-.65-.95-.32-.23-.73-.35-1.21-.35-.62,0-1.13,.21-1.51,.64-.38,.43-.58,1.03-.58,1.82s.19,1.4,.58,1.84c.38,.43,.89,.65,1.51,.65,.48,0,.88-.11,1.2-.34Z"/><path class="cls-3" d="M139.3,74.49c-.5-.28-.89-.68-1.18-1.19-.28-.52-.43-1.11-.43-1.79s.15-1.27,.44-1.78,.69-.91,1.19-1.19c.5-.28,1.07-.41,1.69-.41s1.19,.14,1.69,.41c.5,.28,.9,.67,1.19,1.18s.44,1.11,.44,1.79-.15,1.28-.45,1.79c-.3,.52-.71,.91-1.22,1.19-.51,.28-1.08,.42-1.7,.42s-1.17-.14-1.67-.42Zm2.78-.82c.34-.18,.62-.46,.83-.83s.32-.82,.32-1.34-.1-.98-.31-1.34c-.21-.37-.48-.64-.82-.82-.34-.18-.7-.27-1.09-.27s-.77,.09-1.1,.27c-.33,.18-.6,.45-.8,.82-.2,.37-.3,.82-.3,1.34s.1,.99,.29,1.36c.2,.37,.46,.64,.79,.82s.69,.27,1.08,.27,.76-.09,1.1-.28Zm-2.41-7.18c.21-.22,.48-.32,.8-.32,.15,0,.28,.03,.39,.08s.24,.13,.39,.22c.11,.08,.21,.14,.3,.19,.09,.04,.18,.07,.29,.07,.14,0,.25-.04,.35-.13s.16-.22,.18-.38h.62c-.05,.4-.18,.71-.4,.92-.22,.22-.48,.32-.8,.32-.15,0-.29-.03-.4-.08-.12-.05-.25-.13-.39-.23-.13-.08-.23-.14-.31-.18s-.17-.06-.27-.06c-.14,0-.25,.04-.34,.13s-.15,.22-.17,.4h-.64c.06-.41,.19-.72,.4-.94Z"/><path class="cls-3" d="M151.75,71.93h-5.26c.04,.65,.26,1.15,.67,1.52,.4,.36,.89,.55,1.47,.55,.47,0,.87-.11,1.18-.33,.32-.22,.54-.51,.67-.88h1.18c-.18,.63-.53,1.15-1.06,1.54-.53,.4-1.18,.59-1.97,.59-.62,0-1.18-.14-1.67-.42-.49-.28-.88-.68-1.16-1.19-.28-.52-.42-1.11-.42-1.79s.14-1.28,.41-1.79c.27-.51,.65-.91,1.15-1.18,.49-.28,1.06-.41,1.7-.41s1.18,.14,1.66,.41c.48,.27,.85,.65,1.11,1.12,.26,.48,.39,1.01,.39,1.61,0,.21-.01,.43-.04,.66Zm-1.37-1.96c-.18-.3-.43-.53-.75-.68-.32-.16-.67-.23-1.05-.23-.55,0-1.02,.18-1.41,.53-.39,.35-.61,.84-.67,1.46h4.15c0-.42-.09-.77-.28-1.07Z"/><path class="cls-3" d="M154.2,74.65c-.4-.17-.72-.41-.95-.72-.23-.31-.36-.66-.38-1.06h1.13c.03,.33,.19,.6,.46,.8,.28,.21,.64,.31,1.09,.31,.42,0,.74-.09,.98-.28,.24-.18,.36-.42,.36-.7s-.13-.5-.38-.64c-.26-.14-.65-.28-1.19-.41-.49-.13-.89-.26-1.19-.39-.31-.13-.57-.33-.79-.59-.22-.26-.33-.6-.33-1.03,0-.34,.1-.64,.3-.92,.2-.28,.48-.5,.85-.67,.37-.16,.79-.25,1.26-.25,.73,0,1.32,.18,1.76,.55,.45,.37,.69,.87,.72,1.51h-1.09c-.02-.34-.16-.62-.41-.83s-.59-.31-1.01-.31c-.39,0-.7,.08-.94,.25s-.35,.39-.35,.66c0,.22,.07,.39,.21,.53,.14,.14,.32,.25,.53,.34s.51,.18,.88,.28c.47,.13,.86,.25,1.15,.38s.55,.31,.76,.56,.32,.57,.33,.97c0,.36-.1,.68-.3,.97-.2,.29-.48,.51-.85,.68-.36,.16-.78,.25-1.25,.25-.5,0-.96-.09-1.36-.26Z"/><path class="cls-3" d="M159.31,74.66c-.14-.14-.22-.32-.22-.53s.07-.38,.22-.53,.32-.22,.53-.22,.37,.07,.51,.22c.14,.14,.21,.32,.21,.53s-.07,.38-.21,.53c-.14,.14-.31,.22-.51,.22s-.38-.07-.53-.22Z"/></g></g></svg>