<?xml version="1.0" encoding="UTF-8"?><svg id="Layer_1" xmlns="http://www.w3.org/2000/svg" viewBox="0 0 300 300"><defs><style>.cls-1{fill:#fff;}.cls-2{fill:#ffc800;}.cls-3{fill:#2b454e;}.cls-4{fill:#c8c8c8;}.cls-5{opacity:.1;}.cls-6{fill:#375a64;}.cls-7{fill:#dcdcdc;}.cls-8{fill:#a8a8a8;}.cls-9{fill:#ececec;}.cls-10{fill:#1a2e35;}</style></defs><g><path class="cls-9" d="M75.68,128.58h-6.4v-6.9h-6.9v-6.4h6.9v-6.9h6.4v6.9h6.9v6.4h-6.9v6.9Zm-5.49-.91h4.58v-6.9h6.9v-4.58h-6.9v-6.9h-4.58v6.9h-6.9v4.58h6.9v6.9Z"/><path class="cls-9" d="M244.48,89.28h-4.34v-4.68h-4.68v-4.34h4.68v-4.68h4.34v4.68h4.68v4.34h-4.68v4.68Zm-3.72-.62h3.11v-4.68h4.68v-3.11h-4.68v-4.68h-3.11v4.68h-4.68v3.11h4.68v4.68Z"/><polygon class="cls-9" points="236.46 56.55 236.46 62.95 229.55 62.95 229.55 69.85 223.16 69.85 223.16 62.95 216.25 62.95 216.25 56.55 223.16 56.55 223.16 49.65 229.55 49.65 229.55 56.55 236.46 56.55"/></g><g><g><rect class="cls-9" x="219.71" y="175.74" width="35.91" height="53.87" transform="translate(475.33 405.35) rotate(180)"/><rect class="cls-7" x="215.37" y="161.28" width="44.58" height="14.46" transform="translate(475.33 337.02) rotate(180)"/><g><rect class="cls-4" x="256.99" y="163.25" width="1.26" height="10.25" rx=".56" ry=".56" transform="translate(515.24 336.75) rotate(180)"/><rect class="cls-4" x="254.64" y="163.25" width="1.26" height="10.25" rx=".56" ry=".56" transform="translate(510.54 336.75) rotate(180)"/><rect class="cls-4" x="252.29" y="163.25" width="1.26" height="10.25" rx=".56" ry=".56" transform="translate(505.85 336.75) rotate(180)"/><rect class="cls-4" x="249.94" y="163.25" width="1.26" height="10.25" rx=".56" ry=".56" transform="translate(501.15 336.75) rotate(180)"/><rect class="cls-4" x="247.6" y="163.25" width="1.26" height="10.25" rx=".56" ry=".56" transform="translate(496.46 336.75) rotate(180)"/><rect class="cls-4" x="245.25" y="163.25" width="1.26" height="10.25" rx=".56" ry=".56" transform="translate(491.76 336.75) rotate(180)"/><rect class="cls-4" x="242.9" y="163.25" width="1.26" height="10.25" rx=".56" ry=".56" transform="translate(487.07 336.75) rotate(180)"/><rect class="cls-4" x="240.55" y="163.25" width="1.26" height="10.25" rx=".56" ry=".56" transform="translate(482.37 336.75) rotate(180)"/><rect class="cls-4" x="238.21" y="163.25" width="1.26" height="10.25" rx=".56" ry=".56" transform="translate(477.68 336.75) rotate(180)"/><rect class="cls-4" x="235.86" y="163.25" width="1.26" height="10.25" rx=".56" ry=".56" transform="translate(472.98 336.75) rotate(180)"/><rect class="cls-4" x="233.51" y="163.25" width="1.26" height="10.25" rx=".56" ry=".56" transform="translate(468.29 336.75) rotate(180)"/><rect class="cls-4" x="231.16" y="163.25" width="1.26" height="10.25" rx=".56" ry=".56" transform="translate(463.59 336.75) rotate(180)"/><rect class="cls-4" x="228.82" y="163.25" width="1.26" height="10.25" rx=".56" ry=".56" transform="translate(458.9 336.75) rotate(180)"/><rect class="cls-4" x="226.47" y="163.25" width="1.26" height="10.25" rx=".56" ry=".56" transform="translate(454.2 336.75) rotate(180)"/><rect class="cls-4" x="224.12" y="163.25" width="1.26" height="10.25" rx=".56" ry=".56" transform="translate(449.51 336.75) rotate(180)"/><rect class="cls-4" x="221.77" y="163.25" width="1.26" height="10.25" rx=".56" ry=".56" transform="translate(444.81 336.75) rotate(180)"/><rect class="cls-4" x="219.43" y="163.25" width="1.26" height="10.25" rx=".56" ry=".56" transform="translate(440.12 336.75) rotate(180)"/><rect class="cls-4" x="217.08" y="163.25" width="1.26" height="10.25" rx=".56" ry=".56" transform="translate(435.42 336.75) rotate(180)"/></g><rect class="cls-1" x="225.71" y="191.25" width="23.91" height="23.91" transform="translate(475.33 406.4) rotate(180)"/><g><path class="cls-7" d="M261.28,235.6h0c0-2.51-2.03-4.52-4.52-4.52h-8.96c-2.49,0-4.52,2.02-4.52,4.51h0c0,2.51,2.03,4.54,4.52,4.54h8.96c2.49,0,4.52-2.03,4.52-4.52Z"/><path class="cls-9" d="M261.28,235.6h0c0-2.51-2.03-4.52-4.52-4.52h-4.48v9.05h4.48c2.49,0,4.52-2.03,4.52-4.52Z"/></g><g><rect class="cls-7" x="205.3" y="223.85" width="18" height="9.05" rx="4.52" ry="4.52"/><path class="cls-9" d="M205.3,228.38h0c0,2.51,2.03,4.52,4.52,4.52h4.48v-9.05h-4.48c-2.49,0-4.52,2.03-4.52,4.52Z"/></g><g><path class="cls-7" d="M195.14,230.22h0c1.76,1.77,4.62,1.76,6.39,0l6.33-6.33c1.76-1.76,1.77-4.62,0-6.39h0c-1.76-1.77-4.63-1.77-6.4,0l-6.33,6.33c-1.76,1.76-1.76,4.63,0,6.4Z"/><path class="cls-9" d="M195.14,230.22h0c1.76,1.77,4.62,1.76,6.39,0l3.17-3.17-6.4-6.4-3.17,3.17c-1.76,1.76-1.76,4.63,0,6.4Z"/></g><g><path class="cls-7" d="M236.1,237.42h0c0-2.51-2.03-4.52-4.52-4.52h-8.96c-2.49,0-4.52,2.02-4.52,4.51h0c0,2.51,2.03,4.54,4.52,4.54h8.96c2.49,0,4.52-2.03,4.52-4.52Z"/><path class="cls-9" d="M236.1,237.42h0c0-2.51-2.03-4.52-4.52-4.52h-4.48v9.05h4.48c2.49,0,4.52-2.03,4.52-4.52Z"/></g></g><g><path class="cls-9" d="M53.44,158.32h35.37c1.75,0,3.17,1.42,3.17,3.17v59.42c0,4.68-3.8,8.48-8.48,8.48h-24.77c-4.68,0-8.48-3.8-8.48-8.48v-59.42c0-1.75,1.42-3.17,3.17-3.17Z" transform="translate(142.24 387.7) rotate(180)"/><rect class="cls-9" x="59.04" y="149.3" width="24.15" height="11.07" transform="translate(142.24 309.66) rotate(180)"/><g><rect class="cls-1" x="50.26" y="181.47" width="41.72" height="28.13" transform="translate(142.24 391.06) rotate(180)"/><g><rect class="cls-7" x="50.26" y="203.84" width="41.72" height="2.55" transform="translate(142.24 410.22) rotate(180)"/><rect class="cls-7" x="50.26" y="184.67" width="41.72" height="2.55" transform="translate(142.24 371.89) rotate(180)"/></g></g><g><rect class="cls-7" x="57.36" y="141.55" width="27.52" height="10.25" transform="translate(142.24 293.34) rotate(180)"/><rect class="cls-4" x="55.92" y="151.8" width="30.41" height="3.03" transform="translate(142.24 306.63) rotate(180)"/><g><rect class="cls-4" x="82.23" y="142.98" width="1.26" height="7.39" rx=".56" ry=".56" transform="translate(165.71 293.34) rotate(180)"/><rect class="cls-4" x="79.88" y="142.98" width="1.26" height="7.39" rx=".56" ry=".56" transform="translate(161.02 293.34) rotate(180)"/><rect class="cls-4" x="77.53" y="142.98" width="1.26" height="7.39" rx=".56" ry=".56" transform="translate(156.32 293.34) rotate(180)"/><rect class="cls-4" x="75.18" y="142.98" width="1.26" height="7.39" rx=".56" ry=".56" transform="translate(151.63 293.34) rotate(180)"/><rect class="cls-4" x="72.83" y="142.98" width="1.26" height="7.39" rx=".56" ry=".56" transform="translate(146.93 293.34) rotate(180)"/><rect class="cls-4" x="70.49" y="142.98" width="1.26" height="7.39" rx=".56" ry=".56" transform="translate(142.24 293.34) rotate(180)"/><rect class="cls-4" x="68.14" y="142.98" width="1.26" height="7.39" rx=".56" ry=".56" transform="translate(137.54 293.34) rotate(180)"/><rect class="cls-4" x="65.79" y="142.98" width="1.26" height="7.39" rx=".56" ry=".56" transform="translate(132.85 293.34) rotate(180)"/><rect class="cls-4" x="63.44" y="142.98" width="1.26" height="7.39" rx=".56" ry=".56" transform="translate(128.15 293.34) rotate(180)"/><rect class="cls-4" x="61.1" y="142.98" width="1.26" height="7.39" rx=".56" ry=".56" transform="translate(123.46 293.34) rotate(180)"/><rect class="cls-4" x="58.75" y="142.98" width="1.26" height="7.39" rx=".56" ry=".56" transform="translate(118.76 293.34) rotate(180)"/></g></g></g></g><ellipse class="cls-9" cx="155.77" cy="252.4" rx="103.23" ry="10.01"/><path class="cls-10" d="M47.18,229.44c69.57-.65,147.61-.66,217.17,0-69.57,.66-147.61,.65-217.17,0h0Z"/><g><g><g><rect class="cls-2" x="85.81" y="67.38" width="136.21" height="180.93"/><g class="cls-5"><rect x="85.81" y="67.38" width="136.21" height="180.93"/></g></g><rect class="cls-2" x="89.52" y="67.38" width="136.21" height="180.93"/></g><g><rect class="cls-9" x="97.5" y="75.36" width="120.25" height="163.01" transform="translate(-1.98 2.02) rotate(-.73)"/><rect class="cls-7" x="74.27" y="96.74" width="163.01" height="120.25" transform="translate(-4.42 309.21) rotate(-88.76)"/><rect class="cls-1" x="95.65" y="75.36" width="120.25" height="163.01"/><g><g><rect class="cls-9" x="109.38" y="169.26" width="10.21" height="10.21"/><g><rect class="cls-6" x="125.1" y="169.26" width="33.08" height="1.5"/><rect class="cls-9" x="125.1" y="172.16" width="77.06" height="1.5"/><rect class="cls-9" x="125.1" y="175.06" width="77.06" height="1.5"/><rect class="cls-9" x="125.1" y="177.97" width="77.06" height="1.5"/></g><path class="cls-2" d="M110.13,173.83c.38,.31,.74,.64,1.09,.97,.36,.33,.7,.67,1.05,1.01,.69,.68,1.35,1.38,2,2.09l-1.17,.07c.93-1.94,2-3.79,3.18-5.58,.59-.89,1.22-1.76,1.89-2.61,.67-.84,1.38-1.67,2.18-2.43-.3,1.07-.71,2.07-1.14,3.06-.44,.99-.92,1.95-1.43,2.89-1.03,1.88-2.17,3.69-3.46,5.41l-.64,.86-.53-.78c-.54-.8-1.07-1.6-1.58-2.42-.25-.42-.51-.82-.74-1.25-.24-.42-.48-.85-.7-1.28Z"/></g><g><rect class="cls-9" x="109.38" y="186.15" width="10.21" height="10.21"/><g><rect class="cls-6" x="125.1" y="186.15" width="33.08" height="1.5"/><rect class="cls-9" x="125.1" y="189.05" width="77.06" height="1.5"/><rect class="cls-9" x="125.1" y="191.96" width="77.06" height="1.5"/><rect class="cls-9" x="125.1" y="194.86" width="77.06" height="1.5"/></g></g><g><rect class="cls-9" x="109.38" y="203.04" width="10.21" height="10.21"/><g><rect class="cls-6" x="125.1" y="203.04" width="33.08" height="1.5"/><rect class="cls-9" x="125.1" y="205.95" width="77.06" height="1.5"/><rect class="cls-9" x="125.1" y="208.85" width="77.06" height="1.5"/><rect class="cls-9" x="125.1" y="211.76" width="77.06" height="1.5"/></g></g><rect class="cls-9" x="150.53" y="223.14" width="51.64" height="1.5"/></g><g><rect class="cls-6" x="141.37" y="116.3" width="28" height="1.5"/><rect class="cls-9" x="141.37" y="119.2" width="60.79" height="1.5"/><rect class="cls-9" x="141.37" y="122.11" width="60.79" height="1.5"/><rect class="cls-9" x="141.37" y="127.91" width="60.79" height="1.5"/><rect class="cls-9" x="141.37" y="130.82" width="26.44" height="1.5"/></g><g><rect class="cls-2" x="109.38" y="90.96" width="92.79" height="14.21"/><g><path class="cls-1" d="M115.77,102.47v-8.3h1.61v8.3h-1.61Z"/><path class="cls-1" d="M122.48,97.15v5.32h-1.61v-8.3h1.25l4.33,5.45v-5.44h1.61v8.29h-1.31l-4.27-5.32Z"/><path class="cls-1" d="M136.5,96.34c-.05-.05-.15-.13-.3-.22-.14-.09-.32-.19-.53-.27-.21-.09-.43-.17-.67-.23-.24-.06-.49-.09-.74-.09-.44,0-.78,.08-.99,.25-.22,.16-.33,.39-.33,.69,0,.17,.04,.31,.12,.43,.08,.11,.2,.21,.36,.3,.16,.09,.35,.16,.59,.23,.24,.07,.51,.14,.82,.22,.41,.11,.77,.23,1.11,.35,.33,.12,.61,.28,.84,.47,.23,.19,.41,.41,.53,.67,.12,.26,.19,.58,.19,.96,0,.44-.08,.82-.25,1.14-.17,.32-.39,.57-.68,.77-.28,.19-.61,.34-.98,.43-.37,.09-.76,.13-1.16,.13-.62,0-1.24-.09-1.85-.28-.61-.19-1.15-.45-1.64-.8l.71-1.39c.07,.07,.2,.16,.38,.27,.18,.11,.4,.23,.65,.34,.25,.11,.53,.21,.83,.29,.3,.08,.62,.12,.94,.12,.89,0,1.33-.28,1.33-.85,0-.18-.05-.33-.15-.46-.1-.12-.25-.23-.43-.33-.19-.09-.41-.18-.68-.26-.27-.08-.56-.16-.89-.26-.4-.11-.74-.23-1.03-.36-.29-.13-.54-.28-.73-.46-.2-.18-.34-.38-.44-.61-.1-.23-.15-.5-.15-.82,0-.42,.08-.8,.23-1.12,.16-.33,.37-.6,.65-.82,.28-.22,.6-.38,.96-.5,.37-.11,.76-.17,1.18-.17,.59,0,1.12,.09,1.61,.27,.49,.18,.92,.4,1.29,.65l-.71,1.31Z"/><path class="cls-1" d="M143.98,101.1c.38,0,.7-.08,.96-.23s.47-.36,.63-.61c.16-.25,.27-.54,.34-.86,.07-.32,.1-.66,.1-1v-4.23h1.6v4.23c0,.57-.07,1.1-.2,1.6-.14,.5-.35,.94-.64,1.31-.29,.37-.67,.67-1.13,.89-.46,.22-1.01,.33-1.65,.33s-1.23-.11-1.69-.35c-.46-.23-.84-.53-1.13-.91-.29-.38-.5-.82-.63-1.32-.13-.5-.19-1.02-.19-1.56v-4.23h1.61v4.23c0,.35,.03,.69,.1,1.01,.07,.32,.18,.61,.34,.86,.16,.25,.37,.45,.63,.6,.26,.15,.57,.23,.95,.23Z"/><path class="cls-1" d="M151,102.47v-8.3h3.67c.38,0,.73,.08,1.06,.24,.32,.16,.6,.37,.84,.63,.23,.26,.42,.56,.55,.89,.13,.33,.2,.66,.2,1,0,.54-.13,1.03-.4,1.47-.27,.44-.63,.76-1.09,.95l1.9,3.12h-1.81l-1.7-2.78h-1.59v2.78h-1.61Zm1.61-4.2h2.02c.15,0,.29-.04,.42-.11,.13-.07,.24-.17,.33-.29,.09-.12,.17-.26,.22-.43,.05-.16,.08-.34,.08-.53s-.03-.37-.09-.54c-.06-.16-.15-.31-.25-.43-.11-.12-.23-.21-.36-.28-.14-.07-.27-.1-.42-.1h-1.95v2.69Z"/><path class="cls-1" d="M162.77,94.16h1.43l3.16,8.3h-1.66l-.77-2.07h-2.9l-.76,2.07h-1.66l3.17-8.3Zm1.86,5.1l-1.15-3.26-1.19,3.26h2.34Z"/><path class="cls-1" d="M171.63,97.15v5.32h-1.61v-8.3h1.25l4.33,5.45v-5.44h1.61v8.29h-1.31l-4.27-5.32Z"/><path class="cls-1" d="M180.19,98.26c0-.51,.09-1.01,.28-1.5,.18-.5,.45-.94,.8-1.33,.35-.39,.78-.71,1.29-.95,.51-.24,1.08-.36,1.73-.36,.76,0,1.43,.17,1.98,.5,.56,.34,.97,.77,1.25,1.31l-1.24,.85c-.11-.23-.24-.43-.4-.59-.16-.16-.32-.29-.5-.38-.18-.09-.37-.16-.56-.2-.2-.04-.39-.06-.57-.06-.41,0-.76,.08-1.06,.25-.3,.16-.55,.38-.75,.64-.2,.26-.35,.56-.45,.89-.1,.33-.15,.66-.15,.99,0,.37,.06,.72,.18,1.06,.12,.34,.28,.64,.5,.89,.21,.26,.47,.46,.77,.62,.3,.16,.63,.23,.99,.23,.19,0,.38-.02,.59-.07,.2-.05,.4-.12,.58-.22,.18-.1,.35-.23,.51-.39,.16-.16,.28-.35,.37-.58l1.32,.76c-.13,.31-.32,.59-.57,.82-.25,.24-.52,.44-.83,.6-.31,.16-.64,.29-.99,.37-.35,.09-.69,.13-1.03,.13-.59,0-1.13-.12-1.63-.37-.49-.25-.91-.57-1.27-.98-.36-.4-.63-.86-.83-1.37-.2-.51-.3-1.03-.3-1.56Z"/><path class="cls-1" d="M196.24,101.05v1.42h-5.77v-8.3h5.66v1.42h-4.05v2h3.5v1.31h-3.5v2.16h4.15Z"/></g></g><g><path class="cls-9" d="M202.42,161.82H109.12v-19.96h93.3v19.96Zm-92.79-.51h92.28v-18.94H109.63v18.94Z"/><rect class="cls-9" x="109.38" y="153.62" width="92.79" height=".51"/><rect class="cls-9" x="109.38" y="145.95" width="92.79" height=".51"/><rect class="cls-9" x="139.41" y="142.12" width=".51" height="19.45"/><rect class="cls-9" x="171.62" y="142.12" width=".51" height="19.45"/><path class="cls-6" d="M114.68,144.2c1.64-.1,3.28-.15,4.92-.19,1.64-.05,3.28-.05,4.92-.06,1.64,0,3.28,.01,4.92,.06l2.46,.07c.82,.04,1.64,.07,2.46,.12-.82,.06-1.64,.08-2.46,.12l-2.46,.07c-1.64,.05-3.28,.05-4.92,.06-1.64,0-3.28-.01-4.92-.06-1.64-.04-3.28-.09-4.92-.19Z"/><path class="cls-6" d="M145.93,144.2c1.64-.1,3.28-.15,4.92-.19,1.64-.05,3.28-.05,4.92-.06,1.64,0,3.28,.01,4.92,.06l2.46,.07c.82,.04,1.64,.07,2.46,.12-.82,.06-1.64,.08-2.46,.12l-2.46,.07c-1.64,.05-3.28,.05-4.92,.06-1.64,0-3.28-.01-4.92-.06-1.64-.04-3.28-.09-4.92-.19Z"/><path class="cls-6" d="M177.37,144.2c1.64-.1,3.28-.15,4.92-.19,1.64-.05,3.28-.05,4.92-.06,1.64,0,3.28,.01,4.92,.06l2.46,.07c.82,.04,1.64,.07,2.46,.12-.82,.06-1.64,.08-2.46,.12l-2.46,.07c-1.64,.05-3.28,.05-4.92,.06-1.64,0-3.28-.01-4.92-.06-1.64-.04-3.28-.09-4.92-.19Z"/><path class="cls-9" d="M114.68,149.11c1.64-.1,3.28-.15,4.92-.19,1.64-.05,3.28-.05,4.92-.06,1.64,0,3.28,.01,4.92,.06l2.46,.07c.82,.04,1.64,.07,2.46,.12-.82,.06-1.64,.08-2.46,.12l-2.46,.07c-1.64,.05-3.28,.05-4.92,.06-1.64,0-3.28-.01-4.92-.06-1.64-.04-3.28-.09-4.92-.19Z"/><path class="cls-9" d="M145.93,149.11c1.64-.1,3.28-.15,4.92-.19,1.64-.05,3.28-.05,4.92-.06,1.64,0,3.28,.01,4.92,.06l2.46,.07c.82,.04,1.64,.07,2.46,.12-.82,.06-1.64,.08-2.46,.12l-2.46,.07c-1.64,.05-3.28,.05-4.92,.06-1.64,0-3.28-.01-4.92-.06-1.64-.04-3.28-.09-4.92-.19Z"/><path class="cls-9" d="M177.37,149.11c1.64-.1,3.28-.15,4.92-.19,1.64-.05,3.28-.05,4.92-.06,1.64,0,3.28,.01,4.92,.06l2.46,.07c.82,.04,1.64,.07,2.46,.12-.82,.06-1.64,.08-2.46,.12l-2.46,.07c-1.64,.05-3.28,.05-4.92,.06-1.64,0-3.28-.01-4.92-.06-1.64-.04-3.28-.09-4.92-.19Z"/><path class="cls-9" d="M114.68,151.08c1.64-.1,3.28-.15,4.92-.19,1.64-.05,3.28-.05,4.92-.06,1.64,0,3.28,.01,4.92,.06l2.46,.07c.82,.04,1.64,.07,2.46,.12-.82,.06-1.64,.08-2.46,.12l-2.46,.07c-1.64,.05-3.28,.05-4.92,.06-1.64,0-3.28-.01-4.92-.06-1.64-.04-3.28-.09-4.92-.19Z"/><path class="cls-9" d="M145.93,151.08c1.64-.1,3.28-.15,4.92-.19,1.64-.05,3.28-.05,4.92-.06,1.64,0,3.28,.01,4.92,.06l2.46,.07c.82,.04,1.64,.07,2.46,.12-.82,.06-1.64,.08-2.46,.12l-2.46,.07c-1.64,.05-3.28,.05-4.92,.06-1.64,0-3.28-.01-4.92-.06-1.64-.04-3.28-.09-4.92-.19Z"/><path class="cls-9" d="M177.37,151.08c1.64-.1,3.28-.15,4.92-.19,1.64-.05,3.28-.05,4.92-.06,1.64,0,3.28,.01,4.92,.06l2.46,.07c.82,.04,1.64,.07,2.46,.12-.82,.06-1.64,.08-2.46,.12l-2.46,.07c-1.64,.05-3.28,.05-4.92,.06-1.64,0-3.28-.01-4.92-.06-1.64-.04-3.28-.09-4.92-.19Z"/><path class="cls-9" d="M114.68,156.35c1.64-.1,3.28-.15,4.92-.19,1.64-.05,3.28-.05,4.92-.06,1.64,0,3.28,.01,4.92,.06l2.46,.07c.82,.04,1.64,.07,2.46,.12-.82,.06-1.64,.08-2.46,.12l-2.46,.07c-1.64,.05-3.28,.05-4.92,.06-1.64,0-3.28-.01-4.92-.06-1.64-.04-3.28-.09-4.92-.19Z"/><path class="cls-9" d="M145.93,156.35c1.64-.1,3.28-.15,4.92-.19,1.64-.05,3.28-.05,4.92-.06,1.64,0,3.28,.01,4.92,.06l2.46,.07c.82,.04,1.64,.07,2.46,.12-.82,.06-1.64,.08-2.46,.12l-2.46,.07c-1.64,.05-3.28,.05-4.92,.06-1.64,0-3.28-.01-4.92-.06-1.64-.04-3.28-.09-4.92-.19Z"/><path class="cls-9" d="M177.37,156.35c1.64-.1,3.28-.15,4.92-.19,1.64-.05,3.28-.05,4.92-.06,1.64,0,3.28,.01,4.92,.06l2.46,.07c.82,.04,1.64,.07,2.46,.12-.82,.06-1.64,.08-2.46,.12l-2.46,.07c-1.64,.05-3.28,.05-4.92,.06-1.64,0-3.28-.01-4.92-.06-1.64-.04-3.28-.09-4.92-.19Z"/><path class="cls-9" d="M114.68,158.32c1.64-.1,3.28-.15,4.92-.19,1.64-.05,3.28-.05,4.92-.06,1.64,0,3.28,.01,4.92,.06l2.46,.07c.82,.04,1.64,.07,2.46,.12-.82,.06-1.64,.08-2.46,.12l-2.46,.07c-1.64,.05-3.28,.05-4.92,.06-1.64,0-3.28-.01-4.92-.06-1.64-.04-3.28-.09-4.92-.19Z"/><path class="cls-9" d="M145.93,158.32c1.64-.1,3.28-.15,4.92-.19,1.64-.05,3.28-.05,4.92-.06,1.64,0,3.28,.01,4.92,.06l2.46,.07c.82,.04,1.64,.07,2.46,.12-.82,.06-1.64,.08-2.46,.12l-2.46,.07c-1.64,.05-3.28,.05-4.92,.06-1.64,0-3.28-.01-4.92-.06-1.64-.04-3.28-.09-4.92-.19Z"/><path class="cls-9" d="M177.37,158.32c1.64-.1,3.28-.15,4.92-.19,1.64-.05,3.28-.05,4.92-.06,1.64,0,3.28,.01,4.92,.06l2.46,.07c.82,.04,1.64,.07,2.46,.12-.82,.06-1.64,.08-2.46,.12l-2.46,.07c-1.64,.05-3.28,.05-4.92,.06-1.64,0-3.28-.01-4.92-.06-1.64-.04-3.28-.09-4.92-.19Z"/></g><g><path class="cls-2" d="M131.63,126.82c-4.49,5.95-9.86,8.56-9.86,8.56,0,0-5.36-2.61-9.86-8.56-3.47-4.59-3.3-11.78,1.67-13.34,5.49-1.72,8.19,6.54,8.19,6.54,0,0,2.74-8.32,8.19-6.54,4.95,1.61,5.14,8.75,1.67,13.34Z"/><polygon class="cls-1" points="117.9 131.75 116.4 125.52 115.42 127.71 109.38 127.71 109.38 127.01 114.97 127.01 116.6 123.34 117.77 128.19 119.42 118.13 120.87 126.09 122.02 122.77 123.84 128.21 124.24 127.01 134.17 127.01 134.17 127.71 124.75 127.71 123.84 130.43 122.01 124.95 120.66 128.85 119.45 122.24 117.9 131.75"/></g></g><g><rect class="cls-4" x="126.24" y="64.08" width="59.06" height="18.01"/><path class="cls-4" d="M173.83,54.23h-36.65l-1.62,9.84h40.45l-2.17-9.84Zm-18.06,7.08c-1.19,0-2.16-.96-2.16-2.16,0-1.19,.97-2.16,2.16-2.16s2.16,.97,2.16,2.16-.96,2.16-2.16,2.16Z"/><polygon class="cls-8" points="175.99 64.08 135.55 64.08 135.91 61.87 175.51 61.87 175.99 64.08"/></g></g><g><g><g><path class="cls-2" d="M68.17,198.18c-.36,1.52-.74,3.02-.81,4.58,.04,.08,.03,.36-.01,.28,0,.25-.39,.21-.39-.04,0-.16,0-.32,.02-.48-.89-1.11-2.19-1.81-3.24-2.78-.85-.78-1.46-1.71-1.78-2.83-.87-3-.05-6.18-1.1-9.18-.9-2.58-2.52-4.83-3.89-7.17-1.45-2.47-2.51-5.07-2.62-7.97-.09-2.22,.18-5.17,1.87-6.84,1.79-1.76,4.01-.44,5.38,1.13,3.98,4.56,5.82,10.33,6.56,16.23,.41,3.26,.84,6.55,.74,9.84-.06,1.77-.31,3.5-.71,5.22Z"/><path class="cls-10" d="M67.38,203.96c.21-3.08,.19-6.17-.11-9.25,0-.01,.01-.02,.02-.03,.05-2.5,.25-4.99,.15-7.49-.11-2.72-.5-5.38-1.1-8.03,0-.03-.05-.02-.05,0,.49,2.59,.77,5.23,.87,7.86,.05,1.41,.04,2.83-.03,4.24-.02,.46-.07,.92-.1,1.38h0c-1.01-7.04-3.6-13.71-7.44-19.68-.05-.08-.2,0-.15,.09,2.76,4.51,4.79,9.45,6.05,14.59-1.91-3.54-4.8-6.46-6.94-9.86-.01-.02-.04,0-.03,.02,1.92,3.79,5.1,6.78,7.13,10.51,.35,1.52,.64,3.06,.85,4.6,.29,2.12,.43,4.26,.46,6.39-1.16-2.18-2.37-4.26-3.33-6.56-.03-.06-.11-.02-.09,.04,.81,2.39,1.9,4.97,3.43,7.01,0,1.51-.04,3.03-.13,4.54-.24,4.04-.93,8.02-1.25,12.04,0,.12,.16,.14,.18,.02,.84-4.06,1.32-8.3,1.59-12.44Z"/><path class="cls-10" d="M63.09,172.83s-.06,0-.04,.02c.74,2.04,1.15,4.1,1.69,6.19,.02,.1,.16,.08,.15-.02-.22-2.12-.97-4.24-1.79-6.19Z"/></g><g><path class="cls-2" d="M81.81,181.37c-.48,1.2-1.07,2.36-1.7,3.48-1.33,2.41-2.71,4.62-2.96,7.43-.11,1.25-.15,2.51-.53,3.72-.33,1.05-.87,2.01-1.48,2.91-1.44,2.1-3.24,3.9-4.57,6.08-1.39,2.26-2.41,4.75-3.04,7.32-.03,.14-.26,.1-.22-.04,0-.01,0-.02,0-.03,0,0-.01-.01-.01-.03-.21-6.02,.27-12.09,2.11-17.85,.8-2.52,1.79-5.03,2.92-7.43,.98-2.09,2.21-4.1,3.94-5.66,1.12-1.01,3.55-2.92,5.14-1.91,.77,.49,.71,1.26,.41,2.01Z"/><path class="cls-10" d="M75.76,195.02c-1.03,1.76-2.26,3.41-3.5,5.03-.58,.76-1.17,1.52-1.76,2.28-.28,.36-.58,.72-.84,1.1,.16-.63,.31-1.27,.48-1.9,.78-3.04,1.52-6.11,2.68-9.03,1.13-2.86,2.63-5.54,4.18-8.19,.04-.07-.07-.12-.11-.05-1.27,2.09-2.56,4.18-3.63,6.39-.6,1.23-1.1,2.5-1.54,3.79,.52-2.76,1.14-5.42,2.05-8.1,0-.02-.03-.04-.04-.02-1.11,2.62-1.91,5.58-2.13,8.42,0,0,0,0,0,.01-.26,.78-.5,1.57-.72,2.37-.95,3.37-1.78,6.77-2.55,10.18,.01-2.25,.15-4.47,.58-6.69,0-.05-.07-.06-.08-.01-.56,2.29-.81,4.7-.58,7.06-.29,1.3-.58,2.6-.85,3.9-.59,2.77-1.32,5.6-1.66,8.42,0,.07,.09,.09,.11,.02,.41-1.52,.66-3.09,1-4.63,.34-1.54,.69-3.08,1.05-4.62,.52-2.24,1.07-4.47,1.63-6.7,.37-.82,1.09-1.54,1.63-2.23,.59-.75,1.19-1.51,1.76-2.27,1.07-1.43,2.06-2.91,2.9-4.48,.02-.03-.03-.06-.05-.02Z"/><path class="cls-10" d="M76.02,192.44c-1.31,1.68-2.49,3.53-3.42,5.44-.01,.02,.03,.05,.04,.03,1.15-1.81,2.28-3.62,3.43-5.43,.02-.03-.03-.06-.05-.03Z"/></g><g><path class="cls-2" d="M50.4,187.08c.78,1.34,1.67,2.96,1.34,4.57-.21,1.02-.96,1.85-1.09,2.89-.3,2.3,1.99,3.82,3.65,4.9,4.13,2.71,9.8,5.13,10.55,10.67,.03,.2,.37,.15,.34-.04,0-.01,0-.02,0-.04,0-.01,.02-.02,.02-.03,.54-2.81,.52-5.66-.08-8.46-.62-2.85-1.86-5.42-3.33-7.93-2.49-4.24-5.12-8.59-8.88-11.84-1.04-.9-3.17-2.52-4-.49-.8,1.97,.54,4.15,1.5,5.79Z"/><path class="cls-10" d="M54.18,196.08c2.74,2.97,7.1,4.63,9.46,7.95-1.4-5.09-3.71-9.67-7.27-13.65-.09-.1,.05-.25,.15-.15,2.6,2.5,4.53,5.43,5.94,8.6-.63-2.27-1.52-4.41-2.56-6.54-.04-.08,.07-.15,.12-.07,1.32,2.26,2.21,4.79,2.76,7.35,3.11,7.52,3.4,16.35,2.74,24.28,0,.11-.18,.12-.18,0,.18-6.25,.08-12.61-1.42-18.71-.03-.13-.07-.25-.1-.38-2.57-3.58-6.9-5.24-9.69-8.63-.03-.03,.02-.08,.05-.05Z"/><path class="cls-10" d="M53.54,193.53c1.44,1.32,2.85,2.67,4.3,3.99,.01,.01,0,.04-.02,.03-1.57-1.06-3.16-2.46-4.36-3.93-.05-.06,.03-.14,.09-.09Z"/><path class="cls-10" d="M53.32,187.81c1.31,2.09,2.68,4.06,4.3,5.92,.02,.02-.01,.06-.04,.04-1.75-1.68-3.3-3.72-4.34-5.91-.02-.05,.05-.09,.08-.05Z"/></g></g><g><g><polygon class="cls-6" points="59.79 229.44 72.39 229.44 70.69 212.49 61.73 212.49 59.79 229.44"/><polygon class="cls-10" points="61.42 215.24 70.97 215.24 70.7 212.49 61.73 212.49 61.42 215.24"/></g><rect class="cls-6" x="60.19" y="210.61" width="11.81" height="2.71" transform="translate(132.19 423.93) rotate(180)"/></g></g><g><g><path class="cls-3" d="M88.86,90.12c-10.36,0-18.8-8.43-18.8-18.8s8.43-18.8,18.8-18.8,18.8,8.43,18.8,18.8-8.43,18.8-18.8,18.8Zm0-36.76c-9.9,0-17.96,8.06-17.96,17.96s8.06,17.96,17.96,17.96,17.96-8.06,17.96-17.96-8.06-17.96-17.96-17.96Z"/><path class="cls-3" d="M87.92,92.78c-.29-.01-.57-.03-.85-.05l.07-.83c.27,.02,.55,.04,.82,.05l-.04,.84Zm2.99-.08l-.08-.83c.27-.03,.55-.06,.82-.09l.11,.83c-.28,.04-.57,.07-.85,.1Zm-6.81-.43c-.28-.06-.56-.13-.83-.21l.22-.81c.26,.07,.53,.14,.8,.2l-.18,.82Zm10.59-.27l-.23-.8c.26-.07,.53-.15,.79-.24l.26,.8c-.27,.09-.54,.17-.82,.25Zm-14.25-.91c-.26-.11-.52-.23-.78-.35l.36-.76c.25,.12,.5,.23,.75,.34l-.33,.77Zm17.85-.46l-.37-.75c.25-.12,.49-.25,.73-.38l.4,.74c-.25,.14-.5,.27-.76,.39Zm-21.24-1.36c-.24-.16-.47-.32-.71-.49l.49-.68c.22,.16,.45,.32,.68,.47l-.46,.7Zm24.53-.63l-.49-.67c.22-.16,.44-.33,.65-.5l.52,.65c-.22,.18-.45,.35-.68,.52Zm-27.54-1.77c-.21-.2-.41-.4-.61-.6l.6-.58c.19,.2,.39,.39,.58,.58l-.58,.61Zm30.42-.78l-.61-.58c.19-.2,.37-.4,.55-.61l.63,.55c-.19,.21-.38,.43-.58,.63Zm-32.96-2.12c-.17-.23-.33-.46-.49-.7l.69-.47c.15,.23,.31,.45,.47,.67l-.68,.49Zm35.34-.91l-.7-.46c.15-.23,.3-.46,.44-.7l.72,.43c-.15,.25-.3,.49-.45,.73Zm-37.32-2.39c-.12-.26-.24-.51-.36-.78l.77-.33c.11,.25,.22,.5,.34,.75l-.75,.37Zm39.13-1.01l-.77-.33c.11-.25,.21-.51,.31-.77l.78,.29c-.1,.27-.21,.53-.32,.8Zm-40.49-2.59c-.08-.27-.15-.55-.21-.83l.81-.19c.06,.27,.13,.53,.2,.8l-.81,.22Zm41.66-1.08l-.82-.18c.06-.27,.11-.54,.16-.81l.82,.15c-.05,.28-.11,.56-.17,.84Zm-42.35-2.71c-.03-.28-.05-.57-.06-.85l.84-.04c.01,.27,.03,.55,.06,.82l-.83,.08Zm42.85-1.11l-.84-.03c.01-.27,.02-.55,.02-.82v-.09h.84v.08c0,.29,0,.58-.02,.86Zm-42.02-2.67l-.83-.07c.02-.29,.06-.57,.09-.85l.83,.11c-.03,.27-.06,.54-.09,.82Zm40.99-1.14c-.04-.27-.08-.54-.13-.81l.82-.15c.05,.28,.1,.56,.14,.84l-.83,.12Zm-40.34-2.5l-.81-.22c.08-.28,.16-.55,.24-.82l.8,.25c-.08,.26-.16,.52-.23,.79Zm39.49-1.1c-.09-.26-.18-.52-.28-.77l.78-.3c.1,.27,.2,.54,.29,.81l-.79,.27Zm-38.2-2.36l-.75-.36c.12-.26,.25-.51,.39-.77l.74,.39c-.13,.24-.25,.49-.37,.74Zm36.71-1.02c-.13-.24-.27-.48-.41-.71l.72-.43c.15,.24,.29,.49,.43,.74l-.73,.4Zm-34.82-2.16l-.68-.49c.17-.23,.34-.46,.52-.68l.66,.52c-.17,.22-.34,.43-.5,.66Zm32.76-.91c-.17-.21-.35-.42-.53-.63l.63-.55c.19,.21,.37,.43,.55,.65l-.65,.53Zm-30.33-1.88l-.58-.6c.21-.2,.42-.39,.63-.58l.55,.63c-.21,.18-.41,.37-.6,.56Zm27.75-.77c-.21-.18-.42-.35-.63-.52l.52-.66c.22,.18,.44,.36,.66,.55l-.55,.63Zm-24.86-1.55l-.46-.7c.24-.16,.48-.31,.72-.46l.43,.71c-.23,.14-.47,.29-.69,.44Zm21.85-.61c-.24-.14-.48-.27-.72-.4l.39-.74c.25,.14,.5,.28,.75,.42l-.42,.72Zm-18.61-1.15l-.33-.77c.26-.11,.52-.22,.79-.32l.3,.78c-.26,.1-.51,.2-.76,.31Zm15.26-.43c-.26-.09-.52-.18-.78-.27l.26-.8c.27,.09,.54,.18,.81,.28l-.29,.79Zm-11.75-.73l-.19-.82c.28-.06,.56-.12,.84-.18l.15,.82c-.27,.05-.54,.11-.8,.17Zm8.17-.23c-.27-.05-.54-.09-.81-.12l.11-.83c.28,.04,.57,.08,.85,.13l-.14,.82Zm-4.51-.28l-.04-.84c.28-.01,.57-.02,.86-.02v.84c-.27,0-.54,0-.82,.02Z"/></g><polygon class="cls-3" points="85.98 82.94 91.77 82.94 91.77 74.21 100.51 74.21 100.51 68.41 91.77 68.41 91.77 59.68 85.98 59.68 85.98 68.41 77.24 68.41 77.24 74.21 85.98 74.21 85.98 82.94"/></g><rect class="cls-2" x="114.48" y="92.78" width="83.89" height="11.04"/><g><path class="cls-1" d="M116.49,103.56l-1.85-3.26h-.79v3.26h-1.68v-8.38h3.14c.65,0,1.2,.11,1.66,.34s.8,.54,1.03,.92c.23,.39,.34,.82,.34,1.3,0,.55-.16,1.05-.48,1.49-.32,.44-.8,.75-1.43,.92l2,3.4h-1.94Zm-2.64-4.52h1.4c.46,0,.8-.11,1.02-.33,.22-.22,.34-.53,.34-.92s-.11-.68-.34-.89c-.22-.21-.56-.32-1.02-.32h-1.4v2.46Z"/><path class="cls-1" d="M122.74,96.54v2.1h2.82v1.33h-2.82v2.22h3.18v1.37h-4.86v-8.39h4.86v1.37h-3.18Z"/><path class="cls-1" d="M128.8,97.15c.37-.65,.88-1.16,1.52-1.52,.64-.36,1.37-.55,2.17-.55,.94,0,1.76,.24,2.46,.72s1.2,1.14,1.48,1.99h-1.93c-.19-.4-.46-.7-.81-.9-.35-.2-.75-.3-1.21-.3-.49,0-.92,.11-1.3,.34s-.68,.55-.89,.97-.32,.9-.32,1.46,.11,1.04,.32,1.46c.21,.42,.51,.74,.89,.97s.81,.34,1.3,.34c.46,0,.86-.1,1.21-.31,.35-.2,.62-.51,.81-.91h1.93c-.28,.86-.77,1.52-1.47,2-.7,.48-1.52,.71-2.47,.71-.8,0-1.52-.18-2.17-.55-.64-.36-1.15-.87-1.52-1.52-.37-.65-.56-1.38-.56-2.21s.19-1.56,.56-2.21Z"/><path class="cls-1" d="M140.74,96.54v2.1h2.82v1.33h-2.82v2.22h3.18v1.37h-4.86v-8.39h4.86v1.37h-3.18Z"/><path class="cls-1" d="M148.33,95.19v8.38h-1.68v-8.38h1.68Z"/><path class="cls-1" d="M156.88,95.19v1.36h-2.23v7.02h-1.68v-7.02h-2.23v-1.36h6.14Z"/><path class="cls-1" d="M160.96,95.19v5.18c0,.57,.15,1,.44,1.3,.3,.3,.71,.45,1.25,.45s.96-.15,1.26-.45c.3-.3,.44-.73,.44-1.3v-5.18h1.69v5.17c0,.71-.15,1.31-.46,1.81-.31,.49-.72,.86-1.24,1.11-.52,.25-1.09,.37-1.72,.37s-1.19-.12-1.7-.37c-.51-.25-.91-.62-1.21-1.11s-.44-1.09-.44-1.81v-5.17h1.68Z"/><path class="cls-1" d="M174.01,101.97h-3.34l-.55,1.6h-1.76l3.01-8.39h1.96l3.01,8.39h-1.78l-.55-1.6Zm-.36-8.52l-2.76,1.26v-1.2l2.76-1.43v1.37Zm-.1,7.18l-1.21-3.5-1.21,3.5h2.42Z"/><path class="cls-1" d="M182.98,103.56l-1.85-3.26h-.79v3.26h-1.68v-8.38h3.14c.65,0,1.2,.11,1.66,.34s.8,.54,1.03,.92c.23,.39,.34,.82,.34,1.3,0,.55-.16,1.05-.48,1.49-.32,.44-.8,.75-1.43,.92l2,3.4h-1.94Zm-2.64-4.52h1.4c.46,0,.8-.11,1.02-.33,.22-.22,.34-.53,.34-.92s-.11-.68-.34-.89c-.22-.21-.56-.32-1.02-.32h-1.4v2.46Z"/><path class="cls-1" d="M189.24,95.19v8.38h-1.68v-8.38h1.68Z"/><path class="cls-1" d="M193.82,103.09c-.66-.37-1.18-.88-1.56-1.53-.38-.65-.58-1.39-.58-2.21s.19-1.55,.58-2.2c.38-.65,.9-1.16,1.56-1.53,.66-.37,1.38-.55,2.16-.55s1.51,.18,2.17,.55c.65,.37,1.17,.88,1.55,1.53,.38,.65,.57,1.39,.57,2.2s-.19,1.56-.57,2.21c-.38,.65-.9,1.16-1.55,1.53-.66,.37-1.38,.55-2.16,.55s-1.5-.18-2.16-.55Zm3.49-1.29c.38-.23,.68-.55,.9-.98,.22-.42,.32-.92,.32-1.48s-.11-1.05-.32-1.47-.52-.74-.9-.97-.83-.34-1.33-.34-.95,.11-1.34,.34-.69,.55-.91,.97c-.22,.42-.32,.91-.32,1.47s.11,1.05,.32,1.48c.22,.42,.52,.75,.91,.98s.83,.34,1.34,.34,.95-.11,1.33-.34Z"/></g></svg>