<?xml version="1.0" encoding="UTF-8"?><svg id="Device_1" xmlns="http://www.w3.org/2000/svg" viewBox="0 0 500 500"><defs><style>.cls-1{fill:#7aa8f8;}.cls-2,.cls-3,.cls-4{fill:#f0f0f0;}.cls-2,.cls-5{opacity:.2;}.cls-6,.cls-7,.cls-8,.cls-9,.cls-10{fill:#fff;}.cls-11,.cls-12{fill:#fafafa;}.cls-13,.cls-14,.cls-15{fill:#344260;}.cls-16{opacity:.31;}.cls-16,.cls-17{fill:#475da4;}.cls-7{opacity:.4;}.cls-18{fill:#f5f5f5;}.cls-8,.cls-12{opacity:.3;}.cls-14{opacity:.07;}.cls-9{opacity:.5;}.cls-4,.cls-15{opacity:.15;}.cls-19{opacity:.05;}.cls-20{fill:#e0e0e0;}.cls-21,.cls-22,.cls-23{fill:#cfd1d2;}.cls-10{opacity:.7;}.cls-24,.cls-25{opacity:.43;}.cls-24,.cls-26{fill:#6079bc;}.cls-27{fill:#9dacd7;}.cls-28{fill:#f0f1f1;}.cls-29{opacity:.1;}.cls-30{fill:#ebebeb;}.cls-22{opacity:.28;}.cls-31{fill:#25324a;}.cls-23{opacity:.16;}</style></defs><g id="Shelf-2"><g><path class="cls-3" d="M342.13,84.6v-6.18h0c.02-.59,.43-1.18,1.23-1.65l37.09-21.42c1.57-.91,4.13-.91,5.7,0l106.63,61.56c.8,.46,1.21,1.06,1.23,1.65h0v6.18h0c-.02,.59-.43,1.18-1.23,1.65l-37.09,21.42c-1.57,.91-4.13,.91-5.7,0l-106.63-61.56c-.8-.46-1.21-1.06-1.23-1.65h0Z"/><path class="cls-11" d="M492.79,120.22l-37.09,21.42c-1.58,.91-4.13,.91-5.7,0l-106.63-61.56c-1.57-.91-1.57-2.38,0-3.29l37.09-21.42c1.57-.91,4.13-.91,5.7,0l106.63,61.56c1.57,.91,1.57,2.38,0,3.29Z"/><path class="cls-20" d="M452.85,142.32v6.18c1.03,0,2.05-.24,2.84-.68l37.1-21.41c.8-.46,1.21-1.07,1.22-1.65h.01v-6.18h-.01c0-.24-.1-.47-.23-.7,.43,.8,.11,1.71-.99,2.35l-37.1,21.41c-.78,.46-1.82,.69-2.84,.69Z"/></g><g><path class="cls-20" d="M390.62,78.15c-3.31-1.85-8.68-1.85-12,0-3.31,1.85-3.31,4.86,0,6.72,3.31,1.85,8.68,1.85,12,0,3.31-1.85,3.31-4.86,0-6.71Z"/><path class="cls-3" d="M382.06,45.27l-.08-.1c-1.96-2.27-2.5-5.45-1.34-8.21,.38-.9,.86-2.12,1.04-2.88,.45-1.9,.06-5.15,2.71-5.15s2.19,3.21,2.7,5.16c.19,.71,.65,1.89,1.02,2.75,1.23,2.83,.68,6.13-1.38,8.43h0c-.26,.29-.4,.66-.4,1.05h0c0,.69,.45,1.31,1.11,1.5,.63,.18,1.22,.42,1.74,.73,1.32,.76,1.98,1.76,1.98,2.76l1.45,29.1c0,1.68-1.54,3.37-4.63,4.29-2.34,.7-4.86,.7-7.2,0-3.08-.92-4.63-2.6-4.63-4.29l1.45-29.1c0-1,.66-2,1.98-2.76,.52-.3,1.11-.54,1.74-.73,.66-.19,1.11-.81,1.11-1.5v-.02c0-.38-.14-.75-.38-1.03Z"/><path class="cls-10" d="M382.06,45.27l-.08-.1c-1.96-2.27-2.5-5.45-1.34-8.21,.38-.9,.86-2.12,1.04-2.88,.45-1.9,.06-5.15,2.71-5.15s2.19,3.21,2.7,5.16c.19,.71,.65,1.89,1.02,2.75,1.23,2.83,.68,6.13-1.38,8.43h0c-.26,.29-.4,.66-.4,1.05h0c0,.69,.45,1.31,1.11,1.5,.63,.18,1.22,.42,1.74,.73,1.32,.76,1.98,1.76,1.98,2.76l1.45,29.1c0,1.68-1.54,3.37-4.63,4.29-2.34,.7-4.86,.7-7.2,0-3.08-.92-4.63-2.6-4.63-4.29l1.45-29.1c0-1,.66-2,1.98-2.76,.52-.3,1.11-.54,1.74-.73,.66-.19,1.11-.81,1.11-1.5v-.02c0-.38-.14-.75-.38-1.03Z"/><path class="cls-2" d="M390.2,77.06c-3.21-1.85-8.42-1.85-11.63,0-3.21,1.85-3.21,4.86,0,6.72,3.21,1.85,8.42,1.85,11.63,0,3.21-1.85,3.21-4.86,0-6.72Z"/><path class="cls-7" d="M382.43,85.07c-.55-.09-1.1-.21-1.64-.37-3.08-.92-4.63-2.6-4.63-4.29l1.45-29.1c0-1,.66-2,1.98-2.76,.52-.3,1.11-.54,1.74-.73,.66-.19,1.11-.81,1.11-1.5,0,1.2-.09,1.61-1.16,2.3-1.06,.69-2.8,.59-3.06,4.27-.27,3.68-1.27,24.97-1.27,26.73s.53,3.88,5.47,5.44Z"/><path class="cls-3" d="M377.59,80.44l1.06-21.3h0c0-.85,.56-1.69,1.68-2.34,2.24-1.29,5.86-1.29,8.1,0,1.12,.65,1.68,1.5,1.68,2.34h0l1.06,21.29c0,.18-.05,.37-.13,.55-.23,.77-.85,1.5-1.88,2.1-2.64,1.53-6.93,1.53-9.57,0-1.03-.59-1.65-1.33-1.88-2.1-.08-.18-.12-.37-.13-.55Z"/><path class="cls-19" d="M389.17,77.56c-2.64-1.53-6.93-1.53-9.57,0-2.64,1.53-2.64,4,0,5.53,2.64,1.53,6.93,1.53,9.57,0,2.64-1.53,2.64-4,0-5.53Z"/><path class="cls-8" d="M378.73,82.47l1.24-25.43c.1-.07,.21-.14,.32-.2l1.29,.12-1.29,26.47c-.24-.1-.47-.22-.69-.34-.33-.19-.62-.4-.87-.62Z"/><path class="cls-8" d="M382.44,57.23l.82-.16-.95,26.97c-.4-.07-.79-.17-1.16-.29l1.29-26.53Z"/><path class="cls-19" d="M387.24,80.5c-.12-2.47-.15-12.82-.5-20.07l.24-4.22c.52,.15,1.02,.36,1.46,.61,1.12,.65,1.68,1.5,1.68,2.34h0l1.06,21.29c0,.18-.05,.37-.13,.55-.23,.77-.85,1.5-1.88,2.1-2.64,1.53-6.93,1.53-9.57,0,4.08,1.08,7.77-.12,7.64-2.59Z"/><path class="cls-3" d="M388.43,56.81c-2.24-1.29-5.86-1.29-8.1,0-2.24,1.29-2.24,3.39,0,4.68s5.86,1.29,8.1,0c2.24-1.29,2.24-3.39,0-4.68Z"/><path class="cls-8" d="M388.43,56.81c-2.24-1.29-5.86-1.29-8.1,0-2.24,1.29-2.24,3.39,0,4.68s5.86,1.29,8.1,0c2.24-1.29,2.24-3.39,0-4.68Z"/><path class="cls-19" d="M385.01,74.79c-1.98,0-4.54-.44-6.06-1.31-1.51-.87-2.3-1.99-2.3-3.14l.49-9.68c0,1.07,.73,2.1,2.15,2.92,1.42,.82,3.86,1.23,5.71,1.23v9.98Z"/><path class="cls-6" d="M384.38,75.19c-1.98,0-3.96-.44-5.47-1.31-1.51-.87-2.27-2.02-2.27-3.16l.48-9.7c0,1.07,.71,2.15,2.12,2.97,1.42,.82,3.27,1.23,5.13,1.23v9.98Z"/><path class="cls-2" d="M389.48,79.71c.01-1.64-.96-24.28-1.22-26.93-.26-2.65-1.22-3.25-2.97-4.6-1.09-.84-1.32-2.06-.27-3.22,1.23-1.35,2.72-3.27,1.81-6.49-.63-2.23-1.3-4.18-1.46-5.98-.25-2.82-.98-3.55-2-3.34,.28-.14,.61-.22,1.01-.22,2.65,0,2.19,3.21,2.7,5.16,.19,.71,.65,1.89,1.02,2.75,1.23,2.83,.68,6.13-1.38,8.43-.26,.29-.4,.66-.4,1.05,0,.69,.45,1.31,1.11,1.5,.63,.18,1.22,.42,1.74,.73,1.32,.76,1.98,1.76,1.98,2.76l1.45,29.1c0,1.68-1.54,3.37-4.63,4.29-2.34,.7-4.86,.7-7.2,0-.45-.13-.86-.28-1.24-.45,7.57,2.05,9.92-2.9,9.93-4.54Z"/><path class="cls-7" d="M381.11,37.51c.28-.68,.72-1.33,.95-2.04,.3-.94,.34-1.87,.42-2.85,.02-.31,.09-1.05,.41-1.22,.28-.15,.53,.1,.59,.37,.27,1.21,.37,2.46,.29,3.7-.07,1.12-.67,1.98-1.02,3.04-.4,1.18-.2,2.28-.25,3.47,0,.16-.02,.33-.09,.48-.07,.15-.23,.27-.39,.25-.14-.02-.24-.12-.34-.23-.25-.27-.51-.55-.65-.88-.42-1.01-.45-1.86-.29-2.92,.04-.29,.27-.9,.38-1.16Z"/><path class="cls-9" d="M380.33,61.49c-2.24-1.29-2.24-3.39,0-4.68,.43-.25,.92-.45,1.44-.6-4.85,1.81-2.09,5.96,2.61,5.85,4.12-.1,5.51-2.07,5.57-2.15-.23,.58-.74,1.13-1.52,1.58-2.24,1.29-5.86,1.29-8.1,0Z"/></g><g><path class="cls-20" d="M374.42,76.86c3.72-2.12,3.72-5.57,0-7.69-3.72-2.12-9.74-2.12-13.46,0-3.72,2.12-3.72,5.57,0,7.69,3.72,2.12,9.74,2.12,13.46,0Z"/><path class="cls-3" d="M360.6,50.23c.39-.22,.8-.42,1.24-.59,.8-.32,1.35-1.08,1.35-1.94v-4.17h7.74v4.17c0,.86,.54,1.62,1.35,1.94,.43,.17,.85,.37,1.24,.59,1.78,1.03,2.67,2.38,2.67,3.73v17.88c0,1.35-.89,2.7-2.67,3.73-3.56,2.06-9.34,2.06-12.9,0-1.78-1.03-2.67-2.38-2.67-3.72v-17.88c0-1.35,.89-2.7,2.67-3.73Z"/><path class="cls-10" d="M360.6,50.23c.39-.22,.8-.42,1.24-.59,.8-.32,1.35-1.08,1.35-1.94v-4.17h7.74v4.17c0,.86,.54,1.62,1.35,1.94,.43,.17,.85,.37,1.24,.59,1.78,1.03,2.67,2.38,2.67,3.73v17.88c0,1.35-.89,2.7-2.67,3.73-3.56,2.06-9.34,2.06-12.9,0-1.78-1.03-2.67-2.38-2.67-3.72v-17.88c0-1.35,.89-2.7,2.67-3.73Z"/><path class="cls-2" d="M373.49,75.57c3.56-2.04,3.56-5.34,0-7.37-3.56-2.04-9.33-2.04-12.9,0-3.56,2.04-3.56,5.34,0,7.37s9.33,2.04,12.9,0Z"/><path class="cls-19" d="M373.49,75.57c3.56-2.04,3.56-5.34,0-7.37-3.56-2.04-9.33-2.04-12.9,0-3.56,2.04-3.56,5.34,0,7.37s9.33,2.04,12.9,0Z"/><path class="cls-3" d="M359.36,59.19v12.1c0,1.14,.75,2.27,2.26,3.14,.28,.16,.58,.31,.89,.44,.05,.02,.11,.04,.16,.07,.07,.02,.13,.05,.2,.07,1.25,.42,2.7,.65,4.18,.65,1.62,0,3.2-.28,4.51-.78,.01,0,.03-.01,.05-.02,.31-.13,.6-.28,.87-.44,1.5-.87,2.25-2,2.25-3.14v-12.1c0-1.14-.75-2.27-2.25-3.14-3-1.74-7.87-1.74-10.88,0-1.5,.87-2.26,2-2.26,3.14Z"/><path class="cls-4" d="M365.53,69.86l.48,1.23c.37,.94,1.7,.94,2.07,0l.48-1.23c.49-1.25,.74-2.58,.74-3.92v-23.65h-4.51v23.65c0,1.34,.25,2.67,.74,3.92Z"/><path class="cls-19" d="M369.3,54.94v11c0,1.34-.25,2.67-.74,3.92l-.48,1.23c-.37,.94-1.7,.94-2.07,0l-.48-1.23c-.49-1.25-.74-2.58-.74-3.92v-11c1.47-.26,3.04-.26,4.51,0Z"/><path class="cls-19" d="M367.83,71.46s-.08,.07-.12,.11c-.05,.03-.1,.07-.15,.09-.03,.01-.05,.02-.08,.04-.07,.03-.13,.05-.2,.07,0,0,.39-.12,.5-1.09,.11-.97,.38-3.4,.38-4.6v-11.27c.38,.03,.76,.08,1.13,.15v11c0,1.34-.25,2.67-.74,3.92l-.48,1.23c-.04,.11-.1,.2-.16,.28-.03,.04-.06,.06-.09,.09Z"/><path class="cls-19" d="M359.36,71.29c0,1.14,.75,2.27,2.26,3.14,.28,.16,.58,.31,.89,.44,.05,.02,.11,.04,.16,.07,.07,.02,.13,.05,.2,.07,2.64,1,6.12,.95,8.7-.12,.01,0,.03-.01,.05-.02,.31-.13,.6-.28,.87-.44,1.5-.87,2.25-2,2.25-3.14s-.75-2.28-2.25-3.14c-3-1.74-7.87-1.74-10.88,0-1.5,.86-2.26,2-2.26,3.14Z"/><path class="cls-19" d="M370.77,72.01v-9.92l-.43-2.77,3.31-2.39c.72,.7,1.08,1.48,1.08,2.26v12.1c0,1.14-.75,2.27-2.25,3.14-.28,.16-.57,.31-.87,.44-.02,0-.04,0-.05,.02-1.31,.5-2.89,.78-4.51,.78-1.48,0-2.93-.23-4.18-.65-.07-.02-.13-.05-.2-.07-.06-.02-.11-.05-.16-.07-.08-.04-.17-.08-.25-.12,4.9,1.23,8.52-.91,8.52-2.75Z"/><path class="cls-8" d="M362.17,74.72c-.19-.09-.38-.19-.56-.29-.51-.29-.92-.62-1.26-.97v-15.44h1.82v16.69Z"/><path class="cls-8" d="M364.02,75.33c-.31-.07-.61-.15-.9-.24v-16.11h.9v16.35Z"/><path class="cls-3" d="M370.42,55.18c2.88,.86,4.33,2.43,4.33,4.01s-1.44,3.15-4.33,4.01c-2.19,.65-4.54,.65-6.73,0-2.88-.86-4.33-2.43-4.33-4.01s1.44-3.15,4.33-4.01c2.19-.65,4.54-.65,6.73,0Z"/><path class="cls-8" d="M370.42,55.18c2.88,.86,4.33,2.43,4.33,4.01s-1.44,3.15-4.33,4.01c-2.19,.65-4.54,.65-6.73,0-2.88-.86-4.33-2.43-4.33-4.01s1.44-3.15,4.33-4.01c2.19-.65,4.54-.65,6.73,0Z"/><path class="cls-3" d="M364.79,59.19v4.24c1.47,.26,3.04,.26,4.51,0v-4.12c-.05,.29-.27,.58-.65,.8-.88,.51-2.31,.51-3.2,0-.44-.25-.66-.59-.66-.92Z"/><path class="cls-19" d="M368.65,60.11c.39-.22,.61-.51,.65-.8v4.12c-.37,.06-.75,.11-1.13,.15v-3.27c.17-.06,.34-.12,.48-.21Z"/><path class="cls-19" d="M364.79,54.95v4.24c0,.33,.22,.67,.66,.92,.88,.51,2.31,.51,3.2,0,.39-.22,.61-.51,.65-.8v-4.37c-1.47-.26-3.04-.26-4.51,0Z"/><path class="cls-19" d="M369.24,67.03c-.1,.97-.32,1.92-.68,2.83l-.48,1.23c-.37,.94-1.7,.94-2.07,0l-.48-1.23c-.36-.91-.58-1.86-.68-2.83,1.43-.25,2.96-.25,4.39,0Z"/><path class="cls-2" d="M373.23,71.89v-17.39c0-1.12-.24-1.97-1.58-2.65-2.68-1.36-3.02-2.45-3.02-3.82v-4.51h2.28v4.17c0,.86,.54,1.62,1.35,1.94,.43,.17,.85,.37,1.24,.59,1.78,1.03,2.67,2.38,2.67,3.73v17.88c0,1.35-.89,2.7-2.67,3.73-2.56,1.48-6.27,1.89-9.48,1.24,7.41,.51,9.21-2.63,9.21-4.91Z"/><path class="cls-7" d="M360.6,50.23c.39-.22,.8-.42,1.24-.59,.8-.32,1.35-1.08,1.35-1.94v-4.17h.85v4.97c0,.73-.63,1.43-1.36,1.82s-3.04,1.4-3.61,2.51c-.53,1.05-.36,3.13-.36,5.6v12.62c0,1.6,.67,3.92,3.64,5.32-.62-.22-1.21-.47-1.75-.78-1.78-1.03-2.67-2.32-2.67-3.74v-17.88c0-1.35,.89-2.7,2.67-3.73Z"/><path class="cls-19" d="M369.3,54.94v4.37c-.05,.29-.27,.58-.65,.8-.15,.08-.31,.15-.48,.21v-5.52c.38,.03,.76,.08,1.13,.15Z"/><path class="cls-5" d="M366.42,71.18c0,.17,.28,.31,.62,.31s.62-.14,.62-.31-.28-.31-.62-.31-.62,.14-.62,.31Z"/><path class="cls-7" d="M366.84,70.07c-.11-.02-.2-1.13-.2-2.45v-25.34h.41v25.42c0,1.32-.1,2.39-.21,2.36Z"/><path class="cls-7" d="M365.37,42.28h.82v27.32h0c-.54-1.09-.82-2.3-.82-3.52v-23.8Z"/><path class="cls-11" d="M362.13,42.3v1.22c0,.73,.48,1.46,1.44,2.01,1.92,1.11,5.03,1.11,6.95,0,.48-.28,.84-.6,1.08-.94,.24-.34,.36-.7,.36-1.06v-1.24c0-.11,0-.22-.04-.33-.12-.62-.59-1.21-1.4-1.68-.02-.01-.05-.03-.07-.04-1.93-1.07-4.99-1.05-6.88,.04-.81,.47-1.28,1.06-1.4,1.67-.03,.11-.04,.23-.04,.34Z"/><path class="cls-20" d="M366.64,45.12v-1.81c0-.72-.18-1.8,1.07-1.8,1.09,0,2.06-.45,2.73-1.27,.02,0,.05,.02,.07,.04,.81,.47,1.28,1.06,1.4,1.68,.03,.11,.04,.22,.04,.33v1.24c0,.36-.12,.73-.36,1.06-.24,.34-.6,.66-1.08,.94-1.92,1.11-5.03,1.11-6.95,0,1.36,.53,3.07,.28,3.07-.41Z"/><path class="cls-20" d="M370.52,44.29c1.92-1.11,1.92-2.9,0-4.01-1.92-1.11-5.03-1.11-6.95,0s-1.92,2.91,0,4.01c1.92,1.11,5.03,1.11,6.95,0Z"/><path class="cls-19" d="M370.52,44.29c1.92-1.11,1.92-2.9,0-4.01-1.92-1.11-5.03-1.11-6.95,0s-1.92,2.91,0,4.01c1.92,1.11,5.03,1.11,6.95,0Z"/><path class="cls-11" d="M362.13,38.54v3.07c0,.11,0,.23,.04,.34,.12,.61,.59,1.21,1.4,1.67,.86,.5,1.96,.77,3.07,.82,1.39,.07,2.82-.21,3.88-.82,.48-.28,.84-.59,1.08-.94,.17-.23,.27-.48,.32-.73,.03-.11,.04-.22,.04-.33v-3.1c0-.73-.48-1.46-1.44-2.01-.09-.05-.17-.1-.26-.14-1.93-.97-4.86-.92-6.69,.14-.96,.56-1.45,1.29-1.44,2.02Z"/><path class="cls-20" d="M367.04,28.97c1.48,0,2.68,1.2,2.68,2.68v6.87h0c0,.4-.26,.79-.78,1.09-1.05,.6-2.74,.6-3.79,0-.52-.3-.78-.7-.78-1.09h0v-6.87c0-1.48,1.2-2.68,2.68-2.68Z"/><path class="cls-19" d="M365.5,29.46h0c.44-.31,.97-.49,1.54-.49,1.48,0,2.68,1.2,2.68,2.68v6.87h0c0,.4-.26,.79-.78,1.09-1.05,.6-2.74,.6-3.79,0-.31-.18-.51-.39-.64-.61,.33,.22,1.19,.68,2.25,.27,1.09-.42,1.4-1.46,1.4-2.91v-4.48c0-1.78-1.44-3.27-2.66-2.44Z"/><path class="cls-30" d="M365.62,35.55h0c.39,0,.7-.31,.7-.7v-3.82c0-.39-.31-.7-.7-.7h0c-.39,0-.7,.31-.7,.7v3.82c0,.39,.31,.7,.7,.7Z"/><path class="cls-30" d="M364.92,37.08c0,.39,.31,.7,.7,.7s.7-.31,.7-.7-.31-.7-.7-.7-.7,.31-.7,.7Z"/><path class="cls-20" d="M371.6,42.69c-.24,.34-.6,.66-1.08,.94-1.06,.62-2.49,.89-3.88,.82v-1.13c0-.72-.21-1.56,1.07-1.8,1.07-.21,2.65-.65,3.39-1.82,.68-1.07,.29-2.49-.84-3.31,.09,.04,.18,.09,.26,.14,.96,.55,1.44,1.28,1.44,2.01v3.1c0,.11,0,.22-.04,.33-.05,.25-.15,.5-.32,.73Z"/><path class="cls-9" d="M361.61,56.05c.26-.15,.53-.28,.82-.4-4.24,2.18-2.3,5.47,.31,6.69,2.61,1.22,7.49,.91,9.34,.21-3.02,1.51-7.6,1.44-10.47-.21-1.5-.87-2.25-2-2.25-3.14s.75-2.27,2.25-3.14Z"/></g><g><path id="Shadow" class="cls-20" d="M423.58,90.08c7.36,4.25,7.36,11.13,0,15.38-7.36,4.25-19.28,4.25-26.64,0-7.36-4.25-7.36-11.13,0-15.38,7.36-4.25,19.28-4.25,26.64,0Z"/><g id="Jar"><path class="cls-30" d="M398.07,55.68c.73-.42,1.51-.8,2.33-1.12,1.52-.61,2.54-2.04,2.54-3.67v-4.48h14.63v4.48c0,1.63,1.03,3.07,2.54,3.67,.82,.33,1.6,.7,2.33,1.12,3.37,1.94,5.05,4.49,5.05,7.04v33.79c0,2.55-1.68,5.1-5.05,7.04-6.73,3.89-17.65,3.89-24.39,0-3.37-1.94-5.05-4.49-5.05-7.04V62.72c0-2.55,1.68-5.1,5.05-7.04Z"/><path class="cls-19" d="M421.4,102.99c6.16-3.52,6.16-9.23,0-12.75-6.16-3.52-16.14-3.52-22.3,0-6.16,3.52-6.16,9.23,0,12.75,6.16,3.52,16.14,3.52,22.3,0Z"/><path class="cls-19" d="M401.55,51.12c3.17-1.83,7.65-2.45,11.72-1.86v-2.85h4.31v4.48c0,1.64,1.03,3.07,2.55,3.67,.82,.33,1.6,.7,2.33,1.12,.03,.01,.05,.03,.08,.05,3.31,1.94,4.97,4.47,4.97,6.99v33.79c0,2.55-1.68,5.1-5.05,7.04-4.84,2.8-11.85,3.57-17.91,2.35,14.01,.96,17.4-4.98,17.4-9.28V63.76c0-1.52-.23-2.77-1.28-3.82-.48,.44-1.04,.86-1.71,1.23-4.81,2.77-12.6,2.77-17.41,0-4.81-2.77-4.81-7.27,0-10.05Z"/><path class="cls-7" d="M398.07,55.68c.73-.42,1.51-.8,2.33-1.12,1.52-.61,2.54-2.04,2.54-3.67v-4.48h1.6v6c0,1.38-1.19,2.7-2.57,3.45-1.38,.75-5.75,2.65-6.82,4.73-1.01,1.98-.68,5.91-.68,10.58v23.85c0,3.03,1.26,7.41,6.89,10.05-1.17-.41-2.29-.9-3.3-1.48-3.37-1.94-5.05-4.39-5.05-7.07V62.72c0-2.55,1.68-5.1,5.05-7.04Z"/><g><path class="cls-20" d="M397.94,52.69v1.28c-.01,1.82,1.19,3.64,3.61,5.04,4.8,2.77,12.6,2.77,17.41,0,1.2-.69,2.1-1.49,2.7-2.35,.6-.85,.9-1.76,.9-2.67v-1.32c0-.27-.02-.55-.1-.82-.3-1.54-1.47-3.04-3.5-4.21-.06-.04-.12-.07-.18-.1-4.83-2.68-12.49-2.64-17.23,.1-2.03,1.17-3.21,2.67-3.51,4.19-.07,.29-.1,.57-.1,.86Z"/><path class="cls-19" d="M409.25,59.77v-4.53c0-1.79-.45,.63,2.69,.63,2.73,0,5.15-6.29,6.85-8.33,.06,.02,.12,.06,.18,.1,2.03,1.17,3.2,2.67,3.5,4.21,.07,.27,.1,.55,.1,.82v1.32c0,.91-.3,1.82-.9,2.67-.6,.86-1.51,1.66-2.7,2.35-4.82,2.77-12.61,2.77-17.41,0,3.39,1.34,7.7,2.46,7.7,.75Z"/><path class="cls-18" d="M418.96,57.69c4.81-2.78,4.81-7.28,0-10.05-4.81-2.78-12.6-2.78-17.41,0s-4.81,7.28,0,10.05c4.81,2.78,12.6,2.78,17.41,0Z"/><path class="cls-20" d="M397.94,48.42v2.55c0,.29,.02,.57,.1,.86,.3,1.53,1.48,3.02,3.51,4.19,2.15,1.24,4.9,1.92,7.7,2.04,3.48,.17,7.05-.51,9.72-2.06,1.2-.69,2.09-1.48,2.7-2.34,.42-.59,.68-1.21,.8-1.83,.07-.28,.1-.56,.1-.84v-2.61c0-1.83-1.2-3.65-3.6-5.03-.22-.12-.43-.24-.66-.35-4.84-2.43-12.17-2.31-16.75,.35-2.41,1.4-3.62,3.23-3.61,5.06Z"/><path class="cls-30" d="M418.96,53.36c4.81-2.78,4.81-7.28,0-10.05-4.81-2.78-12.6-2.78-17.41,0-4.81,2.78-4.81,7.28,0,10.05,4.81,2.78,12.6,2.78,17.41,0Z"/><path class="cls-19" d="M421.66,53.67c-.61,.86-1.51,1.65-2.7,2.34-2.67,1.54-6.24,2.22-9.72,2.06h0c-.03-.89-.53-1.58,2.69-2.2,2.68-.51,6.63-1.63,8.48-4.56,1.7-2.69,.72-6.24-2.11-8.29,.23,.11,.44,.23,.66,.35,2.4,1.39,3.6,3.2,3.6,5.03v2.61c0,.27-.02,.56-.1,.84-.12,.62-.38,1.24-.8,1.83Z"/></g></g></g><g><path class="cls-20" d="M445.83,117.09c-4.12,2.38-10.81,2.38-14.93,0-4.12-2.38-4.12-6.24,0-8.62,4.12-2.38,10.81-2.38,14.93,0,4.12,2.38,4.12,6.24,0,8.62Z"/><g><g><path class="cls-6" d="M447.15,75.61v35.94c0,1.3-.86,2.59-2.57,3.58-3.43,1.98-8.99,1.98-12.41,0-1.71-.99-2.57-2.29-2.57-3.58v-35.94h17.56Z"/><path class="cls-18" d="M440.48,116.45c1.5-.21,2.92-.64,4.09-1.32,1.71-.99,2.57-2.29,2.57-3.58v-35.94h-6.66v40.84Z"/><path class="cls-18" d="M444.57,79.2c-3.43,1.98-8.99,1.98-12.41,0-3.43-1.98-3.43-5.19,0-7.17,3.43-1.98,8.99-1.98,12.41,0,3.43,1.98,3.43,5.19,0,7.17Z"/></g><g><path class="cls-30" d="M444.74,68.64v6.26c0,.94-.62,1.88-1.87,2.6-2.49,1.44-6.52,1.44-9.01,0-1.24-.72-1.87-1.66-1.87-2.6v-6.26h12.74Z"/><path class="cls-20" d="M439.9,78.46c1.09-.16,2.12-.47,2.97-.96,1.24-.72,1.87-1.66,1.87-2.6v-6.26h-4.84v9.82Z"/><path class="cls-18" d="M442.87,71.24c-2.49,1.44-6.52,1.44-9.01,0-2.49-1.44-2.49-3.76,0-5.2,2.49-1.44,6.52-1.44,9.01,0,2.49,1.44,2.49,3.76,0,5.2Z"/></g><g><path class="cls-30" d="M443.24,65.25v2.74c0,.72-.48,1.44-1.43,1.99-1.9,1.1-4.99,1.1-6.89,0-.95-.55-1.43-1.27-1.43-1.99v-2.74h9.75Z"/><path class="cls-20" d="M439.54,70.71c.83-.12,1.62-.36,2.27-.73,.95-.55,1.43-1.27,1.43-1.99v-2.74h-3.7v5.46Z"/><path class="cls-11" d="M441.81,67.24c-1.9,1.1-4.99,1.1-6.89,0-1.9-1.1-1.9-2.88,0-3.98,1.9-1.1,4.99-1.1,6.89,0,1.9,1.1,1.9,2.88,0,3.98Z"/></g><g><path class="cls-30" d="M441.66,58.62v6.38c0,.49-.32,.97-.96,1.34-1.28,.74-3.37,.74-4.65,0-.64-.37-.96-.86-.96-1.34v-6.38h6.58Z"/><path class="cls-20" d="M439.9,66.67c.28-.09,.56-.19,.8-.33,.64-.37,.96-.86,.96-1.34v-6.38h-1.76v8.05Z"/><path class="cls-11" d="M440.69,59.96c-1.28,.74-3.37,.74-4.65,0-1.28-.74-1.28-1.94,0-2.69,1.28-.74,3.37-.74,4.65,0s1.28,1.94,0,2.69Z"/><path class="cls-18" d="M436.75,62.36c0-.45-.32-1.01-.71-1.23-.39-.23-.71-.04-.71,.41s.32,1.01,.71,1.23c.39,.23,.71,.04,.71-.41Z"/></g><path class="cls-12" d="M444.74,57.92c0-.94-.62-1.88-1.87-2.6-2.49-1.44-6.52-1.44-9.01,0-1.24,.72-1.87,1.66-1.87,2.6v10.72c0,.94,.62,1.89,1.87,2.6,2.49,1.44,6.52,1.44,9.01,0,1.24-.72,1.86-1.66,1.87-2.6h0v-10.73h0Z"/><path class="cls-8" d="M442.87,60.52c-2.49,1.44-6.52,1.44-9.01,0-2.49-1.44-2.49-3.76,0-5.2,2.49-1.44,6.52-1.44,9.01,0,2.49,1.44,2.49,3.76,0,5.2Z"/></g></g><g><path class="cls-20" d="M469.21,129.85c-4.71,2.72-12.34,2.72-17.05,0-4.71-2.72-4.71-7.13,0-9.85,4.71-2.72,12.34-2.72,17.05,0,4.71,2.72,4.71,7.13,0,9.85Z"/><g><path class="cls-3" d="M471.18,123.56v-41.7c0-5.8-4.7-10.5-10.5-10.5s-10.5,4.7-10.5,10.5v41.7c0,1.55,1.02,3.1,3.08,4.29,4.1,2.37,10.75,2.37,14.85,0,2.05-1.18,3.08-2.74,3.08-4.29Z"/><path class="cls-20" d="M467.21,93.16v28.63c0,5.32-9.44,7.83-15.52,4.9,.43,.41,.94,.8,1.56,1.16,4.1,2.37,10.75,2.37,14.85,0,2.05-1.18,3.08-2.74,3.08-4.29v-41.7c0-5.8-4.7-10.5-10.5-10.5v2.99c5.58,4.03,6.53,5.77,6.53,18.81Z"/><g><path class="cls-30" d="M465.69,63.55v10.12c0,.74-.49,1.48-1.47,2.05-1.96,1.13-5.13,1.13-7.09,0-.98-.57-1.47-1.31-1.47-2.05v-10.12h10.02Z"/><ellipse class="cls-18" cx="460.68" cy="63.55" rx="5.01" ry="2.89"/><path class="cls-20" d="M459.15,65c-.8-.46-2.01-.5-2.92-.15,.23,.27,.52,.52,.9,.74,.73,.42,1.64,.69,2.58,.79,.27-.47,.08-1.01-.56-1.38Z"/></g><path class="cls-11" d="M468.1,93.14c-4.1,2.37-10.75,2.37-14.85,0-2.05-1.18-3.08-2.74-3.08-4.29v19.94c0,1.55,1.02,3.1,3.08,4.29,4.1,2.37,10.75,2.37,14.85,0,2.05-1.18,3.08-2.74,3.08-4.29v-19.94c0,1.55-1.02,3.1-3.08,4.29Z"/><path class="cls-30" d="M468.1,93.14c-.28,.16-.59,.28-.89,.42v19.94c.3-.14,.61-.26,.89-.42,2.05-1.18,3.08-2.74,3.08-4.29v-19.94c0,1.55-1.02,3.1-3.08,4.29Z"/></g></g></g><g id="Shelf-3"><g><path class="cls-3" d="M171.24,89.75v-6.18h0c-.02-.59-.43-1.18-1.23-1.65l-37.09-21.42c-1.57-.91-4.13-.91-5.7,0L20.58,122.07c-.8,.46-1.21,1.06-1.23,1.65h0v6.18h0c.02,.59,.43,1.18,1.23,1.65l37.09,21.42c1.57,.91,4.13,.91,5.7,0l106.63-61.56c.8-.46,1.21-1.06,1.23-1.65h0Z"/><path class="cls-11" d="M20.58,125.36l37.09,21.42c1.58,.91,4.13,.91,5.7,0l106.63-61.56c1.57-.91,1.57-2.38,0-3.29l-37.09-21.42c-1.57-.91-4.13-.91-5.7,0L20.58,122.07c-1.57,.91-1.57,2.38,0,3.29Z"/><path class="cls-20" d="M60.52,147.47v6.18c-1.03,0-2.05-.24-2.84-.68l-37.1-21.41c-.8-.46-1.21-1.07-1.22-1.65h-.01v-6.18h.01c0-.24,.1-.47,.23-.7-.43,.8-.11,1.71,.99,2.35l37.1,21.41c.78,.46,1.82,.69,2.84,.69Z"/></g><g><path class="cls-20" d="M126.73,88.95c6.79,3.92,17.79,3.92,24.57,0,6.79-3.92,6.79-10.27,0-14.19-6.79-3.92-17.79-3.92-24.57,0-6.79,3.92-6.79,10.27,0,14.19Z"/><g><path class="cls-30" d="M155.41,81.75h.02v-29.29h-29.34v29.29h.02c-.12,2.26,1.29,4.54,4.27,6.26,5.73,3.31,15.02,3.31,20.75,0,2.98-1.72,4.4-4,4.28-6.26Z"/><path class="cls-11" d="M130.39,58.45c5.73,3.31,15.02,3.31,20.75,0,5.73-3.31,5.73-8.67,0-11.98-5.73-3.31-15.02-3.31-20.75,0-5.73,3.31-5.73,8.67,0,11.98Z"/><path class="cls-30" d="M131.02,57.96c5.38,3.04,14.1,3.04,19.48,0,5.38-3.04,5.38-7.96,0-11-5.38-3.04-14.1-3.04-19.48,0-5.38,3.04-5.38,7.96,0,11Z"/><path class="cls-18" d="M150.51,48.38c-5.38-3.04-14.1-3.04-19.48,0-2.37,1.34-3.69,3.04-3.97,4.79,.28,1.75,1.61,3.45,3.97,4.79,5.38,3.04,14.1,3.04,19.48,0,2.37-1.34,3.69-3.04,3.97-4.79-.28-1.75-1.61-3.45-3.97-4.79Z"/><path class="cls-20" d="M126.09,76.8c-.02,2.18,1.41,4.37,4.3,6.03,5.73,3.31,15.02,3.31,20.75,0,2.86-1.65,4.3-3.82,4.3-5.99v-19.61c0,2.17-1.43,4.34-4.3,5.99-5.73,3.31-15.02,3.31-20.75,0-2.88-1.67-4.32-3.85-4.3-6.03v19.61Z"/><g><path class="cls-11" d="M151.4,75c-.51-1.34-2.05-2.76-3-2.22-.95,.55-2.49,3.74-3,5.68-.51,1.94-.37,3.77,.83,3.32,1.2-.45,1.54-2.19,2.17-2.55,.63-.36,.97,.99,2.17,.05,1.2-.94,1.34-2.93,.83-4.27Z"/><path class="cls-11" d="M147.9,69.13c.09,1.16-.32,2.48-.92,2.94-.6,.46-1.17-.11-1.26-1.28-.09-1.16,.32-2.48,.92-2.94,.6-.46,1.17,.11,1.26,1.28Z"/><path class="cls-11" d="M145.31,74.27c.13,1.02-.2,2.23-.75,2.7-.55,.47-1.09,.02-1.23-1s.2-2.23,.75-2.7c.55-.47,1.09-.02,1.23,1Z"/><path class="cls-11" d="M148.9,68.55c-.09,1.27,.32,2.11,.92,1.87,.6-.24,1.17-1.46,1.26-2.73,.09-1.27-.32-2.11-.92-1.87-.6,.24-1.17,1.46-1.26,2.73Z"/><path class="cls-11" d="M151.49,70.7c-.13,1.18,.2,2,.75,1.84,.55-.16,1.09-1.24,1.23-2.42,.13-1.18-.2-2-.75-1.84s-1.09,1.24-1.23,2.42Z"/></g><path class="cls-19" d="M146.77,89.74c-5.39,1.39-11.95,.83-16.38-1.74-2.98-1.71-4.4-3.99-4.28-6.26h-.02v-29.29c0,2.17,1.44,4.34,4.3,5.99,.46,.26,.92,.5,1.42,.71v26.16c0,2.45,8.18,5.36,14.96,4.42Z"/><g><path class="cls-20" d="M144.11,57.68l-1.56-.9c-1.26-.73-1.6-1.72-.75-2.21,.85-.49,2.56-.29,3.82,.44l1.56,.9c1.26,.73,1.6,1.72,.75,2.21-.85,.49-2.56,.29-3.82-.44Z"/><path class="cls-18" d="M142.49,55.94c.46,.27,1.21,.27,1.67,0,.46-.27,.46-.7,0-.97-.46-.27-1.21-.27-1.67,0-.46,.27-.46,.7,0,.97Z"/><path class="cls-18" d="M145.57,57.61c.46,.27,1.21,.27,1.67,0,.46-.27,.46-.7,0-.97-.46-.27-1.21-.27-1.67,0-.46,.27-.46,.7,0,.97Z"/></g></g></g><g><path class="cls-20" d="M101.16,104.02c5.18,2.99,13.59,2.99,18.77,0,5.18-2.99,5.18-7.85,0-10.84-5.18-2.99-13.59-2.99-18.77,0-5.18,2.99-5.18,7.85,0,10.84Z"/><path class="cls-3" d="M123.78,76.51c0-1.85-1.22-3.7-3.67-5.11-4.89-2.82-12.81-2.82-17.7,0-2.44,1.41-3.67,3.26-3.67,5.11h0v21.28h0c0,1.85,1.22,3.7,3.67,5.11,4.89,2.82,12.81,2.82,17.7,0,2.44-1.41,3.67-3.26,3.67-5.11h0v-21.28Z"/><path class="cls-7" d="M118.97,70.83v32.66c.4-.18,.78-.37,1.15-.58,.8-.46,1.45-.97,1.99-1.51v-28.48c-.54-.54-1.19-1.05-1.99-1.51-.36-.21-.75-.4-1.15-.58Z"/><path class="cls-7" d="M115.69,104.55c.62-.13,1.22-.3,1.8-.49v-33.8c-.58-.19-1.18-.36-1.8-.49v34.79Z"/><path class="cls-19" d="M123.56,75.18c-.65-.92-1.62-1.78-2.91-2.53-4.82-2.79-12.43-2.98-17.65-.58v-.98c-.2,.1-.4,.2-.59,.31-2.44,1.41-3.67,3.26-3.67,5.11v4.89h0v9.38h0v7.01c0,1.85,1.22,3.7,3.67,5.11,4.89,2.82,12.81,2.82,17.7,0,.91-.53,1.66-1.12,2.23-1.75-2.33,2.17-8.12,3.37-12.43,2.52-4.3-.85-6.91-3.59-6.91-5.55v-1.9c2.41,1.31,5.57,1.93,8.66,1.93v-9.54c-3.09,0-6.25-.48-8.66-1.78v-2.79c5.21,2.4,12.82,2.21,17.65-.58,1.46-.84,2.49-1.83,3.13-2.89v-4.09c0-.45-.07-.89-.22-1.33Z"/><path class="cls-19" d="M100.86,98.69v-26.19c-1.41,1.21-2.11,2.61-2.11,4.02v21.28c0,1.85,1.22,3.7,3.67,5.11,1.39,.8,3.02,1.36,4.75,1.71-4.7-1.27-6.31-4.49-6.31-5.93Z"/><path class="cls-20" d="M124.54,70.8c0-1.96-1.3-3.92-3.89-5.42-5.18-2.99-13.59-2.99-18.77,0-2.59,1.5-3.89,3.46-3.89,5.42h0v5.88h0c0,1.96,1.3,3.92,3.89,5.42,5.18,2.99,13.59,2.99,18.77,0,2.59-1.5,3.89-3.46,3.89-5.42h0v-5.88h0Z"/><g class="cls-29"><path d="M115.87,76.19h-.64v7.77c.21-.04,.43-.06,.64-.11v-7.66Z"/><path d="M112.93,84.26v-7.71h-.64v7.75c.21,0,.43-.02,.64-.04Z"/><path d="M123.39,79.76v-7.03h-.64v7.73c.23-.23,.45-.46,.64-.7Z"/><path d="M124.22,78.29c.2-.53,.32-1.07,.32-1.61v-5.88c0-.18-.07-.36-.09-.54h-.23v8.04Z"/><path d="M120.54,82.15s.08-.03,.11-.05c.2-.12,.34-.25,.53-.37v-7.31h-.64v7.73Z"/><path d="M118.65,75.48h-.64v7.77c.21-.07,.43-.13,.64-.21v-7.56Z"/><path d="M104.29,83.19v-7.83h-.64v7.59c.21,.09,.42,.17,.64,.24Z"/><path d="M99.22,79.85c.19,.24,.4,.47,.64,.7v-8.1h-.64v7.4Z"/><path d="M97.99,70.8v5.88h0c0,.54,.12,1.08,.32,1.61v-8.59h-.14c-.09,.36-.18,.72-.18,1.09h0Z"/><path d="M101.18,81.61c.22,.15,.4,.31,.64,.45v-7.92h-.64v7.47Z"/><path d="M109.94,76.53h-.64v7.71c.21,.02,.42,.02,.64,.04v-7.74Z"/><path d="M107.02,76.14h-.64v7.66c.21,.05,.43,.07,.64,.11v-7.77Z"/></g><path class="cls-19" d="M114.44,84.12c-6.57,.04-10.04-2.1-11.09-3.84-.8-1.32-.94-3.77-.94-6.19,0,0-.74-5.52-.6-5.54,.09-.01-1.58-.37-2.85-.64-.65,.92-.98,1.91-.98,2.89h0v5.88h0c0,1.96,1.3,3.92,3.89,5.42,3.41,1.97,8.2,2.63,12.56,2.01Z"/><path class="cls-30" d="M101.87,76.22c5.18,2.99,13.59,2.99,18.77,0,5.18-2.99,5.18-7.85,0-10.84s-13.59-2.99-18.77,0-5.18,7.85,0,10.84Z"/><path class="cls-18" d="M121.36,75.76c4.45-3.01,4.22-7.54-.71-10.38-2.53-1.46-5.82-2.2-9.13-2.24-1.77,.3-3.44,.85-4.84,1.65-4.48,2.56-4.48,7.68,0,10.24,4,2.29,10.21,2.53,14.69,.73Z"/><path class="cls-19" d="M103.13,102.33c4.49,2.26,11.77,2.26,16.26,0,4.49-2.26,4.49-5.91,0-8.17-4.49-2.26-11.77-2.26-16.26,0-4.49,2.26-4.49,5.91,0,8.17Z"/><path class="cls-6" d="M98.75,82.02c0,1.85,1.22,3.7,3.67,5.11,2.44,1.41,5.65,2.12,8.85,2.12v9.38c-3.2,0-6.41-.71-8.85-2.12-2.44-1.41-3.67-3.26-3.67-5.11v-9.38Z"/><path class="cls-6" d="M99,73.74s4.32,4.35,12.66,4.12c8.34-.23,11.68-4.78,12.12-6.19,.44-1.41,.16-3.25-1.13-4.81,1.12,1.05,1.87,2.43,1.88,3.94v5.88c0,.5,.26,2.21-2.44,4.42,0,0,1.58-1.79,1.58-3.52v-4.07s-2.95,4.94-12.02,4.94-12.2-3.98-12.66-4.72Z"/></g><g><path class="cls-20" d="M75.81,116.84c5.18,2.99,13.59,2.99,18.77,0,5.18-2.99,5.18-7.85,0-10.84-5.18-2.99-13.59-2.99-18.77,0-5.18,2.99-5.18,7.85,0,10.84Z"/><path class="cls-3" d="M98.43,89.33c0-1.85-1.22-3.7-3.67-5.11-4.89-2.82-12.81-2.82-17.7,0-2.44,1.41-3.67,3.26-3.67,5.11h0v21.28h0c0,1.85,1.22,3.7,3.67,5.11,4.89,2.82,12.81,2.82,17.7,0,2.44-1.41,3.67-3.26,3.67-5.11h0v-21.28Z"/><path class="cls-7" d="M93.62,83.65v32.66c.4-.18,.78-.37,1.15-.58,.8-.46,1.45-.97,1.99-1.51v-28.48c-.54-.54-1.19-1.05-1.99-1.51-.36-.21-.75-.4-1.15-.58Z"/><path class="cls-7" d="M90.34,117.37c.62-.13,1.22-.3,1.8-.49v-33.8c-.58-.19-1.18-.36-1.8-.49v34.79Z"/><path class="cls-19" d="M98.21,88c-.65-.92-1.62-1.78-2.91-2.53-4.82-2.79-12.43-2.98-17.65-.58v-.98c-.2,.1-.4,.2-.59,.31-2.44,1.41-3.67,3.26-3.67,5.11v4.89h0v9.38h0v7.01c0,1.85,1.22,3.7,3.67,5.11,4.89,2.82,12.81,2.82,17.7,0,.91-.53,1.66-1.12,2.23-1.75-2.33,2.17-8.12,3.37-12.43,2.52-4.3-.85-6.91-3.59-6.91-5.55v-1.9c2.41,1.31,5.57,1.93,8.66,1.93v-9.54c-3.09,0-6.24-.48-8.66-1.78v-2.79c5.21,2.4,12.82,2.21,17.65-.58,1.46-.84,2.49-1.83,3.13-2.89v-4.09c0-.45-.07-.89-.22-1.33Z"/><path class="cls-19" d="M75.51,111.51v-26.19c-1.41,1.21-2.11,2.61-2.11,4.02v21.28c0,1.85,1.22,3.7,3.67,5.11,1.39,.8,3.02,1.37,4.75,1.71-4.7-1.27-6.31-4.49-6.31-5.92Z"/><path class="cls-20" d="M99.19,83.62c0-1.96-1.3-3.92-3.89-5.42-5.18-2.99-13.59-2.99-18.77,0-2.59,1.5-3.89,3.46-3.89,5.42h0v5.88h0c0,1.96,1.3,3.92,3.89,5.42,5.18,2.99,13.59,2.99,18.77,0,2.59-1.5,3.89-3.46,3.89-5.42h0v-5.88h0Z"/><g class="cls-29"><path d="M90.52,89.01h-.64v7.77c.21-.04,.43-.06,.64-.11v-7.66Z"/><path d="M87.58,97.07v-7.71h-.64v7.75c.21,0,.43-.02,.64-.04Z"/><path d="M98.04,92.58v-7.03h-.64v7.73c.23-.23,.46-.46,.64-.7Z"/><path d="M98.87,91.11c.2-.53,.32-1.07,.32-1.61v-5.88c0-.18-.07-.36-.09-.55h-.23v8.04Z"/><path d="M95.19,94.97s.08-.03,.11-.05c.2-.12,.34-.25,.53-.37v-7.31h-.64v7.73Z"/><path d="M93.3,88.3h-.64v7.77c.21-.07,.43-.13,.64-.21v-7.56Z"/><path d="M78.95,96.01v-7.83h-.64v7.59c.21,.09,.42,.17,.64,.24Z"/><path d="M73.87,92.67c.19,.24,.4,.47,.64,.7v-8.1h-.64v7.4Z"/><path d="M72.64,83.62v5.88h0c0,.54,.12,1.08,.32,1.61v-8.58h-.14c-.09,.36-.18,.72-.18,1.09h0Z"/><path d="M75.84,94.43c.22,.15,.4,.31,.64,.45v-7.92h-.64v7.47Z"/><path d="M84.59,89.35h-.64v7.71c.21,.02,.42,.02,.64,.04v-7.74Z"/><path d="M81.68,88.96h-.64v7.66c.21,.05,.43,.07,.64,.11v-7.77Z"/></g><path class="cls-19" d="M89.09,96.94c-6.57,.04-10.04-2.1-11.09-3.84-.8-1.32-.94-3.77-.94-6.19,0,0-.74-5.52-.6-5.53,.09-.01-1.58-.37-2.85-.64-.65,.92-.97,1.91-.97,2.89h0v5.88h0c0,1.96,1.3,3.92,3.89,5.42,3.41,1.97,8.2,2.63,12.56,2.01Z"/><path class="cls-30" d="M76.53,89.04c5.18,2.99,13.59,2.99,18.77,0,5.18-2.99,5.18-7.85,0-10.84-5.18-2.99-13.59-2.99-18.77,0-5.18,2.99-5.18,7.85,0,10.84Z"/><path class="cls-18" d="M96.02,88.58c4.45-3.01,4.22-7.54-.71-10.38-2.53-1.46-5.82-2.2-9.13-2.24-1.77,.3-3.44,.85-4.84,1.65-4.48,2.56-4.48,7.68,0,10.24,4,2.29,10.21,2.53,14.69,.73Z"/><path class="cls-19" d="M77.79,115.15c4.49,2.26,11.77,2.26,16.26,0,4.49-2.26,4.49-5.91,0-8.17s-11.77-2.26-16.26,0c-4.49,2.26-4.49,5.91,0,8.17Z"/><path class="cls-6" d="M73.4,94.84c0,1.85,1.22,3.7,3.67,5.11,2.44,1.41,5.65,2.12,8.85,2.12v9.38c-3.2,0-6.41-.71-8.85-2.12-2.44-1.41-3.67-3.26-3.67-5.11v-9.38Z"/><path class="cls-6" d="M73.66,86.56s4.32,4.35,12.66,4.12c8.34-.23,11.68-4.78,12.12-6.19,.44-1.41,.16-3.25-1.12-4.81,1.12,1.05,1.87,2.43,1.88,3.94v5.88c0,.5,.26,2.21-2.44,4.42,0,0,1.58-1.79,1.58-3.52v-4.07s-2.95,4.94-12.02,4.94-12.2-3.98-12.66-4.72Z"/></g><g><path id="Shadow-2" class="cls-20" d="M40.43,119.17c-7.36,4.25-7.36,11.13,0,15.38,7.36,4.25,19.28,4.25,26.64,0,7.36-4.25,7.36-11.13,0-15.38-7.36-4.25-19.28-4.25-26.64,0Z"/><g id="Jar-2"><path class="cls-30" d="M65.94,84.77c-.73-.42-1.51-.8-2.33-1.12-1.52-.61-2.54-2.04-2.54-3.67v-4.48h-14.63v4.48c0,1.63-1.03,3.07-2.54,3.67-.82,.33-1.6,.7-2.33,1.12-3.37,1.94-5.05,4.49-5.05,7.04v33.79c0,2.55,1.68,5.1,5.05,7.04,6.73,3.89,17.65,3.89,24.39,0,3.37-1.94,5.05-4.49,5.05-7.04v-33.79c0-2.55-1.68-5.1-5.05-7.04Z"/><path class="cls-19" d="M42.61,132.07c-6.16-3.52-6.16-9.23,0-12.75,6.16-3.52,16.14-3.52,22.3,0,6.16,3.52,6.16,9.23,0,12.75-6.16,3.52-16.14,3.52-22.3,0Z"/><path class="cls-19" d="M62.46,80.2c-3.17-1.83-7.65-2.45-11.72-1.86v-2.85h-4.31v4.48c0,1.64-1.03,3.07-2.55,3.67-.82,.33-1.6,.7-2.33,1.12-.03,.01-.05,.03-.08,.05-3.31,1.94-4.97,4.47-4.97,6.99v33.79c0,2.55,1.68,5.1,5.05,7.04,4.84,2.8,11.85,3.57,17.91,2.35-14.01,.96-17.4-4.98-17.4-9.28v-32.85c0-1.52,.23-2.77,1.28-3.82,.48,.44,1.04,.86,1.71,1.23,4.81,2.77,12.6,2.77,17.41,0,4.81-2.77,4.81-7.27,0-10.05Z"/><path class="cls-7" d="M65.94,84.77c-.73-.42-1.51-.8-2.33-1.12-1.52-.61-2.54-2.04-2.54-3.67v-4.48h-1.6v6c0,1.38,1.19,2.7,2.57,3.45,1.38,.75,5.75,2.65,6.82,4.73,1.01,1.98,.68,5.91,.68,10.58v23.85c0,3.03-1.26,7.41-6.89,10.05,1.17-.41,2.29-.9,3.3-1.48,3.37-1.94,5.05-4.39,5.05-7.07v-33.79c0-2.55-1.68-5.1-5.05-7.04Z"/><g><path class="cls-20" d="M66.07,81.78v1.28c.01,1.82-1.2,3.65-3.61,5.04-4.8,2.77-12.6,2.77-17.41,0-1.2-.69-2.1-1.49-2.7-2.35-.6-.85-.9-1.76-.9-2.67v-1.32c0-.27,.02-.55,.1-.82,.3-1.54,1.47-3.04,3.5-4.21,.06-.04,.12-.07,.18-.1,4.83-2.68,12.49-2.64,17.23,.1,2.03,1.17,3.21,2.67,3.51,4.19,.07,.29,.1,.57,.1,.86Z"/><path class="cls-19" d="M54.76,88.85v-4.53c0-1.79,.45,.63-2.69,.63-2.72,0-5.15-6.29-6.85-8.33-.06,.02-.12,.06-.18,.1-2.03,1.17-3.2,2.67-3.5,4.21-.07,.27-.1,.55-.1,.82v1.32c0,.91,.3,1.82,.9,2.67,.6,.86,1.51,1.66,2.7,2.35,4.82,2.77,12.61,2.77,17.41,0-3.39,1.34-7.7,2.46-7.7,.75Z"/><path class="cls-18" d="M45.05,86.78c-4.81-2.78-4.81-7.28,0-10.05,4.81-2.78,12.6-2.78,17.41,0,4.81,2.78,4.81,7.28,0,10.05-4.81,2.78-12.6,2.78-17.41,0Z"/><path class="cls-20" d="M66.07,77.51v2.55c0,.29-.02,.57-.1,.86-.3,1.53-1.48,3.02-3.51,4.19-2.15,1.24-4.9,1.92-7.7,2.04-3.48,.17-7.05-.51-9.72-2.06-1.2-.69-2.09-1.48-2.7-2.34-.42-.59-.68-1.21-.8-1.83-.07-.28-.1-.56-.1-.84v-2.61c0-1.83,1.2-3.64,3.6-5.03,.22-.12,.43-.24,.66-.35,4.84-2.43,12.17-2.31,16.75,.35,2.41,1.4,3.62,3.23,3.61,5.06Z"/><path class="cls-30" d="M45.05,82.45c-4.81-2.78-4.81-7.28,0-10.05,4.81-2.78,12.6-2.78,17.41,0s4.81,7.28,0,10.05c-4.81,2.78-12.6,2.78-17.41,0Z"/><path class="cls-19" d="M42.35,82.76c.61,.86,1.51,1.65,2.7,2.34,2.66,1.54,6.24,2.22,9.72,2.06h0c.03-.89,.53-1.58-2.69-2.2-2.68-.51-6.63-1.63-8.48-4.56-1.7-2.69-.72-6.24,2.11-8.29-.23,.11-.44,.23-.66,.35-2.4,1.39-3.6,3.2-3.6,5.03v2.61c0,.28,.02,.56,.1,.84,.12,.62,.38,1.24,.8,1.83Z"/></g></g></g></g><g><path class="cls-13" d="M119.29,381.92c-2.94,0-5.82-.51-8.56-1.54-8.92-3.36-15.3-11.89-17.51-23.41-2.48-12.97,.32-25.74,3.04-38.09,.77-3.51,1.5-6.82,2.11-10.15l8.43,1.56c-.64,3.47-1.42,7.01-2.17,10.43-2.53,11.51-5.14,23.4-2.99,34.64,1.66,8.65,5.96,14.69,12.11,17,6.05,2.28,13.4,.56,20.17-4.72,3.35-2.61,7.2-6.74,11.26-11.11,10.42-11.2,22.25-23.89,36.16-23.32,9.7,.39,19.55,4.72,29.27,12.87,2.43,2.03,4.75,4.2,6.99,6.3,4.83,4.52,9.39,8.79,14.8,11.64,13.89,7.31,31.21,4.15,46.32,.09,18.56-4.98,35.16-7.06,55.52-6.94l-.05,8.57c-19.81-.12-35.24,1.81-53.25,6.64-16.72,4.49-36.03,7.91-52.54-.78-6.43-3.39-11.63-8.26-16.66-12.97-2.26-2.11-4.39-4.11-6.64-5.99-8.23-6.9-16.35-10.56-24.11-10.87-9.98-.4-20.37,10.75-29.54,20.6-4.31,4.63-8.37,9-12.27,12.03-6.36,4.95-13.28,7.52-19.9,7.52Z"/><g><rect class="cls-13" x="80.55" y="311.94" width="36" height="20.57" rx="5.98" ry="5.98"/><path class="cls-31" d="M80.79,328.21c.13,0,.26,0,.4,0,13.46,0,25.02-6.68,30.07-16.24,2.97,.34,5.28,2.87,5.28,5.93v8.61c0,3.3-2.68,5.98-5.98,5.98h-24.04c-2.72,0-5.01-1.81-5.73-4.29Z"/></g><g><g><path class="cls-17" d="M365.92,399.35c-33.6,0-47.42-16.63-47.42-37.14s13.82-37.14,47.42-37.14c29.44,0,64.29,12.76,72.48,29.71h.07c3.79,0,6.86,3.07,6.86,6.86v1.19c0,3.76-3.05,6.8-6.8,6.8h-.09s-.04,.01-.05,.03c-8.22,16.94-43.05,29.68-72.47,29.68Z"/><path class="cls-14" d="M408.77,363.93c0-15.86-9.31-29.71-23.14-37.12,23.67,4.03,46.37,14.72,52.78,27.98h.07c3.79,0,6.86,3.07,6.86,6.86v1.19c0,3.76-3.05,6.8-6.8,6.8h-.09s-.04,.01-.05,.03c-5.75,11.85-24.54,21.65-45.38,26.46,9.66-7.85,15.76-19.37,15.76-32.21Z"/><ellipse class="cls-24" cx="358.21" cy="346.79" rx="15.14" ry="7.43"/><path class="cls-15" d="M320.54,374.97c9.84,11.74,31.79,18.21,56.18,15.17,31.63-3.93,55.37-22.35,53.03-41.14-.25-1.97-.77-3.87-1.55-5.68,4.66,3.49,8.21,7.35,10.19,11.46h.07c3.79,0,6.86,3.07,6.86,6.86v1.19c0,3.76-3.05,6.8-6.8,6.8h-.09s-.04,.01-.05,.03c-8.22,16.94-43.05,29.68-72.47,29.68-26.26,0-40.44-10.15-45.38-24.38Z"/></g><g><rect class="cls-13" x="308.22" y="350.22" width="13.71" height="24" rx="3.99" ry="3.99"/><path class="cls-31" d="M311.08,350.38c0,.09,0,.18,0,.27,0,8.97,4.46,16.68,10.83,20.04-.23,1.98-1.91,3.52-3.96,3.52h-5.74c-2.2,0-3.99-1.78-3.99-3.99v-16.02c0-1.81,1.21-3.34,2.86-3.82Z"/></g></g><path class="cls-13" d="M202.49,258.41c-.47,0-.94,0-1.41-.02l-16.95-.45,.23-8.57,16.95,.45c11.7,.31,22.82-3.97,31.3-12.05,8.48-8.08,13.28-18.97,13.54-30.68l1.33-61.34c.64-29.27,24.06-52.97,53.32-53.95l1.03-.03c7.72-.26,15.23,1.06,22.34,3.9,6.84,2.74,12.99,6.77,18.26,11.98,5.27,5.21,9.38,11.3,12.21,18.11,2.94,7.07,4.35,14.57,4.19,22.29l-.62,30.29-8.57-.17,.62-30.29c.26-12.92-4.66-25.04-13.85-34.12-9.2-9.08-21.38-13.84-34.29-13.41l-1.03,.03c-24.72,.82-44.51,20.84-45.04,45.57l-1.33,61.34c-.3,14-6.06,27.04-16.19,36.7-9.8,9.34-22.54,14.43-36.02,14.43Z"/><g><g><rect class="cls-13" x="168.82" y="234.24" width="20.57" height="36" rx="5.98" ry="5.98"/><path class="cls-31" d="M185.09,234.48c0,.13,0,.26,0,.4,0,13.46-6.68,25.02-16.24,30.07,.34,2.97,2.87,5.28,5.93,5.28h8.61c3.3,0,5.98-2.68,5.98-5.98v-24.04c0-2.72-1.81-5.01-4.29-5.73Z"/></g><path class="cls-21" d="M129.18,314.51H58.79c-10.64,0-19.26-8.62-19.26-19.26v-92.6c0-10.64,8.62-19.26,19.26-19.26h70.84c16.05,0,30.63,9.36,37.3,23.96l.29,.64c11.51,25.18,11.74,54.08,.62,79.44l-1.11,2.53c-6.54,14.91-21.28,24.55-37.56,24.55Z"/><path class="cls-6" d="M123.32,310.23H57.53c-9.94,0-18-8.06-18-18v-86.55c0-9.94,8.06-18,18-18H123.74c15,0,28.62,8.75,34.86,22.39l.27,.6c10.76,23.54,10.97,50.54,.58,74.25l-1.04,2.36c-6.11,13.94-19.89,22.94-35.11,22.94Z"/><path class="cls-21" d="M57.53,300.23c-4.41,0-8-3.59-8-8v-86.55c0-4.41,3.59-8,8-8H123.74c11.06,0,21.17,6.5,25.77,16.55l.27,.6c9.56,20.92,9.75,45.01,.52,66.08l-1.04,2.36c-4.52,10.3-14.7,16.96-25.95,16.96H57.53Z"/><path class="cls-23" d="M158.88,210.67l-.27-.6c-6.24-13.64-19.86-22.4-34.86-22.4h-23.65c5.81,11.61,9.31,26.55,9.31,42.87,0,36.92-17.91,66.84-39.99,66.84-11.88,0-22.55-8.66-29.88-22.42v17.25c0,9.94,8.06,18,18,18H123.32c15.22,0,29-9,35.11-22.94l1.04-2.36c10.39-23.7,10.18-50.71-.58-74.25Z"/><path class="cls-28" d="M56.1,298.8c-3.63,0-6.57-2.95-6.57-6.57v-86.55c0-3.63,2.95-6.57,6.57-6.57H122.31c10.5,0,20.1,6.17,24.47,15.72l.27,.6c9.4,20.55,9.58,44.21,.51,64.91l-1.04,2.36c-4.29,9.78-13.96,16.1-24.64,16.1H56.1Z"/><path class="cls-17" d="M119.76,279.18h-45.48c-6.85,0-12.4-4.64-12.4-10.36v-48.69c0-5.72,5.55-10.36,12.4-10.36h45.48c6.85,0,12.4,4.64,12.4,10.36v48.69c0,5.72-5.55,10.36-12.4,10.36Z"/><path class="cls-27" d="M117.44,279.18h-41.41c-6.24,0-11.29-4.64-11.29-10.36v-48.69c0-5.72,5.05-10.36,11.29-10.36h41.41c6.24,0,11.29,4.64,11.29,10.36v48.69c0,5.72-5.05,10.36-11.29,10.36Z"/><g><rect class="cls-17" x="90.46" y="204.17" width="13.31" height="1.71"/><g><rect class="cls-17" x="68.84" y="204.17" width="13.31" height="1.71"/><rect class="cls-17" x="112.09" y="204.17" width="13.31" height="1.71"/></g></g><g><rect class="cls-17" x="54.55" y="221.05" width="3.43" height="12.57" rx="1.7" ry="1.7"/><rect class="cls-17" x="54.55" y="255.33" width="3.43" height="12.57" rx="1.7" ry="1.7"/></g><path class="cls-22" d="M158.88,210.67l-.27-.6c-1.32-2.89-2.98-5.56-4.9-7.97,4.25,12.07,5.98,25.27,5.98,37.59,0,36.13-14.83,50.85-64.84,50.85-20.82,0-40-5.08-55.3-13.62v15.31c0,9.94,8.06,18,18,18H123.32c15.22,0,29-9,35.11-22.94l1.04-2.36c10.39-23.7,10.18-50.71-.58-74.25Z"/><g><g><path class="cls-17" d="M126.63,295.44h-12.79c-1.72,0-3.11-1.64-3.11-3.66v-3.77c0-2.02,1.39-3.66,3.11-3.66h12.79c2.58,0,4.67,2.46,4.67,5.49v.11c0,3.03-2.09,5.49-4.67,5.49Z"/><path class="cls-27" d="M124.87,295.44h-11.37c-1.53,0-2.77-1.64-2.77-3.66v-3.77c0-2.02,1.24-3.66,2.77-3.66h11.37c2.29,0,4.15,2.46,4.15,5.49v.11c0,3.03-1.86,5.49-4.15,5.49Z"/></g><g><path class="cls-17" d="M67.41,295.44h12.79c1.72,0,3.11-1.64,3.11-3.66v-3.77c0-2.02-1.39-3.66-3.11-3.66h-12.79c-2.58,0-4.67,2.46-4.67,5.49v.11c0,3.03,2.09,5.49,4.67,5.49Z"/><path class="cls-27" d="M69.18,295.44h11.37c1.53,0,2.77-1.64,2.77-3.66v-3.77c0-2.02-1.24-3.66-2.77-3.66h-11.37c-2.29,0-4.15,2.46-4.15,5.49v.11c0,3.03,1.86,5.49,4.15,5.49Z"/></g></g><g><rect class="cls-27" x="90.45" y="284.18" width="13.14" height="11.43" rx="3.04" ry="3.04"/><path class="cls-17" d="M100.55,284.18h-1.71c1.68,0,3.04,1.36,3.04,3.04v5.35c0,1.68-1.36,3.04-3.04,3.04h1.71c1.68,0,3.04-1.36,3.04-3.04v-5.35c0-1.68-1.36-3.04-3.04-3.04Z"/></g><path class="cls-16" d="M118.1,209.78c2.5,6.09,3.87,12.7,3.87,19.62,0,22.27-14.2,41.41-34.5,49.78h29.97c6.23,0,11.29-4.64,11.29-10.36v-48.69c0-5.52-4.7-10.03-10.63-10.34Z"/><g><path class="cls-13" d="M84.3,221.95l-5.14,3.37v-2.14l5.17-3.58h2.25v16.95h-2.27v-14.6Z"/><path class="cls-13" d="M96.8,236.73c-.47-.05-.96-.16-1.46-.31-.54-.16-.97-.39-1.28-.69-.31-.3-.57-.74-.78-1.29-.21-.56-.31-1.21-.31-1.96v-8.56c0-.78,.13-1.47,.38-2.06,.25-.59,.58-1.06,.98-1.41,.35-.3,.82-.54,1.41-.72,.59-.18,1.18-.3,1.78-.35,.66-.03,1.26-.05,1.8-.05,1.06,0,2.49,.08,4.28,.24v1.78c-1.79-.23-3.33-.34-4.62-.34-.97,0-1.71,.07-2.22,.21-.51,.14-.87,.41-1.11,.82-.23,.41-.35,1.02-.35,1.84v2.66h3.84c.87,0,1.52,.02,1.96,.05,.43,.04,.9,.1,1.38,.21,.49,.1,.85,.28,1.08,.52,.23,.24,.44,.59,.61,1.04,.16,.44,.24,.98,.24,1.64v2.48c0,1.88-.59,3.1-1.78,3.66-.57,.26-1.15,.44-1.72,.54-.57,.1-1.32,.14-2.25,.14-.77,0-1.38-.03-1.85-.08Zm3.98-1.66c.46-.13,.79-.38,.99-.76,.2-.37,.3-.94,.3-1.71v-2.53c0-.57-.09-1.01-.26-1.29-.17-.29-.5-.48-.97-.59-.47-.1-1.19-.16-2.17-.16h-3.39v4.57c0,.77,.1,1.34,.31,1.71,.21,.37,.55,.63,1.02,.76s1.17,.2,2.09,.2,1.61-.07,2.08-.2Z"/><path class="cls-13" d="M111.93,236.73c-.48-.05-.99-.16-1.53-.31-.57-.16-1.03-.39-1.37-.69-.34-.3-.62-.74-.85-1.29-.23-.52-.34-1.17-.34-1.96v-8.56c0-.78,.11-1.47,.34-2.06,.23-.59,.52-1.06,.89-1.41,.33-.3,.77-.54,1.32-.72,.55-.18,1.1-.3,1.66-.35,.63-.03,1.21-.05,1.75-.05,.77,0,1.39,.03,1.87,.08s.99,.16,1.53,.31c.57,.17,1.04,.42,1.4,.73,.36,.31,.65,.76,.87,1.33,.23,.57,.34,1.28,.34,2.11v8.59c0,.71-.11,1.35-.34,1.91-.23,.56-.52,.99-.89,1.31-.35,.3-.79,.54-1.33,.72-.54,.18-1.09,.29-1.65,.33-.49,.05-1.09,.08-1.8,.08-.77,0-1.39-.03-1.87-.08Zm4.06-1.66c.5-.13,.87-.39,1.1-.77,.23-.38,.34-.95,.34-1.7v-8.88c0-.82-.12-1.43-.35-1.84-.24-.41-.6-.68-1.1-.82-.5-.14-1.21-.21-2.15-.21s-1.68,.07-2.18,.21c-.5,.14-.86,.41-1.08,.82-.23,.41-.34,1.02-.34,1.84v8.88c0,.75,.12,1.31,.35,1.7,.24,.38,.6,.64,1.11,.77,.5,.13,1.23,.2,2.17,.2s1.64-.07,2.14-.2Z"/><path class="cls-13" d="M93.77,267.85v-1.75c1.67,.3,3.12,.44,4.33,.44,1.03,0,1.82-.1,2.39-.3,.57-.2,.97-.54,1.21-1.03,.24-.49,.37-1.17,.37-2.04v-2.22h-3.84c-.87,0-1.52-.02-1.96-.05-.44-.03-.9-.1-1.38-.21-.49-.1-.85-.28-1.08-.52-.23-.24-.44-.59-.61-1.04-.16-.45-.24-1-.24-1.64v-2.51c0-1.88,.59-3.1,1.78-3.66,.57-.26,1.15-.44,1.72-.54,.57-.1,1.32-.14,2.25-.14,.77,0,1.38,.02,1.85,.07,.47,.04,.96,.14,1.46,.3,.54,.17,.97,.41,1.28,.72,.31,.3,.57,.73,.78,1.27,.21,.54,.31,1.2,.31,1.98v8.56c0,1.65-.49,2.83-1.46,3.54-.97,.7-2.56,1.06-4.75,1.06-1.41,0-2.88-.1-4.41-.29Zm8.3-8.41v-4.6c0-.77-.1-1.34-.31-1.71-.21-.37-.55-.63-1.02-.76s-1.17-.2-2.09-.2-1.61,.07-2.08,.2c-.46,.13-.79,.38-.99,.76-.2,.37-.3,.94-.3,1.71v2.56c0,.57,.09,1.01,.26,1.29,.17,.29,.5,.48,.97,.59,.47,.1,1.19,.16,2.17,.16h3.39Z"/><path class="cls-13" d="M111.93,268.06c-.48-.05-.99-.16-1.53-.31-.57-.16-1.03-.39-1.37-.69-.34-.3-.62-.74-.85-1.29-.23-.52-.34-1.17-.34-1.96v-8.56c0-.78,.11-1.47,.34-2.06,.23-.59,.52-1.06,.89-1.41,.33-.3,.77-.54,1.32-.72,.55-.18,1.1-.3,1.66-.35,.63-.03,1.21-.05,1.75-.05,.77,0,1.39,.03,1.87,.08,.48,.05,.99,.16,1.53,.31,.57,.17,1.04,.42,1.4,.73,.36,.31,.65,.76,.87,1.33,.23,.57,.34,1.28,.34,2.11v8.59c0,.71-.11,1.35-.34,1.91-.23,.56-.52,.99-.89,1.31-.35,.3-.79,.54-1.33,.72-.54,.18-1.09,.29-1.65,.33-.49,.05-1.09,.08-1.8,.08-.77,0-1.39-.03-1.87-.08Zm4.06-1.66c.5-.13,.87-.39,1.1-.77,.23-.38,.34-.95,.34-1.7v-8.88c0-.82-.12-1.43-.35-1.84-.24-.41-.6-.68-1.1-.82-.5-.14-1.21-.21-2.15-.21s-1.68,.07-2.18,.21c-.5,.14-.86,.41-1.08,.82-.23,.41-.34,1.02-.34,1.84v8.88c0,.75,.12,1.31,.35,1.7,.24,.38,.6,.64,1.11,.77,.5,.13,1.23,.2,2.17,.2s1.64-.07,2.14-.2Z"/></g><path class="cls-17" d="M84.75,254.27c-1.82-1.82-4.72-1.92-6.66-.3-1.94-1.62-4.84-1.52-6.66,.3-1.93,1.93-1.93,5.06,0,6.99,.41,.41,6.49,6.09,6.49,6.09l.17-.17,.17,.17s6.08-5.68,6.49-6.09c1.93-1.93,1.93-5.06,0-6.99Z"/></g><g><path class="cls-17" d="M421.91,162.02v133.87c0,5.39-4.37,9.76-9.76,9.76h-114.2c-5.83,0-10.88-3.49-13.31-8.57-.99-2.07-1.55-4.4-1.55-6.87v-122.52c0-2.47,.56-4.8,1.55-6.87,2.43-5.08,7.48-8.57,13.31-8.57h114.2c5.39,0,9.76,4.37,9.76,9.76Z"/><path class="cls-1" d="M421.91,160.84v136.24c-.14,0-.28,.01-.43,.01h-136.86c-.99-2.07-1.55-4.4-1.55-6.87v-122.52c0-2.47,.56-4.8,1.55-6.87h136.86c.14,0,.29,0,.43,.01Z"/><g class="cls-25"><path class="cls-26" d="M421.91,160.84v136.24c-.14,0-.28,.01-.43,.01h-136.86c-.99-2.07-1.55-4.4-1.55-6.87v-122.52c0-2.47,.56-4.8,1.55-6.87h136.86c.14,0,.29,0,.43,.01Z"/></g><path class="cls-13" d="M388.49,167.7v122.52c0,8.53-6.65,15.44-14.86,15.44h-71.4c-5.83,0-10.88-3.49-13.31-8.57-.99-2.07-1.55-4.4-1.55-6.87v-122.52c0-2.47,.56-4.8,1.55-6.87,2.43-5.08,7.48-8.57,13.31-8.57h71.4c8.21,0,14.86,6.91,14.86,15.44Z"/><path class="cls-17" d="M384.2,167.7v122.52c0,8.53-6.65,15.44-14.86,15.44h-71.4c-5.83,0-10.88-3.49-13.31-8.57-.99-2.07-1.55-4.4-1.55-6.87v-122.52c0-2.47,.56-4.8,1.55-6.87,2.43-5.08,7.48-8.57,13.31-8.57h71.4c8.21,0,14.86,6.91,14.86,15.44Z"/><path class="cls-1" d="M375.96,167.7v122.52c0,3.79-3.41,6.87-7.6,6.87h-83.72c-.67-1.39-1.14-2.91-1.37-4.51-.11-.77-.17-1.56-.17-2.36v-122.52c0-2.47,.56-4.8,1.55-6.87h83.72c4.14,0,7.52,3.01,7.6,6.73,0,.05,0,.09,0,.14Z"/><g class="cls-25"><path class="cls-26" d="M375.96,167.7v81.37c-7.91,10.26-18.67,19.8-32.88,27.31-18.12,9.57-39.42,14.56-59.81,16.2-.11-.77-.17-1.56-.17-2.36v-116.56c34.67-12.2,72.15-12.93,92.87-6.1,0,.05,0,.09,0,.14Z"/></g><path class="cls-6" d="M289.94,216.11s.01,.16,.03,.46c.02,.3,.05,.74,.08,1.3,.06,1.12,.15,2.71,.21,4.63,.04,.96,.07,1.99,.1,3.09,.03,1.1,.06,2.25,.08,3.45,.01,1.2,.05,2.43,.05,3.69,0,1.26,.01,2.53,.02,3.81,0,1.28-.01,2.55-.02,3.81,0,1.26-.03,2.49-.05,3.69-.01,1.2-.05,2.35-.08,3.45-.02,1.1-.06,2.13-.1,3.09-.07,1.91-.15,3.51-.21,4.63-.06,1.12-.11,1.76-.11,1.76,0,0-.05-.64-.11-1.76-.06-1.12-.15-2.71-.21-4.63-.04-.96-.07-1.99-.1-3.09-.03-1.1-.06-2.25-.08-3.45-.01-1.2-.05-2.43-.05-3.69,0-1.26-.01-2.53-.02-3.81,0-1.28,.01-2.55,.02-3.81,0-1.26,.03-2.49,.05-3.69,.01-1.2,.05-2.35,.08-3.45,.02-1.1,.06-2.13,.1-3.09,.07-1.91,.15-3.51,.21-4.63,.03-.56,.06-1,.08-1.3l.03-.46Z"/><g class="cls-5"><rect class="cls-6" x="332.79" y="189.4" width="17.71" height="75.41" rx="8.77" ry="8.77"/></g><g><g class="cls-25"><path class="cls-26" d="M283.08,277.15v13.06c0,2.47,.56,4.8,1.55,6.87h13.78c-6.39-5.39-11.54-12.17-15.33-19.93Z"/></g><g class="cls-25"><path class="cls-26" d="M285.23,199.24c7.57-16.13,18.58-29.23,31.16-38.41h-31.76c-.99,2.07-1.55,4.4-1.55,6.87v36.44c.67-1.64,1.38-3.27,2.15-4.9Z"/></g><g class="cls-25"><path class="cls-26" d="M421.49,160.83h-26.17c23.87,25.85,30.62,85.14,13.45,121.7-2.66,5.66-5.75,10.48-9.2,14.56h21.91c.14,0,.29,0,.43-.01V160.84c-.14,0-.28-.01-.43-.01Z"/></g></g><path class="cls-6" d="M289.94,173.83s.05,.33,.11,.92c.06,.59,.15,1.42,.21,2.43,.04,.5,.07,1.05,.1,1.62,.03,.58,.06,1.18,.08,1.81,.02,.63,.04,1.28,.05,1.94,.01,.66,.01,1.33,.02,2,0,.67,0,1.34-.02,2,0,.66-.04,1.31-.05,1.94-.01,.63-.05,1.23-.08,1.81-.02,.58-.06,1.12-.1,1.62-.07,1-.15,1.84-.21,2.43-.06,.59-.11,.92-.11,.92,0,0-.05-.33-.11-.92-.06-.59-.15-1.42-.21-2.43-.04-.5-.07-1.05-.1-1.62-.03-.58-.06-1.18-.08-1.81-.02-.63-.05-1.28-.05-1.94-.01-.66-.01-1.33-.02-2,0-.67,0-1.34,.02-2,0-.66,.04-1.31,.05-1.94,.01-.63,.05-1.23,.08-1.81,.02-.58,.06-1.12,.1-1.62,.07-1,.15-1.84,.21-2.43,.06-.59,.11-.92,.11-.92Z"/></g></g></svg>