<?xml version="1.0" encoding="UTF-8"?><svg xmlns="http://www.w3.org/2000/svg" viewBox="0 0 500 500"><defs><style>.cls-1{fill:#fff;}.cls-2{fill:#dbdbdb;}.cls-3{fill:#d3766a;}.cls-4{fill:#37474f;}.cls-5{stroke:#ebebeb;}.cls-5,.cls-6,.cls-7{fill:none;}.cls-5,.cls-7{stroke-miterlimit:10;}.cls-8{opacity:.6;}.cls-9,.cls-10{fill:#ff9cbd;}.cls-11,.cls-12{opacity:.1;}.cls-11,.cls-13{fill:#050400;}.cls-14{fill:#455a64;}.cls-15{fill:#a6a6a6;}.cls-16{opacity:.2;}.cls-17{fill:#c7c7c7;}.cls-18,.cls-10{opacity:.5;}.cls-18,.cls-19{fill:#ebebeb;}.cls-20{fill:#ffc727;}.cls-6{stroke:#263238;stroke-linecap:round;stroke-linejoin:round;stroke-width:2px;}.cls-21{fill:#f7a9a0;}.cls-7{stroke:#37474f;}.cls-22{fill:#ad6359;}.cls-23{fill:#263238;}</style></defs><g id="Background_Complete"><g><rect class="cls-19" x="62.77" y="56.04" width="35.16" height="11.19"/><rect class="cls-5" x="214.17" y="358.47" width="35.16" height="11.19"/><path class="cls-19" d="M78.32,41.93c-5.84,.1-20.81,.35-26.45,.41l-8.71,.04,.46-.46,.04,11.19-.5-.5c5.84,.02,20.73,.07,26.37,.15l8.79,.11-.24,.24,.24-11.19h0Zm0,0l.24,11.19v.23h-.24c-4.39,.06-13.19,.16-17.58,.2l-17.58,.07h-.5v-.5l.05-11.19v-.46h.46l8.87,.04c5.6,.06,20.51,.31,26.29,.41h0Z"/><path class="cls-19" d="M264.76,174.73c-5.84,.1-20.81,.35-26.45,.41l-8.71,.04,.46-.46,.04,11.19-.5-.5,17.58,.07c4.38,.03,13.2,.14,17.58,.19l-.24,.24,.24-11.19h0Zm0,0l.24,11.19v.23h-.24c-4.39,.06-13.19,.16-17.58,.2l-17.58,.07h-.5v-.5l.05-11.19v-.46h.46l8.87,.04c5.6,.06,20.51,.31,26.29,.41h0Z"/><path class="cls-19" d="M245.15,160.62c-5.84,.1-20.81,.35-26.45,.41l-8.71,.04,.46-.46,.04,11.19-.5-.5c5.84,.02,20.73,.07,26.37,.15l8.79,.11-.24,.24,.24-11.19h0Zm0,0l.24,11.19v.23h-.24c-4.39,.06-13.19,.16-17.58,.2l-17.58,.07h-.5v-.5l.05-11.19v-.46h.46l8.87,.04c5.6,.06,20.51,.31,26.29,.41h0Z"/><rect class="cls-19" x="190.46" y="174.73" width="35.16" height="11.19"/><rect class="cls-19" x="421.68" y="41.93" width="35.16" height="11.19"/><rect class="cls-19" x="402.07" y="433.89" width="35.16" height="11.19"/><path class="cls-19" d="M456.84,419.78c-5.84,.1-20.81,.35-26.45,.41l-8.71,.04,.46-.46,.04,11.19-.5-.5c5.84,.02,20.73,.07,26.37,.15l8.79,.11-.24,.24,.24-11.19h0Zm0,0l.24,11.19v.23h-.24c-4.39,.06-13.19,.16-17.58,.2l-17.58,.07h-.5v-.5l.05-11.19v-.46h.46l8.87,.04c5.6,.06,20.51,.31,26.29,.41h0Z"/><path class="cls-19" d="M78.32,433.89c-5.84,.1-20.81,.35-26.45,.41l-8.71,.04,.46-.46,.04,11.19-.5-.5c5.84,.02,20.73,.07,26.37,.15l8.79,.11-.24,.24,.24-11.19h0Zm0,0l.24,11.19v.23h-.24c-4.39,.06-13.19,.16-17.58,.2l-17.58,.07h-.5v-.5l.05-11.19v-.46h.46l8.87,.04c5.6,.06,20.51,.31,26.29,.41h0Z"/></g><g><circle class="cls-19" cx="207.34" cy="69.76" r="32.74" transform="translate(98.55 259.56) rotate(-78.77)"/><circle class="cls-2" cx="208.84" cy="70.49" r="31.24" transform="translate(106.12 265.51) rotate(-80.87)"/><circle class="cls-1" cx="208.84" cy="70.49" r="29.27"/><path class="cls-18" d="M237.45,64.28c-13.33,8.08-35.23,21.32-47.48,28.58-3.43-2.9-6.19-6.57-8-10.75l40.49-37.53c7.54,3.97,13.13,11.14,14.98,19.7Z"/><path class="cls-18" d="M238.09,71.51c-.11,3.34-.79,6.54-1.93,9.51l-36.5,17.26c-1.6-.53-3.14-1.19-4.61-1.98,11.03-6.37,31.18-17.97,43.05-24.79Z"/><g><rect class="cls-17" x="208.56" y="43.35" width=".57" height="4.44"/><rect class="cls-17" x="196.1" y="46.69" width=".57" height="4.44" transform="translate(1.85 104.73) rotate(-30)"/><rect class="cls-17" x="186.98" y="55.81" width=".57" height="4.44" transform="translate(43.37 191.17) rotate(-60)"/><rect class="cls-17" x="181.7" y="70.21" width="4.44" height=".57"/><rect class="cls-17" x="185.04" y="82.67" width="4.44" height=".57" transform="translate(-16.39 104.76) rotate(-30.01)"/><rect class="cls-17" x="194.16" y="91.79" width="4.44" height=".57" transform="translate(18.55 216.25) rotate(-60.05)"/><rect class="cls-17" x="208.56" y="93.2" width=".57" height="4.44"/><rect class="cls-17" x="221.02" y="89.86" width=".57" height="4.44" transform="translate(-16.39 122.99) rotate(-30)"/><rect class="cls-17" x="230.15" y="80.73" width=".57" height="4.44" transform="translate(43.36 241.02) rotate(-60)"/><rect class="cls-17" x="231.55" y="70.21" width="4.44" height=".57"/><rect class="cls-17" x="228.21" y="57.74" width="4.44" height=".57" transform="translate(1.85 122.96) rotate(-29.99)"/><rect class="cls-17" x="219.09" y="48.62" width="4.44" height=".57" transform="translate(68.36 216.16) rotate(-60.02)"/></g><g><polygon class="cls-17" points="209.27 45.36 210.23 72.47 207.46 72.43 208.52 45.35 209.27 45.36"/><polygon class="cls-15" points="226.16 61.04 207.92 72.68 206.59 70.24 225.8 60.37 226.16 61.04"/><path class="cls-17" d="M209.79,70.49c0,.52-.42,.95-.95,.95s-.95-.42-.95-.95,.42-.95,.95-.95,.95,.42,.95,.95Z"/></g></g><g><rect class="cls-19" x="271.56" y="67.23" width="182.95" height="367.57"/><rect class="cls-1" x="287.23" y="84.46" width="151.62" height="258.4"/><g><rect class="cls-19" x="287.23" y="154.65" width="151.62" height="2.35"/><rect class="cls-19" x="287.23" y="215.23" width="151.62" height="2.35"/><rect class="cls-19" x="287.23" y="275.81" width="151.62" height="2.35"/></g><rect class="cls-19" x="361.3" y="84.46" width="3.49" height="258.4"/><g><g><rect class="cls-19" x="368.16" y="185.33" width="17.96" height="29.9" transform="translate(754.28 400.55) rotate(180)"/><rect class="cls-2" x="365.69" y="180.24" width="22.89" height="5.09" transform="translate(754.28 365.56) rotate(180)"/></g><rect class="cls-17" x="370.46" y="191.91" width="13.35" height="18.44" transform="translate(754.28 402.26) rotate(180)"/></g><g><g><rect class="cls-19" x="392.37" y="185.33" width="17.96" height="29.9" transform="translate(802.71 400.55) rotate(180)"/><rect class="cls-2" x="389.91" y="180.24" width="22.89" height="5.09" transform="translate(802.7 365.56) rotate(180)"/></g><rect class="cls-17" x="394.68" y="191.91" width="13.35" height="18.44" transform="translate(802.71 402.26) rotate(180)"/></g><g><g><rect class="cls-19" x="416.58" y="185.33" width="17.96" height="29.9" transform="translate(851.13 400.55) rotate(180)"/><rect class="cls-2" x="414.12" y="180.24" width="22.89" height="5.09" transform="translate(851.13 365.56) rotate(180)"/></g><rect class="cls-17" x="418.89" y="191.91" width="13.35" height="18.44" transform="translate(851.13 402.26) rotate(180)"/></g><g><path class="cls-19" d="M290.36,243.52h23.81v26.98c0,2.93-2.38,5.31-5.31,5.31h-13.19c-2.93,0-5.31-2.38-5.31-5.31v-26.98h0Z" transform="translate(604.54 519.33) rotate(180)"/><rect class="cls-19" x="295.37" y="240.33" width="13.8" height="3.29" transform="translate(604.54 483.94) rotate(180)"/><rect class="cls-2" x="291.85" y="236.81" width="20.83" height="3.52" transform="translate(604.54 477.14) rotate(180)"/><rect class="cls-17" x="294.18" y="251.34" width="19.99" height="17.43" transform="translate(608.35 520.11) rotate(180)"/></g><g><path class="cls-19" d="M316.98,243.52h23.81v26.98c0,2.93-2.38,5.31-5.31,5.31h-13.19c-2.93,0-5.31-2.38-5.31-5.31v-26.98h0Z" transform="translate(657.77 519.33) rotate(180)"/><rect class="cls-19" x="321.99" y="240.33" width="13.8" height="3.29" transform="translate(657.77 483.94) rotate(180)"/><rect class="cls-2" x="318.47" y="236.81" width="20.83" height="3.52" transform="translate(657.77 477.14) rotate(180)"/><rect class="cls-17" x="320.8" y="251.34" width="19.99" height="17.43" transform="translate(661.59 520.11) rotate(180)"/></g><g><rect class="cls-19" x="367.12" y="304.26" width="29.84" height="38.6" transform="translate(764.08 647.12) rotate(180)"/><polygon class="cls-19" points="367.12 304.26 396.96 304.26 391.24 296.39 372.85 296.39 367.12 304.26"/><rect class="cls-17" x="369.44" y="288.73" width="25.21" height="7.66" transform="translate(764.08 585.12) rotate(180)"/><rect class="cls-2" x="371.38" y="312.85" width="25.58" height="17.35" transform="translate(768.34 643.05) rotate(180)"/></g><g><rect class="cls-19" x="399.2" y="304.26" width="29.84" height="38.6" transform="translate(828.24 647.12) rotate(180)"/><polygon class="cls-19" points="399.2 304.26 429.04 304.26 423.31 296.39 404.92 296.39 399.2 304.26"/><rect class="cls-17" x="401.52" y="288.73" width="25.21" height="7.66" transform="translate(828.24 585.12) rotate(180)"/><rect class="cls-2" x="403.46" y="312.85" width="25.58" height="17.35" transform="translate(832.5 643.05) rotate(180)"/></g><path class="cls-2" d="M350.9,154.65h-53.48c-3.07,0-5.57-2.49-5.57-5.57h0c0-3.07,2.49-5.57,5.57-5.57h53.48c3.07,0,5.57,2.49,5.57,5.57h0c0,3.07-2.49,5.57-5.57,5.57Z"/><path class="cls-2" d="M350.9,142.79h-53.48c-3.07,0-5.57-2.49-5.57-5.57h0c0-3.07,2.49-5.57,5.57-5.57h53.48c3.07,0,5.57,2.49,5.57,5.57h0c0,3.07-2.49,5.57-5.57,5.57Z"/><path class="cls-19" d="M349.97,130.93h-51.63c-2.21,0-4-1.79-4-4h0c0-2.21,1.79-4,4-4h51.63c2.21,0,4,1.79,4,4h0c0,2.21-1.79,4-4,4Z"/><path class="cls-19" d="M349.97,122.22h-51.63c-2.21,0-4-1.79-4-4h0c0-2.21,1.79-4,4-4h51.63c2.21,0,4,1.79,4,4h0c0,2.21-1.79,4-4,4Z"/><g><g><path class="cls-17" d="M438.85,361.13c-22.71,.36-45.43,.44-68.14,.48l.48-.48c.03,6.88-.03,16.78-.07,23.76-.09,7.92-.18,15.84-.41,23.76-.23-7.92-.32-15.84-.41-23.76,0-7.01-.13-16.85-.07-23.76v-.48h.48c22.72,.04,45.43,.13,68.14,.48h0Z"/><path class="cls-17" d="M370.7,415.42c22.71-.37,45.43-.44,68.14-.48l-.48,.48c-.02-6.74,.04-16.46,.08-23.3,.09-7.77,.18-15.54,.41-23.3,.22,7.77,.32,15.54,.41,23.3,0,6.88,.13,16.52,.08,23.3v.49h-.48c-22.72-.04-45.43-.12-68.14-.49h0Z"/><rect class="cls-17" x="378.34" y="380.58" width="5.16" height="13.71" transform="translate(761.84 774.87) rotate(180)"/></g><g><path class="cls-17" d="M287.23,361.13c22.71-.36,45.43-.44,68.14-.48h.48v.48c.07,6.88-.06,16.78-.06,23.76-.09,7.92-.18,15.84-.41,23.76-.23-7.92-.32-15.84-.41-23.76-.04-7.01-.1-16.85-.07-23.76l.48,.48c-22.72-.04-45.43-.12-68.14-.48h0Z"/><path class="cls-17" d="M355.38,415.42c-22.71,.37-45.43,.44-68.14,.48h-.48v-.48c-.06-6.74,.06-16.46,.07-23.3,.09-7.77,.18-15.54,.41-23.3,.22,7.77,.32,15.54,.41,23.3,.04,6.88,.1,16.52,.08,23.3l-.48-.48c22.72,.04,45.43,.12,68.14,.48h0Z"/><rect class="cls-17" x="342.58" y="380.58" width="5.16" height="13.71"/></g></g><g><g><polygon class="cls-19" points="290.6 467.2 279.36 467.2 279.36 434.8 299.36 434.8 290.6 467.2"/><polygon class="cls-2" points="299.36 434.8 296.13 446.74 279.35 446.74 279.35 434.8 299.36 434.8"/></g><g><polygon class="cls-19" points="435.48 467.2 446.72 467.2 446.72 434.8 426.72 434.8 435.48 467.2"/><polygon class="cls-2" points="426.72 434.8 429.95 446.74 446.73 446.74 446.73 434.8 426.72 434.8"/></g></g><g><path class="cls-19" d="M335.39,87.68c-10.71,11.66-21.98,22.93-33.64,33.64,10.71-11.66,21.98-22.93,33.64-33.64h0Z"/><path class="cls-19" d="M378.12,101.41c-10.71,11.66-21.98,22.93-33.64,33.64,10.71-11.66,21.98-22.93,33.64-33.64h0Z"/><path class="cls-19" d="M420.28,269.31c-10.71,11.66-21.98,22.93-33.64,33.64,10.71-11.66,21.98-22.93,33.64-33.64h0Z"/><path class="cls-19" d="M376.16,185.53c-10.71,11.66-21.98,22.93-33.64,33.64,10.71-11.66,21.98-22.93,33.64-33.64h0Z"/><path class="cls-19" d="M381.92,86.5c-29.06,30-61.9,62.82-91.91,91.91,29.1-30.02,61.9-62.84,91.91-91.91h0Z"/><path class="cls-19" d="M415.4,243.23c-29.06,30-61.9,62.82-91.91,91.91,29.1-30.02,61.9-62.84,91.91-91.91h0Z"/><path class="cls-19" d="M383.86,122.34c-19.76,20.7-42.26,43.18-62.96,62.96,19.79-20.7,42.26-43.2,62.96-62.96h0Z"/><path class="cls-19" d="M374.17,270.01c-19.76,20.7-42.26,43.18-62.96,62.96,19.79-20.7,42.26-43.2,62.96-62.96h0Z"/><path class="cls-19" d="M433,159.3c-19.76,20.7-42.26,43.18-62.96,62.96,19.79-20.7,42.26-43.2,62.96-62.96h0Z"/></g></g><g><rect class="cls-19" x="43.16" y="78.38" width="114.11" height="143.43"/><rect class="cls-1" x="48.98" y="84.1" width="102.47" height="132"/><g><g><path class="cls-19" d="M121.84,145.93c-9.88,13.08-21.69,18.82-21.69,18.82,0,0-11.8-5.74-21.68-18.82-7.63-10.1-7.26-25.92,3.66-29.34,12.08-3.78,18.01,14.39,18.01,14.39,0,0,6.02-18.3,18.02-14.39,10.88,3.54,11.3,19.24,3.66,29.34Z"/><g><g><path class="cls-15" d="M91.62,129.2c-1.44-.04-2.84,.3-4.05,1.08-.4,.26-.79,.55-1.18,.91,.36-2.22,3.5-3.45,5.24-1.99h0Z"/><path class="cls-15" d="M108.68,129.2c1.74-1.46,4.87-.23,5.24,1.99-.4-.36-.79-.65-1.18-.91-1.21-.78-2.61-1.13-4.05-1.08h0Z"/></g><g><path class="cls-15" d="M104.19,133.48c-.03,.14-.44,2.19-1.83,3.73-.43,.48-.93,.83-1.52,.97-1.14,.26-2.12-.24-2.9-1.03-.95-.97-1.59-2.38-1.83-3.35,0,0,1.95,2.01,4.42,1.68,2.37-.32,3.59-1.86,3.66-2Z"/><path class="cls-1" d="M102.36,137.21c-.43,.48-.93,.83-1.52,.97-1.14,.26-2.12-.24-2.9-1.03,.62-.77,1.51-1.28,2.55-1.14,.75,.1,1.47,.56,1.87,1.21Z"/></g><path class="cls-15" d="M86.5,137.5c.07-1.39,.59-2.95,1.83-3.77,1.34-.88,3.19-.45,4.16,.77,.63,.75,.99,1.67,1.09,2.59-.42-.82-.92-1.57-1.55-2.15-.87-.84-2.22-1.16-3.29-.56-1.13,.67-1.69,1.91-2.23,3.12h0Z"/><path class="cls-15" d="M106.73,137.09c.15-1.39,.94-2.86,2.26-3.52,1.46-.72,3.22-.15,4.03,1.24,.51,.83,.75,1.77,.79,2.69-.37-.85-.77-1.66-1.31-2.32-.74-.98-2.05-1.39-3.19-.91-1.2,.52-1.96,1.64-2.58,2.81h0Z"/><path class="cls-12" d="M79.13,138.74c2.25-2.12,5.95-2.7,8.4-.57,.78,.66,1.4,1.48,1.84,2.37-.66-.74-1.36-1.43-2.14-1.96-2.49-1.76-5.55-1.2-8.1,.17h0Z"/><path class="cls-12" d="M121.17,138.74c-2.55-1.37-5.61-1.93-8.1-.17-.78,.54-1.48,1.22-2.14,1.96,.44-.89,1.05-1.71,1.84-2.37,2.45-2.13,6.15-1.54,8.4,.57h0Z"/><path class="cls-12" d="M96.44,141c1.67,1.29,3.8,2.2,5.8,1.14,.63-.31,1.21-.74,1.79-1.2-.37,.65-.9,1.21-1.54,1.65-2.06,1.43-4.8,.41-6.06-1.59h0Z"/></g></g><g><path class="cls-19" d="M100.19,171.25c-19.17,0-34.77-15.6-34.77-34.77s15.6-34.77,34.77-34.77,34.77,15.6,34.77,34.77-15.6,34.77-34.77,34.77Zm0-67.99c-18.32,0-33.22,14.9-33.22,33.22s14.9,33.22,33.22,33.22,33.22-14.9,33.22-33.22-14.9-33.22-33.22-33.22Z"/><path class="cls-19" d="M98.44,176.17c-.53-.02-1.06-.06-1.58-.1l.13-1.54c.5,.04,1.01,.07,1.52,.1l-.07,1.55Zm5.54-.14l-.15-1.54c.51-.05,1.01-.11,1.51-.17l.21,1.53c-.52,.07-1.04,.13-1.57,.18Zm-12.59-.8c-.52-.12-1.03-.24-1.54-.38l.4-1.49c.49,.13,.98,.25,1.48,.37l-.34,1.51Zm19.59-.5l-.42-1.49c.49-.14,.97-.28,1.46-.44l.48,1.47c-.5,.16-1.01,.32-1.52,.46Zm-26.37-1.69c-.49-.21-.97-.43-1.45-.65l.66-1.4c.46,.22,.92,.43,1.39,.63l-.61,1.42Zm33.02-.85l-.68-1.39c.46-.22,.91-.45,1.35-.69l.74,1.36c-.46,.25-.93,.49-1.41,.72Zm-39.29-2.52c-.44-.29-.88-.59-1.31-.9l.9-1.26c.41,.3,.83,.58,1.26,.86l-.85,1.29Zm45.37-1.17l-.92-1.25c.41-.3,.81-.61,1.21-.93l.97,1.21c-.41,.33-.83,.65-1.26,.96Zm-50.94-3.27c-.38-.36-.76-.74-1.12-1.12l1.11-1.08c.35,.36,.71,.72,1.08,1.07l-1.07,1.12Zm56.28-1.44l-1.12-1.06c.35-.37,.69-.74,1.02-1.13l1.16,1.02c-.35,.4-.7,.79-1.07,1.17Zm-60.97-3.91c-.31-.43-.61-.86-.91-1.3l1.28-.86c.28,.42,.57,.84,.87,1.25l-1.25,.91Zm65.38-1.68l-1.29-.85c.28-.42,.55-.86,.81-1.29l1.33,.8c-.27,.45-.55,.9-.84,1.34Zm-69.04-4.42c-.23-.47-.45-.95-.66-1.44l1.42-.62c.2,.46,.41,.92,.63,1.38l-1.39,.68Zm72.39-1.86l-1.42-.6c.2-.47,.39-.94,.56-1.42l1.45,.54c-.19,.5-.38,.99-.59,1.48Zm-74.9-4.79c-.14-.51-.27-1.02-.39-1.53l1.51-.35c.12,.5,.24,.99,.38,1.47l-1.49,.41Zm77.07-2l-1.51-.34c.11-.49,.21-.99,.3-1.49l1.52,.27c-.09,.52-.2,1.04-.31,1.55Zm-78.35-5.01c-.05-.52-.08-1.05-.11-1.58l1.55-.08c.03,.51,.06,1.01,.11,1.52l-1.54,.14Zm79.26-2.05l-1.55-.06c.02-.51,.03-1.01,.03-1.52v-.16h1.55v.15c0,.54,0,1.07-.03,1.59Zm-77.73-4.93l-1.54-.14c.05-.53,.1-1.05,.17-1.57l1.54,.19c-.06,.5-.12,1.01-.16,1.51Zm75.83-2.12c-.07-.5-.15-1-.25-1.5l1.52-.28c.1,.52,.18,1.04,.26,1.56l-1.53,.22Zm-74.63-4.62l-1.49-.41c.14-.51,.29-1.02,.45-1.52l1.47,.47c-.15,.48-.3,.97-.43,1.46Zm73.05-2.04c-.16-.48-.33-.96-.51-1.43l1.45-.55c.19,.49,.37,.99,.53,1.49l-1.47,.49Zm-70.66-4.37l-1.4-.67c.23-.48,.47-.95,.72-1.42l1.37,.73c-.24,.45-.47,.9-.69,1.36Zm67.91-1.89c-.24-.45-.5-.88-.76-1.32l1.33-.8c.27,.45,.53,.91,.79,1.37l-1.36,.75Zm-64.41-3.99l-1.25-.91c.31-.43,.63-.85,.95-1.26l1.22,.96c-.31,.4-.62,.8-.92,1.22Zm60.59-1.68c-.32-.39-.65-.78-.98-1.16l1.16-1.02c.35,.4,.69,.8,1.02,1.21l-1.2,.98Zm-56.1-3.48l-1.07-1.12c.38-.37,.77-.72,1.16-1.07l1.03,1.16c-.38,.34-.75,.68-1.12,1.03Zm51.33-1.42c-.38-.33-.78-.65-1.17-.97l.96-1.21c.41,.33,.82,.66,1.22,1.01l-1.01,1.17Zm-45.99-2.86l-.86-1.29c.44-.29,.88-.57,1.33-.85l.8,1.32c-.43,.26-.86,.54-1.28,.82Zm40.43-1.12c-.44-.26-.88-.51-1.33-.75l.73-1.36c.47,.25,.93,.51,1.38,.78l-.78,1.33Zm-34.42-2.14l-.61-1.42c.48-.21,.97-.41,1.46-.6l.56,1.44c-.47,.18-.94,.37-1.41,.57Zm28.23-.79c-.48-.17-.96-.34-1.44-.5l.47-1.47c.51,.16,1.01,.33,1.5,.52l-.53,1.45Zm-21.73-1.34l-.35-1.51c.51-.12,1.03-.23,1.55-.32l.29,1.52c-.5,.09-1,.2-1.49,.31Zm15.12-.42c-.5-.09-1-.16-1.5-.23l.2-1.53c.53,.07,1.05,.15,1.57,.24l-.26,1.52Zm-8.34-.51l-.07-1.55c.53-.02,1.05-.04,1.58-.04v1.55c-.5,0-1,.02-1.51,.04Z"/></g></g><g><rect class="cls-2" x="113.58" y="143.39" width="3.66" height="15.95"/><rect class="cls-2" x="113.58" y="143.39" width="3.66" height="15.95" transform="translate(266.77 35.96) rotate(90)"/></g><path class="cls-19" d="M139.29,187.8h-6.8v-7.33h-7.33v-6.8h7.33v-7.34h6.8v7.34h7.34v6.8h-7.34v7.33Zm-5.83-.97h4.86v-7.33h7.34v-4.86h-7.34v-7.34h-4.86v7.34h-7.33v4.86h7.33v7.33Z"/><path class="cls-19" d="M69.83,113.26h-6.8v-7.33h-7.33v-6.8h7.33v-7.34h6.8v7.34h7.34v6.8h-7.34v7.33Zm-5.83-.97h4.86v-7.33h7.34v-4.86h-7.34v-7.34h-4.86v7.34h-7.33v4.86h7.33v7.33Z"/><path class="cls-19" d="M77.94,186.41c14.84-.56,29.71-.56,44.55,0-14.84,.57-29.71,.56-44.55,0h0Z"/><g><path class="cls-19" d="M67.13,195.75c21.34-.55,44.83-.55,66.17,0-21.34,.55-44.83,.55-66.17,0h0Z"/><path class="cls-19" d="M67.13,200.75c21.34-.55,44.83-.55,66.17,0-21.34,.55-44.83,.55-66.17,0h0Z"/><path class="cls-19" d="M67.13,205.76c21.34-.55,44.83-.55,66.17,0-21.34,.55-44.83,.55-66.17,0h0Z"/></g></g></g><g id="Floor"><path class="cls-23" d="M45.48,467.2c131.03-.61,278.01-.62,409.03,0-131.03,.62-278.01,.61-409.03,0h0Z"/></g><g id="Plant"><g><g><g><path class="cls-23" d="M80.27,304.49c.3-4.41,.84-8.82,1.86-13.12,.93-3.88,2.24-7.85,4.69-11.07,2.24-2.93,5.45-5.27,9.19-5.72,3.6-.44,6.98,1.16,9.67,3.43,3.33,2.81,5.89,6.53,8.29,10.13,2.68,4.03,4.96,8.22,7.16,12.53,.07,.14-.15,.26-.22,.12-1.81-3.64-4.04-7.18-6.4-10.48-2.23-3.12-4.62-6.24-7.37-8.92-2.47-2.41-5.61-4.67-9.19-4.78-3.56-.11-6.85,1.89-8.99,4.63-2.4,3.07-3.62,6.9-4.53,10.63-1,4.1-1.5,8.29-1.85,12.49-.7,8.64-.89,17.33-1.09,26-.11,4.9-.18,9.81-.22,14.71-.02,2.48-.04,4.97-.06,7.46-.02,2.39,.11,56.88-.29,59.25-.08,.48-.87,.44-.95-.02-.4-2.24-.3-12.92-.33-15.19-.03-2.36-.06-48.39-.08-50.75-.04-4.58-.06-9.16-.05-13.74,.03-9.19,.14-18.42,.76-27.59Z"/><g><path class="cls-20" d="M92.01,302.15c.54-2.9,1.53-6.69,3.18-8.94,2.97-4.04,6.18-2.28,3.21,2.19-3.24,4.89-3.71,8.75-4.17,11.04,0,0,5,7.14,11.03,10.65-.26-2.74-1.03-6.97-.5-11.04,1.16-8.82,6.49-8.32,5.17-1.32-1.06,5.62-1.5,11.58-1.21,14.17,1.81,1.37,4.9,2.55,6.45,3.16-.35-1.02-.71-2.25-1.12-3.74-2.14-7.91,3.13-10.37,3.3-5.92,.13,3.66,1.55,9.32,2.05,11.22,2.89,.97,5.29,1.64,6.76,2.15,6.09,2.14,9.89,6.76,9.89,6.76,2.76-2.46,4.99-5.44,6.74-8.72-1.84-1.59-4.76-3.94-8.8-6.8-7.58-5.35-4.94-12.11,1.07-7.91,4.34,3.03,7.7,8.65,9.22,11.53,2.09-4.99,3.19-10.47,3.44-15.78-5.95-5.59-20.68-13.38-16.24-13.38,3.99,0,12.93,5.86,16.21,8.11-.09-1.58-.26-3.11-.51-4.59-5.61-3.68-23.83-9.39-20.93-11.04,3.19-1.8,15.9,4.08,19.75,5.94-.84-2.73-1.98-5.11-3.37-6.98-7.75-10.37-21.72-13.95-27.81-11.97-4.31,1.4-3.05,12.34-3.98,11.97-17.33-6.97-25.21-2.04-18.83,19.21Zm42.47-1.2c1.23-1.49,6.92,2.88,5.27,5.27-1.64,2.39-6.86-3.37-5.27-5.27Zm-29.71-9.33c1.5,.95-.71,6.48-3.02,4.81-1.96-1.43,1.52-5.77,3.02-4.81Z"/><path class="cls-23" d="M107.03,293.31c.78-1.55,1.6-3.08,2.49-4.57,.85-1.41,1.75-2.92,2.86-4.15-.25-.3-.49-.61-.74-.91-.1-.12,.07-.29,.18-.17,.29,.33,.57,.67,.85,1.01,.05,.03,.1,.08,.12,.14,1.07,1.28,2.08,2.6,3.04,3.95,1.7,.36,3.39,.91,5.03,1.46,1.7,.57,3.38,1.16,5.04,1.86,.17,.07,.09,.36-.08,.28-1.64-.72-3.3-1.42-4.99-2-1.6-.54-3.24-.96-4.86-1.42,.53,.75,1.05,1.5,1.55,2.26,3.05,.88,6.04,2.27,8.9,3.63,3.01,1.43,5.9,3.09,8.78,4.75,.16,.09,0,.35-.15,.25-2.82-1.69-5.76-3.13-8.73-4.52-2.79-1.3-5.67-2.38-8.48-3.62,7.07,11.04,11.32,23.78,16.99,35.58,.08,.17-.19,.31-.26,.14-1.73-4.14-3.73-8.17-5.61-12.24-1.69-3.65-3.35-7.33-5.04-10.98-.5-1.07-1.01-2.14-1.53-3.2,.31,5.9,.18,11.9,1.15,17.73,.03,.21-.28,.25-.29,.03-.41-6.3-1.52-12.51-1.47-18.84,0-.04,.02-.05,.03-.08-1.2-2.41-2.48-4.79-3.86-7.1-2.35,5.52-4.81,11.12-5.9,17.05-.03,.18-.33,.1-.28-.08,1.59-5.94,3.07-11.89,5.93-17.38-1.51-2.5-3.16-4.91-4.98-7.18-.79,1.47-1.79,2.85-2.69,4.26-.87,1.37-1.73,2.75-2.54,4.16-1.73,3.01-3.24,6.09-4.43,9.35-.06,.18-.35,.09-.28-.08,1.35-3.14,2.72-6.3,4.26-9.35Z"/></g></g><g><path class="cls-23" d="M65.29,328.02c3.82-3.83,8.26-8.86,14.17-8.85,5.7,0,9.9,4.6,12.31,9.33,2.52,4.95,3.43,10.56,4.14,16.01,.85,6.53,1.33,13.11,1.51,19.69,.1,3.65,.09,7.31,0,10.97-.09,3.69-.18,51.11-.84,54.75-.11,.59-1.05,.61-1.09-.03-.17-3.08-.05-49.85-.03-52.93,.02-3.03-.03-6.07-.14-9.1-.22-6.13-.67-12.26-1.39-18.35-.63-5.32-1.13-10.8-2.72-15.94-1.44-4.64-4.13-9.94-8.83-11.98-6.42-2.78-12.69,2.3-16.89,6.59-.11,.11-.3-.04-.19-.16Z"/><g><path class="cls-20" d="M31.95,344.36h0c.04,1.07,.1,2.11,.17,3.13,2.35-1.65,5.31-3.16,8.45-3.5,7.32-.78,6.85,4.78,1.96,5.02-4.66,.22-7.79,1.01-10.04,2.01,1.19,9.66,3.85,17.43,4.25,17.53,.4,.09,9.34-.55,19.33-2.44-1.82-3.88-5.96-9.03-3.85-9.44,2.16-.43,4.42,4.17,5.59,9.09,4.82-.97,9.78-2.25,14.06-3.87-3.22-2.79-8.19-6.25-6.29-7.73,1.9-1.49,5.85,3.4,8.21,6.95,2.35-1,4.44-2.13,6.08-3.39-4.34-6.37-14.9-7.67-13.52-12.27,1.41-4.7,11.27,1.78,15.7,10.31,5.21-5.41,6.74-13.06,6.19-19.6-4.54-.53-13.28,.43-12.65-2.83,.59-3.1,6.95-2.64,12.11-.74-.64-2.96-1.71-5.49-3.03-7.19-4.79-6.14-19.39,1.67-19.39,1.67,0,0,1.56-14.68-4.01-17.22-3.21-1.46-8.87-1.45-14.56,1.9,3.19,.26,7.04,1.27,8.59,3.49,1.98,2.82-1.14,4.36-3.13,3.05-1.4-.92-4.01-3.83-8.73-4.21-1.83,1.52-3.62,3.45-5.27,5.84-.54,.76-1.04,1.56-1.54,2.43,4.59-1.91,10.67-2.89,17.1,.31,6.33,3.14,2.79,9.72-2.65,7.16-5.39-2.52-10.64-5.07-16.41-3.62-2.12,4.89-2.82,10.67-2.78,16.37,2.17-1.57,5.36-3.44,9.38-4.5,6.29-1.65,8.2,2.11,1.28,2.81-4.39,.45-8.09,2.05-10.61,3.47Zm7.66-10.11c-.44-2.04,4.03-2.62,4.77-.97,.62,1.41-4.35,3.01-4.77,.97Zm38.19,11.29c.42-1.11,3.41,.15,3.14,1.54-.37,1.85-3.54-.43-3.14-1.54Zm-21.09,7.15c2.18-.87,5.58,4.54,3.2,5.78-2.37,1.24-4.98-5.07-3.2-5.78Z"/><path class="cls-23" d="M37.59,367.44c3.28-5.48,6.52-11,9.97-16.38,1.6-2.51,3.29-4.97,5.03-7.38-.26-.05-.53-.13-.78-.18-.43-.09-.87-.18-1.31-.25-1.01-.17-2.02-.32-3.04-.42-.96-.1-1.92-.15-2.88-.16-1-.01-2.09-.05-3.08,.16-.12,.03-.14-.17-.03-.16,1.02,.04,2.07-.09,3.1-.11,1-.01,1.99,.01,2.99,.07,.93,.06,1.87,.15,2.79,.29,.51,.08,1.02,.17,1.53,.27,.3,.06,.62,.1,.92,.19,1.78-2.44,3.62-4.84,5.53-7.18-5.75-2.64-11.67-4.82-17.96-5.73-.11-.02-.07-.18,.04-.16,6.27,1,12.55,2.62,18.22,5.53,1.05-1.29,2.1-2.57,3.16-3.84,1.19-1.43,2.46-2.82,3.53-4.34,.07-.1,.22,.01,.13,.1-1.49,1.59-2.84,3.34-4.16,5.1,.01,0,.02,0,.03,0,2.37,1.58,4.55,3.47,6.68,5.36,2.18,1.93,4.31,3.93,6.38,5.99,.08,.08-.04,.2-.11,.12-2.05-2.03-4.17-3.97-6.38-5.82-2.22-1.84-4.55-3.53-6.78-5.36-.01,0,0-.02-.02-.03-.51,.67-1.02,1.35-1.53,2.01-.26,.33-.51,.67-.77,1.01-.01,.03-.03,.05-.06,.07-.85,1.11-1.7,2.22-2.55,3.34,1.03,1.38,1.8,3.02,2.53,4.57,.74,1.55,1.37,3.15,1.96,4.76,1.22,3.33,2.04,6.8,2.74,10.28,.02,.1-.14,.15-.16,.05-.66-3.46-1.74-6.79-2.99-10.08-.64-1.68-1.36-3.31-2.11-4.94-.68-1.48-1.51-2.91-2.14-4.41-.74,.98-1.47,1.96-2.19,2.95-.21,.29-.41,.58-.62,.87,.03,.06,.01,.15-.07,.15-.01,0-.02,0-.03,0-2.25,3.15-4.4,6.37-6.49,9.63,.14,.21,.2,.47,.29,.71,.13,.4,.26,.79,.38,1.2,.23,.8,.42,1.62,.57,2.44,.14,.77,.25,1.55,.33,2.34,.08,.86,0,1.82,.2,2.66,.03,.13-.18,.14-.16,0,.13-.78-.07-1.7-.18-2.48-.12-.85-.28-1.69-.47-2.52-.18-.75-.38-1.5-.6-2.25-.11-.37-.23-.74-.36-1.11-.07-.19-.16-.4-.23-.61-.98,1.53-1.94,3.07-2.9,4.62-1.89,3.07-3.76,6.14-5.64,9.21-.09,.15-.34,.02-.25-.14Z"/></g></g><g><path class="cls-23" d="M85.13,429.11c.06-2.3,.61-48.3,.68-50.6,.27-8.92,1.49-15.88,2.54-20.23,.9-3.74,2.55-7.33,5.42-9.97,1.45-1.33,3.3-2.43,5.32-2.54,2.06-.11,3.96,.6,5.65,1.74,1.92,1.3,3.4,3.14,4.75,5,1.38,1.92,2.61,3.91,3.7,6.01,.04,.08-.08,.13-.13,.05-2.02-3.5-4.8-6.52-8.01-8.97-1.48-1.13-3.17-1.98-5.05-2.1-1.86-.13-3.89,.46-5.26,1.65-2.69,2.34-4.11,5.68-5.03,9.06-1.1,4-2.45,14.35-2.74,20.02-.12,2.44-.52,48.6-1.04,50.99-.11,.52-.82,.41-.8-.11Z"/><g><path class="cls-20" d="M96.47,367.53c.66,.93,1.51,1.77,2.51,2.56-.38-2.25-.84-6.25,.3-8.37,1.76-3.3,3.85-1.66,2.8,1.22-1.52,4.1-1.71,6.87-1.7,8.14,2.23,1.47,4.93,2.66,7.66,3.61-.24-1.11-.39-2.48-.25-3.94,.35-3.53,3.06-3.47,2.35,.21-.31,1.59-.37,3.12-.37,4.31,6.17,1.93,11.93,2.69,11.93,2.69,2.3-3.06,3.91-6,4.94-8.79-2.87-.72-8.7-.88-8.57-2.94,.17-2.76,5.8-.64,9.1,1.37,.81-2.65,1.1-5.14,1-7.44-1.29-.42-3.67-.95-7.93-1.31-5.92-.51-5.63-3.87-1.34-3.79,3.17,.06,7.17,2,9.07,3-1.23-8.05-7.38-13.21-12.3-13.41-8.28-.33-5.3,9.97-5.3,9.97,0,0-5.61-3.95-10.9-3.84-5.28,.11-8.64,8.87-2.98,16.75Zm22.11-14.89c-.18-1.16,3.51-1.44,3.7,.05,.22,1.67-3.52,1.13-3.7-.05Zm5.94,12.09c-.08-.76,1.52-.89,1.88,.06,.24,.62-1.82,.68-1.88-.06Zm-19.88,.71c1.25,.18,1.96,4.64-.19,4.55-1.64-.07-.87-4.7,.19-4.55Z"/><g><path class="cls-23" d="M106.37,370.38c.21-.56,.39-1.12,.56-1.69-.16,.57-.3,1.15-.41,1.73-.02,.11-.19,.07-.15-.04Z"/><path class="cls-23" d="M108.56,363.21c.39-1.14,.82-2.27,1.27-3.4,.24-.6,.48-1.19,.75-1.78,.22-.5,.41-1.06,.74-1.49-.25-.47-.49-.96-.67-1.44-.02-.05,.04-.08,.08-.04,.63,.74,1.12,1.67,1.61,2.5,.23,.39,.45,.79,.67,1.18,.46,.03,.94,.13,1.39,.22,.5,.09,.99,.19,1.48,.3,.49,.11,.98,.22,1.48,.34,.49,.12,.97,.28,1.47,.35,.11,.02,.07,.2-.04,.15-.49-.2-1.03-.29-1.55-.4-.48-.1-.95-.19-1.43-.26-.48-.07-.96-.13-1.45-.18-.36-.04-.73-.05-1.1-.09,.2,.35,.4,.69,.59,1.04,.03,.06,.06,.11,.09,.17,.4-.03,.8,.07,1.19,.14,.43,.08,.85,.16,1.28,.25,.86,.19,1.72,.4,2.58,.63,1.79,.5,3.56,1.07,5.33,1.65,.1,.03,.04,.18-.06,.15-1.75-.6-3.54-1.08-5.35-1.49-.85-.19-1.69-.39-2.54-.56-.43-.09-.85-.18-1.28-.27-.33-.07-.67-.11-.99-.22,.91,1.68,1.77,3.39,2.56,5.14,1.72,3.8,3.16,7.71,4.64,11.61,.04,.1-.11,.16-.15,.06-1.38-3.9-3.11-7.65-4.93-11.35-.33-.67-.67-1.34-1.01-2.02-.03,.14-.06,.27-.09,.41-.09,.46-.17,.92-.24,1.38-.16,.92-.31,1.85-.45,2.77-.28,1.87-.73,3.85-.67,5.75,0,.12-.18,.11-.16,0,.15-.92,.15-1.87,.21-2.8,.06-.97,.13-1.94,.24-2.9,.11-.93,.23-1.86,.38-2.78,.08-.46,.16-.92,.24-1.38,.06-.34,.08-.71,.26-1-.49-.97-.97-1.95-1.46-2.92-.46-.91-.93-1.82-1.4-2.72-.2-.38-.42-.77-.63-1.16-.12,.48-.37,.94-.55,1.39-.21,.52-.43,1.04-.64,1.57-.47,1.16-.92,2.32-1.36,3.49-.63,1.66-1.32,3.35-1.83,5.08,.51-1.69,.93-3.41,1.5-5.08Z"/><path class="cls-23" d="M106.94,368.7c.04-.13,.08-.27,.12-.4-.04,.13-.08,.27-.12,.4Z"/></g></g></g></g><g><g><polygon class="cls-14" points="68.88 413.9 69.47 426.31 70.98 461.94 103.97 461.94 105.48 426.31 106.07 413.9 68.88 413.9"/><polygon class="cls-4" points="68.88 413.9 69.38 424.41 105.71 421.59 106.07 413.9 68.88 413.9"/></g><rect class="cls-14" x="66.54" y="408.88" width="41.88" height="10.03" transform="translate(174.95 827.8) rotate(180)"/><g><rect class="cls-14" x="95.51" y="461.94" width="5.79" height="5.25"/><rect class="cls-23" x="95.51" y="461.94" width="5.79" height="2.63"/></g><g><rect class="cls-14" x="73.65" y="461.94" width="5.79" height="5.25"/><rect class="cls-23" x="73.65" y="461.94" width="5.79" height="2.63"/></g></g></g></g><g id="Character_2"><g><g><g><polygon class="cls-2" points="285.29 321.21 282.17 339.92 261.04 467.2 257.63 467.2 273 339.92 275.27 321.21 285.29 321.21"/><polygon class="cls-15" points="275.27 321.21 285.29 321.21 282.17 339.92 273 339.92 275.27 321.21"/></g><g><polygon class="cls-2" points="351.66 467.2 348.25 467.2 327.12 339.92 324 321.21 334.02 321.21 336.29 339.92 351.66 467.2"/><polygon class="cls-15" points="334.02 321.21 336.29 339.92 327.12 339.92 324 321.21 334.02 321.21"/></g><g><polygon class="cls-2" points="415.05 467.2 411.64 467.2 390.51 339.92 387.39 321.21 397.41 321.21 399.68 339.92 415.05 467.2"/><polygon class="cls-15" points="399.68 339.92 390.51 339.92 387.39 321.21 397.41 321.21 399.68 339.92"/></g><polygon class="cls-2" points="409.65 330 254.78 330 254.78 313.68 312.76 313.68 332.24 200.32 403.74 200.32 409.65 330"/><polygon class="cls-15" points="409.65 330 401.2 330 395.7 200.32 403.74 200.32 409.65 330"/></g><g><g><g><path class="cls-3" d="M167.02,430.03c2.69,1.57,85.48,18.88,89.05,17.54,1.36-.5,4.58-12.41,8.07-26.91,.75-3.13,1.51-6.37,2.26-9.66,4.91-21.37,9.62-44.17,9.62-44.17l-55.35-11.74-8.09,44.49-1.78,9.77s-34.66,7.55-38.42,9.44c-3.75,1.89-8.04,9.67-5.35,11.24Z"/><path class="cls-20" d="M262.8,426.19c-2.95,11.89-5.54,20.94-6.72,21.38-3.57,1.34-86.37-15.98-89.06-17.55s1.61-9.35,5.35-11.24c2.32-1.16,16.41-4.48,26.86-6.85-9.13,2.18-26.16,8.37,9.06,10.92,29.12,2.12,48.33,3.08,54.51,3.35Z"/></g><g><g><path class="cls-3" d="M238.49,467.39c2.96,.98,87.54,.77,90.76-1.28,1.23-.77,.14-19.38-.58-22.68-2.45-11.18-17.98-60.54-17.98-60.54l-54.71,.99,21.06,54.21s-32.35,14.57-35.64,17.19c-3.27,2.62-5.87,11.13-2.91,12.11Z"/><path class="cls-20" d="M329.25,466.11c-3.22,2.05-87.79,2.26-90.76,1.29-2.95-.99-.37-9.49,2.91-12.11,1.54-1.22,9.37-5.02,17.3-8.74-9.97,4.98-25.92,16.4,70.66-.61,.39,9.7,.55,19.77-.11,20.18Z"/></g><g><path class="cls-4" d="M372.78,305.31c-16.84,18.75-73.4,3.94-76.78,11.4-2.98,6.58,35.62,112.28,35.62,112.28l-61.77,6.66s-53.32-116.74-34.26-150.46c10.29-18.22,55.66-10.95,83.04-14.29,8.26-1.01,12.14-18.04,12.14-18.04h48.92s12.34,31-6.9,52.44Z"/><path class="cls-23" d="M252.76,274.75l51.87,39.69c17.23-.36,54.93,5.6,68.15-9.13,19.25-21.44,6.91-52.43,6.91-52.43h-48.92s-3.88,17.03-12.13,18.03c-19.22,2.33-47.27-.54-65.87,3.83Z"/><path class="cls-23" d="M267.49,421.88c1.71-.53,17.72-2.32,21.25-2.7,7.07-.76,29.33-2.84,33.36-2.83,.11,0,.12,.17,.02,.19-3.5,.73-17.71,2.39-21.24,2.76-7.08,.73-31.4,3.09-33.37,2.89-.17-.02-.2-.25-.03-.3Z"/><path class="cls-23" d="M288.51,310.53c3.97-1.98,34.08-1,55.68-3.02,7.04-.66,14.1-2.16,19.47-6.77,4.84-4.15,7.95-9.91,9.62-15.84,2.08-7.38,1.86-15.08,1.51-22.64-.09-1.86-.22-3.72-.33-5.58,0-.11,.19-.13,.2-.02,1.64,13.54,2.9,28.67-5.91,40.41-3.87,5.16-9.32,8.64-15.75,10.33-13.03,3.43-62.01,2.58-63.74,3.9-2.06,1.57,29.61,97.99,30.24,99.82,.12,.35-.49,.58-.63,.24-3.12-7.4-33.8-99.11-30.35-100.83Z"/><path class="cls-23" d="M233.38,288.46c2.91-7.39,9.56-11.99,19.33-13.76,.16-.03,.15,.21,0,.26-8.53,2.49-14.62,5.92-17.98,13.12-1.56,3.36-2.38,8.08-2.78,14.41-2.02,31.57,25.52,103.22,26.08,104.47,.05,.11-.11,.2-.17,.09-3.88-6.54-36.5-88.08-24.47-118.59Z"/></g></g><g><path class="cls-4" d="M211.04,396.75l46.77,9.95s-36.9-110.13-19.57-124.34c4.8-3.94,15.28-5.31,27.72,.06,18.58,8.02,40.09,24.39,60.37,30.38,18.99,5.6,41.54,.45,49.3-8.09,16.3-17.94,4.04-51.85,4.04-51.85l-63.79-2.52s1,.82-2.2,3.66c0,0-43.01-8.96-60.19,1.53-30.99,18.93-42.45,141.22-42.45,141.22Z"/><g><path class="cls-23" d="M350.62,256.79c.04-.13,.23-.1,.23,.04,.1,2.55-.02,5.03,.58,7.54,.57,2.38,1.65,4.52,3.38,6.27,3.69,3.73,8.98,5,13.81,6.52,.26,.08,.21,.53-.08,.49-5.36-.82-11.01-2.18-14.92-6.21-1.8-1.85-3.01-4.21-3.47-6.75-.46-2.55-.39-5.44,.46-7.9Z"/><path class="cls-23" d="M239.41,280.26c7.19-4.51,18.43-1.08,23.81,.98,.11,.04,.06,.22-.06,.18-4.95-1.78-17.27-4.48-23.86,.19-15.22,10.78,5.15,84.51,18.51,125.09,.21,.63-.29,.47-.57-.15-2.2-4.81-19.42-56.09-23.91-90.01-.69-5.22-4.29-29.78,6.08-36.29Z"/><path class="cls-23" d="M216.38,384.32c1.41-.04,13.54,2.64,16.2,3.24,5.34,1.2,17.72,4.41,20.61,5.51,.08,.03,.03,.19-.05,.18-2.77-.26-9.23-1.68-11.89-2.3-5.34-1.24-23.62-5.63-24.96-6.34-.12-.06-.05-.29,.09-.29Z"/><path class="cls-23" d="M241.7,278.34c4.84-2.65,10.6-3.08,15.97-2.42,5.69,.7,11.11,2.72,16.32,5.11,10.94,5,21.36,11.12,32.32,16.09,10.89,4.95,22.52,8.82,34.53,9.19,10.26,.32,23.25-1.49,29.85-10.72,10.17-14.22,4.24-38.74,4.13-40.33,0-.12,.16-.12,.19,0,7.89,30.14-2.26,41.84-9.11,46.77-5.44,3.91-13.25,4.89-18.41,5.33-11.94,1.01-23.91-1.92-34.98-6.32-11.34-4.52-21.98-10.6-32.85-16.16-10.42-5.33-22.04-10.83-33.94-7.78-1.34,.34-2.67,.82-3.96,1.35-.06,.03-.11-.08-.05-.11Z"/></g></g></g><g><path class="cls-23" d="M318.14,139.24c8.44,9.08,2.99,17.63,6.63,20.51,9.5,7.52,3.48,10.83,6.04,13.63,2.1,2.3,9.93,3.76,7.73,12.65l-35.32,2.19c-1.42-5.74,4.22-9.22,4.33-13.34,.1-4.12-5.02-7.91,2.21-17.15,4.69-6,4.34-22.86,8.39-18.5Z"/><g><g><path class="cls-3" d="M336.88,187.64c-7.67,22.31-19.13,47.41-24.24,51.36-6.46,5-39.71,11.29-41.67,11.29-4.85-.02-6.99-30.06-4.17-30.3,8.48-.73,29.57-4.27,31.45-5.83,1.95-1.63,11.78-14.37,25.85-30.07,9.71-10.85,17.53-10.3,12.77,3.55Z"/><g><g><path class="cls-3" d="M273.66,249.99c-3.5,.92-22.4,6.07-27.15,5.82-4.75-.25-18.35-1.95-18.53-5.6-.18-3.65,3.84-3.47,3.84-3.47,0,0-5.63-1.63-5.48-5.32,.15-3.69,6.4-3.21,6.4-3.21,0,0-5.66-2.09-5.24-5.77,.42-3.67,6.62-2.13,6.62-2.13,0,0-5.26-1.67-3.65-4.55,1.95-3.47,11.3,.72,16.56,.6,1.19-.03,24.17-2.27,24.17-2.27l2.44,25.92Z"/><g><path class="cls-23" d="M233.6,230.19c6.89,3.06,10.43,3.21,17.77,2.13,.14-.02,.21,.19,.06,.22-7.09,1.71-11.56,2.16-18-2.03-.31-.2-.16-.47,.17-.33Z"/><path class="cls-23" d="M232.22,237.96c7.43,2.55,11.27,2.75,19.05,2.19,.11,0,.13,.18,.02,.19-7.58,1.19-12.05,1.54-19.14-1.99-.32-.16-.27-.51,.07-.4Z"/><path class="cls-23" d="M232.23,246.7c7.37,1.95,11.58,2.35,19.05,.83,.18-.04,.25,.22,.07,.27-7.47,2.28-12.72,1.83-19.16-.87-.44-.18-.43-.35,.03-.23Z"/></g></g><g><path class="cls-3" d="M275.51,219.89s-8.4-4.31-12.51-5.39c-4.11-1.08-20.9,.53-20.76,4.18,.18,4.71,10.06,5.69,14.96,5.53,0,0,.42,10.89,7.35,13.13,6.94,2.24,10.96-17.45,10.96-17.45Z"/><path class="cls-23" d="M242.71,219.95c3.27,4.17,9.69,3.56,14.45,3.76,.36,.02,.48,.31,.41,.59,.48,4.55,2.48,10.84,6.71,13.17,.12,.07,.04,.25-.09,.2-4.88-1.88-7.35-7.9-7.56-12.92-4.89-.14-11.36,.2-13.97-4.77-.01-.03,.02-.06,.04-.03Z"/></g></g></g><g><path class="cls-20" d="M270.94,214.65l5.92,38.89s29.83-6.96,36.42-12.71c6.58-5.75,18.65-36.33,23.55-51.94,4.9-15.61-3.21-16.07-11.68-6.8-8.48,9.27-27.19,30.53-28.28,30.95-1.09,.42-25.93,1.61-25.93,1.61Z"/><path class="cls-1" d="M317.65,227.32c.36,.01,.64,.31,.63,.67-.01,.36-.31,.64-.67,.63-.36-.01-.64-.31-.63-.67,.01-.36,.31-.64,.67-.63Zm-11.55-5.57c-.01,.36,.27,.66,.63,.67,.36,.01,.66-.27,.67-.63,.01-.36-.27-.66-.63-.67-.36-.01-.66,.27-.67,.63Zm19.8-6.76c-.97-.03-1.78,.74-1.81,1.71-.03,.95,.69,1.74,1.62,1.81,.44-1.02,.87-2.04,1.3-3.08-.3-.27-.68-.43-1.11-.44Zm-13.53-12.13c-.03,.97,.74,1.78,1.71,1.81,.97,.03,1.78-.74,1.81-1.71,.03-.97-.74-1.78-1.71-1.81-.97-.03-1.78,.74-1.81,1.71Zm-1.15,32.72c-.03,.97,.74,1.78,1.71,1.81,.97,.03,1.78-.74,1.81-1.71,.03-.97-.74-1.78-1.71-1.81-.97-.03-1.78,.74-1.81,1.71Zm13.74-45.47c-.01,.36,.27,.66,.63,.67,.36,.01,.66-.27,.67-.63,.01-.36-.27-.66-.63-.67-.36-.01-.66,.27-.67,.63Zm-1.28-6.4c-.67,.74-1.38,1.53-2.13,2.35,.14,.05,.29,.08,.44,.08,.98,.02,1.79-.74,1.82-1.72,.01-.25-.04-.49-.13-.71Zm-35.41,44.72c-.01,.36,.27,.66,.63,.67,.36,.01,.66-.27,.67-.63,.01-.36-.27-.66-.63-.67-.36-.01-.66,.27-.67,.63Zm-7.42,22.54c-.01,.36,.27,.66,.63,.67,.36,.01,.66-.27,.67-.63,.01-.36-.27-.66-.63-.67-.36-.01-.66,.27-.67,.63Zm17.52-11.83c-.01,.36,.27,.66,.63,.67,.36,.01,.66-.27,.67-.63,.01-.36-.27-.66-.63-.67-.36-.01-.66,.27-.67,.63Zm-23.22,0c-.01,.36,.27,.66,.63,.67,.36,.01,.66-.27,.67-.63,.01-.36-.27-.66-.63-.67-.36-.01-.66,.27-.67,.63Zm22.47-16.64c-.03,.97,.74,1.78,1.71,1.81,.97,.03,1.78-.74,1.81-1.71,.03-.97-.74-1.78-1.71-1.81-.97-.03-1.78,.74-1.81,1.71Zm-12.27,23.68c-.03,.97,.74,1.78,1.71,1.81,.97,.03,1.78-.74,1.81-1.71,.03-.97-.74-1.78-1.71-1.81-.97-.03-1.78,.74-1.81,1.71Zm-10.52-27.71c-.03,.97,.74,1.78,1.71,1.81,.97,.03,1.78-.74,1.81-1.71,.03-.97-.74-1.78-1.71-1.81-.97-.03-1.78,.74-1.81,1.71Zm59.93-25.73c-.98-.03-1.79,.74-1.81,1.71-.03,.89,.59,1.64,1.44,1.78,.4-1.13,.77-2.23,1.13-3.29-.23-.12-.49-.19-.76-.2Z"/><path class="cls-23" d="M282.12,236.4c-.6-4.2-1.23-8.4-1.68-12.63-.25-2.4-.52-4.8-.75-7.2,0-.09,.14-.12,.16-.02,.77,4.2,1.53,8.41,2.1,12.64,.57,4.21,1.18,8.41,1.7,12.63,.3,2.4,.52,4.79,.67,7.2,0,.05-.07,.06-.08,.01-.91-4.18-1.52-8.4-2.13-12.63Z"/><path class="cls-11" d="M336.83,188.89c-4.9,15.61-16.96,46.2-23.55,51.94-6.58,5.74-36.42,12.71-36.42,12.71l-.28-1.84,58.22-75.75h.01c3.36,.01,4.83,3.98,2.01,12.93Z"/></g></g><g><g><path class="cls-20" d="M312.17,253.55l4.38-26.83s-6.16-5.93-4.94-13.72c.93-5.97,16.73-30.52,21.58-35.54,4.97-5.15,13.29-4.6,18.61,2.34,13.59,17.73,26.96,47.32,31.78,79.7l-71.41-5.94Z"/><path class="cls-20" d="M383.58,259.49l-35.25-2.93-2.46-.21h-.01l-33.69-2.8,4.38-26.83s-6.16-5.93-4.95-13.72c.27-1.77,1.86-5.18,4.08-9.23,.03-.05,.06-.1,.08-.15,5.28-9.58,14.04-22.65,17.43-26.17,4.97-5.15,13.29-4.6,18.61,2.34,2.4,3.13,4.79,6.63,7.12,10.45,.01,0,.01,.01,.01,.01,.1,.15,.19,.31,.27,.46h0c10.8,17.79,20.44,42.35,24.37,68.78Z"/><path class="cls-1" d="M355.28,241.89c.36,.01,.64,.31,.63,.67-.01,.36-.31,.64-.67,.63-.36-.01-.64-.31-.63-.67,.01-.36,.31-.64,.67-.63Zm-23.32-9.74c-.01,.36,.27,.66,.63,.67,.36,.01,.66-.27,.67-.63,.01-.36-.27-.66-.63-.67-.36-.01-.66,.27-.67,.63Zm27.23-41.44c-.08-.15-.17-.31-.27-.46,0,0,0-.01-.01-.01-.1-.07-.21-.11-.34-.11-.36-.01-.66,.27-.67,.63s.27,.66,.63,.67,.66-.27,.67-.63v-.08h0Zm-21.43-5.27c-.01,.36,.27,.66,.63,.67,.36,.01,.66-.27,.67-.63,.01-.36-.27-.66-.63-.67-.36-.01-.66,.27-.67,.63Zm-20.79,42.51c-.01,.36,.27,.66,.63,.67,.36,.01,.66-.27,.67-.63,.01-.36-.27-.66-.63-.67-.36-.01-.66,.27-.67,.63Zm-1.77,23.02c-.01,.36,.27,.66,.63,.67,.36,.01,.66-.27,.67-.63,.01-.36-.27-.66-.63-.67-.36-.01-.66,.27-.67,.63Zm29.96-40.89c-.01,.36,.27,.66,.63,.67,.36,.01,.66-.27,.67-.63,.01-.36-.27-.66-.63-.67-.36-.01-.66,.27-.67,.63Zm-12.48-1.38c-.01,.36,.27,.66,.63,.67,.36,.01,.66-.27,.67-.63,.01-.36-.27-.66-.63-.67-.36-.01-.66,.27-.67,.63Zm23.02,13.13c-.01,.36,.27,.66,.63,.67,.36,.01,.66-.27,.67-.63,.01-.36-.27-.66-.63-.67-.36-.01-.66,.27-.67,.63Zm-31.62-5.13c-.03,.97,.74,1.78,1.71,1.81,.97,.03,1.78-.74,1.81-1.71,.03-.97-.74-1.78-1.71-1.81-.97-.03-1.78,.74-1.81,1.71Zm23.15,36.76c-.97-.03-1.79,.74-1.81,1.71-.01,.45,.14,.86,.42,1.18h.01l2.46,.21c.37-.31,.61-.77,.63-1.29,.03-.98-.74-1.79-1.71-1.81Zm-7.25-25.15c-.03,.97,.74,1.78,1.71,1.81,.97,.03,1.78-.74,1.81-1.71,.03-.97-.74-1.78-1.71-1.81-.97-.03-1.78,.74-1.81,1.71Zm-15.9,16.11c-.03,.97,.74,1.78,1.71,1.81,.97,.03,1.78-.74,1.81-1.71,.03-.97-.74-1.78-1.71-1.81-.97-.03-1.78,.74-1.81,1.71Zm46.24-21.89c-.01,.36,.27,.66,.63,.67,.36,.01,.66-.27,.67-.63,.01-.36-.27-.66-.63-.67-.36-.01-.66,.27-.67,.63Zm-1.61,26.74c-.01,.36,.27,.66,.63,.67,.36,.01,.66-.27,.67-.63,.01-.36-.27-.66-.63-.67-.36-.01-.66,.27-.67,.63Zm-43.77-59.16c-.01,.36,.27,.66,.63,.67,.36,.01,.66-.27,.67-.63,.01-.36-.27-.66-.63-.67-.36-.01-.66,.27-.67,.63Zm49.43,51.62c-.03,.97,.74,1.78,1.71,1.81,.97,.03,1.78-.74,1.81-1.71s-.74-1.78-1.71-1.81c-.97-.03-1.78,.74-1.81,1.71Zm-11.38-11.32c-.03,.97,.74,1.78,1.71,1.81,.97,.03,1.78-.74,1.81-1.71,.03-.97-.74-1.78-1.71-1.81-.97-.03-1.78,.74-1.81,1.71Zm-9.07-25.79c-.03,.97,.74,1.78,1.71,1.81,.97,.03,1.78-.74,1.81-1.71s-.74-1.78-1.71-1.81c-.97-.03-1.78,.74-1.81,1.71Zm-21.01-10.17c-.03,.97,.74,1.78,1.71,1.81,.97,.03,1.78-.74,1.81-1.71,.03-.97-.74-1.78-1.71-1.81-.97-.03-1.78,.74-1.81,1.71Z"/></g><g><path class="cls-23" d="M325.08,222.78c2.84,.1,5.69,.3,8.49,.83,1.39,.26,2.76,.58,4.13,.94,.68,.18,1.37,.33,2.06,.48,.71,.15,1.46,.29,2.19,.27,.07,0,.07,.1,0,.1-.7,.07-1.38,.13-2.09,.1-.67-.03-1.35-.13-2.01-.24-1.41-.25-2.81-.57-4.22-.83-2.85-.53-5.69-1.07-8.57-1.4-.13-.02-.11-.24,.02-.24Z"/><path class="cls-23" d="M318.26,225.75c2.3-.39,4.66-.67,6.99-.8,1.17-.06,2.34-.06,3.52-.02,.56,.02,1.12,.04,1.68,.08,.62,.04,1.23,.16,1.84,.19,.06,0,.07,.1,0,.1-.58,0-1.17,.08-1.75,.1-.58,.03-1.17,.04-1.75,.07-1.17,.05-2.34,.11-3.51,.15-2.34,.08-4.68,.17-7.02,.33-.13,0-.13-.17,0-.19Z"/></g></g><g><g><path class="cls-3" d="M354.56,183.77c12.43,17.41,27.78,47.75,25.34,54.09-6.11,15.86-22.98,33.75-31.09,39.93-4.73,3.61-25.01-20.42-20.97-23.83,6.38-5.39,22.69-23.26,24.62-25.63,1.03-1.27-5.33-23.27-8.16-38.02-3.08-16.03,4.2-15.03,10.26-6.54Z"/><g><path class="cls-3" d="M316.91,270.46c.87-1.86-.1-2.32-3.35-.68-3.29,1.66-14.72,10.91-17.62,6.63-2.91-4.28,13.48-17.11,19.1-19.43,5.62-2.34,15.53-4.11,15.53-4.11-2.69,3.14-8.48,11.37-13.67,17.59Z"/><g><path class="cls-3" d="M351.37,275.06c-7.89,8.56-17.19,19.69-29.76,23.5-2.47,.75-4.26-.06-4.26-.06-5.6,1.81-8.14-.3-8.14-.3-5.73,.08-8.03-2.42-8.03-2.42,0,0-6.6,2.05-8.5-1.74-2.14-4.24,7.55-6.29,12.19-10.67,10.63-10.05,22.93-27.3,25.71-30.51l20.79,22.19Z"/><g><path class="cls-23" d="M323.41,280.68c-3.19,2.89-6.24,5.82-9.81,8.27-3.91,2.69-8.12,4.61-12.36,6.69-.13,.06-.06,.26,.08,.21,8.27-2.53,16.68-8.41,22.22-15.02,.13-.16,.03-.29-.13-.14Z"/><path class="cls-23" d="M330.41,286.21c-3.26,2.64-9.01,7.26-21.24,11.86-.04,.02-.03,.09,.02,.08,8.34-1.94,15.23-5.9,21.35-11.79,.19-.18,.09-.33-.13-.16Z"/><path class="cls-23" d="M334.11,289.26c-5.71,4.29-9.85,6.27-16.74,9.21-.04,.02-.02,.09,.02,.08,8.18-2.52,10.86-4.36,16.89-9.11,.21-.16,.05-.34-.17-.18Z"/></g></g></g></g><g><path class="cls-20" d="M355.66,278.38l-26.36-28.48,21.64-21.83c-3-11.98-8.99-35.93-9.82-44.52-.97-10.08,5.96-11.42,12.49-3.42,14.93,18.28,31.51,52.73,31.3,58.63-.3,8.45-29.24,39.63-29.24,39.63Z"/><path class="cls-1" d="M352.69,271.38c.36,.01,.64,.31,.63,.67-.01,.36-.31,.64-.67,.63-.36-.01-.64-.31-.63-.67,.01-.36,.31-.64,.67-.63Zm1.93-28.86c-.01,.36,.27,.66,.63,.67,.36,.01,.66-.27,.67-.63,.01-.36-.27-.66-.63-.67-.36-.01-.66,.27-.67,.63Zm3.29-51.76c-.01,.36,.27,.66,.63,.67,.36,.01,.66-.27,.67-.63,.01-.36-.27-.66-.63-.67-.36-.01-.66,.27-.67,.63Zm-20.67,66.41c-.35-.01-.64,.25-.66,.59l.65,.71c.35-.01,.63-.28,.64-.63,0-.36-.27-.66-.63-.67Zm32.14-51.61c-.01,.36,.27,.66,.63,.67,.36,.01,.66-.27,.67-.63,.01-.36-.27-.66-.63-.67-.36-.01-.66,.27-.67,.63Zm-13.67,16.28c-.01,.36,.27,.66,.63,.67,.36,.01,.66-.27,.67-.63,.01-.36-.27-.66-.63-.67-.36-.01-.66,.27-.67,.63Zm-10.28,33.33c-.03,.97,.74,1.78,1.71,1.81,.97,.03,1.78-.74,1.81-1.71,.03-.97-.74-1.78-1.71-1.81-.97-.03-1.78,.74-1.81,1.71Zm19.92,6.12c-.03,.97,.74,1.78,1.71,1.81,.97,.03,1.78-.74,1.81-1.71,.03-.97-.74-1.78-1.71-1.81-.97-.03-1.78,.74-1.81,1.71Zm4.98-38.76c-.01,.36,.27,.66,.63,.67,.36,.01,.66-.27,.67-.63,.01-.36-.27-.66-.63-.67-.36-.01-.66,.27-.67,.63Zm-1.61,26.74c-.01,.36,.27,.66,.63,.67,.36,.01,.66-.27,.67-.63,.01-.36-.27-.66-.63-.67-.36-.01-.66,.27-.67,.63Zm5.67-7.54c-.03,.97,.74,1.78,1.71,1.81,.97,.03,1.78-.74,1.81-1.71s-.74-1.78-1.71-1.81c-.97-.03-1.78,.74-1.81,1.71Zm-11.38-11.32c-.03,.97,.74,1.78,1.71,1.81,.97,.03,1.78-.74,1.81-1.71,.03-.97-.74-1.78-1.71-1.81-.97-.03-1.78,.74-1.81,1.71Zm-9.07-25.79c-.03,.97,.74,1.78,1.71,1.81,.97,.03,1.78-.74,1.81-1.71s-.74-1.78-1.71-1.81c-.97-.03-1.78,.74-1.81,1.71Z"/><g><path class="cls-23" d="M366.94,265.59c6.22-7.83,13.07-15.51,17.19-24.69,1.09-2.6-.14-5.25-.97-7.77-.64-1.7-1.33-3.39-2.07-5.06-6.13-13.31-13.54-25.98-20.7-38.77,8,12.31,15.54,24.97,21.52,38.41,.73,1.69,1.43,3.4,2.03,5.15,.79,2.58,1.93,5.6,.76,8.25-1.01,2.59-2.54,4.94-4.06,7.24-4.17,6.05-8.83,11.73-13.68,17.25h0Z"/><g><path class="cls-23" d="M344.27,199.39c2.05,8.06,4.63,17.38,6.52,25.51,.23,1.03,.48,2.01,.62,3.08,.04,.14-.05,.38-.14,.5-4.91,5.65-11.03,11.08-16.42,16.29l-5.54,5.09v-.07l.66,.81-.73-.75-.03-.03,.03-.04,5.26-5.38c5.13-5.33,11.14-10.94,15.95-16.46,.04-.09-.03,.09,0,.11-.05-.36-.13-.73-.22-1.13-1.96-9-4.5-18.48-5.96-27.56h0Z"/><path class="cls-23" d="M343.71,201.16c.7,1.22,1.18,2.61,1.81,3.86-.93-1.1-1.41-2.49-1.81-3.86h0Z"/></g><path class="cls-23" d="M350.77,261.01c-2.82-3.17-5.67-6.33-8.37-9.6-1.54-1.86-3.08-3.72-4.6-5.59-.06-.07,.06-.18,.12-.11,2.96,3.08,5.92,6.17,8.73,9.38,2.8,3.19,5.63,6.36,8.39,9.59,1.57,1.84,3.08,3.71,4.54,5.64,.03,.04-.03,.09-.06,.06-3.06-2.98-5.91-6.16-8.75-9.36Z"/></g></g></g><g><g><path class="cls-3" d="M344.88,177.98c-.19,1.31-5.6,10.15-11.49,10.37-1.92,.07-2.77-10.38-2.77-10.38l-.24-.76-3.34-10.6,12-9.22,1.74-1.23s.72,2.96,1.58,6.65c.04,.17,.08,.34,.12,.53,.05,.21,.11,.4,.15,.6,.14,.55,.27,1.11,.4,1.68,.1,.43,.19,.84,.28,1.3,.1,.45,.18,.89,.28,1.35,.86,4.48,1.36,9.15,1.29,9.71Z"/><path class="cls-23" d="M342.37,162.83c-2.36,8.86-8.93,12.95-11.99,14.39l-3.34-10.6,12-9.22,1.74-1.23s.72,2.96,1.58,6.65Z"/></g><g><path class="cls-23" d="M312.99,137.21s-4.34,2.43-4.98,5.81c-1.03,5.53,1.8,13.83,1.8,13.83l3.18-19.64Z"/><path class="cls-3" d="M309.65,152.57c-.23,19.49,11.43,21.84,15.63,21.88,3.82,.04,16.82-.3,19.07-19.66,2.24-19.36-6.75-25.64-15.48-26.2-8.73-.56-18.99,4.48-19.22,23.97Z"/><g><path class="cls-23" d="M313.29,149.65c.45-.08,.86-.23,1.3-.35,.5-.14,.91-.2,1.26-.61,.19-.22,.15-.64-.05-.85-.46-.47-1.11-.45-1.72-.3-.66,.16-1.12,.45-1.53,.98-.4,.52,.14,1.24,.74,1.13Z"/><path class="cls-23" d="M326.27,149.22c-.46-.03-.88-.13-1.33-.2-.51-.08-.92-.1-1.32-.46-.21-.2-.22-.62-.05-.85,.4-.52,1.05-.57,1.67-.5,.67,.08,1.17,.32,1.64,.8,.45,.47,0,1.24-.61,1.21Z"/><g><g><path class="cls-23" d="M323.71,154.2c0-.05,.11,.06,.11,.11,0,1.33,.23,2.85,1.45,3.25,.04,.01,.04,.08,0,.07-1.47-.16-1.76-2.18-1.55-3.44Z"/><path class="cls-23" d="M324.84,152.77c2.13-.24,2.45,4.04,.47,4.26-1.94,.21-2.26-4.06-.47-4.26Z"/></g><path class="cls-23" d="M325.7,152.93c.39,.21,.79,.61,1.24,.63,.52,.01,.89-.46,1.19-.92,.03-.05,.07-.01,.08,.04,.07,.82-.18,1.68-1.05,1.87-.79,.17-1.42-.51-1.69-1.32-.05-.15,.07-.38,.22-.3Z"/></g><g><g><path class="cls-23" d="M315.92,154.35c0-.05-.1,.06-.1,.12,.04,1.33-.14,2.85-1.34,3.29-.04,.01-.03,.08,.01,.07,1.47-.2,1.68-2.23,1.43-3.48Z"/><path class="cls-23" d="M314.74,152.96c-2.14-.17-2.31,4.12-.33,4.27,1.95,.15,2.12-4.13,.33-4.27Z"/></g><path class="cls-23" d="M313.89,153.15c-.38,.23-.77,.64-1.22,.67-.52,.03-.9-.43-1.22-.88-.03-.05-.07-.01-.08,.05-.05,.82,.23,1.67,1.11,1.83,.8,.14,1.4-.56,1.64-1.37,.04-.15-.08-.38-.23-.29Z"/></g><path class="cls-23" d="M324.58,164.55c-.28,.35-.54,.81-1.02,.91-.45,.09-1.02-.05-1.46-.16-.04-.01-.08,.04-.05,.07,.4,.47,1.16,.7,1.76,.52,.58-.18,.82-.73,.9-1.29,.01-.08-.09-.1-.13-.04Z"/><path class="cls-23" d="M318.74,160.11s-.15,2-.09,2.93c0,.09,.23,.11,.55,.11,.02,0,.02,0,.04,0,1.67,.16,3.29-.52,4.21-1.92,.06-.1-.07-.18-.15-.12-1.17,.98-2.52,1.3-3.98,1.41-.08-.25,.37-3.41,.22-3.41-.51-.01-1.5,.4-2.09,.61,.19-4.17,1.05-8.27,1.18-12.42,0-.15-.21-.18-.25-.05-1.21,4.23-1.53,9.02-1.84,13.32-.04,.54,1.84-.28,2.2-.47Z"/></g><path class="cls-23" d="M325.62,127.88c9.28-1.23,17.15,.27,21.2,4.63,8.44,9.08,4.96,25.71,8.6,28.59,9.5,7.52,3.48,10.83,6.04,13.63,2.1,2.3,9.93,3.76,7.73,12.65l-35.32,2.19c-1.42-5.74,4.22-9.22,4.33-13.34,.1-4.12-5.02-7.91,2.21-17.15,4.69-6-14.78-31.21-14.78-31.21Z"/><path class="cls-23" d="M345.17,154.2c-2.22,.34-7.41,1.08-10.9-1.38-1.92-1.36-3.71-3.78-5.02-8.27-2.29-7.85-8.11-12.66-16.26-7.33,0,0-2.36-7.26,2.41-10.57,4.77-3.31,10.21,1.23,10.21,1.23,0,0,10.96-1.96,17.52,5.93,6.56,7.9,2.04,20.39,2.04,20.39Z"/><g><path class="cls-3" d="M339.08,155.12s3.79-6.38,6.66-5.08c2.87,1.31,.34,10.34-2.81,11.79-3.14,1.44-4.54-1.44-4.54-1.44l.69-5.27Z"/><path class="cls-23" d="M344.95,152.61c.05,0,.07,.06,.02,.09-2.2,1.09-3.24,3.28-3.91,5.52,.61-.89,1.5-1.42,2.68-.7,.06,.04,.01,.13-.05,.13-.94-.13-1.6,.08-2.17,.87-.41,.56-.66,1.25-.93,1.88-.09,.21-.47,.13-.41-.11,0-.02,.01-.04,.01-.05-.27-2.89,1.67-7.1,4.75-7.62Z"/></g></g></g></g></g></g></g><g id="Character_3"><g><g><path class="cls-21" d="M276.64,221.69c1.13,1.18,6.82,8.89,12.4,10.57,5.94,1.79,11.16,2.27,13.48,1.14,6.36-3.08,3.68-9.91-.37-11.08-5.09-1.47-7.93-.53-10.82-1.34-.33-.09-6.49-4.4-9.57-5.28-1.97-.56-6.53,4.5-5.12,5.98Z"/><path class="cls-21" d="M282.86,216.26c.16-.79-.28-2.3-.08-2.92,.2-.62,.57-2.56-.18-2.44-.75,.11-1.72,2.52-1.93,3.07s-2.15-2.86-3.22-1.84c-1.06,1.03,.56,3.06,.35,3.27-.21,.21-2.22-1.55-3.09-.59s1.57,2.49,1.51,2.57c-.06,.08-1.13-1.97-1.97-1.24-.84,.73,1.15,2.95,1.02,3.12-.13,.18-1.84-.33-2.37,.66s2.35,1.31,2.58,1.39c.23,.08,1.69,1.15,2.21,.89,.52-.26,5.06-5.37,5.18-5.94Z"/><path class="cls-23" d="M288.51,219.23c1.07,.36,2.04,.97,2.89,1.71,.21,.18,.41,.39,.61,.59,.18,.22,.38,.42,.54,.65,.35,.44,.62,.95,.85,1.46-.33-.46-.65-.91-1.02-1.32-.36-.41-.75-.81-1.16-1.17-.41-.37-.84-.71-1.29-1.03-.45-.32-.92-.62-1.4-.9Z"/><path class="cls-23" d="M278.92,221.53c.71-.43,1.36-.96,1.93-1.57,.59-.63,.99-1.36,1.39-2.13,.03-.06-.06-.12-.08-.06-.37,.75-.91,1.41-1.45,2.04-.54,.63-1.16,1.19-1.84,1.65-.04,.03,0,.09,.05,.07Z"/></g><g><g><path class="cls-21" d="M292.41,267.33c-2.01,2.31-15.46,.73-15.04-2.73,.34-2.79,10.17-6.44,13.6-3.97,2.29,1.65,2.84,5.08,1.43,6.7Z"/><path class="cls-21" d="M308.33,236.88c4.47,2.79,4.43,9.72-.69,13.9-3.99,3.26-11.89,4.83-11.89,4.83,0,0-.46,7.49-.66,9.15-.3,2.59-6.59,5.22-9.13,2.26-1.82-2.13-5.84-9.23-4-18.92,1.85-9.77,20.34-14.99,26.36-11.23Z"/></g><g class="cls-12"><path class="cls-13" d="M292.41,267.33c-2.01,2.31-15.46,.73-15.04-2.73,.34-2.79,10.17-6.44,13.6-3.97,2.29,1.65,2.84,5.08,1.43,6.7Z"/><path class="cls-13" d="M308.33,236.88c4.47,2.79,4.43,9.72-.69,13.9-3.99,3.26-11.89,4.83-11.89,4.83,0,0-.46,7.49-.66,9.15-.3,2.59-6.59,5.22-9.13,2.26-1.82-2.13-5.84-9.23-4-18.92,1.85-9.77,20.34-14.99,26.36-11.23Z"/></g><path class="cls-23" d="M298.92,254.86c-1.36,.37-2.76,.5-4.16,.41-.67-.04-1.34-.13-2-.23-.7-.11-1.47-.24-2.13-.49-.07-.03-.12,.09-.04,.12,.34,.14,.67,.33,1.02,.45,.35,.12,.71,.22,1.07,.3,.69,.16,1.4,.24,2.1,.24,1.42,0,2.83-.27,4.16-.74,.03-.01,.02-.07-.02-.06Z"/><path class="cls-23" d="M286.19,265.76c-.84-.66-1.54-1.44-2.09-2.29-.26-.41-.5-.82-.71-1.25-.23-.45-.48-.94-.6-1.41-.01-.05-.11-.04-.1,.01,.05,.25,.07,.5,.14,.75,.07,.25,.16,.49,.26,.73,.19,.46,.45,.9,.75,1.31,.62,.83,1.41,1.56,2.32,2.18,.02,.01,.05-.01,.03-.03Z"/></g><g><path class="cls-20" d="M294.53,239.58c.13-.35,7.01,2.36,13.35,2.05,7.69-.38,12.25-2.27,12.69-2.02,.9,.49,3.14,9.4,1.34,14.51-1.8,5.12-8.49,8.86-14.19,8.25-5.7-.61-20.24-3.79-13.18-22.79Z"/><g class="cls-8"><path class="cls-1" d="M294.53,239.58c.13-.35,7.01,2.36,13.35,2.05,7.69-.38,12.25-2.27,12.69-2.02,.9,.49,3.14,9.4,1.34,14.51-1.8,5.12-8.49,8.86-14.19,8.25-5.7-.61-20.24-3.79-13.18-22.79Z"/></g></g><g><path class="cls-20" d="M320.56,239.6c-9.4,4.66-25.38,.89-26.04-.02,0,0-.74-5.57,7.05-16.53,2.18-3.06,10.21-2.94,12.46-.61,6.01,6.24,6.69,17.09,6.53,17.16Z"/><g class="cls-8"><path class="cls-1" d="M320.56,239.6c-9.4,4.66-25.38,.89-26.04-.02,0,0-.74-5.57,7.05-16.53,2.18-3.06,10.21-2.94,12.46-.61,6.01,6.24,6.69,17.09,6.53,17.16Z"/></g><g><path class="cls-20" d="M303.65,229.08c.31,1.76,1.87,3.2,1.87,3.2,0,0,2.09-.38,3.31-1.7,1.01-1.1,1.02-2.6,.1-3.2-1.32-.85-2.42,1.54-2.42,1.54,0,0,.36-2.61-1.21-2.6-1.1,0-1.91,1.28-1.65,2.75Z"/><path class="cls-20" d="M300.02,234.49c.59,.96,1.83,1.45,1.83,1.45,0,0,1.14-.7,1.55-1.75,.34-.88,0-1.76-.67-1.9-.97-.2-1.07,1.46-1.07,1.46,0,0-.38-1.62-1.3-1.25-.64,.26-.83,1.19-.34,1.99Z"/><path class="cls-20" d="M299.63,229.36c.6,.45,1.48,.45,1.48,.45,0,0,.53-.71,.52-1.46,0-.62-.43-1.09-.88-1.01-.64,.11-.3,1.16-.3,1.16,0,0-.63-.9-1.11-.45-.33,.31-.22,.93,.28,1.31Z"/></g></g><g><path class="cls-20" d="M302.84,222.55c-.61,.75-.12,2.28,3.26,2.24,2-.02,5.03-.67,5.32-2.54,.21-1.41-7.42-1.11-8.58,.3Z"/><path class="cls-21" d="M301.69,221.14c1.13,.36,1.49,.84,1.76,2.11,.27,1.26,5.77,1.29,7.16-.69,1.15-1.65,1.95-2.11,2.87-2.58,.92-.47-11.79,1.16-11.79,1.16Z"/><path class="cls-21" d="M321.37,213.01c-2.75,5.78-8.97,7.67-12.26,8.13-5.11,.71-18.97,.17-21.43-9.03-.57-2.13-.53-5.17-.1-8.38,.83-6.15,3.1-12.94,5.32-15.28,4.71-4.98,15.63-6.74,24-1.58,6.73,4.16,7.29,20.21,4.47,26.14Z"/><g><path class="cls-23" d="M313.93,193.39c-1.66,.49-3.21,.97-4.98,1-1.84,.03-3.64-.28-5.37-.94-2.74-1.03-5.6-2.78-8.58-1.78-.02,0,0,.04,.01,.03,3.83-.85,6.95,2.32,10.53,3.12,2.75,.62,6.16,.37,8.51-1.21,.12-.08,.02-.26-.12-.22Z"/><path class="cls-23" d="M316.76,209.86c-.29-1.26-.85-2.34-1.7-3.33-1.03-1.19-2.09-2.19-2.68-3.67-1.27-3.18-.58-6.78,1.05-9.66,.05-.08-.09-.17-.15-.09-1.71,2.5-2.73,5.4-1.96,8.47,.35,1.37,1.03,2.62,1.98,3.69,1.35,1.5,2.67,2.65,3.29,4.63,.03,.09,.18,.06,.16-.03Z"/><path class="cls-23" d="M318.77,215.24c-1.12-.49-3.39-2.98-3.14-5.21,.25-2.22-.76-3.59-.91-4.17-.15-.57-4.35-3.22-2.07-11.63,0,0-4.8,.67-9.53-1.78-5.38-2.79-10.11-1.33-12.66,.4-1.26,.86,1.14-6.93,8.48-9.22,3.15-.99,5.68-.82,7.62-1.06,1-.12,1.78-.37,2.4-.68,1.83-1.26,2.65-3.54,1.5-5.56-2.26-3.97-7.74-4.36-10.89-1.43-.02,.02-.06,0-.04-.03,.75-.8,1.69-1.39,2.71-1.77,0-.01,0-.02,.01-.03,.98-.37,2.04-.64,3.11-.73-1.61,.1-3.2,.55-4.63,1.31-.04,.02-.08-.04-.04-.07,2.34-1.4,5.66-2.1,8.5-1.38-2.02-.79-4.42-.75-6.38-.07-.04,.01-.06-.04-.02-.06,2.56-1.19,6.28-.98,8.61,.76,.66,.49,1.13,1.08,1.46,1.73,.49,.7,.81,1.52,.95,2.37,2.85-3.18,7.97-4.29,11.83-1.29,.05,.04-.01,.11-.06,.08-2.7-1.93-6.12-2.02-8.92-.39-.74,.43-1.36,.94-1.9,1.51,.25-.18,.51-.35,.79-.49,3.44-1.78,7.6-.16,10.04,2.58,.02,.02-.01,.05-.03,.03-.58-.52-1.2-1-1.86-1.42,.52,.36,1,.82,1.4,1.38,.02,.02-.01,.05-.03,.03-.64-.64-1.4-1.12-2.2-1.45,1.1,.58,2.05,1.45,2.75,2.55,.05,.09-.07,.18-.14,.09-1.66-2.41-4.72-3.61-7.53-2.65-.27,.1-.54,.22-.8,.35-.49,.28-.94,.63-1.35,1.02-.39,.44-.67,.96-.76,1.59h0s0,.03-.01,.07c-.04,.32-.05,.64-.02,.95,0,.02,.01,.04,.01,.06,.01,.12,.03,.23,.06,.35,.01,.08,.03,.17,.05,.26,.01,.05,.02,.09,.04,.13,.3,1.11,1.05,2.68,2.87,4.55,2.49,2.55,10.24,7.48,7.05,19.43-1.4,5.23-6.31,9-6.31,9Z"/><path class="cls-23" d="M310.83,176.36c-1.47-3.01-5.78-3.79-8.66-2.39-.06,.03-.03,.12,.03,.1,2.6-1.12,6.45-.32,7.89,2.23,1.61,2.85,.18,5.77-2.68,6.99-.15,.07-.07,.3,.09,.25,3.08-1.01,4.81-4.15,3.33-7.17Z"/><path class="cls-23" d="M322.51,178.72s.05-.03,.02-.04c-2.2-1.06-6.02-1.76-7.56,.68-1.61,2.54-.26,5.98,2.1,7.54,.13,.09,.36-.06,.23-.21-1.63-1.83-3.12-4.03-2.1-6.59,1.13-2.85,5.04-2.35,7.32-1.38Z"/><path class="cls-23" d="M326.75,200.98c-.16-4.9-3.28-8.93-6.79-12.07,0,0,0,0,0,0,3.23,3.27,6.18,6.87,6.33,11.68,.08,2.56-.14,5.43-1.47,7.67-1.35,2.26-3.51,3.8-5.57,5.37-.17,.13,.01,.4,.19,.28,2.14-1.44,4.31-3.04,5.72-5.25,1.43-2.24,1.68-5.09,1.6-7.7Z"/><path class="cls-23" d="M308.43,182.3c-1.77,.7-3.69,.55-5.57,.53-1.96-.01-4.27,.08-6.13,.75-3.07,1.11-5.88,4.59-5.75,7.89,0,.14,.24,.16,.25,.01,.14-2.02,1.07-3.81,2.44-5.27,1.56-1.66,3.29-2.42,5.55-2.75,1.74-.25,3.43-.33,5.19-.35,1.44-.02,2.72-.15,4.02-.78,.02-.01,.01-.05-.02-.04Z"/><path class="cls-23" d="M320.61,218.49c-2.65-2.79,.61-6.18,2.34-8.52,.05-.07-.05-.15-.1-.09-1.86,2.28-6.03,6.05-2.4,8.79,.13,.1,.26-.07,.16-.18Z"/><path class="cls-23" d="M318.55,218.96c-.92-2.43,.43-4.82,1.89-6.7,.14-.18-.12-.4-.27-.23-1.75,1.99-2.75,4.39-1.69,6.95,.02,.04,.08,.02,.06-.02Z"/><path class="cls-23" d="M320.77,217.4c-2-2.34,1.02-5.43,2.38-7.22,.11-.14-.1-.33-.23-.21-1.56,1.47-4.77,5.5-2.19,7.48,.03,.02,.06-.02,.04-.04Z"/></g><g><path class="cls-21" d="M313.91,207.58s3.22-4.82,6.21-4.68c3.16,.15,3.31,5.93,.95,8.11-2.77,2.56-6.57,1.2-6.57,1.2l-.59-4.64Z"/><path class="cls-23" d="M318.88,206.17c.49-.37,1.02-.69,1.58-.93,.06-.03,.02-.14-.04-.12-2.33,.72-4.61,2.91-4.51,5.54,0,.09,.13,.12,.16,.03,.08-.22,.15-.45,.23-.66,.45-.59,.86-1.13,1.54-1.5,.65-.35,1.4-.52,2.15-.49,.09,0,.09-.12,0-.13-1.1-.16-2.39,.16-3.23,.93,.25-.55,.54-1.07,.95-1.56,.35-.41,.74-.78,1.17-1.11"/><path class="cls-23" d="M315.15,212.16s-.03,.02,0,.03c.02,0,.03-.02,0-.03Z"/></g><g><g><path class="cls-20" d="M311.04,180.81s-1.64-7.48-3.03-5.28c-1.39,2.21-.86,3.98-.86,3.98,0,0-2,2.27-1.35,3.13,.65,.86,4.41,.35,4.73-.3,.31-.64,.51-1.54,.51-1.54Z"/><path class="cls-11" d="M311.04,180.81s-.2,.9-.51,1.54c-.16,.31-1.11,.59-2.13,.7,0-.62,.03-1.46,.17-2.07,.18-.83,1.42-1.67,2-2.02,.29,1.03,.48,1.85,.48,1.85Z"/></g><g><path class="cls-20" d="M312.22,181.24s7.67-4.85,7.69-2c.02,2.85-1.98,3.9-1.98,3.9,0,0,.7,3.36-.73,3.57-1.43,.21-5.63-3.06-5.52-3.83,.1-.76,.54-1.64,.54-1.64Z"/><path class="cls-11" d="M313.81,182.91c-.14,.51-.53,1.04-.94,1.47-.73-.63-1.24-1.22-1.2-1.49,.1-.76,.55-1.64,.55-1.64,0,0,.51-.32,1.25-.74,.22,.53,.56,1.55,.34,2.41Z"/></g><path class="cls-20" d="M313.09,182.54c-.36,1.08-1.52,1.66-2.6,1.3-1.08-.36-1.66-1.52-1.3-2.6,.36-1.08,1.52-1.66,2.6-1.3,1.08,.36,1.66,1.52,1.3,2.6Z"/></g><path class="cls-10" d="M293.08,205.99c0,1.19-.97,2.16-2.16,2.16s-2.16-.97-2.16-2.16,.97-2.16,2.16-2.16,2.16,.97,2.16,2.16Z"/><path class="cls-10" d="M313.2,207.96c0,1.31-1.06,2.38-2.38,2.38s-2.38-1.06-2.38-2.38,1.06-2.38,2.38-2.38,2.38,1.06,2.38,2.38Z"/><g><path class="cls-23" d="M306.12,200.84c-.38-.14-.72-.33-1.08-.51-.41-.2-.76-.32-1-.73-.13-.22-.03-.58,.17-.73,.47-.34,1.04-.22,1.55,0,.55,.24,.91,.56,1.19,1.09,.27,.51-.31,1.06-.82,.88Z"/><path class="cls-23" d="M293.73,198.9c.41-.01,.78-.09,1.18-.14,.45-.06,.82-.06,1.17-.37,.19-.17,.21-.54,.06-.74-.34-.47-.91-.53-1.46-.48-.59,.05-1.03,.25-1.46,.66-.41,.4-.03,1.09,.5,1.08Z"/><g><path class="cls-23" d="M301.41,209.93s.05,.21,.07,.52c.05,.69-.03,1.87-1.1,2.15-.41,.11-.83,.03-1.21-.13-1.05-.43-1.9-1.73-1.9-1.73,2.28,.74,4.14-.81,4.14-.81Z"/><path class="cls-9" d="M301.48,210.44c.05,.69-.03,1.87-1.1,2.15-.41,.11-.83,.03-1.21-.13,.16-.56,.52-1.06,1-1.44,.31-.24,.82-.52,1.31-.58Z"/></g><path class="cls-23" d="M297.21,201.03c-.6,2.47-.3,1.6-1.01,4.04-.56-.02-3.08-.27-2.92-.02,.57,.87,2.41,2.48,2.4,2.5-.37,.64-1.59,1.24-1.54,1.3,2.75,3.5,6.05,2.1,7.22,1.2,.23-.18,.15-.19,0-.11-1.14,.61-4.39,1.37-6.34-1.03,.47-.31,.89-.81,1.15-1.33,.03-.07-1.4-1.41-1.94-2.12,.77,.04,1.7,.16,2.27,.2,.13,0,.75-1.91,.93-4.6,.01-.15-.19-.17-.22-.03Z"/><g><path class="cls-23" d="M304.36,202.58c2.05,.26,1.38,4.33-.51,4.09-1.87-.23-1.2-4.31,.51-4.09Z"/><path class="cls-23" d="M304.98,202.83c.3,.22,.59,.59,.96,.64,.43,.06,.78-.29,1.08-.64,.03-.04,.06,0,.06,.04-.02,.68-.32,1.37-1.05,1.43-.67,.06-1.12-.57-1.26-1.26-.03-.13,.09-.31,.21-.22Z"/></g><g><path class="cls-23" d="M294.79,201.18c-1.75-.41-2.53,3.49-.9,3.87,1.6,.37,2.37-3.53,.9-3.87Z"/><path class="cls-23" d="M294.28,201.18c-.35,.12-.74,.38-1.11,.32-.43-.07-.65-.51-.83-.93-.02-.04-.06-.02-.07,.02-.18,.66-.11,1.4,.57,1.68,.62,.26,1.24-.2,1.58-.82,.06-.11,0-.32-.14-.28Z"/></g></g></g><g><path class="cls-20" d="M299.68,244.51c4.09-3.92,11.8-4.29,16.79,.16,4.99,4.45,4.71,15.01-7.25,17.13-11.96,2.13-15.23-11.84-9.53-17.29Z"/><path class="cls-21" d="M291.99,270.27c-2.65,1.53-14.87-4.32-13.34-7.46,1.23-2.53,11.71-2.8,14.16,.66,1.63,2.3,1.04,5.73-.82,6.8Z"/><path class="cls-21" d="M301.79,241.68c4.77-.1,13.68,1.75,15.57,6.67,1.89,4.92-.61,10.66-7.08,11.99-5.04,1.03-12.02-.01-12.02-.01,0,0-.84,4.51-1.73,6.2-1.22,2.31-5.14,5.52-8.25,3.16-2.22-1.69-6.49-15.54-.02-22.98,3.69-4.24,8.04-4.91,13.52-5.02Z"/><path class="cls-23" d="M298.62,254.94c.2,1.07,.23,2.09,.1,3.06-.06,.46-.15,.91-.26,1.35-.11,.46-.24,.97-.44,1.37-.02,.04,.06,.11,.08,.06,.12-.2,.26-.38,.37-.59,.1-.21,.19-.44,.26-.67,.15-.44,.23-.92,.27-1.42,.06-1-.06-2.08-.34-3.16,0-.03-.05-.03-.04,0Z"/><path class="cls-23" d="M287.8,266.19c-.74-.78-1.32-1.65-1.74-2.57-.2-.44-.37-.89-.53-1.34-.16-.48-.33-1-.39-1.49,0-.05-.1-.05-.1,0,.02,.26,0,.51,.03,.76,.03,.25,.09,.51,.15,.76,.12,.48,.31,.96,.56,1.41,.49,.91,1.17,1.75,1.97,2.49,.02,.02,.05,0,.04-.03Z"/></g><g><path class="cls-20" d="M311.66,223.57c-3.92,.99-6.3,5.66-3.64,9.83,2.66,4.16,8.29,3.31,9.87,.07,2.24-4.58-1.2-11.17-6.23-9.9Z"/><g><path class="cls-21" d="M289.85,243.57c1.68-.02,11.47,1.13,16.65-1.87,5.52-3.2,9.55-6.78,10.33-9.31,2.16-6.93-4.85-9.73-8.57-7.51-4.68,2.78-5.97,5.58-8.61,7.18-.31,.19-7.86,1.77-10.69,3.47-1.8,1.08-1.21,8.07,.88,8.05Z"/><path class="cls-21" d="M290.14,235.08c-.48-.68-1.92-1.41-2.25-2-.33-.59-1.52-2.22-1.96-1.58-.44,.65,.68,3.06,.94,3.61,.26,.55-3.66-.4-3.64,1.12,.02,1.52,2.69,1.73,2.7,2.04,0,.31-2.73,.58-2.62,1.9,.11,1.32,2.97,.57,2.99,.67,.02,.1-2.27-.54-2.31,.61-.04,1.14,3.02,1.21,3.06,1.43,.04,.23-1.54,1.15-1.17,2.25,.37,1.1,2.63-.84,2.85-.96,.22-.12,2.05-.46,2.23-1.03,.17-.57-.47-7.58-.82-8.06Z"/><path class="cls-23" d="M296.35,232.93c1.02-.55,2.16-.85,3.31-.96,.29-.03,.58-.03,.87-.04,.29,.02,.58,0,.87,.05,.58,.05,1.14,.2,1.69,.39-.57-.08-1.14-.15-1.7-.16-.57-.02-1.13,0-1.7,.05-.56,.05-1.12,.13-1.68,.25-.56,.12-1.11,.25-1.66,.42Z"/><g><path class="cls-23" d="M299.65,232.05c.53-.6,1.09-1.16,1.66-1.7,.57-.55,1.16-1.07,1.75-1.59,.6-.51,1.2-1.02,1.82-1.51,.62-.49,1.24-.97,1.9-1.43-.48,.64-1.03,1.21-1.59,1.77-.56,.56-1.15,1.09-1.74,1.61-.6,.51-1.21,1.02-1.84,1.49-.63,.48-1.27,.94-1.95,1.36Z"/><path class="cls-23" d="M305.59,225.97c-.08,.39-.25,.74-.43,1.07-.19,.33-.39,.65-.68,.93,.08-.39,.24-.74,.43-1.07,.19-.33,.4-.65,.68-.93Z"/></g><g><path class="cls-23" d="M314.03,236.24c-1.49,1.31-3.05,2.56-4.67,3.7-.81,.58-1.65,1.12-2.53,1.61-.22,.12-.45,.23-.67,.35-.24,.1-.47,.21-.71,.29-.24,.08-.48,.17-.72,.24-.24,.08-.48,.15-.72,.21-1.94,.51-3.9,.85-5.89,1.07-.99,.11-1.99,.17-2.99,.19h-.75l-.75-.04c-.25-.02-.5-.05-.74-.07-.25-.04-.49-.09-.74-.13,.99,.08,1.98,.05,2.96-.05,.98-.08,1.96-.21,2.94-.35,1.95-.31,3.9-.67,5.79-1.18,.24-.06,.47-.13,.71-.2,.24-.07,.47-.14,.69-.22,.23-.07,.44-.18,.67-.27l.65-.32c.87-.45,1.7-.98,2.54-1.51,1.66-1.07,3.3-2.19,4.93-3.33Z"/><path class="cls-23" d="M313.66,237.18c-.33,.3-.7,.52-1.09,.71-.39,.18-.8,.34-1.24,.4,.35-.27,.73-.47,1.11-.66,.39-.18,.78-.35,1.21-.45Z"/></g><path class="cls-23" d="M291.33,241.74c.17-.84,.24-1.69,.18-2.55-.06-.88-.33-1.7-.62-2.54-.02-.06-.13-.04-.11,.02,.3,.8,.42,1.68,.51,2.52,.1,.85,.08,1.7-.05,2.54,0,.05,.08,.06,.09,.02Z"/></g></g></g></g><g id="Character_1"><g><g><g><polygon class="cls-2" points="221.96 321.21 225.08 339.92 246.21 467.2 249.62 467.2 234.25 339.92 231.98 321.21 221.96 321.21"/><polygon class="cls-15" points="231.98 321.21 221.96 321.21 225.08 339.92 234.25 339.92 231.98 321.21"/></g><g><polygon class="cls-2" points="155.59 467.2 158.99 467.2 180.13 339.92 183.25 321.21 173.23 321.21 170.96 339.92 155.59 467.2"/><polygon class="cls-15" points="173.23 321.21 170.96 339.92 180.13 339.92 183.25 321.21 173.23 321.21"/></g><g><polygon class="cls-2" points="92.2 467.2 95.6 467.2 116.74 339.92 119.86 321.21 109.84 321.21 107.56 339.92 92.2 467.2"/><polygon class="cls-15" points="107.56 339.92 116.74 339.92 119.86 321.21 109.84 321.21 107.56 339.92"/></g><polygon class="cls-2" points="97.6 330 252.46 330 252.46 313.68 194.49 313.68 175.01 200.32 103.5 200.32 97.6 330"/><polygon class="cls-15" points="97.6 330 106.04 330 111.54 200.32 103.5 200.32 97.6 330"/></g><g><g><g><g><path class="cls-22" d="M258.86,466.62c-2.94-.07-79.91-28.33-82.1-31.2-.27-.32,2.14-7.34,5.59-16.88l.07-.19c2.17-6.05,22.46-52.53,22.46-52.53l46.56,15.74-17.04,47.49s8.83,8.12,16.33,15.73c0,.01,.02,.02,.01,.03,4.63,4.67,8.61,8.85,9.41,10.15,2.06,3.38,1.63,11.76-1.3,11.67Z"/><path class="cls-23" d="M176.76,435.42c2.19,2.86,79.16,31.13,82.1,31.2,2.92,.1,3.35-8.3,1.29-11.67-.8-1.29-4.77-5.48-9.39-10.15l-.02-.03c-2.87-2.91-5.93-5.91-8.64-8.48,9.14,11.05,13.74,26.51-58.64-20.18-.51,.99-.87,1.75-1.04,2.24l-.07,.19c-3.45,9.53-5.87,16.55-5.6,16.88Z"/></g><g><path class="cls-23" d="M237.16,426.59l-52.5-16.64s36.16-87,34.8-91.86c-.91-3.25-64.11-4.1-80.4-20.92-19.42-20.03-3.74-55.32-3.74-55.32l57.53,.59s-1.17,11.99,.99,13.89c1.43,1.27,65.52,8.22,77.41,24.67,17.34,23.98-34.09,145.57-34.09,145.57Z"/><path class="cls-4" d="M236.71,413.46c-1.22-.72-16.88-5.9-19.65-6.81-5.56-1.82-22.45-7.52-22.86-7.45-.19,.03-.26,.39-.1,.46,5.38,2.24,10.87,4.16,16.36,6.09,5.48,1.93,24.46,7.8,26.16,7.98,.16,.02,.25-.17,.08-.27Z"/><path class="cls-4" d="M141.24,245.09c-4.37,12.79-7.2,28.47-.73,40.99,2.12,4.24,6.29,6.75,10.46,8.72,8.52,3.87,17.74,6.03,26.88,7.96,13.8,2.84,27.8,4.58,41.72,6.75,3.52,.65,7.06,.96,10.44,2.3,.34,.17,.72,.42,.86,.82,.32,.98,.09,1.91-.02,2.86-.85,4.68-2.38,9.13-3.84,13.63-7.62,22.24-16.59,43.98-25.66,65.66,8.65-21.83,17.33-43.68,24.84-65.93,1.43-4.43,2.94-8.92,3.77-13.5,.11-.77,.26-1.66,.06-2.38-.89-.81-2.45-.94-3.68-1.29-2.28-.49-4.6-.86-6.91-1.22-13.94-2.09-27.93-3.92-41.75-6.81-9.2-1.98-18.46-4.14-27.02-8.16-4.24-2.03-8.56-4.74-10.68-9.11-6.48-12.78-3.35-28.4,1.28-41.29h0Z"/></g></g><g><g><path class="cls-22" d="M215.03,469.07c-2.94,.02-80.72-25.92-83-28.72-.28-.31,1.92-7.4,5.08-17.04l.06-.19c1.98-6.12,24.92-54.59,24.92-54.59l48.87,15.65-21.51,48.06s9.07,7.85,16.8,15.23c0,.02,.02,.02,.02,.03,4.77,4.53,8.87,8.59,9.71,9.86,2.16,3.31,1.99,11.71-.95,11.71Z"/><path class="cls-23" d="M137.44,422.23c-.1,.35-.19,.64-.27,.87l-.06,.2c-3.16,9.65-5.37,16.72-5.08,17.04,2.27,2.8,80.05,28.74,83,28.71,2.94,0,3.11-8.39,.95-11.69-.84-1.27-4.93-5.34-9.71-9.87,.01,0,0-.01,0-.03-3.3-3.14-6.81-6.36-9.78-9.02,10.22,10.52,18.48,28.12-59.03-16.21Z"/></g><g><path class="cls-23" d="M194.74,421.59l-50.38-17.65s43.67-87.74,40.49-90.84c-2.06-2.01-35.54-2.22-52.81-18-17.71-16.17-2.18-53.33-2.18-53.33l56.98,.64s.77,7.22-2.99,17.3c0,0,35.63,6.48,51.52,17.17,3.34,2.25,10.99,12.19,10.04,20.27-4.75,40.61-50.68,124.44-50.68,124.44Z"/><g><path class="cls-4" d="M172.37,265.85c3.26-2.13,6.56-4.15,10.03-5.92,1.75-.89,5.35-2.42,7.58-2.92,1.83-.41,2.63-.53,.91,.25-.99,.45-2.87,1.31-4.63,2.11,.33,0,.65-.01,.97-.02,1.23-.04,2.46-.07,3.69-.08,2.4-.02,4.81,.03,7.21,.05,4.88,.05,9.7,.58,14.56,.9,.13,0,.12,.21,0,.2-4.85-.23-9.73-.05-14.59-.15-2.4-.05-4.81-.02-7.21,0-1.17,0-2.35,0-3.52,0-.97,0-2,.06-2.98-.04-.53,.24-1,.46-1.35,.61-3.56,1.61-7.11,3.3-10.54,5.16-.1,.06-.2-.09-.1-.15Z"/><path class="cls-4" d="M189.05,240.39c-.68,2.94-1.27,5.9-2.05,8.81-.36,1.34-.71,2.7-1.19,4-.4,1.1-1.02,2.35-2.28,2.62-1.45,.31-1.88-.93-1.79-2.13,.11-1.34,.43-2.69,.67-4.01,.28-1.52,.56-3.05,.81-4.58,.12-.76,.25-1.53,.37-2.29,.03-.19,.15-1.65,.24-2.08,.01,.04,.04,.07,.08,.06h.05s.08-.04,.09-.09c.01-.12,.01-.14-.08-.22-.04-.03-.09-.03-.13,0-.28,.16-.29,.54-.37,.82-.22,.74-.45,1.49-.65,2.24-.38,1.4-.75,2.81-1.08,4.23-.33,1.41-.65,2.83-.97,4.25-.24,1.06-.53,2.18-.22,3.25,.33,1.18,1.29,1.76,2.33,1.83-.05,.1-.11,.19-.15,.29-.12,.29-.21,.6-.31,.9-.11,.3-.2,.61-.28,.92-.04,.15-.06,.3-.08,.45-.02,.17,.02,.33,0,.51-.03,.26,.33,.42,.46,.15,.07-.15,.18-.27,.27-.41,.09-.15,.15-.33,.2-.49,.09-.29,.17-.59,.24-.89,.07-.3,.15-.6,.2-.9,.03-.18,.03-.36,.04-.54,.59-.07,1.18-.29,1.67-.67,.86-.68,1.35-1.69,1.7-2.7,.42-1.23,.74-2.49,1.06-3.75,.79-3.1,1.46-6.26,1.69-9.46,.03-.34-.45-.45-.53-.11Z"/><path class="cls-4" d="M158.8,248.32c-.24,1.46-.38,2.93-.69,4.37-.3,1.41-.66,2.83-1.1,4.21-.42,1.32-.94,2.65-1.72,3.8-.75,1.12-1.75,2.09-2.79,2.94-2.03,1.67-4.34,3.02-6.8,3.95-1.24,.47-2.51,.87-3.8,1.19-.67,.16-1.35,.29-2.03,.39-.57,.08-1.13,.11-1.64,.41-.22,.13-.17,.47,.04,.57,.88,.41,2.11,.15,3.04,.04,1.09-.13,2.17-.34,3.24-.63,2.14-.59,4.2-1.53,6.09-2.7,1.85-1.15,3.7-2.57,5.05-4.29,1.4-1.78,2.16-3.86,2.63-6.06,.57-2.63,.94-5.49,.75-8.18-.01-.16-.25-.18-.28-.02Z"/></g><path class="cls-4" d="M196.03,409.02c-1.22-.72-16.88-5.9-19.65-6.81-5.56-1.82-22.45-7.52-22.86-7.45-.19,.03-.26,.39-.1,.46,5.38,2.24,10.87,4.16,16.36,6.09,5.48,1.93,24.46,7.8,26.16,7.98,.16,.02,.25-.17,.08-.27Z"/><path class="cls-4" d="M134.09,244.28c-3.99,12.9-7.05,30.54,1.09,42.35,6.11,7.81,18.48,10.54,27.75,12.83,8.16,1.86,16.45,3.05,24.68,4.82,2.54,.67,5.37,1.09,7.55,2.76,6.55,6.81-30.25,73.92-36.04,84.85,7.72-14.88,15.21-29.88,22.28-45.07,2.61-6.13,16.51-34.53,13.11-39.07-2.02-1.48-4.68-1.88-7.12-2.51-8.16-1.77-16.48-3-24.66-4.9-9.55-2.41-21.84-5.12-28.12-13.31-8.21-12.22-4.84-29.65-.52-42.76h0Z"/><path class="cls-7" d="M183.86,259.71s37.26,7.93,48.36,14.6c6.41,3.85,13.78,13.95,13.26,20.81-1.27,16.93-20.49,73.07-47.17,119.79"/></g></g></g><g><path class="cls-23" d="M188.59,173.37c1.57,.31,3.28-.24,4.27-1.54,.97-1.28,1.08-3.04,.4-4.46,1.7,.22,3.45-.37,4.23-2.08,.8-1.77,.03-3.64-1.54-4.65-.01,0-.03,.01-.02,.02,1.32,1.07,2.03,2.87,1.28,4.49-.65,1.39-1.9,1.9-3.24,1.93,1.19-.46,2.24-1.3,2.72-2.5,.53-1.33,.23-2.92-.8-3.89,1.14-1.15,1.96-2.78,1.69-4.43-.23-1.39-1.24-2.61-2.61-2.94,.89-1.34,.95-3.19,.03-4.55-.87-1.27-2.43-1.91-3.93-1.72,1.19-2.12-.25-4.82-2.71-4.99,.3-.82,.01-1.75-.62-2.37-.73-.71-1.79-.89-2.78-.87-.23-.87-.86-1.64-1.74-1.93-1.18-.38-2.39,.2-2.93,1.25-1.33-.92-2.91-1.74-4.57-1.53-1.37,.17-2.69,1.07-3.04,2.43-2.6-1.33-5.77-.11-6.8,2.63-1.19-.24-2.42,.25-3.22,1.17-.81,.93-1.08,1.75-1.17,2.15-1.09-.13-2.14,.5-2.6,1.5-.45,.98-.27,1.98,.15,2.9-.04,.27-.12,.52-.31,.81-.82,1.28-.98,2.79-.39,4.2-1.4,1.12-1.44,3.39-.09,4.56-1.01,1.52-.52,3.73,1.02,4.69-.66,1.27-.78,2.79-.24,4.14,.41,1.03,1.32,2,2.46,2-.33,.81,.27,1.71,1.04,2.08,.29,.14,.6,.23,.92,.3,.37,.08,.87,.09,1.19,.31,.34,.22,.46,.67,.66,.99,.15,.23,.32,.45,.51,.65,1.45,1.49,3.91,1.76,5.63,.61,.79,1.25,2.38,1.52,3.77,1.31,.46-.07,.88-.21,1.32-.35,.4-.14,.76-.23,1.19-.12,.26,.07,.5,.19,.76,.26,.88,.24,1.68-.13,2.43-.57,2.24,3.26,6.79,1.64,7.69-1.86Zm-29.57-26.3c.33-1.14,1.27-1.86,2.44-1.97-.01,.08-.02,.14-.02,.14,0,0-.35,.13-.51,.21-.3,.15-.57,.35-.81,.58-.5,.48-.86,1.11-1,1.79-.06,.31-.07,.61-.06,.92,0,.04,0,.08,0,.11-.15-.58-.22-1.17-.04-1.8Zm24.41-9.29c-.98-.46-2.19-.27-2.95,.5-.02-.02-.05-.03-.07-.05,.66-.9,1.51-1.54,2.74-1.12,.86,.29,1.29,.95,1.48,1.72h-.02c-.29-.44-.68-.81-1.19-1.05Zm-2.38,37.37l.03-.02c2.02,1.71,4.9,1.39,6.54-.43-1.67,2.13-4.35,3.01-6.57,.45Z"/><g><path class="cls-17" d="M206.78,182.1c8.39-17.66,8.48-22.35,7.34-24.77-1.2-2.56-3.6-4.27-3.7-4.34l-.79,1.12,.4-.56-.4,.56s2.2,1.58,3.25,3.8c.83,1.75,.96,6.11-7.34,23.6l1.24,.59Z"/><rect class="cls-23" x="208.35" y="151.03" width="2.93" height="4.75" rx="1.11" ry="1.11" transform="translate(461.76 89.53) rotate(129.6)"/></g><g><path class="cls-14" d="M194.06,253.95l1.88-28.7s7.3-4.45,7.8-12.32c.38-6.03-10.07-31.87-13.72-37.82-3.74-6.11-11.98-7.37-18.68-1.75-17.1,14.37-31.53,40.71-43.24,71.28l65.96,9.31Z"/><g><polygon class="cls-20" points="194.3 255.19 125.74 245.55 129.97 237.63 194.56 246.7 194.3 255.19"/><g class="cls-16"><polygon class="cls-13" points="194.3 255.19 125.74 245.55 129.97 237.63 194.56 246.7 194.3 255.19"/></g><path class="cls-15" d="M192.41,255.95l-18.27-2.29,1.38-11.02,18.27,2.29-1.38,11.02Zm-15.69-4.3l13.68,1.72,.81-6.43-13.67-1.71-.81,6.43Z"/></g><g><path class="cls-23" d="M188.43,220.96c-2.84-.08-5.7-.07-8.52,.27-1.41,.17-2.79,.4-4.18,.67-.69,.13-1.39,.24-2.08,.34-.72,.11-1.48,.19-2.2,.12-.07,0-.08,.09-.01,.1,.7,.11,1.37,.22,2.08,.23,.67,.02,1.35-.04,2.02-.11,1.43-.16,2.84-.38,4.27-.55,2.87-.35,5.75-.7,8.64-.84,.13,0,.13-.23,0-.24Z"/><path class="cls-23" d="M195.05,224.37c-2.27-.54-4.61-.98-6.93-1.25-1.17-.14-2.33-.21-3.51-.25-.56-.02-1.12-.03-1.68-.03-.62,0-1.24,.08-1.85,.07-.06,0-.08,.1-.01,.1,.58,.03,1.16,.15,1.74,.22,.58,.06,1.16,.12,1.75,.18,1.16,.12,2.33,.26,3.49,.38,2.33,.23,4.66,.48,6.98,.79,.13,.02,.14-.16,.02-.19Z"/></g></g><path class="cls-19" d="M88.56,343.33l62.01,14.54s28.92-140.09,29.92-154.83c.72-10.66-2.38-33.04-2.38-33.04,0,0-7.56-1.2-27.45,24.49-39.65,51.2-62.1,148.84-62.1,148.84Z"/><path class="cls-2" d="M117.98,296.81c-1.71,8.75-2.93,18.77-1.36,20.9,2.95,4,12.33,5.23,15.26,5.69,2.91,.45,13.39,2.15,16.73-2.83,1.47-2.2,3.76-14.43,4.44-18.78,.28-1.77,1.3-10.51,1.33-11.51,0-.23-.62-.31-.67-.16-.31,.97-.8,4.59-.97,5.27-17.18-.59-27.3-4.1-32.53-6.02,.27-1.62,.47-2.89,.71-4.51,2.22,.96,9.86,3.16,15.69,4.11,5.84,.95,14.76,1.51,17.68,1.61,.14,0,.14-.66-.06-.69-2.2-.33-9.92-.83-17.58-2.08-7.41-1.21-16.13-3.95-16.16-3.95-.26,.04-1.69,8.76-2.51,12.95Zm-.18,20.07c-1.51-2.44-.73-8.62-.13-12.29,.83-5.06,1.51-9.1,2.35-14.16,12.46,5.13,26.97,5.98,32.55,5.77-.05,.21-1.68,10.91-2.33,14.29-.84,4.32-1.62,8.23-3.65,10.21-1.75,1.7-6.1,2.98-15.37,1.46-6.7-1.1-12.15-3.24-13.41-5.28Z"/><path class="cls-2" d="M177.77,170.16c-.54,1.78-1.07,3.58-1.59,5.37l-1.57,5.39c-1.04,3.6-2.07,7.2-3.09,10.82l-.09,.33,.16,.24c1.07,1.6,2.15,3.19,3.23,4.76l-.02-.76-3.52,7.1-.12,.23,.05,.28c.74,4.06,1.51,8.1,2.29,12.13,.39,2.02,.79,4.03,1.19,6.03,.41,2,.81,4.02,1.24,6.01-.31-2.07-.65-4.11-.97-6.17-.33-2.05-.67-4.1-1.02-6.14-.69-4.09-1.4-8.16-2.13-12.23l-.06,.52,3.53-7.1,.21-.42-.23-.34c-1.09-1.57-2.17-3.13-3.27-4.67l.07,.56c.98-3.64,1.96-7.29,2.91-10.94l1.43-5.49c.47-1.83,.95-3.67,1.41-5.51Z"/><g><path class="cls-19" d="M188.76,173.27l6.03,23.39-1.33,58.79s.32,.82,.53,1.01c.35,.29,1.72,.58,1.72,.58,0,0,.54-30.56,.67-31.09,.14-.52,8.76-6.91,8.27-15.14-.58-9.89-13.4-36.34-15.9-37.54Z"/><path class="cls-2" d="M190.55,176.98c.61,1.57,1.25,3.13,1.88,4.68,.63,1.56,1.27,3.12,1.92,4.67,1.29,3.11,2.61,6.2,3.95,9.29l.14-.58c-1.5,1.16-3.62,3.89-3.62,3.89l2.65,7.25-.06-.34c-.61,3.9-1.17,7.81-1.71,11.73-.27,1.96-.53,3.92-.76,5.88-.23,1.96-.48,3.92-.68,5.89,.42-1.93,.78-3.88,1.17-5.81,.38-1.94,.74-3.88,1.09-5.83,.7-3.89,1.37-7.78,2-11.68l.03-.18-.08-.16-2.44-6.52s1.6-2.13,3.06-3.35l.3-.25-.15-.34c-1.4-3.06-2.82-6.11-4.27-9.15-.72-1.52-1.45-3.04-2.19-4.55-.73-1.52-1.47-3.03-2.23-4.54Z"/></g><g><g><path class="cls-22" d="M179.71,172.15c0,1.32,4.15,10.83,9.95,11.86,1.89,.33,4.18-9.89,4.18-9.89l.34-.72,4.77-10.03-10.61-10.79-1.56-1.46s-1.12,2.83-2.49,6.37c-.06,.16-.13,.33-.19,.5-.08,.2-.16,.38-.23,.57-.21,.53-.42,1.06-.62,1.6-.15,.41-.31,.81-.45,1.25-.16,.43-.3,.86-.46,1.29-1.47,4.32-2.61,8.88-2.62,9.44Z"/><path class="cls-23" d="M184.29,157.49c1.11,9.1,7.06,14.06,9.88,15.91l4.77-10.03-10.61-10.79-1.56-1.46s-1.12,2.83-2.49,6.37Z"/></g><g><path class="cls-22" d="M218.11,151.86c-2.47,19.34-14.34,20.05-18.51,19.51-3.79-.49-16.62-2.62-16.17-22.11,.45-19.49,10.23-24.46,18.95-23.81,8.72,.65,18.19,7.06,15.72,26.4Z"/><g><path class="cls-23" d="M214.92,148.47c-.44-.14-.82-.34-1.24-.53-.47-.21-.87-.33-1.16-.78-.16-.24-.06-.66,.17-.83,.52-.4,1.16-.29,1.74-.06,.63,.25,1.05,.6,1.38,1.19,.32,.57-.31,1.2-.89,1.02Z"/><path class="cls-23" d="M202.11,146.24c.46,.04,.89,0,1.35-.02,.52-.01,.93,.03,1.37-.28,.24-.17,.3-.59,.16-.83-.33-.57-.96-.71-1.58-.73-.68-.01-1.2,.15-1.73,.57-.51,.4-.17,1.23,.43,1.28Z"/><g><g><path class="cls-23" d="M203.97,151.53c0-.05-.11,.04-.12,.1-.19,1.31-.62,2.79-1.88,3.02-.04,0-.05,.07,0,.07,1.48,.05,2.04-1.91,2.01-3.19Z"/><path class="cls-23" d="M203.04,149.96c-2.08-.53-2.98,3.66-1.06,4.15,1.89,.48,2.8-3.71,1.06-4.15Z"/></g><path class="cls-23" d="M202.17,150c-.42,.16-.87,.5-1.32,.45-.52-.06-.81-.58-1.06-1.07-.03-.05-.07-.02-.08,.03-.19,.8-.05,1.69,.78,1.99,.76,.28,1.48-.31,1.85-1.07,.07-.14-.01-.39-.18-.33Z"/></g><g><g><path class="cls-23" d="M211.66,152.76s.09,.08,.09,.13c-.22,1.31-.26,2.85,.87,3.45,.04,.02,.02,.08-.02,.07-1.42-.4-1.36-2.44-.94-3.65Z"/><path class="cls-23" d="M213.02,151.54c2.14,.13,1.72,4.4-.26,4.27-1.95-.12-1.53-4.38,.26-4.27Z"/></g><path class="cls-23" d="M213.83,151.85c.35,.28,.67,.74,1.12,.83,.51,.1,.95-.31,1.33-.7,.04-.04,.07,0,.07,.06-.07,.82-.46,1.63-1.35,1.66-.81,.03-1.31-.75-1.44-1.59-.02-.16,.13-.37,.27-.26Z"/></g><path class="cls-23" d="M201.45,161.86c.23,.38,.43,.88,.88,1.04,.44,.16,1.01,.09,1.47,.04,.04,0,.07,.05,.04,.08-.46,.41-1.25,.53-1.81,.27-.55-.25-.71-.83-.71-1.4,0-.08,.11-.08,.14-.03Z"/><path class="cls-23" d="M208.07,158.06s-.13,2-.31,2.91c-.02,.09-.25,.08-.56,.04-.02,0-.03,0-.04,0-1.67-.08-3.19-.97-3.9-2.49-.05-.1,.09-.17,.16-.1,1.03,1.13,2.32,1.63,3.75,1.95,.12-.24,.1-3.43,.25-3.41,.51,.06,1.43,.6,1.99,.89,.38-4.15,.1-8.33,.55-12.46,.02-.15,.24-.15,.25-.01,.61,4.36,.27,9.15-.02,13.45-.03,.54-1.78-.54-2.11-.77Z"/><g><path class="cls-23" d="M207,160.61s-1.03,1.06-2.27,1.32c-.46,.1-.94,.1-1.42-.1-.98-.4-.88-1.34-.59-2.11,.24-.64,.62-1.16,.62-1.16,0,0,1.3,1.59,3.66,2.05Z"/><path class="cls-9" d="M204.72,161.94c-.46,.1-.94,.1-1.42-.1-.98-.4-.88-1.34-.59-2.11,1.08,.26,2.06,1.14,2.01,2.21Z"/></g></g><g><path class="cls-23" d="M183.24,151.48c3.59,1.29,6.42-6.97,6.42-6.97,0,0,16.34,.84,20.53-11.69,0,0,.88,8.77,8.3,14.31,0,0,2.58-14.18-7.96-19.39,0,0-12.71-8.11-22.93,1.13-10.22,9.24-6.78,21.74-4.37,22.61Z"/><path class="cls-23" d="M210.46,131.89c-.22,2-.96,3.95-2.01,5.7-1.05,1.75-2.44,3.33-4.12,4.52-.4,.33-.87,.55-1.3,.83l-.66,.4c-.23,.11-.47,.21-.7,.32-.47,.2-.94,.42-1.42,.59-.49,.15-.98,.29-1.47,.42-.25,.06-.49,.14-.74,.19l-.75,.11-1.5,.22c-1.01,.05-2.02,.05-3.02,.04,.99-.19,1.98-.28,2.96-.48l1.44-.34,.72-.17c.24-.07,.46-.17,.7-.25,.46-.17,.92-.34,1.39-.49,.45-.19,.88-.42,1.32-.63l.66-.31,.62-.39c.4-.27,.85-.48,1.22-.8,1.61-1.11,2.93-2.57,4.07-4.16,.57-.8,1.06-1.66,1.49-2.55,.45-.88,.81-1.81,1.1-2.77Z"/></g><g><path class="cls-4" d="M210.44,153.1c.56-3.44,2.86-5.93,5.14-5.56,2.27,.37,3.67,3.47,3.11,6.9-.56,3.44-2.86,5.93-5.14,5.56-2.27-.37-3.67-3.47-3.11-6.9Zm.84,.14c-.48,2.98,.6,5.64,2.41,5.93,1.81,.29,3.68-1.89,4.17-4.86,.48-2.98-.6-5.64-2.41-5.93-1.81-.3-3.68,1.89-4.16,4.86Z"/><path class="cls-4" d="M195.61,150.61c.56-3.44,3.62-5.81,6.84-5.29,3.21,.52,5.37,3.74,4.81,7.18-.56,3.44-3.62,5.81-6.83,5.29-3.21-.52-5.37-3.74-4.81-7.18Zm.84,.14c-.48,2.98,1.36,5.76,4.11,6.21,2.75,.45,5.38-1.61,5.86-4.59,.48-2.98-1.36-5.76-4.11-6.21-2.75-.45-5.38,1.61-5.86,4.59Z"/><path class="cls-4" d="M206.92,151.97c2.8-.64,3.83,.55,3.83,.56l.54-.57c-.05-.06-1.25-1.54-4.48-.8l.11,.81Z"/><path class="cls-4" d="M195.79,150.14l.18-.81c-.61-.11-10.01-2.13-11.57-2.22-1.64-.12-5.5,1.73-5.93,1.94l.45,.73c1.09-.53,4.14-1.86,5.35-1.84,.02,0,.05,0,.07,0,1.2,.07,6.32,1.3,11.45,2.21Z"/></g><g><path class="cls-22" d="M188.61,150.31s-2.87-6.85-5.89-5.95c-3.02,.9-1.76,10.2,1.15,12.06,2.91,1.86,4.7-.8,4.7-.8l.05-5.32Z"/><path class="cls-23" d="M183.15,147.02c-.05-.02-.08,.05-.04,.08,2.03,1.38,2.75,3.69,3.11,6.01-.48-.97-1.29-1.61-2.56-1.06-.07,.03-.03,.13,.03,.13,.95,0,1.58,.3,2.03,1.16,.32,.61,.48,1.33,.66,1.99,.06,.22,.44,.19,.42-.05,0-.02,0-.04,0-.06,.67-2.82-.67-7.26-3.65-8.2Z"/></g></g></g><g><g><path class="cls-17" d="M188.67,180.27c-6.1-13.42-8.62-20.58-7.26-23.34,1.09-2.21,3.29-3.73,3.31-3.75l-.77-1.13c-.1,.07-2.52,1.74-3.77,4.28-1.62,3.29,.71,10.13,7.25,24.52l1.25-.57Z"/><path class="cls-23" d="M184.19,150.09h.7c.61,0,1.11,.5,1.11,1.11v2.53c0,.61-.5,1.11-1.11,1.11h-.7c-.61,0-1.11-.5-1.11-1.11v-2.53c0-.61,.5-1.11,1.11-1.11Z" transform="translate(188.39 -86.87) rotate(51.36)"/></g><path class="cls-6" d="M187.49,179.63l6.79,12.67c.81,1.38,2.29,2.22,3.88,2.2h0c1.82-.02,3.05-.71,4.1-2.83l4.91-11.43"/></g><g><g><path class="cls-22" d="M169,185.27c3.94,20.9,15.45,54,21.22,58.93,5.11,4.36,31.92,3.67,43.78,2.38,4.43-.48-1.02-34.47-5.75-33.86-5.68,.74-22.52,2.31-23.6,1.26-1.18-1.16-13.2-20.19-23.36-33.66-9.21-12.21-13.78-2.95-12.29,4.95Z"/><g><path class="cls-22" d="M243.39,209.58c10.41-.69,13.18,.73,21.66-4.51,5.56-3.44,10.14-1.37,6.69,4.49-5.65,9.58-18.89,13.29-23.85,13.25l-4.5-13.23Z"/><g><path class="cls-23" d="M282.54,217.65c-.81,4.67-4.59,7.92-8.45,7.25s-6.32-5-5.51-9.67,4.59-7.92,8.45-7.25c3.85,.67,6.32,5,5.51,9.67Z"/><path class="cls-15" d="M278.87,217.01c-.63,3.61-3.55,6.12-6.53,5.6-2.98-.52-4.88-3.86-4.26-7.47s3.55-6.12,6.53-5.6c2.98,.52,4.88,3.86,4.26,7.47Z"/><path class="cls-17" d="M277.21,216.72c-.58,3.36-3.3,5.69-6.07,5.21s-4.54-3.59-3.96-6.95c.58-3.36,3.3-5.69,6.07-5.21,2.77,.48,4.54,3.59,3.96,6.95Z"/></g><path class="cls-6" d="M271.32,215.7c-3.01-1.88-6.83-4.8-18.24-4.39-11.4,.41-35.13,6.65-44.38,4.36-9.25-2.29-11.09-11.52-10.51-19.6"/><path class="cls-22" d="M215.31,217.51s12.04-5.59,23.06-7.42c7.62-1.27,24.5-2.17,39.31,15.5,3.51,4.19,5.54,12.65-2.68,7.89-5.84-3.38-8.52-7.29-12.28-8.64,0,0,1.31,11.07-3.03,14.42-1.94,1.5-7.32,5.47-11.95,7.96,0,0-.81-.86-1.69-2.1,0,0-4.35,2.75-12.06,1.45l-18.69-29.06Z"/><g><path class="cls-22" d="M245.83,210.05c3.44,2.13,10.67,6.76,15.26,12.6,5.1,6.49,13.18,20.36,8.35,24.08-3.54,2.72-7.09-2.3-7.09-2.3,0,0,2.13,6.44-1.61,8.2-3.41,1.61-5.92-2.45-5.92-2.45,0,0,.62,4.13-2.96,5.04-4.3,1.1-4.9-7.73-10.22-10.38-1.19-.6,4.18-34.79,4.18-34.79Z"/><g><path class="cls-23" d="M253.34,226.89c2.91,2.53,8.05,9.97,9.08,17.37,.02,.17-.09,.28-.14,.13-2.87-7.91-7.05-14.68-9-17.45-.03-.04,.03-.08,.06-.05Z"/><path class="cls-23" d="M246.94,232.23c2.29,2.44,7.24,10.35,8.03,17.89,.02,.17-.1,.27-.15,.12-2.66-8.38-6.16-15.08-7.94-17.96-.02-.04,.03-.08,.06-.04Z"/></g></g></g><path class="cls-23" d="M262.5,213.4c3.69,1.93,7.22,4.22,10.41,6.93,3.12,2.78,6.26,5.82,7.77,9.83,.82,2.05,.73,5.44-2.33,5.1-2.2-.31-3.98-1.62-5.67-2.92-3.25-2.62-6.43-5.32-10.11-7.2l.41-.48c2.23,3.26,4.2,6.68,5.85,10.27,1.18,2.68,2.32,5.55,2.21,8.53-.06,.98-.36,1.99-1.05,2.71,1.32-1.55,.99-3.77,.55-5.6-1.74-6.06-5.29-11.44-8.83-16.59l1.15,.58c4.78,2.3,8.43,6.15,12.8,8.95,3.45,2.09,5.79,1.08,4.39-3.13-.64-1.92-1.87-3.62-3.15-5.23-3.96-4.81-9.04-8.61-14.41-11.75h0Z"/></g><g><path class="cls-19" d="M230.74,252.15l-3.57-40.34-21.81,1.13c-7.16-10.71-19.74-28.78-25.81-35.44-7.12-7.81-13.01-3.38-11.4,7.26,3.68,24.35,16.97,57.96,21.68,61.93,6.75,5.68,40.9,5.46,40.9,5.46Z"/><g><path class="cls-23" d="M223.73,247.75c-.68-2.44-1.79-12.87-2.04-15.47-.24-2.55-.89-13.06-1.14-15.73-.01-.15,.19-.21,.21-.06,.29,2.64,1.75,13.06,2.03,15.66,.27,2.6,1.26,13.01,1.08,15.58,0,.09-.11,.1-.14,.02Z"/><g><path class="cls-23" d="M216.15,251.76c-3.53-.21-7.06-.51-10.57-.91-5.2-.77-10.8-1.05-15.49-3.66-3.98-3.69-5.77-9-7.99-13.79-5.42-13.09-9.62-26.64-13.33-40.29,4.33,13.45,8.67,26.93,13.98,40.02,2.14,4.67,3.91,10.04,7.62,13.68,4.59,2.57,10.12,2.95,15.24,3.83,3.5,.47,7.02,.84,10.55,1.12h0Z"/><path class="cls-23" d="M170.43,198.93c-.79-1.08-1.53-2.25-1.81-3.56,.58,1.18,1.32,2.34,1.81,3.56h0Z"/></g><g><path class="cls-23" d="M187.47,187.44c6.19,8.12,11.47,16.91,17.69,25,.2,.2,.19,.31,.52,.31,2.74,.05,5.5-.16,8.25-.28l13.24-.66h.02v.02l.07,1.02-.11-1.02,.02,.02c-6.61,.59-13.21,1.13-19.85,1.37-.75-.05-1.49,.19-2.21-.14-3.83-4.56-6.9-9.73-10.28-14.63-2.16-3.2-5.13-7.93-7.37-11.01h0Z"/><path class="cls-23" d="M189.62,188.9c.66,1.16,1.26,2.42,1.38,3.76-.44-1.24-1.04-2.48-1.38-3.76h0Z"/></g></g></g></g></g></g></g></g><g id="Speech_Bubble"><g><g><path class="cls-1" d="M279.15,125.71c-1.52,14.56-14.56,25.13-29.12,23.6-5.88-.62-11.11-3.11-15.16-6.84l-13.26,1.95,6.63-11.46c-1.61-3.92-2.29-8.27-1.82-12.76,1.52-14.56,14.56-25.13,29.12-23.6,14.56,1.52,25.13,14.56,23.6,29.12Z"/><path class="cls-23" d="M279.15,125.71c-.55,4.84-2.32,9.58-5.35,13.43-.7,1.01-1.59,1.85-2.4,2.77-.92,.8-1.78,1.68-2.8,2.37-1.94,1.49-4.12,2.66-6.39,3.56-2.27,.95-4.7,1.41-7.14,1.7-1.23,.07-2.45,.18-3.68,.07-1.23-.03-2.46-.16-3.67-.38-4.85-.88-9.44-3.15-13.11-6.47l.31,.1-13.25,2.03-.96,.15,.49-.85,6.59-11.48-.03,.45c-3.21-7.56-2.49-16.57,1.63-23.62,2.05-3.53,4.92-6.57,8.3-8.84,3.38-2.27,7.3-3.7,11.31-4.24,4.02-.53,8.15-.17,11.98,1.11,3.83,1.29,7.34,3.46,10.22,6.27,5.85,5.56,8.79,13.91,7.93,21.89Zm0,0c.81-7.99-2.19-16.28-8.05-21.77-2.91-2.74-6.42-4.82-10.22-6.03-3.8-1.19-7.87-1.47-11.79-.88-3.91,.6-7.7,2.06-10.95,4.32-3.23,2.27-5.96,5.24-7.93,8.65-2.01,3.4-3.05,7.3-3.36,11.21-.25,3.93,.39,7.9,1.87,11.55l.1,.24-.13,.22-6.67,11.44-.47-.7,13.27-1.86,.18-.03,.13,.12c3.51,3.29,7.95,5.59,12.69,6.54,1.18,.24,2.39,.39,3.6,.44,1.21,.13,2.42,.04,3.63,0,2.4-.25,4.82-.65,7.08-1.56,2.27-.85,4.46-1.96,6.39-3.45,1.02-.68,1.88-1.54,2.8-2.34,.81-.9,1.71-1.74,2.41-2.74,3.04-3.82,4.84-8.54,5.43-13.37Z"/></g><g><path class="cls-23" d="M239.14,122.94c0,1.35,1.09,2.44,2.44,2.44s2.44-1.09,2.44-2.44-1.09-2.44-2.44-2.44-2.44,1.09-2.44,2.44Z"/><path class="cls-23" d="M250.84,122.94c0,1.35,1.09,2.44,2.44,2.44s2.44-1.09,2.44-2.44-1.09-2.44-2.44-2.44-2.44,1.09-2.44,2.44Z"/><path class="cls-23" d="M262.54,122.94c0,1.35,1.09,2.44,2.44,2.44s2.44-1.09,2.44-2.44-1.09-2.44-2.44-2.44-2.44,1.09-2.44,2.44Z"/></g></g></g></svg>