<?xml version="1.0" encoding="UTF-8"?><svg id="Character_3" xmlns="http://www.w3.org/2000/svg" viewBox="0 0 194.39 167.02"><defs><style>.cls-1{fill:#f0f0f0;}.cls-2,.cls-3,.cls-4,.cls-5{fill:#fff;}.cls-6{fill:#eec1bb;}.cls-7{fill:#fafafa;}.cls-8{fill:#f5f5f5;}.cls-9{fill:#e0e0e0;}.cls-10{fill:#de5753;}.cls-3{opacity:.1;}.cls-3,.cls-11,.cls-12{isolation:isolate;}.cls-11,.cls-4{opacity:.2;}.cls-13{fill:#ebebeb;}.cls-14{fill:#407bff;}.cls-15{fill:#d4827d;}.cls-5,.cls-12{opacity:.6;}.cls-16{fill:#263238;}</style></defs><g><rect class="cls-13" y="149.51" width="193.83" height=".1"/><rect class="cls-13" x="161.56" y="155.75" width="12.84" height=".1"/><rect class="cls-13" x="125.03" y="156.8" width="3.37" height=".1"/><rect class="cls-13" x="153.74" y="152.15" width="7.44" height=".1"/><rect class="cls-13" x="20.34" y="152.8" width="16.74" height=".1"/><rect class="cls-13" x="40.53" y="152.8" width="2.45" height=".1"/><rect class="cls-13" x="50.96" y="154.44" width="36.31" height=".1"/><path class="cls-13" d="M91.88,132.22H17.02c-1.22,0-2.21-.99-2.21-2.21V24.79c0-1.22,.99-2.21,2.21-2.21H91.88c1.22,0,2.21,.99,2.21,2.21v105.22c0,1.22-.99,2.21-2.21,2.21ZM17.02,22.67c-1.17,0-2.12,.95-2.12,2.12v105.22c0,1.17,.95,2.12,2.12,2.12H91.88c1.17,0,2.12-.95,2.12-2.12V24.79c0-1.17-.95-2.12-2.12-2.12H17.02Z"/><path class="cls-13" d="M175.73,132.22H100.87c-1.22,0-2.21-.99-2.21-2.21V24.79c0-1.22,.99-2.21,2.21-2.21h74.85c1.22,0,2.21,.99,2.21,2.21v105.22c0,1.22-.99,2.21-2.21,2.21ZM100.87,22.67c-1.17,0-2.12,.95-2.12,2.12v105.22c0,1.17,.95,2.12,2.12,2.12h74.85c1.17,0,2.12-.95,2.12-2.12V24.79c0-1.17-.95-2.12-2.12-2.12H100.87Z"/></g><path class="cls-1" d="M150.93,51.14c0-1.78-1.45-3.23-3.23-3.23-.32,0-.63,.05-.93,.14,.05-.32,.07-.65,.07-.99,0-3.78-3.06-6.84-6.84-6.84-.43,0-.85,.04-1.26,.12-1.05-1.72-2.94-2.87-5.1-2.87-3.27,0-5.93,2.63-5.98,5.89-.03,0-.07,0-.1,0-3.04,0-5.51,2.47-5.51,5.51s2.47,5.51,5.51,5.51h20.22c1.74-.05,3.14-1.48,3.14-3.23Z"/><path class="cls-7" d="M44.21,76.04c0-.7-.57-1.26-1.26-1.26-.13,0-.25,.02-.36,.05,.02-.13,.03-.26,.03-.39,0-1.48-1.2-2.67-2.67-2.67-.17,0-.33,.02-.49,.05-.41-.67-1.15-1.12-2-1.12-1.28,0-2.32,1.03-2.34,2.3-.01,0-.03,0-.04,0-1.19,0-2.15,.96-2.15,2.15s.96,2.15,2.15,2.15h7.91c.68-.02,1.23-.58,1.23-1.26Z"/><path class="cls-7" d="M127.65,63.88c0-.7-.57-1.26-1.26-1.26-.13,0-.25,.02-.36,.05,.02-.13,.03-.26,.03-.39,0-1.48-1.2-2.67-2.67-2.67-.17,0-.33,.02-.49,.05-.41-.67-1.15-1.12-2-1.12-1.28,0-2.32,1.03-2.34,2.3-.01,0-.03,0-.04,0-1.19,0-2.15,.96-2.15,2.15s.96,2.15,2.15,2.15h7.91c.68-.02,1.23-.58,1.23-1.26Z"/><g><polygon class="cls-9" points="23.79 150.13 23.79 131.9 25.35 131.9 25.35 123.22 27.63 123.22 27.63 93.02 30.92 93.02 30.92 89.13 38.93 89.05 38.93 93.02 40.29 93.02 40.29 123.22 41.66 123.22 41.66 107.34 45.36 107.34 45.36 106.26 46.39 106.26 46.39 123.22 49.2 123.22 49.2 114.06 51.05 114.06 51.05 111.73 55.34 111.73 55.34 103.74 57.69 103.74 57.69 98.09 60.57 98.09 61.6 98.09 64.49 98.09 64.49 103.74 66.83 103.74 66.83 111.73 71.12 111.73 71.12 114.06 72.97 114.06 72.97 123.22 75.16 123.22 75.16 111.73 79.45 111.73 79.45 86.99 80.81 86.99 89.97 86.99 91.92 86.99 91.92 104.91 99.71 104.91 99.71 106.66 99.71 108.02 99.71 115.04 107.89 115.04 107.89 91.66 109.65 91.66 109.65 67.56 113.44 67.56 113.44 66.66 114.52 66.66 114.52 67.56 117.24 67.56 117.24 91.66 133.23 91.66 133.23 90.03 134.21 90.03 134.21 101.13 135.57 101.13 135.57 101.32 136.39 101.32 136.39 112.43 137.75 112.43 137.75 115.45 140.64 115.45 140.77 126.75 142.82 126.75 143.85 126.62 143.85 131.33 144.48 131.33 144.48 122.17 146.33 122.17 146.33 119.83 150.62 119.83 150.62 100.64 152.96 100.64 152.96 94.99 155.85 94.99 155.85 93.76 156.88 93.76 156.88 94.99 159.76 94.99 159.76 100.64 162.11 100.64 162.11 119.83 166.4 119.83 166.4 122.17 168.25 122.17 168.25 131.13 168.58 131.13 168.58 131.33 169.49 131.33 169.49 150.13 23.79 150.13"/><g><rect class="cls-7" x="123.21" y="92.75" width="1.1" height="1.1"/><rect class="cls-7" x="123.21" y="94.6" width="1.1" height="1.1"/><rect class="cls-7" x="123.21" y="102.01" width="1.1" height="1.1"/><rect class="cls-7" x="123.21" y="103.86" width="1.1" height="1.1"/><rect class="cls-7" x="123.21" y="105.71" width="1.1" height="1.1"/><rect class="cls-7" x="123.21" y="111.26" width="1.1" height="1.1"/><rect class="cls-7" x="123.21" y="113.11" width="1.1" height="1.1"/><rect class="cls-7" x="121.45" y="100.16" width="1.1" height="1.1"/><rect class="cls-7" x="121.45" y="102.01" width="1.1" height="1.1"/><rect class="cls-7" x="121.45" y="103.86" width="1.1" height="1.1"/><rect class="cls-7" x="121.45" y="105.71" width="1.1" height="1.1"/><rect class="cls-7" x="121.45" y="107.56" width="1.1" height="1.1"/><rect class="cls-7" x="121.45" y="111.26" width="1.1" height="1.1"/><rect class="cls-7" x="121.45" y="113.11" width="1.1" height="1.1"/><rect class="cls-7" x="119.7" y="92.75" width="1.1" height="1.1"/><rect class="cls-7" x="119.7" y="94.6" width="1.1" height="1.1"/><rect class="cls-7" x="119.7" y="96.45" width="1.1" height="1.1"/><rect class="cls-7" x="119.7" y="98.31" width="1.1" height="1.1"/><rect class="cls-7" x="119.7" y="100.16" width="1.1" height="1.1"/><rect class="cls-7" x="119.7" y="102.01" width="1.1" height="1.1"/><rect class="cls-7" x="119.7" y="103.86" width="1.1" height="1.1"/><rect class="cls-7" x="119.7" y="105.71" width="1.1" height="1.1"/><rect class="cls-7" x="119.7" y="107.56" width="1.1" height="1.1"/><rect class="cls-7" x="119.7" y="109.41" width="1.1" height="1.1"/><rect class="cls-7" x="119.7" y="113.11" width="1.1" height="1.1"/><rect class="cls-7" x="117.95" y="92.75" width="1.1" height="1.1"/><rect class="cls-7" x="117.95" y="94.6" width="1.1" height="1.1"/><rect class="cls-7" x="117.95" y="96.45" width="1.1" height="1.1"/><rect class="cls-7" x="117.95" y="98.31" width="1.1" height="1.1"/><rect class="cls-7" x="117.95" y="100.16" width="1.1" height="1.1"/><rect class="cls-7" x="117.95" y="102.01" width="1.1" height="1.1"/><rect class="cls-7" x="117.95" y="103.86" width="1.1" height="1.1"/><rect class="cls-7" x="117.95" y="120.51" width="1.1" height="1.1"/><rect class="cls-7" x="116.19" y="92.75" width="1.1" height="1.1"/><rect class="cls-7" x="116.19" y="94.6" width="1.1" height="1.1"/><rect class="cls-7" x="116.19" y="96.45" width="1.1" height="1.1"/><rect class="cls-7" x="116.19" y="98.31" width="1.1" height="1.1"/><rect class="cls-7" x="116.19" y="100.16" width="1.1" height="1.1"/><rect class="cls-7" x="116.19" y="102.01" width="1.1" height="1.1"/><rect class="cls-7" x="116.19" y="103.86" width="1.1" height="1.1"/><rect class="cls-7" x="116.19" y="105.71" width="1.1" height="1.1"/><rect class="cls-7" x="116.19" y="116.81" width="1.1" height="1.1"/><rect class="cls-7" x="116.19" y="118.66" width="1.1" height="1.1"/><rect class="cls-7" x="116.19" y="120.51" width="1.1" height="1.1"/><rect class="cls-7" x="116.19" y="122.36" width="1.1" height="1.1"/><rect class="cls-7" x="116.19" y="129.77" width="1.1" height="1.1"/><rect class="cls-7" x="114.44" y="92.75" width="1.1" height="1.1"/><rect class="cls-7" x="114.44" y="94.6" width="1.1" height="1.1"/><rect class="cls-7" x="114.44" y="96.45" width="1.1" height="1.1"/><rect class="cls-7" x="114.44" y="98.31" width="1.1" height="1.1"/><rect class="cls-7" x="114.44" y="100.16" width="1.1" height="1.1"/><rect class="cls-7" x="114.44" y="102.01" width="1.1" height="1.1"/><rect class="cls-7" x="114.44" y="103.86" width="1.1" height="1.1"/><rect class="cls-7" x="114.44" y="105.71" width="1.1" height="1.1"/><rect class="cls-7" x="114.44" y="107.56" width="1.1" height="1.1"/><rect class="cls-7" x="114.44" y="109.41" width="1.1" height="1.1"/><rect class="cls-7" x="114.44" y="114.96" width="1.1" height="1.1"/><rect class="cls-7" x="114.44" y="116.81" width="1.1" height="1.1"/><rect class="cls-7" x="114.44" y="118.66" width="1.1" height="1.1"/><rect class="cls-7" x="114.44" y="120.51" width="1.1" height="1.1"/><rect class="cls-7" x="114.44" y="122.36" width="1.1" height="1.1"/><rect class="cls-7" x="114.44" y="129.77" width="1.1" height="1.1"/><rect class="cls-7" x="112.69" y="92.75" width="1.1" height="1.1"/><rect class="cls-7" x="112.69" y="94.6" width="1.1" height="1.1"/><rect class="cls-7" x="112.69" y="96.45" width="1.1" height="1.1"/><rect class="cls-7" x="112.69" y="98.31" width="1.1" height="1.1"/><rect class="cls-7" x="112.69" y="100.16" width="1.1" height="1.1"/><rect class="cls-7" x="112.69" y="102.01" width="1.1" height="1.1"/><rect class="cls-7" x="112.69" y="103.86" width="1.1" height="1.1"/><rect class="cls-7" x="112.69" y="105.71" width="1.1" height="1.1"/><rect class="cls-7" x="112.69" y="107.56" width="1.1" height="1.1"/><rect class="cls-7" x="112.69" y="109.41" width="1.1" height="1.1"/><rect class="cls-7" x="112.69" y="111.26" width="1.1" height="1.1"/><rect class="cls-7" x="112.69" y="113.11" width="1.1" height="1.1"/><rect class="cls-7" x="112.69" y="114.96" width="1.1" height="1.1"/><rect class="cls-7" x="112.69" y="116.81" width="1.1" height="1.1"/><rect class="cls-7" x="112.69" y="118.66" width="1.1" height="1.1"/><rect class="cls-7" x="112.69" y="120.51" width="1.1" height="1.1"/><rect class="cls-7" x="112.69" y="122.36" width="1.1" height="1.1"/><rect class="cls-7" x="112.69" y="124.22" width="1.1" height="1.1"/><rect class="cls-7" x="110.93" y="92.75" width="1.1" height="1.1"/><rect class="cls-7" x="110.93" y="94.6" width="1.1" height="1.1"/><rect class="cls-7" x="110.93" y="96.45" width="1.1" height="1.1"/><rect class="cls-7" x="110.93" y="98.31" width="1.1" height="1.1"/><rect class="cls-7" x="110.93" y="100.16" width="1.1" height="1.1"/><rect class="cls-7" x="110.93" y="102.01" width="1.1" height="1.1"/><rect class="cls-7" x="110.93" y="103.86" width="1.1" height="1.1"/><rect class="cls-7" x="110.93" y="105.71" width="1.1" height="1.1"/><rect class="cls-7" x="110.93" y="107.56" width="1.1" height="1.1"/><rect class="cls-7" x="110.93" y="109.41" width="1.1" height="1.1"/><rect class="cls-7" x="110.93" y="114.96" width="1.1" height="1.1"/><rect class="cls-7" x="110.93" y="116.81" width="1.1" height="1.1"/><rect class="cls-7" x="110.93" y="118.66" width="1.1" height="1.1"/><rect class="cls-7" x="110.93" y="120.51" width="1.1" height="1.1"/><rect class="cls-7" x="109.18" y="92.75" width="1.1" height="1.1"/><rect class="cls-7" x="109.18" y="94.6" width="1.1" height="1.1"/><rect class="cls-7" x="109.18" y="96.45" width="1.1" height="1.1"/><rect class="cls-7" x="109.18" y="98.31" width="1.1" height="1.1"/><rect class="cls-7" x="109.18" y="100.16" width="1.1" height="1.1"/><rect class="cls-7" x="109.18" y="102.01" width="1.1" height="1.1"/><rect class="cls-7" x="109.18" y="103.86" width="1.1" height="1.1"/><rect class="cls-7" x="109.18" y="105.71" width="1.1" height="1.1"/><rect class="cls-7" x="109.18" y="107.56" width="1.1" height="1.1"/><rect class="cls-7" x="109.18" y="109.41" width="1.1" height="1.1"/><rect class="cls-7" x="109.18" y="114.96" width="1.1" height="1.1"/><rect class="cls-7" x="109.18" y="116.81" width="1.1" height="1.1"/><rect class="cls-7" x="109.18" y="118.66" width="1.1" height="1.1"/><rect class="cls-7" x="89.44" y="87.95" width="1.1" height="1.1"/><rect class="cls-7" x="89.44" y="89.8" width="1.1" height="1.1"/><rect class="cls-7" x="89.44" y="91.65" width="1.1" height="1.1"/><rect class="cls-7" x="89.44" y="93.5" width="1.1" height="1.1"/><rect class="cls-7" x="89.44" y="95.35" width="1.1" height="1.1"/><rect class="cls-7" x="89.44" y="97.2" width="1.1" height="1.1"/><rect class="cls-7" x="89.44" y="99.05" width="1.1" height="1.1"/><rect class="cls-7" x="89.44" y="100.9" width="1.1" height="1.1"/><rect class="cls-7" x="89.44" y="106.45" width="1.1" height="1.1"/><rect class="cls-7" x="89.44" y="108.31" width="1.1" height="1.1"/><rect class="cls-7" x="87.69" y="87.95" width="1.1" height="1.1"/><rect class="cls-7" x="87.69" y="89.8" width="1.1" height="1.1"/><rect class="cls-7" x="87.69" y="91.65" width="1.1" height="1.1"/><rect class="cls-7" x="87.69" y="93.5" width="1.1" height="1.1"/><rect class="cls-7" x="87.69" y="95.35" width="1.1" height="1.1"/><rect class="cls-7" x="87.69" y="97.2" width="1.1" height="1.1"/><rect class="cls-7" x="87.69" y="99.05" width="1.1" height="1.1"/><rect class="cls-7" x="87.69" y="100.9" width="1.1" height="1.1"/><rect class="cls-7" x="87.69" y="108.31" width="1.1" height="1.1"/><rect class="cls-7" x="85.93" y="87.95" width="1.1" height="1.1"/><rect class="cls-7" x="85.93" y="89.8" width="1.1" height="1.1"/><rect class="cls-7" x="85.93" y="91.65" width="1.1" height="1.1"/><rect class="cls-7" x="85.93" y="93.5" width="1.1" height="1.1"/><rect class="cls-7" x="85.93" y="95.35" width="1.1" height="1.1"/><rect class="cls-7" x="85.93" y="97.2" width="1.1" height="1.1"/><rect class="cls-7" x="85.93" y="99.05" width="1.1" height="1.1"/><rect class="cls-7" x="85.93" y="100.9" width="1.1" height="1.1"/><rect class="cls-7" x="84.18" y="87.95" width="1.1" height="1.1"/><rect class="cls-7" x="84.18" y="89.8" width="1.1" height="1.1"/><rect class="cls-7" x="84.18" y="91.65" width="1.1" height="1.1"/><rect class="cls-7" x="84.18" y="93.5" width="1.1" height="1.1"/><rect class="cls-7" x="84.18" y="95.35" width="1.1" height="1.1"/><rect class="cls-7" x="84.18" y="97.2" width="1.1" height="1.1"/><rect class="cls-7" x="84.18" y="100.9" width="1.1" height="1.1"/><rect class="cls-7" x="84.18" y="102.75" width="1.1" height="1.1"/><rect class="cls-7" x="84.18" y="108.31" width="1.1" height="1.1"/><rect class="cls-7" x="84.18" y="110.16" width="1.1" height="1.1"/><rect class="cls-7" x="84.18" y="112.01" width="1.1" height="1.1"/><rect class="cls-7" x="84.18" y="113.86" width="1.1" height="1.1"/><rect class="cls-7" x="84.18" y="115.71" width="1.1" height="1.1"/><rect class="cls-7" x="84.18" y="117.56" width="1.1" height="1.1"/><rect class="cls-7" x="84.18" y="119.41" width="1.1" height="1.1"/><rect class="cls-7" x="82.43" y="87.95" width="1.1" height="1.1"/><rect class="cls-7" x="82.43" y="89.8" width="1.1" height="1.1"/><rect class="cls-7" x="82.43" y="91.65" width="1.1" height="1.1"/><rect class="cls-7" x="82.43" y="93.5" width="1.1" height="1.1"/><rect class="cls-7" x="82.43" y="95.35" width="1.1" height="1.1"/><rect class="cls-7" x="82.43" y="97.2" width="1.1" height="1.1"/><rect class="cls-7" x="82.43" y="102.75" width="1.1" height="1.1"/><rect class="cls-7" x="82.43" y="104.6" width="1.1" height="1.1"/><rect class="cls-7" x="82.43" y="106.45" width="1.1" height="1.1"/><rect class="cls-7" x="82.43" y="108.31" width="1.1" height="1.1"/><rect class="cls-7" x="82.43" y="110.16" width="1.1" height="1.1"/><rect class="cls-7" x="82.43" y="112.01" width="1.1" height="1.1"/><rect class="cls-7" x="82.43" y="113.86" width="1.1" height="1.1"/><rect class="cls-7" x="82.43" y="115.71" width="1.1" height="1.1"/><rect class="cls-7" x="82.43" y="117.56" width="1.1" height="1.1"/><rect class="cls-7" x="82.43" y="119.41" width="1.1" height="1.1"/><rect class="cls-7" x="82.43" y="121.26" width="1.1" height="1.1"/><rect class="cls-7" x="82.43" y="124.96" width="1.1" height="1.1"/><rect class="cls-7" x="80.67" y="87.95" width="1.1" height="1.1"/><rect class="cls-7" x="80.67" y="89.8" width="1.1" height="1.1"/><rect class="cls-7" x="80.67" y="91.65" width="1.1" height="1.1"/><rect class="cls-7" x="80.67" y="93.5" width="1.1" height="1.1"/><rect class="cls-7" x="80.67" y="95.35" width="1.1" height="1.1"/><rect class="cls-7" x="80.67" y="97.2" width="1.1" height="1.1"/><rect class="cls-7" x="80.67" y="102.75" width="1.1" height="1.1"/><rect class="cls-7" x="80.67" y="104.6" width="1.1" height="1.1"/><rect class="cls-7" x="80.67" y="106.45" width="1.1" height="1.1"/><rect class="cls-7" x="80.67" y="108.31" width="1.1" height="1.1"/><rect class="cls-7" x="80.67" y="113.86" width="1.1" height="1.1"/><rect class="cls-7" x="80.67" y="115.71" width="1.1" height="1.1"/><rect class="cls-7" x="80.67" y="117.56" width="1.1" height="1.1"/><rect class="cls-7" x="80.67" y="119.41" width="1.1" height="1.1"/><rect class="cls-7" x="80.67" y="121.26" width="1.1" height="1.1"/><rect class="cls-7" x="80.67" y="124.96" width="1.1" height="1.1"/><rect class="cls-7" x="80.67" y="126.81" width="1.1" height="1.1"/><rect class="cls-7" x="64.76" y="105.16" width="1.1" height="1.1"/><rect class="cls-7" x="64.76" y="107.01" width="1.1" height="1.1"/><rect class="cls-7" x="64.76" y="108.86" width="1.1" height="1.1"/><rect class="cls-7" x="64.76" y="110.71" width="1.1" height="1.1"/><rect class="cls-7" x="64.76" y="112.56" width="1.1" height="1.1"/><rect class="cls-7" x="64.76" y="114.41" width="1.1" height="1.1"/><rect class="cls-7" x="64.76" y="116.26" width="1.1" height="1.1"/><rect class="cls-7" x="64.76" y="121.81" width="1.1" height="1.1"/><rect class="cls-7" x="64.76" y="123.66" width="1.1" height="1.1"/><rect class="cls-7" x="64.76" y="125.51" width="1.1" height="1.1"/><rect class="cls-7" x="63.01" y="105.16" width="1.1" height="1.1"/><rect class="cls-7" x="63.01" y="107.01" width="1.1" height="1.1"/><rect class="cls-7" x="63.01" y="108.86" width="1.1" height="1.1"/><rect class="cls-7" x="63.01" y="110.71" width="1.1" height="1.1"/><rect class="cls-7" x="63.01" y="112.56" width="1.1" height="1.1"/><rect class="cls-7" x="63.01" y="114.41" width="1.1" height="1.1"/><rect class="cls-7" x="63.01" y="116.26" width="1.1" height="1.1"/><rect class="cls-7" x="61.26" y="105.16" width="1.1" height="1.1"/><rect class="cls-7" x="61.26" y="107.01" width="1.1" height="1.1"/><rect class="cls-7" x="61.26" y="108.86" width="1.1" height="1.1"/><rect class="cls-7" x="61.26" y="110.71" width="1.1" height="1.1"/><rect class="cls-7" x="61.26" y="112.56" width="1.1" height="1.1"/><rect class="cls-7" x="61.26" y="114.41" width="1.1" height="1.1"/><rect class="cls-7" x="61.26" y="116.26" width="1.1" height="1.1"/><rect class="cls-7" x="59.5" y="105.16" width="1.1" height="1.1"/><rect class="cls-7" x="59.5" y="107.01" width="1.1" height="1.1"/><rect class="cls-7" x="59.5" y="108.86" width="1.1" height="1.1"/><rect class="cls-7" x="59.5" y="110.71" width="1.1" height="1.1"/><rect class="cls-7" x="59.5" y="112.56" width="1.1" height="1.1"/><rect class="cls-7" x="59.5" y="114.41" width="1.1" height="1.1"/><rect class="cls-7" x="59.5" y="116.26" width="1.1" height="1.1"/><rect class="cls-7" x="59.5" y="118.11" width="1.1" height="1.1"/><rect class="cls-7" x="59.5" y="119.96" width="1.1" height="1.1"/><rect class="cls-7" x="59.5" y="121.81" width="1.1" height="1.1"/><rect class="cls-7" x="59.5" y="123.66" width="1.1" height="1.1"/><rect class="cls-7" x="57.75" y="105.16" width="1.1" height="1.1"/><rect class="cls-7" x="57.75" y="107.01" width="1.1" height="1.1"/><rect class="cls-7" x="57.75" y="108.86" width="1.1" height="1.1"/><rect class="cls-7" x="57.75" y="110.71" width="1.1" height="1.1"/><rect class="cls-7" x="57.75" y="112.56" width="1.1" height="1.1"/><rect class="cls-7" x="57.75" y="114.41" width="1.1" height="1.1"/><rect class="cls-7" x="57.75" y="116.26" width="1.1" height="1.1"/><rect class="cls-7" x="57.75" y="118.11" width="1.1" height="1.1"/><rect class="cls-7" x="57.75" y="119.96" width="1.1" height="1.1"/><rect class="cls-7" x="57.75" y="121.81" width="1.1" height="1.1"/><rect class="cls-7" x="57.75" y="123.66" width="1.1" height="1.1"/><rect class="cls-7" x="57.75" y="125.51" width="1.1" height="1.1"/><rect class="cls-7" x="57.75" y="131.07" width="1.1" height="1.1"/><rect class="cls-7" x="57.75" y="132.92" width="1.1" height="1.1"/><rect class="cls-7" x="56" y="105.16" width="1.1" height="1.1"/><rect class="cls-7" x="56" y="107.01" width="1.1" height="1.1"/><rect class="cls-7" x="56" y="108.86" width="1.1" height="1.1"/><rect class="cls-7" x="56" y="114.41" width="1.1" height="1.1"/><rect class="cls-7" x="56" y="116.26" width="1.1" height="1.1"/><rect class="cls-7" x="56" y="118.11" width="1.1" height="1.1"/><rect class="cls-7" x="56" y="119.96" width="1.1" height="1.1"/><rect class="cls-7" x="56" y="121.81" width="1.1" height="1.1"/><rect class="cls-7" x="56" y="123.66" width="1.1" height="1.1"/><rect class="cls-7" x="56" y="125.51" width="1.1" height="1.1"/><rect class="cls-7" x="56" y="131.07" width="1.1" height="1.1"/><rect class="cls-7" x="56" y="132.92" width="1.1" height="1.1"/><rect class="cls-7" x="56" y="134.77" width="1.1" height="1.1"/><rect class="cls-7" x="37.62" y="94.05" width="1.1" height="1.1"/><rect class="cls-7" x="37.62" y="95.9" width="1.1" height="1.1"/><rect class="cls-7" x="37.62" y="97.75" width="1.1" height="1.1"/><rect class="cls-7" x="37.62" y="99.6" width="1.1" height="1.1"/><rect class="cls-7" x="37.62" y="101.45" width="1.1" height="1.1"/><rect class="cls-7" x="37.62" y="103.31" width="1.1" height="1.1"/><rect class="cls-7" x="37.62" y="105.16" width="1.1" height="1.1"/><rect class="cls-7" x="37.62" y="107.01" width="1.1" height="1.1"/><rect class="cls-7" x="37.62" y="108.86" width="1.1" height="1.1"/><rect class="cls-7" x="37.62" y="110.71" width="1.1" height="1.1"/><rect class="cls-7" x="37.62" y="112.56" width="1.1" height="1.1"/><rect class="cls-7" x="37.62" y="114.41" width="1.1" height="1.1"/><rect class="cls-7" x="37.62" y="116.26" width="1.1" height="1.1"/><rect class="cls-7" x="37.62" y="118.11" width="1.1" height="1.1"/><rect class="cls-7" x="37.62" y="119.96" width="1.1" height="1.1"/><rect class="cls-7" x="37.62" y="121.81" width="1.1" height="1.1"/><rect class="cls-7" x="37.62" y="123.66" width="1.1" height="1.1"/><rect class="cls-7" x="37.62" y="125.51" width="1.1" height="1.1"/><rect class="cls-7" x="37.62" y="127.36" width="1.1" height="1.1"/><rect class="cls-7" x="37.62" y="129.22" width="1.1" height="1.1"/><rect class="cls-7" x="37.62" y="131.07" width="1.1" height="1.1"/><rect class="cls-7" x="37.62" y="132.92" width="1.1" height="1.1"/><rect class="cls-7" x="37.62" y="134.77" width="1.1" height="1.1"/><rect class="cls-7" x="35.87" y="94.05" width="1.1" height="1.1"/><rect class="cls-7" x="35.87" y="95.9" width="1.1" height="1.1"/><rect class="cls-7" x="35.87" y="97.75" width="1.1" height="1.1"/><rect class="cls-7" x="35.87" y="99.6" width="1.1" height="1.1"/><rect class="cls-7" x="35.87" y="101.45" width="1.1" height="1.1"/><rect class="cls-7" x="35.87" y="103.31" width="1.1" height="1.1"/><rect class="cls-7" x="35.87" y="105.16" width="1.1" height="1.1"/><rect class="cls-7" x="35.87" y="107.01" width="1.1" height="1.1"/><rect class="cls-7" x="35.87" y="108.86" width="1.1" height="1.1"/><rect class="cls-7" x="35.87" y="110.71" width="1.1" height="1.1"/><rect class="cls-7" x="35.87" y="112.56" width="1.1" height="1.1"/><rect class="cls-7" x="35.87" y="114.41" width="1.1" height="1.1"/><rect class="cls-7" x="35.87" y="116.26" width="1.1" height="1.1"/><rect class="cls-7" x="35.87" y="118.11" width="1.1" height="1.1"/><rect class="cls-7" x="35.87" y="119.96" width="1.1" height="1.1"/><rect class="cls-7" x="35.87" y="121.81" width="1.1" height="1.1"/><rect class="cls-7" x="35.87" y="123.66" width="1.1" height="1.1"/><rect class="cls-7" x="35.87" y="125.51" width="1.1" height="1.1"/><rect class="cls-7" x="35.87" y="127.36" width="1.1" height="1.1"/><rect class="cls-7" x="34.11" y="94.05" width="1.1" height="1.1"/><rect class="cls-7" x="34.11" y="95.9" width="1.1" height="1.1"/><rect class="cls-7" x="34.11" y="97.75" width="1.1" height="1.1"/><rect class="cls-7" x="34.11" y="99.6" width="1.1" height="1.1"/><rect class="cls-7" x="34.11" y="101.45" width="1.1" height="1.1"/><rect class="cls-7" x="34.11" y="103.31" width="1.1" height="1.1"/><rect class="cls-7" x="34.11" y="105.16" width="1.1" height="1.1"/><rect class="cls-7" x="34.11" y="107.01" width="1.1" height="1.1"/><rect class="cls-7" x="34.11" y="108.86" width="1.1" height="1.1"/><rect class="cls-7" x="34.11" y="110.71" width="1.1" height="1.1"/><rect class="cls-7" x="34.11" y="112.56" width="1.1" height="1.1"/><rect class="cls-7" x="34.11" y="114.41" width="1.1" height="1.1"/><rect class="cls-7" x="34.11" y="116.26" width="1.1" height="1.1"/><rect class="cls-7" x="34.11" y="118.11" width="1.1" height="1.1"/><rect class="cls-7" x="34.11" y="119.96" width="1.1" height="1.1"/><rect class="cls-7" x="34.11" y="121.81" width="1.1" height="1.1"/><rect class="cls-7" x="34.11" y="123.66" width="1.1" height="1.1"/><rect class="cls-7" x="34.11" y="125.51" width="1.1" height="1.1"/><rect class="cls-7" x="34.11" y="127.36" width="1.1" height="1.1"/><rect class="cls-7" x="32.36" y="94.05" width="1.1" height="1.1"/><rect class="cls-7" x="32.36" y="95.9" width="1.1" height="1.1"/><rect class="cls-7" x="32.36" y="97.75" width="1.1" height="1.1"/><rect class="cls-7" x="32.36" y="99.6" width="1.1" height="1.1"/><rect class="cls-7" x="32.36" y="101.45" width="1.1" height="1.1"/><rect class="cls-7" x="32.36" y="103.31" width="1.1" height="1.1"/><rect class="cls-7" x="32.36" y="105.16" width="1.1" height="1.1"/><rect class="cls-7" x="32.36" y="107.01" width="1.1" height="1.1"/><rect class="cls-7" x="32.36" y="108.86" width="1.1" height="1.1"/><rect class="cls-7" x="32.36" y="110.71" width="1.1" height="1.1"/><rect class="cls-7" x="32.36" y="112.56" width="1.1" height="1.1"/><rect class="cls-7" x="32.36" y="114.41" width="1.1" height="1.1"/><rect class="cls-7" x="32.36" y="116.26" width="1.1" height="1.1"/><rect class="cls-7" x="32.36" y="118.11" width="1.1" height="1.1"/><rect class="cls-7" x="32.36" y="119.96" width="1.1" height="1.1"/><rect class="cls-7" x="30.61" y="94.05" width="1.1" height="1.1"/><rect class="cls-7" x="30.61" y="95.9" width="1.1" height="1.1"/><rect class="cls-7" x="30.61" y="97.75" width="1.1" height="1.1"/><rect class="cls-7" x="30.61" y="99.6" width="1.1" height="1.1"/><rect class="cls-7" x="30.61" y="101.45" width="1.1" height="1.1"/><rect class="cls-7" x="30.61" y="103.31" width="1.1" height="1.1"/><rect class="cls-7" x="30.61" y="105.16" width="1.1" height="1.1"/><rect class="cls-7" x="30.61" y="107.01" width="1.1" height="1.1"/><rect class="cls-7" x="30.61" y="108.86" width="1.1" height="1.1"/><rect class="cls-7" x="30.61" y="110.71" width="1.1" height="1.1"/><rect class="cls-7" x="30.61" y="112.56" width="1.1" height="1.1"/><rect class="cls-7" x="30.61" y="114.41" width="1.1" height="1.1"/><rect class="cls-7" x="30.61" y="116.26" width="1.1" height="1.1"/><rect class="cls-7" x="28.85" y="94.05" width="1.1" height="1.1"/><rect class="cls-7" x="28.85" y="95.9" width="1.1" height="1.1"/><rect class="cls-7" x="28.85" y="97.75" width="1.1" height="1.1"/><rect class="cls-7" x="28.85" y="99.6" width="1.1" height="1.1"/><rect class="cls-7" x="28.85" y="101.45" width="1.1" height="1.1"/><rect class="cls-7" x="28.85" y="103.31" width="1.1" height="1.1"/><rect class="cls-7" x="28.85" y="105.16" width="1.1" height="1.1"/><rect class="cls-7" x="28.85" y="107.01" width="1.1" height="1.1"/><rect class="cls-7" x="28.85" y="108.86" width="1.1" height="1.1"/><rect class="cls-7" x="28.85" y="110.71" width="1.1" height="1.1"/><rect class="cls-7" x="28.85" y="112.56" width="1.1" height="1.1"/><rect class="cls-7" x="28.85" y="114.41" width="1.1" height="1.1"/><rect class="cls-7" x="157.69" y="107.56" width="1.1" height="1.1"/><rect class="cls-7" x="157.69" y="109.41" width="1.1" height="1.1"/><rect class="cls-7" x="157.69" y="111.26" width="1.1" height="1.1"/><rect class="cls-7" x="157.69" y="113.11" width="1.1" height="1.1"/><rect class="cls-7" x="157.69" y="114.96" width="1.1" height="1.1"/><rect class="cls-7" x="157.69" y="116.81" width="1.1" height="1.1"/><rect class="cls-7" x="157.69" y="118.66" width="1.1" height="1.1"/><rect class="cls-7" x="157.69" y="120.51" width="1.1" height="1.1"/><rect class="cls-7" x="157.69" y="122.36" width="1.1" height="1.1"/><rect class="cls-7" x="157.69" y="124.22" width="1.1" height="1.1"/><rect class="cls-7" x="157.69" y="126.07" width="1.1" height="1.1"/><rect class="cls-7" x="157.69" y="127.92" width="1.1" height="1.1"/><rect class="cls-7" x="157.69" y="129.77" width="1.1" height="1.1"/><rect class="cls-7" x="157.69" y="131.62" width="1.1" height="1.1"/><rect class="cls-7" x="157.69" y="133.47" width="1.1" height="1.1"/><rect class="cls-7" x="157.69" y="135.32" width="1.1" height="1.1"/><rect class="cls-7" x="157.69" y="137.17" width="1.1" height="1.1"/><rect class="cls-7" x="157.69" y="139.02" width="1.1" height="1.1"/><rect class="cls-7" x="157.69" y="140.87" width="1.1" height="1.1"/><rect class="cls-7" x="157.69" y="142.72" width="1.1" height="1.1"/><rect class="cls-7" x="155.94" y="107.56" width="1.1" height="1.1"/><rect class="cls-7" x="155.94" y="109.41" width="1.1" height="1.1"/><rect class="cls-7" x="155.94" y="111.26" width="1.1" height="1.1"/><rect class="cls-7" x="155.94" y="113.11" width="1.1" height="1.1"/><rect class="cls-7" x="155.94" y="114.96" width="1.1" height="1.1"/><rect class="cls-7" x="155.94" y="116.81" width="1.1" height="1.1"/><rect class="cls-7" x="155.94" y="118.66" width="1.1" height="1.1"/><rect class="cls-7" x="155.94" y="120.51" width="1.1" height="1.1"/><rect class="cls-7" x="155.94" y="122.36" width="1.1" height="1.1"/><rect class="cls-7" x="155.94" y="124.22" width="1.1" height="1.1"/><rect class="cls-7" x="155.94" y="126.07" width="1.1" height="1.1"/><rect class="cls-7" x="155.94" y="127.92" width="1.1" height="1.1"/><rect class="cls-7" x="155.94" y="129.77" width="1.1" height="1.1"/><rect class="cls-7" x="155.94" y="131.62" width="1.1" height="1.1"/><rect class="cls-7" x="155.94" y="133.47" width="1.1" height="1.1"/><rect class="cls-7" x="155.94" y="135.32" width="1.1" height="1.1"/><rect class="cls-7" x="155.94" y="137.17" width="1.1" height="1.1"/><rect class="cls-7" x="155.94" y="139.02" width="1.1" height="1.1"/><rect class="cls-7" x="154.18" y="107.56" width="1.1" height="1.1"/><rect class="cls-7" x="154.18" y="109.41" width="1.1" height="1.1"/><rect class="cls-7" x="154.18" y="111.26" width="1.1" height="1.1"/><rect class="cls-7" x="154.18" y="113.11" width="1.1" height="1.1"/><rect class="cls-7" x="154.18" y="114.96" width="1.1" height="1.1"/><rect class="cls-7" x="154.18" y="116.81" width="1.1" height="1.1"/><rect class="cls-7" x="154.18" y="118.66" width="1.1" height="1.1"/><rect class="cls-7" x="154.18" y="120.51" width="1.1" height="1.1"/><rect class="cls-7" x="154.18" y="122.36" width="1.1" height="1.1"/><rect class="cls-7" x="154.18" y="124.22" width="1.1" height="1.1"/><rect class="cls-7" x="154.18" y="126.07" width="1.1" height="1.1"/><rect class="cls-7" x="154.18" y="127.92" width="1.1" height="1.1"/><rect class="cls-7" x="154.18" y="129.77" width="1.1" height="1.1"/><rect class="cls-7" x="154.18" y="131.62" width="1.1" height="1.1"/><rect class="cls-7" x="154.18" y="133.47" width="1.1" height="1.1"/><rect class="cls-7" x="154.18" y="135.32" width="1.1" height="1.1"/><rect class="cls-7" x="154.18" y="137.17" width="1.1" height="1.1"/><rect class="cls-7" x="154.18" y="139.02" width="1.1" height="1.1"/><rect class="cls-7" x="164.25" y="121.07" width="1.1" height="1.1"/><rect class="cls-7" x="164.25" y="122.92" width="1.1" height="1.1"/><rect class="cls-7" x="164.25" y="124.77" width="1.1" height="1.1"/><rect class="cls-7" x="164.25" y="126.62" width="1.1" height="1.1"/><rect class="cls-7" x="164.25" y="128.47" width="1.1" height="1.1"/><rect class="cls-7" x="164.25" y="130.32" width="1.1" height="1.1"/><rect class="cls-7" x="164.25" y="132.17" width="1.1" height="1.1"/><rect class="cls-7" x="164.25" y="134.02" width="1.1" height="1.1"/><rect class="cls-7" x="164.25" y="135.87" width="1.1" height="1.1"/><rect class="cls-7" x="164.25" y="137.72" width="1.1" height="1.1"/><rect class="cls-7" x="164.25" y="139.57" width="1.1" height="1.1"/><rect class="cls-7" x="164.25" y="141.42" width="1.1" height="1.1"/><rect class="cls-7" x="164.25" y="143.27" width="1.1" height="1.1"/><rect class="cls-7" x="162.49" y="121.07" width="1.1" height="1.1"/><rect class="cls-7" x="162.49" y="122.92" width="1.1" height="1.1"/><rect class="cls-7" x="162.49" y="124.77" width="1.1" height="1.1"/><rect class="cls-7" x="162.49" y="126.62" width="1.1" height="1.1"/><rect class="cls-7" x="162.49" y="128.47" width="1.1" height="1.1"/><rect class="cls-7" x="162.49" y="130.32" width="1.1" height="1.1"/><rect class="cls-7" x="162.49" y="132.17" width="1.1" height="1.1"/><rect class="cls-7" x="162.49" y="134.02" width="1.1" height="1.1"/><rect class="cls-7" x="162.49" y="135.87" width="1.1" height="1.1"/><rect class="cls-7" x="162.49" y="137.72" width="1.1" height="1.1"/><rect class="cls-7" x="162.49" y="139.57" width="1.1" height="1.1"/><rect class="cls-7" x="162.49" y="141.42" width="1.1" height="1.1"/><rect class="cls-7" x="162.49" y="143.27" width="1.1" height="1.1"/><rect class="cls-7" x="160.74" y="121.07" width="1.1" height="1.1"/><rect class="cls-7" x="160.74" y="122.92" width="1.1" height="1.1"/><rect class="cls-7" x="160.74" y="124.77" width="1.1" height="1.1"/><rect class="cls-7" x="160.74" y="126.62" width="1.1" height="1.1"/><rect class="cls-7" x="160.74" y="128.47" width="1.1" height="1.1"/><rect class="cls-7" x="160.74" y="130.32" width="1.1" height="1.1"/><rect class="cls-7" x="160.74" y="132.17" width="1.1" height="1.1"/><rect class="cls-7" x="160.74" y="134.02" width="1.1" height="1.1"/><rect class="cls-7" x="160.74" y="135.87" width="1.1" height="1.1"/><rect class="cls-7" x="160.74" y="137.72" width="1.1" height="1.1"/><rect class="cls-7" x="160.74" y="139.57" width="1.1" height="1.1"/><rect class="cls-7" x="160.74" y="141.42" width="1.1" height="1.1"/><rect class="cls-7" x="160.74" y="143.27" width="1.1" height="1.1"/><rect class="cls-7" x="160.74" y="145.12" width="1.1" height="1.1"/><rect class="cls-7" x="151" y="121.62" width="1.1" height="1.1"/><rect class="cls-7" x="151" y="123.47" width="1.1" height="1.1"/><rect class="cls-7" x="151" y="125.32" width="1.1" height="1.1"/><rect class="cls-7" x="151" y="127.17" width="1.1" height="1.1"/><rect class="cls-7" x="151" y="129.02" width="1.1" height="1.1"/><rect class="cls-7" x="151" y="130.87" width="1.1" height="1.1"/><rect class="cls-7" x="151" y="132.72" width="1.1" height="1.1"/><rect class="cls-7" x="151" y="134.57" width="1.1" height="1.1"/><rect class="cls-7" x="151" y="136.42" width="1.1" height="1.1"/><rect class="cls-7" x="151" y="138.27" width="1.1" height="1.1"/><rect class="cls-7" x="151" y="143.83" width="1.1" height="1.1"/><rect class="cls-7" x="149.25" y="121.62" width="1.1" height="1.1"/><rect class="cls-7" x="149.25" y="123.47" width="1.1" height="1.1"/><rect class="cls-7" x="149.25" y="125.32" width="1.1" height="1.1"/><rect class="cls-7" x="149.25" y="127.17" width="1.1" height="1.1"/><rect class="cls-7" x="149.25" y="129.02" width="1.1" height="1.1"/><rect class="cls-7" x="149.25" y="130.87" width="1.1" height="1.1"/><rect class="cls-7" x="149.25" y="132.72" width="1.1" height="1.1"/><rect class="cls-7" x="149.25" y="134.57" width="1.1" height="1.1"/><rect class="cls-7" x="149.25" y="136.42" width="1.1" height="1.1"/><rect class="cls-7" x="149.25" y="141.98" width="1.1" height="1.1"/><rect class="cls-7" x="149.25" y="143.83" width="1.1" height="1.1"/><rect class="cls-7" x="147.49" y="121.62" width="1.1" height="1.1"/><rect class="cls-7" x="147.49" y="123.47" width="1.1" height="1.1"/><rect class="cls-7" x="147.49" y="125.32" width="1.1" height="1.1"/><rect class="cls-7" x="147.49" y="127.17" width="1.1" height="1.1"/><rect class="cls-7" x="147.49" y="129.02" width="1.1" height="1.1"/><rect class="cls-7" x="147.49" y="130.87" width="1.1" height="1.1"/><rect class="cls-7" x="147.49" y="132.72" width="1.1" height="1.1"/><rect class="cls-7" x="147.49" y="134.57" width="1.1" height="1.1"/><rect class="cls-7" x="147.49" y="140.12" width="1.1" height="1.1"/><rect class="cls-7" x="147.49" y="141.98" width="1.1" height="1.1"/><rect class="cls-7" x="147.49" y="143.83" width="1.1" height="1.1"/><rect class="cls-7" x="131.19" y="93.5" width="1.1" height="1.1"/><rect class="cls-7" x="131.19" y="95.35" width="1.1" height="1.1"/><rect class="cls-7" x="131.19" y="97.2" width="1.1" height="1.1"/><rect class="cls-7" x="131.19" y="99.05" width="1.1" height="1.1"/><rect class="cls-7" x="131.19" y="100.9" width="1.1" height="1.1"/><rect class="cls-7" x="131.19" y="102.75" width="1.1" height="1.1"/><rect class="cls-7" x="131.19" y="104.6" width="1.1" height="1.1"/><rect class="cls-7" x="131.19" y="106.45" width="1.1" height="1.1"/><rect class="cls-7" x="131.19" y="108.31" width="1.1" height="1.1"/><rect class="cls-7" x="131.19" y="110.16" width="1.1" height="1.1"/><rect class="cls-7" x="131.19" y="112.01" width="1.1" height="1.1"/><rect class="cls-7" x="131.19" y="113.86" width="1.1" height="1.1"/><rect class="cls-7" x="131.19" y="115.71" width="1.1" height="1.1"/><rect class="cls-7" x="131.19" y="117.56" width="1.1" height="1.1"/><rect class="cls-7" x="131.19" y="119.41" width="1.1" height="1.1"/><rect class="cls-7" x="131.19" y="121.26" width="1.1" height="1.1"/><rect class="cls-7" x="131.19" y="123.11" width="1.1" height="1.1"/><rect class="cls-7" x="131.19" y="126.81" width="1.1" height="1.1"/><rect class="cls-7" x="131.19" y="128.66" width="1.1" height="1.1"/><rect class="cls-7" x="131.19" y="130.51" width="1.1" height="1.1"/><rect class="cls-7" x="131.19" y="132.36" width="1.1" height="1.1"/><rect class="cls-7" x="131.19" y="134.22" width="1.1" height="1.1"/><rect class="cls-7" x="129.44" y="93.5" width="1.1" height="1.1"/><rect class="cls-7" x="129.44" y="95.35" width="1.1" height="1.1"/><rect class="cls-7" x="129.44" y="97.2" width="1.1" height="1.1"/><rect class="cls-7" x="129.44" y="99.05" width="1.1" height="1.1"/><rect class="cls-7" x="129.44" y="100.9" width="1.1" height="1.1"/><rect class="cls-7" x="129.44" y="102.75" width="1.1" height="1.1"/><rect class="cls-7" x="129.44" y="104.6" width="1.1" height="1.1"/><rect class="cls-7" x="129.44" y="106.45" width="1.1" height="1.1"/><rect class="cls-7" x="129.44" y="108.31" width="1.1" height="1.1"/><rect class="cls-7" x="129.44" y="110.16" width="1.1" height="1.1"/><rect class="cls-7" x="129.44" y="112.01" width="1.1" height="1.1"/><rect class="cls-7" x="129.44" y="113.86" width="1.1" height="1.1"/><rect class="cls-7" x="129.44" y="115.71" width="1.1" height="1.1"/><rect class="cls-7" x="129.44" y="117.56" width="1.1" height="1.1"/><rect class="cls-7" x="129.44" y="119.41" width="1.1" height="1.1"/><rect class="cls-7" x="129.44" y="121.26" width="1.1" height="1.1"/><rect class="cls-7" x="129.44" y="132.36" width="1.1" height="1.1"/><rect class="cls-7" x="129.44" y="134.22" width="1.1" height="1.1"/><rect class="cls-7" x="127.69" y="93.5" width="1.1" height="1.1"/><rect class="cls-7" x="127.69" y="95.35" width="1.1" height="1.1"/><rect class="cls-7" x="127.69" y="97.2" width="1.1" height="1.1"/><rect class="cls-7" x="127.69" y="99.05" width="1.1" height="1.1"/><rect class="cls-7" x="127.69" y="100.9" width="1.1" height="1.1"/><rect class="cls-7" x="127.69" y="102.75" width="1.1" height="1.1"/><rect class="cls-7" x="127.69" y="104.6" width="1.1" height="1.1"/><rect class="cls-7" x="127.69" y="106.45" width="1.1" height="1.1"/><rect class="cls-7" x="127.69" y="108.31" width="1.1" height="1.1"/><rect class="cls-7" x="127.69" y="110.16" width="1.1" height="1.1"/><rect class="cls-7" x="127.69" y="112.01" width="1.1" height="1.1"/><rect class="cls-7" x="127.69" y="113.86" width="1.1" height="1.1"/><rect class="cls-7" x="127.69" y="115.71" width="1.1" height="1.1"/><rect class="cls-7" x="127.69" y="117.56" width="1.1" height="1.1"/><rect class="cls-7" x="127.69" y="119.41" width="1.1" height="1.1"/><rect class="cls-7" x="127.69" y="121.26" width="1.1" height="1.1"/><rect class="cls-7" x="127.69" y="124.96" width="1.1" height="1.1"/><rect class="cls-7" x="127.69" y="126.81" width="1.1" height="1.1"/><rect class="cls-7" x="127.69" y="128.66" width="1.1" height="1.1"/><rect class="cls-7" x="127.69" y="130.51" width="1.1" height="1.1"/><rect class="cls-7" x="127.69" y="134.22" width="1.1" height="1.1"/><rect class="cls-7" x="137.56" y="116.81" width="1.1" height="1.1"/><rect class="cls-7" x="137.56" y="118.66" width="1.1" height="1.1"/><rect class="cls-7" x="137.56" y="120.51" width="1.1" height="1.1"/><rect class="cls-7" x="137.56" y="122.36" width="1.1" height="1.1"/><rect class="cls-7" x="137.56" y="124.22" width="1.1" height="1.1"/><rect class="cls-7" x="137.56" y="126.07" width="1.1" height="1.1"/><rect class="cls-7" x="137.56" y="127.92" width="1.1" height="1.1"/><rect class="cls-7" x="137.56" y="131.62" width="1.1" height="1.1"/><rect class="cls-7" x="137.56" y="133.47" width="1.1" height="1.1"/><rect class="cls-7" x="137.56" y="135.32" width="1.1" height="1.1"/><rect class="cls-7" x="137.56" y="137.17" width="1.1" height="1.1"/><rect class="cls-7" x="137.56" y="139.02" width="1.1" height="1.1"/><rect class="cls-7" x="137.56" y="140.87" width="1.1" height="1.1"/><rect class="cls-7" x="137.56" y="142.72" width="1.1" height="1.1"/><rect class="cls-7" x="137.56" y="144.57" width="1.1" height="1.1"/><rect class="cls-7" x="135.8" y="116.81" width="1.1" height="1.1"/><rect class="cls-7" x="135.8" y="118.66" width="1.1" height="1.1"/><rect class="cls-7" x="135.8" y="120.51" width="1.1" height="1.1"/><rect class="cls-7" x="135.8" y="122.36" width="1.1" height="1.1"/><rect class="cls-7" x="135.8" y="124.22" width="1.1" height="1.1"/><rect class="cls-7" x="135.8" y="126.07" width="1.1" height="1.1"/><rect class="cls-7" x="135.8" y="131.62" width="1.1" height="1.1"/><rect class="cls-7" x="135.8" y="133.47" width="1.1" height="1.1"/><rect class="cls-7" x="135.8" y="135.32" width="1.1" height="1.1"/><rect class="cls-7" x="135.8" y="137.17" width="1.1" height="1.1"/><rect class="cls-7" x="135.8" y="139.02" width="1.1" height="1.1"/><rect class="cls-7" x="135.8" y="140.87" width="1.1" height="1.1"/><rect class="cls-7" x="135.8" y="142.72" width="1.1" height="1.1"/><rect class="cls-7" x="135.8" y="144.57" width="1.1" height="1.1"/><rect class="cls-7" x="134.05" y="116.81" width="1.1" height="1.1"/><rect class="cls-7" x="134.05" y="118.66" width="1.1" height="1.1"/><rect class="cls-7" x="134.05" y="120.51" width="1.1" height="1.1"/><rect class="cls-7" x="134.05" y="122.36" width="1.1" height="1.1"/><rect class="cls-7" x="134.05" y="124.22" width="1.1" height="1.1"/><rect class="cls-7" x="134.05" y="126.07" width="1.1" height="1.1"/><rect class="cls-7" x="134.05" y="129.77" width="1.1" height="1.1"/><rect class="cls-7" x="134.05" y="131.62" width="1.1" height="1.1"/><rect class="cls-7" x="134.05" y="133.47" width="1.1" height="1.1"/><rect class="cls-7" x="134.05" y="135.32" width="1.1" height="1.1"/><rect class="cls-7" x="134.05" y="137.17" width="1.1" height="1.1"/><rect class="cls-7" x="134.05" y="139.02" width="1.1" height="1.1"/><rect class="cls-7" x="134.05" y="140.87" width="1.1" height="1.1"/><rect class="cls-7" x="134.05" y="142.72" width="1.1" height="1.1"/><rect class="cls-7" x="134.05" y="144.57" width="1.1" height="1.1"/><rect class="cls-7" x="97.1" y="106.45" width="1.1" height="1.1"/><rect class="cls-7" x="97.1" y="108.31" width="1.1" height="1.1"/><rect class="cls-7" x="97.1" y="110.16" width="1.1" height="1.1"/><rect class="cls-7" x="97.1" y="112.01" width="1.1" height="1.1"/><rect class="cls-7" x="97.1" y="113.86" width="1.1" height="1.1"/><rect class="cls-7" x="97.1" y="115.71" width="1.1" height="1.1"/><rect class="cls-7" x="97.1" y="117.56" width="1.1" height="1.1"/><rect class="cls-7" x="97.1" y="119.41" width="1.1" height="1.1"/><rect class="cls-7" x="97.1" y="121.26" width="1.1" height="1.1"/><rect class="cls-7" x="97.1" y="123.11" width="1.1" height="1.1"/><rect class="cls-7" x="97.1" y="124.96" width="1.1" height="1.1"/><rect class="cls-7" x="97.1" y="126.81" width="1.1" height="1.1"/><rect class="cls-7" x="97.1" y="128.66" width="1.1" height="1.1"/><rect class="cls-7" x="97.1" y="132.36" width="1.1" height="1.1"/><rect class="cls-7" x="97.1" y="134.22" width="1.1" height="1.1"/><rect class="cls-7" x="97.1" y="136.07" width="1.1" height="1.1"/><rect class="cls-7" x="97.1" y="137.92" width="1.1" height="1.1"/><rect class="cls-7" x="97.1" y="141.62" width="1.1" height="1.1"/><rect class="cls-7" x="97.1" y="143.47" width="1.1" height="1.1"/><rect class="cls-7" x="97.1" y="145.32" width="1.1" height="1.1"/><rect class="cls-7" x="95.35" y="106.45" width="1.1" height="1.1"/><rect class="cls-7" x="95.35" y="108.31" width="1.1" height="1.1"/><rect class="cls-7" x="95.35" y="110.16" width="1.1" height="1.1"/><rect class="cls-7" x="95.35" y="112.01" width="1.1" height="1.1"/><rect class="cls-7" x="95.35" y="113.86" width="1.1" height="1.1"/><rect class="cls-7" x="95.35" y="115.71" width="1.1" height="1.1"/><rect class="cls-7" x="95.35" y="117.56" width="1.1" height="1.1"/><rect class="cls-7" x="95.35" y="119.41" width="1.1" height="1.1"/><rect class="cls-7" x="95.35" y="121.26" width="1.1" height="1.1"/><rect class="cls-7" x="95.35" y="123.11" width="1.1" height="1.1"/><rect class="cls-7" x="95.35" y="124.96" width="1.1" height="1.1"/><rect class="cls-7" x="95.35" y="126.81" width="1.1" height="1.1"/><rect class="cls-7" x="95.35" y="128.66" width="1.1" height="1.1"/><rect class="cls-7" x="95.35" y="134.22" width="1.1" height="1.1"/><rect class="cls-7" x="95.35" y="136.07" width="1.1" height="1.1"/><rect class="cls-7" x="95.35" y="139.77" width="1.1" height="1.1"/><rect class="cls-7" x="95.35" y="141.62" width="1.1" height="1.1"/><rect class="cls-7" x="95.35" y="143.47" width="1.1" height="1.1"/><rect class="cls-7" x="95.35" y="145.32" width="1.1" height="1.1"/><rect class="cls-7" x="93.6" y="106.45" width="1.1" height="1.1"/><rect class="cls-7" x="93.6" y="108.31" width="1.1" height="1.1"/><rect class="cls-7" x="93.6" y="110.16" width="1.1" height="1.1"/><rect class="cls-7" x="93.6" y="112.01" width="1.1" height="1.1"/><rect class="cls-7" x="93.6" y="113.86" width="1.1" height="1.1"/><rect class="cls-7" x="93.6" y="115.71" width="1.1" height="1.1"/><rect class="cls-7" x="93.6" y="117.56" width="1.1" height="1.1"/><rect class="cls-7" x="93.6" y="119.41" width="1.1" height="1.1"/><rect class="cls-7" x="93.6" y="121.26" width="1.1" height="1.1"/><rect class="cls-7" x="93.6" y="123.11" width="1.1" height="1.1"/><rect class="cls-7" x="93.6" y="124.96" width="1.1" height="1.1"/><rect class="cls-7" x="93.6" y="126.81" width="1.1" height="1.1"/><rect class="cls-7" x="93.6" y="128.66" width="1.1" height="1.1"/><rect class="cls-7" x="93.6" y="130.51" width="1.1" height="1.1"/><rect class="cls-7" x="93.6" y="134.22" width="1.1" height="1.1"/><rect class="cls-7" x="93.6" y="137.92" width="1.1" height="1.1"/><rect class="cls-7" x="93.6" y="139.77" width="1.1" height="1.1"/><rect class="cls-7" x="93.6" y="141.62" width="1.1" height="1.1"/><rect class="cls-7" x="93.6" y="143.47" width="1.1" height="1.1"/><rect class="cls-7" x="93.6" y="145.32" width="1.1" height="1.1"/><rect class="cls-7" x="104.25" y="117.01" width="1.1" height="1.1"/><rect class="cls-7" x="104.25" y="118.86" width="1.1" height="1.1"/><rect class="cls-7" x="104.25" y="120.71" width="1.1" height="1.1"/><rect class="cls-7" x="104.25" y="122.56" width="1.1" height="1.1"/><rect class="cls-7" x="104.25" y="124.41" width="1.1" height="1.1"/><rect class="cls-7" x="104.25" y="126.26" width="1.1" height="1.1"/><rect class="cls-7" x="104.25" y="131.81" width="1.1" height="1.1"/><rect class="cls-7" x="104.25" y="133.66" width="1.1" height="1.1"/><rect class="cls-7" x="104.25" y="135.51" width="1.1" height="1.1"/><rect class="cls-7" x="104.25" y="137.36" width="1.1" height="1.1"/><rect class="cls-7" x="104.25" y="139.22" width="1.1" height="1.1"/><rect class="cls-7" x="104.25" y="141.07" width="1.1" height="1.1"/><rect class="cls-7" x="104.25" y="142.92" width="1.1" height="1.1"/><rect class="cls-7" x="102.49" y="117.01" width="1.1" height="1.1"/><rect class="cls-7" x="102.49" y="118.86" width="1.1" height="1.1"/><rect class="cls-7" x="102.49" y="120.71" width="1.1" height="1.1"/><rect class="cls-7" x="102.49" y="122.56" width="1.1" height="1.1"/><rect class="cls-7" x="102.49" y="124.41" width="1.1" height="1.1"/><rect class="cls-7" x="102.49" y="126.26" width="1.1" height="1.1"/><rect class="cls-7" x="102.49" y="131.81" width="1.1" height="1.1"/><rect class="cls-7" x="102.49" y="133.66" width="1.1" height="1.1"/><rect class="cls-7" x="102.49" y="135.51" width="1.1" height="1.1"/><rect class="cls-7" x="102.49" y="137.36" width="1.1" height="1.1"/><rect class="cls-7" x="102.49" y="139.22" width="1.1" height="1.1"/><rect class="cls-7" x="102.49" y="141.07" width="1.1" height="1.1"/><rect class="cls-7" x="102.49" y="144.77" width="1.1" height="1.1"/><rect class="cls-7" x="44.24" y="108.86" width="1.1" height="1.1"/><rect class="cls-7" x="44.24" y="110.71" width="1.1" height="1.1"/><rect class="cls-7" x="44.24" y="112.56" width="1.1" height="1.1"/><rect class="cls-7" x="44.24" y="114.41" width="1.1" height="1.1"/><rect class="cls-7" x="44.24" y="116.26" width="1.1" height="1.1"/><rect class="cls-7" x="44.24" y="118.11" width="1.1" height="1.1"/><rect class="cls-7" x="44.24" y="119.96" width="1.1" height="1.1"/><rect class="cls-7" x="44.24" y="121.81" width="1.1" height="1.1"/><rect class="cls-7" x="44.24" y="123.66" width="1.1" height="1.1"/><rect class="cls-7" x="44.24" y="125.51" width="1.1" height="1.1"/><rect class="cls-7" x="44.24" y="127.36" width="1.1" height="1.1"/><rect class="cls-7" x="44.24" y="131.07" width="1.1" height="1.1"/><rect class="cls-7" x="44.24" y="132.92" width="1.1" height="1.1"/><rect class="cls-7" x="44.24" y="134.77" width="1.1" height="1.1"/><rect class="cls-7" x="44.24" y="136.62" width="1.1" height="1.1"/><rect class="cls-7" x="44.24" y="138.47" width="1.1" height="1.1"/><rect class="cls-7" x="44.24" y="140.32" width="1.1" height="1.1"/><rect class="cls-7" x="44.24" y="142.17" width="1.1" height="1.1"/><rect class="cls-7" x="44.24" y="144.02" width="1.1" height="1.1"/><rect class="cls-7" x="42.49" y="108.86" width="1.1" height="1.1"/><rect class="cls-7" x="42.49" y="110.71" width="1.1" height="1.1"/><rect class="cls-7" x="42.49" y="112.56" width="1.1" height="1.1"/><rect class="cls-7" x="42.49" y="114.41" width="1.1" height="1.1"/><rect class="cls-7" x="42.49" y="116.26" width="1.1" height="1.1"/><rect class="cls-7" x="42.49" y="118.11" width="1.1" height="1.1"/><rect class="cls-7" x="42.49" y="119.96" width="1.1" height="1.1"/><rect class="cls-7" x="42.49" y="121.81" width="1.1" height="1.1"/><rect class="cls-7" x="42.49" y="123.66" width="1.1" height="1.1"/><rect class="cls-7" x="42.49" y="125.51" width="1.1" height="1.1"/><rect class="cls-7" x="42.49" y="127.36" width="1.1" height="1.1"/><rect class="cls-7" x="42.49" y="129.22" width="1.1" height="1.1"/><rect class="cls-7" x="42.49" y="131.07" width="1.1" height="1.1"/><rect class="cls-7" x="42.49" y="132.92" width="1.1" height="1.1"/><rect class="cls-7" x="42.49" y="134.77" width="1.1" height="1.1"/><rect class="cls-7" x="42.49" y="136.62" width="1.1" height="1.1"/><rect class="cls-7" x="42.49" y="138.47" width="1.1" height="1.1"/><rect class="cls-7" x="42.49" y="140.32" width="1.1" height="1.1"/><rect class="cls-7" x="42.49" y="142.17" width="1.1" height="1.1"/><rect class="cls-7" x="42.49" y="144.02" width="1.1" height="1.1"/><rect class="cls-7" x="52.88" y="116.07" width="1.1" height="1.1"/><rect class="cls-7" x="52.88" y="117.92" width="1.1" height="1.1"/><rect class="cls-7" x="52.88" y="119.77" width="1.1" height="1.1"/><rect class="cls-7" x="52.88" y="121.62" width="1.1" height="1.1"/><rect class="cls-7" x="52.88" y="123.47" width="1.1" height="1.1"/><rect class="cls-7" x="52.88" y="125.32" width="1.1" height="1.1"/><rect class="cls-7" x="52.88" y="127.17" width="1.1" height="1.1"/><rect class="cls-7" x="52.88" y="129.02" width="1.1" height="1.1"/><rect class="cls-7" x="52.88" y="130.87" width="1.1" height="1.1"/><rect class="cls-7" x="52.88" y="132.72" width="1.1" height="1.1"/><rect class="cls-7" x="51.13" y="116.07" width="1.1" height="1.1"/><rect class="cls-7" x="51.13" y="117.92" width="1.1" height="1.1"/><rect class="cls-7" x="51.13" y="119.77" width="1.1" height="1.1"/><rect class="cls-7" x="51.13" y="121.62" width="1.1" height="1.1"/><rect class="cls-7" x="51.13" y="123.47" width="1.1" height="1.1"/><rect class="cls-7" x="51.13" y="125.32" width="1.1" height="1.1"/><rect class="cls-7" x="51.13" y="127.17" width="1.1" height="1.1"/><rect class="cls-7" x="51.13" y="129.02" width="1.1" height="1.1"/><rect class="cls-7" x="51.13" y="130.87" width="1.1" height="1.1"/></g></g><path class="cls-1" d="M63.33,62.41c0-1.89-1.53-3.42-3.42-3.42-.34,0-.67,.05-.98,.14,.05-.34,.08-.69,.08-1.05,0-4-3.24-7.24-7.24-7.24-.46,0-.9,.04-1.33,.12-1.11-1.82-3.11-3.04-5.4-3.04-3.47,0-6.28,2.78-6.33,6.24-.04,0-.07,0-.11,0-3.22,0-5.83,2.61-5.83,5.83s2.61,5.83,5.83,5.83h21.41c1.84-.06,3.32-1.56,3.32-3.42Z"/><path class="cls-1" d="M105.93,37.3c0-1.21-.98-2.18-2.18-2.18-.22,0-.43,.03-.63,.09,.03-.22,.05-.44,.05-.67,0-2.55-2.07-4.62-4.62-4.62-.29,0-.58,.03-.85,.08-.71-1.16-1.99-1.94-3.45-1.94-2.21,0-4.01,1.78-4.04,3.98-.02,0-.04,0-.07,0-2.06,0-3.72,1.67-3.72,3.72s1.67,3.72,3.72,3.72h13.67c1.18-.04,2.12-1,2.12-2.18Z"/><path class="cls-1" d="M152.1,85.95c0-.74-.6-1.34-1.34-1.34-.13,0-.26,.02-.38,.06,.02-.13,.03-.27,.03-.41,0-1.56-1.27-2.83-2.83-2.83-.18,0-.35,.02-.52,.05-.44-.71-1.22-1.19-2.11-1.19-1.36,0-2.46,1.09-2.48,2.44-.01,0-.03,0-.04,0-1.26,0-2.28,1.02-2.28,2.28s1.02,2.28,2.28,2.28h8.37c.72-.02,1.3-.61,1.3-1.34Z"/><ellipse id="_Path_" class="cls-8" cx="96.91" cy="162.63" rx="75.16" ry="4.39"/><g><g><path class="cls-14" d="M165.71,150.09s1.82-6.1-1.86-7.31-5.87-4.07-5.74-7.29c.12-3.23-3.75-6.37-6.66-3.34-2.91,3.02-2.52-2.32-6.4-3.62-3.88-1.3-7.16,1.85-6.1,4.73,1.06,2.88-2.76,4.68-7.34,2.23-4.58-2.45-9.62,2.01-8.65,5.5s.18,3.88-2.72,2.71c-2.9-1.16-8.08,2.13-6.27,6.4s51.75,0,51.75,0Z"/><path class="cls-3" d="M165.71,150.09s1.82-6.1-1.86-7.31-5.87-4.07-5.74-7.29c.12-3.23-3.75-6.37-6.66-3.34-2.91,3.02-2.52-2.32-6.4-3.62-3.88-1.3-7.16,1.85-6.1,4.73,1.06,2.88-2.76,4.68-7.34,2.23-4.58-2.45-9.62,2.01-8.65,5.5s.18,3.88-2.72,2.71c-2.9-1.16-8.08,2.13-6.27,6.4s51.75,0,51.75,0Z"/></g><g><path class="cls-14" d="M68.29,150.67c1.94-1.94,.19-5.23-1.74-5.62s-3.89-3.8-3.98-5.97c-.09-2.17-3.58-8.85-9.01-4.73s-3.78,.61-7.7-.55-6.4,2.18-4.68,4.68c0,0-3.94-.99-5.57,2.69-1.62,3.68,0,5.97,0,5.97,0,0-7.42-.22-6.75,4.37s39.43-.84,39.43-.84Z"/><path class="cls-3" d="M68.29,150.67c1.94-1.94,.19-5.23-1.74-5.62s-3.89-3.8-3.98-5.97c-.09-2.17-3.58-8.85-9.01-4.73s-3.78,.61-7.7-.55-6.4,2.18-4.68,4.68c0,0-3.94-.99-5.57,2.69-1.62,3.68,0,5.97,0,5.97,0,0-7.42-.22-6.75,4.37s39.43-.84,39.43-.84Z"/></g><g><path class="cls-14" d="M46,151.59c-1.94-1.94-.19-5.23,1.74-5.62s3.89-3.8,3.98-5.97c.09-2.17,3.58-8.85,9.01-4.73s3.78,.61,7.7-.55,6.4,2.18,4.68,4.68c0,0,3.94-.99,5.57,2.69,1.62,3.68,0,5.97,0,5.97,0,0,7.42-.22,6.75,4.37s-39.43-.84-39.43-.84Z"/><path class="cls-3" d="M46,151.59c-1.94-1.94-.19-5.23,1.74-5.62s3.89-3.8,3.98-5.97c.09-2.17,3.58-8.85,9.01-4.73s3.78,.61,7.7-.55,6.4,2.18,4.68,4.68c0,0,3.94-.99,5.57,2.69,1.62,3.68,0,5.97,0,5.97,0,0,7.42-.22,6.75,4.37s-39.43-.84-39.43-.84Z"/></g><g><path class="cls-16" d="M172.37,150.78v5.31H22.74v-5.31c0-.92,.64-1.67,1.57-1.67H170.81c.92,0,1.57,.74,1.57,1.67Z"/><g><rect class="cls-14" x="31.27" y="149.12" width="9.3" height="6.98"/><rect class="cls-14" x="49.1" y="149.12" width="8.92" height="6.98"/><rect class="cls-14" x="66.54" y="149.12" width="9.3" height="6.98"/><rect class="cls-14" x="84.38" y="149.12" width="8.92" height="6.98"/><rect class="cls-14" x="101.82" y="149.12" width="8.92" height="6.98"/><rect class="cls-14" x="119.26" y="149.12" width="9.3" height="6.98"/><rect class="cls-14" x="137.1" y="149.12" width="8.92" height="6.98"/><rect class="cls-14" x="154.54" y="149.12" width="9.3" height="6.98"/><g class="cls-12"><rect class="cls-2" x="31.27" y="149.12" width="9.3" height="6.98"/><rect class="cls-2" x="49.1" y="149.12" width="8.92" height="6.98"/><rect class="cls-2" x="66.54" y="149.12" width="9.3" height="6.98"/><rect class="cls-2" x="84.38" y="149.12" width="8.92" height="6.98"/><rect class="cls-2" x="101.82" y="149.12" width="8.92" height="6.98"/><rect class="cls-2" x="119.26" y="149.12" width="9.3" height="6.98"/><rect class="cls-2" x="137.1" y="149.12" width="8.92" height="6.98"/><rect class="cls-2" x="154.54" y="149.12" width="9.3" height="6.98"/></g></g><path class="cls-3" d="M172.37,150.78v5.31H22.74v-5.31c0-.92,.64-1.67,1.57-1.67H170.81c.92,0,1.57,.74,1.57,1.67Z"/></g></g><g><g><path class="cls-14" d="M88.62,159.15h-3.36c-.11,0-.21,.08-.24,.19l-.54,2.46c-.05,.22,.09,.44,.31,.48,.03,0,.06,0,.09,0,1.09-.02,1.88-.08,3.24-.08,.84,0,3.37,.09,4.53,.09s1.31-1.15,.84-1.25c-2.13-.46-3.73-1.11-4.41-1.72-.13-.12-.29-.18-.46-.18Z"/><path class="cls-5" d="M88.62,159.15h-3.36c-.11,0-.21,.08-.24,.19l-.54,2.46c-.05,.22,.09,.44,.31,.48,.03,0,.06,0,.09,0,1.09-.02,1.88-.08,3.24-.08,.84,0,3.37,.09,4.53,.09s1.31-1.15,.84-1.25c-2.13-.46-3.73-1.11-4.41-1.72-.13-.12-.29-.18-.46-.18Z"/></g><g><path class="cls-14" d="M102.85,159.06h-3.36c-.11,0-.21,.08-.24,.19l-.54,2.46c-.05,.22,.09,.44,.31,.48,.03,0,.06,0,.09,0,1.09-.02,1.88-.08,3.24-.08,.84,0,3.37,.09,4.53,.09s1.31-1.15,.84-1.25c-2.13-.46-3.73-1.11-4.41-1.72-.13-.12-.29-.18-.46-.18Z"/><path class="cls-5" d="M102.85,159.06h-3.36c-.11,0-.21,.08-.24,.19l-.54,2.46c-.05,.22,.09,.44,.31,.48,.03,0,.06,0,.09,0,1.09-.02,1.88-.08,3.24-.08,.84,0,3.37,.09,4.53,.09s1.31-1.15,.84-1.25c-2.13-.46-3.73-1.11-4.41-1.72-.13-.12-.29-.18-.46-.18Z"/></g><g><g><path class="cls-16" d="M86.84,96.95h14.66c1.39,7.61,5.76,38.52,2.63,62.52h-4.96s.46-36.45-3.92-48.23c-.5,6.3-5.63,48.2-5.63,48.2h-5.05s.75-15.76,1.51-30.65c.48-9.37,.75-29.92,.77-31.84Z"/><path class="cls-4" d="M86.84,96.95h14.66c1.39,7.61,5.76,38.52,2.63,62.52h-4.96s.46-36.45-3.92-48.23c-.5,6.3-5.63,48.2-5.63,48.2h-5.05s.75-15.76,1.51-30.65c.48-9.37,.75-29.92,.77-31.84Z"/></g><path class="cls-11" d="M95.24,111.24c.65,1.74,1.18,3.9,1.64,6.34,.41-5.61-1.23-11.56-1.23-11.56l-.41,5.22Z"/></g><g><polygon points="99.6 98.73 101.81 98.7 101.62 97.13 99.6 97.13 99.6 98.73"/><polygon points="91.61 97.13 86.87 97.13 86.87 98.88 91.61 98.83 91.61 97.13"/><polygon points="92.14 98.82 99.08 98.74 99.08 97.13 92.14 97.13 92.14 98.82"/></g><g><path class="cls-2" d="M95.44,98.92h1.64c.23,0,.42-.19,.42-.42v-1.05c0-.23-.19-.42-.42-.42h-1.64c-.23,0-.42,.19-.42,.42v1.05c0,.23,.19,.42,.42,.42Zm1.64-1.51s.04,.02,.04,.04v1.05s-.02,.04-.04,.04h-1.64s-.04-.02-.04-.04v-1.05s.02-.04,.04-.04h1.64Z"/><path class="cls-2" d="M95.24,98.12h.85c.11,0,.19-.09,.19-.19s-.09-.19-.19-.19h-.85c-.11,0-.19,.09-.19,.19s.09,.19,.19,.19Z"/></g><g><path class="cls-14" d="M84.55,79.12c.17,.61,.36,1.4,.55,2.37,.22,1.1,.43,2.42,.62,3.9,.38,3.02,.63,7.7,.52,11.73l15.85-.14s.65-10.28-1.57-19.04l-14.92-.19c-.72-.01-1.24,.67-1.05,1.36Z"/><path class="cls-11" d="M85.1,81.49c.22,1.1,.61,3.99,.79,5.48,1.46-.71,1.57-4.55,1.57-4.55-.64-.09-2.06-1.22-2.36-.93Z"/></g><path class="cls-6" d="M94.52,79.33s-3.14,.03-4.25-1.27c.71-.6,1.01-1.79,1.11-3.08,.07-.93,.03-1.9-.05-2.73-.03-.29-.06-.57-.09-.81l3.45,3.3c-.02,.06-.04,.12-.05,.18-.05,.18-.1,.35-.13,.53-.09,.45-.13,.9-.05,1.31,.08,.38,.05,.65,.18,.87,.11,.18,.34,.33,.85,.48,.33,.65-.96,1.22-.96,1.22Z"/><path class="cls-11" d="M94.63,77.63c-1.06-.4-2.37-2.01-3.18-3.46,.07-.93-.04-1.09-.12-1.92l3.3,2.67c-.05,.18-.1,.35-.13,.53-.09,.45-.13,.9-.05,1.31,.08,.38,.05,.65,.18,.87Z"/><g><path class="cls-16" d="M98.09,65.87s1,3.67-.82,5.33c-1.82,1.66-2.61-5.28-2.61-5.28l3.43-.04Z"/><path class="cls-6" d="M91.86,74.82c1.12,1.27,2.73,1.45,4.04,.87,.84-.38,1.56-1.07,1.95-2,.05-.12,.1-.25,.14-.38,.71-2.39,.57-6.41-2.02-7.63-1.84-.88-4.04-.11-4.92,1.73-.25,.52-.38,1.1-.37,1.68,0,2.7-.11,4.29,1.18,5.74Z"/><path class="cls-16" d="M94.73,70.06c-.03,.22,.09,.4,.24,.41,.15,0,.27-.17,.28-.38,.01-.22-.1-.4-.24-.41-.14,0-.27,.16-.28,.38Z"/><path class="cls-16" d="M97.21,70.2c-.03,.22,.1,.4,.24,.41,.14,0,.27-.17,.28-.38,.01-.22-.1-.4-.24-.41-.14,0-.27,.18-.28,.38Z"/><path class="cls-15" d="M96.42,70.26c.22,.69,.54,1.34,.95,1.93-.32,.2-.71,.25-1.07,.14l.12-2.07Z"/><path class="cls-16" d="M98.17,69.23s-.1,.01-.13-.02c-.25-.21-.58-.3-.9-.22-.07,.02-.14-.02-.16-.08-.02-.07,.02-.14,.08-.16h0c.4-.1,.83,0,1.14,.27,.06,.04,.07,.12,.02,.18h0s-.03,.03-.05,.04Z"/><path class="cls-16" d="M94.3,69.05s-.05-.01-.07-.03c-.04-.06-.04-.14,.02-.18h0c.32-.27,.75-.36,1.15-.24,.07,.02,.1,.1,.08,.16h0c-.02,.07-.1,.1-.16,.08h0c-.32-.08-.66,0-.91,.21-.03,.02-.07,.02-.11,0Z"/><path class="cls-16" d="M92.84,65.83l.23,.51c-.89,.28-.73,1.32-.55,1.79,.38,1-.2,2.55-.97,3.16,0,0-.02-.43-.39-.33-.37,.1-.28,2.36,.42,3.44,0,0-1.07-.98-1.66-3.36-.55-2.2-.6-4.02-.15-4.87l3.07-.35Z"/><path class="cls-6" d="M89.38,71.23c.27,.63,.77,1.12,1.4,1.38,.84,.33,1.35-.39,1.2-1.23-.14-.75-.74-1.84-1.62-1.81-.88,.03-1.29,.89-.98,1.66Z"/><g><path class="cls-16" d="M96.22,73.09c-.23,.36-.5,1.05-.5,1.05-.07-.01-.14-.03-.2-.04-.91-.21-1.26-.6-1.38-.98-.06-.21-.05-.41-.02-.57,.03-.19,.1-.31,.1-.31,.42,.4,1.25,.66,1.7,.77,.19,.05,.31,.08,.31,.08Z"/><path class="cls-2" d="M95.91,73.01l-.16,.31c-.86-.2-1.43-.45-1.64-.77,.03-.19,.1-.31,.1-.31,.42,.4,1.25,.66,1.7,.77Z"/><path class="cls-10" d="M95.51,74.1c-.91-.21-1.26-.6-1.38-.98,.31,.08,.67,.22,.97,.43,.23,.16,.35,.36,.42,.55Z"/></g><path class="cls-16" d="M98.09,65.87c-.22-1.23-.77-2.24-1.42-3.43l-.19,1.39c-.28-.55-.75-.94-1.24-1.31l-.25,1.5c-.29-.65-.94-1.02-1.79-1.24l.13,1.29c-.41-.57-.93-.97-1.62-1.15l.07,1.22c-.28-.38-.43-.45-.91-.54l-1.09,2.58,2.65,.85,5.15,.18,.52-1.34Z"/></g><path class="cls-6" d="M82.86,96.9l.14,2.38s-.42,.88-.45,1.41c-.03,.53,1.11,4.04,1.11,4.04l2.83-1.45s-.64-3.65-1.72-3.95l-.14-2.42-1.76-.02Z"/><path class="cls-14" d="M84.56,78.51c-2.06,4.33-4.32,8.5-3.77,11.15l1.48,9.26,2.86-.12-.96-8.5c-.89-1.57,1.65-4.97,3.3-7.89l-2.9-3.91Z"/><path class="cls-6" d="M108.18,94.75l.65,2.29s.68,.7,.89,1.19c.2,.49,.28,4.18,.28,4.18l-3.14-.44s-.59-3.66,.33-4.3l-.66-2.33,1.66-.59Z"/><path class="cls-14" d="M100.54,77.94c3.36,3.41,6.87,6.62,7.22,9.3l1.63,9.23-2.74,.83-1.87-8.34c.33-1.77-3.19-4.15-5.7-6.37l1.46-4.65Z"/></g></svg>