<?xml version="1.0" encoding="UTF-8"?><svg xmlns="http://www.w3.org/2000/svg" viewBox="0 0 500 500"><defs><style>.cls-1{fill:#f0f0f0;}.cls-2{fill:#fff;opacity:.45;}.cls-3{fill:#fafafa;}.cls-4{fill:#37474f;}.cls-5{fill:#f5f5f5;}.cls-6{fill:#455a64;}.cls-7{opacity:.2;}.cls-8{fill:#e0e0e0;}.cls-9{opacity:.15;}.cls-10{fill:#ebebeb;}.cls-11{fill:#ba68c8;}.cls-12{fill:#263238;}</style></defs><g id="Floor"><ellipse id="Floor-2" class="cls-5" cx="250" cy="315.47" rx="243.72" ry="140.71"/></g><g id="Shadows"><path id="Shadow" class="cls-8" d="M362.76,444.64l87.14-50.07c1.98-1.14,1.98-2.99,0-4.13l-190.9-109.69c-1.98-1.14-5.2-1.14-7.18,0l-87.14,50.07c-1.98,1.14-1.98,2.99,0,4.13l190.9,109.69c1.98,1.14,5.2,1.14,7.18,0Z"/><path id="Shadow-2" class="cls-8" d="M104.76,337.56l-62.81-36.07c-1.98-1.14-1.98-2.99,0-4.13l181.69-104.28c1.98-1.14,5.2-1.14,7.18,0l62.81,36.07c1.98,1.14,1.98,2.99,0,4.13l-181.69,104.28c-1.98,1.14-5.2,1.14-7.18,0Z"/></g><g id="CT_Scan"><g id="CT_Scan-2"><g><g><path class="cls-10" d="M88.88,246.02c98.87,32.9,207.25-155.64,127.8-223.87-4.14-3.36-8.33-6.24-12.56-8.67C91.92-51.05-46.04,201.13,88.88,246.02Z"/><g class="cls-7"><path d="M165.77,3.98c13.16,0,25.9,3.49,37.86,10.37,4.22,2.43,8.4,5.31,12.4,8.56,15.14,13.01,24.05,30.83,26.48,52.97,2.19,19.98-1.17,42.72-9.7,65.76-10.54,28.45-27.98,54.98-49.1,74.7-22.79,21.27-47.44,32.52-71.27,32.52-7.9,0-15.72-1.27-23.23-3.77-22.23-7.4-38.03-20.75-46.97-39.69-7.93-16.81-10.14-37.92-6.39-61.06,2.65-16.33,8.31-33.69,16.38-50.21,7.98-16.33,18.36-31.95,30.02-45.15C107.85,19.96,137.51,3.98,165.77,3.98m0-1C64.37,2.98-30.89,206.17,88.88,246.02c7.82,2.6,15.71,3.82,23.55,3.82,91.3,0,177.41-164.85,104.25-227.69-4.14-3.36-8.33-6.24-12.56-8.67-12.6-7.25-25.53-10.5-38.36-10.5h0Z"/></g><g><g><path class="cls-10" d="M142.41,276.98c98.87,32.9,207.25-155.64,127.8-223.87-4.14-3.36-8.33-6.24-12.56-8.67C145.45-20.09,7.49,232.09,142.41,276.98ZM214.41,118.97c1.2,28.56-18.75,63.11-44.08,76.36-1.24-27.68,17.88-61.19,41.68-75.06,.8-.46,1.61-.89,2.4-1.3Z"/><path class="cls-3" d="M297.66,116.95c0-.5-.02-1.01-.04-1.52-.02-.59-.04-1.17-.07-1.75-2.36-48.93-37.16-69.11-80.63-46.8-1.63,.85-3.29,1.71-4.93,2.67-48.86,28.46-88.08,97.22-85.54,154.02,2.41,47.99,36.25,68.17,78.83,47.44,1.24-.61,2.5-1.25,3.76-1.94,.98-.51,1.97-1.06,2.95-1.63,.97-.56,1.95-1.14,2.91-1.75,.99-.6,1.98-1.23,2.96-1.88,.46-.3,.91-.6,1.37-.91,43.19-29.13,77.28-90,78.41-141.3v-.02c.02-.85,.03-1.69,.03-2.54v-.02c0-.7,0-1.39-.02-2.08Zm-85.65,3.32c.8-.46,1.6-.89,2.4-1.3,.32,7.75-.91,15.94-3.38,24.03-.12,.36-.23,.74-.34,1.1-.1,.3-.2,.6-.3,.9-4.06,12.26-10.95,24.18-19.54,33.83-.3,.34-.6,.69-.91,1.02-.47,.52-.94,1.02-1.43,1.52-5.53,5.75-11.68,10.55-18.18,13.95-1.24-27.68,17.88-61.19,41.69-75.06Z"/></g><path class="cls-11" d="M211.03,143c-.12,.36-.23,.74-.34,1.1-.1,.3-.2,.6-.3,.9-4.11,12.2-11.02,24.17-19.54,33.83-.31,.34-.61,.69-.91,1.02-.47,.52-.94,1.02-1.43,1.52-5.53,5.75-11.68,10.55-18.18,13.95-1.24-27.68,17.88-61.19,41.69-75.06,.8-.46,1.6-.89,2.4-1.3,.32,7.75-.91,15.94-3.38,24.03Z"/><g><path class="cls-11" d="M253.77,144.38c0,26.62-18.7,59-41.75,72.32-22.26,12.83-40.45,3.23-41.69-21.38,.82-.39,1.62-.83,2.42-1.29,5.58-3.22,10.9-7.56,15.76-12.66,.48-.5,.95-1,1.43-1.52,.3-.33,.61-.68,.91-1.02,8.52-9.66,15.43-21.63,19.54-33.83,.1-.3,.2-.6,.3-.9,.12-.36,.24-.74,.34-1.1,2.24-7.19,3.48-14.42,3.48-21.28,0-.92-.03-1.84-.1-2.74,21.94-11.26,39.34-.31,39.35,25.41Z"/><path class="cls-2" d="M253.77,144.38c0,26.62-18.7,59-41.75,72.32-22.26,12.83-40.45,3.23-41.69-21.38,.82-.39,1.62-.83,2.42-1.29,5.58-3.22,10.9-7.56,15.76-12.66,.48-.5,.95-1,1.43-1.52,.3-.33,.61-.68,.91-1.02,8.52-9.66,15.43-21.63,19.54-33.83,.1-.3,.2-.6,.3-.9,.12-.36,.24-.74,.34-1.1,2.24-7.19,3.48-14.42,3.48-21.28,0-.92-.03-1.84-.1-2.74,21.94-11.26,39.34-.31,39.35,25.41Z"/></g><path class="cls-11" d="M192.07,238.15h0c-21.02,0-35.39-15.84-36.63-40.35-1.51-33.78,20.68-73.86,50.53-91.25,1.07-.62,2.07-1.14,3.07-1.67,7.85-4.03,15.56-6.07,22.93-6.07,21.94,0,36.69,17.64,36.7,43.89-.01,32.8-22.26,71.34-50.65,87.75-8.87,5.11-17.59,7.7-25.94,7.7Zm39.9-136.38c-6.89,0-14.15,1.93-21.57,5.74-.97,.5-1.93,1.01-2.94,1.6-28.98,16.89-50.53,55.79-49.06,88.56,1.15,22.8,14.37,37.54,33.68,37.54,7.83,0,16.06-2.46,24.47-7.3,27.56-15.93,49.16-53.35,49.18-85.19,0-24.48-13.57-40.94-33.75-40.94Z"/></g><path class="cls-3" d="M144.19,17.11c-1.76,.91-3.54,1.85-5.3,2.87C86.27,50.63,44.03,124.67,46.78,185.83c1.31,26.12,11.27,44.59,26.72,53.59,6.79,3.95,47.1,27.17,53.79,31.07-15.46-8.99-25.41-27.47-26.72-53.59-2.74-61.16,39.49-135.19,92.1-165.85,1.77-1.02,3.55-1.96,5.31-2.86,23.23-11.92,44.17-12.57,59.67-3.76-7.26-4.21-46.85-27.04-53.46-30.88-15.53-9.01-36.6-8.44-60,3.56Z"/><g class="cls-9"><path d="M165.88,281.25c-8.07,0-15.99-1.26-23.62-3.8-7.43-2.47-14.28-5.67-20.33-9.51-3.69-2.13-10.36-5.98-17.63-10.17-12.8-7.39-27.46-15.85-31.04-17.92l-.11-.07c-34.37-18.75-41.01-51.9-40.54-76.41,.23-11.29,3.88-19.77,10.83-25.2,12.01-9.39,29.62-6.69,36.64-5.1,14.37,3.26,35.67,21.49,43.82,37.51,6.6,12.97,9.88,27,10.96,46.91,1.16,21.34,6.81,36.47,16.78,44.98,7.28,6.2,16.9,8.73,28.58,7.5,38.89-4.08,82.03-52.09,97.91-94.36,6.31-16.79,9.17-30.95,11.25-41.3,2.26-11.2,3.75-18.61,7.94-21.03l.7-.41,.04,.81c.03,.58,.05,1.16,.07,1.75,.02,.52,.03,1.01,.04,1.51v.21l-.49,.09h.49c.39,25.79-7.61,55.04-22.52,82.35-14.83,27.15-35.21,50.08-57.39,64.58l-.38-.34,.27,.41c-.96,.62-1.9,1.23-2.86,1.81l-.38-.34,.26,.42c-.22,.14-.44,.27-.66,.4l-1.67,1c-.2,.12-.4,.24-.6,.36-1.15,.66-2.09,1.19-2.97,1.64-.81,.44-1.62,.86-2.44,1.28l-.26,.13c-.36,.18-.72,.36-1.07,.54l-.39,.18c-13.1,6.39-26.37,9.61-39.25,9.61ZM65.98,132.42c-7.21,0-15.44,1.43-21.95,6.51-6.71,5.24-10.22,13.47-10.45,24.45-.46,24.24,6.09,57.01,39.98,75.49l.12,.08c3.64,2.12,18.3,10.57,31.1,17.96,7.27,4.19,13.94,8.04,17.65,10.19,6.01,3.8,12.78,6.97,20.14,9.42,19.57,6.51,41.06,4.52,62.13-5.76l.38-.18c.35-.17,.71-.35,1.06-.53l.16-.08,.31,.39-.22-.44c.8-.41,1.61-.82,2.42-1.27,.88-.46,1.81-.97,2.94-1.63,.19-.11,.38-.23,.58-.34l1.69-1.01c.21-.12,.42-.25,.63-.38l.12-.08c.94-.58,1.88-1.18,2.82-1.79l.39,.34-.27-.41c46.11-30.14,80.27-92.95,79.46-146.1v-.27c-.01-.5-.02-.97-.04-1.45v-.08c-.01-.28-.02-.56-.03-.84-3.3,2.65-4.71,9.64-6.77,19.89-2.09,10.38-4.96,24.59-11.3,41.45-8.25,21.95-23.24,44.76-41.14,62.58-19.09,19.01-39.54,30.52-57.59,32.41-11.96,1.26-21.83-1.35-29.32-7.73-10.19-8.69-15.95-24.05-17.13-45.67-1.07-19.77-4.32-33.68-10.85-46.52-7.9-15.52-29.28-33.84-43.16-36.99-3.05-.69-8.13-1.6-13.87-1.6Z"/></g></g><g><polygon class="cls-3" points="54.15 217.64 54.15 298.59 107.93 329.66 107.94 248.71 54.15 217.64"/><path class="cls-8" d="M107.94,248.71c-4.58-2.41-9.11-4.92-13.64-7.44-4.52-2.52-9-5.11-13.5-7.67-4.46-2.62-8.95-5.21-13.39-7.86l-6.65-4c-2.2-1.37-4.42-2.7-6.6-4.09,2.3,1.2,4.56,2.45,6.84,3.67l6.79,3.76c4.52,2.52,9,5.11,13.5,7.67,4.46,2.62,8.95,5.21,13.39,7.87,4.44,2.66,8.88,5.33,13.26,8.09Z"/><path class="cls-8" d="M142.42,276.98c-7.39-2.46-13.95-5.54-19.75-9.17l4.63,2.67c-8.78-5.2-15.01-12.66-19.36-21.78v80.95l170.97-98.71v-38.7c-28.16,56.7-83.68,102.31-136.49,84.73Z"/><path class="cls-11" d="M107.94,320.43v4.61l84.22-48.62c-4.57,1.51-9.21,2.66-13.87,3.39l-70.35,40.61Zm136.4-78.76c-4.14,4.31-8.46,8.34-12.92,12.07l47.48-27.41v-4.61l-34.56,19.95Z"/><path class="cls-9" d="M107.94,320.43v4.61l84.22-48.62c-4.57,1.51-9.21,2.66-13.87,3.39l-70.35,40.61Zm136.4-78.76c-4.14,4.31-8.46,8.34-12.92,12.07l47.48-27.41v-4.61l-34.56,19.95Z"/><polygon class="cls-11" points="54.15 293.99 107.93 325.05 107.94 320.43 54.15 289.54 54.15 293.99"/></g><g><path class="cls-11" d="M115.93,309.73v-6.28c0-.82,.57-1.81,1.28-2.21l1.44-.83c.71-.41,1.28-.08,1.28,.74v6.28c0,.81-.57,1.81-1.28,2.21l-1.44,.83c-.71,.41-1.28,.08-1.28-.74Z"/><path class="cls-11" d="M123.92,305.12v-6.28c0-.82,.57-1.81,1.28-2.21l1.44-.83c.71-.41,1.28-.08,1.28,.74v6.28c0,.82-.57,1.81-1.28,2.21l-1.44,.83c-.71,.41-1.28,.08-1.28-.74Z"/></g><g><g><polygon class="cls-8" points="59.98 237.37 83.96 251.21 83.96 269.67 59.98 255.83 59.98 237.37"/><polygon class="cls-4" points="62.21 254.55 83.96 267.11 83.96 251.21 62.21 238.66 62.21 254.55"/><polygon class="cls-9" points="62.21 254.55 59.98 255.83 83.96 269.67 83.96 267.11 62.21 254.55"/><polygon class="cls-6" points="62.21 243.27 83.96 255.83 83.96 251.21 62.21 238.66 62.21 243.27"/></g><polygon class="cls-11" points="91.95 283.51 99.94 288.13 99.94 297.36 91.95 292.74 91.95 283.51"/><g><path class="cls-12" d="M75.21,270.59c-.67,0-1.4-.22-2.15-.65l-1.71-.99c-2.49-1.44-4.51-4.94-4.51-7.8v-8.69h.98v8.69c0,2.56,1.8,5.67,4.01,6.95l1.71,.99c.98,.56,1.87,.67,2.52,.3,.65-.37,1-1.2,1-2.33v-8.7h.98v8.7c0,1.5-.53,2.63-1.49,3.18-.41,.23-.87,.35-1.36,.35Z"/><path class="cls-12" d="M90.55,304.95c-1.43,0-3.1-.51-4.84-1.51-4.76-2.75-8.63-9.53-8.63-15.11v-29.96h.98v29.96c0,5.27,3.65,11.66,8.14,14.26,2.45,1.41,4.76,1.76,6.18,.94,.96-.56,1.47-1.62,1.47-3.07v-7.39h.98v7.39c0,1.79-.7,3.19-1.96,3.92-.67,.38-1.45,.57-2.33,.57Z"/><g><polygon class="cls-6" points="93.92 286.27 92.6 287.04 92.6 288.16 91.63 288.72 94.54 290.41 95.51 289.85 97.46 289.85 98.78 289.08 93.92 286.27"/><polygon class="cls-4" points="91.63 288.72 91.63 294.59 94.54 296.28 95.51 295.72 97.46 295.72 98.78 294.94 98.78 289.08 97.46 289.85 95.51 289.85 94.54 290.41 91.63 288.72"/><polygon class="cls-12" points="95.51 289.85 95.51 295.72 94.54 296.28 94.54 290.41 95.51 289.85"/><polygon class="cls-12" points="97.46 289.85 98.78 289.08 98.78 294.94 97.46 295.72 97.46 289.85"/></g><g><path class="cls-8" d="M75.72,255.17c-.47,.27-.76,.86-.76,1.69,0,1.66,1.17,3.68,2.6,4.51,.72,.41,1.37,.45,1.84,.18,.22-.12,1.06-.61,1.27-.73,.47-.27,.76-.86,.76-1.69,0-1.66-1.17-3.68-2.6-4.51-.72-.42-1.37-.45-1.84-.18l-1.27,.73Z"/><path class="cls-1" d="M77.57,261.37c-1.44-.83-2.6-2.85-2.6-4.51,0-.83,.29-1.41,.76-1.69,.47-.27,1.12-.23,1.84,.18,1.44,.83,2.6,2.85,2.6,4.51,0,.83-.29,1.41-.76,1.69-.47,.27-1.12,.23-1.84-.18Z"/></g><g><path class="cls-8" d="M65.49,249.27c-.47,.27-.76,.86-.76,1.69,0,1.66,1.17,3.68,2.6,4.51,.72,.42,1.37,.45,1.84,.18l1.27-.73c.47-.27,.76-.86,.76-1.69,0-1.66-1.17-3.68-2.6-4.51-.72-.42-1.37-.45-1.84-.18l-1.27,.73Z"/><path class="cls-1" d="M67.33,255.47c-1.44-.83-2.6-2.85-2.6-4.51,0-.83,.29-1.41,.76-1.69,.47-.27,1.12-.23,1.84,.18,1.44,.83,2.6,2.85,2.6,4.51,0,.83-.29,1.41-.76,1.69-.47,.27-1.12,.23-1.84-.18Z"/></g></g></g></g><g><g><path class="cls-4" d="M428.84,373.38c-.29-.89-1.03-1.74-2.23-2.43l-165.6-95.16c-3.16-1.81-8.28-1.81-11.44,0l-63.66,36.58c-1.34,.77-2.11,1.74-2.31,2.75-.04,.18-5.42,14.77-5.42,15.96,0,1.19,.79,2.38,2.37,3.29l170.96,98.24c3.16,1.81,8.28,1.81,11.44,0l69.03-39.67c1.97-1.13,2.71-2.71,2.22-4.17-.3-.88-4.88-13.93-5.36-15.38Z"/><path class="cls-6" d="M185.91,312.38l63.66-36.58c3.16-1.81,8.28-1.81,11.44,0l165.6,95.16c3.16,1.82,3.16,4.76,0,6.58l-63.62,36.61c-3.16,1.82-8.28,1.82-11.44,0l-165.64-95.19c-3.16-1.81-3.16-4.76,0-6.57Z"/></g><g><path class="cls-8" d="M396.79,321.19c0-1.19-.79-2.38-2.37-3.29l-128.04-73.58c-3.16-1.81-8.28-1.82-11.44,0l-36.84,21.17c-1.58,.91-2.37,2.1-2.37,3.29,0,1.19,0,48.79,0,49.98,0,1.19,.79,2.38,2.37,3.28l128.04,73.58c3.16,1.81,8.28,1.81,11.44,0l36.84-21.17c1.58-.91,2.37-2.1,2.37-3.29v-49.98Z"/><path class="cls-9" d="M394.42,317.9l-42.55-24.45v103.54c2.07,0,4.13-.45,5.71-1.36l36.84-21.17c1.58-.91,2.37-2.1,2.37-3.29v-49.98c0-1.19-.79-2.38-2.37-3.29Z"/><path class="cls-9" d="M394.42,317.9l-128.04-73.58c-3.16-1.81-8.28-1.82-11.44,0l-36.84,21.17c-1.58,.91-2.37,2.1-2.37,3.29,0,.39,0,5.83,0,12.97l98.97,56.87c1.58,.91,3.34,3.03,3.94,4.75l3.2,9.2c.6,1.71,2.36,3.84,3.94,4.75l31.83,18.29c1.58,.91,4.14,.91,5.72,0l33.46-19.23v-35.2c0-1.19-.79-2.38-2.37-3.29Z"/><path class="cls-10" d="M218.1,265.5l36.84-21.17c3.16-1.81,8.28-1.81,11.44,0l128.04,73.58c1.58,.91,2.37,2.1,2.37,3.29s-.79,2.38-2.37,3.29l-36.85,21.17c-3.16,1.81-8.28,1.81-11.44,0l-128.04-73.58c-1.58-.91-2.37-2.1-2.37-3.28,0-1.19,.79-2.38,2.37-3.29Z"/></g><g><g><path class="cls-6" d="M437.38,301.57c-.11,0-.22-.03-.33-.09l-180.54-103.75c-.32-.18-.42-.58-.24-.9,.18-.31,.58-.42,.9-.24l180.54,103.75c.32,.18,.42,.58,.24,.9-.12,.21-.34,.33-.57,.33Z"/><path class="cls-6" d="M276.15,214.74c-.11,0-.23-.03-.34-.09-5.8-3.46-10.6-6.78-10.6-12.29,0-.36,.29-.66,.66-.66s.66,.29,.66,.66c0,4.83,4.32,7.79,9.96,11.16,.31,.19,.41,.59,.23,.9-.12,.21-.34,.32-.57,.32Z"/><path class="cls-6" d="M297.61,227.07c-.11,0-.23-.03-.34-.09-5.8-3.46-10.6-6.78-10.6-12.29,0-.36,.29-.66,.66-.66s.66,.29,.66,.66c0,4.83,4.32,7.79,9.96,11.16,.31,.19,.41,.59,.23,.9-.12,.21-.34,.32-.57,.32Z"/><path class="cls-6" d="M319.06,239.4c-.11,0-.23-.03-.34-.09-5.8-3.46-10.6-6.78-10.6-12.29,0-.36,.3-.66,.66-.66s.66,.29,.66,.66c0,4.83,4.32,7.79,9.96,11.16,.31,.19,.41,.59,.23,.9-.12,.21-.34,.32-.57,.32Z"/><path class="cls-6" d="M340.52,251.73c-.11,0-.23-.03-.34-.09-5.8-3.46-10.6-6.78-10.6-12.29,0-.36,.3-.66,.66-.66s.66,.29,.66,.66c0,4.83,4.32,7.79,9.96,11.16,.31,.19,.41,.59,.23,.9-.12,.21-.34,.32-.57,.32Z"/><path class="cls-6" d="M361.98,264.06c-.11,0-.23-.03-.34-.09-5.8-3.46-10.6-6.78-10.6-12.29,0-.36,.29-.66,.66-.66s.66,.29,.66,.66c0,4.83,4.32,7.79,9.96,11.16,.31,.19,.41,.59,.23,.9-.12,.21-.34,.32-.57,.32Z"/><path class="cls-6" d="M383.44,276.39c-.11,0-.23-.03-.34-.09-5.8-3.46-10.6-6.78-10.6-12.29,0-.36,.29-.66,.66-.66s.66,.29,.66,.66c0,4.83,4.32,7.79,9.96,11.16,.31,.19,.41,.59,.23,.9-.12,.21-.34,.32-.57,.32Z"/><path class="cls-6" d="M404.9,288.72c-.11,0-.23-.03-.34-.09-5.8-3.46-10.6-6.78-10.6-12.29,0-.36,.29-.66,.66-.66s.66,.29,.66,.66c0,4.83,4.32,7.79,9.96,11.16,.31,.19,.41,.59,.23,.9-.12,.21-.34,.32-.57,.32Z"/><path class="cls-6" d="M426.36,301.04c-.11,0-.23-.03-.34-.09-5.8-3.46-10.6-6.78-10.6-12.29,0-.36,.29-.66,.66-.66s.66,.29,.66,.66c0,4.83,4.32,7.79,9.96,11.16,.31,.19,.41,.59,.23,.9-.12,.21-.34,.32-.57,.32Z"/></g><g><path class="cls-10" d="M318.63,337.94l3.2,9.2c.6,1.71,2.36,3.84,3.94,4.75l31.83,18.29c1.58,.91,4.14,.91,5.72,0l69.39-39.87c1.58-.91,2.86-3.11,2.86-4.93v-18.09c0-1.82-1.28-4.02-2.86-4.93l-176.68-101.53c-1.58-.91-4.14-.91-5.72,0l-69.39,39.87c-1.58,.91-2.86,3.11-2.86,4.93v5.76c0,1.81,1.28,4.02,2.86,4.93l133.76,76.87c1.58,.91,3.34,3.03,3.94,4.75Z"/><g><path class="cls-3" d="M360.47,345.54c-.95,0-1.88-.22-2.53-.59l-176.68-101.53c-.54-.31-.85-.7-.85-1.07s.31-.76,.85-1.07l69.39-39.87c.66-.38,1.58-.59,2.53-.59s1.88,.22,2.53,.59l176.68,101.53c.54,.31,.85,.7,.85,1.07s-.31,.76-.85,1.07l-69.39,39.87c-.66,.38-1.58,.59-2.53,.59Z"/><path class="cls-8" d="M253.18,201.47c.84,0,1.64,.18,2.2,.51l176.68,101.53c.43,.25,.52,.46,.52,.5s-.09,.25-.52,.5l-69.39,39.87c-.56,.32-1.36,.51-2.2,.51s-1.64-.18-2.2-.51l-176.68-101.53c-.43-.25-.52-.46-.52-.5s.09-.25,.52-.5l69.39-39.87c.56-.32,1.36-.51,2.2-.51m0-1.32c-1.03,0-2.07,.23-2.86,.68l-69.39,39.87c-1.58,.91-1.58,2.38,0,3.29l176.68,101.53c.79,.45,1.82,.68,2.86,.68s2.07-.23,2.86-.68l69.39-39.87c1.58-.91,1.58-2.38,0-3.29l-176.68-101.53c-.79-.45-1.82-.68-2.86-.68h0Z"/></g></g><g><path class="cls-6" d="M356.63,348.05c-.11,0-.22-.03-.33-.09l-180.54-103.75c-.32-.18-.42-.58-.24-.9,.18-.31,.59-.42,.9-.24l180.54,103.75c.32,.18,.42,.58,.24,.9-.12,.21-.34,.33-.57,.33Z"/><path class="cls-6" d="M195.4,261.22c-.11,0-.23-.03-.34-.09-5.8-3.46-10.6-6.78-10.6-12.29,0-.36,.29-.66,.66-.66s.66,.29,.66,.66c0,4.83,4.32,7.79,9.96,11.16,.31,.19,.41,.59,.23,.9-.12,.21-.34,.32-.57,.32Z"/><path class="cls-6" d="M216.86,273.55c-.11,0-.23-.03-.34-.09-5.8-3.46-10.6-6.78-10.6-12.29,0-.36,.29-.66,.66-.66s.66,.29,.66,.66c0,4.83,4.32,7.79,9.96,11.16,.31,.19,.41,.59,.23,.9-.12,.21-.34,.32-.57,.32Z"/><path class="cls-6" d="M238.32,285.88c-.11,0-.23-.03-.34-.09-5.8-3.46-10.6-6.78-10.6-12.29,0-.36,.29-.66,.66-.66s.66,.3,.66,.66c0,4.83,4.32,7.79,9.96,11.16,.31,.19,.41,.59,.23,.9-.12,.21-.34,.32-.57,.32Z"/><path class="cls-6" d="M259.78,298.21c-.11,0-.23-.03-.34-.09-5.8-3.46-10.6-6.78-10.6-12.29,0-.36,.3-.66,.66-.66s.66,.3,.66,.66c0,4.83,4.32,7.79,9.96,11.16,.31,.19,.41,.59,.23,.9-.12,.21-.34,.32-.57,.32Z"/><path class="cls-6" d="M281.24,310.53c-.11,0-.23-.03-.34-.09-5.8-3.46-10.6-6.78-10.6-12.29,0-.36,.3-.66,.66-.66s.66,.3,.66,.66c0,4.83,4.32,7.79,9.96,11.16,.31,.19,.41,.59,.23,.9-.12,.21-.34,.32-.57,.32Z"/><path class="cls-6" d="M302.7,322.86c-.11,0-.23-.03-.34-.09-5.8-3.46-10.6-6.78-10.6-12.29,0-.36,.29-.66,.66-.66s.66,.29,.66,.66c0,4.83,4.32,7.79,9.96,11.16,.31,.19,.41,.59,.23,.9-.12,.21-.34,.32-.57,.32Z"/><path class="cls-6" d="M324.16,335.19c-.11,0-.23-.03-.34-.09-5.8-3.46-10.6-6.78-10.6-12.29,0-.36,.29-.66,.66-.66s.66,.29,.66,.66c0,4.83,4.32,7.79,9.96,11.16,.31,.19,.41,.59,.23,.9-.12,.21-.34,.32-.57,.32Z"/><path class="cls-6" d="M345.62,347.52c-.11,0-.23-.03-.34-.09-5.8-3.46-10.6-6.78-10.6-12.29,0-.36,.29-.66,.66-.66s.66,.29,.66,.66c0,4.83,4.32,7.79,9.96,11.16,.31,.19,.41,.59,.23,.9-.12,.21-.34,.32-.57,.32Z"/></g></g><g><g><path class="cls-8" d="M254.86,190.85l-12.49,7.19c-8.5,10.12-17.93,18.47-27.88,24.18-8.7,5-17.03,7.54-24.73,7.54-.82,0-1.63-.03-2.43-.1l-7.57,4.36,171.67,98.64c10.82,3.04,23.71,1.01,37.55-6.94,13.84-7.95,26.73-20.74,37.55-36.23l-171.67-98.64Z"/><path class="cls-9" d="M414.04,296.68c-8.5,10.12-17.93,18.47-27.88,24.18-8.7,5-17.03,7.54-24.73,7.54-.82,0-1.63-.03-2.43-.1l-7.57,4.36c10.82,3.04,23.71,1.01,37.55-6.94,13.84-7.95,26.73-20.74,37.55-36.23l-12.49,7.19Z"/><polygon class="cls-1" points="359 328.3 187.33 229.66 179.76 234.02 351.43 332.66 359 328.3"/><polygon class="cls-1" points="254.86 190.85 242.38 198.04 414.04 296.68 426.53 289.49 254.86 190.85"/></g><g><path class="cls-11" d="M349.88,327.79c-.11,0-.23-.03-.33-.09l-160.99-92.51c-.32-.18-.42-.58-.24-.9,.18-.31,.59-.42,.9-.24l160.99,92.51c.32,.18,.42,.58,.24,.9-.12,.21-.34,.33-.57,.33Z"/><path class="cls-2" d="M349.88,327.79c-.11,0-.23-.03-.33-.09l-160.99-92.51c-.32-.18-.42-.58-.24-.9,.18-.31,.59-.42,.9-.24l160.99,92.51c.32,.18,.42,.58,.24,.9-.12,.21-.34,.33-.57,.33Z"/></g><g><path class="cls-11" d="M414.95,290.67c-.11,0-.23-.03-.33-.09l-160.99-92.51c-.32-.18-.42-.58-.24-.9,.18-.31,.59-.42,.9-.24l160.99,92.51c.32,.18,.42,.58,.24,.9-.12,.21-.34,.33-.57,.33Z"/><path class="cls-2" d="M414.95,290.67c-.11,0-.23-.03-.33-.09l-160.99-92.51c-.32-.18-.42-.58-.24-.9,.18-.31,.59-.42,.9-.24l160.99,92.51c.32,.18,.42,.58,.24,.9-.12,.21-.34,.33-.57,.33Z"/></g></g><g><path class="cls-11" d="M406.77,301.87l-166.1-95.46-40.5,23.25v2.1l166.11,95.46,40.5-23.25v-2.1Z"/><polygon class="cls-2" points="200.17 229.67 240.67 206.42 406.77 301.87 366.28 325.12 200.17 229.67"/><polygon class="cls-9" points="366.28 327.22 366.28 325.12 406.77 301.87 406.77 303.97 366.28 327.22"/></g><g id="Pillow"><path class="cls-5" d="M257,219.2c0-1.38-2.08-3.7-4.65-5.18l-10.33-5.93c-1.43-.82-2.72-1.21-3.57-1.15h-.01c-2.22,0-11.1,4.26-15.47,6.76-4.36,2.5-13.87,8.54-15.35,11.1-.49,.84,16.67,13.24,18.77,12.8,4.67-.97,13.12-4.97,17.45-7.6,7.08-4.3,11.08-7.87,12.49-9.4,.67-.73,.66-1.11,.66-1.41Z"/><path class="cls-8" d="M212.06,230.61l10.33,5.93c2.57,1.48,4.65,1.55,4.65,.17s-2.08-3.7-4.65-5.18l-10.33-5.93c-2.57-1.48-4.65-1.55-4.65-.17s2.08,3.7,4.65,5.18Z"/></g></g></g></g><g id="Device_1"><g id="Screen"><g><path class="cls-3" d="M289.27,110.18c-.35,0-.67-.07-.9-.21-.51-.3-.93-1.05-.93-1.68v-44.21c0-.63,.45-1.41,1-1.72l47.83-27.62c.27-.16,.65-.25,1.02-.25,.35,0,.67,.07,.9,.21,.51,.3,.93,1.05,.93,1.68v44.21c0,.63-.45,1.41-.99,1.72l-47.83,27.62c-.27,.16-.65,.25-1.02,.25Z"/><path class="cls-8" d="M337.28,34.61c.33,0,.63,.07,.85,.19,.47,.27,.87,1,.87,1.59v44.21c0,.59-.43,1.33-.94,1.62l-24.22,13.99-23.6,13.63c-.26,.15-.61,.23-.97,.23-.33,0-.63-.07-.85-.19-.47-.27-.87-1-.87-1.59v-44.21c0-.59,.43-1.33,.94-1.62l47.83-27.62c.26-.15,.61-.23,.97-.23m0-.22c-.38,0-.78,.09-1.08,.26l-47.83,27.62c-.58,.34-1.05,1.15-1.05,1.82v44.21c0,.67,.44,1.47,.98,1.78,.26,.15,.61,.22,.96,.22,.38,0,.78-.09,1.08-.26,7.25-4.19,40.58-23.43,47.83-27.62,.58-.33,1.05-1.15,1.05-1.82V36.39c0-.67-.44-1.47-.99-1.78-.26-.15-.61-.23-.96-.23h0Z"/></g><path class="cls-1" d="M290.35,110.03l47.83-27.62c.58-.33,1.05-1.15,1.05-1.82V36.39c0-.67-.47-.94-1.05-.61l-47.83,27.62c-.58,.33-1.05,1.15-1.05,1.82v44.21c0,.67,.47,.94,1.05,.61Z"/><path class="cls-6" d="M290.68,104.92v-36.83c0-.41,.29-.91,.65-1.12l45.86-26.48c.36-.21,.65-.04,.65,.37v36.83c0,.41-.29,.91-.64,1.12l-45.86,26.48c-.36,.21-.65,.04-.65-.37Z"/><path class="cls-8" d="M287.63,63.04l1.97,1.14c-.19,.33-.31,.7-.31,1.04v44.21c0,.61,.42,.95,1.05,.61-.64,.37-1.54,.32-2.04,.04-.54-.32-.99-.98-.99-1.65v-44.34c0-.33,.12-.71,.31-1.04Z"/><path class="cls-11" d="M313.68,94.08l2.38-1.36c.21-.12,.39-.04,.39,.19s-.17,.52-.39,.64l-2.38,1.36c-.21,.12-.39,.04-.39-.19s.17-.52,.39-.64Z"/></g></g></svg>