<?xml version="1.0" encoding="UTF-8"?><svg id="Character_3" xmlns="http://www.w3.org/2000/svg" viewBox="0 0 194.39 167.02"><defs><style>.cls-1{fill:#f0f0f0;}.cls-2,.cls-3,.cls-4,.cls-5,.cls-6,.cls-7,.cls-8{fill:#fff;}.cls-9{fill:#eec1bb;}.cls-10{fill:#fafafa;}.cls-11{fill:#9f5b53;}.cls-3{opacity:.4;}.cls-12{fill:#f5f5f5;}.cls-13{fill:#ebb376;}.cls-14,.cls-15,.cls-6{opacity:.2;}.cls-16{fill:#e0e0e0;}.cls-17{fill:#de5753;}.cls-4{opacity:.7;}.cls-4,.cls-5,.cls-15,.cls-18,.cls-19,.cls-8{isolation:isolate;}.cls-5{opacity:.1;}.cls-20{fill:none;stroke:#263238;stroke-linecap:round;stroke-linejoin:round;stroke-width:.69px;}.cls-21,.cls-18{opacity:.3;}.cls-22{fill:#ebebeb;}.cls-23{fill:#407bff;}.cls-24{fill:#d4827d;}.cls-25{fill:#d58745;}.cls-7,.cls-19,.cls-8{opacity:.6;}.cls-26{fill:#892b29;}.cls-27{fill:#263238;}</style></defs><g><rect class="cls-22" x=".28" y="149.51" width="193.83" height=".1"/><rect class="cls-22" x="161.84" y="155.75" width="12.84" height=".1"/><rect class="cls-22" x="125.31" y="156.8" width="3.37" height=".1"/><rect class="cls-22" x="154.02" y="152.15" width="7.44" height=".1"/><rect class="cls-22" x="20.62" y="152.8" width="16.74" height=".1"/><rect class="cls-22" x="40.81" y="152.8" width="2.45" height=".1"/><rect class="cls-22" x="51.25" y="154.44" width="36.31" height=".1"/><path class="cls-22" d="M92.16,132.22H17.3c-1.22,0-2.21-.99-2.21-2.21V24.79c0-1.22,.99-2.21,2.21-2.21H92.16c1.22,0,2.21,.99,2.21,2.21v105.22c0,1.22-.99,2.21-2.21,2.21ZM17.3,22.67c-1.17,0-2.12,.95-2.12,2.12v105.22c0,1.17,.95,2.12,2.12,2.12H92.16c1.17,0,2.12-.95,2.12-2.12V24.79c0-1.17-.95-2.12-2.12-2.12H17.3Z"/><path class="cls-22" d="M176.01,132.22H101.15c-1.22,0-2.21-.99-2.21-2.21V24.79c0-1.22,.99-2.21,2.21-2.21h74.85c1.22,0,2.21,.99,2.21,2.21v105.22c0,1.22-.99,2.21-2.21,2.21ZM101.15,22.67c-1.17,0-2.12,.95-2.12,2.12v105.22c0,1.17,.95,2.12,2.12,2.12h74.85c1.17,0,2.12-.95,2.12-2.12V24.79c0-1.17-.95-2.12-2.12-2.12H101.15Z"/></g><path class="cls-1" d="M151.21,51.14c0-1.78-1.45-3.23-3.23-3.23-.32,0-.63,.05-.93,.14,.05-.32,.07-.65,.07-.99,0-3.78-3.06-6.84-6.84-6.84-.43,0-.85,.04-1.26,.12-1.05-1.72-2.94-2.87-5.1-2.87-3.27,0-5.93,2.63-5.98,5.89-.03,0-.07,0-.1,0-3.04,0-5.51,2.47-5.51,5.51s2.47,5.51,5.51,5.51h20.22c1.74-.05,3.14-1.48,3.14-3.23Z"/><path class="cls-10" d="M44.49,76.04c0-.7-.57-1.26-1.26-1.26-.13,0-.25,.02-.36,.05,.02-.13,.03-.26,.03-.39,0-1.48-1.2-2.67-2.67-2.67-.17,0-.33,.02-.49,.05-.41-.67-1.15-1.12-2-1.12-1.28,0-2.32,1.03-2.34,2.3-.01,0-.03,0-.04,0-1.19,0-2.15,.96-2.15,2.15s.96,2.15,2.15,2.15h7.91c.68-.02,1.23-.58,1.23-1.26Z"/><path class="cls-10" d="M127.93,63.88c0-.7-.57-1.26-1.26-1.26-.13,0-.25,.02-.36,.05,.02-.13,.03-.26,.03-.39,0-1.48-1.2-2.67-2.67-2.67-.17,0-.33,.02-.49,.05-.41-.67-1.15-1.12-2-1.12-1.28,0-2.32,1.03-2.34,2.3-.01,0-.03,0-.04,0-1.19,0-2.15,.96-2.15,2.15s.96,2.15,2.15,2.15h7.91c.68-.02,1.23-.58,1.23-1.26Z"/><g><polygon class="cls-16" points="24.07 150.13 24.07 131.9 25.63 131.9 25.63 123.22 27.91 123.22 27.91 93.02 31.2 93.02 31.2 89.13 39.21 89.05 39.21 93.02 40.57 93.02 40.57 123.22 41.94 123.22 41.94 107.34 45.64 107.34 45.64 106.26 46.67 106.26 46.67 123.22 49.48 123.22 49.48 114.06 51.33 114.06 51.33 111.73 55.62 111.73 55.62 103.74 57.97 103.74 57.97 98.09 60.85 98.09 61.88 98.09 64.77 98.09 64.77 103.74 67.11 103.74 67.11 111.73 71.4 111.73 71.4 114.06 73.25 114.06 73.25 123.22 75.44 123.22 75.44 111.73 79.73 111.73 79.73 86.99 81.09 86.99 90.25 86.99 92.2 86.99 92.2 104.91 99.99 104.91 99.99 106.66 99.99 108.02 99.99 115.04 108.17 115.04 108.17 91.66 109.93 91.66 109.93 67.56 113.72 67.56 113.72 66.66 114.8 66.66 114.8 67.56 117.52 67.56 117.52 91.66 133.51 91.66 133.51 90.03 134.49 90.03 134.49 101.13 135.85 101.13 135.85 101.32 136.67 101.32 136.67 112.43 138.03 112.43 138.03 115.45 140.92 115.45 141.05 126.75 143.1 126.75 144.13 126.62 144.13 131.33 144.76 131.33 144.76 122.17 146.61 122.17 146.61 119.83 150.9 119.83 150.9 100.64 153.24 100.64 153.24 94.99 156.13 94.99 156.13 93.76 157.16 93.76 157.16 94.99 160.04 94.99 160.04 100.64 162.39 100.64 162.39 119.83 166.68 119.83 166.68 122.17 168.53 122.17 168.53 131.13 168.86 131.13 168.86 131.33 169.77 131.33 169.77 150.13 24.07 150.13"/><g><rect class="cls-10" x="123.49" y="92.75" width="1.1" height="1.1"/><rect class="cls-10" x="123.49" y="94.6" width="1.1" height="1.1"/><rect class="cls-10" x="123.49" y="102.01" width="1.1" height="1.1"/><rect class="cls-10" x="123.49" y="103.86" width="1.1" height="1.1"/><rect class="cls-10" x="123.49" y="105.71" width="1.1" height="1.1"/><rect class="cls-10" x="123.49" y="111.26" width="1.1" height="1.1"/><rect class="cls-10" x="123.49" y="113.11" width="1.1" height="1.1"/><rect class="cls-10" x="121.73" y="100.16" width="1.1" height="1.1"/><rect class="cls-10" x="121.73" y="102.01" width="1.1" height="1.1"/><rect class="cls-10" x="121.73" y="103.86" width="1.1" height="1.1"/><rect class="cls-10" x="121.73" y="105.71" width="1.1" height="1.1"/><rect class="cls-10" x="121.73" y="107.56" width="1.1" height="1.1"/><rect class="cls-10" x="121.73" y="111.26" width="1.1" height="1.1"/><rect class="cls-10" x="121.73" y="113.11" width="1.1" height="1.1"/><rect class="cls-10" x="119.98" y="92.75" width="1.1" height="1.1"/><rect class="cls-10" x="119.98" y="94.6" width="1.1" height="1.1"/><rect class="cls-10" x="119.98" y="96.45" width="1.1" height="1.1"/><rect class="cls-10" x="119.98" y="98.31" width="1.1" height="1.1"/><rect class="cls-10" x="119.98" y="100.16" width="1.1" height="1.1"/><rect class="cls-10" x="119.98" y="102.01" width="1.1" height="1.1"/><rect class="cls-10" x="119.98" y="103.86" width="1.1" height="1.1"/><rect class="cls-10" x="119.98" y="105.71" width="1.1" height="1.1"/><rect class="cls-10" x="119.98" y="107.56" width="1.1" height="1.1"/><rect class="cls-10" x="119.98" y="109.41" width="1.1" height="1.1"/><rect class="cls-10" x="119.98" y="113.11" width="1.1" height="1.1"/><rect class="cls-10" x="118.23" y="92.75" width="1.1" height="1.1"/><rect class="cls-10" x="118.23" y="94.6" width="1.1" height="1.1"/><rect class="cls-10" x="118.23" y="96.45" width="1.1" height="1.1"/><rect class="cls-10" x="118.23" y="98.31" width="1.1" height="1.1"/><rect class="cls-10" x="118.23" y="100.16" width="1.1" height="1.1"/><rect class="cls-10" x="118.23" y="102.01" width="1.1" height="1.1"/><rect class="cls-10" x="118.23" y="103.86" width="1.1" height="1.1"/><rect class="cls-10" x="118.23" y="120.51" width="1.1" height="1.1"/><rect class="cls-10" x="116.47" y="92.75" width="1.1" height="1.1"/><rect class="cls-10" x="116.47" y="94.6" width="1.1" height="1.1"/><rect class="cls-10" x="116.47" y="96.45" width="1.1" height="1.1"/><rect class="cls-10" x="116.47" y="98.31" width="1.1" height="1.1"/><rect class="cls-10" x="116.47" y="100.16" width="1.1" height="1.1"/><rect class="cls-10" x="116.47" y="102.01" width="1.1" height="1.1"/><rect class="cls-10" x="116.47" y="103.86" width="1.1" height="1.1"/><rect class="cls-10" x="116.47" y="105.71" width="1.1" height="1.1"/><rect class="cls-10" x="116.47" y="116.81" width="1.1" height="1.1"/><rect class="cls-10" x="116.47" y="118.66" width="1.1" height="1.1"/><rect class="cls-10" x="116.47" y="120.51" width="1.1" height="1.1"/><rect class="cls-10" x="116.47" y="122.36" width="1.1" height="1.1"/><rect class="cls-10" x="116.47" y="129.77" width="1.1" height="1.1"/><rect class="cls-10" x="114.72" y="92.75" width="1.1" height="1.1"/><rect class="cls-10" x="114.72" y="94.6" width="1.1" height="1.1"/><rect class="cls-10" x="114.72" y="96.45" width="1.1" height="1.1"/><rect class="cls-10" x="114.72" y="98.31" width="1.1" height="1.1"/><rect class="cls-10" x="114.72" y="100.16" width="1.1" height="1.1"/><rect class="cls-10" x="114.72" y="102.01" width="1.1" height="1.1"/><rect class="cls-10" x="114.72" y="103.86" width="1.1" height="1.1"/><rect class="cls-10" x="114.72" y="105.71" width="1.1" height="1.1"/><rect class="cls-10" x="114.72" y="107.56" width="1.1" height="1.1"/><rect class="cls-10" x="114.72" y="109.41" width="1.1" height="1.1"/><rect class="cls-10" x="114.72" y="114.96" width="1.1" height="1.1"/><rect class="cls-10" x="114.72" y="116.81" width="1.1" height="1.1"/><rect class="cls-10" x="114.72" y="118.66" width="1.1" height="1.1"/><rect class="cls-10" x="114.72" y="120.51" width="1.1" height="1.1"/><rect class="cls-10" x="114.72" y="122.36" width="1.1" height="1.1"/><rect class="cls-10" x="114.72" y="129.77" width="1.1" height="1.1"/><rect class="cls-10" x="112.97" y="92.75" width="1.1" height="1.1"/><rect class="cls-10" x="112.97" y="94.6" width="1.1" height="1.1"/><rect class="cls-10" x="112.97" y="96.45" width="1.1" height="1.1"/><rect class="cls-10" x="112.97" y="98.31" width="1.1" height="1.1"/><rect class="cls-10" x="112.97" y="100.16" width="1.1" height="1.1"/><rect class="cls-10" x="112.97" y="102.01" width="1.1" height="1.1"/><rect class="cls-10" x="112.97" y="103.86" width="1.1" height="1.1"/><rect class="cls-10" x="112.97" y="105.71" width="1.1" height="1.1"/><rect class="cls-10" x="112.97" y="107.56" width="1.1" height="1.1"/><rect class="cls-10" x="112.97" y="109.41" width="1.1" height="1.1"/><rect class="cls-10" x="112.97" y="111.26" width="1.1" height="1.1"/><rect class="cls-10" x="112.97" y="113.11" width="1.1" height="1.1"/><rect class="cls-10" x="112.97" y="114.96" width="1.1" height="1.1"/><rect class="cls-10" x="112.97" y="116.81" width="1.1" height="1.1"/><rect class="cls-10" x="112.97" y="118.66" width="1.1" height="1.1"/><rect class="cls-10" x="112.97" y="120.51" width="1.1" height="1.1"/><rect class="cls-10" x="112.97" y="122.36" width="1.1" height="1.1"/><rect class="cls-10" x="112.97" y="124.22" width="1.1" height="1.1"/><rect class="cls-10" x="111.21" y="92.75" width="1.1" height="1.1"/><rect class="cls-10" x="111.21" y="94.6" width="1.1" height="1.1"/><rect class="cls-10" x="111.21" y="96.45" width="1.1" height="1.1"/><rect class="cls-10" x="111.21" y="98.31" width="1.1" height="1.1"/><rect class="cls-10" x="111.21" y="100.16" width="1.1" height="1.1"/><rect class="cls-10" x="111.21" y="102.01" width="1.1" height="1.1"/><rect class="cls-10" x="111.21" y="103.86" width="1.1" height="1.1"/><rect class="cls-10" x="111.21" y="105.71" width="1.1" height="1.1"/><rect class="cls-10" x="111.21" y="107.56" width="1.1" height="1.1"/><rect class="cls-10" x="111.21" y="109.41" width="1.1" height="1.1"/><rect class="cls-10" x="111.21" y="114.96" width="1.1" height="1.1"/><rect class="cls-10" x="111.21" y="116.81" width="1.1" height="1.1"/><rect class="cls-10" x="111.21" y="118.66" width="1.1" height="1.1"/><rect class="cls-10" x="111.21" y="120.51" width="1.1" height="1.1"/><rect class="cls-10" x="109.46" y="92.75" width="1.1" height="1.1"/><rect class="cls-10" x="109.46" y="94.6" width="1.1" height="1.1"/><rect class="cls-10" x="109.46" y="96.45" width="1.1" height="1.1"/><rect class="cls-10" x="109.46" y="98.31" width="1.1" height="1.1"/><rect class="cls-10" x="109.46" y="100.16" width="1.1" height="1.1"/><rect class="cls-10" x="109.46" y="102.01" width="1.1" height="1.1"/><rect class="cls-10" x="109.46" y="103.86" width="1.1" height="1.1"/><rect class="cls-10" x="109.46" y="105.71" width="1.1" height="1.1"/><rect class="cls-10" x="109.46" y="107.56" width="1.1" height="1.1"/><rect class="cls-10" x="109.46" y="109.41" width="1.1" height="1.1"/><rect class="cls-10" x="109.46" y="114.96" width="1.1" height="1.1"/><rect class="cls-10" x="109.46" y="116.81" width="1.1" height="1.1"/><rect class="cls-10" x="109.46" y="118.66" width="1.1" height="1.1"/><rect class="cls-10" x="89.72" y="87.95" width="1.1" height="1.1"/><rect class="cls-10" x="89.72" y="89.8" width="1.1" height="1.1"/><rect class="cls-10" x="89.72" y="91.65" width="1.1" height="1.1"/><rect class="cls-10" x="89.72" y="93.5" width="1.1" height="1.1"/><rect class="cls-10" x="89.72" y="95.35" width="1.1" height="1.1"/><rect class="cls-10" x="89.72" y="97.2" width="1.1" height="1.1"/><rect class="cls-10" x="89.72" y="99.05" width="1.1" height="1.1"/><rect class="cls-10" x="89.72" y="100.9" width="1.1" height="1.1"/><rect class="cls-10" x="89.72" y="106.45" width="1.1" height="1.1"/><rect class="cls-10" x="89.72" y="108.31" width="1.1" height="1.1"/><rect class="cls-10" x="87.97" y="87.95" width="1.1" height="1.1"/><rect class="cls-10" x="87.97" y="89.8" width="1.1" height="1.1"/><rect class="cls-10" x="87.97" y="91.65" width="1.1" height="1.1"/><rect class="cls-10" x="87.97" y="93.5" width="1.1" height="1.1"/><rect class="cls-10" x="87.97" y="95.35" width="1.1" height="1.1"/><rect class="cls-10" x="87.97" y="97.2" width="1.1" height="1.1"/><rect class="cls-10" x="87.97" y="99.05" width="1.1" height="1.1"/><rect class="cls-10" x="87.97" y="100.9" width="1.1" height="1.1"/><rect class="cls-10" x="87.97" y="108.31" width="1.1" height="1.1"/><rect class="cls-10" x="86.21" y="87.95" width="1.1" height="1.1"/><rect class="cls-10" x="86.21" y="89.8" width="1.1" height="1.1"/><rect class="cls-10" x="86.21" y="91.65" width="1.1" height="1.1"/><rect class="cls-10" x="86.21" y="93.5" width="1.1" height="1.1"/><rect class="cls-10" x="86.21" y="95.35" width="1.1" height="1.1"/><rect class="cls-10" x="86.21" y="97.2" width="1.1" height="1.1"/><rect class="cls-10" x="86.21" y="99.05" width="1.1" height="1.1"/><rect class="cls-10" x="86.21" y="100.9" width="1.1" height="1.1"/><rect class="cls-10" x="84.46" y="87.95" width="1.1" height="1.1"/><rect class="cls-10" x="84.46" y="89.8" width="1.1" height="1.1"/><rect class="cls-10" x="84.46" y="91.65" width="1.1" height="1.1"/><rect class="cls-10" x="84.46" y="93.5" width="1.1" height="1.1"/><rect class="cls-10" x="84.46" y="95.35" width="1.1" height="1.1"/><rect class="cls-10" x="84.46" y="97.2" width="1.1" height="1.1"/><rect class="cls-10" x="84.46" y="100.9" width="1.1" height="1.1"/><rect class="cls-10" x="84.46" y="102.75" width="1.1" height="1.1"/><rect class="cls-10" x="84.46" y="108.31" width="1.1" height="1.1"/><rect class="cls-10" x="84.46" y="110.16" width="1.1" height="1.1"/><rect class="cls-10" x="84.46" y="112.01" width="1.1" height="1.1"/><rect class="cls-10" x="84.46" y="113.86" width="1.1" height="1.1"/><rect class="cls-10" x="84.46" y="115.71" width="1.1" height="1.1"/><rect class="cls-10" x="84.46" y="117.56" width="1.1" height="1.1"/><rect class="cls-10" x="84.46" y="119.41" width="1.1" height="1.1"/><rect class="cls-10" x="82.71" y="87.95" width="1.1" height="1.1"/><rect class="cls-10" x="82.71" y="89.8" width="1.1" height="1.1"/><rect class="cls-10" x="82.71" y="91.65" width="1.1" height="1.1"/><rect class="cls-10" x="82.71" y="93.5" width="1.1" height="1.1"/><rect class="cls-10" x="82.71" y="95.35" width="1.1" height="1.1"/><rect class="cls-10" x="82.71" y="97.2" width="1.1" height="1.1"/><rect class="cls-10" x="82.71" y="102.75" width="1.1" height="1.1"/><rect class="cls-10" x="82.71" y="104.6" width="1.1" height="1.1"/><rect class="cls-10" x="82.71" y="106.45" width="1.1" height="1.1"/><rect class="cls-10" x="82.71" y="108.31" width="1.1" height="1.1"/><rect class="cls-10" x="82.71" y="110.16" width="1.1" height="1.1"/><rect class="cls-10" x="82.71" y="112.01" width="1.1" height="1.1"/><rect class="cls-10" x="82.71" y="113.86" width="1.1" height="1.1"/><rect class="cls-10" x="82.71" y="115.71" width="1.1" height="1.1"/><rect class="cls-10" x="82.71" y="117.56" width="1.1" height="1.1"/><rect class="cls-10" x="82.71" y="119.41" width="1.1" height="1.1"/><rect class="cls-10" x="82.71" y="121.26" width="1.1" height="1.1"/><rect class="cls-10" x="82.71" y="124.96" width="1.1" height="1.1"/><rect class="cls-10" x="80.95" y="87.95" width="1.1" height="1.1"/><rect class="cls-10" x="80.95" y="89.8" width="1.1" height="1.1"/><rect class="cls-10" x="80.95" y="91.65" width="1.1" height="1.1"/><rect class="cls-10" x="80.95" y="93.5" width="1.1" height="1.1"/><rect class="cls-10" x="80.95" y="95.35" width="1.1" height="1.1"/><rect class="cls-10" x="80.95" y="97.2" width="1.1" height="1.1"/><rect class="cls-10" x="80.95" y="102.75" width="1.1" height="1.1"/><rect class="cls-10" x="80.95" y="104.6" width="1.1" height="1.1"/><rect class="cls-10" x="80.95" y="106.45" width="1.1" height="1.1"/><rect class="cls-10" x="80.95" y="108.31" width="1.1" height="1.1"/><rect class="cls-10" x="80.95" y="113.86" width="1.1" height="1.1"/><rect class="cls-10" x="80.95" y="115.71" width="1.1" height="1.1"/><rect class="cls-10" x="80.95" y="117.56" width="1.1" height="1.1"/><rect class="cls-10" x="80.95" y="119.41" width="1.1" height="1.1"/><rect class="cls-10" x="80.95" y="121.26" width="1.1" height="1.1"/><rect class="cls-10" x="80.95" y="124.96" width="1.1" height="1.1"/><rect class="cls-10" x="80.95" y="126.81" width="1.1" height="1.1"/><rect class="cls-10" x="65.04" y="105.16" width="1.1" height="1.1"/><rect class="cls-10" x="65.04" y="107.01" width="1.1" height="1.1"/><rect class="cls-10" x="65.04" y="108.86" width="1.1" height="1.1"/><rect class="cls-10" x="65.04" y="110.71" width="1.1" height="1.1"/><rect class="cls-10" x="65.04" y="112.56" width="1.1" height="1.1"/><rect class="cls-10" x="65.04" y="114.41" width="1.1" height="1.1"/><rect class="cls-10" x="65.04" y="116.26" width="1.1" height="1.1"/><rect class="cls-10" x="65.04" y="121.81" width="1.1" height="1.1"/><rect class="cls-10" x="65.04" y="123.66" width="1.1" height="1.1"/><rect class="cls-10" x="65.04" y="125.51" width="1.1" height="1.1"/><rect class="cls-10" x="63.29" y="105.16" width="1.1" height="1.1"/><rect class="cls-10" x="63.29" y="107.01" width="1.1" height="1.1"/><rect class="cls-10" x="63.29" y="108.86" width="1.1" height="1.1"/><rect class="cls-10" x="63.29" y="110.71" width="1.1" height="1.1"/><rect class="cls-10" x="63.29" y="112.56" width="1.1" height="1.1"/><rect class="cls-10" x="63.29" y="114.41" width="1.1" height="1.1"/><rect class="cls-10" x="63.29" y="116.26" width="1.1" height="1.1"/><rect class="cls-10" x="61.54" y="105.16" width="1.1" height="1.1"/><rect class="cls-10" x="61.54" y="107.01" width="1.1" height="1.1"/><rect class="cls-10" x="61.54" y="108.86" width="1.1" height="1.1"/><rect class="cls-10" x="61.54" y="110.71" width="1.1" height="1.1"/><rect class="cls-10" x="61.54" y="112.56" width="1.1" height="1.1"/><rect class="cls-10" x="61.54" y="114.41" width="1.1" height="1.1"/><rect class="cls-10" x="61.54" y="116.26" width="1.1" height="1.1"/><rect class="cls-10" x="59.78" y="105.16" width="1.1" height="1.1"/><rect class="cls-10" x="59.78" y="107.01" width="1.1" height="1.1"/><rect class="cls-10" x="59.78" y="108.86" width="1.1" height="1.1"/><rect class="cls-10" x="59.78" y="110.71" width="1.1" height="1.1"/><rect class="cls-10" x="59.78" y="112.56" width="1.1" height="1.1"/><rect class="cls-10" x="59.78" y="114.41" width="1.1" height="1.1"/><rect class="cls-10" x="59.78" y="116.26" width="1.1" height="1.1"/><rect class="cls-10" x="59.78" y="118.11" width="1.1" height="1.1"/><rect class="cls-10" x="59.78" y="119.96" width="1.1" height="1.1"/><rect class="cls-10" x="59.78" y="121.81" width="1.1" height="1.1"/><rect class="cls-10" x="59.78" y="123.66" width="1.1" height="1.1"/><rect class="cls-10" x="58.03" y="105.16" width="1.1" height="1.1"/><rect class="cls-10" x="58.03" y="107.01" width="1.1" height="1.1"/><rect class="cls-10" x="58.03" y="108.86" width="1.1" height="1.1"/><rect class="cls-10" x="58.03" y="110.71" width="1.1" height="1.1"/><rect class="cls-10" x="58.03" y="112.56" width="1.1" height="1.1"/><rect class="cls-10" x="58.03" y="114.41" width="1.1" height="1.1"/><rect class="cls-10" x="58.03" y="116.26" width="1.1" height="1.1"/><rect class="cls-10" x="58.03" y="118.11" width="1.1" height="1.1"/><rect class="cls-10" x="58.03" y="119.96" width="1.1" height="1.1"/><rect class="cls-10" x="58.03" y="121.81" width="1.1" height="1.1"/><rect class="cls-10" x="58.03" y="123.66" width="1.1" height="1.1"/><rect class="cls-10" x="58.03" y="125.51" width="1.1" height="1.1"/><rect class="cls-10" x="58.03" y="131.07" width="1.1" height="1.1"/><rect class="cls-10" x="58.03" y="132.92" width="1.1" height="1.1"/><rect class="cls-10" x="56.28" y="105.16" width="1.1" height="1.1"/><rect class="cls-10" x="56.28" y="107.01" width="1.1" height="1.1"/><rect class="cls-10" x="56.28" y="108.86" width="1.1" height="1.1"/><rect class="cls-10" x="56.28" y="114.41" width="1.1" height="1.1"/><rect class="cls-10" x="56.28" y="116.26" width="1.1" height="1.1"/><rect class="cls-10" x="56.28" y="118.11" width="1.1" height="1.1"/><rect class="cls-10" x="56.28" y="119.96" width="1.1" height="1.1"/><rect class="cls-10" x="56.28" y="121.81" width="1.1" height="1.1"/><rect class="cls-10" x="56.28" y="123.66" width="1.1" height="1.1"/><rect class="cls-10" x="56.28" y="125.51" width="1.1" height="1.1"/><rect class="cls-10" x="56.28" y="131.07" width="1.1" height="1.1"/><rect class="cls-10" x="56.28" y="132.92" width="1.1" height="1.1"/><rect class="cls-10" x="56.28" y="134.77" width="1.1" height="1.1"/><rect class="cls-10" x="37.9" y="94.05" width="1.1" height="1.1"/><rect class="cls-10" x="37.9" y="95.9" width="1.1" height="1.1"/><rect class="cls-10" x="37.9" y="97.75" width="1.1" height="1.1"/><rect class="cls-10" x="37.9" y="99.6" width="1.1" height="1.1"/><rect class="cls-10" x="37.9" y="101.45" width="1.1" height="1.1"/><rect class="cls-10" x="37.9" y="103.31" width="1.1" height="1.1"/><rect class="cls-10" x="37.9" y="105.16" width="1.1" height="1.1"/><rect class="cls-10" x="37.9" y="107.01" width="1.1" height="1.1"/><rect class="cls-10" x="37.9" y="108.86" width="1.1" height="1.1"/><rect class="cls-10" x="37.9" y="110.71" width="1.1" height="1.1"/><rect class="cls-10" x="37.9" y="112.56" width="1.1" height="1.1"/><rect class="cls-10" x="37.9" y="114.41" width="1.1" height="1.1"/><rect class="cls-10" x="37.9" y="116.26" width="1.1" height="1.1"/><rect class="cls-10" x="37.9" y="118.11" width="1.1" height="1.1"/><rect class="cls-10" x="37.9" y="119.96" width="1.1" height="1.1"/><rect class="cls-10" x="37.9" y="121.81" width="1.1" height="1.1"/><rect class="cls-10" x="37.9" y="123.66" width="1.1" height="1.1"/><rect class="cls-10" x="37.9" y="125.51" width="1.1" height="1.1"/><rect class="cls-10" x="37.9" y="127.36" width="1.1" height="1.1"/><rect class="cls-10" x="37.9" y="129.22" width="1.1" height="1.1"/><rect class="cls-10" x="37.9" y="131.07" width="1.1" height="1.1"/><rect class="cls-10" x="37.9" y="132.92" width="1.1" height="1.1"/><rect class="cls-10" x="37.9" y="134.77" width="1.1" height="1.1"/><rect class="cls-10" x="36.15" y="94.05" width="1.1" height="1.1"/><rect class="cls-10" x="36.15" y="95.9" width="1.1" height="1.1"/><rect class="cls-10" x="36.15" y="97.75" width="1.1" height="1.1"/><rect class="cls-10" x="36.15" y="99.6" width="1.1" height="1.1"/><rect class="cls-10" x="36.15" y="101.45" width="1.1" height="1.1"/><rect class="cls-10" x="36.15" y="103.31" width="1.1" height="1.1"/><rect class="cls-10" x="36.15" y="105.16" width="1.1" height="1.1"/><rect class="cls-10" x="36.15" y="107.01" width="1.1" height="1.1"/><rect class="cls-10" x="36.15" y="108.86" width="1.1" height="1.1"/><rect class="cls-10" x="36.15" y="110.71" width="1.1" height="1.1"/><rect class="cls-10" x="36.15" y="112.56" width="1.1" height="1.1"/><rect class="cls-10" x="36.15" y="114.41" width="1.1" height="1.1"/><rect class="cls-10" x="36.15" y="116.26" width="1.1" height="1.1"/><rect class="cls-10" x="36.15" y="118.11" width="1.1" height="1.1"/><rect class="cls-10" x="36.15" y="119.96" width="1.1" height="1.1"/><rect class="cls-10" x="36.15" y="121.81" width="1.1" height="1.1"/><rect class="cls-10" x="36.15" y="123.66" width="1.1" height="1.1"/><rect class="cls-10" x="36.15" y="125.51" width="1.1" height="1.1"/><rect class="cls-10" x="36.15" y="127.36" width="1.1" height="1.1"/><rect class="cls-10" x="34.39" y="94.05" width="1.1" height="1.1"/><rect class="cls-10" x="34.39" y="95.9" width="1.1" height="1.1"/><rect class="cls-10" x="34.39" y="97.75" width="1.1" height="1.1"/><rect class="cls-10" x="34.39" y="99.6" width="1.1" height="1.1"/><rect class="cls-10" x="34.39" y="101.45" width="1.1" height="1.1"/><rect class="cls-10" x="34.39" y="103.31" width="1.1" height="1.1"/><rect class="cls-10" x="34.39" y="105.16" width="1.1" height="1.1"/><rect class="cls-10" x="34.39" y="107.01" width="1.1" height="1.1"/><rect class="cls-10" x="34.39" y="108.86" width="1.1" height="1.1"/><rect class="cls-10" x="34.39" y="110.71" width="1.1" height="1.1"/><rect class="cls-10" x="34.39" y="112.56" width="1.1" height="1.1"/><rect class="cls-10" x="34.39" y="114.41" width="1.1" height="1.1"/><rect class="cls-10" x="34.39" y="116.26" width="1.1" height="1.1"/><rect class="cls-10" x="34.39" y="118.11" width="1.1" height="1.1"/><rect class="cls-10" x="34.39" y="119.96" width="1.1" height="1.1"/><rect class="cls-10" x="34.39" y="121.81" width="1.1" height="1.1"/><rect class="cls-10" x="34.39" y="123.66" width="1.1" height="1.1"/><rect class="cls-10" x="34.39" y="125.51" width="1.1" height="1.1"/><rect class="cls-10" x="34.39" y="127.36" width="1.1" height="1.1"/><rect class="cls-10" x="32.64" y="94.05" width="1.1" height="1.1"/><rect class="cls-10" x="32.64" y="95.9" width="1.1" height="1.1"/><rect class="cls-10" x="32.64" y="97.75" width="1.1" height="1.1"/><rect class="cls-10" x="32.64" y="99.6" width="1.1" height="1.1"/><rect class="cls-10" x="32.64" y="101.45" width="1.1" height="1.1"/><rect class="cls-10" x="32.64" y="103.31" width="1.1" height="1.1"/><rect class="cls-10" x="32.64" y="105.16" width="1.1" height="1.1"/><rect class="cls-10" x="32.64" y="107.01" width="1.1" height="1.1"/><rect class="cls-10" x="32.64" y="108.86" width="1.1" height="1.1"/><rect class="cls-10" x="32.64" y="110.71" width="1.1" height="1.1"/><rect class="cls-10" x="32.64" y="112.56" width="1.1" height="1.1"/><rect class="cls-10" x="32.64" y="114.41" width="1.1" height="1.1"/><rect class="cls-10" x="32.64" y="116.26" width="1.1" height="1.1"/><rect class="cls-10" x="32.64" y="118.11" width="1.1" height="1.1"/><rect class="cls-10" x="32.64" y="119.96" width="1.1" height="1.1"/><rect class="cls-10" x="30.89" y="94.05" width="1.1" height="1.1"/><rect class="cls-10" x="30.89" y="95.9" width="1.1" height="1.1"/><rect class="cls-10" x="30.89" y="97.75" width="1.1" height="1.1"/><rect class="cls-10" x="30.89" y="99.6" width="1.1" height="1.1"/><rect class="cls-10" x="30.89" y="101.45" width="1.1" height="1.1"/><rect class="cls-10" x="30.89" y="103.31" width="1.1" height="1.1"/><rect class="cls-10" x="30.89" y="105.16" width="1.1" height="1.1"/><rect class="cls-10" x="30.89" y="107.01" width="1.1" height="1.1"/><rect class="cls-10" x="30.89" y="108.86" width="1.1" height="1.1"/><rect class="cls-10" x="30.89" y="110.71" width="1.1" height="1.1"/><rect class="cls-10" x="30.89" y="112.56" width="1.1" height="1.1"/><rect class="cls-10" x="30.89" y="114.41" width="1.1" height="1.1"/><rect class="cls-10" x="30.89" y="116.26" width="1.1" height="1.1"/><rect class="cls-10" x="29.13" y="94.05" width="1.1" height="1.1"/><rect class="cls-10" x="29.13" y="95.9" width="1.1" height="1.1"/><rect class="cls-10" x="29.13" y="97.75" width="1.1" height="1.1"/><rect class="cls-10" x="29.13" y="99.6" width="1.1" height="1.1"/><rect class="cls-10" x="29.13" y="101.45" width="1.1" height="1.1"/><rect class="cls-10" x="29.13" y="103.31" width="1.1" height="1.1"/><rect class="cls-10" x="29.13" y="105.16" width="1.1" height="1.1"/><rect class="cls-10" x="29.13" y="107.01" width="1.1" height="1.1"/><rect class="cls-10" x="29.13" y="108.86" width="1.1" height="1.1"/><rect class="cls-10" x="29.13" y="110.71" width="1.1" height="1.1"/><rect class="cls-10" x="29.13" y="112.56" width="1.1" height="1.1"/><rect class="cls-10" x="29.13" y="114.41" width="1.1" height="1.1"/><rect class="cls-10" x="157.97" y="107.56" width="1.1" height="1.1"/><rect class="cls-10" x="157.97" y="109.41" width="1.1" height="1.1"/><rect class="cls-10" x="157.97" y="111.26" width="1.1" height="1.1"/><rect class="cls-10" x="157.97" y="113.11" width="1.1" height="1.1"/><rect class="cls-10" x="157.97" y="114.96" width="1.1" height="1.1"/><rect class="cls-10" x="157.97" y="116.81" width="1.1" height="1.1"/><rect class="cls-10" x="157.97" y="118.66" width="1.1" height="1.1"/><rect class="cls-10" x="157.97" y="120.51" width="1.1" height="1.1"/><rect class="cls-10" x="157.97" y="122.36" width="1.1" height="1.1"/><rect class="cls-10" x="157.97" y="124.22" width="1.1" height="1.1"/><rect class="cls-10" x="157.97" y="126.07" width="1.1" height="1.1"/><rect class="cls-10" x="157.97" y="127.92" width="1.1" height="1.1"/><rect class="cls-10" x="157.97" y="129.77" width="1.1" height="1.1"/><rect class="cls-10" x="157.97" y="131.62" width="1.1" height="1.1"/><rect class="cls-10" x="157.97" y="133.47" width="1.1" height="1.1"/><rect class="cls-10" x="157.97" y="135.32" width="1.1" height="1.1"/><rect class="cls-10" x="157.97" y="137.17" width="1.1" height="1.1"/><rect class="cls-10" x="157.97" y="139.02" width="1.1" height="1.1"/><rect class="cls-10" x="157.97" y="140.87" width="1.1" height="1.1"/><rect class="cls-10" x="157.97" y="142.72" width="1.1" height="1.1"/><rect class="cls-10" x="156.22" y="107.56" width="1.1" height="1.1"/><rect class="cls-10" x="156.22" y="109.41" width="1.1" height="1.1"/><rect class="cls-10" x="156.22" y="111.26" width="1.1" height="1.1"/><rect class="cls-10" x="156.22" y="113.11" width="1.1" height="1.1"/><rect class="cls-10" x="156.22" y="114.96" width="1.1" height="1.1"/><rect class="cls-10" x="156.22" y="116.81" width="1.1" height="1.1"/><rect class="cls-10" x="156.22" y="118.66" width="1.1" height="1.1"/><rect class="cls-10" x="156.22" y="120.51" width="1.1" height="1.1"/><rect class="cls-10" x="156.22" y="122.36" width="1.1" height="1.1"/><rect class="cls-10" x="156.22" y="124.22" width="1.1" height="1.1"/><rect class="cls-10" x="156.22" y="126.07" width="1.1" height="1.1"/><rect class="cls-10" x="156.22" y="127.92" width="1.1" height="1.1"/><rect class="cls-10" x="156.22" y="129.77" width="1.1" height="1.1"/><rect class="cls-10" x="156.22" y="131.62" width="1.1" height="1.1"/><rect class="cls-10" x="156.22" y="133.47" width="1.1" height="1.1"/><rect class="cls-10" x="156.22" y="135.32" width="1.1" height="1.1"/><rect class="cls-10" x="156.22" y="137.17" width="1.1" height="1.1"/><rect class="cls-10" x="156.22" y="139.02" width="1.1" height="1.1"/><rect class="cls-10" x="154.46" y="107.56" width="1.1" height="1.1"/><rect class="cls-10" x="154.46" y="109.41" width="1.1" height="1.1"/><rect class="cls-10" x="154.46" y="111.26" width="1.1" height="1.1"/><rect class="cls-10" x="154.46" y="113.11" width="1.1" height="1.1"/><rect class="cls-10" x="154.46" y="114.96" width="1.1" height="1.1"/><rect class="cls-10" x="154.46" y="116.81" width="1.1" height="1.1"/><rect class="cls-10" x="154.46" y="118.66" width="1.1" height="1.1"/><rect class="cls-10" x="154.46" y="120.51" width="1.1" height="1.1"/><rect class="cls-10" x="154.46" y="122.36" width="1.1" height="1.1"/><rect class="cls-10" x="154.46" y="124.22" width="1.1" height="1.1"/><rect class="cls-10" x="154.46" y="126.07" width="1.1" height="1.1"/><rect class="cls-10" x="154.46" y="127.92" width="1.1" height="1.1"/><rect class="cls-10" x="154.46" y="129.77" width="1.1" height="1.1"/><rect class="cls-10" x="154.46" y="131.62" width="1.1" height="1.1"/><rect class="cls-10" x="154.46" y="133.47" width="1.1" height="1.1"/><rect class="cls-10" x="154.46" y="135.32" width="1.1" height="1.1"/><rect class="cls-10" x="154.46" y="137.17" width="1.1" height="1.1"/><rect class="cls-10" x="154.46" y="139.02" width="1.1" height="1.1"/><rect class="cls-10" x="164.53" y="121.07" width="1.1" height="1.1"/><rect class="cls-10" x="164.53" y="122.92" width="1.1" height="1.1"/><rect class="cls-10" x="164.53" y="124.77" width="1.1" height="1.1"/><rect class="cls-10" x="164.53" y="126.62" width="1.1" height="1.1"/><rect class="cls-10" x="164.53" y="128.47" width="1.1" height="1.1"/><rect class="cls-10" x="164.53" y="130.32" width="1.1" height="1.1"/><rect class="cls-10" x="164.53" y="132.17" width="1.1" height="1.1"/><rect class="cls-10" x="164.53" y="134.02" width="1.1" height="1.1"/><rect class="cls-10" x="164.53" y="135.87" width="1.1" height="1.1"/><rect class="cls-10" x="164.53" y="137.72" width="1.1" height="1.1"/><rect class="cls-10" x="164.53" y="139.57" width="1.1" height="1.1"/><rect class="cls-10" x="164.53" y="141.42" width="1.1" height="1.1"/><rect class="cls-10" x="164.53" y="143.27" width="1.1" height="1.1"/><rect class="cls-10" x="162.77" y="121.07" width="1.1" height="1.1"/><rect class="cls-10" x="162.77" y="122.92" width="1.1" height="1.1"/><rect class="cls-10" x="162.77" y="124.77" width="1.1" height="1.1"/><rect class="cls-10" x="162.77" y="126.62" width="1.1" height="1.1"/><rect class="cls-10" x="162.77" y="128.47" width="1.1" height="1.1"/><rect class="cls-10" x="162.77" y="130.32" width="1.1" height="1.1"/><rect class="cls-10" x="162.77" y="132.17" width="1.1" height="1.1"/><rect class="cls-10" x="162.77" y="134.02" width="1.1" height="1.1"/><rect class="cls-10" x="162.77" y="135.87" width="1.1" height="1.1"/><rect class="cls-10" x="162.77" y="137.72" width="1.1" height="1.1"/><rect class="cls-10" x="162.77" y="139.57" width="1.1" height="1.1"/><rect class="cls-10" x="162.77" y="141.42" width="1.1" height="1.1"/><rect class="cls-10" x="162.77" y="143.27" width="1.1" height="1.1"/><rect class="cls-10" x="161.02" y="121.07" width="1.1" height="1.1"/><rect class="cls-10" x="161.02" y="122.92" width="1.1" height="1.1"/><rect class="cls-10" x="161.02" y="124.77" width="1.1" height="1.1"/><rect class="cls-10" x="161.02" y="126.62" width="1.1" height="1.1"/><rect class="cls-10" x="161.02" y="128.47" width="1.1" height="1.1"/><rect class="cls-10" x="161.02" y="130.32" width="1.1" height="1.1"/><rect class="cls-10" x="161.02" y="132.17" width="1.1" height="1.1"/><rect class="cls-10" x="161.02" y="134.02" width="1.1" height="1.1"/><rect class="cls-10" x="161.02" y="135.87" width="1.1" height="1.1"/><rect class="cls-10" x="161.02" y="137.72" width="1.1" height="1.1"/><rect class="cls-10" x="161.02" y="139.57" width="1.1" height="1.1"/><rect class="cls-10" x="161.02" y="141.42" width="1.1" height="1.1"/><rect class="cls-10" x="161.02" y="143.27" width="1.1" height="1.1"/><rect class="cls-10" x="161.02" y="145.12" width="1.1" height="1.1"/><rect class="cls-10" x="151.28" y="121.62" width="1.1" height="1.1"/><rect class="cls-10" x="151.28" y="123.47" width="1.1" height="1.1"/><rect class="cls-10" x="151.28" y="125.32" width="1.1" height="1.1"/><rect class="cls-10" x="151.28" y="127.17" width="1.1" height="1.1"/><rect class="cls-10" x="151.28" y="129.02" width="1.1" height="1.1"/><rect class="cls-10" x="151.28" y="130.87" width="1.1" height="1.1"/><rect class="cls-10" x="151.28" y="132.72" width="1.1" height="1.1"/><rect class="cls-10" x="151.28" y="134.57" width="1.1" height="1.1"/><rect class="cls-10" x="151.28" y="136.42" width="1.1" height="1.1"/><rect class="cls-10" x="151.28" y="138.27" width="1.1" height="1.1"/><rect class="cls-10" x="151.28" y="143.83" width="1.1" height="1.1"/><rect class="cls-10" x="149.53" y="121.62" width="1.1" height="1.1"/><rect class="cls-10" x="149.53" y="123.47" width="1.1" height="1.1"/><rect class="cls-10" x="149.53" y="125.32" width="1.1" height="1.1"/><rect class="cls-10" x="149.53" y="127.17" width="1.1" height="1.1"/><rect class="cls-10" x="149.53" y="129.02" width="1.1" height="1.1"/><rect class="cls-10" x="149.53" y="130.87" width="1.1" height="1.1"/><rect class="cls-10" x="149.53" y="132.72" width="1.1" height="1.1"/><rect class="cls-10" x="149.53" y="134.57" width="1.1" height="1.1"/><rect class="cls-10" x="149.53" y="136.42" width="1.1" height="1.1"/><rect class="cls-10" x="149.53" y="141.98" width="1.1" height="1.1"/><rect class="cls-10" x="149.53" y="143.83" width="1.1" height="1.1"/><rect class="cls-10" x="147.77" y="121.62" width="1.1" height="1.1"/><rect class="cls-10" x="147.77" y="123.47" width="1.1" height="1.1"/><rect class="cls-10" x="147.77" y="125.32" width="1.1" height="1.1"/><rect class="cls-10" x="147.77" y="127.17" width="1.1" height="1.1"/><rect class="cls-10" x="147.77" y="129.02" width="1.1" height="1.1"/><rect class="cls-10" x="147.77" y="130.87" width="1.1" height="1.1"/><rect class="cls-10" x="147.77" y="132.72" width="1.1" height="1.1"/><rect class="cls-10" x="147.77" y="134.57" width="1.1" height="1.1"/><rect class="cls-10" x="147.77" y="140.12" width="1.1" height="1.1"/><rect class="cls-10" x="147.77" y="141.98" width="1.1" height="1.1"/><rect class="cls-10" x="147.77" y="143.83" width="1.1" height="1.1"/><rect class="cls-10" x="131.47" y="93.5" width="1.1" height="1.1"/><rect class="cls-10" x="131.47" y="95.35" width="1.1" height="1.1"/><rect class="cls-10" x="131.47" y="97.2" width="1.1" height="1.1"/><rect class="cls-10" x="131.47" y="99.05" width="1.1" height="1.1"/><rect class="cls-10" x="131.47" y="100.9" width="1.1" height="1.1"/><rect class="cls-10" x="131.47" y="102.75" width="1.1" height="1.1"/><rect class="cls-10" x="131.47" y="104.6" width="1.1" height="1.1"/><rect class="cls-10" x="131.47" y="106.45" width="1.1" height="1.1"/><rect class="cls-10" x="131.47" y="108.31" width="1.1" height="1.1"/><rect class="cls-10" x="131.47" y="110.16" width="1.1" height="1.1"/><rect class="cls-10" x="131.47" y="112.01" width="1.1" height="1.1"/><rect class="cls-10" x="131.47" y="113.86" width="1.1" height="1.1"/><rect class="cls-10" x="131.47" y="115.71" width="1.1" height="1.1"/><rect class="cls-10" x="131.47" y="117.56" width="1.1" height="1.1"/><rect class="cls-10" x="131.47" y="119.41" width="1.1" height="1.1"/><rect class="cls-10" x="131.47" y="121.26" width="1.1" height="1.1"/><rect class="cls-10" x="131.47" y="123.11" width="1.1" height="1.1"/><rect class="cls-10" x="131.47" y="126.81" width="1.1" height="1.1"/><rect class="cls-10" x="131.47" y="128.66" width="1.1" height="1.1"/><rect class="cls-10" x="131.47" y="130.51" width="1.1" height="1.1"/><rect class="cls-10" x="131.47" y="132.36" width="1.1" height="1.1"/><rect class="cls-10" x="131.47" y="134.22" width="1.1" height="1.1"/><rect class="cls-10" x="129.72" y="93.5" width="1.1" height="1.1"/><rect class="cls-10" x="129.72" y="95.35" width="1.1" height="1.1"/><rect class="cls-10" x="129.72" y="97.2" width="1.1" height="1.1"/><rect class="cls-10" x="129.72" y="99.05" width="1.1" height="1.1"/><rect class="cls-10" x="129.72" y="100.9" width="1.1" height="1.1"/><rect class="cls-10" x="129.72" y="102.75" width="1.1" height="1.1"/><rect class="cls-10" x="129.72" y="104.6" width="1.1" height="1.1"/><rect class="cls-10" x="129.72" y="106.45" width="1.1" height="1.1"/><rect class="cls-10" x="129.72" y="108.31" width="1.1" height="1.1"/><rect class="cls-10" x="129.72" y="110.16" width="1.1" height="1.1"/><rect class="cls-10" x="129.72" y="112.01" width="1.1" height="1.1"/><rect class="cls-10" x="129.72" y="113.86" width="1.1" height="1.1"/><rect class="cls-10" x="129.72" y="115.71" width="1.1" height="1.1"/><rect class="cls-10" x="129.72" y="117.56" width="1.1" height="1.1"/><rect class="cls-10" x="129.72" y="119.41" width="1.1" height="1.1"/><rect class="cls-10" x="129.72" y="121.26" width="1.1" height="1.1"/><rect class="cls-10" x="129.72" y="132.36" width="1.1" height="1.1"/><rect class="cls-10" x="129.72" y="134.22" width="1.1" height="1.1"/><rect class="cls-10" x="127.97" y="93.5" width="1.1" height="1.1"/><rect class="cls-10" x="127.97" y="95.35" width="1.1" height="1.1"/><rect class="cls-10" x="127.97" y="97.2" width="1.1" height="1.1"/><rect class="cls-10" x="127.97" y="99.05" width="1.1" height="1.1"/><rect class="cls-10" x="127.97" y="100.9" width="1.1" height="1.1"/><rect class="cls-10" x="127.97" y="102.75" width="1.1" height="1.1"/><rect class="cls-10" x="127.97" y="104.6" width="1.1" height="1.1"/><rect class="cls-10" x="127.97" y="106.45" width="1.1" height="1.1"/><rect class="cls-10" x="127.97" y="108.31" width="1.1" height="1.1"/><rect class="cls-10" x="127.97" y="110.16" width="1.1" height="1.1"/><rect class="cls-10" x="127.97" y="112.01" width="1.1" height="1.1"/><rect class="cls-10" x="127.97" y="113.86" width="1.1" height="1.1"/><rect class="cls-10" x="127.97" y="115.71" width="1.1" height="1.1"/><rect class="cls-10" x="127.97" y="117.56" width="1.1" height="1.1"/><rect class="cls-10" x="127.97" y="119.41" width="1.1" height="1.1"/><rect class="cls-10" x="127.97" y="121.26" width="1.1" height="1.1"/><rect class="cls-10" x="127.97" y="124.96" width="1.1" height="1.1"/><rect class="cls-10" x="127.97" y="126.81" width="1.1" height="1.1"/><rect class="cls-10" x="127.97" y="128.66" width="1.1" height="1.1"/><rect class="cls-10" x="127.97" y="130.51" width="1.1" height="1.1"/><rect class="cls-10" x="127.97" y="134.22" width="1.1" height="1.1"/><rect class="cls-10" x="137.84" y="116.81" width="1.1" height="1.1"/><rect class="cls-10" x="137.84" y="118.66" width="1.1" height="1.1"/><rect class="cls-10" x="137.84" y="120.51" width="1.1" height="1.1"/><rect class="cls-10" x="137.84" y="122.36" width="1.1" height="1.1"/><rect class="cls-10" x="137.84" y="124.22" width="1.1" height="1.1"/><rect class="cls-10" x="137.84" y="126.07" width="1.1" height="1.1"/><rect class="cls-10" x="137.84" y="127.92" width="1.1" height="1.1"/><rect class="cls-10" x="137.84" y="131.62" width="1.1" height="1.1"/><rect class="cls-10" x="137.84" y="133.47" width="1.1" height="1.1"/><rect class="cls-10" x="137.84" y="135.32" width="1.1" height="1.1"/><rect class="cls-10" x="137.84" y="137.17" width="1.1" height="1.1"/><rect class="cls-10" x="137.84" y="139.02" width="1.1" height="1.1"/><rect class="cls-10" x="137.84" y="140.87" width="1.1" height="1.1"/><rect class="cls-10" x="137.84" y="142.72" width="1.1" height="1.1"/><rect class="cls-10" x="137.84" y="144.57" width="1.1" height="1.1"/><rect class="cls-10" x="136.08" y="116.81" width="1.1" height="1.1"/><rect class="cls-10" x="136.08" y="118.66" width="1.1" height="1.1"/><rect class="cls-10" x="136.08" y="120.51" width="1.1" height="1.1"/><rect class="cls-10" x="136.08" y="122.36" width="1.1" height="1.1"/><rect class="cls-10" x="136.08" y="124.22" width="1.1" height="1.1"/><rect class="cls-10" x="136.08" y="126.07" width="1.1" height="1.1"/><rect class="cls-10" x="136.08" y="131.62" width="1.1" height="1.1"/><rect class="cls-10" x="136.08" y="133.47" width="1.1" height="1.1"/><rect class="cls-10" x="136.08" y="135.32" width="1.1" height="1.1"/><rect class="cls-10" x="136.08" y="137.17" width="1.1" height="1.1"/><rect class="cls-10" x="136.08" y="139.02" width="1.1" height="1.1"/><rect class="cls-10" x="136.08" y="140.87" width="1.1" height="1.1"/><rect class="cls-10" x="136.08" y="142.72" width="1.1" height="1.1"/><rect class="cls-10" x="136.08" y="144.57" width="1.1" height="1.1"/><rect class="cls-10" x="134.33" y="116.81" width="1.1" height="1.1"/><rect class="cls-10" x="134.33" y="118.66" width="1.1" height="1.1"/><rect class="cls-10" x="134.33" y="120.51" width="1.1" height="1.1"/><rect class="cls-10" x="134.33" y="122.36" width="1.1" height="1.1"/><rect class="cls-10" x="134.33" y="124.22" width="1.1" height="1.1"/><rect class="cls-10" x="134.33" y="126.07" width="1.1" height="1.1"/><rect class="cls-10" x="134.33" y="129.77" width="1.1" height="1.1"/><rect class="cls-10" x="134.33" y="131.62" width="1.1" height="1.1"/><rect class="cls-10" x="134.33" y="133.47" width="1.1" height="1.1"/><rect class="cls-10" x="134.33" y="135.32" width="1.1" height="1.1"/><rect class="cls-10" x="134.33" y="137.17" width="1.1" height="1.1"/><rect class="cls-10" x="134.33" y="139.02" width="1.1" height="1.1"/><rect class="cls-10" x="134.33" y="140.87" width="1.1" height="1.1"/><rect class="cls-10" x="134.33" y="142.72" width="1.1" height="1.1"/><rect class="cls-10" x="134.33" y="144.57" width="1.1" height="1.1"/><rect class="cls-10" x="97.38" y="106.45" width="1.1" height="1.1"/><rect class="cls-10" x="97.38" y="108.31" width="1.1" height="1.1"/><rect class="cls-10" x="97.38" y="110.16" width="1.1" height="1.1"/><rect class="cls-10" x="97.38" y="112.01" width="1.1" height="1.1"/><rect class="cls-10" x="97.38" y="113.86" width="1.1" height="1.1"/><rect class="cls-10" x="97.38" y="115.71" width="1.1" height="1.1"/><rect class="cls-10" x="97.38" y="117.56" width="1.1" height="1.1"/><rect class="cls-10" x="97.38" y="119.41" width="1.1" height="1.1"/><rect class="cls-10" x="97.38" y="121.26" width="1.1" height="1.1"/><rect class="cls-10" x="97.38" y="123.11" width="1.1" height="1.1"/><rect class="cls-10" x="97.38" y="124.96" width="1.1" height="1.1"/><rect class="cls-10" x="97.38" y="126.81" width="1.1" height="1.1"/><rect class="cls-10" x="97.38" y="128.66" width="1.1" height="1.1"/><rect class="cls-10" x="97.38" y="132.36" width="1.1" height="1.1"/><rect class="cls-10" x="97.38" y="134.22" width="1.1" height="1.1"/><rect class="cls-10" x="97.38" y="136.07" width="1.1" height="1.1"/><rect class="cls-10" x="97.38" y="137.92" width="1.1" height="1.1"/><rect class="cls-10" x="97.38" y="141.62" width="1.1" height="1.1"/><rect class="cls-10" x="97.38" y="143.47" width="1.1" height="1.1"/><rect class="cls-10" x="97.38" y="145.32" width="1.1" height="1.1"/><rect class="cls-10" x="95.63" y="106.45" width="1.1" height="1.1"/><rect class="cls-10" x="95.63" y="108.31" width="1.1" height="1.1"/><rect class="cls-10" x="95.63" y="110.16" width="1.1" height="1.1"/><rect class="cls-10" x="95.63" y="112.01" width="1.1" height="1.1"/><rect class="cls-10" x="95.63" y="113.86" width="1.1" height="1.1"/><rect class="cls-10" x="95.63" y="115.71" width="1.1" height="1.1"/><rect class="cls-10" x="95.63" y="117.56" width="1.1" height="1.1"/><rect class="cls-10" x="95.63" y="119.41" width="1.1" height="1.1"/><rect class="cls-10" x="95.63" y="121.26" width="1.1" height="1.1"/><rect class="cls-10" x="95.63" y="123.11" width="1.1" height="1.1"/><rect class="cls-10" x="95.63" y="124.96" width="1.1" height="1.1"/><rect class="cls-10" x="95.63" y="126.81" width="1.1" height="1.1"/><rect class="cls-10" x="95.63" y="128.66" width="1.1" height="1.1"/><rect class="cls-10" x="95.63" y="134.22" width="1.1" height="1.1"/><rect class="cls-10" x="95.63" y="136.07" width="1.1" height="1.1"/><rect class="cls-10" x="95.63" y="139.77" width="1.1" height="1.1"/><rect class="cls-10" x="95.63" y="141.62" width="1.1" height="1.1"/><rect class="cls-10" x="95.63" y="143.47" width="1.1" height="1.1"/><rect class="cls-10" x="95.63" y="145.32" width="1.1" height="1.1"/><rect class="cls-10" x="93.88" y="106.45" width="1.1" height="1.1"/><rect class="cls-10" x="93.88" y="108.31" width="1.1" height="1.1"/><rect class="cls-10" x="93.88" y="110.16" width="1.1" height="1.1"/><rect class="cls-10" x="93.88" y="112.01" width="1.1" height="1.1"/><rect class="cls-10" x="93.88" y="113.86" width="1.1" height="1.1"/><rect class="cls-10" x="93.88" y="115.71" width="1.1" height="1.1"/><rect class="cls-10" x="93.88" y="117.56" width="1.1" height="1.1"/><rect class="cls-10" x="93.88" y="119.41" width="1.1" height="1.1"/><rect class="cls-10" x="93.88" y="121.26" width="1.1" height="1.1"/><rect class="cls-10" x="93.88" y="123.11" width="1.1" height="1.1"/><rect class="cls-10" x="93.88" y="124.96" width="1.1" height="1.1"/><rect class="cls-10" x="93.88" y="126.81" width="1.1" height="1.1"/><rect class="cls-10" x="93.88" y="128.66" width="1.1" height="1.1"/><rect class="cls-10" x="93.88" y="130.51" width="1.1" height="1.1"/><rect class="cls-10" x="93.88" y="134.22" width="1.1" height="1.1"/><rect class="cls-10" x="93.88" y="137.92" width="1.1" height="1.1"/><rect class="cls-10" x="93.88" y="139.77" width="1.1" height="1.1"/><rect class="cls-10" x="93.88" y="141.62" width="1.1" height="1.1"/><rect class="cls-10" x="93.88" y="143.47" width="1.1" height="1.1"/><rect class="cls-10" x="93.88" y="145.32" width="1.1" height="1.1"/><rect class="cls-10" x="104.53" y="117.01" width="1.1" height="1.1"/><rect class="cls-10" x="104.53" y="118.86" width="1.1" height="1.1"/><rect class="cls-10" x="104.53" y="120.71" width="1.1" height="1.1"/><rect class="cls-10" x="104.53" y="122.56" width="1.1" height="1.1"/><rect class="cls-10" x="104.53" y="124.41" width="1.1" height="1.1"/><rect class="cls-10" x="104.53" y="126.26" width="1.1" height="1.1"/><rect class="cls-10" x="104.53" y="131.81" width="1.1" height="1.1"/><rect class="cls-10" x="104.53" y="133.66" width="1.1" height="1.1"/><rect class="cls-10" x="104.53" y="135.51" width="1.1" height="1.1"/><rect class="cls-10" x="104.53" y="137.36" width="1.1" height="1.1"/><rect class="cls-10" x="104.53" y="139.22" width="1.1" height="1.1"/><rect class="cls-10" x="104.53" y="141.07" width="1.1" height="1.1"/><rect class="cls-10" x="104.53" y="142.92" width="1.1" height="1.1"/><rect class="cls-10" x="102.77" y="117.01" width="1.1" height="1.1"/><rect class="cls-10" x="102.77" y="118.86" width="1.1" height="1.1"/><rect class="cls-10" x="102.77" y="120.71" width="1.1" height="1.1"/><rect class="cls-10" x="102.77" y="122.56" width="1.1" height="1.1"/><rect class="cls-10" x="102.77" y="124.41" width="1.1" height="1.1"/><rect class="cls-10" x="102.77" y="126.26" width="1.1" height="1.1"/><rect class="cls-10" x="102.77" y="131.81" width="1.1" height="1.1"/><rect class="cls-10" x="102.77" y="133.66" width="1.1" height="1.1"/><rect class="cls-10" x="102.77" y="135.51" width="1.1" height="1.1"/><rect class="cls-10" x="102.77" y="137.36" width="1.1" height="1.1"/><rect class="cls-10" x="102.77" y="139.22" width="1.1" height="1.1"/><rect class="cls-10" x="102.77" y="141.07" width="1.1" height="1.1"/><rect class="cls-10" x="102.77" y="144.77" width="1.1" height="1.1"/><rect class="cls-10" x="44.52" y="108.86" width="1.1" height="1.1"/><rect class="cls-10" x="44.52" y="110.71" width="1.1" height="1.1"/><rect class="cls-10" x="44.52" y="112.56" width="1.1" height="1.1"/><rect class="cls-10" x="44.52" y="114.41" width="1.1" height="1.1"/><rect class="cls-10" x="44.52" y="116.26" width="1.1" height="1.1"/><rect class="cls-10" x="44.52" y="118.11" width="1.1" height="1.1"/><rect class="cls-10" x="44.52" y="119.96" width="1.1" height="1.1"/><rect class="cls-10" x="44.52" y="121.81" width="1.1" height="1.1"/><rect class="cls-10" x="44.52" y="123.66" width="1.1" height="1.1"/><rect class="cls-10" x="44.52" y="125.51" width="1.1" height="1.1"/><rect class="cls-10" x="44.52" y="127.36" width="1.1" height="1.1"/><rect class="cls-10" x="44.52" y="131.07" width="1.1" height="1.1"/><rect class="cls-10" x="44.52" y="132.92" width="1.1" height="1.1"/><rect class="cls-10" x="44.52" y="134.77" width="1.1" height="1.1"/><rect class="cls-10" x="44.52" y="136.62" width="1.1" height="1.1"/><rect class="cls-10" x="44.52" y="138.47" width="1.1" height="1.1"/><rect class="cls-10" x="44.52" y="140.32" width="1.1" height="1.1"/><rect class="cls-10" x="44.52" y="142.17" width="1.1" height="1.1"/><rect class="cls-10" x="44.52" y="144.02" width="1.1" height="1.1"/><rect class="cls-10" x="42.77" y="108.86" width="1.1" height="1.1"/><rect class="cls-10" x="42.77" y="110.71" width="1.1" height="1.1"/><rect class="cls-10" x="42.77" y="112.56" width="1.1" height="1.1"/><rect class="cls-10" x="42.77" y="114.41" width="1.1" height="1.1"/><rect class="cls-10" x="42.77" y="116.26" width="1.1" height="1.1"/><rect class="cls-10" x="42.77" y="118.11" width="1.1" height="1.1"/><rect class="cls-10" x="42.77" y="119.96" width="1.1" height="1.1"/><rect class="cls-10" x="42.77" y="121.81" width="1.1" height="1.1"/><rect class="cls-10" x="42.77" y="123.66" width="1.1" height="1.1"/><rect class="cls-10" x="42.77" y="125.51" width="1.1" height="1.1"/><rect class="cls-10" x="42.77" y="127.36" width="1.1" height="1.1"/><rect class="cls-10" x="42.77" y="129.22" width="1.1" height="1.1"/><rect class="cls-10" x="42.77" y="131.07" width="1.1" height="1.1"/><rect class="cls-10" x="42.77" y="132.92" width="1.1" height="1.1"/><rect class="cls-10" x="42.77" y="134.77" width="1.1" height="1.1"/><rect class="cls-10" x="42.77" y="136.62" width="1.1" height="1.1"/><rect class="cls-10" x="42.77" y="138.47" width="1.1" height="1.1"/><rect class="cls-10" x="42.77" y="140.32" width="1.1" height="1.1"/><rect class="cls-10" x="42.77" y="142.17" width="1.1" height="1.1"/><rect class="cls-10" x="42.77" y="144.02" width="1.1" height="1.1"/><rect class="cls-10" x="53.16" y="116.07" width="1.1" height="1.1"/><rect class="cls-10" x="53.16" y="117.92" width="1.1" height="1.1"/><rect class="cls-10" x="53.16" y="119.77" width="1.1" height="1.1"/><rect class="cls-10" x="53.16" y="121.62" width="1.1" height="1.1"/><rect class="cls-10" x="53.16" y="123.47" width="1.1" height="1.1"/><rect class="cls-10" x="53.16" y="125.32" width="1.1" height="1.1"/><rect class="cls-10" x="53.16" y="127.17" width="1.1" height="1.1"/><rect class="cls-10" x="53.16" y="129.02" width="1.1" height="1.1"/><rect class="cls-10" x="53.16" y="130.87" width="1.1" height="1.1"/><rect class="cls-10" x="53.16" y="132.72" width="1.1" height="1.1"/><rect class="cls-10" x="51.41" y="116.07" width="1.1" height="1.1"/><rect class="cls-10" x="51.41" y="117.92" width="1.1" height="1.1"/><rect class="cls-10" x="51.41" y="119.77" width="1.1" height="1.1"/><rect class="cls-10" x="51.41" y="121.62" width="1.1" height="1.1"/><rect class="cls-10" x="51.41" y="123.47" width="1.1" height="1.1"/><rect class="cls-10" x="51.41" y="125.32" width="1.1" height="1.1"/><rect class="cls-10" x="51.41" y="127.17" width="1.1" height="1.1"/><rect class="cls-10" x="51.41" y="129.02" width="1.1" height="1.1"/><rect class="cls-10" x="51.41" y="130.87" width="1.1" height="1.1"/></g></g><path class="cls-1" d="M63.61,62.41c0-1.89-1.53-3.42-3.42-3.42-.34,0-.67,.05-.98,.14,.05-.34,.08-.69,.08-1.05,0-4-3.24-7.24-7.24-7.24-.46,0-.9,.04-1.33,.12-1.11-1.82-3.11-3.04-5.4-3.04-3.47,0-6.28,2.78-6.33,6.24-.04,0-.07,0-.11,0-3.22,0-5.83,2.61-5.83,5.83s2.61,5.83,5.83,5.83h21.41c1.84-.06,3.32-1.56,3.32-3.42Z"/><path class="cls-1" d="M106.21,37.3c0-1.21-.98-2.18-2.18-2.18-.22,0-.43,.03-.63,.09,.03-.22,.05-.44,.05-.67,0-2.55-2.07-4.62-4.62-4.62-.29,0-.58,.03-.85,.08-.71-1.16-1.99-1.94-3.45-1.94-2.21,0-4.01,1.78-4.04,3.98-.02,0-.04,0-.07,0-2.06,0-3.72,1.67-3.72,3.72s1.67,3.72,3.72,3.72h13.67c1.18-.04,2.12-1,2.12-2.18Z"/><path class="cls-1" d="M152.38,85.95c0-.74-.6-1.34-1.34-1.34-.13,0-.26,.02-.38,.06,.02-.13,.03-.27,.03-.41,0-1.56-1.27-2.83-2.83-2.83-.18,0-.35,.02-.52,.05-.44-.71-1.22-1.19-2.11-1.19-1.36,0-2.46,1.09-2.48,2.44-.01,0-.03,0-.04,0-1.26,0-2.28,1.02-2.28,2.28s1.02,2.28,2.28,2.28h8.37c.72-.02,1.3-.61,1.3-1.34Z"/><ellipse id="_Path_" class="cls-12" cx="97.19" cy="162.63" rx="75.16" ry="4.39"/><g><g><path class="cls-23" d="M165.99,150.09s1.82-6.1-1.86-7.31-5.87-4.07-5.74-7.29c.12-3.23-3.75-6.37-6.66-3.34-2.91,3.02-2.52-2.32-6.4-3.62-3.88-1.3-7.16,1.85-6.1,4.73,1.06,2.88-2.76,4.68-7.34,2.23-4.58-2.45-9.62,2.01-8.65,5.5s.18,3.88-2.72,2.71c-2.9-1.16-8.08,2.13-6.27,6.4s51.75,0,51.75,0Z"/><path class="cls-5" d="M165.99,150.09s1.82-6.1-1.86-7.31-5.87-4.07-5.74-7.29c.12-3.23-3.75-6.37-6.66-3.34-2.91,3.02-2.52-2.32-6.4-3.62-3.88-1.3-7.16,1.85-6.1,4.73,1.06,2.88-2.76,4.68-7.34,2.23-4.58-2.45-9.62,2.01-8.65,5.5s.18,3.88-2.72,2.71c-2.9-1.16-8.08,2.13-6.27,6.4s51.75,0,51.75,0Z"/></g><g><path class="cls-23" d="M68.57,150.67c1.94-1.94,.19-5.23-1.74-5.62s-3.89-3.8-3.98-5.97c-.09-2.17-3.58-8.85-9.01-4.73s-3.78,.61-7.7-.55-6.4,2.18-4.68,4.68c0,0-3.94-.99-5.57,2.69-1.62,3.68,0,5.97,0,5.97,0,0-7.42-.22-6.75,4.37s39.43-.84,39.43-.84Z"/><path class="cls-5" d="M68.57,150.67c1.94-1.94,.19-5.23-1.74-5.62s-3.89-3.8-3.98-5.97c-.09-2.17-3.58-8.85-9.01-4.73s-3.78,.61-7.7-.55-6.4,2.18-4.68,4.68c0,0-3.94-.99-5.57,2.69-1.62,3.68,0,5.97,0,5.97,0,0-7.42-.22-6.75,4.37s39.43-.84,39.43-.84Z"/></g><g><path class="cls-23" d="M46.28,151.59c-1.94-1.94-.19-5.23,1.74-5.62s3.89-3.8,3.98-5.97c.09-2.17,3.58-8.85,9.01-4.73s3.78,.61,7.7-.55,6.4,2.18,4.68,4.68c0,0,3.94-.99,5.57,2.69,1.62,3.68,0,5.97,0,5.97,0,0,7.42-.22,6.75,4.37s-39.43-.84-39.43-.84Z"/><path class="cls-5" d="M46.28,151.59c-1.94-1.94-.19-5.23,1.74-5.62s3.89-3.8,3.98-5.97c.09-2.17,3.58-8.85,9.01-4.73s3.78,.61,7.7-.55,6.4,2.18,4.68,4.68c0,0,3.94-.99,5.57,2.69,1.62,3.68,0,5.97,0,5.97,0,0,7.42-.22,6.75,4.37s-39.43-.84-39.43-.84Z"/></g><g><path class="cls-27" d="M172.65,150.78v5.31H23.02v-5.31c0-.92,.64-1.67,1.57-1.67H171.09c.92,0,1.57,.74,1.57,1.67Z"/><g><rect class="cls-23" x="31.55" y="149.12" width="9.3" height="6.98"/><rect class="cls-23" x="49.38" y="149.12" width="8.92" height="6.98"/><rect class="cls-23" x="66.82" y="149.12" width="9.3" height="6.98"/><rect class="cls-23" x="84.66" y="149.12" width="8.92" height="6.98"/><rect class="cls-23" x="102.1" y="149.12" width="8.92" height="6.98"/><rect class="cls-23" x="119.54" y="149.12" width="9.3" height="6.98"/><rect class="cls-23" x="137.38" y="149.12" width="8.92" height="6.98"/><rect class="cls-23" x="154.82" y="149.12" width="9.3" height="6.98"/><g class="cls-19"><rect class="cls-2" x="31.55" y="149.12" width="9.3" height="6.98"/><rect class="cls-2" x="49.38" y="149.12" width="8.92" height="6.98"/><rect class="cls-2" x="66.82" y="149.12" width="9.3" height="6.98"/><rect class="cls-2" x="84.66" y="149.12" width="8.92" height="6.98"/><rect class="cls-2" x="102.1" y="149.12" width="8.92" height="6.98"/><rect class="cls-2" x="119.54" y="149.12" width="9.3" height="6.98"/><rect class="cls-2" x="137.38" y="149.12" width="8.92" height="6.98"/><rect class="cls-2" x="154.82" y="149.12" width="9.3" height="6.98"/></g></g><path class="cls-5" d="M172.65,150.78v5.31H23.02v-5.31c0-.92,.64-1.67,1.57-1.67H171.09c.92,0,1.57,.74,1.57,1.67Z"/></g></g><g><g><path class="cls-11" d="M45.59,82.66s-3.53,1.28-2.91,3.06c.61,1.79,4.83-.63,4.83-.63l-1.92-2.44Z"/><path class="cls-15" d="M45.59,82.66s-3.53,1.28-2.91,3.06c.61,1.79,4.83-.63,4.83-.63l-1.92-2.44Z"/></g><path class="cls-23" d="M51.69,78.74c-1.96,.42-6.94,3.81-6.94,3.81l1.69,4.04,4.51-1.49,.74-6.36Z"/><polygon class="cls-11" points="59.33 157.01 56.88 158.42 53.95 153.11 56.4 151.7 59.33 157.01"/><path class="cls-27" d="M56.59,158.11l2.72-1.73c.09-.06,.21-.05,.29,.02l1.64,1.7c.15,.17,.13,.43-.05,.57-.02,.02-.04,.03-.07,.05-.95,.58-1.46,.84-2.64,1.59-.73,.46-3.8,2.11-4.94,2.19s-1.26-1-.8-1.17c2.34-.87,3.24-1.98,3.54-2.86,.06-.16,.17-.29,.31-.38Z"/><polygon class="cls-15" points="56.4 151.7 53.95 153.11 55.47 155.85 57.91 154.44 56.4 151.7"/><path class="cls-27" d="M49.58,94.68s-8,26.5-7.56,34.38c.48,8.64,12.09,26.81,12.09,26.81l4.38-2.76s-8.2-17.9-8.51-24.53c.45-9.59,10.42-32.88,10.42-32.88l-10.82-1.01Z"/><path class="cls-15" d="M55.92,103.99c-2.42,1.48-3.38,7.79-2.86,10.99,1.31-4.06,2.8-8.05,3.99-11.12-.37-.16-.8-.12-1.13,.13Z"/><polygon class="cls-27" points="53.63 156.28 58.79 153.02 57.94 151.56 52.53 154.86 53.63 156.28"/><path class="cls-23" d="M56.03,159c-.15,.11-.34,.17-.53,.18-.12-.01-.23-.09-.28-.21-.04-.07-.04-.15,0-.21,.19-.3,1.22-.35,1.34-.35,.02,0,.05,.01,.06,.03,0,.03,0,.05-.02,.07-.17,.18-.36,.34-.57,.48Zm-.63-.24s-.05,.04-.07,.06c-.02,.02-.02,.06,0,.08,.03,.08,.1,.14,.19,.15,.34-.06,.65-.23,.87-.5-.34,0-.68,.08-.99,.21Z"/><path class="cls-23" d="M56.59,158.53h-.03c-.32,.03-1.09-.16-1.18-.45-.03-.1,.01-.2,.1-.25,.08-.07,.18-.1,.28-.09,.4,.04,.84,.65,.86,.69,.01,.02,.01,.05,0,.07,0,.01-.01,.02-.02,.03Zm-1.02-.61l-.02,.02c-.07,.06-.06,.09-.05,.11,.06,.17,.58,.35,.93,.37-.14-.17-.44-.5-.69-.53-.06,0-.11,0-.16,.04h0Z"/><polygon class="cls-11" points="64.65 160.21 61.94 160.21 61.71 153.92 64.43 153.92 64.65 160.21"/><path class="cls-27" d="M61.56,159.89h3.3c.11,0,.21,.08,.23,.19l.54,2.42c.05,.22-.09,.43-.31,.48-.03,0-.06,0-.09,0-1.07-.02-1.84-.08-3.19-.08-.83,0-3.32,.09-4.46,.09s-1.29-1.13-.82-1.23c2.09-.46,3.67-1.09,4.34-1.69,.12-.11,.29-.18,.46-.17Z"/><polygon class="cls-15" points="64.43 153.92 61.71 153.92 61.83 157.17 64.55 157.17 64.43 153.92"/><path class="cls-27" d="M53.29,95.21s2.21,25.97,3.36,33.84c1.25,8.64,3.94,27.48,3.94,27.48h4.97s-1.02-18.03-1.49-26.52c-.54-9.67-.8-33.98-.8-33.98l-9.98-.82Z"/><polygon class="cls-27" points="59.98 156.64 65.84 156.64 65.84 154.89 59.76 154.78 59.98 156.64"/><path class="cls-23" d="M60.66,160.37c-.18,.01-.37-.03-.52-.14-.1-.08-.15-.22-.13-.35,0-.08,.04-.15,.11-.18,.3-.16,1.18,.38,1.27,.45,.02,.01,.04,.04,.03,.06,0,.03-.02,.05-.05,.06-.23,.06-.47,.09-.71,.1Zm-.4-.56s-.06,0-.08,.02c-.02,0-.04,.02-.04,.08-.01,.09,.02,.17,.09,.23,.3,.14,.65,.16,.97,.05-.28-.18-.6-.31-.93-.37Z"/><path class="cls-23" d="M61.35,160.27h-.03c-.28-.15-.82-.75-.77-1.04,.02-.1,.11-.17,.21-.17,.1-.01,.2,.02,.27,.08,.31,.26,.38,1.04,.38,1.07,0,.02-.01,.05-.03,.06-.01,0-.02,0-.03-.01Zm-.55-1.1h-.03c-.08,0-.09,.05-.09,.07-.03,.18,.31,.63,.59,.84-.02-.31-.13-.61-.32-.85-.04-.04-.09-.06-.15-.06Z"/><g><polygon points="51.21 99.35 58.17 99.44 58.17 97.74 51.21 97.74 51.21 99.35"/><polygon points="58.7 97.74 58.7 99.44 63.45 99.5 63.45 97.74 58.7 97.74"/><polygon points="50.68 97.74 48.66 97.74 48.47 99.32 50.68 99.34 50.68 97.74"/></g><rect class="cls-2" x="52.66" y="97.43" width="2.74" height="1.97"/><g><path class="cls-23" d="M48.78,97.5l14.8,.98c.81-7.18,3.17-14.56,3.87-17.17,.1-.38-.11-.77-.49-.87-.73-.21-1.49-.4-2.26-.57-3.85-.86-7.94-1.24-10.5-1.41-1.56-.1-2.52,.28-2.52,.28-2.22,6.3-2.74,13.99-2.91,18.76Z"/><path class="cls-7" d="M66.07,86.22c-.14,.53-.29,1.1-.44,1.68-.81,3.13-1.64,6.88-2.05,10.58l-14.8-.98c.12-3.45,.42-8.43,1.42-13.3h0c1.48-3.4,5.19-4.87,5.19-4.87,0,0,.41,.88,2.25,1.13,1.84,.26,4.3-.32,4.3-.32,2.86,2.26,3.6,6.42,3.6,6.42,0,0,.2-.13,.52-.35Z"/></g><path class="cls-15" d="M66.86,83.4c-.35,1.23-.79,2.77-1.23,4.5-1.62-2.28-.17-5.59-.17-5.59,.56,.21,1.02,.6,1.4,1.09Z"/><g><path class="cls-11" d="M62.05,79.41c-1.27,1.16-4.38,.72-4.38,.72,0,0-1.95-.53-1.54-1.14,1.15-.19,1.7-.72,1.93-1.41,.13-.4,.15-.84,.12-1.31,0-.11-.02-.22-.03-.32-.02-.14-.04-.27-.06-.41l3.85-2.85c-.14,.52-.29,1.16-.4,1.85-.27,1.62-.36,3.47,.29,4.54,.07,.12,.15,.22,.23,.32Z"/><path class="cls-15" d="M61.4,77.88c-1.4-.15-2.45-1.06-3.33-2.33l3.25,.27c-.03,.64,0,1.33,.08,2.06Z"/></g><path class="cls-11" d="M42.65,85.07c-.32,1.99,.87,2.57,5.55,8.1,0,0-.3,.9-.15,1.12,.14,.22,2.87,2.97,2.87,2.97l2.34-3.04s-1.71-2.09-2.25-2.47c-.23-.16-1.31-.12-1.31-.12,0,0-3.96-6.72-4.74-7.34-.79-.62-2.07-.54-2.29,.78Z"/><path class="cls-11" d="M69.28,88.24s2.52,3.37,4.87,2.81c2.34-.57,4.76-2.71,4.76-2.71,0,0,1.1,.69,1.62,.68,.52-.01,3.23-.48,3.23-.48l-1.27-2.9s-2.36,.16-2.99,.14c-.63-.02-1.39,.97-1.39,.97,0,0-3.73,.95-4.27,.92-.54-.02-2.37-2.07-2.37-2.07l-2.2,2.63Z"/><path class="cls-23" d="M66.96,80.44c2.17,1.02,6.48,6.11,6.48,6.11l-3.22,3.71-4.68-3.69s-.46-2.95-.09-4.26c.37-1.31,1.5-1.87,1.5-1.87Z"/><polygon class="cls-15" points="53.63 156.28 58.79 153.02 57.94 151.56 52.53 154.86 53.63 156.28"/><polygon class="cls-15" points="59.98 156.64 65.84 156.64 65.84 154.89 59.76 154.78 59.98 156.64"/><g><path class="cls-27" d="M55.05,70.97c-.08,.32,.12,.65,.44,.73,.32,.08,.65-.12,.73-.44,.08-.32-.12-.65-.44-.73-.32-.08-.65,.12-.73,.44Z"/><path class="cls-27" d="M64.3,66.77s.95,3.63-.86,5.25c-1.81,1.62-2.53-5.24-2.53-5.24h3.39Z"/><path class="cls-11" d="M64.12,74.12c-.04,.13-.09,.25-.14,.37-.19,.44-.46,.83-.78,1.15-.34,.35-.74,.61-1.17,.8-.78,.34-1.67,.41-2.49,.13-.54-.18-1.06-.52-1.49-1.02-1.26-1.45-1.12-3.01-1.11-5.68,0-.57,.12-1.14,.38-1.65,.89-1.81,3.08-2.55,4.88-1.66,2.54,1.23,2.65,5.2,1.92,7.56Z"/><path class="cls-27" d="M60.94,70.88c-.03,.21,.09,.4,.23,.41,.14,0,.27-.16,.28-.38,.02-.22-.09-.4-.23-.41-.14,0-.27,.16-.28,.38Z"/><path class="cls-27" d="M63.39,71.04c-.03,.21,.09,.4,.23,.41,.14,0,.27-.16,.28-.38,.02-.22-.09-.4-.23-.41-.14,0-.27,.17-.28,.38Z"/><path class="cls-26" d="M62.6,71.1c.21,.68,.52,1.33,.91,1.92-.32,.2-.7,.24-1.05,.13l.14-2.05Z"/><path class="cls-27" d="M64.36,70.05s-.09,.02-.13-.01c-.26-.2-.59-.26-.91-.17-.07,.03-.14,0-.16-.07-.03-.07,0-.14,.07-.16h0c.39-.12,.82-.05,1.14,.19,.06,.04,.07,.12,.03,.18h0s-.03,.03-.05,.04Z"/><path class="cls-27" d="M60.52,69.87s-.05-.01-.07-.03c-.04-.06-.03-.13,.02-.18h0c.32-.26,.75-.34,1.14-.22,.07,.02,.1,.1,.08,.16h0c-.03,.06-.1,.1-.16,.08h0c-.31-.08-.65-.02-.9,.18-.03,.02-.07,.02-.11,0Z"/><path class="cls-27" d="M59.12,66.69l.12,1.18c-.39,.2-.63,.63-.46,1.1,.36,.99-.22,2.52-.99,3.12,0,0-.02-.43-.38-.33-.36,.1-.3,2.33,.38,3.4,0,0-1.05-.98-1.61-3.33-.52-2.17-.56-3.98-.1-4.81l3.03-.32Z"/><path class="cls-11" d="M55.65,71.98c.26,.62,.75,1.12,1.37,1.37,.82,.34,1.34-.38,1.2-1.21-.13-.74-.71-1.83-1.58-1.8-.87,.03-1.29,.87-.98,1.63Z"/><g><path class="cls-27" d="M62.45,73.86c-.24,.34-.54,1.02-.54,1.02-.07-.02-.13-.03-.2-.05-.89-.24-1.22-.65-1.32-1.02-.05-.21-.03-.4,0-.56,.04-.18,.11-.3,.11-.3,.39,.41,1.2,.7,1.64,.83,.18,.06,.3,.09,.3,.09Z"/><path class="cls-2" d="M62.15,73.78l-.17,.3c-.84-.23-1.39-.5-1.59-.83,.04-.18,.11-.3,.11-.3,.39,.41,1.2,.7,1.64,.83Z"/><path class="cls-17" d="M61.71,74.83c-.89-.24-1.22-.65-1.32-1.02,.3,.09,.65,.24,.93,.46,.22,.17,.33,.37,.39,.56Z"/></g><path class="cls-27" d="M55.16,67.69c-.11,.46,.17,.93,.63,1.05,.46,.11,.93-.17,1.05-.63s-.17-.93-.63-1.05c-.46-.11-.93,.17-1.05,.63Z"/><path class="cls-27" d="M55.26,69c-.08,.32,.12,.65,.44,.73,.32,.08,.65-.12,.73-.44s-.12-.65-.44-.73c-.32-.08-.65,.12-.73,.44Z"/><path class="cls-27" d="M55.17,69.83c-.08,.32,.12,.65,.44,.73,.32,.08,.65-.12,.73-.44,.08-.32-.12-.65-.44-.73-.32-.08-.65,.12-.73,.44Z"/><g><path class="cls-27" d="M55.62,67.48s-.25-1.55,2.21-2.69c2.46-1.14,5.08,.31,6.73-.68,1.65-.99,1.59,3.27-1.89,3.66-3.48,.39-7.05-.28-7.05-.28Z"/><path class="cls-27" d="M60.49,64.17c-.17,.69,.26,1.4,.95,1.56,.69,.17,1.4-.26,1.56-.95,.17-.69-.26-1.4-.95-1.56-.69-.17-1.4,.26-1.56,.95Z"/><path class="cls-27" d="M56.87,64.61c-.17,.69,.26,1.4,.95,1.56,.69,.17,1.4-.26,1.56-.95,.17-.69-.26-1.4-.95-1.56-.69-.17-1.4,.26-1.56,.95Z"/><path class="cls-27" d="M64.14,65.65c-.11,.46,.17,.93,.63,1.05,.46,.11,.93-.17,1.05-.63,.11-.46-.17-.93-.63-1.05s-.93,.17-1.05,.63Z"/><path class="cls-27" d="M59.19,63.86c-.11,.46,.17,.93,.63,1.05,.46,.11,.93-.17,1.05-.63,.11-.46-.17-.93-.63-1.05-.46-.11-.93,.17-1.05,.63Z"/><path class="cls-27" d="M55.73,65.62c-.11,.46,.17,.93,.63,1.05,.46,.11,.93-.17,1.05-.63,.11-.46-.17-.93-.63-1.05-.46-.11-.93,.17-1.05,.63Z"/><path class="cls-27" d="M62.94,64.32c-.17,.7,.26,1.41,.96,1.58,.7,.17,1.41-.26,1.58-.96,.17-.7-.26-1.41-.96-1.58-.7-.17-1.41,.26-1.58,.96Z"/></g></g></g><g><path class="cls-9" d="M81.67,87.37l5.3,5.24c.78-.03,1.08-1.83,1.2-3.28l-.75-1.44,.75-1.46h2.31l.53,1.61-.29,1.3-1.14,.55s-.8,6.53-1.81,6.53-7.56-5.71-7.56-5.71l1.46-3.34Z"/><g><polygon class="cls-27" points="80.25 91.2 83.16 93.58 85.51 89.87 81.67 87.37 80.25 91.2"/><polygon class="cls-14" points="81.88 92.53 82.33 90.26 83.16 93.58 81.88 92.53"/></g><polygon class="cls-9" points="82.21 98.62 82.21 102.31 72.17 103.01 71.73 99.12 82.21 98.62"/><g><polygon class="cls-9" points="92.31 160.26 90.1 160.66 89.19 157.63 88.36 154.86 90.91 153.96 91.66 157.3 92.31 160.26"/><polygon class="cls-15" points="91.67 157.37 89.2 157.69 88.36 154.89 90.92 153.98 91.67 157.37"/><path class="cls-27" d="M93.16,160.29s-.03-.03-.03-.06c0-.04,.07-.82,.38-1.07,.07-.07,.17-.1,.27-.08,.1,0,.19,.07,.21,.17,.06,.29-.49,.88-.77,1.04h-.03s-.02,.01-.03,.01Zm.44-1.06c-.19,.24-.3,.54-.32,.85,.28-.21,.63-.66,.59-.84,0-.02-.01-.07-.09-.07h-.03c-.05,0-.11,.02-.15,.06Z"/></g><g><polygon class="cls-9" points="77.51 161.29 75.26 161.29 74.89 158.11 74.55 155.22 77.23 154.78 77.38 158.22 77.51 161.29"/><polygon class="cls-15" points="77.38 158.25 74.89 158.14 74.55 155.23 77.23 154.78 77.38 158.25"/></g><g><path class="cls-23" d="M91.88,155.61l-3.65,.64c-3.68-9.17-6.3-16.82-8.14-23.16-1-3.43-1.83-6.47-2.42-9.18l.11,9.98v22.48h-3.59c-9.01-42.89-2.62-52.67-2.62-52.67l10.77-1.79c.41,1.61,.72,4.24,.9,6.05l.49,3.57,4.21,21.75,3.94,22.33Z"/><g class="cls-21"><path class="cls-2" d="M91.88,155.61l-3.65,.64c-3.68-9.17-6.3-16.82-8.14-23.16-1-3.43-1.83-6.47-2.42-9.18l.11,9.98v22.48h-3.59c-9.01-42.89-2.62-52.67-2.62-52.67l10.77-1.79c.41,1.61,.72,4.24,.9,6.05l.49,3.57,4.21,21.75,3.94,22.33Z"/></g></g><path class="cls-15" d="M80.09,133.09c-1-3.43-1.77-6.47-2.37-9.18,0,0,.06-5.25,.7-9.57,0,0,1.58,12.34,1.67,18.74Z"/><path class="cls-27" d="M83.12,103.74l-12.43,1.04c.39-2.44,.56-6.57-.23-9.37-.12-.42-.25-.86-.4-1.33-.17-.54-.36-1.12-.58-1.75-.17-.48-.35-.99-.55-1.53-.05-.16-.12-.32-.18-.48-.2-.55-.42-1.13-.66-1.74,1.44-.41,2.91-.72,4.39-.95,1.57-.25,3.16-.4,4.76-.45,2.06-.02,4.43,.19,4.43,.19,0,0,.33,.07,.55,2.02,.19,1.83,1.32,7.7,.9,14.35Z"/><g><path class="cls-9" d="M77.12,87.8c-.09-.05-.2-.1-.32-.14-.24-.19-.54-.66-.53-1.79,0-.37,.04-.8,.12-1.32l-3.14-.59s1.07,2.11,.18,3.68c-.31,.14-.49,.33-.46,.59,.24,1.82,3.69,2.17,3.69,2.17,0,0,2.35-1.57,.45-2.61Z"/><path class="cls-15" d="M76.4,84.55c-.37,1-1.19,1.69-2.62,1.96,.05-.83-.11-1.68-.52-2.55l3.14,.59Z"/></g><g><path class="cls-27" d="M77.99,74.04s-.4-3.34,2.69-2.25c3.09,1.1,2.67,6.68,4.15,8.52,1.48,1.84,2.58,1.64,2.58,1.64,0,0-1.84,1.53-3.61,.68-1.77-.84-5.81-8.61-5.81-8.61Z"/><path class="cls-23" d="M77.95,74.56l.73-.5s.81,.14,1.27,.99c.46,.85,.48,1.62,.48,1.62l-.98,.42-1.5-2.53Z"/><path class="cls-27" d="M74.27,74.48s-3.7-.26-4.21,2.74c-.51,3,1.86,4.52,1.86,4.52l2.35-7.26Z"/><path class="cls-9" d="M74.7,76.04c-2.73,0-3.61,1.47-3.81,4.29-.25,3.52,.54,6.02,3.96,5.27,4.64-1.03,4.39-9.56-.15-9.55Z"/><path class="cls-24" d="M72.66,80.18s-.38,.71-.79,1.14c0,0,.23,.37,.72,.31l.07-1.44Z"/><g><path class="cls-27" d="M74.33,79.95c0,.22,.11,.41,.26,.41,.15,0,.28-.18,.28-.4,0-.22-.11-.41-.26-.41-.15,0-.27,.18-.28,.4Z"/><path class="cls-27" d="M74.67,79.56l-.48-.2s.23,.42,.48,.2Z"/></g><g><path class="cls-27" d="M71.54,79.84c0,.22,.11,.41,.26,.41,.15,0,.28-.18,.28-.4,0-.22-.11-.41-.26-.41-.15,0-.28,.18-.28,.4Z"/><path class="cls-27" d="M71.88,79.45l-.48-.2s.23,.42,.48,.2Z"/></g><path class="cls-20" d="M74.35,78.06s.77-.1,1.19,.41"/><path class="cls-20" d="M72.37,77.95s-.48-.18-1.09,.23"/><path class="cls-27" d="M77.69,80.65s-1.28-2.25-1.09-3.98c0,0-5.42-2.21-5.68,3.29,0,0-.54-4.88,4.16-5,4.69-.11,4.69,6.76,2.26,8.81,0,0,1.14-1.73,.34-3.13Z"/><path class="cls-27" d="M73.8,74.3s-2.27-.42-2.87,.2c-.6,.63,4.16,4.56,6.55,4.85,0,0,.95,2.58,.38,3.84,0,0,2.61-1.08,2.51-5.14-.1-4.07-4.46-5.35-6.57-3.75Z"/><path class="cls-9" d="M77.25,81.23c.02-.44,.47-1.19,1.29-1.1,.85,.09,1.25,1.83-.85,2.25-.3,.06-.47-.24-.44-1.15Z"/><g><path class="cls-27" d="M72.32,82.59c.22,.36,.49,1.04,.49,1.04,.07-.01,.13-.03,.2-.04,.9-.2,1.25-.59,1.37-.96,.06-.2,.05-.4,.03-.56-.03-.18-.09-.31-.09-.31-.41,.39-1.24,.64-1.68,.75-.19,.05-.31,.07-.31,.07Z"/><path class="cls-2" d="M72.62,82.52l.15,.3c.85-.19,1.42-.43,1.62-.75-.03-.18-.09-.31-.09-.31-.41,.39-1.24,.64-1.68,.75Z"/><path class="cls-17" d="M73,83.59c.9-.2,1.25-.59,1.37-.96-.3,.08-.66,.21-.95,.42-.23,.16-.35,.35-.41,.54Z"/></g></g><path class="cls-27" d="M93.17,160.27s-.05-.03-.05-.06c0-.03,0-.05,.03-.06,.1-.06,.97-.6,1.27-.45,.07,.03,.11,.1,.11,.18,.02,.13-.03,.26-.13,.35-.15,.1-.34,.15-.52,.14-.24,0-.48-.04-.71-.1Zm.19-.09c.32,.11,.66,.09,.97-.05,.06-.06,.1-.14,.09-.23,0-.05-.02-.08-.04-.08-.03-.01-.05-.02-.08-.02-.33,.06-.65,.19-.93,.37Z"/><path class="cls-27" d="M78.05,160.27s-.05-.03-.05-.06c0-.03,0-.05,.03-.06,.1-.06,.97-.6,1.27-.45,.07,.03,.11,.1,.11,.18,.02,.13-.03,.26-.13,.35-.15,.1-.34,.15-.52,.14-.24,0-.48-.04-.71-.1Zm.19-.09c.32,.11,.66,.09,.97-.05,.06-.06,.1-.14,.09-.23,0-.05-.02-.08-.04-.08-.03-.01-.05-.02-.08-.02-.33,.06-.65,.19-.93,.37Z"/><path class="cls-27" d="M78.04,160.29s-.03-.03-.03-.06c0-.04,.07-.82,.38-1.07,.07-.07,.17-.1,.27-.08,.1,0,.19,.07,.21,.17,.06,.29-.49,.88-.77,1.04h-.03s-.02,.01-.03,.01Zm.44-1.06c-.19,.24-.3,.54-.32,.85,.28-.21,.63-.66,.59-.84,0-.02-.01-.07-.09-.07h-.03c-.05,0-.11,.02-.15,.06Z"/><path class="cls-23" d="M92.99,159.89h-3.3c-.11,0-.21,.08-.23,.19l-.54,2.42c-.05,.22,.09,.43,.31,.48,.03,0,.06,0,.09,0,1.07-.02,1.84-.08,3.19-.08,.83,0,3.32,.09,4.46,.09s1.29-1.13,.82-1.23c-2.09-.46-3.67-1.09-4.34-1.69-.12-.11-.29-.18-.46-.17Z"/><path class="cls-23" d="M77.87,159.89h-3.3c-.11,0-.21,.08-.23,.19l-.54,2.42c-.05,.22,.09,.43,.31,.48,.03,0,.06,0,.09,0,1.07-.02,1.84-.08,3.19-.08,.83,0,3.32,.09,4.46,.09s1.29-1.13,.82-1.23c-2.09-.46-3.67-1.09-4.34-1.69-.12-.11-.29-.18-.46-.17Z"/><path class="cls-15" d="M70.06,94.08c-.17-.54-.36-1.12-.58-1.75-.17-.48-.35-.99-.55-1.53,.11-.26,.26-.48,.44-.64,0,0,.81,2.21,.69,3.92Z"/><path class="cls-9" d="M68.1,88.58c-1.41,.69-5.61,7.35-4.41,9.61s6.58,4.22,6.58,4.22c0,0-2.25,1.24-2.17,1.55s1.95,1.56,2.17,1.56c.1,0,1.49-1.26,1.81-1.63,.27-.3,.03-1.58,.03-1.58-1.52-1.24-5.69-4.21-5.95-4.88-.25-.67,3.26-5.26,3.26-5.26,0,0,.1-1.91-.32-2.76-.41-.83-1.01-.83-1.01-.83Z"/><path class="cls-27" d="M67.84,94.97l-3.13-2.35c1.22-1.68,2.18-4.1,3.38-4.05,1.16,.07,1.41,1.73,1.39,3.75l-1.64,2.64Z"/></g><g><path class="cls-27" d="M141.02,72.33s-2.86-1.59-5.19-.41c-1.07,.54-1.45,1.93-1.68,3.02-.32,1.51-.37,3.07-.58,4.6-.09,.65-.25,1.28-.55,1.86-.4,.78-1.21,1.55-1.04,2.5,.14,.84,1,1.34,1.75,1.57,1.98,.61,4.23,.27,6.27,.4,1.65,.1,3.24,.66,4.89,.7,.47,.01,.96-.03,1.36-.27,1.59-.95,.9-3.39,.38-4.75-.44-1.15-.11-2.33-.25-3.54-.12-1.05-.33-2.12-.74-3.1-.83-1.96-2.48-3-4.62-2.58Z"/><path class="cls-13" d="M127.3,92.83c.53-.05,5.78-3.46,5.78-3.46l.18-1.42,.2-1.54c-.79-.03-5.49,3.73-6.16,4.06-1.37,.67-1.21,2.46,0,2.36Z"/><polygon class="cls-15" points="131.66 90.28 133.08 89.38 133.28 87.86 131.66 90.28"/><g><path class="cls-23" d="M146.99,87s-2.35,2.39-2.64,12.54l-10.52-.85s-1.67-7.24-.38-12.37c0,0,6.25-1.64,13.53,.67Z"/><path class="cls-3" d="M146.99,87s-2.35,2.39-2.64,12.54l-10.52-.85s-1.67-7.24-.38-12.37c0,0,6.25-1.64,13.53,.67Z"/></g><polygon class="cls-13" points="124.61 157.19 126.71 157.56 127.58 154.69 128.36 152.06 125.94 151.21 125.23 154.38 124.61 157.19"/><polygon class="cls-15" points="125.22 154.44 127.57 154.75 128.36 152.09 125.93 151.23 125.22 154.44"/><polygon class="cls-13" points="138.65 158.16 140.79 158.16 141.14 155.15 141.46 152.4 138.92 151.98 138.78 155.25 138.65 158.16"/><polygon class="cls-15" points="138.78 155.28 141.14 155.17 141.46 152.42 138.92 151.99 138.78 155.28"/><g><path class="cls-27" d="M125.02,152.77l3.46,.61c3.49-8.69,5.97-15.95,7.73-21.98,.94-3.25,1.73-6.14,2.3-8.7l-.11,9.47v21.32h3.41c8.54-40.69,2.41-52.6,2.41-52.6l-10.39-.66c-.39,1.53-.43,5.62-.6,7.34l-.46,3.39-4,20.64-3.74,21.18Z"/><path class="cls-15" d="M136.21,131.41c.94-3.25,1.68-6.14,2.25-8.7,0,0-.06-4.98-.66-9.08,0,0-1.5,11.71-1.59,17.78Z"/></g><g><polygon points="144.35 99.54 133.83 98.69 133.83 100.48 144.5 101.42 144.35 99.54"/><path class="cls-2" d="M136.74,99.48v.83c0,.34,.25,.61,.59,.64l1.3,.11s.04,0,.06,0c.16,0,.32-.06,.44-.17,.13-.12,.21-.3,.21-.48v-.83c0-.34-.25-.62-.59-.64l-1.3-.11c-.18-.02-.36,.05-.49,.17-.13,.12-.21,.3-.21,.48Zm.33,.83v-.27s.01,0,.02,0l.36,.03c.12,0,.23-.08,.24-.2,0-.12-.08-.23-.2-.24l-.36-.03s-.03,0-.05,0v-.13c0-.09,.04-.17,.1-.23,.06-.05,.13-.08,.21-.08h.03l1.3,.11c.16,.01,.29,.15,.29,.31v.83c0,.09-.04,.17-.1,.23-.07,.06-.15,.09-.24,.08l-1.3-.11c-.16-.01-.29-.15-.29-.31Z"/></g><g><path class="cls-13" d="M141.55,85.95c.22,.1,.38,.22,.44,.38,0,0-1.34,1.13-3.53,1.11-.36,0-1.1-1.01-.54-1.32,.09-.05,.2-.1,.32-.14,.24-.19,.53-.65,.51-1.76,0-.36-.04-.79-.13-1.3l3.09-.59s-1.04,2.09-.15,3.63Z"/><path class="cls-15" d="M138.62,82.92c.08,.51,.12,.94,.13,1.3,2.09-.01,2.96-1.9,2.96-1.9l-3.09,.59Z"/></g><path class="cls-27" d="M127.86,156.04l-4.05-.76v2.88s-2.07,3.44-2.97,3.67c-.9,.24-.71,1.16-.71,1.16h4.47l1.09-1.3,.24,1.3h.86s.91-2.62,0-4.45l1.07-2.5Z"/><path class="cls-27" d="M142.15,155.68l-4.05,.31,.36,2.17s-2.07,3.44-2.97,3.67c-.9,.24-.71,1.16-.71,1.16h4.47l1.09-1.3,.24,1.3h.86s.91-2.62,0-4.45l.71-2.85Z"/><g><path class="cls-13" d="M139.68,74.18c-2.69,0-3.56,1.44-3.76,4.21-.25,3.47,.52,5.93,3.89,5.19,4.57-1,4.34-9.4-.13-9.41Z"/><path class="cls-25" d="M137.66,78.24s-.37,.7-.78,1.12c0,0,.23,.37,.71,.3l.07-1.42Z"/><g><path class="cls-27" d="M139.31,78.02c0,.22,.11,.4,.26,.41,.15,0,.27-.17,.28-.39,0-.22-.11-.4-.26-.41-.15,0-.27,.17-.28,.39Z"/><path class="cls-27" d="M139.65,77.64l-.48-.2s.23,.41,.48,.2Z"/></g><g><path class="cls-27" d="M136.56,77.91c0,.22,.11,.4,.26,.41,.15,0,.27-.17,.28-.39,0-.22-.11-.4-.26-.41-.15,0-.27,.17-.28,.39Z"/><path class="cls-27" d="M136.9,77.53l-.48-.2s.23,.41,.48,.2Z"/></g><path class="cls-27" d="M140.5,76.71s-.08-.02-.1-.05c-.36-.44-1.04-.36-1.05-.36-.07,0-.14-.04-.15-.12s.04-.14,.11-.15c.03,0,.84-.1,1.29,.46,.05,.06,.04,.14-.02,.19-.02,.02-.05,.03-.08,.03Z"/><path class="cls-27" d="M136.31,76.4s-.09-.02-.11-.06c-.04-.06-.02-.14,.04-.18,.65-.43,1.17-.24,1.19-.23,.07,.03,.1,.1,.08,.17-.03,.07-.1,.1-.17,.08h0s-.43-.14-.95,.21c-.02,.02-.05,.02-.07,.02Z"/><path class="cls-27" d="M142.62,78.72s-1.26-2.21-1.07-3.92c0,0-5.33-2.18-5.6,3.23,0,0-.52-4.81,4.11-4.91,4.62-.1,4.6,6.67,2.21,8.68,0,0,1.12-1.7,.34-3.08Z"/><path class="cls-13" d="M142.18,79.29c.02-.43,.47-1.17,1.27-1.08,.83,.09,1.23,1.8-.84,2.21-.3,.06-.47-.23-.43-1.14Z"/><g><path class="cls-27" d="M137.5,80.36c.16,.35,.32,1.01,.32,1.01,.06,0,.12,0,.19-.01,.84-.07,1.21-.38,1.36-.71,.08-.18,.1-.36,.09-.51,0-.17-.05-.29-.05-.29-.42,.31-1.21,.43-1.63,.48-.18,.02-.29,.03-.29,.03Z"/><path class="cls-2" d="M137.79,80.33l.1,.3c.8-.07,1.35-.23,1.57-.49,0-.17-.05-.29-.05-.29-.42,.31-1.21,.43-1.63,.48Z"/><path class="cls-17" d="M138.01,81.36c.84-.07,1.21-.38,1.36-.71-.29,.04-.63,.11-.92,.27-.22,.12-.36,.28-.44,.44Z"/></g></g><path class="cls-15" d="M142.13,94.9c.61,.48,1.76,.05,2.6-.49,.39-2.17,.54-3.81,.91-4.94-.61,.58-4.62,4.56-3.5,5.43Z"/><g><path class="cls-2" d="M137.72,92.99h0s-.07-.03-.08-.07c-.05-.2-1.29-4.97-.29-7.16,.02-.04,.07-.06,.12-.04,.04,.02,.06,.07,.04,.12-.85,1.86,0,5.79,.24,6.8,1.61-3.23,5.01-6.62,5.05-6.65,.04-.03,.09-.03,.13,0,.03,.04,.03,.09,0,.13-.04,.04-3.58,3.56-5.12,6.82-.01,.03-.05,.05-.08,.05Z"/><path class="cls-27" d="M137.67,94.57c-.5,0-.9-.4-.9-.9s.4-.9,.9-.9,.9,.4,.9,.9-.4,.9-.9,.9Zm0-1.44c-.3,0-.54,.24-.54,.54s.24,.54,.54,.54,.54-.24,.54-.54-.24-.54-.54-.54Z"/></g><path class="cls-13" d="M137.92,90.32l-.99-1.93s.14-1.76,0-1.9c-.14-.14-2.12-.99-2.83-.99-.71,0-.78,2.59-.49,2.89s2.08,.88,2.08,.88l1.8,1.35,.43-.3Z"/><path class="cls-13" d="M146.99,87c1.74,1.73-3.47,8.59-5.28,8.59s-6.02-6.32-6.02-6.32l1.24-.88s4.22,4.42,4.58,4.43c.36,.01,3.17-4.28,3.68-4.78,.73-.71,1.79-1.04,1.79-1.04Z"/></g><g><g><path class="cls-9" d="M103.34,87.36l-2.03-1.18s-.5-.82-.92-1.13c-.42-.31-2.14-.76-2.14-.76-.64-.14-.97,.06-1.15,.43l-.96,2.2c-.16,.38-.15,.57,0,.59,0,0,3.35,.83,4.18,.1l2.06,1.2,.97-1.44Z"/><g><path class="cls-23" d="M114.99,80.71c.06,.25,.01,.54-.17,.88-.51,.95-2.59,5.01-3.6,6.31-1.63,2.11-2.95,3.24-3.96,3.31-1.68,.12-6.62-2.08-6.62-2.08l1.96-2.93s2.93,1.35,4.17,1.07c1.24-.29,3.63-6.79,4.47-8.42,0,0,3.4,.36,3.74,1.87Z"/><path class="cls-15" d="M109.66,89.71s-.28,.45-1.1,.95c.72-1.56,1.8-7.51,1.8-7.51l-.69,6.56Z"/></g><g><path class="cls-23" d="M123.15,160.04h3.36c.11,0,.21,.08,.24,.19l.54,2.46c.05,.22-.09,.44-.31,.48-.03,0-.06,0-.09,0-1.09-.02-1.88-.08-3.24-.08-.84,0-3.37,.09-4.53,.09s-1.31-1.15-.84-1.25c2.13-.46,3.73-1.11,4.41-1.72,.13-.12,.29-.18,.46-.18Z"/><path class="cls-7" d="M123.15,160.04h3.36c.11,0,.21,.08,.24,.19l.54,2.46c.05,.22-.09,.44-.31,.48-.03,0-.06,0-.09,0-1.09-.02-1.88-.08-3.24-.08-.84,0-3.37,.09-4.53,.09s-1.31-1.15-.84-1.25c2.13-.46,3.73-1.11,4.41-1.72,.13-.12,.29-.18,.46-.18Z"/></g><g><path class="cls-23" d="M108.92,159.95h3.36c.11,0,.21,.08,.24,.19l.54,2.46c.05,.22-.09,.44-.31,.48-.03,0-.06,0-.09,0-1.09-.02-1.88-.08-3.24-.08-.84,0-3.37,.09-4.53,.09s-1.31-1.15-.84-1.25c2.13-.46,3.73-1.11,4.41-1.72,.13-.12,.29-.18,.46-.18Z"/><path class="cls-7" d="M108.92,159.95h3.36c.11,0,.21,.08,.24,.19l.54,2.46c.05,.22-.09,.44-.31,.48-.03,0-.06,0-.09,0-1.09-.02-1.88-.08-3.24-.08-.84,0-3.37,.09-4.53,.09s-1.31-1.15-.84-1.25c2.13-.46,3.73-1.11,4.41-1.72,.13-.12,.29-.18,.46-.18Z"/></g><g><g><path class="cls-27" d="M124.93,97.84h-14.66c-1.39,7.61-5.76,38.52-2.63,62.52h4.96s-.46-36.45,3.92-48.23c.5,6.3,5.63,48.2,5.63,48.2h5.05s-.75-15.76-1.51-30.65c-.48-9.37-.75-29.92-.77-31.84Z"/><path class="cls-6" d="M124.93,97.84h-14.66c-1.39,7.61-5.76,38.52-2.63,62.52h4.96s-.46-36.45,3.92-48.23c.5,6.3,5.63,48.2,5.63,48.2h5.05s-.75-15.76-1.51-30.65c-.48-9.37-.75-29.92-.77-31.84Z"/></g><path class="cls-15" d="M116.53,112.13c-.65,1.74-1.18,3.9-1.64,6.34-.41-5.61,1.23-11.56,1.23-11.56l.41,5.22Z"/></g><g><polygon points="112.17 99.62 109.96 99.59 110.15 98.02 112.17 98.02 112.17 99.62"/><polygon points="120.16 98.02 124.91 98.02 124.91 99.77 120.16 99.71 120.16 98.02"/><polygon points="119.64 99.71 112.7 99.62 112.7 98.02 119.64 98.02 119.64 99.71"/></g><g><path class="cls-2" d="M116.33,99.81h-1.64c-.23,0-.42-.19-.42-.42v-1.05c0-.23,.19-.42,.42-.42h1.64c.23,0,.42,.19,.42,.42v1.05c0,.23-.19,.42-.42,.42Zm-1.64-1.51s-.04,.02-.04,.04v1.05s.02,.04,.04,.04h1.64s.04-.02,.04-.04v-1.05s-.02-.04-.04-.04h-1.64Z"/><path class="cls-2" d="M116.53,99.01h-.85c-.11,0-.19-.09-.19-.19s.09-.19,.19-.19h.85c.11,0,.19,.09,.19,.19s-.09,.19-.19,.19Z"/></g><g><path class="cls-23" d="M127.22,80.01c-.17,.61-.36,1.4-.55,2.37-.22,1.1-.43,2.42-.62,3.9-.38,3.02-.63,7.7-.52,11.73l-15.85-.14s-.65-10.28,1.57-19.04l14.92-.19c.72-.01,1.24,.67,1.05,1.36Z"/><path class="cls-15" d="M126.67,82.38c-.22,1.1-.61,3.99-.79,5.48-1.46-.71-1.57-4.55-1.57-4.55,.64-.09,2.06-1.22,2.36-.93Z"/></g><path class="cls-9" d="M117.25,80.22s3.14,.03,4.25-1.27c-.71-.6-1.01-1.79-1.11-3.08-.07-.93-.03-1.9,.05-2.73,.03-.29,.06-.57,.09-.81l-3.45,3.3c.02,.06,.04,.12,.05,.18,.05,.18,.1,.35,.13,.53,.09,.45,.13,.9,.05,1.31-.08,.38-.05,.65-.18,.87-.11,.18-.34,.33-.85,.48-.33,.65,.96,1.22,.96,1.22Z"/><path class="cls-15" d="M117.14,78.52c1.06-.4,2.37-2.01,3.18-3.46-.07-.93,.04-1.09,.12-1.92l-3.3,2.67c.05,.18,.1,.35,.13,.53,.09,.45,.13,.9,.05,1.31-.08,.38-.05,.65-.18,.87Z"/><g><path class="cls-27" d="M113.69,66.75s-1,3.67,.82,5.33c1.82,1.66,2.61-5.28,2.61-5.28l-3.43-.04Z"/><path class="cls-9" d="M119.91,75.71c-1.12,1.27-2.73,1.45-4.04,.87-.84-.38-1.56-1.07-1.95-2-.05-.12-.1-.25-.14-.38-.71-2.39-.57-6.41,2.02-7.63,1.84-.88,4.04-.11,4.92,1.73,.25,.52,.38,1.1,.37,1.68,0,2.7,.11,4.29-1.18,5.74Z"/><path class="cls-27" d="M117.04,70.95c.03,.22-.09,.4-.24,.41-.15,0-.27-.17-.28-.38-.01-.22,.1-.4,.24-.41,.14,0,.27,.16,.28,.38Z"/><path class="cls-27" d="M114.56,71.08c.03,.22-.1,.4-.24,.41-.14,0-.27-.17-.28-.38-.01-.22,.1-.4,.24-.41,.14,0,.27,.18,.28,.38Z"/><path class="cls-24" d="M115.36,71.15c-.22,.69-.54,1.34-.95,1.93,.32,.2,.71,.25,1.07,.14l-.12-2.07Z"/><path class="cls-27" d="M113.6,70.12s.1,.01,.13-.02c.25-.21,.58-.3,.9-.22,.07,.02,.14-.02,.16-.08,.02-.07-.02-.14-.08-.16h0c-.4-.1-.83,0-1.14,.27-.06,.04-.07,.12-.02,.18h0s.03,.03,.05,.04Z"/><path class="cls-27" d="M117.48,69.93s.05-.01,.07-.03c.04-.06,.04-.14-.02-.18h0c-.32-.27-.75-.36-1.15-.24-.07,.02-.1,.1-.08,.16h0c.02,.07,.1,.1,.16,.08h0c.32-.08,.66,0,.91,.21,.03,.02,.07,.02,.11,0Z"/><path class="cls-27" d="M118.93,66.72l-.23,.51c.89,.28,.73,1.32,.55,1.79-.38,1,.2,2.55,.97,3.16,0,0,.02-.43,.39-.33,.37,.1,.28,2.36-.42,3.44,0,0,1.07-.98,1.66-3.36,.55-2.2,.6-4.02,.15-4.87l-3.07-.35Z"/><path class="cls-9" d="M122.39,72.11c-.27,.63-.77,1.12-1.4,1.38-.84,.33-1.35-.39-1.2-1.23,.14-.75,.74-1.84,1.62-1.81,.88,.03,1.29,.89,.98,1.66Z"/><g><path class="cls-27" d="M115.55,73.98c.23,.36,.5,1.05,.5,1.05,.07-.01,.14-.03,.2-.04,.91-.21,1.26-.6,1.38-.98,.06-.21,.05-.41,.02-.57-.03-.19-.1-.31-.1-.31-.42,.4-1.25,.66-1.7,.77-.19,.05-.31,.08-.31,.08Z"/><path class="cls-2" d="M115.86,73.9l.16,.31c.86-.2,1.43-.45,1.64-.77-.03-.19-.1-.31-.1-.31-.42,.4-1.25,.66-1.7,.77Z"/><path class="cls-17" d="M116.26,74.99c.91-.21,1.26-.6,1.38-.98-.31,.08-.67,.22-.97,.43-.23,.16-.35,.36-.42,.55Z"/></g><path class="cls-27" d="M113.69,66.75c.22-1.23,.77-2.24,1.42-3.43l.19,1.39c.28-.55,.75-.94,1.24-1.31l.25,1.5c.29-.65,.94-1.02,1.79-1.24l-.13,1.29c.41-.57,.93-.97,1.62-1.15l-.07,1.22c.28-.38,.43-.45,.91-.54l1.09,2.58-2.65,.85-5.15,.18-.52-1.34Z"/></g><path class="cls-9" d="M128.92,97.79l-.14,2.38s.42,.88,.45,1.41c.03,.53-1.11,4.04-1.11,4.04l-2.83-1.45s.64-3.65,1.72-3.95l.14-2.42,1.76-.02Z"/><path class="cls-23" d="M127.21,79.4c2.06,4.33,4.32,8.5,3.77,11.15l-1.48,9.26-2.86-.12,.96-8.5c.89-1.57-1.65-4.97-3.3-7.89l2.9-3.91Z"/></g><g><polygon class="cls-13" points="127.38 90.48 133.51 93.95 132.33 95.02 126.88 92.75 127.38 90.48"/><path class="cls-13" d="M130.94,93.35l1.39,1.67s.25,1.75,.42,1.85c.17,.1,2.29,.49,2.97,.33,.69-.16,.18-2.7-.16-2.92-.34-.22-2.22-.4-2.22-.4l-2.05-.91-.36,.39Z"/></g></g><g><path class="cls-15" d="M97.35,121.89c-1.51-3.43-2.94-6.39-2.94-6.39,0,0-.09-.78,.18-1.81,.4-.25,.71-.3,.71-.3,0,0,1.84,2.89,2.06,8.5Z"/><path class="cls-13" d="M108.88,160.41l1.76-.48c-.65-8.89-2.39-19.62-3.87-27.66-.23-1.26-.46-2.45-.67-3.56-.1-.53-.2-1.03-.3-1.52-.47-2.41-.87-4.32-1.11-5.49-.18-.86-.28-1.33-.28-1.33l-6.34,1.84,.53,1.6,1.74,5.27,.2,.6,1.15,3.48,1.96,5.93c.27,9.07,5.24,21.33,5.24,21.33Z"/><path class="cls-13" d="M93.5,159.98l1.82-.17c.95-9.64,.99-21.65,.86-29.99-.02-1.29-.05-2.5-.07-3.59,0-.06,0-.11,0-.16-.05-2.17-.11-3.9-.15-4.99-.04-.86-.05-1.32-.05-1.32l-6.56,.73,.41,2.73,.6,4.01,.12,.79,.41,2.73,1.1,7.33c-1.28,8.98,1.53,21.91,1.53,21.91Z"/><path class="cls-15" d="M90.35,127.21l5.76-1c0-.06,0-.11,0-.16-.05-2.17-.11-3.9-.15-4.99l-6.21,2.14,.6,4.01Z"/><path class="cls-15" d="M105.32,124.76l-6.07,1.03-.66-2.01,6.09-2.1c.16,.75,.38,1.8,.64,3.08Z"/><g><path class="cls-23" d="M89.57,105.04s-3.91,7.31-.23,20.64l7.17-.82v-6.87l1.55,6.62,7.19-1.44c-2.21-10.81-5.05-15.66-5.05-15.66l-.37-3.25-10.26,.79Z"/><path class="cls-4" d="M89.57,105.04s-3.91,7.31-.23,20.64l7.17-.82v-6.87l1.55,6.62,7.19-1.44c-2.21-10.81-5.05-15.66-5.05-15.66l-.37-3.25-10.26,.79Z"/></g><g><path class="cls-27" d="M92.64,159.6c0-.23,2.82-.05,2.82-.05,0,0,1.73,1.76,3.41,2.15s.74,1.4-1.14,1.4h-4.64c-1.33,0-.5-1.14-.44-3.51Z"/><path class="cls-23" d="M96.93,160.27c-.39,0-1.02-.29-1.17-.36,0,0-.02-.01-.02-.02h0v-.02s-.02-.04-.01-.06c0-.03,.25-.68,.63-.84,.12-.05,.24-.05,.36,0,.13,.06,.19,.14,.18,.24,0,.15-.21,.3-.44,.42,.24-.02,.48-.02,.63,.07,.08,.05,.13,.11,.15,.19,.04,.17-.01,.25-.07,.3-.06,.05-.15,.07-.25,.07Zm-.91-.4c.41,.18,.93,.33,1.06,.22,.01,0,.05-.04,.02-.15-.01-.04-.04-.07-.08-.1-.2-.12-.68-.04-1,.03Zm.5-.77s-.08,0-.11,.02c-.21,.09-.39,.39-.48,.6,.42-.16,.82-.38,.83-.5,0-.04-.06-.08-.1-.09-.04-.02-.09-.03-.13-.03Z"/></g><g><path class="cls-27" d="M108.37,159.6c0-.23,2.82-.05,2.82-.05,0,0,1.73,1.76,3.41,2.15,1.68,.4,.74,1.4-1.14,1.4h-4.64c-1.33,0-.5-1.14-.44-3.51Z"/><path class="cls-23" d="M112.67,160.27c-.39,0-1.02-.29-1.17-.36,0,0-.02-.01-.02-.02h0v-.02s-.02-.04-.01-.06c0-.03,.25-.68,.63-.84,.12-.05,.24-.05,.36,0,.13,.06,.19,.14,.18,.24,0,.15-.21,.3-.44,.42,.24-.02,.48-.02,.63,.07,.08,.05,.13,.11,.15,.19,.04,.17-.01,.25-.07,.3-.06,.05-.15,.07-.25,.07Zm-.91-.4c.41,.18,.93,.33,1.06,.22,.01,0,.05-.04,.02-.15-.01-.04-.04-.07-.08-.1-.2-.12-.68-.04-1,.03Zm.5-.77s-.08,0-.11,.02c-.21,.09-.39,.39-.48,.6,.42-.16,.82-.38,.83-.5,0-.04-.06-.08-.1-.09-.04-.02-.09-.03-.13-.03Z"/></g><path class="cls-15" d="M96.51,117.98c1.22-2.53,2.08-4.61,2.08-4.61,0,0,.27,6.41-.53,11.23l-1.55-6.62Z"/><path class="cls-27" d="M94.03,73.68s-2.94-1.48-5.24-.19c-1.06,.59-1.38,2.01-1.56,3.11-.25,1.54-.24,3.1-.39,4.65-.06,.65-.2,1.3-.47,1.9-.37,.8-.95,2.56-.95,2.56l1.77,.36,.59-.78,.12,.92,4.98,1,.35-.79,.35,.93,1.39-.22,.49-1.11,.25,.99,2.03-.32,.4-1.21,.48,1.07,1.49-.24-.03-3.6s-.21-2.35-.41-3.55c-.17-1.06-.42-2.12-.88-3.09-.92-1.94-2.63-2.91-4.76-2.4Z"/><g><path class="cls-13" d="M99.17,87.42c1.54,.31,7.31,5.65,6.74,8.15-.57,2.49-5.28,5.77-5.28,5.77,0,0,2.49,.62,2.5,.94,0,.32-1.48,2.01-1.7,2.07-.1,.03-1.76-.83-2.17-1.11-.34-.22-.44-1.51-.44-1.51,1.15-1.59,4.42-5.54,4.49-6.25,.07-.71-4.51-4.24-4.51-4.24,0,0-.59-1.82-.4-2.75,.19-.91,.76-1.07,.76-1.07Z"/><g><path class="cls-23" d="M98.79,91.4c-.54-1.95-.86-3.78,.24-4.15,1.15-.36,7.03,5.39,6.91,8.05-.09,1.98-4.56,5.72-4.56,5.72l-1.26-1.3s2.93-3.96,3.01-4.42c.07-.46-4.33-3.9-4.33-3.9Z"/><path class="cls-21" d="M98.79,91.4c-.54-1.95-.86-3.78,.24-4.15,1.15-.36,7.03,5.39,6.91,8.05-.09,1.98-4.56,5.72-4.56,5.72l-1.26-1.3s2.91-3.94,3.01-4.42c.1-.48-4.33-3.9-4.33-3.9Z"/></g><polygon class="cls-14" points="101.11 93.26 99.65 92.08 99.92 90.29 101.11 93.26"/></g><polygon class="cls-27" points="89.57 103.54 89.57 105.04 99.83 104.25 99.83 102.47 89.57 103.54"/><rect class="cls-2" x="95.23" y="102.94" width="2.25" height="1.71" transform="translate(-8.87 9.01) rotate(-5.12)"/><g><rect class="cls-23" x="92.51" y="102.92" width=".51" height="2.59" transform="translate(-5.19 4.87) rotate(-2.92)"/><rect class="cls-8" x="92.51" y="102.92" width=".51" height="2.59" transform="translate(-5.19 4.87) rotate(-2.92)"/></g><g><rect class="cls-23" x="98.78" y="102.23" width=".51" height="2.59" transform="translate(-5.15 5.19) rotate(-2.92)"/><rect class="cls-8" x="98.78" y="102.23" width=".51" height="2.59" transform="translate(-5.15 5.19) rotate(-2.92)"/></g><g><path class="cls-23" d="M99.81,102.65l-10.26,.89c-.24-3.81,.37-6.18-1.88-12.98-.2-.59-.34-1.8-.57-2.47,1.39-.32,1.88-.3,3.32-.54,1.52-.27,3.06-.43,4.61-.49,2-.01,4.29,.21,4.29,.21,0,0,.33,.08,.53,2.19,.19,1.99,.37,5.96-.04,13.18Z"/><path class="cls-18" d="M99.81,102.65l-10.25,.89c-.14-2.15,.1-3.77-.28-6.27-.24-1.62-.51-3.33-1.32-5.84-.09-.29-.22-.69-.32-1-.2-.6-.3-1.68-.53-2.35,1.42-.32,1.88-.3,3.32-.54,1.52-.27,3.06-.43,4.61-.49,2-.02,4.29,.21,4.29,.21,0,0,.33,.08,.53,2.19,.19,1.99,.37,5.96-.04,13.18Z"/></g><path class="cls-13" d="M94.19,89.33c-2.53-.32-3.29-1.4-3.29-1.4,1.6-1.51,.27-4.14,.27-4.14l3.04,.57c-.08,.5-.11,.92-.12,1.28-.02,1.85,.81,1.86,.81,1.86,.53,1-.72,1.83-.72,1.83Z"/><path class="cls-15" d="M94.21,84.36c-.08,.5-.06,.63-.06,.63l-.05,.49-2.93-1.69,3.04,.57Z"/><g><g><path class="cls-13" d="M97.21,82.92c-.02,.09-.05,.18-.08,.27-.36,1.11-1.14,1.79-2.51,1.82-.19,0-.39,0-.6-.02-.12-.01-.26-.03-.4-.05-4.68-.76-4.91-9.28-.39-9.53,2.72-.15,3.68,1.26,4.03,4.06,.17,1.33,.18,2.52-.06,3.46Z"/><path class="cls-25" d="M95.5,79.41s.42,.69,.85,1.09c0,0-.21,.38-.7,.35l-.15-1.43Z"/><path class="cls-27" d="M90.51,80.16s1.15-2.31,.86-4.03c0,0,5.28-2.5,5.84,2.96,0,0,.26-4.89-4.43-4.75-4.68,.15-4.29,7-1.76,8.91,0,0-1.23-1.66-.52-3.1Z"/><path class="cls-13" d="M90.99,80.71c-.04-.44-.54-1.16-1.35-1.02-.84,.14-1.15,1.89,.98,2.2,.3,.04,.46-.26,.37-1.17Z"/><g><g><path class="cls-27" d="M93.94,79.27c0,.21-.12,.38-.26,.38s-.25-.17-.25-.38c0-.21,.12-.38,.26-.38,.14,0,.25,.17,.25,.38Z"/><path class="cls-27" d="M93.63,78.9l.46-.17s-.23,.38-.46,.17Z"/></g><g><path class="cls-27" d="M96.55,79.25c0,.21-.12,.38-.26,.38-.14,0-.25-.17-.25-.38,0-.21,.12-.38,.26-.38,.14,0,.25,.17,.25,.38Z"/><path class="cls-27" d="M96.24,78.88l.46-.17s-.23,.38-.46,.17Z"/></g><path class="cls-27" d="M92.86,77.98s-.07,0-.1-.03c-.05-.05-.06-.13-.01-.18,.45-.51,1.2-.4,1.24-.39,.07,.01,.12,.08,.1,.15-.01,.07-.08,.12-.15,.11,0,0-.65-.1-1,.31-.02,.03-.05,.04-.08,.04Z"/><path class="cls-27" d="M96.85,77.83s-.06,0-.09-.02c-.49-.35-.88-.23-.9-.23-.07,.02-.14-.02-.16-.08-.02-.07,.01-.14,.08-.16,.02,0,.52-.17,1.12,.26,.06,.04,.07,.12,.03,.18-.02,.03-.06,.05-.09,.05Z"/><path class="cls-27" d="M95.59,82.04c.06,0,.12,0,.19,0,.04,0,.07-.04,.07-.08,0-.04-.04-.07-.08-.07-1.19,.09-1.7-.71-1.72-.74-.02-.04-.07-.05-.1-.02-.04,.02-.05,.07-.02,.1,.02,.04,.52,.82,1.67,.82Z"/></g></g><path class="cls-27" d="M92.23,73.98s1.95-.1,3.44,.71c1.49,.81,1.56,2.04,1.56,2.04l-.52-.19-1.04-.83s.19,.28,.21,.85c0,0-.32-.69-.78-.8,0,0,.21,.59-.25,.98,0,0-.18-.67-.6-.88,0,0,.08,.39-.7,.88,0,0,.04-.67-.44-.95,0,0-.37,.71-.88,.81,0,0,.38-.35,.31-.56,0,0-.67,.64-1.52,.71-.85,.07-1.98-1.73,1.22-2.75Z"/></g><path class="cls-15" d="M90.26,81.56c.15,.04,.48,.24,.48,.24,.48,.29,1.32,1.56,1.32,1.56,0,0,.71,.95,.53,1.46-.1,.3-.35,.74-.35,.74l-.03,2.53-1.19-.29,.14-2.79-.97-3.21c-.11-.02-.26-.08-.46-.18,0,0,.26-.13,.53-.06Z"/><path class="cls-13" d="M92.12,86.57v-1.17s.47-.18,.39-.68-1.92-2.85-2.1-2.91-1.68,.38-1.72,.39c-.04,0,.79,2.35,2.37,3.2l.1,1.43,.96-.26Z"/><polygon class="cls-13" points="94.91 87.51 97.44 87.51 95.38 90.87 89.12 88.44 90.9 87.93 94.91 87.51"/><path class="cls-15" d="M93.34,96.53c-.55,.6-3.29-.95-4.59-2.21-.34-1.5-.15-.7-.92-3.27l1.38-1.02,.94,.66,.16-1.79,.36,.14,.1-1.07-.38,.11,.05-.52,.38-.07,1.73,1.36,.06,.94,.37,.15s1.1,5.8,.37,6.6Z"/><g><path class="cls-23" d="M87.1,88.09c.74-.22,3.32,3.59,3.32,3.59l.57-6.13,1.3,.32s.91,9.2,0,9.6c-.91,.4-3.24-.9-5.5-4.21-.82-1.2-.56-2.91,.31-3.17Z"/><path class="cls-18" d="M87.1,88.09c.74-.22,3.32,3.59,3.32,3.59l.57-6.13,1.3,.32s.91,9.2,0,9.6c-.91,.4-3.24-.9-5.5-4.21-.82-1.2-.56-2.91,.31-3.17Z"/></g></g></svg>