<?xml version="1.0" encoding="UTF-8"?><svg id="Layer_1" xmlns="http://www.w3.org/2000/svg" viewBox="0 0 300 300"><defs><style>.cls-1,.cls-2{opacity:.7;}.cls-3,.cls-4,.cls-5,.cls-6,.cls-7,.cls-2,.cls-8,.cls-9,.cls-10,.cls-11{fill:#fff;}.cls-12{fill:#fafafa;}.cls-4,.cls-9{opacity:.4;}.cls-13,.cls-10{opacity:.6;}.cls-14{fill:#f5f5f5;}.cls-5{opacity:.3;}.cls-15,.cls-16,.cls-8,.cls-11{opacity:.2;}.cls-6{opacity:.1;}.cls-17{fill:#ec873e;}.cls-7{opacity:.8;}.cls-18{fill:#e1e1e1;}.cls-19{fill:#fd897b;}.cls-20{fill:#007cff;}.cls-21{fill:#263237;}.cls-22{fill:#b84d3c;}.cls-16,.cls-9,.cls-11{isolation:isolate;}.cls-23{stroke-width:.72px;}.cls-23,.cls-24,.cls-25,.cls-26{fill:none;}.cls-23,.cls-25{stroke:#1a2e35;}.cls-23,.cls-25,.cls-26{stroke-linecap:round;stroke-linejoin:round;}.cls-27{fill:#cc7a63;}.cls-28{fill:#fcb373;}.cls-29{fill:#fd5652;}.cls-30{fill:#ececec;}.cls-31{fill:#1a2e35;}.cls-25,.cls-26{stroke-width:.5px;}.cls-26{stroke:#ec873e;}</style></defs><g><rect class="cls-30" x="3.21" y="232.87" width="293.58" height=".15"/><rect class="cls-30" x="247.93" y="242.32" width="19.45" height=".15"/><rect class="cls-30" x="192.58" y="243.92" width="5.1" height=".15"/><rect class="cls-30" x="236.07" y="236.87" width="11.27" height=".15"/><rect class="cls-30" x="34.01" y="237.86" width="25.36" height=".15"/><rect class="cls-30" x="64.6" y="237.86" width="3.72" height=".15"/><rect class="cls-30" x="80.41" y="240.34" width="55" height=".15"/><path class="cls-30" d="M142.38,206.69H29c-1.85,0-3.35-1.5-3.35-3.35V43.96c0-1.85,1.5-3.35,3.35-3.35h113.38c1.85,0,3.35,1.5,3.35,3.35V203.33c0,1.85-1.5,3.35-3.35,3.35ZM29,40.76c-1.77,0-3.2,1.44-3.2,3.2V203.33c0,1.77,1.44,3.2,3.2,3.2h113.38c1.77,0,3.2-1.44,3.2-3.2V43.96c0-1.77-1.44-3.2-3.2-3.2H29Z"/><path class="cls-30" d="M269.37,206.69h-113.38c-1.85,0-3.35-1.5-3.35-3.35V43.96c0-1.85,1.5-3.35,3.35-3.35h113.38c1.85,0,3.35,1.5,3.35,3.35V203.33c0,1.85-1.5,3.35-3.35,3.35ZM156,40.76c-1.77,0-3.2,1.44-3.2,3.2V203.33c0,1.77,1.44,3.2,3.2,3.2h113.38c1.77,0,3.2-1.44,3.2-3.2V43.96c0-1.77-1.44-3.2-3.2-3.2h-113.38Z"/></g><g><g><g><rect class="cls-14" x="60.13" y="67.2" width="55.59" height="125.23"/><rect class="cls-12" x="27.66" y="104.12" width="120.53" height="51.39" transform="translate(217.74 41.89) rotate(90)"/><rect class="cls-14" x="87.34" y="68.95" width="1.18" height="122.31"/><rect class="cls-14" x="58.85" y="65.57" width="58.15" height="5.89"/><g><rect class="cls-14" x="58.85" y="72.12" width="58.15" height=".7"/><rect class="cls-14" x="58.85" y="73.7" width="58.15" height=".7"/><rect class="cls-14" x="58.85" y="75.29" width="58.15" height=".7"/><rect class="cls-14" x="58.85" y="76.87" width="58.15" height=".7"/><rect class="cls-14" x="58.85" y="78.46" width="58.15" height=".7"/><rect class="cls-14" x="58.85" y="80.04" width="58.15" height=".7"/><rect class="cls-14" x="58.85" y="81.63" width="58.15" height=".7"/><rect class="cls-14" x="58.85" y="83.22" width="58.15" height=".7"/><rect class="cls-14" x="58.85" y="84.8" width="58.15" height=".7"/><rect class="cls-14" x="58.85" y="86.39" width="58.15" height=".7"/><rect class="cls-14" x="58.85" y="87.97" width="58.15" height=".7"/><rect class="cls-14" x="58.85" y="89.56" width="58.15" height=".7"/><rect class="cls-14" x="58.85" y="91.14" width="58.15" height=".7"/><rect class="cls-14" x="58.85" y="92.73" width="58.15" height=".7"/><rect class="cls-14" x="58.85" y="94.31" width="58.15" height=".7"/><rect class="cls-14" x="58.85" y="95.9" width="58.15" height=".7"/><rect class="cls-14" x="58.85" y="97.48" width="58.15" height=".7"/><rect class="cls-14" x="58.85" y="99.07" width="58.15" height=".7"/></g></g><g><rect class="cls-14" x="125.95" y="67.2" width="55.59" height="125.23"/><rect class="cls-12" x="93.48" y="104.12" width="120.53" height="51.39" transform="translate(283.55 -23.93) rotate(90)"/><rect class="cls-14" x="153.15" y="68.95" width="1.18" height="122.31"/><rect class="cls-14" x="124.66" y="65.57" width="58.15" height="5.89"/><g><rect class="cls-14" x="124.66" y="72.12" width="58.15" height=".7"/><rect class="cls-14" x="124.66" y="73.7" width="58.15" height=".7"/><rect class="cls-14" x="124.66" y="75.29" width="58.15" height=".7"/><rect class="cls-14" x="124.66" y="76.87" width="58.15" height=".7"/><rect class="cls-14" x="124.66" y="78.46" width="58.15" height=".7"/><rect class="cls-14" x="124.66" y="80.04" width="58.15" height=".7"/><rect class="cls-14" x="124.66" y="81.63" width="58.15" height=".7"/><rect class="cls-14" x="124.66" y="83.22" width="58.15" height=".7"/><rect class="cls-14" x="124.66" y="84.8" width="58.15" height=".7"/><rect class="cls-14" x="124.66" y="86.39" width="58.15" height=".7"/><rect class="cls-14" x="124.66" y="87.97" width="58.15" height=".7"/><rect class="cls-14" x="124.66" y="89.56" width="58.15" height=".7"/><rect class="cls-14" x="124.66" y="91.14" width="58.15" height=".7"/><rect class="cls-14" x="124.66" y="92.73" width="58.15" height=".7"/><rect class="cls-14" x="124.66" y="94.31" width="58.15" height=".7"/><rect class="cls-14" x="124.66" y="95.9" width="58.15" height=".7"/><rect class="cls-14" x="124.66" y="97.48" width="58.15" height=".7"/><rect class="cls-14" x="124.66" y="99.07" width="58.15" height=".7"/></g></g><g><rect class="cls-14" x="191.76" y="67.2" width="55.59" height="125.23"/><rect class="cls-12" x="159.29" y="104.12" width="120.53" height="51.39" transform="translate(349.37 -89.74) rotate(90)"/><rect class="cls-14" x="218.96" y="68.95" width="1.18" height="122.31"/><rect class="cls-14" x="190.48" y="65.57" width="58.15" height="5.89"/><g><rect class="cls-14" x="190.48" y="72.12" width="58.15" height=".7"/><rect class="cls-14" x="190.48" y="73.7" width="58.15" height=".7"/><rect class="cls-14" x="190.48" y="75.29" width="58.15" height=".7"/><rect class="cls-14" x="190.48" y="76.87" width="58.15" height=".7"/><rect class="cls-14" x="190.48" y="78.46" width="58.15" height=".7"/><rect class="cls-14" x="190.48" y="80.04" width="58.15" height=".7"/><rect class="cls-14" x="190.48" y="81.63" width="58.15" height=".7"/><rect class="cls-14" x="190.48" y="83.22" width="58.15" height=".7"/><rect class="cls-14" x="190.48" y="84.8" width="58.15" height=".7"/><rect class="cls-14" x="190.48" y="86.39" width="58.15" height=".7"/><rect class="cls-14" x="190.48" y="87.97" width="58.15" height=".7"/><rect class="cls-14" x="190.48" y="89.56" width="58.15" height=".7"/><rect class="cls-14" x="190.48" y="91.14" width="58.15" height=".7"/><rect class="cls-14" x="190.48" y="92.73" width="58.15" height=".7"/><rect class="cls-14" x="190.48" y="94.31" width="58.15" height=".7"/><rect class="cls-14" x="190.48" y="95.9" width="58.15" height=".7"/><rect class="cls-14" x="190.48" y="97.48" width="58.15" height=".7"/><rect class="cls-14" x="190.48" y="99.07" width="58.15" height=".7"/></g></g></g><g><path class="cls-18" d="M245.03,217.42s2.97-6.49-.42-12.88c-3.4-6.4-4.38-7.9-2.22-9.21,2.17-1.31,3.16,5.12,3.16,5.12,0,0,1.83-4.42,.32-9.05-1.51-4.63-2.45-12.16-.39-12.97,2.06-.81,.39,9.4,2.18,12.88,0,0,1.5-3.87,1.75-7.59,.25-3.72-.14-9.65,1.49-11.17s2.67-.47,1.07,7.73-1.59,14.87-1.59,14.87c0,0,3.53-10.76,5.9-11.07,2.37-.31,2.37,3.17,.34,6.19-2.03,3.02-5.94,8.43-6.58,11.22,0,0,3.87-8.1,7.36-5.61,3.48,2.48-3.03,7.37-5.94,9.14s-4.92,12.84-4.92,12.84l-1.5-.43Z"/><path class="cls-30" d="M247.38,220.08s-2.9-6.53,.58-12.87c3.47-6.34,4.48-7.84,2.33-9.18-2.15-1.34-3.22,5.07-3.22,5.07,0,0-1.77-4.45-.21-9.05,1.56-4.6,2.6-12.12,.55-12.96-2.05-.84-.51,9.39-2.33,12.85,0,0-1.45-3.9-1.66-7.62-.2-3.72,.25-9.65-1.35-11.19-1.61-1.55-2.66-.51-1.16,7.72,1.5,8.22,1.41,14.89,1.41,14.89,0,0-3.4-10.81-5.76-11.16-2.36-.35-2.4,3.13-.41,6.19s5.83,8.52,6.44,11.32c0,0-3.78-8.15-7.29-5.72-3.51,2.43,2.94,7.42,5.83,9.23,2.88,1.81,4.77,12.91,4.77,12.91l1.5-.41Z"/><polygon class="cls-30" points="234.02 215.42 257.94 215.42 256.01 232.54 235.96 232.54 234.02 215.42"/></g><g><path class="cls-30" d="M54.74,214.2c-.09-.58-2.07-14.26,1.9-18.99,.88-1.05,1.99-1.59,3.3-1.62,8.02-.19,9.12,6.25,9.13,6.32l-.95,.15c-.04-.23-.99-5.68-8.16-5.51-1.04,.03-1.88,.45-2.59,1.28-3.7,4.4-1.71,18.09-1.69,18.23l-.95,.14Z"/><path class="cls-30" d="M54.26,213.58l-.96-.03c0-.13,.32-12.61-5.83-15.19-6.03-2.52-8.74,2.67-8.85,2.89l-.86-.43c.03-.06,3.21-6.22,10.08-3.34,6.76,2.83,6.44,15.56,6.42,16.1Z"/><path class="cls-30" d="M54.28,214.56c0-.2-.06-19.94-3.91-25.71-3.7-5.54-9.66-2.93-9.91-2.82l-.4-.87c.07-.03,6.95-3.07,11.1,3.16,4.01,6.01,4.07,25.42,4.07,26.24h-.96Z"/><path class="cls-18" d="M61.09,194.06s-3.5,1.29-2.46,4.34c1.04,3.05,12.11,8.06,12.11,8.06,0,0,4.64-4.25,.38-11.16-4.26-6.91-9.94-3.42-10.03-1.24Z"/><path class="cls-18" d="M50.2,187.8s2.49-.27,2.29-1.78c-.2-1.51-9.66-5.41-15.25,.89,0,0,3.58,6.14,8.74,6.22,5.17,.08,4.22-5.33,4.22-5.33Z"/><path class="cls-18" d="M47.65,197.92s1.72-1.39-.14-2.06c-1.85-.68-10.94-.48-11.03,8.52,0,0,10.58,1.76,11.89-1.67,1.31-3.43-.72-4.78-.72-4.78Z"/><polygon class="cls-30" points="62.97 232.54 46.55 232.54 44.78 214.56 64.74 214.56 62.97 232.54"/><rect class="cls-18" x="43.9" y="212.57" width="21.72" height="3.97"/></g></g><ellipse id="_Path_" class="cls-14" cx="150" cy="252.74" rx="113.84" ry="6.65"/><g id="_Group_"><g><path class="cls-19" d="M190.45,123.85s0,5.62-1.78,7.81c-1.78,2.18-10.99,6.74-10.99,6.74,0,0-5.49-.01-6,0-.51,.01-1.91,2.51-1.91,2.51l2.33,2.77s6.82-1.32,6.2-3.3c0,0,9.06-3.55,11.61-5.31,2.56-1.76,4.49-9.73,4.49-9.73l-3.95-1.48Z"/><path class="cls-20" d="M193.42,107.82c-2.74-1-4.29,17.75-4.29,17.75l7.05,2.46s2.54-18.29-2.76-20.22Z"/><path class="cls-9" d="M196.58,124.06c-.18,2.34-.4,3.97-.4,3.97l-7.05-2.46s1.55-18.75,4.29-17.76c1.84,.68,2.74,3.33,3.12,6.51h0c.39,3.22,.25,6.98,.04,9.74Z"/><path class="cls-16" d="M196.58,124.06c-3.27-3.85-1.17-10.65-1.17-10.65,.37,.19,.75,.5,1.13,.9h0c.39,3.22,.25,6.98,.04,9.74Z"/></g><path class="cls-31" d="M223.51,247.3h5.95c.2,0,.37,.14,.42,.34l.97,4.36c.08,.39-.17,.77-.56,.86-.05,.01-.11,.02-.16,.02-1.93-.03-3.33-.15-5.75-.15-1.49,0-5.98,.16-8.04,.16s-2.32-2.03-1.48-2.22c3.78-.82,6.62-1.96,7.83-3.05,.22-.21,.52-.32,.82-.31Z"/><path class="cls-31" d="M198.27,247.14h5.95c.2,0,.37,.14,.42,.34l.97,4.36c.08,.39-.17,.77-.56,.86-.05,.01-.11,.02-.16,.02-1.93-.03-3.33-.15-5.75-.15-1.49,0-5.98,.16-8.04,.16s-2.32-2.03-1.48-2.22c3.78-.82,6.62-1.96,7.83-3.05,.22-.21,.52-.32,.82-.31Z"/><path class="cls-6" d="M223.51,247.3h5.95c.2,0,.37,.14,.42,.34l.97,4.36c.08,.39-.17,.77-.56,.86-.05,.01-.11,.02-.16,.02-1.93-.03-3.33-.15-5.75-.15-1.49,0-5.98,.16-8.04,.16s-2.32-2.03-1.48-2.22c3.78-.82,6.62-1.96,7.83-3.05,.22-.21,.52-.32,.82-.31Z"/><path class="cls-6" d="M198.27,247.14h5.95c.2,0,.37,.14,.42,.34l.97,4.36c.08,.39-.17,.77-.56,.86-.05,.01-.11,.02-.16,.02-1.93-.03-3.33-.15-5.75-.15-1.49,0-5.98,.16-8.04,.16s-2.32-2.03-1.48-2.22c3.78-.82,6.62-1.96,7.83-3.05,.22-.21,.52-.32,.82-.31Z"/><path class="cls-20" d="M226.66,136.99h-26c-2.47,13.5-10.21,68.32-4.66,110.88h8.8s-.81-64.64,6.96-85.53c.89,11.18,9.98,85.49,9.98,85.49h8.96s-1.34-27.95-2.68-54.36c-.84-16.63-1.33-53.06-1.36-56.48Z"/><path class="cls-11" d="M226.66,136.99h-26c-2.47,13.5-10.21,68.32-4.66,110.88h8.8s-.81-64.64,6.96-85.53c.89,11.18,9.98,85.49,9.98,85.49h8.96s-1.34-27.95-2.68-54.36c-.84-16.63-1.33-53.06-1.36-56.48Z"/><path class="cls-16" d="M211.76,162.34c-1.15,3.08-2.1,6.92-2.9,11.25-.73-9.95,2.18-20.5,2.18-20.5l.72,9.25Z"/><g><path class="cls-20" d="M226.74,137.8l-26.63,.7c.74-15.25-6.45-24.9-7.38-29.58-.13-.68,.29-1.34,.96-1.49,1.32-.29,2.68-.53,4.05-.75,6.9-1.07,14.17-1.26,18.7-1.26,2.77,0,2.16,.08,2.16,.08,4.69,3.69,8.4,23.85,8.13,32.29Z"/><path class="cls-9" d="M226.74,137.8l-26.63,.7c.74-15.25-6.45-24.9-7.38-29.58-.13-.68,.29-1.34,.96-1.49,1.32-.29,2.68-.53,4.05-.75,6.9-1.07,14.17-1.26,18.7-1.26,2.77,0,2.16,.08,2.16,.08,4.69,3.69,8.4,23.85,8.13,32.29Z"/></g><g><path class="cls-19" d="M210.38,106.32c-.57,3.49-6.09,6.99-6.09,6.99,0,0-2.82-3.12-3.05-5.5,0,0,.54-.5,.88-1.17,.16-.32,.28-.68,.26-1.03-.03-.63-.29-1.27-.65-1.91-.18-.33-.41-.66-.64-.99l3.83-4.76,.88-1.1c.04,.33,.09,.69,.16,1.07,.13,.78,.32,1.65,.56,2.53,.69,2.45,1.88,4.97,3.85,5.85Z"/><path class="cls-16" d="M206.53,100.46c-.19,2.35-1.07,5.6-4.41,6.18,.16-.32,.28-.68,.26-1.03-.03-.63-.29-1.27-.65-1.91-.18-.33-.41-.66-.64-.99l3.83-4.76c.33-.02,.69-.02,1.04-.02,.13,.78,.32,1.65,.56,2.53Z"/></g><g><path class="cls-31" d="M191.01,88.24s-.09,6.64,3.7,8.66c3.79,2.02,2.12-10.08,2.12-10.08l-5.83,1.42Z"/><path class="cls-19" d="M194.42,100.78c.12,.2,.26,.4,.4,.58,.51,.68,1.14,1.23,1.83,1.65,.73,.45,1.53,.74,2.34,.88,1.49,.25,3.04,0,4.33-.83,.85-.55,1.6-1.34,2.13-2.39,1.55-3.02,.66-5.65-.5-10.22-.24-.99-.69-1.91-1.35-2.68-2.29-2.73-6.36-3.08-9.08-.79-3.84,3.18-2.34,10.05-.09,13.79Z"/><path class="cls-31" d="M198.52,93.87c.14,.35,.02,.72-.22,.8-.24,.08-.53-.16-.64-.53-.12-.36-.01-.72,.22-.8,.24-.07,.52,.16,.64,.53Z"/><path class="cls-31" d="M194.38,95.18c.14,.35,.01,.72-.22,.8-.24,.07-.53-.16-.64-.53-.12-.36-.01-.72,.22-.8,.24-.07,.53,.18,.64,.53Z"/><path class="cls-29" d="M195.75,94.95c-.08,1.26-.34,2.5-.76,3.69,.62,.2,1.31,.12,1.86-.23l-1.11-3.46Z"/><path class="cls-31" d="M192.29,93.9c.08,.02,.17-.01,.22-.07,.36-.44,.91-.69,1.49-.67,.12,.02,.24-.07,.25-.19,.02-.12-.07-.24-.19-.25h0c-.72-.05-1.43,.26-1.88,.82-.08,.09-.08,.23,.02,.32h0s.06,.04,.1,.05Z"/><path class="cls-31" d="M198.81,91.96s.08-.04,.11-.08c.05-.11,0-.25-.11-.3h0c-.66-.3-1.43-.26-2.06,.11-.1,.07-.13,.21-.06,.31h0c.07,.1,.21,.13,.31,.06h0c.5-.28,1.11-.3,1.63-.07,.07,.01,.13,0,.19-.04Z"/><path class="cls-31" d="M199.87,85.89l.29,2.07c.75,.18,1.35,.81,1.25,1.69-.2,1.86,1.45,4.23,3.03,4.93,0,0-.15-.74,.51-.73,.66,.01,1.5,3.87,.78,6.01,0,0,1.39-2.13,1.36-6.4-.03-3.95-.73-7.07-1.87-8.3l-5.34,.74Z"/><path class="cls-19" d="M208.08,93.52c-.18,1.18-.81,2.23-1.77,2.94-1.27,.93-2.46-.08-2.57-1.57-.09-1.32,.45-3.44,1.96-3.76,1.51-.33,2.58,.95,2.38,2.39Z"/><path class="cls-25" d="M199.7,98.54s.11,1.75-1.56,1.92"/><path class="cls-31" d="M205.78,85.99s-.23-2.76-4.93-3.68c-4.7-.92-8.59,2.68-11.84,1.67s-1.35,6.29,4.79,5.48c6.14-.81,11.99-3.47,11.99-3.47Z"/></g><path class="cls-16" d="M215.82,111.79s-2.24,10.18-3.04,13.31c-1.61,6.35-9.31,12.96-9.31,12.96,0,0,4.81-1.12,9.85-1.98,6.25-1.06,12.11-9.68,8.61-21.13l-6.12-3.17Z"/><g><path class="cls-19" d="M215.63,121.54s0,5.62-1.78,7.81c-1.78,2.18-10.99,6.74-10.99,6.74,0,0-5.49-.01-6,0-.51,.01-1.91,2.51-1.91,2.51l2.33,2.77s6.82-1.32,6.2-3.3c0,0,9.06-3.55,11.61-5.31,2.56-1.76,4.49-9.73,4.49-9.73l-3.95-1.48Z"/><path class="cls-20" d="M218.6,105.51c-2.74-1-4.29,17.75-4.29,17.75l7.05,2.46s2.54-18.29-2.76-20.22Z"/><path class="cls-9" d="M218.6,105.51c-2.74-1-4.29,17.75-4.29,17.75l7.05,2.46s2.54-18.29-2.76-20.22Z"/></g></g><g><g><g><path class="cls-21" d="M147.04,252.88c-12.55,0-22.76-12.51-22.76-27.89s10.21-27.89,22.76-27.89,22.76,12.51,22.76,27.89-10.21,27.89-22.76,27.89Zm0-52.85c-10.93,0-19.83,11.2-19.83,24.96s8.89,24.96,19.83,24.96,19.83-11.2,19.83-24.96-8.89-24.96-19.83-24.96Z"/><g><path class="cls-24" d="M141.92,226.98c-.1-.45-.17-.92-.2-1.41h-11.27c.05,2.4,.39,4.7,.99,6.85l10.48-5.44Z"/><path class="cls-24" d="M142.89,229.34c-.24-.38-.44-.79-.61-1.22l-10.49,5.44c.74,2.26,1.77,4.32,3.03,6.11l8.07-10.33Z"/><path class="cls-24" d="M146.45,246.69v-14.84c-.34-.05-.66-.13-.98-.26l-4.5,13.61c1.71,.88,3.55,1.4,5.48,1.49Z"/><path class="cls-24" d="M141.72,224.4c.03-.52,.11-1.02,.23-1.5l-10.42-5.63c-.65,2.23-1.02,4.63-1.08,7.13h11.27Z"/><path class="cls-24" d="M159.26,210.3l-8.07,10.33c.24,.38,.44,.79,.61,1.22l10.49-5.45c-.74-2.26-1.77-4.32-3.03-6.11Z"/><path class="cls-24" d="M131.89,216.12l10.42,5.64c.16-.4,.36-.78,.58-1.13l-8.07-10.33c-1.2,1.71-2.19,3.67-2.93,5.82Z"/><path class="cls-24" d="M148.53,231.62c-.29,.11-.59,.19-.9,.23v14.84c1.84-.08,3.6-.56,5.25-1.37l-4.35-13.71Z"/><path class="cls-24" d="M147.63,203.28v14.84c.34,.05,.66,.13,.98,.26l4.5-13.61c-1.71-.88-3.55-1.4-5.48-1.49Z"/><path class="cls-24" d="M145.55,218.35c.29-.11,.59-.19,.9-.23v-14.84c-1.84,.08-3.6,.56-5.25,1.37l4.35,13.71Z"/><path class="cls-24" d="M143.63,219.67c.27-.29,.56-.54,.87-.76l-4.34-13.69c-1.71,1.03-3.27,2.42-4.61,4.11l8.08,10.34Z"/><path class="cls-24" d="M162.19,233.85l-10.42-5.64c-.16,.4-.36,.78-.58,1.13l8.07,10.33c1.2-1.71,2.19-3.68,2.93-5.82Z"/><path class="cls-24" d="M144.43,231.01c-.28-.21-.55-.44-.8-.71l-8.08,10.34c1.28,1.61,2.76,2.96,4.39,3.98l4.5-13.61Z"/><path class="cls-24" d="M150.45,230.3c-.27,.29-.56,.54-.87,.76l4.34,13.69c1.71-1.03,3.27-2.42,4.61-4.11l-8.08-10.34Z"/><path class="cls-24" d="M149.65,218.96c.28,.21,.55,.44,.8,.71l8.08-10.34c-1.28-1.61-2.76-2.96-4.39-3.98l-4.5,13.61Z"/><path class="cls-24" d="M152.36,225.57c-.03,.52-.11,1.02-.23,1.5l10.42,5.63c.65-2.23,1.02-4.63,1.08-7.14h-11.27Z"/><path class="cls-24" d="M152.15,222.99c.1,.45,.17,.92,.21,1.41h11.27c-.05-2.4-.39-4.7-.99-6.85l-10.48,5.44Z"/><path class="cls-20" d="M147.04,199.73c-11.09,0-20.12,11.33-20.12,25.25s9.03,25.25,20.12,25.25,20.12-11.33,20.12-25.25-9.03-25.25-20.12-25.25Zm4.15,20.9l8.07-10.33c1.25,1.79,2.28,3.85,3.03,6.11l-10.49,5.45c-.17-.43-.37-.85-.61-1.22Zm-3.56-2.51v-14.84c1.93,.09,3.77,.61,5.48,1.49l-4.5,13.61c-.31-.12-.64-.21-.98-.26Zm-1.17,0c-.31,.04-.61,.12-.9,.23l-4.35-13.71c1.64-.81,3.41-1.29,5.25-1.37v14.84Zm-4.14,3.64l-10.42-5.64c.74-2.15,1.73-4.11,2.93-5.82l8.07,10.33c-.22,.35-.41,.73-.58,1.13Zm-.37,1.14c-.12,.48-.19,.98-.23,1.5h-11.27c.05-2.51,.43-4.91,1.08-7.13l10.42,5.63Zm-.23,2.67c.03,.48,.1,.96,.2,1.41l-10.48,5.44c-.6-2.15-.94-4.45-.99-6.85h11.27Zm.56,2.54c.17,.44,.37,.85,.61,1.22l-8.07,10.33c-1.25-1.79-2.28-3.85-3.03-6.11l10.49-5.44Zm4.17,3.74v14.84c-1.93-.09-3.77-.61-5.48-1.49l4.5-13.61c.31,.12,.64,.21,.98,.26Zm1.17,0c.31-.04,.61-.12,.9-.23l4.35,13.71c-1.64,.81-3.41,1.29-5.25,1.37v-14.84Zm4.14-3.64l10.42,5.64c-.74,2.15-1.73,4.11-2.93,5.82l-8.07-10.33c.22-.35,.41-.73,.58-1.13Zm.37-1.14c.12-.48,.19-.98,.23-1.5h11.27c-.05,2.51-.43,4.91-1.08,7.14l-10.42-5.63Zm.23-2.67c-.03-.48-.1-.96-.21-1.41l10.48-5.44c.6,2.15,.94,4.45,.99,6.85h-11.27Zm6.17-15.07l-8.08,10.34c-.25-.27-.52-.5-.8-.71l4.5-13.61c1.62,1.01,3.1,2.36,4.39,3.98Zm-18.37-4.11l4.34,13.69c-.31,.22-.6,.47-.87,.76l-8.08-10.34c1.34-1.69,2.9-3.08,4.61-4.11Zm-4.61,35.42l8.08-10.34c.25,.27,.52,.5,.8,.71l-4.5,13.61c-1.62-1.01-3.1-2.36-4.39-3.98Zm18.37,4.11l-4.34-13.69c.31-.22,.6-.47,.87-.76l8.08,10.34c-1.34,1.69-2.9,3.08-4.61,4.11Z"/></g><g class="cls-16"><path d="M147.04,199.73c-11.09,0-20.12,11.33-20.12,25.25s9.03,25.25,20.12,25.25,20.12-11.33,20.12-25.25-9.03-25.25-20.12-25.25Zm4.15,20.9l8.07-10.33c1.25,1.79,2.28,3.85,3.03,6.11l-10.49,5.45c-.17-.43-.37-.85-.61-1.22Zm-3.56-2.51v-14.84c1.93,.09,3.77,.61,5.48,1.49l-4.5,13.61c-.31-.12-.64-.21-.98-.26Zm-1.17,0c-.31,.04-.61,.12-.9,.23l-4.35-13.71c1.64-.81,3.41-1.29,5.25-1.37v14.84Zm-4.14,3.64l-10.42-5.64c.74-2.15,1.73-4.11,2.93-5.82l8.07,10.33c-.22,.35-.41,.73-.58,1.13Zm-.37,1.14c-.12,.48-.19,.98-.23,1.5h-11.27c.05-2.51,.43-4.91,1.08-7.13l10.42,5.63Zm-.23,2.67c.03,.48,.1,.96,.2,1.41l-10.48,5.44c-.6-2.15-.94-4.45-.99-6.85h11.27Zm.56,2.54c.17,.44,.37,.85,.61,1.22l-8.07,10.33c-1.25-1.79-2.28-3.85-3.03-6.11l10.49-5.44Zm4.17,3.74v14.84c-1.93-.09-3.77-.61-5.48-1.49l4.5-13.61c.31,.12,.64,.21,.98,.26Zm1.17,0c.31-.04,.61-.12,.9-.23l4.35,13.71c-1.64,.81-3.41,1.29-5.25,1.37v-14.84Zm4.14-3.64l10.42,5.64c-.74,2.15-1.73,4.11-2.93,5.82l-8.07-10.33c.22-.35,.41-.73,.58-1.13Zm.37-1.14c.12-.48,.19-.98,.23-1.5h11.27c-.05,2.51-.43,4.91-1.08,7.14l-10.42-5.63Zm.23-2.67c-.03-.48-.1-.96-.21-1.41l10.48-5.44c.6,2.15,.94,4.45,.99,6.85h-11.27Zm6.17-15.07l-8.08,10.34c-.25-.27-.52-.5-.8-.71l4.5-13.61c1.62,1.01,3.1,2.36,4.39,3.98Zm-18.37-4.11l4.34,13.69c-.31,.22-.6,.47-.87,.76l-8.08-10.34c1.34-1.69,2.9-3.08,4.61-4.11Zm-4.61,35.42l8.08-10.34c.25,.27,.52,.5,.8,.71l-4.5,13.61c-1.62-1.01-3.1-2.36-4.39-3.98Zm18.37,4.11l-4.34-13.69c.31-.22,.6-.47,.87-.76l8.08,10.34c-1.34,1.69-2.9,3.08-4.61,4.11Z"/></g></g><g><path class="cls-21" d="M162.34,197.46h-22.83c-2.67,0-4.85,2.18-4.85,4.85v37.92c0,1.2-.97,2.17-2.17,2.17h-7.12c-.65,0-1.17,.53-1.17,1.17s.53,1.17,1.17,1.17h7.12c2.49,0,4.52-2.03,4.52-4.52v-14.06h25.33c.65,0,1.17-.53,1.17-1.17v-26.35c0-.65-.53-1.17-1.17-1.17Zm-1.17,26.35h-24.16v-21.5c0-1.38,1.12-2.5,2.5-2.5h21.66v24Z"/><path class="cls-5" d="M162.34,197.46h-22.83c-2.67,0-4.85,2.18-4.85,4.85v37.92c0,1.2-.97,2.17-2.17,2.17h-7.12c-.65,0-1.17,.53-1.17,1.17s.53,1.17,1.17,1.17h7.12c2.49,0,4.52-2.03,4.52-4.52v-14.06h25.33c.65,0,1.17-.53,1.17-1.17v-26.35c0-.65-.53-1.17-1.17-1.17Zm-1.17,26.35h-24.16v-21.5c0-1.38,1.12-2.5,2.5-2.5h21.66v24Z"/><g><path class="cls-21" d="M165.05,146.51v37.82h-27.56c-2.44,0-4.41,1.98-4.41,4.41v19.62h29.62c2.95,0,5.34-2.39,5.34-5.34v-56.52h-2.98Z"/><path class="cls-5" d="M165.05,146.51v37.82h-27.56c-2.44,0-4.41,1.98-4.41,4.41v19.62h29.62c2.95,0,5.34-2.39,5.34-5.34v-56.52h-2.98Z"/></g><path class="cls-21" d="M140.1,198.56h41.68v8.59h-49.27v-1c0-4.19,3.4-7.59,7.59-7.59Z"/><g><path class="cls-21" d="M186.2,205.93h-53.77c-.67,0-1.22,.55-1.22,1.22h0c0,.67,.55,1.22,1.22,1.22h53.77c.65,0,1.18-.5,1.22-1.15h0c.04-.7-.52-1.29-1.22-1.29Z"/><path class="cls-5" d="M186.2,205.93h-53.77c-.67,0-1.22,.55-1.22,1.22h0c0,.67,.55,1.22,1.22,1.22h53.77c.65,0,1.18-.5,1.22-1.15h0c.04-.7-.52-1.29-1.22-1.29Z"/></g><path class="cls-21" d="M166.1,147.63h25.03v45.09c0,7.29-5.92,13.2-13.2,13.2h-11.83v-58.3h0Z"/><rect class="cls-21" x="122.65" y="240.41" width="17.39" height="3.74" rx="1.87" ry="1.87"/><rect class="cls-8" x="122.65" y="240.41" width="17.39" height="3.74" rx="1.87" ry="1.87"/><path class="cls-21" d="M186.09,224.15l-22.73-8.09,22.73-8.09c.46-.16,.7-.67,.53-1.12-.16-.46-.67-.7-1.13-.53l-24.76,8.81-24.76-8.81c-.46-.17-.96,.08-1.13,.53-.16,.46,.08,.96,.53,1.12l22.73,8.09-22.73,8.09c-.46,.16-.7,.67-.53,1.12,.13,.36,.47,.59,.83,.59,.1,0,.2-.02,.3-.05l24.76-8.81,24.76,8.81c.1,.03,.2,.05,.3,.05,.36,0,.7-.22,.83-.59,.16-.46-.08-.96-.53-1.12Z"/><path class="cls-5" d="M186.09,224.15l-22.73-8.09,22.73-8.09c.46-.16,.7-.67,.53-1.12-.16-.46-.67-.7-1.13-.53l-24.76,8.81-24.76-8.81c-.46-.17-.96,.08-1.13,.53-.16,.46,.08,.96,.53,1.12l22.73,8.09-22.73,8.09c-.46,.16-.7,.67-.53,1.12,.13,.36,.47,.59,.83,.59,.1,0,.2-.02,.3-.05l24.76-8.81,24.76,8.81c.1,.03,.2,.05,.3,.05,.36,0,.7-.22,.83-.59,.16-.46-.08-.96-.53-1.12Z"/></g><path class="cls-31" d="M166.47,152.1c-.49,0-.88-.39-.88-.88v-6.75c0-2.69,2.1-4.89,4.79-5.02l5.68-.27c.49-.03,.9,.35,.92,.84,.02,.49-.35,.9-.84,.92l-5.68,.27c-1.74,.08-3.11,1.52-3.11,3.26v6.75c0,.49-.39,.88-.88,.88Z"/></g><g><g><polygon class="cls-28" points="137.66 238.09 143.3 236.32 142.58 230.75 141.9 225.65 134.97 227.01 136.39 232.88 137.66 238.09"/><polygon class="cls-16" points="136.43 232.99 142.61 230.86 141.92 225.7 134.98 227.04 136.43 232.99"/></g><path class="cls-21" d="M143.79,235.03c-.03-.44-6.89,.15-6.89,.15,0,0-4.11,3.52-8.19,4.42-4.08,.9-1.72,2.75,2.88,2.58,4.59-.16,8.1-.29,11.36-.41,3.26-.12,1.15-2.22,.85-6.75Z"/><path class="cls-21" d="M126.94,188.54c4.1-7.05,25.93-8.38,40.39-9.37l4.93,12.74s-21.58-1.19-27.8,5.83c-4.95,5.59-1.58,30.7-1.58,30.7l-9.28,.66s-13.92-28.07-6.65-40.56Z"/><path class="cls-16" d="M126.94,188.54c4.1-7.05,25.93-8.38,40.39-9.37l4.93,12.74s-21.58-1.19-27.8,5.83c-4.95,5.59-1.58,30.7-1.58,30.7l-9.28,.66s-13.92-28.07-6.65-40.56Z"/><g><polygon class="cls-28" points="149.4 238.09 155.05 236.32 154.32 230.75 153.64 225.65 146.71 227.01 148.13 232.88 149.4 238.09"/><polygon class="cls-16" points="148.17 232.99 154.35 230.86 153.66 225.7 146.72 227.04 148.17 232.99"/></g><g><path class="cls-20" d="M168.27,142.93c2.93-1.41,10.75-.19,12.63,1.6,1.88,1.79-5.81,7.05-9.93,6.3-4.12-.75-4.99-6.8-2.7-7.9Z"/><path class="cls-16" d="M168.27,142.93c2.93-1.41,10.75-.19,12.63,1.6,1.88,1.79-5.81,7.05-9.93,6.3-4.12-.75-4.99-6.8-2.7-7.9Z"/></g><path class="cls-21" d="M153.43,179.06s5.11-9.89,5.38-10.66c1.36-3.98,26.09-.39,26.09-.39,0,0,6.82,20.72-1.67,26.67-7.38,5.17-25.25,2.84-28.28,3.78-2.81,.86-4.18,3.88,.09,31.95l-9.2,.35s-13.47-33.49-13.32-39.5c.15-6.01-.91-8.79,20.92-12.18Z"/><g><path class="cls-20" d="M153.74,177.6s7.2-25.4,9.76-31.96c.95-2.44,23.62-.08,23.62-.08v30.74s-16.95,6-21.91,3.51c-1.57-.79-3.25-6.24-3.25-6.24,0,0-3.17,5.91-5.13,5.95-1.11,.03-3.07-1.93-3.07-1.93Z"/><path class="cls-10" d="M187.11,145.56v30.74s-16.96,6-21.91,3.51c-1.57-.79-3.25-6.24-3.25-6.24,0,0-3.16,5.91-5.13,5.95-1.12,.03-3.08-1.93-3.08-1.93,0,0,.09-.34,.28-.96,.97-3.42,4.4-15.35,7.05-23.77,.97-3.08,1.83-5.68,2.44-7.24,.95-2.43,23.62-.08,23.62-.08Z"/><circle class="cls-16" cx="167.65" cy="157.24" r=".62"/><circle class="cls-16" cx="165.51" cy="163.43" r=".62"/><circle class="cls-16" cx="163.11" cy="170.32" r=".62"/><path class="cls-16" d="M187.11,158.69v17.2c-18.04,6.11-23.05,.82-23.05,.82,0,0,9.89-5.61,13.99-7.7,4.1-2.09,4.9-13.01,4.9-13.01,0,0,1.88,1.05,4.16,2.69Z"/><path class="cls-16" d="M158.62,168.15c.06,3.59,.64,4.76,.8,6.35,.15,1.44-.28,4.74-5.4,2.14,.97-3.42,4.4-15.35,7.05-23.77,.21,.08,.42,.22,.6,.4,0,0-3.12,10.45-3.05,14.88Z"/></g><g><path class="cls-28" d="M180.37,145.66s-2.79,2.32-5.4,2.44c-2.61,.12-5.1,3.95-5.1,3.95,0,0-.65-3.83-.48-4.18,.07-.14-.17-.72-.39-1.35h0c-.31-.93-.54-1.98,.39-1.98,1.57,0,.48-3.18,.48-3.18l8.86-2.44s-.38,1.17-.5,2.54c-.16,1.77,.11,3.86,2.14,4.19Z"/><path class="cls-16" d="M178.74,138.93s-.38,1.17-.5,2.54c-1.77,2.1-4.86,4.77-9.22,5.04-.31-.93-.54-1.97,.39-1.97,1.57,0,.48-3.18,.48-3.18l8.86-2.44Z"/></g><g><path class="cls-20" d="M179.33,146.18s-4.61,8.13-5.58,14.87c0,0,2.97-.29,4.77,0,1.8,.29,.51-8.95,4.76-15.56l-3.95,.69Z"/><path class="cls-16" d="M179.33,146.18s-4.61,8.13-5.58,14.87c0,0,2.97-.29,4.77,0,1.8,.29,.51-8.95,4.76-15.56l-3.95,.69Z"/><path class="cls-20" d="M168.27,146.54c0,2.65,3.17,4.82,7.93,.87,4.76-3.95,6.03-4.86,7.2-3.47,0,0,1.59,.12,1.84,1.45,0,0-2.31,.86-3.82,2.37-1.51,1.51-7.9,7.08-12.02,6.62-4.12-.46-5.16-6.44-2.8-8.88,0,0,.09-3.76,3.68-2.27,0,0-2.01,.29-2.01,3.31Z"/><path class="cls-20" d="M173.75,161.05s-.57,2.54-.45,2.65,.36-2.52,.82-2.32c.46,.19-.38,2.41,0,2.33,.38-.08-.03-2.25,.45-2.29s-.06,2.26,.28,2.29c.35,.03,.03-2.29,.46-2.29s-.15,2.34,.24,2.29c.39-.04,.08-2.41,.5-2.41s-.23,2.3,.19,2.41c.43,.11-.04-2.29,.5-2.29s-.12,2.34,.15,2.29c.27-.05-.15-2.41,.39-2.29,.54,.12-.04,2.38,.27,2.3,.31-.09-.27-2.3,.27-2.18s.35,2.35,.5,2.18c.15-.17,.08-1.99,.41-2.03,.33-.04-.02,1.63,.48,1.74,.5,.12-.48-2.4-.48-2.4,0,0-3.06-.62-4.99,.02Z"/></g><g><path class="cls-28" d="M175.16,126.62c-4.94-.78-6.95,1.62-8.12,6.65-.03,.13-.09,.39-.09,.39-3.07,2.72-1.27,10.27,5.73,10.27,8.7,0,10.69-16.02,2.48-17.31Z"/><path class="cls-17" d="M170.28,133.5s-.89,1.18-1.76,1.82c0,0,.32,.74,1.22,.76l.55-2.59Z"/><g><path class="cls-31" d="M173.37,133.57c-.07,.4,.09,.77,.36,.82,.27,.05,.55-.24,.62-.64,.07-.4-.09-.77-.36-.82-.27-.05-.55,.24-.62,.64Z"/><path class="cls-31" d="M174.1,132.97l-.82-.51s.3,.82,.82,.51Z"/></g><g><path class="cls-31" d="M168.36,132.57c-.07,.4,.09,.77,.36,.82,.27,.05,.55-.24,.62-.64,.07-.4-.09-.77-.36-.82-.27-.05-.55,.24-.62,.64Z"/><path class="cls-31" d="M169.09,131.97l-.82-.51s.3,.82,.82,.51Z"/></g><path class="cls-31" d="M175.99,131.47c-.07,0-.14-.04-.18-.11-.54-.93-1.84-.98-1.85-.98-.12,0-.21-.1-.21-.22,0-.12,.1-.21,.21-.21h0c.06,0,1.54,.05,2.2,1.19,.06,.1,.02,.23-.08,.29-.03,.02-.07,.03-.11,.03Z"/><path class="cls-31" d="M168.37,129.7c-.08,0-.16-.05-.19-.12-.05-.11,0-.23,.1-.28,1.3-.6,2.19-.11,2.23-.09,.1,.06,.14,.19,.08,.29-.06,.1-.19,.14-.29,.08-.03-.02-.76-.4-1.84,.1-.03,.01-.06,.02-.09,.02Z"/><path class="cls-31" d="M188.1,131.93c-.9-.79-2.61-.34-3.84,.15,0-.05,0-.1,0-.15,0-3.29-2.25-4.71-2.25-4.71,.01-1.97-1.53-2.84-3.21-3.36-1.69-.52-3.14,.46-5.11-.46-1.97-.93-3.31,.17-3.82,1.1-.51,.93-.29,2.27-1.93,2.32-1.64,.05-1.24,1.59-.93,2.41,.31,.83,.23,.59-.29,1.5-.36,.62,.18,1.02,.56,1.2-.06,.43-.08,.7-.08,.7,.05-.23,.1-.46,.16-.67,2.33-8.94,11.06-3.65,11.06-3.65-.85,3.08,.82,7.51,.82,7.51,.73,1.97-.35,3.95-1.03,4.93-.28,.4-.49,.63-.49,.63,.29-.18,.58-.39,.85-.63,3.52-.12,3.36-2.04,3.35-2.67,0-.17,.16-.45,.39-.82,.6,1.14,1.82,2.64,4.02,2.16,3.43-.75,3.25-6.16,1.74-7.48Z"/><path class="cls-23" d="M172.98,137.54s-1.11,1.7-3.1,.79"/><path class="cls-26" d="M173.2,134.1s-.23,1.64,1.34,1.37"/><path class="cls-26" d="M169.35,133.4s-.36,1.37-1.75,.69"/><path class="cls-26" d="M171.72,136.09s1.98,.71,2.38,2.51"/><path class="cls-4" d="M188.1,131.93c-.9-.79-2.61-.34-3.84,.15,0-.05,0-.1,0-.15,0-3.29-2.25-4.71-2.25-4.71,.01-1.97-1.53-2.84-3.21-3.36-1.69-.52-3.14,.46-5.11-.46-1.97-.93-3.31,.17-3.82,1.1-.51,.93-.29,2.27-1.93,2.32-1.64,.05-1.24,1.59-.93,2.41,.31,.83,.23,.59-.29,1.5-.36,.62,.18,1.02,.56,1.2-.06,.43-.08,.7-.08,.7,.05-.23,.1-.46,.16-.67,2.33-8.94,11.06-3.65,11.06-3.65-.85,3.08,.82,7.51,.82,7.51,.73,1.97-.35,3.95-1.03,4.93-.28,.4-.49,.63-.49,.63,.29-.18,.58-.39,.85-.63,3.52-.12,3.36-2.04,3.35-2.67,0-.17,.16-.45,.39-.82,.6,1.14,1.82,2.64,4.02,2.16,3.43-.75,3.25-6.16,1.74-7.48Z"/><path class="cls-28" d="M178.28,136.72c.16-.79,1.19-2.01,2.65-1.61,1.51,.41,1.74,3.67-2.19,3.82-.56,.02-.79-.56-.46-2.21Z"/><g class="cls-15"><path class="cls-3" d="M175.99,131.47c-.07,0-.14-.04-.18-.11-.54-.93-1.84-.98-1.85-.98-.12,0-.21-.1-.21-.22,0-.12,.1-.21,.21-.21h0c.06,0,1.54,.05,2.2,1.19,.06,.1,.02,.23-.08,.29-.03,.02-.07,.03-.11,.03Z"/></g><g class="cls-15"><path class="cls-3" d="M168.37,129.7c-.08,0-.16-.05-.19-.12-.05-.11,0-.23,.1-.28,1.3-.6,2.19-.11,2.23-.09,.1,.06,.14,.19,.08,.29-.06,.1-.19,.14-.29,.08-.03-.02-.76-.4-1.84,.1-.03,.01-.06,.02-.09,.02Z"/></g></g><path class="cls-20" d="M122.08,208.84s.11-17.77,4.53-22.3,20.81-7.37,20.81-7.37c0,0,15.29-1.59,20.82,1.2,5.53,2.8,5.63,17.29,5.63,17.29,0,0-14.85-1.64-16.82,5-1.97,6.64-2.71,13.03-2.71,13.03l-32.25-6.85Z"/><path class="cls-16" d="M143.79,235.03c-.03-.44-6.89,.15-6.89,.15,0,0-4.11,3.52-8.19,4.42-4.08,.9-1.72,2.75,2.88,2.58,4.59-.16,8.1-.29,11.36-.41,3.26-.12,1.15-2.22,.85-6.75Z"/><path class="cls-21" d="M155.53,235.03c-.03-.44-6.89,.15-6.89,.15,0,0-4.11,3.52-8.19,4.42-4.08,.9-1.72,2.75,2.88,2.58,4.59-.16,8.1-.29,11.36-.41,3.26-.12,1.15-2.22,.85-6.75Z"/><g><path class="cls-28" d="M172.54,173.3l-4.89,2.54s-1.44-.34-2.76,.07-3.85,2.66-3.72,3.65c.13,.99,3.97,.32,4.65,.49,.68,.17,2.08-.7,2.46-.88,.38-.18,.47-1.34,.47-1.34l3.8-1.3v-3.23Z"/><path class="cls-20" d="M187.11,145.56c3.5,.96,5.53,19.34,2.01,24.76-3.52,5.42-18.44,7.51-18.44,7.51l-1.47-3.72s11.5-4.77,12.72-7.09c1.23-2.32,1.81-6.97,.76-12.62-1.05-5.65,4.41-8.84,4.41-8.84Z"/><path class="cls-10" d="M187.11,145.56c3.5,.96,5.53,19.34,2.01,24.76-3.52,5.42-18.44,7.51-18.44,7.51l-1.47-3.72s11.5-4.77,12.72-7.09c1.23-2.32,1.81-6.97,.76-12.62-1.05-5.65,4.41-8.84,4.41-8.84Z"/></g><g><path class="cls-28" d="M157.15,172.2l1.05,3.72s.92,.87,1.22,1.92c.25,.87-.12,1.76-.6,1.91-1.21,.38-3.7,.93-3.88,.29-.18-.64-.52-3.37,.52-3.25l-.81-3.01,2.5-1.57Z"/><path class="cls-20" d="M163.5,145.64c-4.03,1.07-12.25,14.31-10.98,21.63,1.27,7.32,2.54,8.65,2.54,8.65l3.31-1.74s-1.8-7.47-.7-10.12c5.44-13.03,5.83-18.42,5.83-18.42Z"/><path class="cls-10" d="M163.5,145.64c-4.03,1.07-12.25,14.31-10.98,21.63,1.27,7.32,2.54,8.65,2.54,8.65l3.31-1.74s-1.8-7.47-.7-10.12c5.44-13.03,5.83-18.42,5.83-18.42Z"/></g></g><g><path class="cls-31" d="M191.13,152.1c-.49,0-.88-.39-.88-.88v-6.75c0-2.69,2.1-4.89,4.79-5.02l5.68-.27c.49-.03,.9,.35,.92,.84,.02,.49-.35,.9-.84,.92l-5.68,.27c-1.74,.08-3.11,1.52-3.11,3.26v6.75c0,.49-.39,.88-.88,.88Z"/><g><path class="cls-21" d="M189.71,148v36.33h-27.56c-2.44,0-4.41,1.98-4.41,4.41v19.62h29.62c2.95,0,5.34-2.39,5.34-5.34v-55.03c0-.82-.67-1.49-1.49-1.49h0c-.82,0-1.49,.67-1.49,1.49Z"/><path class="cls-4" d="M189.71,148v36.33h-27.56c-2.44,0-4.41,1.98-4.41,4.41v19.62h29.62c2.95,0,5.34-2.39,5.34-5.34v-55.03c0-.82-.67-1.49-1.49-1.49h0c-.82,0-1.49,.67-1.49,1.49Z"/><path class="cls-21" d="M185.83,197.46h-22.83c-2.67,0-4.85,2.18-4.85,4.85v37.92c0,1.2-.97,2.17-2.17,2.17h-11.23c-.65,0-1.17,.53-1.17,1.17s.53,1.17,1.17,1.17h11.23c2.49,0,4.52-2.03,4.52-4.52v-14.06h25.33c.65,0,1.17-.53,1.17-1.17v-26.35c0-.65-.53-1.17-1.17-1.17Zm-1.17,26.35h-24.16v-21.5c0-1.38,1.12-2.5,2.5-2.5h21.66v24Z"/><path class="cls-10" d="M185.83,197.46h-22.83c-2.67,0-4.85,2.18-4.85,4.85v37.92c0,1.2-.97,2.17-2.17,2.17h-11.23c-.65,0-1.17,.53-1.17,1.17s.53,1.17,1.17,1.17h11.23c2.49,0,4.52-2.03,4.52-4.52v-14.06h25.33c.65,0,1.17-.53,1.17-1.17v-26.35c0-.65-.53-1.17-1.17-1.17Zm-1.17,26.35h-24.16v-21.5c0-1.38,1.12-2.5,2.5-2.5h21.66v24Z"/><rect class="cls-21" x="134.98" y="240.41" width="21.5" height="3.74" rx="1.87" ry="1.87"/><rect class="cls-4" x="134.98" y="240.41" width="21.5" height="3.74" rx="1.87" ry="1.87"/></g><g><path class="cls-21" d="M185.79,252.88c-12.55,0-22.76-12.51-22.76-27.89s10.21-27.89,22.76-27.89,22.76,12.51,22.76,27.89-10.21,27.89-22.76,27.89Zm0-52.85c-10.93,0-19.83,11.2-19.83,24.96s8.89,24.96,19.83,24.96,19.83-11.2,19.83-24.96-8.89-24.96-19.83-24.96Z"/><path class="cls-20" d="M185.79,250.23c-11.09,0-20.12-11.33-20.12-25.25s9.03-25.25,20.12-25.25,20.12,11.33,20.12,25.25-9.03,25.25-20.12,25.25Zm0-46.98c-9.15,0-16.6,9.75-16.6,21.73s7.45,21.73,16.6,21.73,16.6-9.75,16.6-21.73-7.45-21.73-16.6-21.73Z"/><ellipse class="cls-20" cx="185.79" cy="224.98" rx="5.34" ry="6.91"/><g><rect class="cls-20" x="185.2" y="201.49" width="1.17" height="46.98"/><rect class="cls-20" x="167.43" y="224.4" width="36.72" height="1.17"/><g><rect class="cls-20" x="185.2" y="203.9" width="1.17" height="42.16" transform="translate(-99.14 162.13) rotate(-38.01)"/><rect class="cls-20" x="164.71" y="224.4" width="42.16" height="1.17" transform="translate(-105.89 232.76) rotate(-51.98)"/></g><g><rect class="cls-20" x="163" y="224.4" width="45.57" height="1.17" transform="translate(-86.09 330.89) rotate(-71.73)"/><rect class="cls-20" x="185.2" y="205.76" width="1.17" height="38.45" transform="translate(-100.49 281.36) rotate(-61.59)"/><g><rect class="cls-20" x="185.2" y="202.15" width="1.17" height="45.67" transform="translate(-59.31 66.68) rotate(-17.59)"/><rect class="cls-20" x="166.62" y="224.4" width="38.34" height="1.17" transform="translate(-82.78 110.93) rotate(-27.44)"/></g></g></g></g></g></g><g><path class="cls-27" d="M111.68,138.34l5.27-2.63s1.26-1.7,1.6-1.78,6.69,.77,6.69,.77c0,0-.7,2.01-1.32,2.63-.62,.62-4.72-.15-4.72-.15l-5.19,2.56-2.32-1.39Z"/><path class="cls-31" d="M107.17,114.74c-1.41,1.37-2.74,2.42-.68,4.32,2.06,1.9,1.67,5.02-.96,6.42-2.63,1.4-15.77,6.16-20.64,.67s-1.24-9.27,1.15-10.3c2.39-1.03,.09-3.73-.14-5.69-.22-1.96,8.76-9.97,12.96-10.49,4.19-.52,7.02,3.1,6.97,6.76-.05,3.66,3.65,6.07,1.35,8.3Z"/><g><path class="cls-20" d="M102.08,124.7c-.29,0,1.61,12.59,2.12,14.47,.51,1.88,11.04-3.18,11.04-3.18l1.7,2.6s-9.24,7.77-13.22,6.89-6.97-14.63-6.97-14.63l5.32-6.16Z"/><path class="cls-2" d="M116.94,138.59s-9.24,7.77-13.21,6.89c-1.6-.35-3.04-2.78-4.19-5.57-1.47-3.56-2.47-7.69-2.72-8.78-.04-.18-.06-.28-.06-.28l.58-.67,2.14-2.49,2.58-2.99c-.2,.49,1.64,12.62,2.14,14.46,.51,1.88,11.04-3.18,11.04-3.18l1.7,2.6Z"/><path class="cls-16" d="M99.55,139.91c-1.47-3.56-2.47-7.69-2.72-8.78,.16-.33,.33-.65,.52-.95,.61-1.02,1.33-1.89,2.14-2.49,.03-.02,.05-.04,.08-.06,0,0,2.26,6.56-.02,12.27Z"/></g><g><polygon class="cls-20" points="75.29 167.42 91.44 169.7 94.32 128.03 78.15 129.95 75.29 167.42"/><polygon class="cls-4" points="75.29 167.42 91.44 169.7 94.32 128.03 78.15 129.95 75.29 167.42"/></g><polygon class="cls-27" points="83.27 246.48 79.39 246.48 80.58 241.11 81.68 236.19 86.54 235.44 84.81 241.29 83.27 246.48"/><polygon class="cls-16" points="84.77 241.41 80.54 241.22 81.66 236.24 86.53 235.47 84.77 241.41"/><polygon class="cls-27" points="75.23 246.48 71.35 246.48 72.54 241.11 73.64 236.19 78.5 235.44 76.78 241.29 75.23 246.48"/><polygon class="cls-16" points="76.73 241.41 72.51 241.22 73.62 236.24 78.5 235.47 76.73 241.41"/><g><path class="cls-31" d="M68.21,143.9s-.2,.42-.51,1.19c-1.46,3.61-5.47,15.02-3.97,28.24,.88,7.82,9.53,21.9,10.81,29.56,1.5,8.93-2.42,24.66-1.42,36.21l6.18,.54,1.86-1.17,5.29-.79s13.78-31.33,13.53-42.17c-.2-8.51-13.53-39.01-13.53-39.01l1.27-11.28"/><path class="cls-16" d="M82.13,238.33l-.97,.14-1.58,1c1.01-3.52,9.71-33.99,9.87-40.69,.17-7.12-9.97-32.41-9.97-32.41l2.6-4.7-.39,7.15s9.59,19.66,10.35,29.96c.73,9.87-9.11,37.33-9.91,39.55Z"/></g><path class="cls-31" d="M78.3,246.31c.01-.43,5.27-.09,5.27-.09,0,0,3.24,3.29,6.38,4.03,3.14,.74,1.39,2.63-2.13,2.63h-8.69c-2.5,0-.94-2.13-.83-6.56Z"/><path class="cls-20" d="M84.15,246.9s-.03-.02-.04-.03h0s-.02-.02-.02-.04h0s0-.03-.01-.04h0s0-.04,0-.06c.02-.06,.46-1.28,1.17-1.58,.23-.09,.46-.09,.68,.02,.24,.11,.36,.26,.35,.44-.02,.28-.39,.55-.82,.78,.44-.04,.9-.03,1.18,.13,.15,.09,.24,.21,.28,.36,.08,.31-.03,.48-.13,.56-.11,.09-.27,.13-.46,.13-.74,0-1.9-.53-2.18-.67Zm.48-.09c.78,.33,1.74,.62,1.99,.41,.02-.02,.09-.07,.03-.28-.02-.08-.07-.14-.15-.18-.15-.08-.37-.11-.62-.11-.41,0-.89,.08-1.25,.16Zm.73-1.4c-.41,.17-.74,.77-.9,1.13,.78-.3,1.53-.7,1.54-.94,0-.07-.12-.14-.19-.18-.08-.04-.16-.06-.24-.06-.07,0-.14,.02-.21,.04Z"/><polygon class="cls-20" points="79.3 237.59 88.02 236.4 87.29 239.64 80.1 240.55 79.3 237.59"/><path class="cls-31" d="M70.26,246.31c.01-.43,5.27-.09,5.27-.09,0,0,3.24,3.29,6.38,4.03,3.14,.74,1.39,2.63-2.13,2.63h-8.69c-2.5,0-.94-2.13-.83-6.56Z"/><path class="cls-20" d="M76.12,246.9s-.03-.02-.04-.03h0s-.02-.02-.02-.04h0s0-.03-.01-.04h0s0-.04,0-.06c.02-.06,.46-1.28,1.17-1.58,.23-.09,.46-.09,.68,.02,.24,.11,.36,.26,.35,.44-.02,.28-.39,.55-.82,.78,.44-.04,.9-.03,1.18,.13,.15,.09,.24,.21,.28,.36,.08,.31-.03,.48-.13,.56-.11,.09-.27,.13-.46,.13-.74,0-1.9-.53-2.18-.67Zm.48-.09c.78,.33,1.74,.62,1.99,.41,.02-.02,.09-.07,.03-.28-.02-.08-.07-.14-.15-.18-.15-.08-.37-.11-.62-.11-.41,0-.89,.08-1.25,.16Zm.73-1.4c-.41,.17-.74,.77-.9,1.13,.78-.3,1.53-.7,1.54-.94,0-.07-.12-.14-.19-.18-.08-.04-.16-.06-.24-.06-.07,0-.14,.02-.21,.04Z"/><polygon class="cls-20" points="71.85 237.59 81.16 236.4 80.38 239.64 72.7 240.55 71.85 237.59"/><g><polygon points="69.34 141.36 68.42 143.98 86.79 148.84 87.87 145.74 69.34 141.36"/><rect class="cls-31" x="74.03" y="142.09" width=".94" height="4.79" transform="translate(43.45 -15.08) rotate(16.26)"/><rect class="cls-3" x="78.93" y="144.35" width="4.16" height="3.15" transform="translate(37.91 -15.32) rotate(14.07)"/><rect class="cls-31" x="85.38" y="144.69" width=".94" height="4.79" transform="translate(44.66 -18.16) rotate(16.27)"/></g><path class="cls-20" d="M101.79,124.7c-.8,1.04-1.54,2.02-2.22,2.94-2.68,3.58-4.58,6.13-6.04,8.17-1.99,2.82-3.14,4.7-4.25,7.07-.48,1.01-.95,2.11-1.47,3.4l-18.47-4.93c3.48-12.91,6.46-19.68,7.95-23.05,.02-.04,.03-.07,.05-.11,.93-2.1,3.26-3.19,5.48-2.6,1.33,.36,2.88,.81,4.32,1.3,2.68,.99,5.28,2.17,7.8,3.53,2.39,1.26,4.68,2.68,6.86,4.27Z"/><path class="cls-27" d="M82.81,115.6c-2.43-.64,1.14,7.91,6.67,9.58,5.53,1.67,8.85-.38,8.85-1.97,0-1.59-8.19-5.67-15.52-7.61Z"/><g><g><path class="cls-20" d="M84.43,115.43s1.86,8.37,0,14.52c-1.86,6.15-17.03,43.35-17.03,43.35h-8.05s2.49-18.36,10-34.13c0,0,6.73-21.19,6.88-22.12,.15-.93,3.72-2.46,8.21-1.62Z"/><path class="cls-20" d="M95,119.91s.24,8.57-2.93,16.18l-.63,32.41s2.61-16.65,3.76-29.32l6.88-14.47-7.08-4.79Z"/><path class="cls-7" d="M84.43,129.96c-1.86,6.14-17.03,43.35-17.03,43.35h-8.06s2.28-16.79,9.04-32.04c.31-.7,.63-1.4,.96-2.09,0,0,.64-2.01,1.53-4.83,2-6.31,5.25-16.65,5.35-17.29,.15-.93,3.72-2.46,8.21-1.61,0,0,1.86,8.37,0,14.52Z"/><path class="cls-7" d="M95,119.91s.24,8.57-2.93,16.18l-.63,32.41s2.61-16.65,3.76-29.32l6.88-14.47-7.08-4.79Z"/></g><g><path class="cls-20" d="M95.2,119.18s2.44,1.97,4.05,7.2l-3.28,2.34,.79,2.14-4.69,7.48s-.38-3.02,.37-5.81c.75-2.79,2.98-10.99,2.76-13.36Z"/><path class="cls-20" d="M85.25,115.43s3.14,10.19-3,20.56c0,0-.19-7.81-1.24-10.66l2.52-1.01-4.97-3.23s4.03-6.62,6.69-5.66Z"/><path class="cls-2" d="M95.2,119.18s2.44,1.97,4.05,7.2l-3.28,2.34,.79,2.14-4.69,7.48s-.38-3.02,.37-5.81c.75-2.79,2.98-10.99,2.76-13.36Z"/><path class="cls-2" d="M85.25,115.43s3.14,10.19-3,20.56c0,0-.19-7.81-1.24-10.66l2.52-1.01-4.97-3.23s4.03-6.62,6.69-5.66Z"/></g><path class="cls-16" d="M76.07,144.2c-1.89,.18-5.19-1.48-7.69-2.94,.31-.7,.63-1.4,.96-2.09,0,0,.64-2.01,1.53-4.83,3.01,3.69,7.48,9.65,5.2,9.86Z"/></g><g><g><path class="cls-20" d="M77.4,156.01s1.83,.25,5.34-3.11,8.23-7.31,9.36-6.77c1.13,.54,10.42,5.03,10.42,5.03l-14.05,10.01-11.06-5.16Z"/><path class="cls-2" d="M77.4,156.01s1.83,.25,5.34-3.11,8.23-7.31,9.36-6.77c1.13,.54,10.42,5.03,10.42,5.03l-14.05,10.01-11.06-5.16Z"/><path class="cls-20" d="M77.66,158.04l14.4-11.27c.19-.15,.45-.18,.67-.08l10.84,4.8c.2,.09,.23,.36,.06,.49l-14.22,10.61c-.18,.13-.41,.17-.62,.09l-11.04-4.14c-.21-.08-.25-.36-.08-.5Z"/><g><path class="cls-24" d="M98.7,148.69c-.11-.08-.33,0-.5,.09,.15,.07,.29,.14,.43,.21,.09-.1,.18-.22,.06-.3Z"/><path class="cls-31" d="M98.95,149.13c.12-.2,.29-.57-.09-.76-.35-.17-.81,.03-1.09,.2-.56-.26-1.08-.51-1.45-.67-.08-.04-.17-.02-.24,.04l-.9,.83c-.17,.16-.12,.44,.09,.53l3.69,1.57c.27,.11,.58,.07,.8-.12l.74-.61c.1-.08,.08-.23-.03-.29-.31-.15-.88-.42-1.52-.73Zm-.25-.45c.12,.08,.03,.21-.06,.3-.14-.07-.29-.14-.43-.21,.16-.09,.38-.17,.5-.09Z"/></g></g><path class="cls-27" d="M80.71,146.29l2.4,3.21s2.33,.46,2.95,1.08c.62,.62,2.63,3.33,2.86,3.95,.23,.62-3.23,2.32-3.67,2.09-.44-.23-2.91-3.72-3.22-4.34-.31-.62,0-1.26,0-1.26l-2.55-2.92,1.23-1.81Z"/><path class="cls-20" d="M76.22,117.05c2.17,1.2,2.34,5.84,2.34,5.84,0,0-4.97,9.64-5.28,11.14-.31,1.5,9.2,13.77,9.2,13.77l-2.23,2.08s-11.46-12.29-12.7-15.25,8.67-17.58,8.67-17.58Z"/><path class="cls-2" d="M76.22,117.05c2.17,1.2,2.34,5.84,2.34,5.84,0,0-4.97,9.64-5.28,11.14-.31,1.5,9.2,13.77,9.2,13.77l-2.23,2.08s-11.46-12.29-12.7-15.25,8.67-17.58,8.67-17.58Z"/></g><g><path class="cls-31" d="M103.3,141.45c0,.85-.69,1.54-1.54,1.54s-1.54-.69-1.54-1.54,.69-1.54,1.54-1.54,1.54,.69,1.54,1.54Z"/><g class="cls-13"><path class="cls-3" d="M103.3,141.45c0,.85-.69,1.54-1.54,1.54s-1.54-.69-1.54-1.54,.69-1.54,1.54-1.54,1.54,.69,1.54,1.54Z"/></g><path class="cls-31" d="M95.91,128.77c.01-.88,.16-1.83,.32-2.83,.55-3.49,1.17-7.44-4.04-9.7-1.58-.68-2.97-.67-4.15,.04-2.67,1.61-3.36,6.26-3.49,7.47-1.06-.07-1.91,.23-2.54,.91-1.91,2.04-1.04,6.73-1,6.93,.03,.16,.19,.26,.34,.23,.16-.03,.26-.18,.23-.34,0-.05-.86-4.59,.85-6.41,.56-.6,1.33-.83,2.34-.7,1,.13,1.72,.55,2.18,1.31,1.47,2.39-.2,7.15-.22,7.2-.05,.15,.02,.32,.18,.38,.03,.01,.07,.02,.1,.02,.12,0,.23-.07,.28-.19,.07-.21,1.78-5.07,.16-7.7-.51-.83-1.29-1.34-2.33-1.53,.13-1.14,.8-5.59,3.21-7.04,1.01-.61,2.23-.61,3.62,0,4.79,2.07,4.23,5.63,3.69,9.07-.16,1.02-.31,1.99-.33,2.91-.08,4.72,1.43,12.28,5.81,12.43l.02-.59c-4.1-.15-5.3-8.04-5.24-11.84Z"/><path class="cls-8" d="M95.91,128.77c.01-.88,.16-1.83,.32-2.83,.55-3.49,1.17-7.44-4.04-9.7-1.58-.68-2.97-.67-4.15,.04-2.67,1.61-3.36,6.26-3.49,7.47-1.06-.07-1.91,.23-2.54,.91-1.91,2.04-1.04,6.73-1,6.93,.03,.16,.19,.26,.34,.23,.16-.03,.26-.18,.23-.34,0-.05-.86-4.59,.85-6.41,.56-.6,1.33-.83,2.34-.7,1,.13,1.72,.55,2.18,1.31,1.47,2.39-.2,7.15-.22,7.2-.05,.15,.02,.32,.18,.38,.03,.01,.07,.02,.1,.02,.12,0,.23-.07,.28-.19,.07-.21,1.78-5.07,.16-7.7-.51-.83-1.29-1.34-2.33-1.53,.13-1.14,.8-5.59,3.21-7.04,1.01-.61,2.23-.61,3.62,0,4.79,2.07,4.23,5.63,3.69,9.07-.16,1.02-.31,1.99-.33,2.91-.08,4.72,1.43,12.28,5.81,12.43l.02-.59c-4.1-.15-5.3-8.04-5.24-11.84Z"/><path class="cls-31" d="M87.33,132.51l-.81-.16s-.62,1.29-.11,1.52c.51,.23,1.19-.68,.92-1.36Z"/><g class="cls-13"><path class="cls-3" d="M87.33,132.51l-.81-.16s-.62,1.29-.11,1.52c.51,.23,1.19-.68,.92-1.36Z"/></g><path class="cls-31" d="M81.16,131.06h.83s.35,1.39-.19,1.51c-.54,.12-1.03-.9-.63-1.51Z"/><g class="cls-13"><path class="cls-3" d="M81.16,131.06h.83s.35,1.39-.19,1.51c-.54,.12-1.03-.9-.63-1.51Z"/></g><circle class="cls-31" cx="101.42" cy="140.77" r=".86"/><g class="cls-1"><circle class="cls-3" cx="101.42" cy="140.77" r=".86"/></g></g><g><path class="cls-27" d="M89.86,124.04c-3.11-3.54-2.84-5.96-2.84-5.96,4.07-.14,5.43-5.4,5.43-5.4l3.52,4.5c-.72,.6-1.29,1.14-1.73,1.63-2.29,2.53-1.15,3.58-1.15,3.58-.48,2.04-3.23,1.65-3.23,1.65Z"/><path class="cls-16" d="M95.97,117.18c-.72,.6-1.29,1.14-1.73,1.63-1.62-2.26-1.8-6.13-1.8-6.13l3.52,4.5Z"/></g><g><path class="cls-27" d="M99.81,100.56c4.75,1.16,5.67,4.08,4.82,9.06-1.06,6.23-3.47,10.25-9.1,7.49-7.64-3.74-3.62-18.48,4.28-16.55Z"/><path class="cls-22" d="M101.62,108.61s.36,1.4,.9,2.31c0,0-.56,.55-1.38,.23l.48-2.54Z"/><g><path class="cls-31" d="M98.8,107.51c-.09,.39-.37,.66-.63,.61-.26-.06-.4-.42-.32-.82,.09-.39,.37-.66,.63-.61,.26,.06,.4,.42,.32,.82Z"/><path class="cls-31" d="M98.37,106.69l.93-.15s-.58,.63-.93,.15Z"/></g><g><path class="cls-31" d="M103.7,108.5c-.09,.39-.37,.66-.63,.61-.26-.06-.4-.42-.32-.81,.09-.39,.37-.66,.63-.61,.26,.06,.4,.42,.32,.82Z"/><path class="cls-31" d="M103.27,107.68l.93-.15s-.58,.63-.93,.15Z"/></g><path class="cls-23" d="M99.56,104.22s-1.29-.5-2.24,.22"/><path class="cls-23" d="M103.06,104.86s.92-.11,1.8,.85"/><path class="cls-31" d="M92.66,107.31s3.17-3.37,3.57-6.46c0,0,10.36-1.55,8.5,8.12,0,0,2.99-8.27-5.14-10.45-8.11-2.18-11.01,9.79-7.65,14.38,0,0-1.25-3.48,.72-5.59Z"/><path class="cls-27" d="M93.19,108.5c.15-.77-.32-2.26-1.78-2.45-1.51-.2-2.95,2.66,.54,4.28,.5,.23,.92-.21,1.25-1.82Z"/><path class="cls-31" d="M107.59,111.11c-1.24-1.17-1.05-3.17-.08-5.19,.97-2.02-1.54-3.51-1.54-3.51,0,0-.2-2.55-2.16-3.57-.36-.19-1.99,0-1.99,0-2.14-2.34-5.57-4.28-8.27-1.22-1.59,1.8-3.17-.05-5.69,3.72-1.82,2.71-.55,5.11-1.08,5.98-2.44,4.02,.73,5.1,1.49,6.5,0,0,1.68-.8,1.54-1.28-1.14-3.85,.86-6.34,2.4-5.73,1.54,.62,2.66,.45,3.78-.97,1.12-1.41,.34-2.95,2.93-3.29,2.59-.34,2.86-1.84,2.86-1.84,0,0-.03,1.97,2.13,3.1,2.17,1.13,1.31,2.5,1.01,4.43-.3,1.93,.65,2.68,2.33,4.08,1.68,1.4-.1,2.42-.1,2.42,1.37-.66,1.66-2.46,.42-3.62Z"/><g><path class="cls-31" d="M100.78,113.31c-.48,.39-1.17,1.23-1.17,1.23-.09-.05-.17-.1-.26-.15-1.16-.7-1.47-1.4-1.46-1.98,0-.31,.11-.59,.23-.8,.13-.24,.28-.38,.28-.38,.4,.74,1.43,1.47,2,1.84,.24,.16,.39,.24,.39,.24Z"/><path class="cls-3" d="M100.39,113.06l-.36,.35c-1.09-.66-1.77-1.27-1.92-1.81,.13-.24,.28-.38,.28-.38,.4,.74,1.43,1.47,2,1.84Z"/><path class="cls-29" d="M99.35,114.38c-1.16-.7-1.47-1.4-1.46-1.98,.39,.25,.83,.6,1.14,1.03,.24,.33,.32,.66,.32,.95Z"/></g></g></g></svg>